<svg width="58.42mm" height="48.641mm" viewBox="0 0 23000000 19150000"  version="1.1" xmlns="http://www.w3.org/2000/svg" xmlns:xlink="http://www.w3.org/1999/xlink">
<desc>
Origin 10000000 10150000 Bound 10000000 30850000 23000000 19150000
</desc>
<g fill-rule="evenodd" fill="rgb(128, 0, 128)" stroke="black" stroke-width="1" transform="translate(0, 19150000) scale(1, -1) translate(-10000000, -30850000)">
<path id="N" d="M 33000000.00 30850000.00 L 10000000.00 30850000.00 L 10000000.00 50000000.00 L 33000000.00 50000000.00 L 33000000.00 30850000.00  zM 14588692.28 32150005.39 m -1029202.61 0 a 1029202.61 1029202.61 0 1 1 2058405.22 0a 1029202.61 1029202.61 0 1 1 -2058405.22 0M 11554708.00 38320898.00 L 11397226.00 38320898.00 A 358018.50 358018.50 0 0 1 11397226.00 37604852.00 L 11554708.00 37604852.00 A 358018.50 358018.50 0 0 1 11554708.00 38320898.00  zM 16499088.84 38646630.85 m -407671.15 0 a 407671.15 407671.15 0 1 1 815342.31 0a 407671.15 407671.15 0 1 1 -815342.31 0M 11554708.00 39320898.00 L 11397226.00 39320898.00 A 358018.50 358018.50 0 1 1 11397226.00 38604852.00 L 11554708.00 38604852.00 A 358018.50 358018.50 0 1 1 11554708.00 39320898.00  zM 11554708.00 40320898.00 L 11397226.00 40320898.00 A 358018.50 358018.50 0 0 1 11397226.00 39604852.00 L 11554708.00 39604852.00 A 358018.50 358018.50 0 0 1 11554708.00 40320898.00  zM 14038459.68 39434025.80 m -437460.20 0 a 437460.20 437460.20 0 1 1 874920.41 0a 437460.20 437460.20 0 1 1 -874920.41 0M 20737043.68 32735458.80 m -437460.20 0 a 437460.20 437460.20 0 1 1 874920.41 0a 437460.20 437460.20 0 1 1 -874920.41 0M 21170741.00 35137681.00 L 20303339.00 35137681.00 L 20303339.00 34270279.00 L 21170741.00 34270279.00 L 21170741.00 35137681.00  zM 21649998.32 38450004.50 m -358018.50 0 a 358018.50 358018.50 0 1 1 716037.01 0a 358018.50 358018.50 0 1 1 -716037.01 0M 18959719.68 39434025.80 m -437460.20 0 a 437460.20 437460.20 0 1 1 874920.41 0a 437460.20 437460.20 0 1 1 -874920.41 0M 21649998.32 39800004.50 m -358018.50 0 a 358018.50 358018.50 0 1 1 716037.01 0a 358018.50 358018.50 0 1 1 -716037.01 0M 11554708.00 41320898.00 L 11397226.00 41320898.00 A 358018.50 358018.50 0 0 1 11397226.00 40604852.00 L 11554708.00 40604852.00 A 358018.50 358018.50 0 0 1 11554708.00 41320898.00  zM 11554708.00 42320898.00 L 11397226.00 42320898.00 A 358018.50 358018.50 0 0 1 11397226.00 41604852.00 L 11554708.00 41604852.00 A 358018.50 358018.50 0 0 1 11554708.00 42320898.00  zM 14472157.00 41836248.00 L 13604755.00 41836248.00 L 13604755.00 40968846.00 L 14472157.00 40968846.00 L 14472157.00 41836248.00  zM 11909668.00 43317835.00 L 11042266.00 43317835.00 L 11042266.00 42607915.00 L 11909668.00 42607915.00 L 11909668.00 43317835.00  zM 14588692.28 48650005.39 m -1029202.61 0 a 1029202.61 1029202.61 0 1 1 2058405.22 0a 1029202.61 1029202.61 0 1 1 -2058405.22 0M 16499088.84 42189938.85 m -407671.15 0 a 407671.15 407671.15 0 1 1 815342.31 0a 407671.15 407671.15 0 1 1 -815342.31 0M 18959719.68 41402529.80 m -437460.20 0 a 437460.20 437460.20 0 1 1 874920.41 0a 437460.20 437460.20 0 1 1 -874920.41 0M 21649998.32 42600004.50 m -358018.50 0 a 358018.50 358018.50 0 1 1 716037.01 0a 358018.50 358018.50 0 1 1 -716037.01 0M 20728019.71 46123447.13 m -437452.87 0 a 437452.87 437452.87 0 1 1 874905.73 0a 437452.87 437452.87 0 1 1 -874905.73 0M 21161718.00 48525662.00 L 20294316.00 48525662.00 L 20294316.00 47658260.00 L 21161718.00 47658260.00 L 21161718.00 48525662.00  zM 23197672.84 31948063.85 m -407671.15 0 a 407671.15 407671.15 0 1 1 815342.31 0a 407671.15 407671.15 0 1 1 -815342.31 0M 23197672.84 35491371.85 m -407671.15 0 a 407671.15 407671.15 0 1 1 815342.31 0a 407671.15 407671.15 0 1 1 -815342.31 0M 24649998.32 38450004.50 m -358018.50 0 a 358018.50 358018.50 0 1 1 716037.01 0a 358018.50 358018.50 0 1 1 -716037.01 0M 25658303.68 32735458.80 m -437460.20 0 a 437460.20 437460.20 0 1 1 874920.41 0a 437460.20 437460.20 0 1 1 -874920.41 0M 25658303.68 34703962.80 m -437460.20 0 a 437460.20 437460.20 0 1 1 874920.41 0a 437460.20 437460.20 0 1 1 -874920.41 0M 31706581.28 32150005.39 m -1029202.61 0 a 1029202.61 1029202.61 0 1 1 2058405.22 0a 1029202.61 1029202.61 0 1 1 -2058405.22 0M 24649998.32 39800004.50 m -358018.50 0 a 358018.50 358018.50 0 1 1 716037.01 0a 358018.50 358018.50 0 1 1 -716037.01 0M 24649998.32 41250004.50 m -358018.50 0 a 358018.50 358018.50 0 1 1 716037.01 0a 358018.50 358018.50 0 1 1 -716037.01 0M 27335561.71 39433969.13 m -437452.87 0 a 437452.87 437452.87 0 1 1 874905.73 0a 437452.87 437452.87 0 1 1 -874905.73 0M 29796192.81 38646559.51 m -407678.49 0 a 407678.49 407678.49 0 1 1 815356.98 0a 407678.49 407678.49 0 1 1 -815356.98 0M 32256821.71 39433969.13 m -437452.87 0 a 437452.87 437452.87 0 1 1 874905.73 0a 437452.87 437452.87 0 1 1 -874905.73 0M 21649998.32 41250004.50 m -358018.50 0 a 358018.50 358018.50 0 1 1 716037.01 0a 358018.50 358018.50 0 1 1 -716037.01 0M 24649998.32 42600004.50 m -358018.50 0 a 358018.50 358018.50 0 1 1 716037.01 0a 358018.50 358018.50 0 1 1 -716037.01 0M 23188650.81 45336037.51 m -407678.49 0 a 407678.49 407678.49 0 1 1 815356.98 0a 407678.49 407678.49 0 1 1 -815356.98 0M 25649279.71 46123447.13 m -437452.87 0 a 437452.87 437452.87 0 1 1 874905.73 0a 437452.87 437452.87 0 1 1 -874905.73 0M 23188650.81 48879345.51 m -407678.49 0 a 407678.49 407678.49 0 1 1 815356.98 0a 407678.49 407678.49 0 1 1 -815356.98 0M 27335561.71 41402473.13 m -437452.87 0 a 437452.87 437452.87 0 1 1 874905.73 0a 437452.87 437452.87 0 1 1 -874905.73 0M 29796192.81 42189867.51 m -407678.49 0 a 407678.49 407678.49 0 1 1 815356.98 0a 407678.49 407678.49 0 1 1 -815356.98 0M 32690520.00 41836184.00 L 31823118.00 41836184.00 L 31823118.00 40968782.00 L 32690520.00 40968782.00 L 32690520.00 41836184.00  zM 25649279.71 48091951.13 m -437452.87 0 a 437452.87 437452.87 0 1 1 874905.73 0a 437452.87 437452.87 0 1 1 -874905.73 0M 31706581.28 48650005.39 m -1029202.61 0 a 1029202.61 1029202.61 0 1 1 2058405.22 0a 1029202.61 1029202.61 0 1 1 -2058405.22 0"/>
</g>
</svg>
