<svg width="58.42mm" height="48.641mm" viewBox="0 0 23000000 19150000"  version="1.1" xmlns="http://www.w3.org/2000/svg" xmlns:xlink="http://www.w3.org/1999/xlink">
<desc>
Origin 10000000 10150000 Bound 10000000 30850000 23000000 19150000
</desc>
<g fill-rule="evenodd" fill="rgb(0, 0, 255)" stroke="black" stroke-width="1" transform="translate(0, 19150000) scale(1, -1) translate(-10000000, -30850000)">
<path id="N" d="M 11779340.00 40187507.00 L 11797698.39 40163582.00 L 12105186.00 40163582.00 L 12181993.00 40148304.00 L 12247107.00 40104796.00 L 12717153.89 39634750.00 L 13696214.88 39634750.00 A 391877.54 391877.54 0 0 0 13935679.00 39817610.00 A 397095.55 397095.55 0 1 0 13696214.88 39233336.00 L 12634018.00 39233336.00 L 12557210.00 39248614.00 L 12492096.00 39292122.00 L 12022050.89 39762168.00 L 11797698.39 39762168.00 L 11779340.00 39738243.00 A 317671.90 317671.90 0 0 0 11554708.00 39645197.00 L 11397226.00 39645197.00 A 317686.61 317686.61 0 0 0 11397226.00 40280553.00 L 11554708.00 40280553.00 A 317671.90 317671.90 0 0 0 11779340.00 40187507.00  zM 11475967.44 39962873.65 m -180637.35 0 a 180637.35 180637.35 0 1 1 361274.69 0a 180637.35 180637.35 0 1 1 -361274.69 0M 14038456.44 39434041.65 m -180637.35 0 a 180637.35 180637.35 0 1 1 361274.69 0a 180637.35 180637.35 0 1 1 -361274.69 0"/>
<path id="N" d="M 21650000.00 40932322.00 L 21620101.29 40936258.39 L 20051294.00 39367452.00 L 19986180.00 39323944.00 L 19909373.00 39308666.00 L 19333921.79 39308666.00 L 19303613.00 39235494.00 A 397086.64 397086.64 0 1 0 19240507.00 39714834.00 L 19244154.84 39710080.00 L 19826237.97 39710080.00 L 21336258.39 41220101.29 L 21332322.00 41250000.00 A 317686.61 317686.61 0 1 0 21650000.00 40932322.00  zM 18959716.44 39434041.65 m -180637.35 0 a 180637.35 180637.35 0 1 1 361274.69 0a 180637.35 180637.35 0 1 1 -361274.69 0M 21650000.44 41249998.65 m -180637.35 0 a 180637.35 180637.35 0 1 1 361274.69 0a 180637.35 180637.35 0 1 1 -361274.69 0"/>
<path id="N" d="M 31706587.86 32150011.12 m -989001.57 0 a 989001.57 989001.57 0 1 1 1978003.14 0a 989001.57 989001.57 0 1 1 -1978003.14 0M 31706581.40 32149999.06 m -593408.94 0 a 593408.94 593408.94 0 1 1 1186817.89 0a 593408.94 593408.94 0 1 1 -1186817.89 0"/>
<path id="N" d="M 31706587.86 48650011.12 m -989001.57 0 a 989001.57 989001.57 0 1 1 1978003.14 0a 989001.57 989001.57 0 1 1 -1978003.14 0M 31706581.40 48649999.06 m -593408.94 0 a 593408.94 593408.94 0 1 1 1186817.89 0a 593408.94 593408.94 0 1 1 -1186817.89 0"/>
<path id="N" d="M 14588698.86 48650011.12 m -989001.57 0 a 989001.57 989001.57 0 1 1 1978003.14 0a 989001.57 989001.57 0 1 1 -1978003.14 0M 14588692.40 48649999.06 m -593408.94 0 a 593408.94 593408.94 0 1 1 1186817.89 0a 593408.94 593408.94 0 1 1 -1186817.89 0"/>
<path id="N" d="M 11779340.00 39187507.00 L 11831204.32 39118384.00 L 12032323.00 39118384.00 L 12109130.00 39103106.00 L 12174244.00 39059598.00 L 14483135.00 36750707.00 L 19666865.00 36750707.00 L 21336258.49 38420100.49 L 21332322.00 38450000.00 A 317686.61 317686.61 0 1 0 21650000.00 38132322.00 L 21620100.49 38136258.49 L 19961191.00 36477349.00 L 19961191.00 33795167.00 L 20636959.94 33119398.06 A 391886.12 391886.12 0 0 0 20935589.00 33079373.00 A 397086.64 397086.64 0 1 0 20353117.94 32835556.06 L 19618563.00 33570111.00 L 19575055.00 33635225.00 L 19559777.00 33712032.00 L 19559777.00 36349293.00 L 14400000.00 36349293.00 L 14323193.00 36364571.00 L 14258079.00 36408079.00 L 11949188.00 38716970.00 L 11751616.63 38716970.00 L 11713547.00 38687758.00 L 11636929.00 38656022.00 L 11554708.00 38645197.00 L 11397226.00 38645197.00 A 317686.61 317686.61 0 0 0 11397226.00 39280553.00 L 11554708.00 39280553.00 A 317671.90 317671.90 0 0 0 11779340.00 39187507.00  zM 11475967.44 38962873.65 m -180637.35 0 a 180637.35 180637.35 0 1 1 361274.69 0a 180637.35 180637.35 0 1 1 -361274.69 0M 20737040.44 32735474.65 m -180637.35 0 a 180637.35 180637.35 0 1 1 361274.69 0a 180637.35 180637.35 0 1 1 -361274.69 0M 21650000.44 38449998.65 m -180637.35 0 a 180637.35 180637.35 0 1 1 361274.69 0a 180637.35 180637.35 0 1 1 -361274.69 0"/>
<path id="N" d="M 25658298.82 32735471.93 m -397102.15 0 a 397102.15 397102.15 0 1 1 794204.30 0a 397102.15 397102.15 0 1 1 -794204.30 0M 25658300.44 32735474.65 m -180637.35 0 a 180637.35 180637.35 0 1 1 361274.69 0a 180637.35 180637.35 0 1 1 -361274.69 0"/>
<path id="N" d="M 26033199.06 47991880.94 L 27477480.00 46547600.00 L 27520988.00 46482486.00 L 27536266.00 46405679.00 L 27536266.00 41744724.12 A 391877.54 391877.54 0 0 0 27719126.00 41505260.00 L 27732657.00 41402483.00 L 27719481.06 41302402.94 L 28382993.00 40638891.00 L 28426501.00 40573777.00 L 28441779.00 40496970.00 L 28441779.00 37286752.00 L 28426501.00 37209945.00 L 28382993.00 37144831.00 L 26042222.06 34804060.06 A 391886.12 391886.12 0 0 0 26002197.00 34505431.00 A 397086.64 397086.64 0 1 0 25758380.06 35087902.06 L 28040365.00 37369887.00 L 28040365.00 40413835.00 L 27435639.06 41018560.94 A 391886.12 391886.12 0 0 0 27137010.00 41058586.00 A 397086.64 397086.64 0 0 0 27134852.00 41744724.12 L 27134852.00 46322544.00 L 25749357.06 47708038.94 A 391886.12 391886.12 0 0 0 25450728.00 47748064.00 A 397086.64 397086.64 0 1 0 26033199.06 47991880.94  zM 25658300.44 34703978.65 m -180637.35 0 a 180637.35 180637.35 0 1 1 361274.69 0a 180637.35 180637.35 0 1 1 -361274.69 0M 27335559.44 41402481.65 m -180637.35 0 a 180637.35 180637.35 0 1 1 361274.69 0a 180637.35 180637.35 0 1 1 -361274.69 0M 25649277.44 48091959.65 m -180637.35 0 a 180637.35 180637.35 0 1 1 361274.69 0a 180637.35 180637.35 0 1 1 -361274.69 0"/>
<path id="N" d="M 21121718.00 47982102.00 L 21775451.00 47328369.00 L 21818959.00 47263255.00 L 21834237.00 47186448.00 L 21834237.00 44076361.00 L 21818959.00 43999554.00 L 21775451.00 43934440.00 L 19343638.06 41502627.06 A 391886.12 391886.12 0 0 0 19303613.00 41203998.00 A 397086.64 397086.64 0 1 0 19059796.06 41786469.06 L 21432823.00 44159496.00 L 21432823.00 47103313.00 L 20837876.00 47698260.00 L 20334316.00 47698260.00 L 20334316.00 48485662.00 L 21121718.00 48485662.00 L 21121718.00 47982102.00  zM 18959716.44 41402545.65 m -180637.35 0 a 180637.35 180637.35 0 1 1 361274.69 0a 180637.35 180637.35 0 1 1 -361274.69 0M 20728017.44 48091959.65 m -180637.35 0 a 180637.35 180637.35 0 1 1 361274.69 0a 180637.35 180637.35 0 1 1 -361274.69 0"/>
<path id="N" d="M 11869668.00 43163582.00 L 12478128.00 43163582.00 L 12554935.00 43148304.00 L 12620049.00 43104796.00 L 13928597.00 41796248.00 L 14432157.00 41796248.00 L 14432157.00 41008846.00 L 13644755.00 41008846.00 L 13644755.00 41512406.00 L 12394993.00 42762168.00 L 11869668.00 42762168.00 L 11869668.00 42647915.00 L 11082266.00 42647915.00 L 11082266.00 43277835.00 L 11869668.00 43277835.00 L 11869668.00 43163582.00  zM 14038456.44 41402545.65 m -180637.35 0 a 180637.35 180637.35 0 1 1 361274.69 0a 180637.35 180637.35 0 1 1 -361274.69 0M 11475967.44 42962873.65 m -180637.35 0 a 180637.35 180637.35 0 1 1 361274.69 0a 180637.35 180637.35 0 1 1 -361274.69 0"/>
<path id="N" d="M 32650520.00 41008782.00 L 31863118.00 41008782.00 L 31863118.00 41796184.00 L 32650520.00 41796184.00 L 32650520.00 41008782.00  zM 32256819.44 41402481.65 m -180637.35 0 a 180637.35 180637.35 0 1 1 361274.69 0a 180637.35 180637.35 0 1 1 -361274.69 0"/>
<path id="N" d="M 21130741.00 34310279.00 L 20343339.00 34310279.00 L 20343339.00 35097681.00 L 21130741.00 35097681.00 L 21130741.00 34310279.00  zM 20737040.44 34703978.65 m -180637.35 0 a 180637.35 180637.35 0 1 1 361274.69 0a 180637.35 180637.35 0 1 1 -361274.69 0"/>
<path id="N" d="M 24956853.00 39717779.00 L 24930261.35 39653580.65 L 25970059.00 38613783.00 L 26129941.00 38613783.00 L 26939819.36 39423661.36 L 26938461.00 39433979.00 A 397100.93 397100.93 0 1 0 27232782.00 39050412.00 L 27163112.15 39079270.15 L 25048458.00 36964616.00 L 24983344.00 36921108.00 L 24906537.00 36905830.00 L 23289672.96 36905830.00 L 22100707.00 35716864.96 L 22100707.00 32150000.00 L 22085429.00 32073193.00 L 22041922.00 32008079.00 L 21721884.00 31688042.00 L 21656770.00 31644534.00 L 21579963.00 31629256.00 L 17687619.00 31629256.00 L 17610811.00 31644534.00 L 17545697.00 31688042.00 L 11584606.60 37649133.37 L 11554708.00 37645197.00 L 11397226.00 37645197.00 A 317686.61 317686.61 0 0 0 11397226.00 38280553.00 L 11554708.00 38280553.00 A 317686.61 317686.61 0 0 0 11872386.00 37962875.00 L 11868449.40 37932974.63 L 17770754.99 32030670.00 L 21496827.82 32030670.00 L 21699293.00 32233135.82 L 21699293.00 35800000.00 L 21714571.00 35876807.00 L 21758079.00 35941921.00 L 23064615.00 37248458.00 L 23129729.00 37291966.00 L 23206537.00 37307244.00 L 24823402.00 37307244.00 L 25770365.94 38254207.94 L 25745003.00 38271155.00 L 24553277.00 39462881.00 L 24519765.08 39513034.88 L 24491161.00 39524883.00 A 317683.20 317683.20 0 1 0 24956853.00 39717779.00  zM 11475967.44 37962873.65 m -180637.35 0 a 180637.35 180637.35 0 1 1 361274.69 0a 180637.35 180637.35 0 1 1 -361274.69 0M 24650000.44 39799998.65 m -180637.35 0 a 180637.35 180637.35 0 1 1 361274.69 0a 180637.35 180637.35 0 1 1 -361274.69 0M 27335559.44 39433977.65 m -180637.35 0 a 180637.35 180637.35 0 1 1 361274.69 0a 180637.35 180637.35 0 1 1 -361274.69 0"/>
<path id="N" d="M 32256817.82 39433974.93 m -397102.15 0 a 397102.15 397102.15 0 1 1 794204.30 0a 397102.15 397102.15 0 1 1 -794204.30 0M 32256819.44 39433977.65 m -180637.35 0 a 180637.35 180637.35 0 1 1 361274.69 0a 180637.35 180637.35 0 1 1 -361274.69 0"/>
<path id="N" d="M 20385775.88 45922750.00 L 13287211.00 45922750.00 L 10771161.00 43406700.00 L 10771161.00 41703551.00 L 11137902.00 41336810.00 L 11160078.00 41336810.00 L 11236885.00 41321532.00 L 11301999.00 41278024.00 L 11311674.56 41268348.50 L 11397226.00 41280553.00 L 11554708.00 41280553.00 A 317686.61 317686.61 0 1 0 11554708.00 40645197.00 L 11397226.00 40645197.00 A 317686.61 317686.61 0 0 0 11090373.00 40880654.00 L 11084109.37 40928229.25 L 11076942.66 40935396.00 L 11054767.00 40935396.00 L 10977960.00 40950674.00 L 10912846.00 40994182.00 L 10428533.00 41478495.00 L 10385025.00 41543609.00 L 10369747.00 41620416.00 L 10369747.00 43489835.00 L 10385025.00 43566642.00 L 10428533.00 43631756.00 L 13062155.00 46265378.00 L 13127269.00 46308886.00 L 13204076.00 46324164.00 L 20385775.88 46324164.00 A 391877.54 391877.54 0 0 0 20625240.00 46507024.00 A 397095.55 397095.55 0 1 0 20385775.88 45922750.00  zM 11475967.44 40962873.65 m -180637.35 0 a 180637.35 180637.35 0 1 1 361274.69 0a 180637.35 180637.35 0 1 1 -361274.69 0M 20728017.44 46123455.65 m -180637.35 0 a 180637.35 180637.35 0 1 1 361274.69 0a 180637.35 180637.35 0 1 1 -361274.69 0"/>
<path id="N" d="M 25549196.94 45739534.94 L 24850707.00 45041045.00 L 24850707.00 42842990.39 L 24874632.00 42824632.00 A 317671.90 317671.90 0 1 0 24425368.00 42824632.00 L 24449293.00 42842990.39 L 24449293.00 45124180.00 L 24464571.00 45200987.00 L 24508079.00 45266101.00 L 25265354.94 46023376.94 A 391886.12 391886.12 0 0 0 25305380.00 46322006.00 A 397086.64 397086.64 0 1 0 25549196.94 45739534.94  zM 24650000.44 42599998.65 m -180637.35 0 a 180637.35 180637.35 0 1 1 361274.69 0a 180637.35 180637.35 0 1 1 -361274.69 0M 25649277.44 46123455.65 m -180637.35 0 a 180637.35 180637.35 0 1 1 361274.69 0a 180637.35 180637.35 0 1 1 -361274.69 0"/>
<path id="N" d="M 31665540.48 49949999.95 L 31502712.00 49937185.00 A 1303244.69 1303244.69 0 1 1 32946027.00 48247280.00 L 32949999.84 48263827.97 L 33000000.00 48257910.02 L 33000000.00 42146847.30 L 32965480.60 42111145.92 L 31548157.00 42111145.00 L 31548157.00 40693821.00 L 32965480.60 40693820.08 L 33000000.00 40658118.70 L 33000000.00 39597549.56 L 32949999.81 39590132.72 L 32914705.00 39706484.00 A 712054.50 712054.50 0 1 1 32914705.00 39161474.00 L 32949999.81 39277825.28 L 33000000.00 39270408.44 L 33000000.00 32542089.98 L 32949999.84 32536172.03 L 32946027.00 32552720.00 A 1303228.70 1303228.70 0 1 1 31303862.00 30910555.00 L 31347825.78 30900000.16 L 31341907.83 30850000.00 L 10000000.00 30850000.00 L 10000000.00 50000000.00 L 14545686.96 50000000.00 L 14547651.48 49949999.95 L 14384823.00 49937185.00 A 1303244.69 1303244.69 0 1 1 14792563.00 49937185.00 L 14629734.52 49949999.95 L 14631699.04 50000000.00 L 31663575.96 50000000.00 L 31665540.48 49949999.95  zM 13604603.67 32100000.00 L 13505023.02 32100000.00 L 13514478.00 31979861.00 A 1087599.90 1087599.90 0 0 1 14418554.00 31075785.00 L 14538693.00 31066330.02 L 14538693.00 31165910.67 L 14395746.00 31179990.00 A 989001.57 989001.57 0 0 0 13618683.00 31957053.00 L 13604603.67 32100000.00  zM 14588692.40 32149999.06 m -593408.94 0 a 593408.94 593408.94 0 1 1 1186817.89 0a 593408.94 593408.94 0 1 1 -1186817.89 0M 14538693.00 33233669.98 L 14418554.00 33224215.00 A 1087599.90 1087599.90 0 0 1 13514478.00 32320139.00 L 13505023.02 32200000.00 L 13604603.67 32200000.00 L 13618683.00 32342947.00 A 989001.57 989001.57 0 0 0 14395746.00 33120010.00 L 14538693.00 33134089.33 L 14538693.00 33233669.98  zM 14638693.00 33233669.98 L 14638693.00 33134089.33 L 14781640.00 33120010.00 A 989001.57 989001.57 0 0 0 15558703.00 32342947.00 L 15572782.33 32200000.00 L 15672362.98 32200000.00 L 15662908.00 32320139.00 A 1087599.90 1087599.90 0 0 1 14758832.00 33224215.00 L 14638693.00 33233669.98  zM 11475967.44 41962873.65 m -180637.35 0 a 180637.35 180637.35 0 1 1 361274.69 0a 180637.35 180637.35 0 1 1 -361274.69 0M 15672362.98 32100000.00 L 15572782.33 32100000.00 L 15558703.00 31957053.00 A 989001.57 989001.57 0 0 0 14781640.00 31179990.00 L 14638693.00 31165910.67 L 14638693.00 31066330.02 L 14758832.00 31075785.00 A 1087599.90 1087599.90 0 0 1 15662908.00 31979861.00 L 15672362.98 32100000.00  zM 16499090.45 38646616.20 m -682444.80 0 a 682444.80 682444.80 0 1 1 1364889.61 0a 682444.80 682444.80 0 1 1 -1364889.61 0M 16499090.45 42189924.20 m -682444.80 0 a 682444.80 682444.80 0 1 1 1364889.61 0a 682444.80 682444.80 0 1 1 -1364889.61 0M 25510355.00 47393553.00 L 25629349.23 47381832.77 L 26819332.00 46191850.00 L 26819332.00 41890528.53 L 26743477.00 41798100.00 A 712109.45 712109.45 0 0 1 27196637.00 40704075.00 L 27315631.65 40692354.73 L 27724845.00 40283141.83 L 27724845.00 40078073.75 L 27681958.12 40052368.21 L 27608064.00 40091865.00 A 712098.72 712098.72 0 0 1 26637151.00 39572901.00 L 26636528.90 39566584.90 L 26050000.00 38980056.00 L 25278224.90 39751831.10 L 25282969.00 39800000.00 A 632954.14 632954.14 0 1 1 24298341.00 39273706.00 L 24308160.51 39268457.33 L 24330170.00 39239774.00 L 24654889.19 38915054.81 L 24632937.89 38866294.79 L 24541674.00 38854280.00 A 418552.54 418552.54 0 0 1 24287533.00 38659270.00 L 24283986.04 38650707.00 L 24407009.61 38650707.00 L 24425368.00 38674632.00 A 317671.90 317671.90 0 1 0 24732221.00 38143147.00 L 24700000.03 38138904.87 L 24700000.04 38038041.45 L 24758326.00 38045720.00 A 418552.54 418552.54 0 0 1 25054280.00 38341674.00 L 25066294.79 38432937.89 L 25115054.81 38454889.19 L 25319944.30 38249999.70 L 24692708.12 37622764.00 L 23206537.00 37622764.00 A 516229.74 516229.74 0 0 1 22841505.70 37471560.70 L 21534972.00 36165028.00 A 516233.35 516233.35 0 0 1 21383773.00 35799992.40 L 21383773.00 35412642.00 L 20276711.00 35412642.00 L 20276711.00 36346655.00 L 21757693.63 37827637.63 L 21773486.00 37829193.00 A 632969.83 632969.83 0 1 1 21029193.00 38573486.00 L 21027637.63 38557693.63 L 19536171.00 37066227.00 L 14613829.00 37066227.00 L 12808434.40 38871621.60 L 12827568.75 38917816.00 L 13550410.47 38917816.00 L 13642839.00 38841961.00 A 712109.45 712109.45 0 1 1 13642839.00 40026125.00 L 13550410.47 39950270.00 L 12847846.29 39950270.00 L 12470214.00 40327903.00 A 516233.35 516233.35 0 0 1 12105178.40 40479102.00 L 12032561.38 40479102.00 L 12013613.89 40529102.45 L 12081002.00 40611216.00 A 632969.83 632969.83 0 0 1 11796935.00 41547662.00 L 11772861.87 41554964.57 L 11772852.65 41607217.74 L 11850661.00 41666922.00 L 11889064.51 41716970.00 L 11751616.63 41716970.00 L 11713547.00 41687758.00 L 11636929.00 41656022.00 L 11554708.00 41645197.00 L 11397226.00 41645197.00 A 317686.61 317686.61 0 1 0 11397226.00 42280553.00 L 11554708.00 42280553.00 A 317686.61 317686.61 0 0 0 11831204.32 42118384.00 L 11939444.06 42118384.00 L 11917175.00 42172146.00 L 11850661.00 42258828.00 L 11819219.78 42282953.63 L 11836192.57 42332954.00 L 12184629.00 42332954.00 L 12184629.00 42446648.00 L 12264299.00 42446648.00 L 13329794.00 41381153.00 L 13329794.00 40883838.83 L 13515891.96 40697741.00 L 14747118.00 40697741.00 L 14747118.00 42111209.00 L 14059850.00 42111209.00 L 12843156.00 43327903.00 A 516233.35 516233.35 0 0 1 12478120.40 43479102.00 L 12184629.00 43479102.00 L 12184629.00 43592796.00 L 11468799.75 43592796.00 L 11449665.40 43638990.40 L 13417905.00 45607230.00 L 20239971.47 45607230.00 L 20332400.00 45531375.00 A 712109.45 712109.45 0 0 1 21000522.00 45465571.00 L 21074416.12 45505067.79 L 21117303.00 45479362.25 L 21117303.00 44290190.00 L 18939788.23 42112675.23 L 18820794.00 42100955.00 A 712109.45 712109.45 0 0 1 18820794.00 40704139.00 L 18885752.19 40697741.00 L 19033679.81 40697741.00 L 19098638.00 40704139.00 A 712109.45 712109.45 0 0 1 19658124.00 41263625.00 L 19669844.23 41382619.23 L 21998558.00 43711333.00 A 516233.35 516233.35 0 0 1 22149757.00 44076368.60 L 22149758.00 47186448.00 A 516224.37 516224.37 0 0 1 21998553.70 47551479.30 L 21436679.00 48113354.62 L 21436679.00 48800623.00 L 20019355.00 48800623.00 L 20019355.00 47383299.00 L 20706623.38 47383299.00 L 21117303.00 46972619.83 L 21117303.00 46767551.75 L 21074416.12 46741846.21 L 21000522.00 46781343.00 A 712098.72 712098.72 0 0 1 20332400.00 46715539.00 L 20239971.47 46639684.00 L 13204076.00 46639685.00 A 516224.37 516224.37 0 0 1 12839048.00 46488485.00 L 10205426.00 43854863.00 A 516247.53 516247.53 0 0 1 10054227.00 43489827.40 L 10054226.00 41620416.00 A 516224.37 516224.37 0 0 1 10205426.00 41255388.00 L 10689739.00 40771075.00 L 10796654.00 40689037.00 L 10838628.87 40671650.52 L 10870932.00 40611216.00 L 10949649.00 40515298.00 L 10983063.96 40487875.35 L 10983063.96 40437874.65 L 10949649.00 40410452.00 A 632994.30 632994.30 0 0 1 10949649.00 39515298.00 L 10983063.96 39487875.35 L 10983063.96 39437874.65 L 10949649.00 39410452.00 A 632994.30 632994.30 0 0 1 10949649.00 38515298.00 L 10983063.96 38487875.35 L 10983063.96 38437874.65 L 10949649.00 38410452.00 A 632994.30 632994.30 0 0 1 11397226.00 37329906.00 L 11457620.04 37329906.00 L 17322591.00 31464935.00 A 516233.35 516233.35 0 0 1 17687619.00 31313736.00 L 21579963.00 31313735.00 A 516237.08 516237.08 0 0 1 21944991.00 31464935.00 L 22265028.00 31784972.00 A 516233.35 516233.35 0 0 1 22416227.00 32150007.60 L 22416227.00 35586171.12 L 22487740.12 35657684.29 L 22530626.87 35631979.09 L 22528363.00 35624516.00 A 682399.63 682399.63 0 1 1 23064536.00 36160689.00 L 23057072.32 36158424.95 L 23031367.10 36201311.69 L 23420365.12 36590310.00 L 24906537.00 36590309.00 A 516237.08 516237.08 0 0 1 25271565.00 36741509.00 L 27259441.16 38729385.16 L 27335559.00 38721888.00 L 27474481.00 38735571.00 L 27608064.00 38776093.00 L 27681958.12 38815589.79 L 27724845.00 38789884.25 L 27724845.00 37500580.06 L 25638372.38 35414108.25 L 25519378.00 35402388.00 A 712109.45 712109.45 0 1 1 26356708.00 34565058.00 L 26368428.25 34684052.38 L 28606100.00 36921724.00 A 516222.98 516222.98 0 0 1 28757299.00 37286752.00 L 28757300.00 40496970.00 A 516224.37 516224.37 0 0 1 28606095.70 40862001.30 L 28045687.27 41422410.35 L 28033967.00 41541405.00 L 27993445.00 41674988.00 L 27927641.00 41798100.00 L 27851786.00 41890528.53 L 27851787.00 46405679.00 A 516224.37 516224.37 0 0 1 27700587.00 46770707.00 L 26359405.23 48111888.77 L 26347685.00 48230883.00 A 712109.45 712109.45 0 1 1 25510355.00 47393553.00  zM 21029193.00 41373486.00 L 21027637.53 41357692.68 L 19695544.09 40025600.00 L 19355333.00 40026125.00 A 712109.45 712109.45 0 1 1 19463240.00 38930519.00 L 19514637.24 38993146.00 L 19909373.00 38993145.00 A 516237.08 516237.08 0 0 1 20274401.00 39144345.00 L 21757692.68 40627637.53 L 21773486.00 40629193.00 A 632969.83 632969.83 0 1 1 21029193.00 41373486.00  zM 21338904.87 39750000.00 L 21238041.45 39750000.00 L 21245720.00 39691674.00 A 418552.54 418552.54 0 0 1 21541674.00 39395720.00 L 21600000.00 39388041.45 L 21600000.00 39488904.87 L 21567779.00 39493147.00 A 317671.90 317671.90 0 0 0 21343147.00 39717779.00 L 21338904.87 39750000.00  zM 21700000.00 39466158.00 L 21700000.00 39388041.45 L 21758326.00 39395720.00 L 21766890.44 39399267.56 L 21700000.00 39466158.00  zM 21650000.44 39799998.65 m -180637.35 0 a 180637.35 180637.35 0 1 1 361274.69 0a 180637.35 180637.35 0 1 1 -361274.69 0M 21600000.00 40211958.55 L 21541674.00 40204280.00 A 418552.54 418552.54 0 0 1 21245720.00 39908326.00 L 21238041.45 39850000.00 L 21338904.87 39850000.00 L 21343147.00 39882221.00 A 317671.90 317671.90 0 0 0 21567779.00 40106853.00 L 21600000.00 40111095.13 L 21600000.00 40211958.55  zM 21700000.00 40211958.55 L 21700000.00 40133842.13 L 21766890.31 40200732.49 L 21758326.00 40204280.00 L 21700000.00 40211958.55  zM 21600000.00 42266158.00 L 21533109.56 42199267.56 L 21541674.00 42195720.00 L 21600000.00 42188041.45 L 21600000.00 42266158.00  zM 21316158.00 42550000.00 L 21238041.45 42550000.00 L 21245720.00 42491674.00 L 21249267.56 42483109.56 L 21316158.00 42550000.00  zM 21650000.44 42599998.65 m -180637.35 0 a 180637.35 180637.35 0 1 1 361274.69 0a 180637.35 180637.35 0 1 1 -361274.69 0M 21600000.00 43011958.55 L 21541674.00 43004280.00 A 418552.54 418552.54 0 0 1 21245720.00 42708326.00 L 21238041.45 42650000.00 L 21338904.87 42650000.00 L 21343147.00 42682221.00 A 317671.90 317671.90 0 0 0 21567779.00 42906853.00 L 21600000.00 42911095.13 L 21600000.00 43011958.55  zM 23197674.45 31948049.20 m -682444.80 0 a 682444.80 682444.80 0 1 1 1364889.61 0a 682444.80 682444.80 0 1 1 -1364889.61 0M 25658302.69 32735468.28 m -712098.72 0 a 712098.72 712098.72 0 1 1 1424197.44 0a 712098.72 712098.72 0 1 1 -1424197.44 0M 24407009.61 38249293.00 L 24283986.04 38249293.00 L 24287533.00 38240730.00 A 418537.33 418537.33 0 0 1 24541674.00 38045720.00 L 24600000.04 38038041.44 L 24600000.03 38138904.86 L 24567779.00 38143147.00 L 24491161.00 38174883.00 L 24425368.00 38225368.00 L 24407009.61 38249293.00  zM 24650000.44 38449998.65 m -180637.35 0 a 180637.35 180637.35 0 1 1 361274.69 0a 180637.35 180637.35 0 1 1 -361274.69 0M 29796193.45 38646552.20 m -682444.80 0 a 682444.80 682444.80 0 1 1 1364889.61 0a 682444.80 682444.80 0 1 1 -1364889.61 0M 22061958.55 39750000.00 L 21983842.00 39750000.00 L 22050732.44 39683109.56 L 22054280.00 39691674.00 L 22061958.55 39750000.00  zM 22050732.49 39916890.31 L 21983842.13 39850000.00 L 22061958.55 39850000.00 L 22054280.00 39908326.00 L 22050732.49 39916890.31  zM 24407009.61 41049293.00 L 24283986.04 41049293.00 L 24287533.00 41040730.00 A 418537.33 418537.33 0 0 1 24541674.00 40845720.00 L 24600000.04 40838041.44 L 24600000.03 40938904.86 L 24567779.00 40943147.00 L 24491161.00 40974883.00 L 24425368.00 41025368.00 L 24407009.61 41049293.00  zM 24650000.44 41249998.65 m -180637.35 0 a 180637.35 180637.35 0 1 1 361274.69 0a 180637.35 180637.35 0 1 1 -361274.69 0M 25061958.56 41200000.04 L 24961095.14 41200000.03 L 24956853.00 41167779.00 A 317671.90 317671.90 0 0 0 24732221.00 40943147.00 L 24700000.03 40938904.87 L 24700000.04 40838041.45 L 24758326.00 40845720.00 A 418552.54 418552.54 0 0 1 25054280.00 41141674.00 L 25061958.56 41200000.04  zM 21700000.00 42266158.00 L 21700000.00 42188041.45 L 21758326.00 42195720.00 L 21766890.44 42199267.56 L 21700000.00 42266158.00  zM 22061958.55 42550000.00 L 21983842.00 42550000.00 L 22050732.44 42483109.56 L 22054280.00 42491674.00 L 22061958.55 42550000.00  zM 21700000.00 43011958.55 L 21700000.00 42911095.13 L 21732221.00 42906853.00 A 317671.90 317671.90 0 0 0 21956853.00 42682221.00 L 21961095.13 42650000.00 L 22061958.55 42650000.00 L 22054280.00 42708326.00 A 418552.54 418552.54 0 0 1 21758326.00 43004280.00 L 21700000.00 43011958.55  zM 23188651.45 45336030.20 m -682444.80 0 a 682444.80 682444.80 0 1 1 1364889.61 0a 682444.80 682444.80 0 1 1 -1364889.61 0M 23188651.45 48879338.20 m -682444.80 0 a 682444.80 682444.80 0 1 1 1364889.61 0a 682444.80 682444.80 0 1 1 -1364889.61 0M 24599999.96 41661958.55 L 24541674.00 41654280.00 A 418552.54 418552.54 0 0 1 24287533.00 41459270.00 L 24283986.04 41450707.00 L 24407009.61 41450707.00 L 24425368.00 41474632.00 L 24491161.00 41525117.00 L 24567779.00 41556853.00 L 24599999.97 41561095.13 L 24599999.96 41661958.55  zM 24699999.96 41661958.56 L 24699999.97 41561095.14 L 24732221.00 41556853.00 A 317671.90 317671.90 0 0 0 24956853.00 41332221.00 L 24961095.13 41300000.03 L 25061958.55 41300000.04 L 25054280.00 41358326.00 A 418552.54 418552.54 0 0 1 24758326.00 41654280.00 L 24699999.96 41661958.56  zM 24950869.00 46262379.00 L 24939148.77 46143384.77 L 24284972.00 45489208.00 A 516233.35 516233.35 0 0 1 24133773.00 45124172.40 L 24133773.00 42963925.81 L 24123706.00 42951659.00 A 632969.83 632969.83 0 1 1 25176294.00 42951659.00 L 25166227.00 42963925.81 L 25166227.00 44910351.00 L 25669204.77 45413328.77 L 25788199.00 45425049.00 A 712109.45 712109.45 0 1 1 24950869.00 46262379.00  zM 29796193.45 42189860.20 m -682444.80 0 a 682444.80 682444.80 0 1 1 1364889.61 0a 682444.80 682444.80 0 1 1 -1364889.61 0"/>
</g>
</svg>
