<svg width="51.30800762mm" height="88.90000254mm" viewBox="0 0 20200003 35000001"  version="1.1" xmlns="http://www.w3.org/2000/svg" xmlns:xlink="http://www.w3.org/1999/xlink">
<desc>
Origin 51800000 13400000 Bound 51800000 12399999 20200003 35000001
</desc>
<g fill-rule="evenodd" fill="rgb(0, 0, 255)" stroke="black" stroke-width="1" transform="translate(0, 35000001) scale(1, -1) translate(-51800000, -12399999)">
<path id="N" d="M 61786180.00 43678744.00 L 61786180.00 43521262.00 A 317686.61 317686.61 0 0 0 61550723.00 43214409.00 L 61510705.00 43209140.34 L 61510705.00 41191734.39 L 61534630.00 41173376.00 A 317671.90 317671.90 0 0 0 61627676.00 40948744.00 L 61627676.00 40791262.00 A 317686.61 317686.61 0 0 0 60992320.00 40791262.00 L 60992320.00 40948744.00 A 317686.61 317686.61 0 0 0 61085366.00 41173376.00 L 61109291.00 41191734.39 L 61109291.00 43336868.00 L 61046863.00 43399296.00 L 60774640.19 43399296.00 L 60759367.00 43362423.00 A 317683.20 317683.20 0 0 0 60166572.00 43521262.00 L 60166572.00 43678744.00 A 317686.61 317686.61 0 0 0 60759367.00 43837583.00 L 60774640.19 43800710.00 L 61178111.81 43800710.00 L 61193385.00 43837583.00 A 317683.20 317683.20 0 0 0 61786180.00 43678744.00  zM 61309998.44 40870001.65 m -180637.35 0 a 180637.35 180637.35 0 1 1 361274.69 0a 180637.35 180637.35 0 1 1 -361274.69 0M 60484250.44 43600001.65 m -180637.35 0 a 180637.35 180637.35 0 1 1 361274.69 0a 180637.35 180637.35 0 1 1 -361274.69 0M 61468502.44 43600001.65 m -180637.35 0 a 180637.35 180637.35 0 1 1 361274.69 0a 180637.35 180637.35 0 1 1 -361274.69 0"/>
<path id="N" d="M 64093699.00 44000710.00 L 64899998.00 44000710.00 L 64976805.00 43985432.00 L 65041919.00 43941924.00 L 65866162.82 43117681.00 L 65978739.00 43117681.00 A 317686.61 317686.61 0 1 0 65978739.00 42482325.00 L 65821257.00 42482325.00 A 317686.61 317686.61 0 0 0 65514404.00 42882224.00 L 65520124.25 42896033.99 L 64816862.94 43599296.00 L 64093699.00 43599296.00 L 64093699.00 43504728.00 L 63306297.00 43504728.00 L 63306297.00 44095278.00 L 64093699.00 44095278.00 L 64093699.00 44000710.00  zM 63699998.44 43800001.65 m -180637.35 0 a 180637.35 180637.35 0 1 1 361274.69 0a 180637.35 180637.35 0 1 1 -361274.69 0M 65899998.44 42800001.65 m -180637.35 0 a 180637.35 180637.35 0 1 1 361274.69 0a 180637.35 180637.35 0 1 1 -361274.69 0"/>
<path id="N" d="M 56308475.00 20361095.00 L 56390927.51 20297826.00 L 60278738.00 20297826.00 A 297823.01 297823.01 0 0 0 60489331.00 20210596.00 L 61306222.33 19393704.00 L 61814958.00 19393704.00 L 61814958.00 19197826.00 L 63317235.50 19197826.00 L 63339036.00 19206856.00 L 63421257.00 19217681.00 L 63578739.00 19217681.00 A 317686.61 317686.61 0 1 0 63578739.00 18582325.00 L 63421257.00 18582325.00 L 63339036.00 18593150.00 L 63317235.50 18602180.00 L 61779081.79 18602180.00 L 61757920.00 18551091.00 L 61710586.70 18489406.70 L 61679711.00 18458530.74 L 61679712.00 18367074.00 A 297837.69 297837.69 0 0 0 61592481.00 18156481.00 L 60948448.38 17512448.38 L 60943894.00 17501453.00 A 397101.31 397101.31 0 1 0 60599998.00 18097101.00 L 60680173.48 18086545.48 L 61084065.00 18490437.00 L 61084065.00 18581893.00 L 61094213.00 18658975.00 L 61125175.11 18732380.76 L 60155375.07 19702180.00 L 56390927.51 19702180.00 L 56308475.00 19638911.00 L 56207913.00 19597257.00 L 56104872.76 19583691.76 L 55597821.00 19076640.00 L 55597821.00 17419186.76 L 55609017.00 17410596.00 A 297829.90 297829.90 0 0 0 55398424.00 16902180.00 L 55201572.00 16902180.00 A 297815.68 297815.68 0 0 0 54990979.00 17410596.00 L 55002175.00 17419186.76 L 55002175.00 19200003.00 A 297823.01 297823.01 0 0 0 55089405.00 19410596.00 L 55683686.76 20004877.76 L 55697252.00 20107918.00 A 416954.52 416954.52 0 0 0 56308475.00 20361095.00  zM 55299998.44 17200001.65 m -180637.35 0 a 180637.35 180637.35 0 1 1 361274.69 0a 180637.35 180637.35 0 1 1 -361274.69 0M 56099998.44 20000001.65 m -180637.35 0 a 180637.35 180637.35 0 1 1 361274.69 0a 180637.35 180637.35 0 1 1 -361274.69 0M 60599998.44 17700001.65 m -180637.35 0 a 180637.35 180637.35 0 1 1 361274.69 0a 180637.35 180637.35 0 1 1 -361274.69 0M 61499998.44 19000001.65 m -180637.35 0 a 180637.35 180637.35 0 1 1 361274.69 0a 180637.35 180637.35 0 1 1 -361274.69 0M 63499998.44 18900001.65 m -180637.35 0 a 180637.35 180637.35 0 1 1 361274.69 0a 180637.35 180637.35 0 1 1 -361274.69 0"/>
<path id="N" d="M 69800005.86 14400011.12 m -989001.57 0 a 989001.57 989001.57 0 1 1 1978003.14 0a 989001.57 989001.57 0 1 1 -1978003.14 0M 69799999.40 14399999.06 m -593408.94 0 a 593408.94 593408.94 0 1 1 1186817.89 0a 593408.94 593408.94 0 1 1 -1186817.89 0"/>
<path id="N" d="M 70800003.86 28300014.12 m -989001.57 0 a 989001.57 989001.57 0 1 1 1978003.14 0a 989001.57 989001.57 0 1 1 -1978003.14 0M 70799997.40 28300002.06 m -593408.94 0 a 593408.94 593408.94 0 1 1 1186817.89 0a 593408.94 593408.94 0 1 1 -1186817.89 0"/>
<path id="N" d="M 53800005.86 45400011.12 m -989001.57 0 a 989001.57 989001.57 0 1 1 1978003.14 0a 989001.57 989001.57 0 1 1 -1978003.14 0M 53799999.40 45399999.06 m -593408.94 0 a 593408.94 593408.94 0 1 1 1186817.89 0a 593408.94 593408.94 0 1 1 -1186817.89 0"/>
<path id="N" d="M 69800005.86 45400011.12 m -989001.57 0 a 989001.57 989001.57 0 1 1 1978003.14 0a 989001.57 989001.57 0 1 1 -1978003.14 0M 69799999.40 45399999.06 m -593408.94 0 a 593408.94 593408.94 0 1 1 1186817.89 0a 593408.94 593408.94 0 1 1 -1186817.89 0"/>
<path id="N" d="M 57617676.00 16378744.00 L 57617676.00 16221262.00 A 317686.61 317686.61 0 0 0 57075366.00 15996630.00 L 57031269.03 16054098.00 L 55693699.00 16054098.00 L 55693699.00 15904728.00 L 54906297.00 15904728.00 L 54906297.00 16495278.00 L 55693699.00 16495278.00 L 55693699.00 16455512.00 L 56992427.07 16455512.00 L 56993145.00 16460965.00 A 317671.90 317671.90 0 0 0 57617676.00 16378744.00  zM 55299998.44 16200001.65 m -180637.35 0 a 180637.35 180637.35 0 1 1 361274.69 0a 180637.35 180637.35 0 1 1 -361274.69 0M 57299998.44 16300001.65 m -180637.35 0 a 180637.35 180637.35 0 1 1 361274.69 0a 180637.35 180637.35 0 1 1 -361274.69 0"/>
<path id="N" d="M 60217676.00 19078744.00 L 60217676.00 18921262.00 A 317686.61 317686.61 0 0 0 60124630.00 18696630.00 L 60099082.36 18677026.51 L 60085427.00 18608377.00 L 60041919.00 18543263.00 L 59601936.00 18103280.00 L 59536822.00 18059772.00 L 59460015.00 18044494.00 L 59175431.17 18044494.00 L 60224727.96 16995198.00 L 63106297.00 16995198.00 L 63106297.00 17214963.00 L 63893699.00 17214963.00 L 63893699.00 16585043.00 L 63106297.00 16585043.00 L 63106297.00 16593784.00 L 60141592.00 16593784.00 L 60064784.00 16609062.00 L 59999670.00 16652570.00 L 58785577.27 17866663.63 L 58758837.00 17846145.00 A 317686.61 317686.61 0 0 0 58282320.00 18121262.00 L 58282320.00 18278744.00 A 317686.61 317686.61 0 0 0 58824630.00 18503376.00 L 58868726.97 18445908.00 L 59376880.00 18445908.00 L 59654628.07 18723656.07 L 59624881.00 18762423.00 L 59593145.00 18839041.00 L 59582320.00 18921262.00 L 59582320.00 19078744.00 A 317686.61 317686.61 0 0 0 60217676.00 19078744.00  zM 58599998.44 18200001.65 m -180637.35 0 a 180637.35 180637.35 0 1 1 361274.69 0a 180637.35 180637.35 0 1 1 -361274.69 0M 59899998.44 19000001.65 m -180637.35 0 a 180637.35 180637.35 0 1 1 361274.69 0a 180637.35 180637.35 0 1 1 -361274.69 0M 63499998.44 16900001.65 m -180637.35 0 a 180637.35 180637.35 0 1 1 361274.69 0a 180637.35 180637.35 0 1 1 -361274.69 0"/>
<path id="N" d="M 65611294.00 44841924.00 L 67041919.00 43411299.00 L 67085427.00 43346186.00 L 67100705.00 43269378.00 L 67100705.00 42300003.00 L 67085427.00 42223196.00 L 67041919.00 42158082.00 L 65045584.00 40161747.00 L 64980470.00 40118239.00 L 64903663.00 40102961.00 L 63924541.66 40102961.00 L 63903371.00 40075371.00 L 63837578.00 40024886.00 L 63800705.00 40009612.81 L 63800705.00 39690393.19 L 63837578.00 39675120.00 L 63903371.00 39624635.00 L 63953856.00 39558842.00 L 63957879.86 39549127.48 L 64002590.00 39540234.00 L 64067704.00 39496726.00 L 64741919.00 38822511.00 L 64785427.00 38757397.00 L 64800705.00 38680590.00 L 64800705.00 37800003.00 L 64785427.00 37723196.00 L 64741919.00 37658082.00 L 63487117.00 36403280.00 L 63422003.00 36359772.00 L 63345196.00 36344494.00 L 62872534.72 36344494.00 L 62854707.00 36301454.00 A 397093.98 397093.98 0 1 0 62791601.00 36780794.00 L 62818369.75 36745908.00 L 63262061.00 36745908.00 L 64399291.00 37883138.00 L 64399291.00 38597455.00 L 63856975.61 39139770.39 L 63837578.00 39124886.00 L 63760960.00 39093150.00 L 63678739.00 39082325.00 L 63521257.00 39082325.00 A 317686.61 317686.61 0 0 0 63296625.00 39175371.00 L 63276151.85 39202052.00 L 62542911.00 39202052.00 L 62464342.46 39218507.00 L 62195667.00 39218507.00 L 62195667.00 39592523.00 L 62471286.10 39592523.00 L 62540155.00 39606222.00 L 62554010.22 39603466.00 L 63280381.37 39603466.00 L 63296625.00 39624635.00 L 63362418.00 39675120.00 L 63399291.00 39690393.19 L 63399291.00 40009612.81 L 63362418.00 40024886.00 A 317683.20 317683.20 0 0 0 63521257.00 40617681.00 L 63678739.00 40617681.00 A 317686.61 317686.61 0 0 0 63903371.00 40524635.00 L 63918917.12 40504375.00 L 64820528.00 40504375.00 L 66699291.00 42383138.00 L 66699291.00 43186243.00 L 65386238.00 44499296.00 L 60308058.00 44499296.00 L 59745903.00 43937141.00 L 59745903.00 43875652.63 L 59775115.00 43837583.00 L 59806851.00 43760965.00 L 59817676.00 43678744.00 L 59817676.00 43521262.00 A 317686.61 317686.61 0 0 0 59182320.00 43521262.00 L 59182320.00 43678744.00 A 317686.61 317686.61 0 0 0 59344489.00 43955240.32 L 59344489.00 44020276.00 L 59359767.00 44097083.00 L 59403275.00 44162197.00 L 60083002.00 44841924.00 L 60148116.00 44885432.00 L 60224923.00 44900710.00 L 65469373.00 44900710.00 L 65546180.00 44885432.00 L 65611294.00 44841924.00  zM 62510811.44 36500001.65 m -180637.35 0 a 180637.35 180637.35 0 1 1 361274.69 0a 180637.35 180637.35 0 1 1 -361274.69 0M 63599998.44 39400001.65 m -180637.35 0 a 180637.35 180637.35 0 1 1 361274.69 0a 180637.35 180637.35 0 1 1 -361274.69 0M 59499998.44 43600001.65 m -180637.35 0 a 180637.35 180637.35 0 1 1 361274.69 0a 180637.35 180637.35 0 1 1 -361274.69 0M 63599998.44 40300001.65 m -180637.35 0 a 180637.35 180637.35 0 1 1 361274.69 0a 180637.35 180637.35 0 1 1 -361274.69 0"/>
<path id="N" d="M 64009017.00 42589410.00 L 63960156.00 42551918.64 L 63960156.00 41614963.00 L 63993699.00 41614963.00 L 63993699.00 41597826.00 L 64268502.44 41597826.00 L 64381272.00 41710596.00 A 297829.90 297829.90 0 0 0 64591872.60 41797826.00 L 64745932.00 41797826.00 A 297823.01 297823.01 0 0 0 64745932.00 41202180.00 L 64715227.44 41202180.00 L 64602458.00 41089410.00 A 297829.90 297829.90 0 0 0 64391865.00 41002180.00 L 63993699.00 41002180.00 L 63993699.00 40985043.00 L 63703228.30 40985043.00 L 63654422.00 40947593.00 L 63582592.00 40917840.00 L 63505510.00 40907692.00 L 63096855.06 40907692.00 L 61797821.00 39608657.06 L 61797821.00 38797826.00 L 63436077.00 38797826.00 L 63513159.00 38787678.00 L 63584989.00 38757925.00 L 63637436.55 38717681.00 L 63678739.00 38717681.00 A 317686.61 317686.61 0 0 0 63678739.00 38082325.00 L 63521257.00 38082325.00 A 317686.61 317686.61 0 0 0 63296625.00 38175371.00 L 63276053.63 38202180.00 L 60404329.00 38202180.00 L 60404329.00 37870082.00 L 60357664.00 37870082.00 L 60357664.00 36948704.00 L 60390195.31 36916172.69 L 60460960.00 36906856.00 A 317671.90 317671.90 0 0 0 60378739.00 36282325.00 L 60221257.00 36282325.00 A 317686.61 317686.61 0 0 0 59996625.00 36375371.00 L 59978266.61 36399296.00 L 58840671.00 36399296.00 L 58763864.00 36414574.00 L 58698750.00 36458082.00 L 58420531.00 36736301.00 L 57816604.72 36736301.00 L 57809019.00 36726415.00 A 297829.90 297829.90 0 0 0 57598426.00 36639185.00 L 57401574.00 36639185.00 A 297823.01 297823.01 0 1 0 57401574.00 37234831.00 L 57598426.00 37234831.00 A 297823.01 297823.01 0 0 0 57809019.00 37147601.00 L 57816604.72 37137715.00 L 58503666.00 37137715.00 L 58580473.00 37122437.00 L 58645587.00 37078929.00 L 58923806.00 36800710.00 L 59765260.72 36800710.00 L 59762018.00 36825341.00 L 59762018.00 37870082.00 L 59715353.00 37870082.00 L 59715353.00 39129924.00 L 60404329.00 39129924.00 L 60404329.00 38797826.00 L 61202175.00 38797826.00 L 61202175.00 39732020.00 A 297823.01 297823.01 0 0 0 61289405.00 39942613.00 L 62762900.00 41416108.00 A 297844.08 297844.08 0 0 0 62973500.60 41503338.00 L 63206297.00 41503338.00 L 63206297.00 41614963.00 L 63364510.00 41614963.00 L 63364510.00 42623905.43 L 63343650.00 42651091.00 A 297823.01 297823.01 0 0 0 63601572.00 43097826.00 L 63798424.00 43097826.00 A 297844.08 297844.08 0 0 0 64009017.00 42589410.00  zM 57500000.44 36937006.65 m -180637.35 0 a 180637.35 180637.35 0 1 1 361274.69 0a 180637.35 180637.35 0 1 1 -361274.69 0M 60299998.68 36600002.74 m -100353.26 0 a 100353.26 100353.26 0 1 1 200706.53 0a 100353.26 100353.26 0 1 1 -200706.53 0M 63599998.44 38400001.65 m -180637.35 0 a 180637.35 180637.35 0 1 1 361274.69 0a 180637.35 180637.35 0 1 1 -361274.69 0M 63599998.44 41300001.65 m -180637.35 0 a 180637.35 180637.35 0 1 1 361274.69 0a 180637.35 180637.35 0 1 1 -361274.69 0M 63699998.44 42800001.65 m -180637.35 0 a 180637.35 180637.35 0 1 1 361274.69 0a 180637.35 180637.35 0 1 1 -361274.69 0"/>
<path id="N" d="M 71214958.00 42624324.70 L 71218160.00 42600003.00 L 71218161.00 41520342.00 A 297837.69 297837.69 0 0 0 71130925.70 41309745.70 L 71110591.00 41289410.00 A 297829.90 297829.90 0 0 0 70899998.00 41202180.00 L 70823361.00 41202180.00 L 69597821.00 39976640.00 L 69597821.00 39923366.00 L 71169268.25 38351918.75 L 71178910.00 38347925.00 L 71240591.00 38300596.00 L 71285034.00 38256153.00 A 297829.90 297829.90 0 0 0 71372264.00 38045552.41 L 71372264.00 32562067.76 L 71377634.00 32557954.00 A 317684.55 317684.55 0 0 0 71153437.00 32015464.00 L 70995955.00 32015338.00 L 70913725.00 32026097.00 L 70891562.56 32035256.00 L 68874014.00 32035255.00 A 297837.69 297837.69 0 0 0 68663417.70 32122490.30 L 67599997.64 33185909.53 L 65953499.00 31539410.00 A 297829.90 297829.90 0 0 0 65742906.00 31452180.00 L 63266701.93 31452180.00 L 63258837.00 31446145.00 A 317686.61 317686.61 0 0 0 62782320.00 31721262.00 L 62782320.00 31878744.00 A 317686.61 317686.61 0 0 0 63324630.00 32103376.00 L 63367255.23 32047826.00 L 65619543.05 32047826.00 L 67302175.00 33730457.05 L 67302175.00 34215320.57 L 67248966.00 34256149.00 A 496370.60 496370.60 0 0 0 67103582.00 34607138.00 L 67103582.00 35591390.00 A 496366.14 496366.14 0 0 0 68096328.00 35591390.00 L 68096328.00 34607138.00 A 496366.14 496366.14 0 0 0 67950944.00 34256149.00 L 67897821.00 34215386.56 L 67897821.00 33730457.93 L 68997376.07 32630902.00 L 70776618.00 32630902.00 L 70776618.00 37902197.00 L 69089405.00 39589410.00 L 69079606.34 39602180.00 L 68750428.84 39602180.00 L 68691707.00 39557144.00 A 397092.42 397092.42 0 1 0 68691873.00 40244938.00 L 68753240.40 40197826.00 L 69020914.21 40197826.00 L 69042076.00 40248915.00 L 69089405.00 40310596.00 L 70489405.00 41710596.00 L 70551086.00 41757925.00 L 70622514.00 41787511.49 L 70622514.00 42206302.00 L 70585038.00 42206302.00 L 70585038.00 42993704.00 L 71214958.00 42993704.00 L 71214958.00 42624324.70  zM 63099998.44 31800001.65 m -180637.35 0 a 180637.35 180637.35 0 1 1 361274.69 0a 180637.35 180637.35 0 1 1 -361274.69 0M 67698380.00 35788240.00 L 67501530.00 35788240.00 L 67501530.00 34410288.00 L 67698380.00 34410288.00 L 67698380.00 35788240.00  zM 71074441.44 32333077.65 m -180637.35 0 a 180637.35 180637.35 0 1 1 361274.69 0a 180637.35 180637.35 0 1 1 -361274.69 0M 68493241.44 39901087.65 m -180637.35 0 a 180637.35 180637.35 0 1 1 361274.69 0a 180637.35 180637.35 0 1 1 -361274.69 0M 70899998.44 42600001.65 m -180637.35 0 a 180637.35 180637.35 0 1 1 361274.69 0a 180637.35 180637.35 0 1 1 -361274.69 0"/>
<path id="N" d="M 59397821.00 38998429.00 L 59397821.00 38801577.00 A 297823.01 297823.01 0 0 0 59310591.00 38590984.00 L 59300705.00 38583398.41 L 59300705.00 38021734.39 L 59324630.00 38003376.00 A 317671.90 317671.90 0 0 0 59417676.00 37778744.00 L 59417676.00 37621262.00 A 317686.61 317686.61 0 0 0 58782320.00 37621262.00 L 58782320.00 37778744.00 L 58785025.43 37799293.00 L 57816604.72 37799293.00 L 57809019.00 37789407.00 A 297829.90 297829.90 0 0 0 57598426.00 37702177.00 L 57195987.09 37702177.00 L 56408061.00 36914250.09 L 56408061.00 28997826.00 L 59191403.71 28997826.00 L 59251449.00 29043900.00 A 397100.93 397100.93 0 1 0 59251449.00 28356106.00 L 59191403.71 28402180.00 L 56401167.51 28402180.00 L 56318715.00 28338911.00 A 416951.83 416951.83 0 0 0 55812415.00 28990932.46 L 55812415.00 37037613.00 A 297823.01 297823.01 0 0 0 55899645.00 37248206.00 L 56862032.00 38210593.00 A 297829.90 297829.90 0 0 0 57072632.60 38297823.00 L 57598426.00 38297823.00 A 297823.01 297823.01 0 0 0 57809019.00 38210593.00 L 57816604.72 38200707.00 L 58899291.00 38200707.00 L 58899291.00 38583398.41 L 58889405.00 38590984.00 A 297829.90 297829.90 0 0 0 58802175.00 38801577.00 L 58802175.00 38998429.00 A 297823.01 297823.01 0 0 0 59397821.00 38998429.00  zM 56110238.44 28700001.65 m -180637.35 0 a 180637.35 180637.35 0 1 1 361274.69 0a 180637.35 180637.35 0 1 1 -361274.69 0M 59449998.44 28700001.65 m -180637.35 0 a 180637.35 180637.35 0 1 1 361274.69 0a 180637.35 180637.35 0 1 1 -361274.69 0M 59099998.44 37700001.65 m -180637.35 0 a 180637.35 180637.35 0 1 1 361274.69 0a 180637.35 180637.35 0 1 1 -361274.69 0M 57500000.44 37999998.65 m -180637.35 0 a 180637.35 180637.35 0 1 1 361274.69 0a 180637.35 180637.35 0 1 1 -361274.69 0M 59099997.13 38900004.07 m -150528.93 0 a 150528.93 150528.93 0 1 1 301057.86 0a 150528.93 150528.93 0 1 1 -301057.86 0"/>
<path id="N" d="M 71153437.00 25090136.00 L 70995955.00 25090010.00 L 70913725.00 25100769.00 L 70891562.56 25109928.00 L 66831108.09 25109928.00 L 66027821.00 24306640.09 L 66027821.00 22543365.83 L 66365862.17 22205324.00 L 67103582.00 22205324.00 L 67120495.00 22337840.00 A 496370.60 496370.60 0 0 0 68096328.00 22209369.00 L 68096328.00 21225117.00 A 496366.14 496366.14 0 0 0 67848142.00 20795245.00 L 67800705.00 20775595.95 L 67800705.00 19857650.07 L 68393150.76 19265204.97 A 392083.63 392083.63 0 0 0 68691873.00 19225121.00 A 397086.65 397086.65 0 1 0 68211131.12 18602180.00 L 67591043.88 18602180.00 L 67570323.00 18593597.00 L 67493241.00 18583449.00 L 66824630.00 18583449.00 L 65930591.00 17689410.00 A 297829.90 297829.90 0 0 0 65719998.00 17602180.00 L 63682760.50 17602180.00 L 63660960.00 17593150.00 L 63578739.00 17582325.00 L 63421257.00 17582325.00 A 317686.61 317686.61 0 0 0 63421257.00 18217681.00 L 63578739.00 18217681.00 L 63660960.00 18206856.00 L 63682760.50 18197826.00 L 65596635.00 18197826.00 L 66490674.00 19091865.00 A 297829.90 297829.90 0 0 0 66701274.59 19179095.00 L 67234108.83 19179095.00 L 67254830.00 19187678.00 L 67331912.00 19197826.00 L 67892844.51 19197826.00 L 67458077.00 19632594.00 L 67414569.00 19697708.00 L 67399291.00 19774515.00 L 67399291.00 20775560.33 L 67351768.00 20795245.00 A 496378.34 496378.34 0 0 0 67103582.00 21225117.00 L 67103582.00 21609678.00 L 66242500.00 21609678.00 A 297823.01 297823.01 0 0 0 66031903.70 21696912.30 L 65519405.00 22209410.00 A 297829.90 297829.90 0 0 0 65432175.00 22420003.00 L 65432175.00 24430003.00 A 297823.01 297823.01 0 0 0 65519405.00 24640596.00 L 66497153.00 25618344.00 A 297829.90 297829.90 0 0 0 66707746.00 25705574.00 L 70891792.84 25705574.00 L 70913233.00 25714475.00 L 70995445.00 25725366.00 L 71152927.00 25725492.00 A 317663.23 317663.23 0 1 0 71153437.00 25090136.00  zM 63499998.44 17900001.65 m -180637.35 0 a 180637.35 180637.35 0 1 1 361274.69 0a 180637.35 180637.35 0 1 1 -361274.69 0M 67698380.00 22406219.00 L 67501530.00 22406219.00 L 67501530.00 21028267.00 L 67698380.00 21028267.00 L 67698380.00 22406219.00  zM 68493241.44 18881270.65 m -180637.35 0 a 180637.35 180637.35 0 1 1 361274.69 0a 180637.35 180637.35 0 1 1 -361274.69 0M 71074441.44 25407749.65 m -180637.35 0 a 180637.35 180637.35 0 1 1 361274.69 0a 180637.35 180637.35 0 1 1 -361274.69 0"/>
<path id="N" d="M 62609023.90 37781499.00 L 62884643.00 37781499.00 L 62884643.00 37407483.00 L 62609023.90 37407483.00 L 62540155.00 37393784.00 L 62077626.00 37393784.00 L 61606111.00 36922269.00 L 61606111.00 36346082.00 L 61590833.00 36269275.00 L 61547325.00 36204161.00 L 60895734.00 35552570.00 L 60830620.00 35509062.00 L 60753813.00 35493784.00 L 60693699.00 35493784.00 L 60693699.00 35285043.00 L 60201278.27 35285043.00 L 60181888.00 35281186.00 L 59965023.92 35281186.00 L 59417676.00 34733838.78 L 59417676.00 34621262.00 A 317686.61 317686.61 0 0 0 58793145.00 34539041.00 L 58792427.07 34544494.00 L 58328816.00 34544494.00 L 58252009.00 34559772.00 L 58186895.00 34603279.00 L 57358077.00 35432098.00 L 57314569.00 35497212.00 L 57299291.00 35574019.00 L 57300230.27 35578741.00 L 57106299.00 35578741.00 L 57106299.00 36169291.00 L 57893701.00 36169291.00 L 57893701.00 35578741.00 L 57779118.17 35578741.00 L 58411951.93 34945908.00 L 58831269.03 34945908.00 L 58875366.00 35003376.00 A 317671.90 317671.90 0 0 0 59182219.00 35085597.00 L 59196029.31 35079876.62 L 59739966.00 35623814.00 L 59805080.00 35667322.00 L 59881888.00 35682600.00 L 59906297.00 35682600.00 L 59906297.00 35914963.00 L 60690443.00 35914963.00 L 61204697.00 36429217.00 L 61204697.00 37005404.00 L 61219975.00 37082211.00 L 61263483.00 37147325.00 L 61852570.00 37736412.00 L 61917684.00 37779920.00 L 61994491.00 37795198.00 L 62540155.00 37795198.00 L 62609023.90 37781499.00  zM 57500000.44 35874014.65 m -180637.35 0 a 180637.35 180637.35 0 1 1 361274.69 0a 180637.35 180637.35 0 1 1 -361274.69 0M 59099998.44 34700001.65 m -180637.35 0 a 180637.35 180637.35 0 1 1 361274.69 0a 180637.35 180637.35 0 1 1 -361274.69 0M 60299998.68 35600002.74 m -100353.26 0 a 100353.26 100353.26 0 1 1 200706.53 0a 100353.26 100353.26 0 1 1 -200706.53 0"/>
<path id="N" d="M 71999995.16 31845026.74 L 71968161.38 31831840.92 L 71717021.35 31831840.00 L 71695625.10 31877031.27 L 71745580.00 31938002.00 A 712043.47 712043.47 0 0 1 71810848.00 32606175.00 L 71766751.00 32688515.54 L 71766751.00 38045560.00 A 692286.02 692286.02 0 0 1 71563978.00 38535097.00 L 71519535.00 38579540.00 L 71414624.00 38665637.00 L 70129072.00 39950003.00 L 70996240.69 40817171.69 L 71035061.00 40820995.00 A 692325.72 692325.72 0 0 1 71389535.00 41010466.00 L 71409874.00 41030805.00 A 692307.48 692307.48 0 0 1 71612647.00 41520342.00 L 71612647.00 42600003.00 L 71608659.00 42640492.46 L 71608659.00 43237405.00 L 71891337.00 43237405.00 L 71891337.00 43835537.00 L 71593205.00 43537405.00 L 70291337.00 43537405.00 L 70291337.00 43387405.00 L 70191337.00 43387405.00 L 70191337.00 43034762.11 L 70146492.91 43012647.41 L 70109268.00 43041211.00 L 70092173.27 43048291.97 L 70079914.00 42986661.00 L 70058837.00 42953861.00 A 317683.20 317683.20 0 0 0 70217676.00 42678744.00 L 70217676.00 42521262.00 A 317686.61 317686.61 0 0 0 69982219.00 42214409.00 L 69950002.03 42210167.40 L 69950002.04 42109303.98 L 70008324.00 42116982.00 L 70109268.00 42158795.00 L 70146492.91 42187358.59 L 70191337.00 42165243.89 L 70191337.00 41970416.00 L 68833157.02 40612236.02 L 68796201.00 40632001.00 A 791215.05 791215.05 0 1 1 68795849.00 39170031.00 L 68866350.01 39207693.00 L 68913234.00 39207693.00 L 70382131.00 37738796.00 L 70382131.00 35965032.94 L 70332130.54 35942616.41 L 70235959.00 36016412.00 L 70103889.00 36071117.00 L 70012159.96 36083193.37 L 70012159.96 35982330.46 L 70077784.00 35973691.00 A 446720.81 446720.81 0 0 0 70408895.00 35542178.00 L 70408895.00 34656350.00 A 446733.54 446733.54 0 0 0 70077784.00 34224837.00 L 70012160.04 34216197.55 L 70012160.04 34115334.64 L 70103889.00 34127411.00 L 70235959.00 34182116.00 L 70332130.54 34255911.59 L 70382131.00 34233495.06 L 70382131.00 33025389.00 L 69160778.00 33025389.00 L 68292308.00 33893859.00 L 68292308.00 34054435.54 L 68340057.00 34112618.00 A 890133.85 890133.85 0 0 1 68490068.00 34607138.00 L 68490068.00 35591390.00 A 890094.36 890094.36 0 1 1 66709842.00 35591390.00 L 66709842.00 34607138.00 A 890094.36 890094.36 0 0 1 66859853.00 34112618.00 L 66907688.00 34054330.75 L 66907688.00 33893859.00 L 65456142.00 32442313.00 L 63530356.29 32442313.00 L 63495614.00 32470825.00 A 712094.99 712094.99 0 0 1 62596474.00 32382268.00 L 62549491.65 32325019.32 L 62514955.94 32293704.00 L 62300705.00 32293704.00 L 62300705.00 32193704.00 L 62414958.00 32193704.00 L 62414958.00 31409558.08 L 62653934.61 31170581.73 L 62704382.00 31129181.00 A 712094.99 712094.99 0 0 1 63238920.00 31022855.00 L 63353765.38 31057693.00 L 65742906.00 31057693.00 A 692286.02 692286.02 0 0 1 66232443.00 31260466.00 L 67599998.00 32628021.00 L 68384477.00 31843542.00 A 692307.48 692307.48 0 0 1 68874014.00 31640769.00 L 70581295.40 31640769.00 L 70581489.88 31398430.64 L 70681489.84 31398510.92 L 70681277.00 31663471.00 L 71468679.00 31664103.00 L 71469185.00 31034183.00 L 71125485.84 31033907.13 L 71125566.12 30933907.66 L 71442782.81 30934162.42 L 71461935.71 30887975.71 L 71438931.00 30864971.00 L 71503899.00 30800003.00 L 71899998.00 30800003.00 L 71950057.16 31300594.65 L 71999995.16 31298103.96 L 71999994.91 29071126.51 L 71951871.81 29057554.40 L 71918233.00 29112448.00 A 1382226.82 1382226.82 0 1 1 70372870.00 26985439.00 L 70506297.00 26953406.07 L 70506297.00 26100061.00 L 66707746.00 26100061.00 A 692336.08 692336.08 0 0 1 66218209.00 25897288.00 L 65240461.00 24919540.00 A 692293.40 692293.40 0 0 1 65037688.00 24430003.00 L 65037688.00 22420003.00 A 692286.02 692286.02 0 0 1 65240461.00 21930466.00 L 65752963.00 21417964.00 A 692293.40 692293.40 0 0 1 66242500.00 21215191.00 L 66710819.61 21215191.00 L 66726945.00 21051465.00 A 890133.85 890133.85 0 0 1 66970550.00 20595712.00 L 67006590.00 20566134.81 L 67006590.00 19774515.00 L 67017992.00 19658747.00 L 67031643.64 19613742.84 L 67001858.18 19573582.00 L 66701267.00 19573582.00 A 692286.02 692286.02 0 0 1 66211730.00 19370809.00 L 65433234.00 18592313.00 L 64267507.54 18592313.00 L 64241118.24 18642313.52 L 64277146.00 18761081.00 A 712071.42 712071.42 0 0 1 63578739.00 19612093.00 L 63421257.00 19612093.00 L 63282335.00 19598410.00 L 63262235.90 19592313.00 L 62208659.00 19592313.00 L 62208659.00 19787405.00 L 61470410.00 19787405.00 L 60768275.00 20489540.00 A 692293.40 692293.40 0 0 1 60278738.00 20692313.00 L 56516894.81 20692313.00 L 56410351.00 20749262.00 A 810989.88 810989.88 0 0 1 55350739.00 20310356.00 L 55315669.95 20194748.95 L 54810461.00 19689540.00 A 692293.40 692293.40 0 0 1 54607688.00 19200003.00 L 54607688.00 17550488.43 L 54561961.00 17464939.00 A 692336.08 692336.08 0 0 1 54522565.00 17064940.00 L 54560774.18 16938979.49 L 54560218.12 16926103.48 L 54537966.54 16888979.00 L 54512596.00 16888979.00 L 54512596.00 15511027.00 L 56087400.00 15511027.00 L 56087400.00 15661397.00 L 56865126.33 15661397.00 L 56904382.00 15629181.00 A 712094.99 712094.99 0 0 1 57892079.00 15825646.00 L 57943572.40 15921983.68 L 58002225.08 15927680.78 L 58070814.36 15874075.23 L 58142378.82 15945639.74 A 315268.81 315268.81 0 0 0 57982320.00 16221262.00 L 57982320.00 16378744.00 A 317686.61 317686.61 0 0 0 58141159.00 16653861.00 L 58190526.46 16674309.54 L 58113989.59 16750846.41 L 58090728.00 16741211.00 L 58002225.08 16672325.22 L 57943572.40 16678022.32 L 57892079.00 16774360.00 A 712057.32 712057.32 0 0 1 56796474.00 16882268.00 L 56768526.04 16848213.00 L 56087400.00 16848213.00 L 56087400.00 16888979.00 L 56062029.46 16888979.00 L 56039777.88 16926103.48 L 56039221.82 16938979.49 L 56077431.00 17064940.00 A 692286.84 692286.84 0 0 1 56038035.00 17464939.00 L 55992308.00 17550488.43 L 55992308.00 18913239.00 L 56294743.95 19215674.95 L 56410351.00 19250744.00 L 56516894.81 19307693.00 L 59186932.37 19307693.00 L 59216717.73 19267532.08 L 59201591.00 19217666.00 L 59187908.00 19078744.00 L 59187908.00 18921262.00 L 59192399.81 18875657.15 L 59158821.42 18838609.00 L 59034869.67 18838609.00 L 58995614.00 18870825.00 A 712094.99 712094.99 0 0 1 58007917.00 18674360.00 L 57956423.60 18578022.32 L 57897770.92 18572325.22 L 57809268.00 18641211.00 L 57708324.00 18683024.00 L 57649998.00 18690702.55 L 57649998.00 18589839.13 L 57682219.00 18585597.00 A 317671.90 317671.90 0 0 0 57875115.00 18437583.00 L 57904336.29 18367036.09 L 57941919.00 18341924.00 L 57985427.00 18276810.00 L 58000705.00 18200003.00 L 58000705.00 17739138.74 L 58007917.00 17725646.00 A 712057.32 712057.32 0 0 1 58599998.00 17409172.00 L 58679840.94 17417036.06 L 59721989.00 16374888.00 A 593405.42 593405.42 0 0 1 60025823.00 16212485.00 L 60062577.41 16208865.09 L 60106297.19 16193703.24 L 60106298.00 15900710.00 L 60206298.00 15900710.00 L 60206298.00 16093704.00 L 60993698.00 16093704.00 L 60993698.00 15900710.00 L 61093698.27 15900710.00 L 61093698.76 16193703.11 L 61140642.02 16201083.00 L 62712596.00 16201083.00 L 62712596.00 16191342.00 L 64287400.00 16191342.00 L 64287400.00 17207693.00 L 65719998.00 17207693.00 A 692286.02 692286.02 0 0 1 66209535.00 17410466.00 L 66988031.00 18188962.00 L 67493241.00 18188962.00 L 67628304.00 18202265.00 L 67646197.96 18207693.00 L 68083081.32 18207693.00 L 68190281.00 18150360.00 A 791215.05 791215.05 0 0 1 68932656.00 18223297.00 L 68992252.40 18272182.84 L 69102332.57 18382263.19 L 69151004.00 18441540.00 L 69224153.00 18578312.00 L 69269213.00 18726727.00 L 69276787.00 18803438.10 L 69276787.00 18959106.79 L 69269287.00 19035443.00 A 791178.61 791178.61 0 0 1 68647786.00 19657244.00 L 68546471.84 19667247.16 L 68193406.00 20020313.00 L 68193406.00 20566205.38 L 68229360.00 20595712.00 A 890110.28 890110.28 0 0 1 68490068.00 21225117.00 L 68490068.00 22209369.00 A 890094.36 890094.36 0 0 1 66859853.00 22703889.00 L 66804222.41 22599811.00 L 66529264.00 22599811.00 L 66422308.00 22706767.00 L 66422308.00 24143239.00 L 66994510.00 24715441.00 L 70581295.40 24715441.00 L 70581489.88 24473102.64 L 70681489.84 24473182.92 L 70681277.00 24738143.00 L 71468679.00 24738775.00 L 71468891.84 24473815.05 L 71568891.88 24473895.33 L 71568604.55 24831941.89 L 71657110.00 24904695.00 A 712134.88 712134.88 0 0 1 71851477.00 25547297.00 L 71838320.52 25590543.14 L 71868089.77 25630716.00 L 71962714.26 25630716.00 L 71999994.51 25593435.75 L 71999993.00 12399999.00 L 51799997.00 12399998.00 L 51800000.00 47399996.00 L 71999997.00 47399997.00 L 71999995.16 31845026.74  zM 52815910.67 14350000.00 L 52716330.02 14350000.00 L 52725785.00 14229861.00 A 1087599.90 1087599.90 0 0 1 53629861.00 13325785.00 L 53750000.00 13316330.02 L 53750000.00 13415910.67 L 53607053.00 13429990.00 A 989001.57 989001.57 0 0 0 52829990.00 14207053.00 L 52815910.67 14350000.00  zM 53799999.40 14399999.06 m -593408.94 0 a 593408.94 593408.94 0 1 1 1186817.89 0a 593408.94 593408.94 0 1 1 -1186817.89 0M 54708000.07 13806592.00 L 54586273.78 13806592.00 L 54499339.00 13700661.00 A 989030.75 989030.75 0 0 0 53992947.00 13429990.00 L 53850000.00 13415910.67 L 53850000.00 13316330.02 L 53970139.00 13325785.00 A 1087599.90 1087599.90 0 0 1 54679891.00 13760722.00 L 54708000.07 13806592.00  zM 52790869.67 14797031.33 L 52765626.00 14736088.00 L 52725785.00 14570139.00 L 52716330.02 14450000.00 L 52815910.67 14450000.00 L 52829990.00 14592947.00 L 52868384.18 14719516.82 L 52790869.67 14797031.33  zM 53850000.00 15483669.98 L 53850000.00 15416313.00 L 53885744.24 15380568.76 L 53992947.00 15370010.00 A 989001.57 989001.57 0 0 0 54499339.00 15099339.00 L 54586273.78 14993408.00 L 54708000.07 14993408.00 L 54679891.00 15039278.00 A 1087586.50 1087586.50 0 0 1 53970139.00 15474215.00 L 53850000.00 15483669.98  zM 58606217.00 15973863.00 L 58606217.00 15938687.95 L 58621489.06 15958590.94 L 58606217.00 15973863.00  zM 58299998.44 16300001.65 m -180637.35 0 a 180637.35 180637.35 0 1 1 361274.69 0a 180637.35 180637.35 0 1 1 -361274.69 0M 57282320.00 18150003.00 L 57181457.00 18150003.00 L 57181457.00 18121262.00 A 418526.36 418526.36 0 0 1 57491672.00 17716982.00 L 57549998.00 17709303.45 L 57549998.00 17810166.87 L 57517777.00 17814409.00 A 317671.90 317671.90 0 0 0 57282320.00 18121262.00 L 57282320.00 18150003.00  zM 57599998.44 18200001.65 m -180637.35 0 a 180637.35 180637.35 0 1 1 361274.69 0a 180637.35 180637.35 0 1 1 -361274.69 0M 57549998.00 18690702.55 L 57491672.00 18683024.00 A 418552.54 418552.54 0 0 1 57181457.00 18278744.00 L 57181457.00 18250003.00 L 57282320.00 18250003.00 L 57282320.00 18278744.00 A 317686.61 317686.61 0 0 0 57517777.00 18585597.00 L 57549998.00 18589839.13 L 57549998.00 18690702.55  zM 58655507.00 16597081.87 L 58655507.00 16475555.60 L 58705840.00 16441924.00 L 58710885.68 16436878.32 L 58704278.00 16487070.00 L 58662465.00 16588014.00 L 58655507.00 16597081.87  zM 60206298.00 15499296.00 L 60106298.00 15499296.00 L 60106298.00 15206302.00 L 60550000.01 15206302.00 L 60550000.00 15306302.00 L 60206298.00 15306302.00 L 60206298.00 15499296.00  zM 60599998.44 15700001.65 m -180637.35 0 a 180637.35 180637.35 0 1 1 361274.69 0a 180637.35 180637.35 0 1 1 -361274.69 0M 61093698.11 15499296.00 L 60993698.00 15499296.00 L 60993698.00 15306302.00 L 60650000.00 15306302.00 L 60650000.01 15206302.00 L 61093698.00 15206302.00 L 61093698.11 15499296.00  zM 67945500.93 23849694.00 L 67870245.64 23849694.00 L 67863909.00 23841436.00 L 67809204.00 23709366.00 L 67797127.36 23617634.91 L 67897990.27 23617634.92 L 67906630.00 23683261.00 L 67951259.00 23791004.00 L 67974240.71 23820954.19 L 67945500.93 23849694.00  zM 59407756.88 25499296.00 L 59298755.76 25499296.00 L 59318751.00 25451023.00 A 497948.11 497948.11 0 0 1 59621116.00 25219010.00 L 59700001.02 25208624.37 L 59700001.02 25309487.30 L 59647221.00 25316436.00 A 397102.15 397102.15 0 0 0 59407756.88 25499296.00  zM 60201240.24 25499296.00 L 60092239.12 25499296.00 A 391877.54 391877.54 0 0 0 59852775.00 25316436.00 L 59800001.02 25309488.10 L 59800001.02 25208625.16 L 59878880.00 25219010.00 A 497954.44 497954.44 0 0 1 60181245.00 25451023.00 L 60201240.24 25499296.00  zM 59749998.44 25700001.65 m -180637.35 0 a 180637.35 180637.35 0 1 1 361274.69 0a 180637.35 180637.35 0 1 1 -361274.69 0M 59800000.98 26191380.84 L 59800000.98 26090517.91 L 59852775.00 26083570.00 A 397102.15 397102.15 0 0 0 60092239.12 25900710.00 L 60201240.24 25900710.00 L 60181245.00 25948983.00 A 497948.11 497948.11 0 0 1 59878880.00 26180996.00 L 59800000.98 26191380.84  zM 69799996.95 14400009.68 m -1382204.32 0 a 1382204.32 1382204.32 0 1 1 2764408.63 0a 1382204.32 1382204.32 0 1 1 -2764408.63 0M 68886447.94 16831177.14 L 68886365.00 16487476.00 L 68542666.14 16487558.93 L 68542642.04 16387558.95 L 68986341.00 16387452.00 L 68986447.95 16831153.04 L 68886447.94 16831177.14  zM 68015224.06 16831387.06 L 67999042.05 16815205.05 L 67998939.00 16387690.00 L 68442642.04 16387583.05 L 68442666.14 16487583.06 L 68098963.00 16487666.00 L 68099045.93 16831366.86 L 68015224.06 16831387.06  zM 68492759.44 16881270.65 m -180637.35 0 a 180637.35 180637.35 0 1 1 361274.69 0a 180637.35 180637.35 0 1 1 -361274.69 0M 68558794.11 17374957.11 L 68542876.12 17359039.12 L 68542855.86 17274960.93 L 68886555.00 17274878.00 L 68886472.07 16931177.14 L 68986472.05 16931153.04 L 68986579.00 17374854.00 L 68558794.11 17374957.11  zM 69515425.00 21667243.98 L 69414562.00 21667243.98 L 69414562.00 21274329.00 A 547600.66 547600.66 0 0 1 69820431.00 20745390.00 L 69912161.04 20733313.50 L 69912161.04 20834176.41 L 69846536.00 20842816.00 A 446734.99 446734.99 0 0 0 69515425.00 21274329.00 L 69515425.00 21667243.98  zM 70509758.00 21667244.02 L 70408895.00 21667244.02 L 70408895.00 21274329.00 A 446733.54 446733.54 0 0 0 70077784.00 20842816.00 L 70012161.04 20834176.68 L 70012161.04 20733313.77 L 70103889.00 20745390.00 A 547587.27 547587.27 0 0 1 70509758.00 21274329.00 L 70509758.00 21667244.02  zM 70060585.00 22307794.00 L 69863735.00 22307794.00 L 69863735.00 21126692.00 L 70060585.00 21126692.00 L 70060585.00 22307794.00  zM 70012160.96 22701172.24 L 70012160.96 22600309.33 L 70077784.00 22591670.00 A 446734.99 446734.99 0 0 0 70408895.00 22160157.00 L 70408895.00 21767244.02 L 70509758.00 21767244.02 L 70509758.00 22160157.00 A 547600.66 547600.66 0 0 1 70103889.00 22689096.00 L 70012160.96 22701172.24  zM 67897990.82 23517634.92 L 67797127.91 23517634.91 L 67809204.00 23425908.00 A 547587.27 547587.27 0 0 1 68338143.00 23020039.00 L 68727988.00 23020039.00 L 68727988.00 23067206.07 L 68674292.12 23120902.00 L 68338143.00 23120902.00 A 446726.20 446726.20 0 0 0 67906630.00 23452013.00 L 67897990.82 23517634.92  zM 68731054.95 24115235.00 L 68338143.00 24115235.00 L 68258172.44 24104706.66 L 68348507.20 24014372.00 L 68731054.96 24014372.00 L 68731054.95 24115235.00  zM 69371608.00 23666062.00 L 68190506.00 23666062.00 L 68190506.00 23469212.00 L 69371608.00 23469212.00 L 69371608.00 23666062.00  zM 69764986.11 23517635.09 L 69664123.20 23517635.08 L 69655484.00 23452013.00 A 446734.99 446734.99 0 0 0 69223971.00 23120902.00 L 69129402.00 23120902.00 L 69129402.00 23020039.00 L 69223971.00 23020039.00 A 547600.66 547600.66 0 0 1 69752910.00 23425908.00 L 69764986.11 23517635.09  zM 69223971.00 24115235.00 L 68831054.95 24115235.00 L 68831054.96 24014372.00 L 69223971.00 24014372.00 A 446726.20 446726.20 0 0 0 69655484.00 23683261.00 L 69664123.71 23617635.08 L 69764986.62 23617635.09 L 69752910.00 23709366.00 A 547587.27 547587.27 0 0 1 69223971.00 24115235.00  zM 69912160.96 22701172.49 L 69820431.00 22689096.00 A 547587.27 547587.27 0 0 1 69414562.00 22160157.00 L 69414562.00 21767243.98 L 69515425.00 21767243.98 L 69515425.00 22160157.00 A 446733.54 446733.54 0 0 0 69846536.00 22591670.00 L 69912160.96 22600309.58 L 69912160.96 22701172.49  zM 70681570.16 24373182.95 L 70581570.12 24373102.67 L 70581863.00 24008143.00 L 71025566.14 24008499.35 L 71025485.87 24108498.87 L 70681783.00 24108223.00 L 70681570.16 24373182.95  zM 71075231.44 24423497.65 m -180637.35 0 a 180637.35 180637.35 0 1 1 361274.69 0a 180637.35 180637.35 0 1 1 -361274.69 0M 71568972.12 24373895.36 L 71468972.16 24373815.08 L 71469185.00 24108855.00 L 71125485.84 24108579.13 L 71125566.12 24008579.66 L 71569265.00 24008936.00 L 71568972.12 24373895.36  zM 59700000.98 26191381.63 L 59621116.00 26180996.00 A 497954.44 497954.44 0 0 1 59318751.00 25948983.00 L 59298755.76 25900710.00 L 59407756.88 25900710.00 A 391877.54 391877.54 0 0 0 59647221.00 26083570.00 L 59700000.98 26090518.69 L 59700000.98 26191381.63  zM 61785038.00 31750004.97 L 61685038.00 31750004.96 L 61685038.00 31306302.00 L 62001712.89 31306302.00 L 61993779.00 31346188.00 L 61993779.00 31406302.00 L 61785038.00 31406302.00 L 61785038.00 31750004.97  zM 62099998.44 31800001.65 m -180637.35 0 a 180637.35 180637.35 0 1 1 361274.69 0a 180637.35 180637.35 0 1 1 -361274.69 0M 61899291.00 32293704.00 L 61685038.00 32293704.00 L 61685038.00 31850004.96 L 61785038.00 31850004.97 L 61785038.00 32193704.00 L 61899291.00 32193704.00 L 61899291.00 32293704.00  zM 62117111.00 34450005.00 L 62017111.00 34450004.99 L 62017111.00 34290145.28 L 62114345.48 34387380.22 L 62117111.00 34401283.27 L 62117111.00 34450005.00  zM 62460811.00 34106302.00 L 62400952.74 34106302.00 L 62300952.28 34006302.00 L 62460811.01 34006302.00 L 62460811.00 34106302.00  zM 63004511.00 34450005.01 L 62904511.00 34450005.00 L 62904511.00 34106302.00 L 62560811.00 34106302.00 L 62560811.01 34006302.00 L 63004511.00 34006302.00 L 63004511.00 34450005.01  zM 70681570.16 31298510.95 L 70581570.12 31298430.67 L 70581863.00 30933471.00 L 71025566.14 30933827.35 L 71025485.87 31033826.87 L 70681783.00 31033551.00 L 70681570.16 31298510.95  zM 71075231.44 31348825.65 m -180637.35 0 a 180637.35 180637.35 0 1 1 361274.69 0a 180637.35 180637.35 0 1 1 -361274.69 0M 62510811.44 34500001.65 m -180637.35 0 a 180637.35 180637.35 0 1 1 361274.69 0a 180637.35 180637.35 0 1 1 -361274.69 0M 62460810.99 34993704.00 L 62017111.00 34993704.00 L 62017111.00 34550004.99 L 62117111.00 34550005.00 L 62117111.00 34893704.00 L 62460811.00 34893704.00 L 62460810.99 34993704.00  zM 63004511.00 34993704.00 L 62560810.99 34993704.00 L 62560811.00 34893704.00 L 62904511.00 34893704.00 L 62904511.00 34550005.00 L 63004511.00 34550005.01 L 63004511.00 34993704.00  zM 69515425.00 35049263.98 L 69414562.00 35049263.98 L 69414562.00 34656350.00 A 547600.66 547600.66 0 0 1 69820431.00 34127411.00 L 69912160.04 34115334.63 L 69912160.04 34216197.54 L 69846536.00 34224837.00 A 446720.81 446720.81 0 0 0 69515425.00 34656350.00 L 69515425.00 35049263.98  zM 70060585.00 35689815.00 L 69863735.00 35689815.00 L 69863735.00 34508713.00 L 70060585.00 34508713.00 L 70060585.00 35689815.00  zM 69912159.96 36083193.36 L 69820431.00 36071117.00 A 547587.27 547587.27 0 0 1 69414562.00 35542178.00 L 69414562.00 35149263.98 L 69515425.00 35149263.98 L 69515425.00 35542178.00 A 446733.54 446733.54 0 0 0 69846536.00 35973691.00 L 69912159.96 35982330.45 L 69912159.96 36083193.36  zM 65469373.00 45293411.00 L 60224923.00 45293411.00 A 593408.94 593408.94 0 0 1 59805320.00 45119606.00 L 59125593.00 44439879.00 L 59051795.00 44349956.00 L 58996958.00 44247364.00 L 58965916.99 44145033.84 L 58907917.00 44074360.00 A 712094.99 712094.99 0 0 1 58787908.00 43678744.00 L 58787908.00 43521262.00 L 58801591.00 43382340.00 L 58809997.00 43354629.16 L 58809997.00 42770002.00 L 60716590.00 42770002.84 L 60716590.00 41341877.35 L 60666423.60 41248022.32 L 60607770.92 41242325.22 L 60519268.00 41311211.00 L 60418324.00 41353024.00 L 60359998.00 41360702.55 L 60359998.00 41259839.13 L 60392219.00 41255597.00 A 317671.90 317671.90 0 0 0 60627676.00 40948744.00 L 60627676.00 40791262.00 A 317686.61 317686.61 0 0 0 60034881.00 40632423.00 L 60007182.73 40699293.00 L 59903564.62 40699293.00 L 59905718.00 40682936.00 L 59940070.28 40600003.51 L 59914191.26 40550003.00 L 59485311.49 40550003.00 A 395720.74 395720.74 0 0 1 59300705.00 40792654.38 L 59300705.00 40666607.59 L 59310591.00 40659022.00 A 297829.90 297829.90 0 0 0 59397821.00 40448429.00 L 59397821.00 40251577.00 A 297823.01 297823.01 0 0 0 59177080.00 39963902.00 L 59150001.02 39960337.00 L 59149998.92 39723041.62 L 59112950.78 39689463.22 L 59099998.00 39690739.00 A 692336.08 692336.08 0 0 1 58407688.00 38998429.00 L 58407688.00 38801577.00 L 58420991.00 38666514.00 L 58430984.66 38633568.86 L 58401199.22 38593408.00 L 57949801.97 38593408.00 L 57863362.00 38639611.00 L 57733489.00 38679007.00 L 57598426.00 38692310.00 L 57072625.00 38692310.00 A 692286.02 692286.02 0 0 1 56583088.00 38489537.00 L 55620701.00 37527150.00 A 692293.40 692293.40 0 0 1 55417928.00 37037613.00 L 55417928.00 29116899.81 L 55360979.00 29010356.00 A 810989.88 810989.88 0 0 1 56420591.00 27950744.00 L 56527134.81 28007693.00 L 59074858.38 28007693.00 L 59147214.00 27969018.00 A 791227.24 791227.24 0 1 1 59147214.00 29430988.00 L 59074858.38 29392313.00 L 56802548.00 29392313.00 L 56802548.00 33871624.93 L 56852548.54 33920002.99 L 58990038.84 33920002.33 L 59099998.00 33909172.00 L 59209956.48 33920002.26 L 60069996.00 33920002.00 L 61041336.00 34891342.00 L 61087400.00 34891342.00 L 61087400.00 34937406.00 L 62027787.02 35877793.02 L 62071238.00 35842134.00 A 791198.52 791198.52 0 0 1 63070282.00 35940531.00 L 63079524.41 35951793.00 L 63345196.00 35951793.00 A 593418.90 593418.90 0 0 1 63764799.00 36125598.00 L 65019601.00 37380400.00 A 593415.38 593415.38 0 0 1 65193406.00 37800003.00 L 65193406.00 38680590.00 A 593418.90 593418.90 0 0 1 65019601.00 39100193.00 L 64455728.40 39664065.60 L 64474862.75 39710260.00 L 64903663.00 39710260.00 A 593418.90 593418.90 0 0 1 65323266.00 39884065.00 L 67319601.00 41880400.00 A 593415.38 593415.38 0 0 1 67493406.00 42300003.00 L 67493406.00 42466910.28 L 67543406.46 42490159.37 L 67611986.00 42437536.00 L 67712931.00 42395723.00 L 67821257.00 42381462.00 L 67850002.04 42381462.00 L 67850002.03 42482325.00 L 67821257.00 42482325.00 A 317686.61 317686.61 0 1 0 67821257.00 43117681.00 L 67850001.97 43117681.00 L 67850001.96 43218544.00 L 67821257.00 43218544.00 L 67712931.00 43204283.00 L 67611986.00 43162470.00 L 67543406.46 43109846.63 L 67493406.00 43133095.72 L 67493406.00 43269378.00 A 593408.94 593408.94 0 0 1 67319601.00 43688981.00 L 65888976.00 45119606.00 A 593415.38 593415.38 0 0 1 65469373.00 45293411.00  zM 67897991.08 36899653.92 L 67797128.17 36899653.91 L 67809204.00 36807929.00 A 547587.27 547587.27 0 0 1 68338143.00 36402060.00 L 68731055.05 36402060.00 L 68731055.04 36502923.00 L 68338143.00 36502923.00 A 446726.20 446726.20 0 0 0 67906630.00 36834034.00 L 67897991.08 36899653.92  zM 69764985.85 36899654.09 L 69664122.94 36899654.08 L 69655484.00 36834034.00 A 446720.81 446720.81 0 0 0 69223971.00 36502923.00 L 68831055.04 36502923.00 L 68831055.05 36402060.00 L 69223971.00 36402060.00 A 547600.66 547600.66 0 0 1 69752910.00 36807929.00 L 69764985.85 36899654.09  zM 58822760.78 40149296.00 L 58714897.00 40148389.00 A 398700.16 398700.16 0 0 1 58996810.00 39866476.00 L 59050001.02 39859473.25 L 59050001.02 39960336.20 L 59022916.00 39963902.00 A 297844.08 297844.08 0 0 0 58842076.00 40102665.00 L 58822760.78 40149296.00  zM 58899291.00 40792654.38 A 395371.19 395371.19 0 0 1 58714777.59 40550710.00 L 58822760.78 40550710.00 L 58842076.00 40597341.00 L 58889405.00 40659022.00 L 58899291.00 40666607.59 L 58899291.00 40792654.38  zM 53799996.95 45400009.68 m -1382204.32 0 a 1382204.32 1382204.32 0 1 1 2764408.63 0a 1382204.32 1382204.32 0 1 1 -2764408.63 0M 59099997.13 40350004.07 m -150528.93 0 a 150528.93 150528.93 0 1 1 301057.86 0a 150528.93 150528.93 0 1 1 -301057.86 0M 60259998.00 41360702.55 L 60227427.34 41356414.66 L 60259998.00 41323844.00 L 60259998.00 41360702.55  zM 60309998.44 40870001.65 m -180637.35 0 a 180637.35 180637.35 0 1 1 361274.69 0a 180637.35 180637.35 0 1 1 -361274.69 0M 67899998.44 42800001.65 m -180637.35 0 a 180637.35 180637.35 0 1 1 361274.69 0a 180637.35 180637.35 0 1 1 -361274.69 0M 68390697.82 42750005.04 L 68289834.40 42750005.03 L 68285592.00 42717782.00 A 317671.90 317671.90 0 0 0 67978739.00 42482325.00 L 67950002.03 42482325.00 L 67950002.04 42381462.00 L 67978739.00 42381462.00 L 68087065.00 42395723.00 L 68129418.86 42413266.63 L 68365475.43 42649323.30 L 68383019.00 42691677.00 L 68390697.82 42750005.04  zM 67978739.00 43218544.00 L 67950001.96 43218544.00 L 67950001.97 43117681.00 L 67978739.00 43117681.00 A 317686.61 317686.61 0 0 0 68285592.00 42882224.00 L 68289833.86 42850005.03 L 68390697.29 42850005.04 L 68383019.00 42908329.00 A 418538.36 418538.36 0 0 1 67978739.00 43218544.00  zM 68492759.44 37901087.65 m -180637.35 0 a 180637.35 180637.35 0 1 1 361274.69 0a 180637.35 180637.35 0 1 1 -361274.69 0M 67999177.00 38394909.00 L 67999070.05 37951205.96 L 68099070.06 37951181.86 L 68099153.00 38294885.00 L 68442855.86 38294802.06 L 68442879.96 38394802.05 L 67999177.00 38394909.00  zM 68542879.96 38394777.95 L 68542855.86 38294777.93 L 68886555.00 38294695.00 L 68886472.06 37950992.14 L 68986472.05 37950968.04 L 68986579.00 38394671.00 L 68542879.96 38394777.95  zM 67999045.95 37851205.96 L 67998936.72 37407508.13 L 67984155.91 37362361.03 L 67950933.00 37336868.00 L 67863909.00 37223457.00 L 67809204.00 37091387.00 L 67797127.10 36999653.91 L 67897990.01 36999653.92 L 67906630.00 37065282.00 A 446720.81 446720.81 0 0 0 68338143.00 37396393.00 L 69223971.00 37396393.00 A 446726.20 446726.20 0 0 0 69655484.00 37065282.00 L 69664123.97 36999654.08 L 69764986.88 36999654.09 L 69752910.00 37091387.00 A 547587.27 547587.27 0 0 1 69223971.00 37497256.00 L 69021722.83 37497256.00 L 68986371.21 37532616.14 L 68986447.95 37850968.04 L 68886447.93 37850992.14 L 68886365.00 37507293.00 L 68098963.00 37507483.00 L 68099045.93 37851181.86 L 67999045.95 37851205.96  zM 69371608.00 37048083.00 L 68190506.00 37048083.00 L 68190506.00 36851233.00 L 69371608.00 36851233.00 L 69371608.00 37048083.00  zM 69582320.00 42550004.97 L 69481457.00 42550004.96 L 69481457.00 42521262.00 A 418526.36 418526.36 0 0 1 69791672.00 42116982.00 L 69850002.04 42109302.91 L 69850002.03 42210166.34 L 69817777.00 42214409.00 A 317671.90 317671.90 0 0 0 69582320.00 42521262.00 L 69582320.00 42550004.97  zM 69899998.44 42600001.65 m -180637.35 0 a 180637.35 180637.35 0 1 1 361274.69 0a 180637.35 180637.35 0 1 1 -361274.69 0M 69599291.00 42968501.45 L 69537531.00 42888014.00 L 69495718.00 42787070.00 L 69481457.00 42678744.00 L 69481457.00 42650004.96 L 69582320.00 42650004.97 L 69582320.00 42678744.00 L 69593145.00 42760965.00 L 69608616.80 42798317.48 L 69599291.00 42845201.00 L 69599291.00 42968501.45  zM 69799996.95 45400009.68 m -1382204.32 0 a 1382204.32 1382204.32 0 1 1 2764408.63 0a 1382204.32 1382204.32 0 1 1 -2764408.63 0"/>
</g>
</svg>
