<svg width="51.30800762mm" height="88.90000254mm" viewBox="0 0 20200003 35000001"  version="1.1" xmlns="http://www.w3.org/2000/svg" xmlns:xlink="http://www.w3.org/1999/xlink">
<desc>
Origin 51800000 13400000 Bound 51800000 12399999 20200003 35000001
</desc>
<g fill-rule="evenodd" fill="rgb(128, 128, 0)" stroke="black" stroke-width="1" transform="translate(0, 35000001) scale(1, -1) translate(-51800000, -12399999)">
<path id="N" d="M 60388218.00 40538175.00 L 60488186.00 40438207.00 L 60504037.00 40399938.00 L 60504038.00 40000068.00 L 60488186.00 39961799.00 L 60388218.00 39861831.00 L 60349949.00 39845980.00 L 60150014.00 39845979.00 L 60111745.00 39861831.00 L 60011777.00 39961799.00 A 54121.84 54121.84 0 0 0 60088315.00 40038337.00 L 60172432.00 39954220.00 L 60327531.00 39954220.00 L 60395797.00 40022486.00 L 60395797.00 40377520.00 L 60327531.00 40445786.00 L 60172432.00 40445786.00 L 60088315.00 40361669.00 A 54119.43 54119.43 0 0 0 60011777.00 40438207.00 L 60111745.00 40538175.00 L 60150014.00 40554026.00 L 60349949.00 40554027.00 L 60388218.00 40538175.00  z"/>
<path id="N" d="M 59788412.00 40538175.00 L 59888380.00 40438207.00 A 54121.84 54121.84 0 0 0 59811842.00 40361669.00 L 59727725.00 40445786.00 L 59572626.00 40445786.00 L 59504360.00 40377520.00 L 59504360.00 40322389.00 L 59888380.00 39938369.00 A 54119.43 54119.43 0 0 0 59850108.59 39845980.00 L 59450240.00 39845980.00 A 54118.70 54118.70 0 1 0 59450240.00 39954220.00 L 59719453.00 39954220.00 L 59411971.00 40261702.00 L 59396120.00 40299973.41 L 59396119.00 40399938.00 L 59411971.00 40438207.00 L 59511939.00 40538175.00 L 59550208.00 40554026.00 L 59750143.00 40554027.00 L 59788412.00 40538175.00  z"/>
<path id="N" d="M 60949755.00 40445786.00 L 60903907.00 40445786.00 L 60903907.00 39954220.00 L 60949755.00 39954220.00 A 54118.70 54118.70 0 0 0 60949755.00 39845980.00 L 60749820.00 39845980.00 A 54118.70 54118.70 0 0 0 60749820.00 39954220.00 L 60795667.00 39954220.00 L 60795667.00 40445786.00 L 60749820.00 40445786.00 A 54118.70 54118.70 0 0 0 60749820.00 40554026.00 L 60949755.00 40554026.00 A 54121.84 54121.84 0 0 0 60949755.00 40445786.00  z"/>
<path id="N" d="M 62019107.00 39809664.00 L 62031588.00 39779531.00 L 62031588.00 37220475.00 L 62019107.00 37190342.00 L 61988974.00 37177861.00 L 60611022.00 37177861.00 L 60580889.00 37190342.00 L 60568408.00 37220475.00 L 60568408.00 39779531.00 L 60580889.00 39809664.00 L 60611022.00 39822145.00 L 61988974.00 39822145.00 L 62019107.00 39809664.00  zM 61946360.00 39736917.00 L 60653636.00 39736917.00 L 60653636.00 37263089.00 L 61946360.00 37263089.00 L 61946360.00 39736917.00  z"/>
<path id="N" d="M 62914777.00 39760451.00 L 62927258.00 39730318.00 L 62914777.00 39700185.00 L 62884644.00 39687704.00 L 62195667.00 39687704.00 L 62165534.00 39700185.00 L 62153053.00 39730318.00 L 62165534.00 39760451.00 L 62195667.00 39772932.00 L 62884644.00 39772932.00 L 62914777.00 39760451.00  z"/>
</g>
</svg>
