<svg width="51.30800762mm" height="88.90000254mm" viewBox="0 0 20200003 35000001"  version="1.1" xmlns="http://www.w3.org/2000/svg" xmlns:xlink="http://www.w3.org/1999/xlink">
<desc>
Origin 51800000 13400000 Bound 51800000 12399999 20200003 35000001
</desc>
<g fill-rule="evenodd" fill="rgb(255, 0, 0)" stroke="black" stroke-width="1" transform="translate(0, 35000001) scale(1, -1) translate(-51800000, -12399999)">
<path id="N" d="M 60801928.00 43678744.00 L 60801928.00 43521262.00 A 317686.61 317686.61 0 0 0 60166572.00 43521262.00 L 60166572.00 43678744.00 A 317686.61 317686.61 0 0 0 60801928.00 43678744.00  zM 60484250.44 43600001.65 m -180637.35 0 a 180637.35 180637.35 0 1 1 361274.69 0a 180637.35 180637.35 0 1 1 -361274.69 0"/>
<path id="N" d="M 61627676.00 40948744.00 L 61627676.00 40791262.00 A 317686.61 317686.61 0 0 0 60992320.00 40791262.00 L 60992320.00 40948744.00 A 317686.61 317686.61 0 0 0 61627676.00 40948744.00  zM 61309998.44 40870001.65 m -180637.35 0 a 180637.35 180637.35 0 1 1 361274.69 0a 180637.35 180637.35 0 1 1 -361274.69 0"/>
<path id="N" d="M 61786180.00 43678744.00 L 61786180.00 43521262.00 A 317686.61 317686.61 0 1 0 61150824.00 43521262.00 L 61150824.00 43678744.00 A 317686.61 317686.61 0 1 0 61786180.00 43678744.00  zM 61468502.44 43600001.65 m -180637.35 0 a 180637.35 180637.35 0 1 1 361274.69 0a 180637.35 180637.35 0 1 1 -361274.69 0"/>
<path id="N" d="M 65978739.00 42482325.00 L 65821257.00 42482325.00 A 317686.61 317686.61 0 1 0 65821257.00 43117681.00 L 65978739.00 43117681.00 A 317671.90 317671.90 0 1 0 65978739.00 42482325.00  zM 65899998.44 42800001.65 m -180637.35 0 a 180637.35 180637.35 0 1 1 361274.69 0a 180637.35 180637.35 0 1 1 -361274.69 0"/>
<path id="N" d="M 64093699.00 43504728.00 L 63306297.00 43504728.00 L 63306297.00 44095278.00 L 64093699.00 44095278.00 L 64093699.00 43504728.00  zM 63699998.44 43800001.65 m -180637.35 0 a 180637.35 180637.35 0 1 1 361274.69 0a 180637.35 180637.35 0 1 1 -361274.69 0"/>
<path id="N" d="M 53800005.86 45400011.12 m -989001.57 0 a 989001.57 989001.57 0 1 1 1978003.14 0a 989001.57 989001.57 0 1 1 -1978003.14 0M 53799999.40 45399999.06 m -593408.94 0 a 593408.94 593408.94 0 1 1 1186817.89 0a 593408.94 593408.94 0 1 1 -1186817.89 0"/>
<path id="N" d="M 69800005.86 45400011.12 m -989001.57 0 a 989001.57 989001.57 0 1 1 1978003.14 0a 989001.57 989001.57 0 1 1 -1978003.14 0M 69799999.40 45399999.06 m -593408.94 0 a 593408.94 593408.94 0 1 1 1186817.89 0a 593408.94 593408.94 0 1 1 -1186817.89 0"/>
<path id="N" d="M 70800003.86 28300014.12 m -989001.57 0 a 989001.57 989001.57 0 1 1 1978003.14 0a 989001.57 989001.57 0 1 1 -1978003.14 0M 70799997.40 28300002.06 m -593408.94 0 a 593408.94 593408.94 0 1 1 1186817.89 0a 593408.94 593408.94 0 1 1 -1186817.89 0"/>
<path id="N" d="M 69800005.86 14400011.12 m -989001.57 0 a 989001.57 989001.57 0 1 1 1978003.14 0a 989001.57 989001.57 0 1 1 -1978003.14 0M 69799999.40 14399999.06 m -593408.94 0 a 593408.94 593408.94 0 1 1 1186817.89 0a 593408.94 593408.94 0 1 1 -1186817.89 0"/>
<path id="N" d="M 63578739.00 18582325.00 L 63421257.00 18582325.00 A 317686.61 317686.61 0 0 0 63421257.00 19217681.00 L 63578739.00 19217681.00 A 317671.90 317671.90 0 1 0 63578739.00 18582325.00  zM 63499998.44 18900001.65 m -180637.35 0 a 180637.35 180637.35 0 1 1 361274.69 0a 180637.35 180637.35 0 1 1 -361274.69 0"/>
<path id="N" d="M 55398424.00 16902180.00 L 55201572.00 16902180.00 A 297815.68 297815.68 0 0 0 55201572.00 17497826.00 L 55398424.00 17497826.00 A 297844.08 297844.08 0 0 0 55398424.00 16902180.00  zM 55299998.44 17200001.65 m -180637.35 0 a 180637.35 180637.35 0 1 1 361274.69 0a 180637.35 180637.35 0 1 1 -361274.69 0"/>
<path id="N" d="M 60600003.16 17700011.64 m -397087.98 0 a 397087.98 397087.98 0 1 1 794175.95 0a 397087.98 397087.98 0 1 1 -794175.95 0M 60599998.44 17700001.65 m -180637.35 0 a 180637.35 180637.35 0 1 1 361274.69 0a 180637.35 180637.35 0 1 1 -361274.69 0"/>
<path id="N" d="M 56100003.43 20000014.87 m -416940.35 0 a 416940.35 416940.35 0 1 1 833880.70 0a 416940.35 416940.35 0 1 1 -833880.70 0M 56099998.44 20000001.65 m -180637.35 0 a 180637.35 180637.35 0 1 1 361274.69 0a 180637.35 180637.35 0 1 1 -361274.69 0"/>
<path id="N" d="M 61814958.00 18606302.00 L 61185038.00 18606302.00 L 61185038.00 19393704.00 L 61814958.00 19393704.00 L 61814958.00 18606302.00  zM 61499998.44 19000001.65 m -180637.35 0 a 180637.35 180637.35 0 1 1 361274.69 0a 180637.35 180637.35 0 1 1 -361274.69 0"/>
<path id="N" d="M 57617676.00 16378744.00 L 57617676.00 16221262.00 A 317686.61 317686.61 0 0 0 56982320.00 16221262.00 L 56982320.00 16378744.00 A 317686.61 317686.61 0 0 0 57617676.00 16378744.00  zM 57299998.44 16300001.65 m -180637.35 0 a 180637.35 180637.35 0 1 1 361274.69 0a 180637.35 180637.35 0 1 1 -361274.69 0"/>
<path id="N" d="M 55693699.00 15904728.00 L 54906297.00 15904728.00 L 54906297.00 16495278.00 L 55693699.00 16495278.00 L 55693699.00 15904728.00  zM 55299998.44 16200001.65 m -180637.35 0 a 180637.35 180637.35 0 1 1 361274.69 0a 180637.35 180637.35 0 1 1 -361274.69 0"/>
<path id="N" d="M 58917676.00 18278744.00 L 58917676.00 18121262.00 A 317686.61 317686.61 0 0 0 58282320.00 18121262.00 L 58282320.00 18278744.00 A 317686.61 317686.61 0 0 0 58917676.00 18278744.00  zM 58599998.44 18200001.65 m -180637.35 0 a 180637.35 180637.35 0 1 1 361274.69 0a 180637.35 180637.35 0 1 1 -361274.69 0"/>
<path id="N" d="M 60217676.00 19078744.00 L 60217676.00 18921262.00 A 317686.61 317686.61 0 0 0 59582320.00 18921262.00 L 59582320.00 19078744.00 A 317686.61 317686.61 0 0 0 60217676.00 19078744.00  zM 59899998.44 19000001.65 m -180637.35 0 a 180637.35 180637.35 0 1 1 361274.69 0a 180637.35 180637.35 0 1 1 -361274.69 0"/>
<path id="N" d="M 63893699.00 16585043.00 L 63106297.00 16585043.00 L 63106297.00 17214963.00 L 63893699.00 17214963.00 L 63893699.00 16585043.00  zM 63499998.44 16900001.65 m -180637.35 0 a 180637.35 180637.35 0 1 1 361274.69 0a 180637.35 180637.35 0 1 1 -361274.69 0"/>
<path id="N" d="M 63678739.00 39982325.00 L 63521257.00 39982325.00 A 317686.61 317686.61 0 1 0 63521257.00 40617681.00 L 63678739.00 40617681.00 A 317671.90 317671.90 0 0 0 63678739.00 39982325.00  zM 63599998.44 40300001.65 m -180637.35 0 a 180637.35 180637.35 0 1 1 361274.69 0a 180637.35 180637.35 0 1 1 -361274.69 0"/>
<path id="N" d="M 63678739.00 39082325.00 L 63521257.00 39082325.00 A 317686.61 317686.61 0 1 0 63521257.00 39717681.00 L 63678739.00 39717681.00 A 317671.90 317671.90 0 0 0 63678739.00 39082325.00  zM 63599998.44 39400001.65 m -180637.35 0 a 180637.35 180637.35 0 1 1 361274.69 0a 180637.35 180637.35 0 1 1 -361274.69 0"/>
<path id="N" d="M 59817676.00 43678744.00 L 59817676.00 43521262.00 A 317686.61 317686.61 0 0 0 59182320.00 43521262.00 L 59182320.00 43678744.00 A 317686.61 317686.61 0 0 0 59817676.00 43678744.00  zM 59499998.44 43600001.65 m -180637.35 0 a 180637.35 180637.35 0 1 1 361274.69 0a 180637.35 180637.35 0 1 1 -361274.69 0"/>
<path id="N" d="M 62510816.16 36500011.64 m -397087.98 0 a 397087.98 397087.98 0 1 1 794175.95 0a 397087.98 397087.98 0 1 1 -794175.95 0M 62510811.44 36500001.65 m -180637.35 0 a 180637.35 180637.35 0 1 1 361274.69 0a 180637.35 180637.35 0 1 1 -361274.69 0"/>
<path id="N" d="M 70689405.00 41289410.00 L 70681819.41 41299296.00 L 64964110.59 41299296.00 L 64956525.00 41289410.00 A 297829.90 297829.90 0 1 0 64956525.00 41710596.00 L 64964110.59 41700710.00 L 70681819.41 41700710.00 L 70689405.00 41710596.00 A 297829.90 297829.90 0 1 0 70689405.00 41289410.00  z"/>
<path id="N" d="M 63678739.00 38082325.00 L 63521257.00 38082325.00 A 317686.61 317686.61 0 0 0 63521257.00 38717681.00 L 63678739.00 38717681.00 A 317671.90 317671.90 0 0 0 63678739.00 38082325.00  zM 63599998.44 38400001.65 m -180637.35 0 a 180637.35 180637.35 0 1 1 361274.69 0a 180637.35 180637.35 0 1 1 -361274.69 0"/>
<path id="N" d="M 57598426.00 36639185.00 L 57401574.00 36639185.00 A 297823.01 297823.01 0 1 0 57401574.00 37234831.00 L 57598426.00 37234831.00 A 297829.90 297829.90 0 0 0 57598426.00 36639185.00  zM 57500000.44 36937006.65 m -180637.35 0 a 180637.35 180637.35 0 1 1 361274.69 0a 180637.35 180637.35 0 1 1 -361274.69 0"/>
<path id="N" d="M 63417676.00 31878744.00 L 63417676.00 31721262.00 A 317686.61 317686.61 0 0 0 62782320.00 31721262.00 L 62782320.00 31878744.00 A 317686.61 317686.61 0 1 0 63417676.00 31878744.00  zM 63099998.44 31800001.65 m -180637.35 0 a 180637.35 180637.35 0 1 1 361274.69 0a 180637.35 180637.35 0 1 1 -361274.69 0"/>
<path id="N" d="M 71153437.00 32015464.00 L 70995955.00 32015338.00 A 317689.57 317689.57 0 1 0 70995445.00 32650694.00 L 71152927.00 32650820.00 A 317663.23 317663.23 0 1 0 71153437.00 32015464.00  zM 71074441.44 32333077.65 m -180637.35 0 a 180637.35 180637.35 0 1 1 361274.69 0a 180637.35 180637.35 0 1 1 -361274.69 0"/>
<path id="N" d="M 60378739.00 36282325.00 L 60221257.00 36282325.00 A 317686.61 317686.61 0 1 0 60221257.00 36917681.00 L 60378739.00 36917681.00 A 317671.90 317671.90 0 0 0 60378739.00 36282325.00  zM 60299998.68 36600002.74 m -100353.26 0 a 100353.26 100353.26 0 1 1 200706.53 0a 100353.26 100353.26 0 1 1 -200706.53 0"/>
<path id="N" d="M 63798424.00 42502180.00 L 63601572.00 42502180.00 A 297815.68 297815.68 0 0 0 63601572.00 43097826.00 L 63798424.00 43097826.00 A 297844.08 297844.08 0 0 0 63798424.00 42502180.00  zM 63699998.44 42800001.65 m -180637.35 0 a 180637.35 180637.35 0 1 1 361274.69 0a 180637.35 180637.35 0 1 1 -361274.69 0"/>
<path id="N" d="M 68493241.84 39901087.13 m -397099.18 0 a 397099.18 397099.18 0 1 1 794198.37 0a 397099.18 397099.18 0 1 1 -794198.37 0M 68493241.44 39901087.65 m -180637.35 0 a 180637.35 180637.35 0 1 1 361274.69 0a 180637.35 180637.35 0 1 1 -361274.69 0"/>
<path id="N" d="M 68096328.00 35591390.00 L 68096328.00 34607138.00 A 496366.14 496366.14 0 0 0 67103582.00 34607138.00 L 67103582.00 35591390.00 A 496366.14 496366.14 0 0 0 68096328.00 35591390.00  zM 67698380.00 35788240.00 L 67501530.00 35788240.00 L 67501530.00 34410288.00 L 67698380.00 34410288.00 L 67698380.00 35788240.00  z"/>
<path id="N" d="M 71214958.00 42206302.00 L 70585038.00 42206302.00 L 70585038.00 42993704.00 L 71214958.00 42993704.00 L 71214958.00 42206302.00  zM 70899998.44 42600001.65 m -180637.35 0 a 180637.35 180637.35 0 1 1 361274.69 0a 180637.35 180637.35 0 1 1 -361274.69 0"/>
<path id="N" d="M 63993699.00 40985043.00 L 63206297.00 40985043.00 L 63206297.00 41614963.00 L 63993699.00 41614963.00 L 63993699.00 40985043.00  zM 63599998.44 41300001.65 m -180637.35 0 a 180637.35 180637.35 0 1 1 361274.69 0a 180637.35 180637.35 0 1 1 -361274.69 0"/>
<path id="N" d="M 71153437.00 25090136.00 L 70995955.00 25090010.00 A 317689.57 317689.57 0 1 0 70995445.00 25725366.00 L 71152927.00 25725492.00 A 317663.23 317663.23 0 1 0 71153437.00 25090136.00  zM 71074441.44 25407749.65 m -180637.35 0 a 180637.35 180637.35 0 1 1 361274.69 0a 180637.35 180637.35 0 1 1 -361274.69 0"/>
<path id="N" d="M 63578739.00 17582325.00 L 63421257.00 17582325.00 A 317686.61 317686.61 0 0 0 63421257.00 18217681.00 L 63578739.00 18217681.00 A 317671.90 317671.90 0 1 0 63578739.00 17582325.00  zM 63499998.44 17900001.65 m -180637.35 0 a 180637.35 180637.35 0 1 1 361274.69 0a 180637.35 180637.35 0 1 1 -361274.69 0"/>
<path id="N" d="M 68493241.84 18881270.13 m -397099.18 0 a 397099.18 397099.18 0 1 1 794198.37 0a 397099.18 397099.18 0 1 1 -794198.37 0M 68493241.44 18881270.65 m -180637.35 0 a 180637.35 180637.35 0 1 1 361274.69 0a 180637.35 180637.35 0 1 1 -361274.69 0"/>
<path id="N" d="M 68096328.00 22209369.00 L 68096328.00 21225117.00 A 496366.14 496366.14 0 0 0 67103582.00 21225117.00 L 67103582.00 22209369.00 A 496366.14 496366.14 0 0 0 68096328.00 22209369.00  zM 67698380.00 22406219.00 L 67501530.00 22406219.00 L 67501530.00 21028267.00 L 67698380.00 21028267.00 L 67698380.00 22406219.00  z"/>
<path id="N" d="M 57598426.00 37702177.00 L 57401574.00 37702177.00 A 297823.01 297823.01 0 0 0 57401574.00 38297823.00 L 57598426.00 38297823.00 A 297829.90 297829.90 0 0 0 57598426.00 37702177.00  zM 57500000.44 37999998.65 m -180637.35 0 a 180637.35 180637.35 0 1 1 361274.69 0a 180637.35 180637.35 0 1 1 -361274.69 0"/>
<path id="N" d="M 59397821.00 38998429.00 L 59397821.00 38801577.00 A 297823.01 297823.01 0 0 0 58802175.00 38801577.00 L 58802175.00 38998429.00 A 297823.01 297823.01 0 0 0 59397821.00 38998429.00  zM 59099997.13 38900004.07 m -150528.93 0 a 150528.93 150528.93 0 1 1 301057.86 0a 150528.93 150528.93 0 1 1 -301057.86 0"/>
<path id="N" d="M 59417676.00 37778744.00 L 59417676.00 37621262.00 A 317686.61 317686.61 0 0 0 58782320.00 37621262.00 L 58782320.00 37778744.00 A 317686.61 317686.61 0 0 0 59417676.00 37778744.00  zM 59099998.44 37700001.65 m -180637.35 0 a 180637.35 180637.35 0 1 1 361274.69 0a 180637.35 180637.35 0 1 1 -361274.69 0"/>
<path id="N" d="M 59449996.82 28699998.93 m -397102.15 0 a 397102.15 397102.15 0 1 1 794204.30 0a 397102.15 397102.15 0 1 1 -794204.30 0M 59449998.44 28700001.65 m -180637.35 0 a 180637.35 180637.35 0 1 1 361274.69 0a 180637.35 180637.35 0 1 1 -361274.69 0"/>
<path id="N" d="M 56110243.43 28700014.87 m -416940.35 0 a 416940.35 416940.35 0 1 1 833880.70 0a 416940.35 416940.35 0 1 1 -833880.70 0M 56110238.44 28700001.65 m -180637.35 0 a 180637.35 180637.35 0 1 1 361274.69 0a 180637.35 180637.35 0 1 1 -361274.69 0"/>
<path id="N" d="M 59417676.00 34778744.00 L 59417676.00 34621262.00 A 317686.61 317686.61 0 0 0 58782320.00 34621262.00 L 58782320.00 34778744.00 A 317686.61 317686.61 0 0 0 59417676.00 34778744.00  zM 59099998.44 34700001.65 m -180637.35 0 a 180637.35 180637.35 0 1 1 361274.69 0a 180637.35 180637.35 0 1 1 -361274.69 0"/>
<path id="N" d="M 57893701.00 35578741.00 L 57106299.00 35578741.00 L 57106299.00 36169291.00 L 57893701.00 36169291.00 L 57893701.00 35578741.00  zM 57500000.44 35874014.65 m -180637.35 0 a 180637.35 180637.35 0 1 1 361274.69 0a 180637.35 180637.35 0 1 1 -361274.69 0"/>
<path id="N" d="M 60693699.00 35285043.00 L 59906297.00 35285043.00 L 59906297.00 35914963.00 L 60693699.00 35914963.00 L 60693699.00 35285043.00  zM 60299998.68 35600002.74 m -100353.26 0 a 100353.26 100353.26 0 1 1 200706.53 0a 100353.26 100353.26 0 1 1 -200706.53 0"/>
<path id="N" d="M 53800005.86 14400011.12 m -989001.57 0 a 989001.57 989001.57 0 1 1 1978003.14 0a 989001.57 989001.57 0 1 1 -1978003.14 0M 53799999.40 14399999.06 m -593408.94 0 a 593408.94 593408.94 0 1 1 1186817.89 0a 593408.94 593408.94 0 1 1 -1186817.89 0"/>
<path id="N" d="M 60627676.00 40948744.00 L 60627676.00 40791262.00 A 317686.61 317686.61 0 0 0 59992320.00 40791262.00 L 59992320.00 40948744.00 A 317686.61 317686.61 0 1 0 60627676.00 40948744.00  zM 60309998.44 40870001.65 m -180637.35 0 a 180637.35 180637.35 0 1 1 361274.69 0a 180637.35 180637.35 0 1 1 -361274.69 0"/>
<path id="N" d="M 57917676.00 18278744.00 L 57917676.00 18121262.00 A 317686.61 317686.61 0 0 0 57282320.00 18121262.00 L 57282320.00 18278744.00 A 317686.61 317686.61 0 0 0 57917676.00 18278744.00  zM 57599998.44 18200001.65 m -180637.35 0 a 180637.35 180637.35 0 1 1 361274.69 0a 180637.35 180637.35 0 1 1 -361274.69 0"/>
<path id="N" d="M 58617676.00 16378744.00 L 58617676.00 16221262.00 A 317686.61 317686.61 0 0 0 57982320.00 16221262.00 L 57982320.00 16378744.00 A 317686.61 317686.61 0 0 0 58617676.00 16378744.00  zM 58299998.44 16300001.65 m -180637.35 0 a 180637.35 180637.35 0 1 1 361274.69 0a 180637.35 180637.35 0 1 1 -361274.69 0"/>
<path id="N" d="M 59397821.00 40448429.00 L 59397821.00 40251577.00 A 297823.01 297823.01 0 0 0 58802175.00 40251577.00 L 58802175.00 40448429.00 A 297823.01 297823.01 0 0 0 59397821.00 40448429.00  zM 59099997.13 40350004.07 m -150528.93 0 a 150528.93 150528.93 0 1 1 301057.86 0a 150528.93 150528.93 0 1 1 -301057.86 0"/>
<path id="N" d="M 67978739.00 42482325.00 L 67821257.00 42482325.00 A 317686.61 317686.61 0 1 0 67821257.00 43117681.00 L 67978739.00 43117681.00 A 317671.90 317671.90 0 0 0 67978739.00 42482325.00  zM 67899998.44 42800001.65 m -180637.35 0 a 180637.35 180637.35 0 1 1 361274.69 0a 180637.35 180637.35 0 1 1 -361274.69 0"/>
<path id="N" d="M 70217676.00 42678744.00 L 70217676.00 42521262.00 A 317686.61 317686.61 0 0 0 69582320.00 42521262.00 L 69582320.00 42678744.00 A 317686.61 317686.61 0 0 0 70217676.00 42678744.00  zM 69899998.44 42600001.65 m -180637.35 0 a 180637.35 180637.35 0 1 1 361274.69 0a 180637.35 180637.35 0 1 1 -361274.69 0"/>
<path id="N" d="M 59749996.82 25699998.93 m -397102.15 0 a 397102.15 397102.15 0 1 1 794204.30 0a 397102.15 397102.15 0 1 1 -794204.30 0M 59749998.44 25700001.65 m -180637.35 0 a 180637.35 180637.35 0 1 1 361274.69 0a 180637.35 180637.35 0 1 1 -361274.69 0"/>
<path id="N" d="M 69223971.00 36502923.00 L 68338143.00 36502923.00 A 446726.20 446726.20 0 1 0 68338143.00 37396393.00 L 69223971.00 37396393.00 A 446734.99 446734.99 0 0 0 69223971.00 36502923.00  zM 69371608.00 37048083.00 L 68190506.00 37048083.00 L 68190506.00 36851233.00 L 69371608.00 36851233.00 L 69371608.00 37048083.00  z"/>
<path id="N" d="M 70408895.00 35542178.00 L 70408895.00 34656350.00 A 446733.54 446733.54 0 1 0 69515425.00 34656350.00 L 69515425.00 35542178.00 A 446733.54 446733.54 0 0 0 70408895.00 35542178.00  zM 70060585.00 35689815.00 L 69863735.00 35689815.00 L 69863735.00 34508713.00 L 70060585.00 34508713.00 L 70060585.00 35689815.00  z"/>
<path id="N" d="M 70408895.00 22160157.00 L 70408895.00 21274329.00 A 446733.54 446733.54 0 1 0 69515425.00 21274329.00 L 69515425.00 22160157.00 A 446733.54 446733.54 0 1 0 70408895.00 22160157.00  zM 70060585.00 22307794.00 L 69863735.00 22307794.00 L 69863735.00 21126692.00 L 70060585.00 21126692.00 L 70060585.00 22307794.00  z"/>
<path id="N" d="M 69223971.00 23120902.00 L 68338143.00 23120902.00 A 446726.20 446726.20 0 0 0 68338143.00 24014372.00 L 69223971.00 24014372.00 A 446734.99 446734.99 0 0 0 69223971.00 23120902.00  zM 69371608.00 23666062.00 L 68190506.00 23666062.00 L 68190506.00 23469212.00 L 69371608.00 23469212.00 L 69371608.00 23666062.00  z"/>
<path id="N" d="M 68886555.00 38294695.00 L 68886365.00 37507293.00 L 68098963.00 37507483.00 L 68099153.00 38294885.00 L 68886555.00 38294695.00  zM 68492759.44 37901087.65 m -180637.35 0 a 180637.35 180637.35 0 1 1 361274.69 0a 180637.35 180637.35 0 1 1 -361274.69 0"/>
<path id="N" d="M 68886555.00 17274878.00 L 68886365.00 16487476.00 L 68098963.00 16487666.00 L 68099153.00 17275068.00 L 68886555.00 17274878.00  zM 68492759.44 16881270.65 m -180637.35 0 a 180637.35 180637.35 0 1 1 361274.69 0a 180637.35 180637.35 0 1 1 -361274.69 0"/>
<path id="N" d="M 62904511.00 34106302.00 L 62117111.00 34106302.00 L 62117111.00 34893704.00 L 62904511.00 34893704.00 L 62904511.00 34106302.00  zM 62510811.44 34500001.65 m -180637.35 0 a 180637.35 180637.35 0 1 1 361274.69 0a 180637.35 180637.35 0 1 1 -361274.69 0"/>
<path id="N" d="M 62414958.00 31406302.00 L 61785038.00 31406302.00 L 61785038.00 32193704.00 L 62414958.00 32193704.00 L 62414958.00 31406302.00  zM 62099998.44 31800001.65 m -180637.35 0 a 180637.35 180637.35 0 1 1 361274.69 0a 180637.35 180637.35 0 1 1 -361274.69 0"/>
<path id="N" d="M 60993698.00 15306302.00 L 60206298.00 15306302.00 L 60206298.00 16093704.00 L 60993698.00 16093704.00 L 60993698.00 15306302.00  zM 60599998.44 15700001.65 m -180637.35 0 a 180637.35 180637.35 0 1 1 361274.69 0a 180637.35 180637.35 0 1 1 -361274.69 0"/>
<path id="N" d="M 71469185.00 31034183.00 L 70681783.00 31033551.00 L 70681277.00 31663471.00 L 71468679.00 31664103.00 L 71469185.00 31034183.00  zM 71075231.44 31348825.65 m -180637.35 0 a 180637.35 180637.35 0 1 1 361274.69 0a 180637.35 180637.35 0 1 1 -361274.69 0"/>
<path id="N" d="M 71469185.00 24108855.00 L 70681783.00 24108223.00 L 70681277.00 24738143.00 L 71468679.00 24738775.00 L 71469185.00 24108855.00  zM 71075231.44 24423497.65 m -180637.35 0 a 180637.35 180637.35 0 1 1 361274.69 0a 180637.35 180637.35 0 1 1 -361274.69 0"/>
</g>
</svg>
