<svg width="51.30800762mm" height="88.90000254mm" viewBox="0 0 20200003 35000001"  version="1.1" xmlns="http://www.w3.org/2000/svg" xmlns:xlink="http://www.w3.org/1999/xlink">
<desc>
Origin 51800000 13400000 Bound 51800000 12399999 20200003 35000001
</desc>
<g fill-rule="evenodd" fill="rgb(128, 0, 128)" stroke="black" stroke-width="1" transform="translate(0, 35000001) scale(1, -1) translate(-51800000, -12399999)">
<path id="N" d="M 72000000.00 47399998.00 L 72000003.00 12400000.00 L 51800001.00 12399999.00 L 51800000.00 47400000.00 L 72000000.00 47399998.00  zM 53799999.28 14400005.39 m -1029202.61 0 a 1029202.61 1029202.61 0 1 1 2058405.22 0a 1029202.61 1029202.61 0 1 1 -2058405.22 0M 55733699.00 16535278.00 L 54866297.00 16535278.00 L 54866297.00 15864728.00 L 55733699.00 15864728.00 L 55733699.00 16535278.00  zM 56941975.00 16378744.00 L 56941975.00 16221262.00 A 358018.50 358018.50 0 0 1 57658021.00 16221262.00 L 57658021.00 16378744.00 A 358018.50 358018.50 0 0 1 56941975.00 16378744.00  zM 55398424.00 17538171.00 L 55201572.00 17538171.00 A 338174.95 338174.95 0 0 1 55201572.00 16861835.00 L 55398424.00 16861835.00 A 338174.95 338174.95 0 0 1 55398424.00 17538171.00  zM 57241975.00 18278744.00 L 57241975.00 18121262.00 A 358018.50 358018.50 0 0 1 57958021.00 18121262.00 L 57958021.00 18278744.00 A 358018.50 358018.50 0 0 1 57241975.00 18278744.00  zM 57941975.00 16378744.00 L 57941975.00 16221262.00 A 358018.50 358018.50 0 0 1 58658021.00 16221262.00 L 58658021.00 16378744.00 A 358018.50 358018.50 0 0 1 57941975.00 16378744.00  zM 60599995.34 17700013.18 m -437432.82 0 a 437432.82 437432.82 0 1 1 874865.64 0a 437432.82 437432.82 0 1 1 -874865.64 0M 58241975.00 18278744.00 L 58241975.00 18121262.00 A 358018.50 358018.50 0 0 1 58958021.00 18121262.00 L 58958021.00 18278744.00 A 358018.50 358018.50 0 0 1 58241975.00 18278744.00  zM 59541975.00 19078744.00 L 59541975.00 18921262.00 A 358018.50 358018.50 0 0 1 60258021.00 18921262.00 L 60258021.00 19078744.00 A 358018.50 358018.50 0 0 1 59541975.00 19078744.00  zM 61033698.00 16133704.00 L 60166298.00 16133704.00 L 60166298.00 15266302.00 L 61033698.00 15266302.00 L 61033698.00 16133704.00  zM 63933699.00 17254963.00 L 63066297.00 17254963.00 L 63066297.00 16545043.00 L 63933699.00 16545043.00 L 63933699.00 17254963.00  zM 61854958.00 19433704.00 L 61145038.00 19433704.00 L 61145038.00 18566302.00 L 61854958.00 18566302.00 L 61854958.00 19433704.00  zM 63578739.00 18258026.00 L 63421257.00 18258026.00 A 358018.50 358018.50 0 0 1 63421257.00 17541980.00 L 63578739.00 17541980.00 A 358018.50 358018.50 0 0 1 63578739.00 18258026.00  zM 63578739.00 19258026.00 L 63421257.00 19258026.00 A 358018.50 358018.50 0 0 1 63421257.00 18541980.00 L 63578739.00 18541980.00 A 358018.50 358018.50 0 0 1 63578739.00 19258026.00  zM 68059163.00 17315077.00 L 68058954.00 16447676.00 L 68926355.00 16447467.00 L 68926564.00 17314868.00 L 68059163.00 17315077.00  zM 69799999.28 14400005.39 m -1029202.61 0 a 1029202.61 1029202.61 0 1 1 2058405.22 0a 1029202.61 1029202.61 0 1 1 -2058405.22 0M 68493246.91 18881247.21 m -437467.80 0 a 437467.80 437467.80 0 1 1 874935.60 0a 437467.80 437467.80 0 1 1 -874935.60 0M 56099999.00 19999997.24 m -457303.76 0 a 457303.76 457303.76 0 1 1 914607.52 0a 457303.76 457303.76 0 1 1 -914607.52 0M 59750000.71 25699993.13 m -437452.87 0 a 437452.87 437452.87 0 1 1 874905.73 0a 437452.87 437452.87 0 1 1 -874905.73 0M 56110239.00 28699997.24 m -457303.76 0 a 457303.76 457303.76 0 1 1 914607.52 0a 457303.76 457303.76 0 1 1 -914607.52 0M 59450000.71 28699993.13 m -437452.87 0 a 437452.87 437452.87 0 1 1 874905.73 0a 437452.87 437452.87 0 1 1 -874905.73 0M 62454958.00 32233704.00 L 61745038.00 32233704.00 L 61745038.00 31366302.00 L 62454958.00 31366302.00 L 62454958.00 32233704.00  zM 58741975.00 34778744.00 L 58741975.00 34621262.00 A 358011.17 358011.17 0 0 1 59458021.00 34621262.00 L 59458021.00 34778744.00 A 358011.17 358011.17 0 1 1 58741975.00 34778744.00  zM 62741975.00 31878744.00 L 62741975.00 31721262.00 A 358018.50 358018.50 0 0 1 63458021.00 31721262.00 L 63458021.00 31878744.00 A 358018.50 358018.50 0 0 1 62741975.00 31878744.00  zM 62944511.00 34933704.00 L 62077111.00 34933704.00 L 62077111.00 34066302.00 L 62944511.00 34066302.00 L 62944511.00 34933704.00  zM 67063237.00 22209369.00 L 67063237.00 21225117.00 A 536705.37 536705.37 0 0 1 68136673.00 21225117.00 L 68136673.00 22209369.00 A 536705.37 536705.37 0 0 1 67063237.00 22209369.00  zM 69223971.00 24054717.00 L 68338143.00 24054717.00 A 487085.47 487085.47 0 0 1 68338143.00 23080557.00 L 69223971.00 23080557.00 A 487085.47 487085.47 0 0 1 69223971.00 24054717.00  zM 69475080.00 22160157.00 L 69475080.00 21274329.00 A 487085.47 487085.47 0 0 1 70449240.00 21274329.00 L 70449240.00 22160157.00 A 487085.47 487085.47 0 0 1 69475080.00 22160157.00  zM 71508647.00 24778807.00 L 70641245.00 24778111.00 L 70641815.00 24068191.00 L 71509217.00 24068887.00 L 71508647.00 24778807.00  zM 71152895.00 25765837.00 L 70995413.00 25765711.00 A 358029.54 358029.54 0 1 1 70995987.00 25049665.00 L 71153469.00 25049791.00 A 358029.54 358029.54 0 1 1 71152895.00 25765837.00  zM 70799997.28 28300008.39 m -1029202.61 0 a 1029202.61 1029202.61 0 1 1 2058405.22 0a 1029202.61 1029202.61 0 1 1 -2058405.22 0M 71508647.00 31704135.00 L 70641245.00 31703439.00 L 70641815.00 30993519.00 L 71509217.00 30994215.00 L 71508647.00 31704135.00  zM 71152895.00 32691165.00 L 70995413.00 32691039.00 A 358029.54 358029.54 0 1 1 70995987.00 31974993.00 L 71153469.00 31975119.00 A 358029.54 358029.54 0 1 1 71152895.00 32691165.00  zM 57933701.00 36209291.00 L 57066299.00 36209291.00 L 57066299.00 35538741.00 L 57933701.00 35538741.00 L 57933701.00 36209291.00  zM 57598426.00 37275176.00 L 57401574.00 37275176.00 A 338174.95 338174.95 0 0 1 57401574.00 36598840.00 L 57598426.00 36598840.00 A 338174.95 338174.95 0 0 1 57598426.00 37275176.00  zM 57598426.00 38338168.00 L 57401574.00 38338168.00 A 338174.95 338174.95 0 0 1 57401574.00 37661832.00 L 57598426.00 37661832.00 A 338174.95 338174.95 0 0 1 57598426.00 38338168.00  zM 60733699.00 35954963.00 L 59866297.00 35954963.00 L 59866297.00 35245043.00 L 60733699.00 35245043.00 L 60733699.00 35954963.00  zM 58741975.00 37778744.00 L 58741975.00 37621262.00 A 358011.17 358011.17 0 0 1 59458021.00 37621262.00 L 59458021.00 37778744.00 A 358011.17 358011.17 0 0 1 58741975.00 37778744.00  zM 58761830.00 38998429.00 L 58761830.00 38801577.00 A 338174.95 338174.95 0 0 1 59438166.00 38801577.00 L 59438166.00 38998429.00 A 338174.95 338174.95 0 1 1 58761830.00 38998429.00  zM 58761830.00 40448429.00 L 58761830.00 40251577.00 A 338174.95 338174.95 0 0 1 59438166.00 40251577.00 L 59438166.00 40448429.00 A 338174.95 338174.95 0 0 1 58761830.00 40448429.00  zM 53799999.28 45400005.39 m -1029202.61 0 a 1029202.61 1029202.61 0 1 1 2058405.22 0a 1029202.61 1029202.61 0 1 1 -2058405.22 0M 59141975.00 43678744.00 L 59141975.00 43521262.00 A 358018.50 358018.50 0 0 1 59858021.00 43521262.00 L 59858021.00 43678744.00 A 358018.50 358018.50 0 0 1 59141975.00 43678744.00  zM 60378739.00 36958026.00 L 60221257.00 36958026.00 A 358018.50 358018.50 0 1 1 60221257.00 36241980.00 L 60378739.00 36241980.00 A 358018.50 358018.50 0 0 1 60378739.00 36958026.00  zM 62510808.34 36500013.18 m -437432.82 0 a 437432.82 437432.82 0 1 1 874865.64 0a 437432.82 437432.82 0 1 1 -874865.64 0M 63678739.00 38758026.00 L 63521257.00 38758026.00 A 358018.50 358018.50 0 1 1 63521257.00 38041980.00 L 63678739.00 38041980.00 A 358018.50 358018.50 0 0 1 63678739.00 38758026.00  zM 63678739.00 39758026.00 L 63521257.00 39758026.00 A 358018.50 358018.50 0 1 1 63521257.00 39041980.00 L 63678739.00 39041980.00 A 358018.50 358018.50 0 0 1 63678739.00 39758026.00  zM 59951975.00 40948744.00 L 59951975.00 40791262.00 A 358018.50 358018.50 0 0 1 60668021.00 40791262.00 L 60668021.00 40948744.00 A 358018.50 358018.50 0 0 1 59951975.00 40948744.00  zM 60951975.00 40948744.00 L 60951975.00 40791262.00 A 358018.50 358018.50 0 0 1 61668021.00 40791262.00 L 61668021.00 40948744.00 A 358018.50 358018.50 0 0 1 60951975.00 40948744.00  zM 60126227.00 43678744.00 L 60126227.00 43521262.00 A 358018.50 358018.50 0 0 1 60842273.00 43521262.00 L 60842273.00 43678744.00 A 358018.50 358018.50 0 0 1 60126227.00 43678744.00  zM 61110479.00 43678744.00 L 61110479.00 43521262.00 A 358018.50 358018.50 0 0 1 61826525.00 43521262.00 L 61826525.00 43678744.00 A 358018.50 358018.50 0 0 1 61110479.00 43678744.00  zM 67063237.00 35591390.00 L 67063237.00 34607138.00 A 536705.37 536705.37 0 0 1 68136673.00 34607138.00 L 68136673.00 35591390.00 A 536705.37 536705.37 0 0 1 67063237.00 35591390.00  zM 69475080.00 35542178.00 L 69475080.00 34656350.00 A 487085.47 487085.47 0 0 1 70449240.00 34656350.00 L 70449240.00 35542178.00 A 487085.47 487085.47 0 0 1 69475080.00 35542178.00  zM 69223971.00 37436738.00 L 68338143.00 37436738.00 A 487085.47 487085.47 0 0 1 68338143.00 36462578.00 L 69223971.00 36462578.00 A 487085.47 487085.47 0 0 1 69223971.00 37436738.00  zM 68059163.00 38334894.00 L 68058954.00 37467493.00 L 68926355.00 37467284.00 L 68926564.00 38334685.00 L 68059163.00 38334894.00  zM 63678739.00 40658026.00 L 63521257.00 40658026.00 A 358018.50 358018.50 0 1 1 63521257.00 39941980.00 L 63678739.00 39941980.00 A 358018.50 358018.50 0 0 1 63678739.00 40658026.00  zM 64033699.00 41654963.00 L 63166297.00 41654963.00 L 63166297.00 40945043.00 L 64033699.00 40945043.00 L 64033699.00 41654963.00  zM 64745934.00 41499996.05 m -338174.95 0 a 338174.95 338174.95 0 1 1 676349.89 0a 338174.95 338174.95 0 1 1 -676349.89 0M 68493246.91 39901064.21 m -437467.80 0 a 437467.80 437467.80 0 1 1 874935.60 0a 437467.80 437467.80 0 1 1 -874935.60 0M 63798424.00 43138171.00 L 63601572.00 43138171.00 A 338174.95 338174.95 0 0 1 63601572.00 42461835.00 L 63798424.00 42461835.00 A 338174.95 338174.95 0 0 1 63798424.00 43138171.00  zM 64133699.00 44135278.00 L 63266297.00 44135278.00 L 63266297.00 43464728.00 L 64133699.00 43464728.00 L 64133699.00 44135278.00  zM 65978739.00 43158026.00 L 65821257.00 43158026.00 A 358011.17 358011.17 0 0 1 65821257.00 42441980.00 L 65978739.00 42441980.00 A 358011.17 358011.17 0 0 1 65978739.00 43158026.00  zM 67978739.00 43158026.00 L 67821257.00 43158026.00 A 358011.17 358011.17 0 0 1 67821257.00 42441980.00 L 67978739.00 42441980.00 A 358011.17 358011.17 0 0 1 67978739.00 43158026.00  zM 70900000.00 41499996.05 m -338174.95 0 a 338174.95 338174.95 0 1 1 676349.89 0a 338174.95 338174.95 0 1 1 -676349.89 0M 69541975.00 42678744.00 L 69541975.00 42521262.00 A 358018.50 358018.50 0 1 1 70258021.00 42521262.00 L 70258021.00 42678744.00 A 358018.50 358018.50 0 0 1 69541975.00 42678744.00  zM 71254958.00 43033704.00 L 70545038.00 43033704.00 L 70545038.00 42166302.00 L 71254958.00 42166302.00 L 71254958.00 43033704.00  zM 69799999.28 45400005.39 m -1029202.61 0 a 1029202.61 1029202.61 0 1 1 2058405.22 0a 1029202.61 1029202.61 0 1 1 -2058405.22 0"/>
</g>
</svg>
