**ABCDEFGHIJKLMNOPQRSTUVWXYZabcdefghijklmnopqrstuvwxyz**************************
**PARASOLID !"#$%&'()*+,-./:;<=>?@[\]^_`{|}~0123456789**************************
**PART1;
MC=AMD64;
MC_MODEL=Intel64 Family 6 Model 69 Stepping 1, GenuineIntel;
MC_ID=unknown;
OS=Windows_NT;
OS_RELEASE=unknown;
FRU=CAD Exchanger 3.6.1 (cadexchanger.com);
APPL=unknown;
SITE=unknown;
USER=unknown;
FORMAT=text;
GUISE=transmit;
KEY=ZENER_2.54MM_V_TH_Zener;
FILE=ZENER_2.54MM_V_TH_Zener.x_t;
DATE=Fri Dec 11 18:03:36 2020;
**PART2;
SCH=SCH_1200000_12006;
USFLD_SIZE=0;
**PART3;
**END_OF_HEADER*****************************************************************
T51 : TRANSMIT FILE created by modeller version 120000017 SCH_1200000_120060 12
 1 286 0 2 0 0 0 0 1000 1e-008 0 0 0 1 0 1 1 38 6 12 10 35 11 9 70 2 0 1 0 0 4 1
 20 0 3 3 1 T74 20 3 1 0 4 0 0 0 0 0 0 0 0 0 0 0 0 0 0 0 0 0 0 0 81 1 4 7 32 5 0
 0 41 0 34 14 5 5 4 1e-008 39 0 7 38 6 +0 0 39 0 36 54 6 6 0 5 40 0 0 +0.0003080
796800000008 -6.360160000000006e-005 0.004999998919999999 -2.449293598294706e-01
6 -1 0 0.001 0.0003936999999999993 0 0 -1 15 7 8 0 8 5 0 17 8 0 7 16 28 9 13 11
 0 21 +18 9 9 0 8 0 14 10 ?1 29 10 10 0 9 15 0 0.00170177968 -6.36016000000004e-
005 0.004999998919999999 16 11 11 0 ?8 0 19 12 0 0 1 31 12 12 0 11 20 0 0 +0.001
308079680000001 -6.36016000000003e-005 0.004999998919999999 -0 0 1 1 -2.44929359
8294706e-016 0 0.0003936999999999995 17 13 0 375 351 351 14 8 11 0 28 -18 14 13
 0 13 9 17 15 ?1 29 15 14 0 14 18 10 0.0009143796800000014 -6.360160000000017e-0
05 0.004999998919999999 17 16 0 7 22 8 17 21 19 0 27 +18 17 15 0 16 14 23 18 ?1
 29 18 16 0 17 24 15 0.0003080796800000003 -6.360160000000006e-005 0.00639369892
 16 19 17 0 ?16 11 25 20 0 0 1 31 20 18 0 19 26 12 0 +0.0003080796800000008 -6.3
60160000000006e-005 0.004999998919999999 -2.449293598294706e-016 -1 -0 0 0 -1 0.
0013937 17 21 0 347 348 242 9 16 19 0 351 -17 22 0 7 28 16 23 27 25 0 31 -18 23
 19 0 22 17 45 24 ?1 29 24 20 0 23 46 18 0.0003080796800000003 -6.36016e-005 0.0
05606298920000001 16 25 21 0 ?27 19 29 26 0 0 1 31 26 22 0 25 30 20 0 +0.0003080
796800000003 -6.360160000000006e-005 0.005999998919999999 -1 2.449293598294706e-
016 6.123233995736767e-017 6.123233995736767e-017 -1.499759782661858e-032 1 0.00
03936999999999986 17 27 0 342 254 246 17 22 25 0 242 +17 28 0 7 8 22 14 31 29 0
 348 -16 29 23 0 ?31 25 47 30 0 0 1 31 30 24 0 29 48 26 0 +0.0003080796800000008
 -6.36016e-005 0.004999998919999999 -2.449293598294706e-016 -1 -0 0 0 -1 0.00060
63000000000006 17 31 0 347 242 348 23 28 29 0 239 +80 1 32 0 33 8001 0 0 0 0 3 5
 0 0 FFFFTFTFFFFFFF2 79 15 33 SDL/TYSA_COLOUR83 3 34 0.7529411911964417 0.752941
1911964417 0.7529411911964417 19 35 1 0 1 37 0 36 V13 36 2 0 1 0 0 0 0 35 5 19 3
7 3 0 1 0 35 38 S13 38 4 0 1 0 5 0 0 37 0 14 39 25 41 1e-008 68 5 43 38 40 +0 0
 68 5 36 54 40 26 0 39 69 6 0 +-0.0002319203199999985 -6.360159999999992e-005 0.
004999998919999999 -2.449293598294706e-016 -1 0 0.001000000000000002 0.000393699
9999999993 0 0 -1 81 1 41 27 32 39 0 0 70 4 42 83 3 42 0.7529411911964417 0.7529
411911964417 0.7529411911964417 15 43 28 0 44 39 0 17 44 0 43 52 64 45 49 47 0 5
7 +18 45 29 0 44 23 50 46 ?1 29 46 30 0 45 51 24 -0.0002319203199999991 -6.36015
9999999992e-005 0.00639369892 16 47 31 0 ?44 29 55 48 0 0 1 31 48 32 0 47 56 30
 0 +-0.0002319203199999991 -6.360159999999992e-005 0.005999998920000001 -1 2.449
293598294706e-016 6.123233995736767e-017 6.123233995736767e-017 -1.4997597826618
58e-032 1 0.0003936999999999986 17 49 0 342 246 254 50 44 47 0 243 -18 50 33 0 4
9 45 53 51 ?1 29 51 34 0 50 54 46 -0.0002319203199999991 -6.360159999999988e-005
 0.005606298920000002 17 52 0 43 58 44 53 57 55 0 63 +18 53 35 0 52 50 59 54 ?1
 29 54 36 0 53 60 51 -0.00162562032 -6.36015999999996e-005 0.004999998919999999
 16 55 37 0 ?52 47 61 56 0 0 1 31 56 38 0 55 62 48 0 +-0.0002319203199999985 -6.
360159999999992e-005 0.004999998919999999 -2.449293598294706e-016 -1 -0 0 0 -1 0
.001393700000000001 17 57 0 337 250 263 45 52 55 0 247 -17 58 0 43 64 52 59 63 6
1 0 67 -18 59 39 0 58 53 74 60 ?1 29 60 40 0 59 75 54 -0.0008382203200000009 -6.
360159999999973e-005 0.004999998919999999 16 61 41 0 ?63 55 65 62 0 0 1 31 62 42
 0 61 66 56 0 +-0.00123192032 -6.360159999999969e-005 0.004999998919999999 -1.22
4646799147354e-016 2.999519565323716e-032 -1 -1 2.449293598294706e-016 1.2246467
99147354e-016 0.0003936999999999995 17 63 0 328 271 267 53 58 61 0 263 +17 64 0
 43 44 58 50 67 65 0 0 -16 65 43 0 ?67 61 76 66 0 0 1 31 66 44 0 65 77 62 0 +-0.
0002319203199999985 -6.360159999999988e-005 0.004999998919999999 -2.449293598294
706e-016 -1 -0 0 0 -1 0.0006063000000000024 17 67 0 337 263 250 59 64 65 0 260 +
14 68 45 70 1e-008 97 39 72 38 69 +0 0 97 39 36 54 69 46 0 68 98 40 0 +0.0013080
79680000001 -6.360160000000028e-005 0.00489999892 0 0 1 0.0012335 0.0001 1 -2.44
9293598294706e-016 0 81 1 70 47 32 68 0 0 99 41 71 83 3 71 1 0 0 15 72 48 0 73 6
8 0 17 73 0 72 81 93 74 78 76 0 86 -18 74 49 0 73 59 79 75 ?1 29 75 50 0 74 80 6
0 -2.542031999999889e-005 -6.360159999999995e-005 0.00489999892 16 76 51 0 ?78 6
5 84 77 0 0 1 31 77 52 0 76 85 66 0 +0.001308079680000001 -6.360160000000028e-00
5 0.00489999892 0 -0 -1 1 -2.449293598294706e-016 0 0.0013335 17 78 0 276 277 28
1 79 73 76 0 280 +18 79 53 0 78 74 82 80 ?1 29 80 54 0 79 83 75 0.00264157968000
0001 -6.360160000000044e-005 0.00489999892 17 81 0 72 87 73 82 86 84 0 92 +18 82
 55 0 81 79 88 83 ?1 29 83 56 0 82 89 80 7.457968000000115e-005 -6.3601599999999
82e-005 0.004999998919999999 16 84 57 0 ?81 76 90 85 0 0 1 31 85 58 0 84 91 77 0
 +7.457968000000115e-005 -6.360159999999983e-005 0.00489999892 3.67394039744206e
-016 1 -0 -1 3.67394039744206e-016 0 0.0001 17 86 0 427 319 374 74 81 84 0 281 -
17 87 0 72 93 81 88 92 90 0 96 -18 88 59 0 87 82 103 89 ?1 29 89 60 0 88 104 83
 0.002541579680000001 -6.360160000000057e-005 0.004999998919999999 16 90 61 0 ?9
2 84 94 91 0 0 1 31 91 62 0 90 95 85 0 +0.001308079680000001 -6.360160000000028e
-005 0.004999998919999999 -0 0 1 1 -2.449293598294706e-016 0 0.0012335 17 92 0 3
70 371 371 82 87 90 0 374 +17 93 0 72 73 87 79 96 94 0 319 -16 94 63 0 ?96 90 10
5 95 0 0 1 31 95 64 0 94 106 91 0 +0.002541579680000001 -6.360160000000057e-005
 0.00489999892 -2.449293598294706e-016 -1 -0 0 0 -1 0.0001000000000000003 17 96
 0 427 374 319 88 93 94 0 371 +14 97 65 99 1e-008 126 68 101 38 98 +0 0 126 68 3
6 54 98 66 0 97 127 69 0 +0.001308079680000001 -6.360160000000028e-005 9.999892e
-005 0 0 1 0.0012335 0.0001 1 -2.449293598294706e-016 0 81 1 99 67 32 97 0 0 128
 70 100 83 3 100 1 0 0 15 101 68 0 102 97 0 17 102 0 101 110 122 103 107 105 0 3
81 -18 103 69 0 115 88 108 104 ?1 29 104 70 0 103 109 89 7.457968000000115e-005
 -6.360159999999982e-005 -1.08000000009767e-009 16 105 71 0 ?107 94 113 106 0 0
 1 31 106 72 0 105 114 95 0 +0.001308079680000001 -6.360160000000028e-005 -1.080
00000009767e-009 0 -0 -1 1 -2.449293598294706e-016 0 0.0012335 17 107 0 380 381
 381 108 102 105 0 384 +18 108 73 0 122 103 111 109 ?1 29 109 74 0 108 112 104 0
.002541579680000001 -6.360160000000057e-005 -1.08000000009767e-009 17 110 0 101
 116 102 111 115 113 0 121 +18 111 75 0 110 108 117 112 ?1 29 112 76 0 111 118 1
09 -2.542031999999889e-005 -6.360159999999995e-005 9.999892e-005 16 113 77 0 ?11
0 105 119 114 0 0 1 31 114 78 0 113 120 106 0 +7.457968000000115e-005 -6.3601599
99999983e-005 9.999892e-005 3.67394039744206e-016 1 -0 -1 3.67394039744206e-016
 0 0.0001 17 115 0 422 384 310 103 110 113 0 102 -17 116 0 101 122 110 117 121 1
19 0 125 -18 117 79 0 116 111 132 118 ?1 29 118 80 0 117 133 112 0.0026415796800
00001 -6.360160000000044e-005 9.999892e-005 16 119 81 0 ?121 113 123 120 0 0 1 3
1 120 82 0 119 124 114 0 +0.001308079680000001 -6.360160000000028e-005 9.999892e
-005 -0 0 1 1 -2.449293598294706e-016 0 0.0013335 17 121 0 289 294 290 111 116 1
19 0 297 +17 122 0 101 102 116 108 125 123 0 107 -16 123 83 0 ?125 119 134 124 0
 0 1 31 124 84 0 123 135 120 0 +0.002541579680000001 -6.360160000000057e-005 9.9
99892e-005 -2.449293598294706e-016 -1 -0 0 0 -1 9.999999999999982e-005 17 125 0
 422 310 384 117 122 123 0 290 +14 126 85 128 1e-008 155 97 130 38 127 +0 0 155
 97 36 51 127 86 0 126 156 98 0 +0.001308079680000001 -6.36016000000003e-005 0.0
04999998919999999 -1.239088197126291e-016 3.034890788943954e-032 -1 0.0003936999
999999993 -1 2.449293598294706e-016 1.239088197126291e-016 81 1 128 87 32 126 0
 0 157 99 129 83 3 129 0.7529411911964417 0.7529411911964417 0.7529411911964417
 15 130 88 0 131 126 0 17 131 0 130 139 151 132 136 134 0 144 -18 132 89 0 131 1
17 137 133 ?1 29 133 90 0 132 138 118 0.00170177968 -6.360160000000036e-005 -1.0
8000000009767e-009 16 134 91 0 ?136 123 142 135 0 0 1 31 135 92 0 134 143 124 0
 +0.00130807968 -6.36016000000003e-005 -1.08000000009767e-009 -0 0 1 1 -2.449293
598294706e-016 0 0.0003936999999999992 17 136 0 385 386 386 137 131 134 0 151 +1
8 137 93 0 136 132 140 138 ?1 29 138 94 0 137 141 133 0.0009143796800000005 -6.3
60160000000021e-005 -1.08000000009767e-009 17 139 0 130 145 131 140 144 142 0 15
0 +18 140 95 0 139 137 146 141 ?1 29 141 96 0 140 147 138 0.00170177968 -6.36016
000000004e-005 -0.00170000108 16 142 97 0 ?139 134 148 143 0 0 1 30 143 98 0 142
 149 135 0 +0.00170177968 -6.360160000000036e-005 0.004999998919999999 -1.239088
197126291e-016 3.034890788943954e-032 -1 17 144 0 417 389 412 132 139 142 0 386
 -17 145 0 130 151 139 146 150 148 0 154 +18 146 99 0 145 140 161 147 ?1 29 147
 100 0 146 162 141 0.0009143796800000004 -6.360160000000017e-005 -0.00170000108
 16 148 101 0 ?145 142 152 149 0 0 1 31 149 102 0 148 153 143 0 +0.00130807968 -
6.36016000000003e-005 -0.00170000108 -0 0 1 1 -2.449293598294706e-016 0 0.000393
6999999999995 17 150 0 159 172 168 140 145 148 0 175 -17 151 0 130 131 145 137 1
54 152 0 389 -16 152 103 0 ?154 148 163 153 0 0 1 30 153 104 0 152 164 149 0 +0.
0009143796800000014 -6.360160000000021e-005 0.004999998919999999 -1.239088197126
291e-016 3.034890788943954e-032 -1 17 154 0 417 412 389 146 151 152 0 168 +14 15
5 105 157 1e-008 176 126 159 38 156 +0 0 176 126 36 52 156 106 0 155 177 127 0 +
0.00130807968 -6.36016000000003e-005 -0.00170000108 0 0 1 0.0003936999999999995
 0.499999999999999 0.8660254037844393 1 -2.449293598294706e-016 0 81 1 157 107 3
2 155 0 0 178 128 158 83 3 158 0.7529411911964417 0.7529411911964417 0.752941191
1964417 15 159 108 0 160 155 0 17 160 0 159 168 172 161 165 163 0 171 -18 161 10
9 0 160 146 166 162 ?1 29 162 110 0 161 167 147 0.001087584760756888 -6.36016000
0000022e-005 -0.00200000108 16 163 111 0 ?165 152 169 164 0 0 1 31 164 112 0 163
 170 153 0 +0.00130807968 -6.36016000000003e-005 -0.00200000108 0 -0 -1 1 -2.449
293598294706e-016 0 0.0002204949192431121 17 165 0 399 400 400 166 160 163 0 172
 +18 166 113 0 165 161 182 167 ?1 29 167 114 0 166 183 162 0.001528574599243112
 -6.360160000000036e-005 -0.00200000108 17 168 0 159 150 160 146 171 169 0 409 +
16 169 115 0 ?168 163 173 170 0 0 1 30 170 116 0 169 174 164 0 +0.00091437968000
00004 -6.360160000000017e-005 -0.00170000108 -0.4999999999999991 1.8369701987210
27e-016 0.8660254037844392 17 171 0 408 403 409 161 168 169 0 400 -17 172 0 159
 160 150 166 175 173 0 403 -16 173 117 0 ?175 169 184 174 0 0 1 30 174 118 0 173
 185 170 0 +0.00170177968 -6.36016000000004e-005 -0.00170000108 0.49999999999999
91 -1.224646799147351e-016 0.8660254037844392 17 175 0 408 409 403 140 172 173 0
 412 +14 176 119 178 1e-008 205 155 180 38 177 +0 0 205 155 36 51 177 120 0 176
 206 156 0 +0.001308079680000001 -6.360160000000028e-005 0.004999998919999999 -0
 0 -1 0.0013335 -1 2.449293598294706e-016 0 81 1 178 121 32 176 0 0 207 157 179
 83 3 179 1 1 1 15 180 122 0 181 176 0 17 181 0 180 189 201 182 186 184 0 277 +1
8 182 123 0 181 166 187 183 ?1 29 183 124 0 182 188 167 0.002641579680000001 -6.
360160000000044e-005 0.004580212917683161 16 184 125 0 ?181 173 192 185 0 0 1 31
 185 126 0 184 193 174 0 +0.001308079680000001 -6.360160000000028e-005 0.0045802
12917683161 -2.384468129184551e-016 5.840262524149475e-032 -1 -1 2.4492935982947
06e-016 2.384468129184551e-016 0.0013335 17 186 0 276 281 277 187 181 184 0 284
 -18 187 127 0 186 182 190 188 ?1 29 188 128 0 187 191 183 -2.542031999999889e-0
05 -6.360159999999995e-005 0.004580212917683161 17 189 0 180 195 181 190 194 192
 0 200 +18 190 129 0 293 187 196 191 ?1 29 191 130 0 190 197 188 0.0026415796800
00001 -6.360160000000044e-005 0.003880212917683161 16 192 131 0 ?189 184 198 193
 0 0 1 30 193 132 0 192 199 185 0 +0.002641579680000001 -6.360160000000044e-005
 0.004999998919999999 -0 0 -1 17 194 0 394 323 306 182 189 192 0 320 -17 195 0 1
80 201 189 196 200 198 0 294 +18 196 133 0 195 190 211 197 ?1 29 197 134 0 196 2
12 191 -2.542031999999889e-005 -6.360159999999995e-005 0.003880212917683161 16 1
98 135 0 ?195 192 202 199 0 0 1 31 199 136 0 198 203 193 0 +0.001308079680000001
 -6.360160000000028e-005 0.003880212917683161 2.384468129184551e-016 -5.84026252
4149475e-032 1 1 -2.449293598294706e-016 -2.384468129184551e-016 0.0013335 17 20
0 0 289 290 294 190 195 198 0 306 -17 201 0 180 181 195 187 204 202 0 323 -16 20
2 137 0 ?204 198 213 203 0 0 1 30 203 138 0 202 214 199 0 +-2.542031999999889e-0
05 -6.360159999999995e-005 0.004999998919999999 -0 0 -1 17 204 0 394 306 323 196
 201 202 0 303 +14 205 139 207 1e-008 234 176 209 38 206 +0 0 234 176 36 52 206
 140 0 205 235 177 0 +-0.001231920320005212 -6.360159999999969e-005 -0.002000001
080000001 7.444854917740105e-013 -1.82346354902537e-028 1 0.0002204949192436317
 0.4999999999991919 0.8660254037849052 1 -2.449293598294706e-016 -7.444854917740
105e-013 81 1 207 141 32 205 0 0 236 178 208 83 3 208 0.7529411911964417 0.75294
11911964417 0.7529411911964417 15 209 142 0 210 205 0 17 210 0 209 218 230 211 2
15 213 0 223 -18 211 143 0 210 196 216 212 ?1 29 212 144 0 211 217 197 -0.001452
415239248749 -6.36015999999996e-005 -0.002000001080000001 16 213 145 0 ?215 202
 221 214 0 0 1 31 214 146 0 213 222 203 0 +-0.001231920320005212 -6.360159999999
969e-005 -0.002000001080000001 -1.224646799147354e-016 2.999519565323716e-032 -1
 -1 2.449293598294706e-016 1.224646799147354e-016 0.0002204949192435369 17 215 0
 356 357 357 216 210 213 0 230 +18 216 147 0 215 211 219 217 ?1 29 217 148 0 216
 220 212 -0.001011425400761675 -6.360159999999973e-005 -0.002000001080000001 17
 218 0 209 224 210 219 223 221 0 229 +18 219 149 0 218 216 225 220 ?1 29 220 150
 0 219 226 217 -0.001625620320004989 -6.36015999999996e-005 -0.00170000107999996
2 16 221 151 0 ?218 213 227 222 0 0 1 30 222 152 0 221 228 214 0 +-0.00145241523
9248844 -6.360159999999961e-005 -0.002000001079999837 -0.4999999999985472 1.8369
70198716481e-016 0.8660254037852775 17 223 0 365 360 332 211 218 221 0 357 -17 2
24 0 209 230 218 225 229 227 0 233 -18 225 153 0 224 219 0 226 ?1 29 226 154 0 2
25 0 220 -0.0008382203200049896 -6.360159999999973e-005 -0.001700001080000548 16
 227 155 0 ?229 221 231 228 0 0 1 31 228 156 0 227 232 222 0 +-0.001231920320004
989 -6.360159999999969e-005 -0.001700001080000255 7.444854917740105e-013 -1.8234
6354902537e-028 1 -1 2.449293598294706e-016 7.444854917740105e-013 0.00039369999
99999995 17 229 0 259 268 264 219 224 227 0 271 +17 230 0 209 210 224 216 233 23
1 0 360 -16 231 157 0 ?233 227 240 232 0 0 1 30 232 158 0 231 241 228 0 +-0.0010
1142540076158 -6.360159999999973e-005 -0.002000001080000165 0.4999999999998367 -
1.224646799146953e-016 0.8660254037845329 17 233 0 365 332 360 225 230 231 0 264
 +14 234 159 236 1e-008 255 205 238 38 235 +0 0 255 205 36 51 235 160 0 234 256
 206 0 +0.0003080796800000003 -6.360160000000006e-005 0.005999998919999999 -1 2.
449293598294706e-016 3.212450881438536e-015 0.0003936999999999986 3.212450881438
536e-015 -7.868235378743594e-031 1 81 1 236 161 32 234 0 0 257 207 237 83 3 237
 0.7529411911964417 0.7529411911964417 0.7529411911964417 15 238 162 0 239 234 0
 17 239 0 238 243 251 23 242 240 0 246 +16 240 163 0 ?239 231 244 241 0 0 1 31 2
41 164 0 240 245 232 0 +0.0003080796800000003 -6.360160000000006e-005 0.00599999
8919999999 -1 2.449293598294706e-016 6.123233995736767e-017 6.123233995736767e-0
17 -1.499759782661858e-032 1 0.0003936999999999986 17 242 0 347 21 31 17 239 240
 0 251 -17 243 0 238 247 239 50 246 244 0 250 +16 244 165 0 ?243 240 248 245 0 0
 1 30 245 166 0 244 249 241 0 +0.000308079679999999 -6.36016e-005 0.005606298920
000001 -1 2.449293598294706e-016 3.212450881438536e-015 17 246 0 342 27 49 23 24
3 244 0 0 -17 247 0 238 251 243 45 250 248 0 254 -16 248 167 0 ?250 244 252 249
 0 0 1 31 249 168 0 248 253 245 0 +-0.0002319203199999991 -6.360159999999992e-00
5 0.005999998920000001 -1 2.449293598294706e-016 6.123233995736767e-017 6.123233
995736767e-017 -1.499759782661858e-032 1 0.0003936999999999986 17 250 0 337 67 5
7 50 247 248 0 64 +17 251 0 238 239 247 17 254 252 0 0 -16 252 169 0 ?254 248 26
1 253 0 0 1 30 253 170 0 252 262 249 0 +0.0003080796800000015 -6.360160000000006
e-005 0.00639369892 -1 2.449293598294706e-016 3.212450881438536e-015 17 254 0 34
2 49 27 45 251 252 0 0 +14 255 171 257 1e-008 272 234 259 38 256 +0 0 272 234 36
 51 256 172 0 255 273 235 0 +-0.00123192032 -6.360159999999969e-005 0.0049999989
19999999 -7.445680976531881e-013 1.823665875076421e-028 -1 0.0003936999999999995
 -1 2.449293598294706e-016 7.445680976531881e-013 81 1 257 173 32 255 0 0 274 23
6 258 83 3 258 0.7529411911964417 0.7529411911964417 0.7529411911964417 15 259 1
74 0 260 255 0 17 260 0 259 264 268 59 263 261 0 267 +16 261 175 0 ?260 252 265
 262 0 0 1 31 262 176 0 261 266 253 0 +-0.00123192032 -6.360159999999969e-005 0.
004999998919999999 -1.224646799147354e-016 2.999519565323716e-032 -1 -1 2.449293
598294706e-016 1.224646799147354e-016 0.0003936999999999995 17 263 0 337 57 67 5
3 260 261 0 268 -17 264 0 259 229 260 225 267 265 0 329 +16 265 177 0 ?264 261 2
69 266 0 0 1 30 266 178 0 265 270 262 0 +-0.0008382203200000009 -6.3601599999999
73e-005 0.004999998919999706 -7.445680976531881e-013 1.823665875076421e-028 -1 1
7 267 0 328 63 329 59 264 265 0 0 -17 268 0 259 260 229 53 271 269 0 0 -16 269 1
79 0 ?271 265 278 270 0 0 1 30 270 180 0 269 279 266 0 +-0.00162562032 -6.360159
99999996e-005 0.004999998920000292 -7.445680976531881e-013 1.823665875076421e-02
8 -1 17 271 0 328 329 63 219 268 269 0 332 +14 272 181 274 1e-008 285 255 276 38
 273 +0 0 285 255 36 51 273 182 0 272 286 256 0 +0.001308079680000001 -6.3601600
00000028e-005 0.004999998919999999 -0 0 -1 0.0013335 -1 2.449293598294706e-016 0
 81 1 274 183 32 272 0 0 287 257 275 83 3 275 1 0 0 15 276 184 0 78 272 0 17 277
 0 276 186 78 182 280 278 0 194 +16 278 185 0 ?277 269 282 279 0 0 1 30 279 186
 0 278 283 270 0 +0.002641579680000001 -6.360160000000044e-005 0.004999998919999
999 -0 0 -1 17 280 0 315 316 320 79 277 278 0 93 -17 281 0 276 78 186 74 284 282
 0 316 -16 282 187 0 ?284 278 291 283 0 0 1 30 283 188 0 282 292 279 0 +-2.54203
1999999889e-005 -6.360159999999995e-005 0.004999998919999999 -0 0 -1 17 284 0 31
5 320 316 187 281 282 0 201 +14 285 189 287 1e-008 298 272 289 38 286 +0 0 298 2
72 36 51 286 190 0 285 299 273 0 +0.001308079680000001 -6.360160000000028e-005 0
.004999998919999999 -0 0 -1 0.0013335 -1 2.449293598294706e-016 0 81 1 287 191 3
2 285 0 0 300 274 288 83 3 288 1 0 0 15 289 192 0 200 285 0 17 290 0 289 121 200
 117 293 291 0 307 +16 291 193 0 ?290 282 295 292 0 0 1 30 292 194 0 291 296 283
 0 +0.002641579680000001 -6.360160000000044e-005 0.004999998919999999 -0 0 -1 17
 293 0 302 303 307 190 290 291 0 189 -17 294 0 289 200 121 196 297 295 0 204 -16
 295 195 0 ?297 291 304 296 0 0 1 30 296 196 0 295 305 292 0 +-2.542031999999889
e-005 -6.360159999999995e-005 0.004999998919999999 -0 0 -1 17 297 0 302 307 303
 111 294 295 0 310 +14 298 197 300 1e-008 311 285 302 38 299 +0 0 311 285 36 51
 299 198 0 298 312 286 0 +0.001308079680000001 -6.360160000000028e-005 0.0049999
98919999999 -0 0 -1 0.0013335 -1 2.449293598294706e-016 0 81 1 300 199 32 298 0
 0 313 287 301 83 3 301 1 0 0 15 302 200 0 293 298 0 17 303 0 302 297 293 196 30
6 304 0 0 -16 304 201 0 ?306 295 308 305 0 0 1 31 305 202 0 304 309 296 0 +0.001
308079680000001 -6.360160000000028e-005 0.003880212917683161 2.384468129184551e-
016 -5.840262524149475e-032 1 1 -2.449293598294706e-016 -2.384468129184551e-016
 0.0013335 17 306 0 394 194 204 190 303 304 0 0 +17 307 0 302 293 297 117 310 30
8 0 0 +16 308 203 0 ?307 304 317 309 0 0 1 31 309 204 0 308 318 305 0 +0.0013080
79680000001 -6.360160000000028e-005 9.999892e-005 -0 0 1 1 -2.449293598294706e-0
16 0 0.0013335 17 310 0 422 115 125 111 307 308 0 0 -14 311 205 313 1e-008 324 2
98 315 38 312 +0 0 324 298 36 51 312 206 0 311 325 299 0 +0.001308079680000001 -
6.360160000000028e-005 0.004999998919999999 -0 0 -1 0.0013335 -1 2.4492935982947
06e-016 0 81 1 313 207 32 311 0 0 326 300 314 83 3 314 1 0 0 15 315 208 0 280 31
1 0 17 316 0 315 284 280 74 319 317 0 0 +16 317 209 0 ?316 308 321 318 0 0 1 31
 318 210 0 317 322 309 0 +0.001308079680000001 -6.360160000000028e-005 0.0048999
9892 0 -0 -1 1 -2.449293598294706e-016 0 0.0013335 17 319 0 427 96 86 79 316 317
 0 0 -17 320 0 315 280 284 182 323 321 0 0 -16 321 211 0 ?323 317 330 322 0 0 1
 31 322 212 0 321 331 318 0 +0.001308079680000001 -6.360160000000028e-005 0.0045
80212917683161 -2.384468129184551e-016 5.840262524149475e-032 -1 -1 2.4492935982
94706e-016 2.384468129184551e-016 0.0013335 17 323 0 394 204 194 187 320 321 0 0
 +14 324 213 326 1e-008 333 311 328 38 325 +0 0 333 311 36 51 325 214 0 324 334
 312 0 +-0.00123192032 -6.360159999999969e-005 0.004999998919999999 -7.445680976
531881e-013 1.823665875076421e-028 -1 0.0003936999999999995 -1 2.449293598294706
e-016 7.445680976531881e-013 81 1 326 215 32 324 0 0 335 313 327 83 3 327 0.7529
411911964417 0.7529411911964417 0.7529411911964417 15 328 216 0 267 324 0 17 329
 0 328 267 271 225 332 330 0 0 +16 330 217 0 ?329 321 349 331 0 0 1 31 331 218 0
 330 350 322 0 +-0.001231920320004989 -6.360159999999969e-005 -0.001700001080000
255 7.444854917740105e-013 -1.82346354902537e-028 1 -1 2.449293598294706e-016 7.
444854917740105e-013 0.0003936999999999995 17 332 0 365 223 233 219 329 330 0 0
 -14 333 219 335 1e-008 338 324 337 38 334 +0 0 338 324 36 54 334 220 0 333 339
 325 0 +-0.0002319203199999985 -6.360159999999992e-005 0.004999998919999999 -2.4
49293598294706e-016 -1 0 0.001000000000000002 0.0003936999999999993 0 0 -1 81 1
 335 221 32 333 0 0 340 326 336 83 3 336 0.7529411911964417 0.7529411911964417 0
.7529411911964417 15 337 222 0 57 333 0 14 338 223 340 1e-008 343 333 342 38 339
 +0 0 343 333 36 51 339 224 0 338 344 334 0 +0.0003080796800000003 -6.3601600000
00006e-005 0.005999998919999999 -1 2.449293598294706e-016 3.212450881438536e-015
 0.0003936999999999986 3.212450881438536e-015 -7.868235378743594e-031 1 81 1 340
 225 32 338 0 0 345 335 341 83 3 341 0.7529411911964417 0.7529411911964417 0.752
9411911964417 15 342 226 0 246 338 0 14 343 227 345 1e-008 352 338 347 38 344 +0
 0 352 338 36 54 344 228 0 343 353 339 0 +0.0003080796800000008 -6.3601600000000
06e-005 0.004999998919999999 -2.449293598294706e-016 -1 0 0.001 0.00039369999999
99993 0 0 -1 81 1 345 229 32 343 0 0 354 340 346 83 3 346 0.7529411911964417 0.7
529411911964417 0.7529411911964417 15 347 230 0 21 343 0 17 348 0 347 31 21 14 3
51 349 0 0 +16 349 231 0 ?348 330 358 350 0 0 1 31 350 232 0 349 359 331 0 +0.00
1308079680000001 -6.36016000000003e-005 0.004999998919999999 -0 0 1 1 -2.4492935
98294706e-016 0 0.0003936999999999995 17 351 0 375 13 13 9 348 349 0 0 -14 352 2
33 354 1e-008 361 343 356 38 353 +0 0 361 343 36 50 353 234 0 352 362 344 0 +-0.
001231920320005212 -6.360159999999969e-005 -0.002000001080000001 -1.224646799147
354e-016 2.999519565323716e-032 -1 -1 2.449293598294706e-016 1.224646799147354e-
016 81 1 354 235 32 352 0 0 363 345 355 83 3 355 0.7529411911964417 0.7529411911
964417 0.7529411911964417 15 356 236 0 357 352 0 17 357 0 356 215 215 211 360 35
8 0 0 +16 358 237 0 ?357 349 372 359 0 0 1 31 359 238 0 358 373 350 0 +-0.001231
920320005212 -6.360159999999969e-005 -0.002000001080000001 -1.224646799147354e-0
16 2.999519565323716e-032 -1 -1 2.449293598294706e-016 1.224646799147354e-016 0.
0002204949192435369 17 360 0 365 233 223 216 357 358 0 0 -14 361 239 363 1e-008
 366 352 365 38 362 +0 0 366 352 36 52 362 240 0 361 367 353 0 +-0.0012319203200
05212 -6.360159999999969e-005 -0.002000001080000001 7.444854917740105e-013 -1.82
346354902537e-028 1 0.0002204949192436317 0.4999999999991919 0.8660254037849052
 1 -2.449293598294706e-016 -7.444854917740105e-013 81 1 363 241 32 361 0 0 368 3
54 364 83 3 364 0.7529411911964417 0.7529411911964417 0.7529411911964417 15 365
 242 0 223 361 0 14 366 243 368 1e-008 376 361 370 38 367 +0 0 376 361 36 50 367
 244 0 366 377 362 0 +0.001308079680000001 -6.360160000000028e-005 0.00499999891
9999999 0 0 1 1 -2.449293598294706e-016 0 81 1 368 245 32 366 0 0 378 363 369 83
 3 369 1 0 0 15 370 246 0 92 366 375 17 371 0 370 92 92 88 374 372 0 0 +16 372 2
47 0 ?371 358 382 373 0 0 1 31 373 248 0 372 383 359 0 +0.001308079680000001 -6.
360160000000028e-005 0.004999998919999999 -0 0 1 1 -2.449293598294706e-016 0 0.0
012335 17 374 0 427 86 96 82 371 372 0 0 -15 375 249 0 13 366 0 14 376 250 378 1
e-008 390 366 380 38 377 -0 0 390 366 36 50 377 251 0 376 391 367 0 +0.001308079
680000001 -6.360160000000028e-005 -1.08000000009767e-009 0 0 1 1 -2.449293598294
706e-016 0 81 1 378 252 32 376 0 0 392 368 379 83 3 379 1 0 0 15 380 253 0 381 3
76 385 17 381 0 380 107 107 103 384 382 0 0 +16 382 254 0 ?381 372 387 383 0 0 1
 31 383 255 0 382 388 373 0 +0.001308079680000001 -6.360160000000028e-005 -1.080
00000009767e-009 0 -0 -1 1 -2.449293598294706e-016 0 0.0012335 17 384 0 422 125
 115 108 381 382 0 0 -15 385 256 0 386 376 0 17 386 0 385 136 136 132 389 387 0
 0 +16 387 257 0 ?386 382 401 388 0 0 1 31 388 258 0 387 402 383 0 +0.0013080796
8 -6.36016000000003e-005 -1.08000000009767e-009 -0 0 1 1 -2.449293598294706e-016
 0 0.0003936999999999992 17 389 0 417 154 144 137 386 387 0 0 -14 390 259 392 1e
-008 395 376 394 38 391 +0 0 395 376 36 51 391 260 0 390 396 377 0 +0.0013080796
80000001 -6.360160000000028e-005 0.004999998919999999 -0 0 -1 0.0013335 -1 2.449
293598294706e-016 0 81 1 392 261 32 390 0 0 397 378 393 83 3 393 1 1 1 15 394 26
2 0 194 390 0 14 395 263 397 1e-008 404 390 399 38 396 -0 0 404 390 36 50 396 26
4 0 395 405 391 0 +0.00130807968 -6.36016000000003e-005 -0.00200000108 0 0 1 1 -
2.449293598294706e-016 0 81 1 397 265 32 395 0 0 406 392 398 83 3 398 0.75294119
11964417 0.7529411911964417 0.7529411911964417 15 399 266 0 400 395 0 17 400 0 3
99 165 165 161 403 401 0 0 +16 401 267 0 ?400 387 410 402 0 0 1 31 402 268 0 401
 411 388 0 +0.00130807968 -6.36016000000003e-005 -0.00200000108 0 -0 -1 1 -2.449
293598294706e-016 0 0.0002204949192431121 17 403 0 408 175 171 166 400 401 0 0 -
14 404 269 406 1e-008 413 395 408 38 405 +0 0 413 395 36 52 405 270 0 404 414 39
6 0 +0.00130807968 -6.36016000000003e-005 -0.00170000108 0 0 1 0.000393699999999
9995 0.499999999999999 0.8660254037844393 1 -2.449293598294706e-016 0 81 1 406 2
71 32 404 0 0 415 397 407 83 3 407 0.7529411911964417 0.7529411911964417 0.75294
11911964417 15 408 272 0 171 404 0 17 409 0 408 171 175 146 412 410 0 0 -16 410
 273 0 ?412 401 0 411 0 0 1 31 411 274 0 410 0 402 0 +0.00130807968 -6.360160000
00003e-005 -0.00170000108 -0 0 1 1 -2.449293598294706e-016 0 0.00039369999999999
95 17 412 0 417 144 154 140 409 410 0 0 +14 413 275 415 1e-008 418 404 417 38 41
4 +0 0 418 404 36 51 414 276 0 413 419 405 0 +0.001308079680000001 -6.3601600000
0003e-005 0.004999998919999999 -1.239088197126291e-016 3.034890788943954e-032 -1
 0.0003936999999999993 -1 2.449293598294706e-016 1.239088197126291e-016 81 1 415
 277 32 413 0 0 420 406 416 83 3 416 0.7529411911964417 0.7529411911964417 0.752
9411911964417 15 417 278 0 144 413 0 14 418 279 420 1e-008 423 413 422 38 419 +0
 0 423 413 36 54 419 280 0 418 424 414 0 +0.001308079680000001 -6.36016000000002
8e-005 9.999892e-005 0 0 1 0.0012335 0.0001 1 -2.449293598294706e-016 0 81 1 420
 281 32 418 0 0 425 415 421 83 3 421 1 0 0 15 422 282 0 115 418 0 14 423 283 425
 1e-008 0 418 427 38 424 +0 0 0 418 36 54 424 284 0 423 0 419 0 +0.0013080796800
00001 -6.360160000000028e-005 0.00489999892 0 0 1 0.0012335 0.0001 1 -2.44929359
8294706e-016 0 81 1 425 285 32 423 0 0 0 420 426 83 3 426 1 0 0 15 427 286 0 86
 423 0 1 0 
