**ABCDEFGHIJKLMNOPQRSTUVWXYZabcdefghijklmnopqrstuvwxyz**************************
**PARASOLID !"#$%&'()*+,-./:;<=>?@[\]^_`{|}~0123456789**************************
**PART1;
MC=AMD64;
MC_MODEL=Intel64 Family 6 Model 69 Stepping 1, GenuineIntel;
MC_ID=unknown;
OS=Windows_NT;
OS_RELEASE=unknown;
FRU=CAD Exchanger 3.6.1 (cadexchanger.com);
APPL=unknown;
SITE=unknown;
USER=unknown;
FORMAT=text;
GUISE=transmit;
KEY=Diode_2.54mm_TH_V_Diodes;
FILE=Diode_2.54mm_TH_V_Diodes.x_t;
DATE=Tue Dec 15 01:37:22 2020;
**PART2;
SCH=SCH_1200000_12006;
USFLD_SIZE=0;
**PART3;
**END_OF_HEADER*****************************************************************
T51 : TRANSMIT FILE created by modeller version 120000017 SCH_1200000_120060 74
 9 1 9 0 2 63 122 181 240 299 358 417 568 12 2 40 0 3 0 0 0 0 1000 1e-008 0 0 0
 1 0 1 1 39 7 13 11 36 12 10 70 3 0 2 0 0 4 1 20 0 4 4 1 T74 20 4 1 0 5 0 0 0 0
 0 0 0 0 0 0 0 0 0 0 0 0 0 0 0 81 1 5 7 33 6 0 0 42 0 35 14 6 5 5 1e-008 40 0 8
 39 7 +0 0 40 0 37 51 7 6 0 6 41 0 0 +-0.00126991872 8.128e-008 0.001 0 0 1 0.00
177999997139 1 -2.449293598294706e-016 0 15 8 8 0 9 6 0 17 9 0 8 17 29 10 14 12
 0 22 +18 10 9 0 9 0 15 11 ?2 29 11 10 0 10 16 0 -0.00304991869139 8.12800000006
5396e-008 0.001 16 12 11 0 ?9 0 20 13 0 0 2 31 13 12 0 12 21 0 0 +-0.00126991872
 8.128e-008 0.001 -0 0 1 1 -2.449293598294706e-016 0 0.00177999997139 17 14 0 57
 48 48 15 9 12 0 29 -18 15 13 0 14 10 18 16 ?2 29 16 14 0 15 19 11 0.00051008125
13900002 8.127999999956403e-008 0.001 17 17 0 8 23 9 18 22 20 0 28 +18 18 15 0 1
7 15 24 19 ?2 29 19 16 0 18 25 16 -0.00304991869139 8.128000000065396e-008 0.006
619999885559 16 20 17 0 ?17 12 26 21 0 0 2 30 21 18 0 20 27 13 0 +-0.00304991869
139 8.128000000065396e-008 0.001 0 0 1 17 22 0 44 45 49 10 17 20 0 48 -17 23 0 8
 29 17 24 28 26 0 32 +18 24 19 0 23 18 0 25 ?2 29 25 20 0 24 0 19 0.000510081251
3900002 8.127999999956403e-008 0.006619999885559 16 26 21 0 ?23 20 30 27 0 0 2 3
1 27 22 0 26 31 21 0 +-0.00126991872 8.128e-008 0.006619999885559001 0 -0 -1 1 -
2.449293598294706e-016 0 0.00177999997139 17 28 0 62 52 52 18 23 26 0 49 -17 29
 0 8 9 23 15 32 30 0 45 -16 30 23 0 ?32 26 46 31 0 0 2 30 31 24 0 30 47 27 0 +0.
0005100812513900002 8.127999999956403e-008 0.001 0 0 1 17 32 0 44 49 45 24 29 30
 0 52 +80 1 33 0 34 8001 0 0 0 0 3 5 0 0 FFFFTFTFFFFFFF2 79 15 34 SDL/TYSA_COLOU
R83 3 35 0 0 0 19 36 1 0 2 38 0 37 V13 37 2 0 2 0 0 0 0 36 6 19 38 3 0 2 0 36 39
 S13 39 4 0 2 0 6 0 0 38 0 14 40 25 42 1e-008 53 6 44 39 41 +0 0 53 6 37 51 41 2
6 0 40 54 7 0 +-0.00126991872 8.128e-008 0.001 0 0 1 0.00177999997139 1 -2.44929
3598294706e-016 0 81 1 42 27 33 40 0 0 55 5 43 83 3 43 0 0 0 15 44 28 0 22 40 0
 17 45 0 44 32 22 15 48 46 0 0 +16 46 29 0 ?45 30 50 47 0 0 2 31 47 30 0 46 51 3
1 0 +-0.00126991872 8.128e-008 0.001 -0 0 1 1 -2.449293598294706e-016 0 0.001779
99997139 17 48 0 57 14 14 10 45 46 0 0 -17 49 0 44 22 32 18 52 50 0 0 +16 50 31
 0 ?49 46 0 51 0 0 2 31 51 32 0 50 0 47 0 +-0.00126991872 8.128e-008 0.006619999
885559001 0 -0 -1 1 -2.449293598294706e-016 0 0.00177999997139 17 52 0 62 28 28
 24 49 50 0 0 -14 53 33 55 1e-008 58 40 57 39 54 -0 0 58 40 37 50 54 34 0 53 59
 41 0 +-0.00126991872 8.128e-008 0.001 0 0 1 1 -2.449293598294706e-016 0 81 1 55
 35 33 53 0 0 60 42 56 83 3 56 0 0 0 15 57 36 0 14 53 0 14 58 37 60 1e-008 0 53
 62 39 59 +0 0 0 53 37 50 59 38 0 58 0 54 0 +-0.00126991872 8.128e-008 0.0066199
99885559001 0 0 1 1 -2.449293598294706e-016 0 81 1 60 39 33 58 0 0 0 55 61 83 3
 61 0 0 0 15 62 40 0 52 58 0 12 63 40 0 64 0 0 0 0 1000 1e-008 0 0 0 1 0 1 1 98
 68 74 72 95 73 71 70 64 0 63 0 0 4 1 20 0 65 65 1 T74 20 65 1 0 66 0 0 0 0 0 0
 0 0 0 0 0 0 0 0 0 0 0 0 0 81 1 66 7 33 67 0 0 101 0 94 14 67 5 66 1e-008 99 0 6
9 98 68 +0 0 99 0 96 51 68 6 0 67 100 0 0 +-0.00126991872 8.128e-008 0.00762 0 0
 1 0.00177999997139 1 -2.449293598294706e-016 0 15 69 8 0 70 67 0 17 70 0 69 78
 90 71 75 73 0 83 +18 71 9 0 70 0 76 72 ?63 29 72 10 0 71 77 0 -0.00304991869139
 8.128000000065396e-008 0.00762 16 73 11 0 ?70 0 81 74 0 0 63 31 74 12 0 73 82 0
 0 +-0.00126991872 8.128e-008 0.00762 -0 0 1 1 -2.449293598294706e-016 0 0.00177
999997139 17 75 0 116 107 107 76 70 73 0 90 -18 76 13 0 75 71 79 77 ?63 29 77 14
 0 76 80 72 0.0005100812513900002 8.127999999956403e-008 0.00762 17 78 0 69 84 7
0 79 83 81 0 89 +18 79 15 0 78 76 85 80 ?63 29 80 16 0 79 86 77 -0.0030499186913
9 8.128000000065396e-008 0.008619999999999999 16 81 17 0 ?78 73 87 82 0 0 63 30
 82 18 0 81 88 74 0 +-0.00304991869139 8.128000000065396e-008 0.00762 0 0 1 17 8
3 0 103 104 108 71 78 81 0 107 -17 84 0 69 90 78 85 89 87 0 93 +18 85 19 0 84 79
 0 86 ?63 29 86 20 0 85 0 80 0.0005100812513900002 8.127999999956403e-008 0.0086
19999999999999 16 87 21 0 ?84 81 91 88 0 0 63 31 88 22 0 87 92 82 0 +-0.00126991
872 8.128e-008 0.008619999999999999 0 -0 -1 1 -2.449293598294706e-016 0 0.001779
99997139 17 89 0 121 111 111 79 84 87 0 108 -17 90 0 69 70 84 76 93 91 0 104 -16
 91 23 0 ?93 87 105 92 0 0 63 30 92 24 0 91 106 88 0 +0.0005100812513900002 8.12
7999999956403e-008 0.00762 0 0 1 17 93 0 103 108 104 85 90 91 0 111 +83 3 94 0 0
 0 19 95 1 0 63 97 0 96 V13 96 2 0 63 0 0 0 0 95 67 19 97 3 0 63 0 95 98 S13 98
 4 0 63 0 67 0 0 97 0 14 99 25 101 1e-008 112 67 103 98 100 +0 0 112 67 96 51 10
0 26 0 99 113 68 0 +-0.00126991872 8.128e-008 0.00762 0 0 1 0.00177999997139 1 -
2.449293598294706e-016 0 81 1 101 27 33 99 0 0 114 66 102 83 3 102 0 0 0 15 103
 28 0 83 99 0 17 104 0 103 93 83 76 107 105 0 0 +16 105 29 0 ?104 91 109 106 0 0
 63 31 106 30 0 105 110 92 0 +-0.00126991872 8.128e-008 0.00762 -0 0 1 1 -2.4492
93598294706e-016 0 0.00177999997139 17 107 0 116 75 75 71 104 105 0 0 -17 108 0
 103 83 93 79 111 109 0 0 +16 109 31 0 ?108 105 0 110 0 0 63 31 110 32 0 109 0 1
06 0 +-0.00126991872 8.128e-008 0.008619999999999999 0 -0 -1 1 -2.44929359829470
6e-016 0 0.00177999997139 17 111 0 121 89 89 85 108 109 0 0 -14 112 33 114 1e-00
8 117 99 116 98 113 -0 0 117 99 96 50 113 34 0 112 118 100 0 +-0.00126991872 8.1
28e-008 0.00762 0 0 1 1 -2.449293598294706e-016 0 81 1 114 35 33 112 0 0 119 101
 115 83 3 115 0 0 0 15 116 36 0 75 112 0 14 117 37 119 1e-008 0 112 121 98 118 +
0 0 0 112 96 50 118 38 0 117 0 113 0 +-0.00126991872 8.128e-008 0.00861999999999
9999 0 0 1 1 -2.449293598294706e-016 0 81 1 119 39 33 117 0 0 0 114 120 83 3 120
 0 0 0 15 121 40 0 111 117 0 12 122 40 0 123 0 0 0 0 1000 1e-008 0 0 0 1 0 1 1 1
57 127 133 131 154 132 130 70 123 0 122 0 0 4 1 20 0 124 124 1 T74 20 124 1 0 12
5 0 0 0 0 0 0 0 0 0 0 0 0 0 0 0 0 0 0 0 81 1 125 7 33 126 0 0 160 0 153 14 126 5
 125 1e-008 158 0 128 157 127 +0 0 158 0 155 51 127 6 0 126 159 0 0 +-0.00126991
872 8.128e-008 0.00662 0 0 1 0.00177999997139 1 -2.449293598294706e-016 0 15 128
 8 0 129 126 0 17 129 0 128 137 149 130 134 132 0 142 +18 130 9 0 129 0 135 131
 ?122 29 131 10 0 130 136 0 -0.00304991869139 8.128000000065396e-008 0.00662 16
 132 11 0 ?129 0 140 133 0 0 122 31 133 12 0 132 141 0 0 +-0.00126991872 8.128e-
008 0.00662 -0 0 1 1 -2.449293598294706e-016 0 0.00177999997139 17 134 0 175 166
 166 135 129 132 0 149 -18 135 13 0 134 130 138 136 ?122 29 136 14 0 135 139 131
 0.0005100812513900002 8.127999999956403e-008 0.00662 17 137 0 128 143 129 138 1
42 140 0 148 +18 138 15 0 137 135 144 139 ?122 29 139 16 0 138 145 136 -0.003049
91869139 8.128000000065396e-008 0.00762 16 140 17 0 ?137 132 146 141 0 0 122 30
 141 18 0 140 147 133 0 +-0.00304991869139 8.128000000065396e-008 0.00662 0 0 1
 17 142 0 162 163 167 130 137 140 0 166 -17 143 0 128 149 137 144 148 146 0 152
 +18 144 19 0 143 138 0 145 ?122 29 145 20 0 144 0 139 0.0005100812513900002 8.1
27999999956403e-008 0.00762 16 146 21 0 ?143 140 150 147 0 0 122 31 147 22 0 146
 151 141 0 +-0.00126991872 8.128e-008 0.00762 0 -0 -1 1 -2.449293598294706e-016
 0 0.00177999997139 17 148 0 180 170 170 138 143 146 0 167 -17 149 0 128 129 143
 135 152 150 0 163 -16 150 23 0 ?152 146 164 151 0 0 122 30 151 24 0 150 165 147
 0 +0.0005100812513900002 8.127999999956403e-008 0.00662 0 0 1 17 152 0 162 167
 163 144 149 150 0 170 +83 3 153 0.9411764740943909 0.9411764740943909 0.9411764
740943909 19 154 1 0 122 156 0 155 V13 155 2 0 122 0 0 0 0 154 126 19 156 3 0 12
2 0 154 157 S13 157 4 0 122 0 126 0 0 156 0 14 158 25 160 1e-008 171 126 162 157
 159 +0 0 171 126 155 51 159 26 0 158 172 127 0 +-0.00126991872 8.128e-008 0.006
62 0 0 1 0.00177999997139 1 -2.449293598294706e-016 0 81 1 160 27 33 158 0 0 173
 125 161 83 3 161 0.9411764740943909 0.9411764740943909 0.9411764740943909 15 16
2 28 0 142 158 0 17 163 0 162 152 142 135 166 164 0 0 +16 164 29 0 ?163 150 168
 165 0 0 122 31 165 30 0 164 169 151 0 +-0.00126991872 8.128e-008 0.00662 -0 0 1
 1 -2.449293598294706e-016 0 0.00177999997139 17 166 0 175 134 134 130 163 164 0
 0 -17 167 0 162 142 152 138 170 168 0 0 +16 168 31 0 ?167 164 0 169 0 0 122 31
 169 32 0 168 0 165 0 +-0.00126991872 8.128e-008 0.00762 0 -0 -1 1 -2.4492935982
94706e-016 0 0.00177999997139 17 170 0 180 148 148 144 167 168 0 0 -14 171 33 17
3 1e-008 176 158 175 157 172 -0 0 176 158 155 50 172 34 0 171 177 159 0 +-0.0012
6991872 8.128e-008 0.00662 0 0 1 1 -2.449293598294706e-016 0 81 1 173 35 33 171
 0 0 178 160 174 83 3 174 0.9411764740943909 0.9411764740943909 0.94117647409439
09 15 175 36 0 134 171 0 14 176 37 178 1e-008 0 171 180 157 177 +0 0 0 171 155 5
0 177 38 0 176 0 172 0 +-0.00126991872 8.128e-008 0.00762 0 0 1 1 -2.44929359829
4706e-016 0 81 1 178 39 33 176 0 0 0 173 179 83 3 179 0.9411764740943909 0.94117
64740943909 0.9411764740943909 15 180 40 0 170 176 0 12 181 40 0 182 0 0 0 0 100
0 1e-008 0 0 0 1 0 1 1 216 186 192 190 213 191 189 70 182 0 181 0 0 4 1 20 0 183
 183 1 T74 20 183 1 0 184 0 0 0 0 0 0 0 0 0 0 0 0 0 0 0 0 0 0 0 81 1 184 7 33 18
5 0 0 219 0 212 14 185 5 184 1e-008 217 0 187 216 186 +0 0 217 0 214 51 186 6 0
 185 218 0 0 +0.00127008128 8.127999999937788e-008 -0.004 0 0 1 0.00043000000715
29999 1 -2.449293598294706e-016 0 15 187 8 0 188 185 0 17 188 0 187 196 208 189
 193 191 0 201 +18 189 9 0 188 0 194 190 ?181 29 190 10 0 189 195 0 0.0008400812
728470004 8.127999999953585e-008 -0.004 16 191 11 0 ?188 0 199 192 0 0 181 31 19
2 12 0 191 200 0 0 +0.00127008128 8.127999999937788e-008 -0.004 -0 0 1 1 -2.4492
93598294706e-016 0 0.0004300000071529999 17 193 0 234 225 225 194 188 191 0 208
 -18 194 13 0 193 189 197 195 ?181 29 195 14 0 194 198 190 0.001700081287153 8.1
27999999927256e-008 -0.004 17 196 0 187 202 188 197 201 199 0 207 +18 197 15 0 1
96 194 203 198 ?181 29 198 16 0 197 204 195 0.0008400812728470004 8.127999999953
585e-008 0.009619999885559 16 199 17 0 ?196 191 205 200 0 0 181 30 200 18 0 199
 206 192 0 +0.0008400812728470004 8.127999999953585e-008 -0.004 0 0 1 17 201 0 2
21 222 226 189 196 199 0 225 -17 202 0 187 208 196 203 207 205 0 229 +18 203 19
 0 211 197 0 204 ?181 29 204 20 0 203 0 198 0.001700081287153 8.127999999927256e
-008 0.009619999885559 16 205 21 0 ?202 199 209 206 0 0 181 31 206 22 0 205 210
 200 0 +0.00127008128 8.127999999937788e-008 0.009619999885559 0 -0 -1 1 -2.4492
93598294706e-016 0 0.0004300000071529999 17 207 0 239 229 229 197 202 205 0 226
 -17 208 0 187 188 202 194 211 209 0 222 -16 209 23 0 ?211 205 223 210 0 0 181 3
0 210 24 0 209 224 206 0 +0.001700081287153 8.127999999927256e-008 -0.004 0 0 1
 17 211 0 221 226 222 203 208 209 0 202 +83 3 212 0.800000011920929 0.8000000119
20929 0.800000011920929 19 213 1 0 181 215 0 214 V13 214 2 0 181 0 0 0 0 213 185
 19 215 3 0 181 0 213 216 S13 216 4 0 181 0 185 0 0 215 0 14 217 25 219 1e-008 2
30 185 221 216 218 +0 0 230 185 214 51 218 26 0 217 231 186 0 +0.00127008128 8.1
27999999937788e-008 -0.004 0 0 1 0.0004300000071529999 1 -2.449293598294706e-016
 0 81 1 219 27 33 217 0 0 232 184 220 83 3 220 0.800000011920929 0.8000000119209
29 0.800000011920929 15 221 28 0 201 217 0 17 222 0 221 211 201 194 225 223 0 0
 +16 223 29 0 ?222 209 227 224 0 0 181 31 224 30 0 223 228 210 0 +0.00127008128
 8.127999999937788e-008 -0.004 -0 0 1 1 -2.449293598294706e-016 0 0.000430000007
1529999 17 225 0 234 193 193 189 222 223 0 0 -17 226 0 221 201 211 197 229 227 0
 0 +16 227 31 0 ?226 223 0 228 0 0 181 31 228 32 0 227 0 224 0 +0.00127008128 8.
127999999937788e-008 0.009619999885559 0 -0 -1 1 -2.449293598294706e-016 0 0.000
4300000071529999 17 229 0 239 207 207 203 226 227 0 0 -14 230 33 232 1e-008 235
 217 234 216 231 -0 0 235 217 214 50 231 34 0 230 236 218 0 +0.00127008128 8.127
999999937788e-008 -0.004 0 0 1 1 -2.449293598294706e-016 0 81 1 232 35 33 230 0
 0 237 219 233 83 3 233 0.800000011920929 0.800000011920929 0.800000011920929 15
 234 36 0 193 230 0 14 235 37 237 1e-008 0 230 239 216 236 +0 0 0 230 214 50 236
 38 0 235 0 231 0 +0.00127008128 8.127999999937788e-008 0.009619999885559 0 0 1
 1 -2.449293598294706e-016 0 81 1 237 39 33 235 0 0 0 232 238 83 3 238 0.8000000
11920929 0.800000011920929 0.800000011920929 15 239 40 0 229 235 0 12 240 40 0 2
41 0 0 0 0 1000 1e-008 0 0 0 1 0 1 1 275 245 251 249 272 250 248 70 241 0 240 0
 0 4 1 20 0 242 242 1 T74 20 242 1 0 243 0 0 0 0 0 0 0 0 0 0 0 0 0 0 0 0 0 0 0 8
1 1 243 7 33 244 0 0 278 0 271 14 244 5 243 1e-008 276 0 246 275 245 +0 0 276 0
 273 51 245 6 0 244 277 0 0 +-0.00126991872 8.128e-008 -0.004 0 0 1 0.0004300000
07153 1 -2.449293598294706e-016 0 15 246 8 0 247 244 0 17 247 0 246 255 267 248
 252 250 0 260 +18 248 9 0 247 0 253 249 ?240 29 249 10 0 248 254 0 -0.001699918
727153 8.128000000015798e-008 -0.004 16 250 11 0 ?247 0 258 251 0 0 240 31 251 1
2 0 250 259 0 0 +-0.00126991872 8.128e-008 -0.004 -0 0 1 1 -2.449293598294706e-0
16 0 0.000430000007153 17 252 0 293 284 284 253 247 250 0 267 -18 253 13 0 252 2
48 256 254 ?240 29 254 14 0 253 257 249 -0.0008399187128469999 8.127999999989467
e-008 -0.004 17 255 0 246 261 247 256 260 258 0 266 +18 256 15 0 255 253 262 257
 ?240 29 257 16 0 256 263 254 -0.001699918727153 8.128000000015798e-008 0.001 16
 258 17 0 ?255 250 264 259 0 0 240 30 259 18 0 258 265 251 0 +-0.001699918727153
 8.128000000015798e-008 -0.004 0 0 1 17 260 0 280 281 285 248 255 258 0 284 -17
 261 0 246 267 255 262 266 264 0 270 +18 262 19 0 261 256 0 263 ?240 29 263 20 0
 262 0 257 -0.0008399187128469999 8.127999999989467e-008 0.001 16 264 21 0 ?261
 258 268 265 0 0 240 31 265 22 0 264 269 259 0 +-0.00126991872 8.128e-008 0.001
 0 -0 -1 1 -2.449293598294706e-016 0 0.000430000007153 17 266 0 298 288 288 256
 261 264 0 285 -17 267 0 246 247 261 253 270 268 0 281 -16 268 23 0 ?270 264 282
 269 0 0 240 30 269 24 0 268 283 265 0 +-0.0008399187128469999 8.127999999989467
e-008 -0.004 0 0 1 17 270 0 280 285 281 262 267 268 0 288 +83 3 271 0.8000000119
20929 0.800000011920929 0.800000011920929 19 272 1 0 240 274 0 273 V13 273 2 0 2
40 0 0 0 0 272 244 19 274 3 0 240 0 272 275 S13 275 4 0 240 0 244 0 0 274 0 14 2
76 25 278 1e-008 289 244 280 275 277 +0 0 289 244 273 51 277 26 0 276 290 245 0
 +-0.00126991872 8.128e-008 -0.004 0 0 1 0.000430000007153 1 -2.449293598294706e
-016 0 81 1 278 27 33 276 0 0 291 243 279 83 3 279 0.800000011920929 0.800000011
920929 0.800000011920929 15 280 28 0 260 276 0 17 281 0 280 270 260 253 284 282
 0 0 +16 282 29 0 ?281 268 286 283 0 0 240 31 283 30 0 282 287 269 0 +-0.0012699
1872 8.128e-008 -0.004 -0 0 1 1 -2.449293598294706e-016 0 0.000430000007153 17 2
84 0 293 252 252 248 281 282 0 0 -17 285 0 280 260 270 256 288 286 0 0 +16 286 3
1 0 ?285 282 0 287 0 0 240 31 287 32 0 286 0 283 0 +-0.00126991872 8.128e-008 0.
001 0 -0 -1 1 -2.449293598294706e-016 0 0.000430000007153 17 288 0 298 266 266 2
62 285 286 0 0 -14 289 33 291 1e-008 294 276 293 275 290 -0 0 294 276 273 50 290
 34 0 289 295 277 0 +-0.00126991872 8.128e-008 -0.004 0 0 1 1 -2.449293598294706
e-016 0 81 1 291 35 33 289 0 0 296 278 292 83 3 292 0.800000011920929 0.80000001
1920929 0.800000011920929 15 293 36 0 252 289 0 14 294 37 296 1e-008 0 289 298 2
75 295 +0 0 0 289 273 50 295 38 0 294 0 290 0 +-0.00126991872 8.128e-008 0.001 0
 0 1 1 -2.449293598294706e-016 0 81 1 296 39 33 294 0 0 0 291 297 83 3 297 0.800
000011920929 0.800000011920929 0.800000011920929 15 298 40 0 288 294 0 12 299 40
 0 300 0 0 0 0 1000 1e-008 0 0 0 1 0 1 1 334 304 310 308 331 309 307 70 300 0 29
9 0 0 4 1 20 0 301 301 1 T74 20 301 1 0 302 0 0 0 0 0 0 0 0 0 0 0 0 0 0 0 0 0 0
 0 81 1 302 7 33 303 0 0 337 0 330 14 303 5 302 1e-008 335 0 305 334 304 +0 0 33
5 0 332 51 304 6 0 303 336 0 0 +-0.00026991872 8.127999999975506e-008 0.01062 1
 -2.449293598294706e-016 2.22044604925e-016 0.0004300000071530002 2.22044604925e
-016 -5.438524293786798e-032 -1 15 305 8 0 306 303 0 17 306 0 305 314 326 307 31
1 309 0 319 +18 307 9 0 306 0 312 308 ?299 29 308 10 0 307 313 0 -0.00026991872
 8.127999999980772e-008 0.011050000007153 16 309 11 0 ?306 0 317 310 0 0 299 31
 310 12 0 309 318 0 0 +-0.00026991872 8.127999999975506e-008 0.01062 1 -2.449293
598294706e-016 2.22044604925e-016 2.22044604925e-016 -5.438524293786798e-032 -1
 0.0004300000071530002 17 311 0 352 343 343 312 306 309 0 326 -18 312 13 0 311 3
07 315 313 ?299 29 313 14 0 312 316 308 -0.00026991872 8.127999999975506e-008 0.
010189999992847 17 314 0 305 320 306 315 319 317 0 325 +18 315 15 0 314 312 321
 316 ?299 29 316 16 0 315 322 313 0.0002700813014579999 8.127999999967547e-008 0
.011050000007153 16 317 17 0 ?314 309 323 318 0 0 299 30 318 18 0 317 324 310 0
 +-0.00026991872 8.127999999980772e-008 0.011050000007153 1 -2.449293598294706e-
016 2.22044604925e-016 17 319 0 339 340 344 307 314 317 0 343 -17 320 0 305 326
 314 321 325 323 0 329 +18 321 19 0 320 315 0 322 ?299 29 322 20 0 321 0 316 0.0
002700813014579999 8.12799999996228e-008 0.010189999992847 16 323 21 0 ?320 317
 327 324 0 0 299 31 324 22 0 323 328 318 0 +0.0002700813014579999 8.127999999962
28e-008 0.01062 -1 2.449293598294706e-016 -2.22044604925e-016 2.22044604925e-016
 -5.438524293786798e-032 -1 0.0004300000071530002 17 325 0 357 347 347 315 320 3
23 0 344 -17 326 0 305 306 320 312 329 327 0 340 -16 327 23 0 ?329 323 341 328 0
 0 299 30 328 24 0 327 342 324 0 +-0.00026991872 8.127999999975506e-008 0.010189
999992847 1 -2.449293598294706e-016 2.22044604925e-016 17 329 0 339 344 340 321
 326 327 0 347 +83 3 330 0.800000011920929 0.800000011920929 0.800000011920929 1
9 331 1 0 299 333 0 332 V13 332 2 0 299 0 0 0 0 331 303 19 333 3 0 299 0 331 334
 S13 334 4 0 299 0 303 0 0 333 0 14 335 25 337 1e-008 348 303 339 334 336 +0 0 3
48 303 332 51 336 26 0 335 349 304 0 +-0.00026991872 8.127999999975506e-008 0.01
062 1 -2.449293598294706e-016 2.22044604925e-016 0.0004300000071530002 2.2204460
4925e-016 -5.438524293786798e-032 -1 81 1 337 27 33 335 0 0 350 302 338 83 3 338
 0.800000011920929 0.800000011920929 0.800000011920929 15 339 28 0 319 335 0 17
 340 0 339 329 319 312 343 341 0 0 +16 341 29 0 ?340 327 345 342 0 0 299 31 342
 30 0 341 346 328 0 +-0.00026991872 8.127999999975506e-008 0.01062 1 -2.44929359
8294706e-016 2.22044604925e-016 2.22044604925e-016 -5.438524293786798e-032 -1 0.
0004300000071530002 17 343 0 352 311 311 307 340 341 0 0 -17 344 0 339 319 329 3
15 347 345 0 0 +16 345 31 0 ?344 341 0 346 0 0 299 31 346 32 0 345 0 342 0 +0.00
02700813014579999 8.12799999996228e-008 0.01062 -1 2.449293598294706e-016 -2.220
44604925e-016 2.22044604925e-016 -5.438524293786798e-032 -1 0.000430000007153000
2 17 347 0 357 325 325 321 344 345 0 0 -14 348 33 350 1e-008 353 335 352 334 349
 -0 0 353 335 332 50 349 34 0 348 354 336 0 +-0.00026991872 8.127999999975506e-0
08 0.01062 1 -2.449293598294706e-016 2.22044604925e-016 2.22044604925e-016 -5.43
8524293786798e-032 -1 81 1 350 35 33 348 0 0 355 337 351 83 3 351 0.800000011920
929 0.800000011920929 0.800000011920929 15 352 36 0 311 348 0 14 353 37 355 1e-0
08 0 348 357 334 354 +0 0 0 348 332 50 354 38 0 353 0 349 0 +0.00027008130145799
99 8.12799999996228e-008 0.01062 1 -2.449293598294706e-016 2.22044604925e-016 2.
22044604925e-016 -5.438524293786798e-032 -1 81 1 355 39 33 353 0 0 0 350 356 83
 3 356 0.800000011920929 0.800000011920929 0.800000011920929 15 357 40 0 347 353
 0 12 358 40 0 359 0 0 0 0 1000 1e-008 0 0 0 1 0 1 1 393 363 369 367 390 368 366
 70 359 0 358 0 0 4 1 20 0 360 360 1 T74 20 360 1 0 361 0 0 0 0 0 0 0 0 0 0 0 0
 0 0 0 0 0 0 0 81 1 361 7 33 362 0 0 396 0 389 14 362 5 361 1e-008 394 0 364 393
 363 +0 0 394 0 391 51 363 6 0 362 395 0 0 +-0.00126991872 8.128e-008 0.00861999
9999999999 0 0 1 0.000430000007153 1 -2.449293598294706e-016 0 15 364 8 0 365 36
2 0 17 365 0 364 373 385 366 370 368 0 378 +18 366 9 0 365 0 371 367 ?358 29 367
 10 0 366 372 0 -0.001699918727153 8.128000000015798e-008 0.008619999999999999 1
6 368 11 0 ?365 0 376 369 0 0 358 31 369 12 0 368 377 0 0 +-0.00126991872 8.128e
-008 0.008619999999999999 -0 0 1 1 -2.449293598294706e-016 0 0.000430000007153 1
7 370 0 411 402 402 371 365 368 0 385 -18 371 13 0 370 366 374 372 ?358 29 372 1
4 0 371 375 367 -0.0008399187128469999 8.127999999989467e-008 0.0086199999999999
99 17 373 0 364 379 365 374 378 376 0 384 +18 374 15 0 373 371 380 375 ?358 29 3
75 16 0 374 381 372 -0.001699918727153 8.128000000015798e-008 0.0096199999999999
97 16 376 17 0 ?373 368 382 377 0 0 358 30 377 18 0 376 383 369 0 +-0.0016999187
27153 8.128000000015798e-008 0.008619999999999999 0 0 1 17 378 0 398 399 403 366
 373 376 0 402 -17 379 0 364 385 373 380 384 382 0 388 +18 380 19 0 379 374 0 38
1 ?358 29 381 20 0 380 0 375 -0.0008399187128469999 8.127999999989467e-008 0.009
619999999999997 16 382 21 0 ?379 376 386 383 0 0 358 31 383 22 0 382 387 377 0 +
-0.00126991872 8.128e-008 0.009619999999999998 0 -0 -1 1 -2.449293598294706e-016
 0 0.000430000007153 17 384 0 416 406 406 374 379 382 0 403 -17 385 0 364 365 37
9 371 388 386 0 399 -16 386 23 0 ?388 382 400 387 0 0 358 30 387 24 0 386 401 38
3 0 +-0.0008399187128469999 8.127999999989467e-008 0.008619999999999999 0 0 1 17
 388 0 398 403 399 380 385 386 0 406 +83 3 389 0.800000011920929 0.8000000119209
29 0.800000011920929 19 390 1 0 358 392 0 391 V13 391 2 0 358 0 0 0 0 390 362 19
 392 3 0 358 0 390 393 S13 393 4 0 358 0 362 0 0 392 0 14 394 25 396 1e-008 407
 362 398 393 395 +0 0 407 362 391 51 395 26 0 394 408 363 0 +-0.00126991872 8.12
8e-008 0.008619999999999999 0 0 1 0.000430000007153 1 -2.449293598294706e-016 0
 81 1 396 27 33 394 0 0 409 361 397 83 3 397 0.800000011920929 0.800000011920929
 0.800000011920929 15 398 28 0 378 394 0 17 399 0 398 388 378 371 402 400 0 0 +1
6 400 29 0 ?399 386 404 401 0 0 358 31 401 30 0 400 405 387 0 +-0.00126991872 8.
128e-008 0.008619999999999999 -0 0 1 1 -2.449293598294706e-016 0 0.0004300000071
53 17 402 0 411 370 370 366 399 400 0 0 -17 403 0 398 378 388 374 406 404 0 0 +1
6 404 31 0 ?403 400 0 405 0 0 358 31 405 32 0 404 0 401 0 +-0.00126991872 8.128e
-008 0.009619999999999998 0 -0 -1 1 -2.449293598294706e-016 0 0.000430000007153
 17 406 0 416 384 384 380 403 404 0 0 -14 407 33 409 1e-008 412 394 411 393 408
 -0 0 412 394 391 50 408 34 0 407 413 395 0 +-0.00126991872 8.128e-008 0.0086199
99999999999 0 0 1 1 -2.449293598294706e-016 0 81 1 409 35 33 407 0 0 414 396 410
 83 3 410 0.800000011920929 0.800000011920929 0.800000011920929 15 411 36 0 370
 407 0 14 412 37 414 1e-008 0 407 416 393 413 +0 0 0 407 391 50 413 38 0 412 0 4
08 0 +-0.00126991872 8.128e-008 0.009619999999999998 0 0 1 1 -2.449293598294706e
-016 0 81 1 414 39 33 412 0 0 0 409 415 83 3 415 0.800000011920929 0.80000001192
0929 0.800000011920929 15 416 40 0 406 412 0 12 417 54 0 418 0 0 0 0 1000 1e-008
 0 0 0 1 0 1 1 504 422 436 434 501 435 433 70 418 0 417 0 0 4 1 20 0 419 419 1 T
74 20 419 1 0 420 0 0 0 0 0 0 0 0 0 0 0 0 0 0 0 0 0 0 0 81 1 420 7 33 421 0 0 51
5 0 500 14 421 5 420 1e-008 505 0 431 504 422 +0 0 505 0 502 124 422 6 0 421 506
 0 423 +425 0 141 423 437 424 424 422 141 424 473 423 423 422 126 425 FF3 3 4 4
 1 1 2 2 TFF1 4 426 427 428 429 430 45 64 426 -0.000269918719999999 8.1279999996
76412e-008 0.011050000007153 1 -0.0008913222796239262 6.540909278078944e-008 0.0
08892353293830519 0.8047378541243647 -0.001367988948674925 6.540909278101203e-00
8 0.008415686624779522 0.8047378541243647 -0.001699918727152999 8.12799999974319
e-008 0.00962 1 -8.997290666666571e-005 0.0002866937647686656 0.0036833333357176
45 0.3333333333333313 -0.0002971074265413077 0.0002307133250507715 0.00296411776
4610157 0.2682459513747866 -0.0004559963162249735 0.0002307133250507716 0.002805
228874926491 0.2682459513747866 -0.0005666395757176644 0.0002866937647686658 0.0
03206666666666647 0.3333333333333313 -8.997290666666571e-005 0.00028669376476866
66 0.003396666664282312 0.3333333333333313 -0.0001619714616665742 0.000230713325
0507722 0.002733426242590312 0.2682459513747866 -0.0002253047942051289 0.0002307
133250507722 0.002670092910051757 0.2682459513747866 -0.0002799729042823308 0.00
02866937647686666 0.003206666666666647 0.3333333333333313 -0.000269918719999999
 8.127999999968116e-008 0.010189999992847 1 -0.0004859143849997255 6.54090927830
376e-008 0.008200278727770986 0.8047378541243647 -0.0006759143826153909 6.540909
278312633e-008 0.008010278730155319 0.8047378541243647 -0.000839918712846998 8.1
27999999994734e-008 0.00962 1 127 2 427 4 4 127 2 428 4 4 128 2 429 0 1 128 2 43
0 0 1 15 431 8 0 432 421 0 17 432 0 431 460 494 433 445 435 436 529 +18 433 9 0
 432 0 446 434 5.049586434445008e-007 417 29 434 10 0 433 447 0 -0.00026991872 8
.127999999968116e-008 0.010189999992847 16 435 11 0 5.049586434445008e-007 432 0
 463 0 0 0 417 133 436 12 0 432 437 0 0 +437 -0.0002699187199999989 8.1279999996
79725e-008 0.011050000007153 -0.0002699187199999989 8.127999999968383e-008 0.010
189999992847 2.803781338293464e-018 0.001344376660993032 137 437 13 0 417 448 43
6 438 +422 439 0 0 141 438 436 438 438 437 134 439 0 0 0 0 0 0 +440 444 136 440
 3 25 2 23 1 FFF1 441 442 443 45 50 441 0 0 0.02395058813786322 6.73672624472800
1e-017 0.06849851344795023 1.30373624601217e-016 0.1271760240122774 1.0776088516
28251e-016 0.1798790016885234 1.081795083210451e-016 0.2278866494312854 1.244631
00345104e-016 0.2722481110531664 4.510709308245282e-017 0.3138449837019491 3.280
79845035438e-016 0.3533775585615861 -8.978356352336409e-018 0.3913918608270154 2
.392478909475846e-016 0.4282661754189184 3.68950449560075e-016 0.464324863178493
8 3.866279510162696e-016 0.4999183979695036 7.747536367988762e-017 0.53547000865
3393 2.437442857962719e-016 0.5714286617599724 -1.625450943421239e-016 0.6081990
653326541 1.726612430903966e-016 0.6461931541909767 3.957519126238561e-016 0.685
8743696380035 3.228736820125771e-016 0.7279880523730101 2.491755799306724e-016 0
.7726793979763382 4.830073060029819e-016 0.8208964183334733 9.52276620541255e-01
6 0.8736510764974947 9.206651966580672e-016 0.9321642607343876 1.030302485486782
e-015 0.9763322868310643 5.051781365582948e-016 1 0 127 23 442 4 1 1 1 1 1 1 1 1
 1 1 1 1 1 1 1 1 1 1 1 1 1 4 128 23 443 2.803781338293464e-018 6.110803004514049
e-005 0.0001222160600902782 0.0001833240901354158 0.0002444321201805535 0.000305
5401502256912 0.0003666481802708289 0.0004277562103159666 0.0004888642403611043
 0.0005499722704062419 0.0006110803004513797 0.0006721883304965173 0.00073329636
05416549 0.0007944043905867927 0.0008555124206319303 0.0009166204506770681 0.000
9777284807222057 0.001038836510767343 0.001099944540812481 0.001161052570857619
 0.001222160600902757 0.001283268630947894 0.001344376660993032 135 444 1 0 17 4
45 0 563 529 529 446 432 435 448 494 -18 446 14 0 445 433 461 447 5.049586434445
008e-007 417 29 447 15 0 446 462 434 -0.0002699187199999995 8.127999999676412e-0
08 0.011050000007153 133 448 16 0 445 449 437 0 +449 -0.0002699187199999999 8.12
7999999962851e-008 0.010189999992847 -0.00026991872 8.127999999676412e-008 0.011
050000007153 0.001344376660993032 2.803781338293464e-018 137 449 17 0 417 464 44
8 450 -451 454 0 0 141 450 448 450 450 449 50 451 48 0 560 485 506 452 +-0.00026
991872 8.128000000007259e-008 0.011050000007153 -1 2.449293598294706e-016 -1.110
223024625e-016 -1.110223024625e-016 2.719262146893399e-032 1 141 452 449 453 453
 451 141 453 531 452 452 451 134 454 0 0 0 0 0 0 +455 459 136 455 3 10 2 5 1 FFF
1 456 457 458 45 20 456 -1.776356839400251e-018 -3.308464661031394e-018 -1.77635
6839400251e-018 0.0001136444036602716 -4.663322734519504e-005 0.0002247733134313
934 -0.0002053632446773435 0.0003834468088739133 -0.0003176629679191869 0.000429
9602266737589 -0.000542032298918322 0.0004300397336374607 -0.0006536787196328291
 0.0003843937451227317 -0.000814284027157795 0.0002238671697124665 -0.0008600000
143060011 0.0001122570188434646 -0.0008600000143059994 -3.91429396610639e-019 12
7 5 457 4 2 2 2 4 128 5 458 2.803781338293464e-018 0.00033609416524826 0.0006721
883304965172 0.001008282495744774 0.001344376660993032 135 459 1 0 17 460 0 431
 468 432 461 467 463 0 481 +18 461 18 0 460 446 469 462 5.049586434459718e-007 4
17 29 462 19 0 461 470 447 -0.0008399187128469999 8.127999999994734e-008 0.00961
9999999999997 16 463 20 0 ?460 435 471 464 0 0 417 133 464 21 0 463 465 449 0 +4
65 -0.0002699187199999999 8.127999999968116e-008 0.010189999992847 -0.0008399187
128469999 8.127999999994734e-008 0.009619999999999997 4.71238898038469 6.2831853
07179586 31 465 22 0 417 472 464 466 +-0.00026991872 8.127999999980772e-008 0.00
9619999999999998 -2.449293598294706e-016 -1 -2.22044604925e-016 -1 2.44929359829
4706e-016 0 0.000569999992847 141 466 464 466 466 465 17 467 0 517 518 539 433 4
60 463 0 0 -17 468 0 431 494 460 469 481 471 472 550 +18 469 23 0 499 461 0 470
 5.049586434459718e-007 417 29 470 24 0 469 0 462 -0.001699918727153 8.128000000
31047e-008 0.009619999999999997 16 471 25 0 5.006363594874105e-007 468 463 495 0
 0 0 417 133 472 26 0 468 473 465 0 +473 -0.000839918712846998 8.127999999996138
e-008 0.009620000000000002 -0.001699918727152999 8.127999999740787e-008 0.009620
000000000002 0.001344376660993034 0.002688449942011572 137 473 27 0 417 482 472
 474 +422 475 0 0 141 474 472 474 474 473 134 475 0 0 0 0 0 0 +476 480 136 476 3
 25 2 23 1 FFF1 477 478 479 45 50 477 1 1 0.9763378167999832 1.000000000000002 0
.9321255572213976 1.000000000000003 0.8734807977872025 1.000000000000003 0.82063
11409472088 1.000000000000004 0.7724534881928024 1.000000000000002 0.72799563425
03133 1 0.6864221115061088 1.000000000000001 0.6469702409766396 1.00000000000000
1 0.6090530840103305 1.000000000000002 0.5722238028951892 0.9999999999999997 0.5
361077547832428 0.9999999999999999 0.500210164249015 0.9999999999999999 0.464315
0355938349 1.000000000000001 0.4282053788923091 1.000000000000001 0.391383602733
6141 1.000000000000002 0.3534686842060444 1.000000000000002 0.3140107016243631 1
.000000000000003 0.2723976564448317 1.000000000000001 0.2280098896082431 1.00000
0000000001 0.1799621603972596 1.000000000000002 0.1272146122076873 0.99999999999
99998 0.06849972131665365 1.000000000000002 0.02394578734068557 1.00000000000000
1 0 1 127 23 478 4 1 1 1 1 1 1 1 1 1 1 1 1 1 1 1 1 1 1 1 1 1 4 128 23 479 0.0013
44376660993034 0.001405470901039331 0.001466565141085628 0.001527659381131925 0.
001588753621178223 0.00164984786122452 0.001710942101270817 0.001772036341317114
 0.001833130581363412 0.001894224821409709 0.001955319061456006 0.00201641330150
2303 0.0020775075415486 0.002138601781594897 0.002199696021641195 0.002260790261
687492 0.002321884501733789 0.002382978741780086 0.002444072981826384 0.00250516
7221872681 0.002566261461918978 0.002627355701965275 0.002688449942011572 135 48
0 1 0 17 481 0 567 550 550 461 468 471 482 539 -133 482 28 0 481 483 473 0 +483
 -0.001699918727153 8.128000000310292e-008 0.009619999999999997 -0.0008399187128
469998 8.127999999994734e-008 0.009619999999999997 0.002688449942011572 0.001344
376660993034 137 483 29 0 417 496 482 484 -485 488 0 0 141 484 482 484 484 483 5
0 485 52 0 564 0 451 486 +-0.001699918727153 8.128000000010531e-008 0.0096199999
99999998 -5.438524293786798e-032 -2.22044604925e-016 -1 2.449293598294706e-016 1
 -2.22044604925e-016 141 486 552 487 487 485 141 487 483 486 486 485 134 488 0 0
 0 0 0 0 +489 493 136 489 3 10 2 5 1 FFF1 490 491 492 45 20 490 5.26598132393259
5e-020 0.0008600000143060001 0.0001122316862618303 0.0008600000143060001 0.00022
44992483872584 0.000813500561585001 0.0003831833617208953 0.0006550402237285479
 0.0004299043363221802 0.000543764162851586 0.0004300953729133429 0.000316960227
831918 0.0003836074513107064 0.0002056085807530265 0.0002249362803227372 4.67117
8826611377e-005 0.000113618757993188 5.551115123125783e-020 2.999387843362123e-0
18 0 127 5 491 4 2 2 2 4 128 5 492 0.001344376660993034 0.001680394981247668 0.0
02016413301502303 0.002352431621756937 0.002688449942011572 135 493 1 0 17 494 0
 431 432 468 446 499 495 0 518 -16 495 30 0 ?499 471 519 496 0 0 417 133 496 31
 0 495 497 483 0 +497 -0.0002699187199999997 8.127999999943754e-008 0.0110500000
07153 -0.001699918727153 8.128000000010531e-008 0.009619999999999997 4.712388980
38469 6.283185307179586 31 497 32 0 417 520 496 498 +-0.00026991872 8.1279999999
75506e-008 0.009619999999999998 -2.449293598294706e-016 -1 -2.22044604925e-016 -
1 2.449293598294706e-016 0 0.001430000007153 141 498 496 498 498 497 17 499 0 51
7 539 518 469 494 495 0 468 +83 3 500 0.800000011920929 0.800000011920929 0.8000
00011920929 19 501 1 0 417 503 0 502 V13 502 2 0 417 0 0 0 0 501 421 19 503 3 0
 417 0 501 504 S13 504 4 0 417 0 421 0 0 503 0 14 505 33 515 1e-008 560 421 517
 504 506 +0 0 560 421 502 124 506 34 0 505 451 422 507 +509 0 141 507 521 508 50
8 506 141 508 542 507 507 506 126 509 FF3 3 4 4 1 1 2 2 TFF1 4 510 511 512 513 5
14 45 64 510 -0.000269918719999999 8.127999999968116e-008 0.010189999992847 1 -0
.0004859143849997256 6.540909278303761e-008 0.008200278727770984 0.8047378541243
648 -0.0006759143826153932 6.540909278312633e-008 0.008010278730155319 0.8047378
541243648 -0.0008399187128469997 8.127999999994734e-008 0.009619999999999997 1 -
8.997290666666644e-005 -0.0002866395781020001 0.003396666664282334 0.33333333333
33334 -0.0001619714616665752 -0.0002306697189889169 0.00273342624259033 0.268245
9513747884 -0.0002253047942051312 -0.0002306697189889169 0.002670092910051774 0.
2682459513747884 -0.0002799729042823333 -0.0002866395781020001 0.003206666666666
666 0.3333333333333334 -8.997290666666644e-005 -0.0002866395781020002 0.00368333
3335717667 0.3333333333333334 -0.0002971074265413088 -0.0002306697189889169 0.00
2964117764610174 0.2682459513747884 -0.0004559963162249759 -0.000230669718988916
8 0.002805228874926509 0.2682459513747884 -0.0005666395757176669 -0.000286639578
102 0.003206666666666666 0.3333333333333334 -0.000269918719999999 8.127999999943
754e-008 0.011050000007153 1 -0.000891322279623926 6.540909278294084e-008 0.0088
92353293830523 0.8047378541243648 -0.001367988948674927 6.540909278316345e-008 0
.008415686624779524 0.8047378541243648 -0.001699918727153 8.128000000010531e-008
 0.009619999999999997 1 127 2 511 4 4 127 2 512 4 4 128 2 513 0 1 128 2 514 0 1
 81 1 515 35 33 505 0 0 561 420 516 83 3 516 0.800000011920929 0.800000011920929
 0.800000011920929 15 517 36 0 467 505 0 17 518 0 517 499 467 446 529 519 520 0
 +16 519 37 0 5.006363594896109e-007 518 495 540 0 0 0 417 133 520 38 0 518 521
 497 0 +521 -0.0002699187199999991 8.127999999965608e-008 0.010189999992847 -0.0
002699187199999991 8.127999999943403e-008 0.011050000007153 0.001344376660993032
 0.002688449942011569 137 521 39 0 417 530 520 522 +506 523 0 0 141 522 520 522
 522 521 134 523 0 0 0 0 0 0 +524 528 136 524 3 25 2 23 1 FFF1 525 526 527 45 50
 525 0 0 0.023662183200017 5.399311032018022e-016 0.06787444277860262 1.08142955
9459607e-015 0.1265192022127979 9.866290372308077e-016 0.1793688590527905 5.5105
02141220868e-016 0.2275465118071979 8.371689791711345e-016 0.2720043657496879 4.
425037728491395e-017 0.3135778884938877 7.866044171967467e-016 0.353029759023362
 4.022488675192833e-016 0.3909469159896691 5.636421303232036e-016 0.427776197104
8129 -3.153819122753691e-016 0.4638922452167596 2.89223984001732e-016 0.49978983
5750986 8.174677073748111e-018 0.5356849644061674 -9.70598674001328e-017 0.57179
46211076946 -2.07837809577733e-017 0.6086163972663868 -9.962807740532838e-018 0.
6465313157939592 7.324315065266612e-017 0.6859892983756398 -7.579730384378983e-0
17 0.7276023435551727 -1.032349999165389e-016 0.7719901103917578 3.3319623337460
86e-016 0.8200378396027434 1.677614051849778e-016 0.8727853877923165 -1.06991783
1637185e-016 0.9315002786833498 -1.246121516947916e-017 0.976054212659316 1.8982
64164236901e-017 1 0 127 23 526 4 1 1 1 1 1 1 1 1 1 1 1 1 1 1 1 1 1 1 1 1 1 4 12
8 23 527 0.001344376660993032 0.001405470901039329 0.001466565141085626 0.001527
659381131923 0.00158875362117822 0.001649847861224518 0.001710942101270815 0.001
772036341317112 0.001833130581363409 0.001894224821409706 0.001955319061456004 0
.0020164133015023 0.002077507541548598 0.002138601781594895 0.002199696021641192
 0.002260790261687489 0.002321884501733786 0.002382978741780084 0.00244407298182
6381 0.002505167221872678 0.002566261461918975 0.002627355701965272 0.0026884499
42011569 135 528 1 0 17 529 0 563 445 445 433 518 519 530 467 -133 530 40 0 529
 531 521 0 +531 -0.00026991872 8.127999999678356e-008 0.011050000007153 -0.00026
99187199999999 8.127999999968117e-008 0.010189999992847 0.002688449942011569 0.0
01344376660993032 137 531 41 0 417 541 530 532 -451 533 0 0 141 532 530 532 532
 531 134 533 0 0 0 0 0 0 +534 538 136 534 3 10 2 5 1 FFF1 535 536 537 45 20 535
 -0.0008600000143059994 -3.91429396610639e-019 -0.0008600000143059994 -0.0001122
316862618308 -0.000813500561585002 -0.0002244992483872582 -0.0006550402237285482
 -0.0003831833617208956 -0.0005437641628515842 -0.0004299043363221813 -0.0003169
602278319186 -0.0004300953729133429 -0.0002056085807530241 -0.000383607451310706
9 -4.671178826611389e-005 -0.0002249362803227375 -1.776356839400251e-018 -0.0001
136187579931882 -1.776356839400251e-018 -3.308464661031394e-018 127 5 536 4 2 2
 2 4 128 5 537 0.001344376660993032 0.001680394981247666 0.002016413301502301 0.
002352431621756934 0.002688449942011569 135 538 1 0 17 539 0 517 467 499 461 550
 540 541 0 +16 540 42 0 5.049586434459718e-007 539 519 0 0 0 0 417 133 541 43 0
 539 542 531 0 +542 -0.001699918727153 8.128000000004465e-008 0.00962 -0.0008399
187128469995 8.127999999987812e-008 0.00962 2.955398135693887e-018 0.00134437666
0993034 137 542 44 0 417 551 541 543 +506 544 0 0 141 543 541 543 543 542 134 54
4 0 0 0 0 0 0 +545 549 136 545 3 25 2 23 1 FFF1 546 547 548 45 50 546 1 1 0.9760
494118621383 1 0.9315014865520528 1.000000000000001 0.8728239759877247 0.9999999
999999996 0.820120998311478 0.9999999999999986 0.7721133505687154 0.999999999999
9991 0.7277518889468345 0.9999999999999996 0.6861550162980524 0.9999999999999988
 0.6466224414384111 0.9999999999999972 0.6086081391729845 0.9999999999999996 0.5
717338245810811 0.9999999999999992 0.5356751368215041 0.9999999999999988 0.50008
16020304933 1.000000000000002 0.4645299913466064 1.000000000000001 0.42857133824
00235 1.000000000000003 0.391800934667345 0.9999999999999966 0.353806845809024 1
.000000000000002 0.3141256303619978 0.9999999999999981 0.2720119476269891 1 0.22
73206020236635 0.9999999999999963 0.1791035816665274 1.000000000000001 0.1263489
235025047 1.000000000000001 0.06783573926561179 0.9999999999999978 0.02366771316
893528 0.9999999999999982 0 1 127 23 547 4 1 1 1 1 1 1 1 1 1 1 1 1 1 1 1 1 1 1 1
 1 1 4 128 23 548 2.955398135693887e-018 6.110803004514072e-005 0.00012221606009
02785 0.0001833240901354163 0.000244432120180554 0.0003055401502256918 0.0003666
481802708296 0.0004277562103159673 0.000488864240361105 0.0005499722704062428 0.
0006110803004513805 0.0006721883304965183 0.0007332963605416561 0.00079440439058
67939 0.0008555124206319316 0.0009166204506770694 0.0009777284807222072 0.001038
836510767345 0.001099944540812483 0.001161052570857621 0.001222160600902758 0.00
1283268630947896 0.001344376660993034 135 549 1 0 17 550 0 567 481 481 469 539 5
40 551 0 -133 551 45 0 550 552 542 0 +552 -0.0008399187128469998 8.1279999999936
31e-008 0.009619999999999997 -0.001699918727153 8.12800000031047e-008 0.00961999
9999999997 0.001344376660993034 2.955398135693887e-018 137 552 46 0 417 0 551 55
3 -485 554 0 0 141 553 551 553 553 552 134 554 0 0 0 0 0 0 +555 559 136 555 3 10
 2 5 1 FFF1 556 557 558 45 20 556 2.999387843362123e-018 0 -0.000113644403660272
3 5.551115123125783e-020 -0.0002247733134313932 4.663322734519576e-005 -0.000383
4468088739135 0.0002053632446773418 -0.0004299602266737598 0.0003176629679191887
 -0.0004300397336374607 0.0005420322989183274 -0.0003843937451227323 0.000653678
7196328287 -0.0002238671697124671 0.0008142840271577921 -0.0001122570188434648 0
.0008600000143060003 5.265981323932595e-020 0.0008600000143060001 127 5 557 4 2
 2 2 4 128 5 558 2.955398135693887e-018 0.0003360941652482606 0.0006721883304965
183 0.001008282495744776 0.001344376660993034 135 559 1 0 14 560 47 561 1e-008 5
64 505 563 504 451 -0 0 564 505 502 81 1 561 49 33 560 0 0 565 515 562 83 3 562
 0.800000011920929 0.800000011920929 0.800000011920929 15 563 50 0 445 560 0 14
 564 51 565 1e-008 0 560 567 504 485 +0 0 0 560 502 81 1 565 53 33 564 0 0 0 561
 566 83 3 566 0.800000011920929 0.800000011920929 0.800000011920929 15 567 54 0
 550 564 0 12 568 54 0 569 0 0 0 0 1000 1e-008 0 0 0 1 0 1 1 655 573 587 585 652
 586 584 70 569 0 568 0 0 4 1 20 0 570 570 1 T74 20 570 1 0 571 0 0 0 0 0 0 0 0
 0 0 0 0 0 0 0 0 0 0 0 81 1 571 7 33 572 0 0 666 0 651 14 572 5 571 1e-008 656 0
 582 655 573 +0 0 656 0 653 124 573 6 0 572 657 0 574 +576 0 141 574 588 575 575
 573 141 575 624 574 574 573 126 576 FF3 3 4 4 1 1 2 2 TFF1 4 577 578 579 580 58
1 45 64 577 0.0002700812799999999 8.128000000299566e-008 0.011050000007153 1 0.0
008914530978094943 6.540909278547398e-008 0.008892353293830523 0.804737854124364
8 0.001368119766860495 6.54090927852514e-008 0.00841568662477952 0.8047378541243
648 0.001700081287153 8.128000000232788e-008 0.009619999999999997 1 9.0027093333
33265e-005 -0.0002866395781019991 0.003683333335717643 0.333333333333331 0.00029
71510326031638 -0.0002306697189889161 0.002964117764610155 0.2682459513747864 0.
00045603992228683 -0.0002306697189889162 0.002805228874926489 0.2682459513747864
 0.0005666937623843318 -0.0002866395781019993 0.003206666666666644 0.33333333333
3331 9.002709333333265e-005 -0.0002866395781020001 0.00339666666428231 0.3333333
33333331 0.0001620150677284298 -0.0002306697189889169 0.00273342624259031 0.2682
459513747864 0.0002253484002669851 -0.000230669718988917 0.002670092910051755 0.
2682459513747864 0.0002800270909489983 -0.0002866395781020002 0.0032066666666666
44 0.333333333333331 0.0002700812799999999 8.127999999969671e-008 0.010189999992
847 1 0.000486045203185293 6.540909278291849e-008 0.008200278727770989 0.8047378
541243648 0.0006760452008009605 6.540909278282977e-008 0.008010278730155317 0.80
47378541243648 0.0008400812728470004 8.127999999943053e-008 0.009619999999999997
 1 127 2 578 4 4 127 2 579 4 4 128 2 580 0 1 128 2 581 0 1 15 582 8 0 583 572 0
 17 583 0 582 611 645 584 596 586 587 680 +18 584 9 0 583 0 597 585 5.0495864344
53187e-007 568 29 585 10 0 584 598 0 0.0002700812800000001 8.127999999969671e-00
8 0.010189999992847 16 586 11 0 5.049586434453187e-007 583 0 614 0 0 0 568 133 5
87 12 0 583 588 0 0 +588 0.0002700812799999999 8.12800000030145e-008 0.011050000
007153 0.0002700812800000001 8.127999999968383e-008 0.010189999992847 2.96921738
6955913e-018 0.001344376660993033 137 588 13 0 568 599 587 589 +573 590 0 0 141
 589 587 589 589 588 134 590 0 0 0 0 0 0 +591 595 136 591 3 25 2 23 1 FFF1 592 5
93 594 45 50 592 0 0 0.02395058813786371 -2.496496098003993e-017 0.0684985134479
5109 3.713031216834984e-017 0.1271760240122778 3.643087582488631e-016 0.17987900
16885249 -5.75480935915713e-016 0.2278866494312853 6.13130249795982e-016 0.27224
81110531665 -5.761398980592594e-016 0.3138449837019483 2.049804638111478e-015 0.
3533775585615883 -7.465822827988226e-015 0.3913918608270187 2.853323972524949e-0
14 0.4282661754189162 -1.06992578590337e-013 0.4643248631785002 3.99748962706342
3e-013 0.4999183979695065 -1.492832591822426e-012 0.5354700086533949 5.570556703
574771e-012 0.5714286617599759 -1.492524977245016e-012 0.6081990653326554 3.9959
84000756575e-013 0.6461931541909762 -1.066737890483195e-013 0.6858743696380029 2
.911849341993283e-014 0.7279880523730112 -7.540504930446845e-015 0.7726793979763
353 2.183335138351808e-015 0.8208964183334725 3.148959431016944e-016 0.873651076
497496 2.819326871245577e-017 0.9321642607343885 2.483413191164375e-016 0.976332
2868310647 2.100137440307434e-016 1 0 127 23 593 4 1 1 1 1 1 1 1 1 1 1 1 1 1 1 1
 1 1 1 1 1 1 4 128 23 594 2.969217386955913e-018 6.110803004514068e-005 0.000122
2160600902784 0.0001833240901354161 0.0002444321201805538 0.0003055401502256915
 0.0003666481802708293 0.000427756210315967 0.0004888642403611046 0.000549972270
4062424 0.00061108030045138 0.0006721883304965177 0.0007332963605416555 0.000794
4043905867931 0.0008555124206319309 0.0009166204506770685 0.0009777284807222064
 0.001038836510767344 0.001099944540812482 0.00116105257085762 0.001222160600902
757 0.001283268630947895 0.001344376660993033 135 595 1 0 17 596 0 714 680 680 5
97 583 586 599 669 -18 597 14 0 645 584 612 598 5.049586434453187e-007 568 29 59
8 15 0 597 613 585 0.0002700812799999999 8.128000000299566e-008 0.01105000000715
3 133 599 16 0 596 600 588 0 +600 0.00027008128 8.127999999971828e-008 0.0101899
99992847 0.0002700812800000001 8.128000000299566e-008 0.011050000007153 0.001344
376660993033 2.969217386955913e-018 137 600 17 0 568 615 599 601 -602 605 0 0 14
1 601 599 601 601 600 50 602 48 0 711 636 657 603 +0.0002700812800000001 8.12799
9999994032e-008 0.011050000007153 1 -2.449293598294707e-016 -1.110223024625e-016
 -1.110223024625e-016 2.719262146893399e-032 -1 141 603 600 604 604 602 141 604
 682 603 603 602 134 605 0 0 0 0 0 0 +606 610 136 606 3 10 2 5 1 FFF1 607 608 60
9 45 20 607 1.776356839400251e-018 3.055333814593588e-018 1.776356839400251e-018
 -0.0001136444036602721 4.663322734519504e-005 -0.0002247733134313942 0.00020536
32446773399 -0.000383446808873914 0.0003176629679191869 -0.00042996022667376 0.0
005420322989183273 -0.000430039733637461 0.0006536787196328291 -0.00038439374512
27325 0.0008142840271577914 -0.0002238671697124679 0.0008600000143060011 -0.0001
122570188434653 0.0008600000143059994 -2.436181766513611e-019 127 5 608 4 2 2 2
 4 128 5 609 2.969217386955913e-018 0.0003360941652482603 0.0006721883304965176
 0.001008282495744775 0.001344376660993033 135 610 1 0 17 611 0 582 619 583 612
 618 614 0 632 +18 612 18 0 690 597 620 613 5.049586434457516e-007 568 29 613 19
 0 612 621 598 0.0008400812728470004 8.127999999943053e-008 0.009619999999999997
 16 614 20 0 ?611 586 622 615 0 0 568 133 615 21 0 614 616 600 0 +616 0.00027008
128 8.127999999969672e-008 0.010189999992847 0.0008400812728470003 8.12799999994
3054e-008 0.009619999999999997 4.71238898038469 6.283185307179586 31 616 22 0 56
8 623 615 617 +0.0002700812800000001 8.127999999957016e-008 0.009619999999999998
 2.449293598294706e-016 1 -2.22044604925e-016 1 -2.449293598294706e-016 0 0.0005
699999928470002 141 617 615 617 617 616 17 618 0 668 669 690 584 611 614 0 0 -17
 619 0 582 645 611 620 632 622 623 0 +18 620 23 0 650 612 0 621 5.04958643445751
6e-007 568 29 621 24 0 620 0 613 0.001700081287153 8.12799999961946e-008 0.00961
9999999999997 16 622 25 0 5.006363594856966e-007 619 614 646 0 0 0 568 133 623 2
6 0 619 624 616 0 +624 0.0008400812728470004 8.127999999940627e-008 0.0096199999
99999997 0.001700081287153 8.128000000229285e-008 0.009619999999999997 0.0013443
76660993033 0.00268844994201157 137 624 27 0 568 633 623 625 +573 626 0 0 141 62
5 623 625 625 624 134 626 0 0 0 0 0 0 +627 631 136 627 3 25 2 23 1 FFF1 628 629
 630 45 50 628 1 1 0.9763378167999832 0.9999999999999979 0.932125557221398 0.999
9999999999976 0.8734807977872027 1.000000000000002 0.8206311409472092 0.99999999
99999991 0.7724534881928029 0.999999999999996 0.727995634250314 1 0.686422111506
1104 0.9999999999999987 0.6469702409766414 1.000000000000002 0.6090530840103324
 0.9999999999999993 0.5722238028951907 1 0.5361077547832444 0.9999999999999991 0
.500210164249017 1.000000000000003 0.464315035593836 0.9999999999999962 0.428205
37889231 1.000000000000002 0.3913836027336159 1.000000000000002 0.35346868420604
46 0.9999999999999982 0.3140107016243641 1.000000000000003 0.2723976564448327 0.
9999999999999996 0.2280098896082433 0.9999999999999991 0.1799621603972602 1.0000
00000000001 0.1272146122076881 0.9999999999999997 0.06849972131665459 1.00000000
0000001 0.02394578734068602 1 0 1 127 23 629 4 1 1 1 1 1 1 1 1 1 1 1 1 1 1 1 1 1
 1 1 1 1 4 128 23 630 0.001344376660993033 0.00140547090103933 0.001466565141085
627 0.001527659381131924 0.001588753621178221 0.001649847861224518 0.00171094210
1270816 0.001772036341317113 0.00183313058136341 0.001894224821409707 0.00195531
9061456004 0.002016413301502301 0.002077507541548599 0.002138601781594896 0.0021
99696021641193 0.00226079026168749 0.002321884501733787 0.002382978741780084 0.0
02444072981826382 0.002505167221872679 0.002566261461918976 0.002627355701965273
 0.00268844994201157 135 631 1 0 17 632 0 718 701 701 612 619 622 633 0 -133 633
 28 0 632 634 624 0 +634 0.001700081287153 8.127999999615005e-008 0.009619999999
999997 0.0008400812728470004 8.127999999943053e-008 0.009619999999999997 0.00268
844994201157 0.001344376660993033 137 634 29 0 568 647 633 635 -636 639 0 0 141
 635 633 635 635 634 50 636 52 0 715 0 602 637 +0.001700081287153 8.127999999927
256e-008 0.009619999999999998 -5.438524293786798e-032 -2.22044604925e-016 -1 2.4
49293598294706e-016 1 -2.22044604925e-016 141 637 703 638 638 636 141 638 634 63
7 637 636 134 639 0 0 0 0 0 0 +640 644 136 640 3 10 2 5 1 FFF1 641 642 643 45 20
 641 -5.265981323932595e-020 -0.0008600000143059998 -0.0001122316862618304 -0.00
08600000143059998 -0.0002244992483872586 -0.0008135005615849997 -0.0003831833617
208953 -0.0006550402237285482 -0.0004299043363221804 -0.0005437641628515855 -0.0
004300953729133425 -0.0003169602278319173 -0.000383607451310706 -0.0002056085807
530255 -0.0002249362803227367 -4.671178826611255e-005 -0.0001136187579931879 -4.
440892098500626e-019 -3.077957212134754e-018 -4.440892098500626e-019 127 5 642 4
 2 2 2 4 128 5 643 0.001344376660993033 0.001680394981247667 0.00201641330150230
1 0.002352431621756936 0.00268844994201157 135 644 1 0 17 645 0 582 583 619 597
 650 646 0 596 -16 646 30 0 ?650 622 670 647 0 0 568 133 647 31 0 646 648 634 0
 +648 0.0002700812799999998 8.127999999994032e-008 0.011050000007153 0.001700081
287153 8.127999999927256e-008 0.009619999999999997 4.71238898038469 6.2831853071
79586 31 648 32 0 568 671 647 649 +0.0002700812800000001 8.12799999996228e-008 0
.009619999999999998 2.449293598294706e-016 1 -2.22044604925e-016 1 -2.4492935982
94706e-016 0 0.001430000007153 141 649 647 649 649 648 17 650 0 668 690 669 620
 645 646 0 701 +83 3 651 0.800000011920929 0.800000011920929 0.800000011920929 1
9 652 1 0 568 654 0 653 V13 653 2 0 568 0 0 0 0 652 572 19 654 3 0 568 0 652 655
 S13 655 4 0 568 0 572 0 0 654 0 14 656 33 666 1e-008 711 572 668 655 657 +0 0 7
11 572 653 124 657 34 0 656 602 573 658 +660 0 141 658 672 659 659 657 141 659 6
93 658 658 657 126 660 FF3 3 4 4 1 1 2 2 TFF1 4 661 662 663 664 665 45 64 661 0.
0002700812799999999 8.127999999969671e-008 0.010189999992847 1 0.000486045203185
293 6.540909278291849e-008 0.008200278727770989 0.8047378541243648 0.00067604520
08009605 6.540909278282977e-008 0.008010278730155317 0.8047378541243648 0.000840
0812728470004 8.127999999943053e-008 0.009619999999999997 1 9.002709333333345e-0
05 0.0002866937647686666 0.003396666664282334 0.3333333333333334 0.0001620150677
284312 0.0002307133250507722 0.00273342624259033 0.2682459513747884 0.0002253484
00266987 0.0002307133250507722 0.002670092910051774 0.2682459513747884 0.0002800
270909490002 0.0002866937647686666 0.003206666666666665 0.3333333333333334 9.002
709333333345e-005 0.0002866937647686667 0.003683333335717669 0.3333333333333334
 0.0002971510326031649 0.0002307133250507723 0.002964117764610174 0.268245951374
7884 0.0004560399222868318 0.0002307133250507721 0.002805228874926508 0.26824595
13747884 0.0005666937623843338 0.0002866937647686665 0.003206666666666665 0.3333
333333333334 0.0002700812799999999 8.127999999994032e-008 0.011050000007153 1 0.
0008914530978094943 6.540909278301523e-008 0.008892353293830523 0.80473785412436
48 0.001368119766860495 6.540909278279265e-008 0.00841568662477952 0.80473785412
43648 0.001700081287153 8.127999999927256e-008 0.009619999999999997 1 127 2 662
 4 4 127 2 663 4 4 128 2 664 0 1 128 2 665 0 1 81 1 666 35 33 656 0 0 712 571 66
7 83 3 667 0.800000011920929 0.800000011920929 0.800000011920929 15 668 36 0 618
 656 0 17 669 0 668 650 618 597 680 670 671 0 +16 670 37 0 5.006363594881516e-00
7 669 646 691 0 0 0 568 133 671 38 0 669 672 648 0 +672 0.00027008128 8.12799999
9971158e-008 0.010189999992847 0.00027008128 8.127999999993362e-008 0.0110500000
07153 0.001344376660993033 0.002688449942011569 137 672 39 0 568 681 671 673 +65
7 674 0 0 141 673 671 673 673 672 134 674 0 0 0 0 0 0 +675 679 136 675 3 25 2 23
 1 FFF1 676 677 678 45 50 676 0 0 0.02366218320001706 3.199976001158986e-016 0.0
6787444277860263 6.056495257357906e-016 0.1265192022127979 4.983213195501922e-01
6 0.1793688590527915 4.516564450035548e-016 0.2275465118071994 8.197643887308655
e-016 0.272004365749687 9.833501770629981e-016 0.3135778884938934 2.087548104556
154e-016 0.3530297590233619 7.960629293738735e-016 0.3909469159896709 5.57517760
3877555e-016 0.4277761971048117 -6.29118676086672e-018 0.4638922452167568 4.9588
06458644231e-016 0.4997898357509873 6.88214303648751e-017 0.5356849644061674 4.1
00875828497129e-016 0.5717946211076954 3.822952830081169e-016 0.6086163972663903
 2.173397678564328e-016 0.6465313157939597 1.629185446323913e-016 0.685989298375
6398 -2.030445325154831e-016 0.7276023435551738 5.656616729018148e-016 0.7719901
103917581 -4.329290796122998e-017 0.8200378396027439 2.469156534129678e-016 0.87
27853877923146 -3.29084361310471e-016 0.9315002786833494 3.115058772826388e-016
 0.9760542126593161 2.685576010480834e-016 1 0 127 23 677 4 1 1 1 1 1 1 1 1 1 1
 1 1 1 1 1 1 1 1 1 1 1 4 128 23 678 0.001344376660993033 0.00140547090103933 0.0
01466565141085627 0.001527659381131924 0.001588753621178221 0.001649847861224518
 0.001710942101270816 0.001772036341317112 0.00183313058136341 0.001894224821409
707 0.001955319061456004 0.002016413301502301 0.002077507541548598 0.00213860178
1594895 0.002199696021641192 0.00226079026168749 0.002321884501733787 0.00238297
8741780084 0.002444072981826381 0.002505167221872678 0.002566261461918975 0.0026
27355701965272 0.002688449942011569 135 679 1 0 17 680 0 714 596 596 584 669 670
 681 618 -133 681 40 0 680 682 672 0 +682 0.0002700812800000001 8.12800000029934
4e-008 0.011050000007153 0.00027008128 8.127999999969671e-008 0.010189999992847
 0.002688449942011569 0.001344376660993033 137 682 41 0 568 692 681 683 -602 684
 0 0 141 683 681 683 683 682 134 684 0 0 0 0 0 0 +685 689 136 685 3 10 2 5 1 FFF
1 686 687 688 45 20 686 0.0008600000143059994 -2.436181766513611e-019 0.00086000
00143059994 0.0001122316862618301 0.000813500561585002 0.0002244992483872578 0.0
006550402237285482 0.000383183361720895 0.0005437641628515895 0.0004299043363221
796 0.0003169602278319186 0.0004300953729133432 0.0002056085807530241 0.00038360
74513107058 4.671178826611389e-005 0.0002249362803227366 1.776356839400251e-018
 0.0001136187579931878 1.776356839400251e-018 3.055333814593588e-018 127 5 687 4
 2 2 2 4 128 5 688 0.001344376660993033 0.001680394981247666 0.00201641330150230
1 0.002352431621756934 0.002688449942011569 135 689 1 0 17 690 0 668 618 650 612
 701 691 692 611 +16 691 42 0 5.049586434457516e-007 690 670 0 0 0 0 568 133 692
 43 0 690 693 682 0 +693 0.001700081287153 8.127999999935076e-008 0.009619999999
999997 0.0008400812728470005 8.127999999946179e-008 0.009619999999999997 3.02247
8331327412e-018 0.001344376660993033 137 693 44 0 568 702 692 694 +657 695 0 0 1
41 694 692 694 694 693 134 695 0 0 0 0 0 0 +696 700 136 696 3 25 2 23 1 FFF1 697
 698 699 45 50 697 1 1 0.9760494118621386 0.9999999999999989 0.9315014865520528
 0.9999999999999976 0.8728239759877247 0.9999999999999988 0.8201209983114786 0.9
999999999999969 0.7721133505687157 0.9999999999999979 0.7277518889468349 0.99999
99999999957 0.6861550162980524 0.9999999999999979 0.6466224414384107 0.999999999
9999979 0.6086081391729847 0.9999999999999958 0.5717338245810815 0.9999999999999
98 0.5356751368215046 0.9999999999999978 0.500081602030494 0.9999999999999956 0.
4645299913466075 0.9999999999999975 0.4285713382400242 0.9999999999999936 0.3918
009346673449 0.9999999999999981 0.3538068458090251 0.9999999999999948 0.31412563
03619973 0.9999999999999951 0.2720119476269897 0.9999999999999993 0.227320602023
6634 0.9999999999999961 0.1791035816665282 0.9999999999999936 0.1263489235025045
 0.9999999999999982 0.06783573926561191 0.9999999999999978 0.02366771316893539 0
.9999999999999988 0 1 127 23 698 4 1 1 1 1 1 1 1 1 1 1 1 1 1 1 1 1 1 1 1 1 1 4 1
28 23 699 3.022478331327412e-018 6.110803004514073e-005 0.0001222160600902785 0.
0001833240901354162 0.0002444321201805539 0.0003055401502256916 0.00036664818027
08293 0.000427756210315967 0.0004888642403611047 0.0005499722704062425 0.0006110
803004513801 0.0006721883304965178 0.0007332963605416556 0.0007944043905867932 0
.000855512420631931 0.0009166204506770686 0.0009777284807222064 0.00103883651076
7344 0.001099944540812482 0.00116105257085762 0.001222160600902757 0.00128326863
0947895 0.001344376660993033 135 700 1 0 17 701 0 718 632 632 620 690 691 702 61
9 -133 702 45 0 701 703 693 0 +703 0.0008400812728470004 8.127999999939991e-008
 0.009619999999999997 0.001700081287153 8.12799999961946e-008 0.0096199999999999
97 0.001344376660993033 3.022478331327412e-018 137 703 46 0 568 0 702 704 -636 7
05 0 0 141 704 702 704 704 703 134 705 0 0 0 0 0 0 +706 710 136 706 3 10 2 5 1 F
FF1 707 708 709 45 20 707 -3.077957212134754e-018 -4.440892098500626e-019 0.0001
136444036602721 0 0.0002247733134313933 -4.663322734519504e-005 0.00038344680887
39135 -0.0002053632446773421 0.0004299602266737597 -0.0003176629679191874 0.0004
30039733637461 -0.000542032298918326 0.0003843937451227324 -0.000653678719632828
7 0.0002238671697124673 -0.0008142840271577918 0.0001122570188434648 -0.00086000
00143059994 -5.265981323932595e-020 -0.0008600000143059998 127 5 708 4 2 2 2 4 1
28 5 709 3.022478331327412e-018 0.0003360941652482604 0.0006721883304965177 0.00
1008282495744775 0.001344376660993033 135 710 1 0 14 711 47 712 1e-008 715 656 7
14 655 602 -0 0 715 656 653 81 1 712 49 33 711 0 0 716 666 713 83 3 713 0.800000
011920929 0.800000011920929 0.800000011920929 15 714 50 0 596 711 0 14 715 51 71
6 1e-008 0 711 718 655 636 +0 0 0 711 653 81 1 716 53 33 715 0 0 0 712 717 83 3
 717 0.800000011920929 0.800000011920929 0.800000011920929 15 718 54 0 701 715 0
 1 0 
