**ABCDEFGHIJKLMNOPQRSTUVWXYZabcdefghijklmnopqrstuvwxyz**************************
**PARASOLID !"#$%&'()*+,-./:;<=>?@[\]^_`{|}~0123456789**************************
**PART1;
MC=AMD64;
MC_MODEL=Intel64 Family 6 Model 69 Stepping 1, GenuineIntel;
MC_ID=unknown;
OS=Windows_NT;
OS_RELEASE=unknown;
FRU=CAD Exchanger 3.6.1 (cadexchanger.com);
APPL=unknown;
SITE=unknown;
USER=unknown;
FORMAT=text;
GUISE=transmit;
KEY=PN2222_CMP-013-00009-2;
FILE=PN2222_CMP-013-00009-2.x_t;
DATE=Tue Dec 15 21:53:00 2020;
**PART2;
SCH=SCH_1200000_12006;
USFLD_SIZE=0;
**PART3;
**END_OF_HEADER*****************************************************************
T51 : TRANSMIT FILE created by modeller version 120000017 SCH_1200000_120060 12
 1 251 0 2 0 0 0 0 1000 1e-008 0 0 0 1 0 1 1 38 6 12 10 35 11 9 70 2 0 1 0 0 4 1
 20 0 3 3 1 T74 20 3 1 0 4 0 0 0 0 0 0 0 0 0 0 0 0 0 0 0 0 0 0 0 81 1 4 7 32 5 0
 0 41 0 34 14 5 5 4 1e-008 39 0 7 38 6 +0 0 39 0 36 50 6 6 0 5 40 0 0 +-0.001269
8857 -0.0002048256199999998 0 -9.408384017931365e-017 -1 0 -1 9.408384017931365e
-017 0 15 7 8 0 8 5 0 17 8 0 7 16 28 9 13 11 0 21 +18 9 9 0 8 0 14 10 ?1 29 10 1
0 0 9 15 0 -0.0010398857 -0.0002048256199999998 -0.01441 16 11 11 0 ?8 0 19 12 0
 0 1 30 12 12 0 11 20 0 0 +-0.0014998857 -0.0002048256199999997 -0.01441 1 -9.40
8384017931365e-017 0 17 13 0 98 89 49 14 8 11 0 28 -18 14 13 0 13 9 17 15 ?1 29
 15 14 0 14 18 10 -0.0014998857 -0.0002048256199999997 -0.01441 17 16 0 7 22 8 1
7 21 19 0 27 -18 17 15 0 16 14 23 18 ?1 29 18 16 0 17 24 15 -0.0010398857 -0.000
2048256199999998 0 16 19 17 0 ?21 11 25 20 0 0 1 30 20 18 0 19 26 12 0 +-0.00103
98857 -0.0002048256199999998 0 0 0 -1 17 21 0 43 44 56 9 16 19 0 49 +17 22 0 7 2
8 16 23 27 25 0 31 -18 23 19 0 22 17 45 24 ?1 29 24 20 0 23 46 18 -0.0014998857
 -0.0002048256199999997 0 16 25 21 0 ?27 19 29 26 0 0 1 30 26 22 0 25 30 20 0 +-
0.0006348857 -0.0002048256199999998 0 1 -9.408384017931365e-017 0 17 27 0 370 59
 93 17 22 25 0 56 +17 28 0 7 8 22 14 31 29 0 86 +16 29 23 0 ?28 25 47 30 0 0 1 3
0 30 24 0 29 48 26 0 +-0.0014998857 -0.0002048256199999997 0 0 0 -1 17 31 0 85 9
0 86 23 28 29 0 93 -80 1 32 0 33 8001 0 0 0 0 3 5 0 0 FFFFTFTFFFFFFF2 79 15 33 S
DL/TYSA_COLOUR83 3 34 1 1 1 19 35 1 0 1 37 0 36 V13 36 2 0 1 0 0 0 0 35 5 19 37
 3 0 1 0 35 38 S13 38 4 0 1 0 5 0 0 37 0 14 39 25 41 1e-008 60 5 43 38 40 +0 0 6
0 5 36 50 40 26 0 39 61 6 0 +-0.0010398857 1.743800000002793e-007 0 1 -2.4492935
98294706e-016 0 0 0 1 81 1 41 27 32 39 0 0 62 4 42 83 3 42 1 1 1 15 43 28 0 44 3
9 0 17 44 0 43 50 21 45 49 47 0 55 +18 45 29 0 44 23 51 46 ?1 29 46 30 0 45 52 2
4 -0.0010398857 0.0002051743800000003 -0.01441 16 47 31 0 ?44 29 53 48 0 0 1 30
 48 32 0 47 54 30 0 +-0.0010398857 -0.0002048256199999998 -0.01441 2.44929359829
4706e-016 1 0 17 49 0 98 13 70 9 44 47 0 0 -17 50 0 43 56 44 51 55 53 0 59 -18 5
1 33 0 50 45 66 52 ?1 29 52 34 0 51 67 46 -0.0010398857 0.0002051743800000003 0
 16 53 35 0 ?55 47 57 54 0 0 1 30 54 36 0 53 58 48 0 +-0.0010398857 0.0002051743
800000003 0 0 0 -1 17 55 0 64 65 77 45 50 53 0 70 +17 56 0 43 21 50 17 59 57 0 0
 -16 57 37 0 ?59 53 68 58 0 0 1 30 58 38 0 57 69 54 0 +-0.0010398857 1.767682050
736327e-005 0 2.449293598294706e-016 1 0 17 59 0 370 80 27 51 56 57 0 77 +14 60
 39 62 1e-008 81 39 64 38 61 +0 0 81 39 36 50 61 40 0 60 82 40 0 +-0.0012698857
 0.0002051743800000004 0 2.449293598294706e-016 1 0 0 0 1 81 1 62 41 32 60 0 0 8
3 41 63 83 3 63 1 1 1 15 64 42 0 65 60 0 17 65 0 64 71 55 66 70 68 0 76 +18 66 4
3 0 65 51 72 67 ?1 29 67 44 0 66 73 52 -0.0014998857 0.0002051743800000004 -0.01
441 16 68 45 0 ?65 57 74 69 0 0 1 30 69 46 0 68 75 58 0 +-0.0010398857 0.0002051
743800000003 -0.01441 -1 2.449293598294706e-016 0 17 70 0 98 49 89 45 65 68 0 0
 -17 71 0 64 77 65 72 76 74 0 90 -18 72 47 0 80 66 105 73 ?1 29 73 48 0 72 106 6
7 -0.0014998857 0.0002051743800000004 0 16 74 49 0 ?76 68 78 75 0 0 1 30 75 50 0
 74 79 69 0 +-0.0014998857 0.0002051743800000004 0 0 0 -1 17 76 0 85 86 90 66 71
 74 0 89 +17 77 0 64 55 71 51 80 78 0 0 -16 78 51 0 ?80 74 87 79 0 0 1 30 79 52
 0 78 88 75 0 +-0.0006348856999999999 0.0002051743800000002 0 -1 2.4492935982947
06e-016 0 17 80 0 370 93 59 72 77 78 0 71 +14 81 53 83 1e-008 94 60 85 38 82 +0
 0 94 60 36 50 82 54 0 81 95 61 0 +-0.0014998857 1.743800000003903e-007 0 -1 2.4
49293598294706e-016 0 0 0 -1 81 1 83 55 32 81 0 0 96 62 84 83 3 84 1 1 1 15 85 5
6 0 86 81 0 17 86 0 85 31 76 14 89 87 0 0 +16 87 57 0 ?86 78 91 88 0 0 1 30 88 5
8 0 87 92 79 0 +-0.0014998857 0.0002051743800000004 -0.01441 -2.449293598294706e
-016 -1 0 17 89 0 98 70 13 66 86 87 0 0 -17 90 0 85 76 31 72 93 91 0 0 -16 91 59
 0 ?93 87 107 92 0 0 1 30 92 60 0 91 108 88 0 +-0.0014998857 1.767682050736338e-
005 0 -2.449293598294706e-016 -1 0 17 93 0 370 27 80 23 90 91 0 0 +14 94 61 96 1
e-008 99 81 98 38 95 -0 0 99 81 36 50 95 62 0 94 100 82 0 +-0.0012698857 1.74380
0000003348e-007 -0.01441 0 0 1 1 -2.449293598294706e-016 0 81 1 96 63 32 94 0 0
 101 83 97 83 3 97 1 1 1 15 98 64 0 13 94 0 14 99 65 101 1e-008 128 94 103 38 10
0 +0 0 128 94 36 50 100 66 0 99 129 95 0 +0.0012701143 0.0002051743799999997 0 2
.449293598294706e-016 1 0 0 0 1 81 1 101 67 32 99 0 0 130 96 102 83 3 102 1 1 1
 15 103 68 0 104 99 0 17 104 0 103 112 124 105 109 107 0 117 +18 105 69 0 104 72
 110 106 ?1 29 106 70 0 105 111 73 0.0010401143 0.0002051743799999998 -0.01441 1
6 107 71 0 ?104 91 115 108 0 0 1 30 108 72 0 107 116 92 0 +0.0010401143 0.000205
1743799999998 -0.01441 -1 2.449293598294706e-016 0 17 109 0 187 178 138 110 104
 107 0 124 -18 110 73 0 109 105 113 111 ?1 29 111 74 0 110 114 106 0.0015001143
 0.0002051743799999996 -0.01441 17 112 0 103 118 104 113 117 115 0 123 -18 113 7
5 0 112 110 119 114 ?1 29 114 76 0 113 120 111 0.0010401143 0.000205174379999999
8 0 16 115 77 0 ?117 107 121 116 0 0 1 30 116 78 0 115 122 108 0 +0.0010401143 0
.0002051743799999998 0 0 0 -1 17 117 0 132 133 145 105 112 115 0 138 +17 118 0 1
03 124 112 119 123 121 0 127 -18 119 79 0 118 113 134 120 ?1 29 120 80 0 119 135
 114 0.0015001143 0.0002051743799999996 0 16 121 81 0 ?123 115 125 122 0 0 1 30
 122 82 0 121 126 116 0 +0.0006351143000000001 0.0002051743799999999 0 -1 2.4492
93598294706e-016 0 17 123 0 371 148 182 113 118 121 0 145 +17 124 0 103 104 118
 110 127 125 0 175 +16 125 83 0 ?124 121 136 126 0 0 1 30 126 84 0 125 137 122 0
 +0.0015001143 0.0002051743799999996 0 0 0 -1 17 127 0 174 179 175 119 124 125 0
 182 -14 128 85 130 1e-008 149 99 132 38 129 +0 0 149 99 36 50 129 86 0 128 150
 100 0 +0.0010401143 1.743799999997797e-007 0 -1 2.449293598294706e-016 0 0 0 -1
 81 1 130 87 32 128 0 0 151 101 131 83 3 131 1 1 1 15 132 88 0 133 128 0 17 133
 0 132 139 117 134 138 136 0 144 +18 134 89 0 133 119 140 135 ?1 29 135 90 0 134
 141 120 0.0010401143 -0.0002048256200000003 -0.01441 16 136 91 0 ?133 125 142 1
37 0 0 1 30 137 92 0 136 143 126 0 +0.0010401143 -0.0002048256200000003 -0.01441
 -2.449293598294706e-016 -1 0 17 138 0 187 109 159 105 133 136 0 0 -17 139 0 132
 145 133 140 144 142 0 148 -18 140 93 0 139 134 155 141 ?1 29 141 94 0 140 156 1
35 0.0010401143 -0.0002048256200000003 0 16 142 95 0 ?144 136 146 143 0 0 1 30 1
43 96 0 142 147 137 0 +0.0010401143 -0.0002048256200000003 0 0 0 -1 17 144 0 153
 154 166 134 139 142 0 159 +17 145 0 132 117 139 113 148 146 0 0 -16 146 97 0 ?1
48 142 157 147 0 0 1 30 147 98 0 146 158 143 0 +0.0010401143 1.767682050736277e-
005 0 -2.449293598294706e-016 -1 0 17 148 0 371 169 123 140 145 146 0 166 +14 14
9 99 151 1e-008 170 128 153 38 150 +0 0 170 128 36 50 150 100 0 149 171 129 0 +0
.0012701143 -0.0002048256200000004 0 -3.957748794796276e-016 -1 0 -1 3.957748794
796276e-016 0 81 1 151 101 32 149 0 0 172 130 152 83 3 152 1 1 1 15 153 102 0 15
4 149 0 17 154 0 153 160 144 155 159 157 0 165 +18 155 103 0 154 140 161 156 ?1
 29 156 104 0 155 162 141 0.0015001143 -0.0002048256200000004 -0.01441 16 157 10
5 0 ?154 146 163 158 0 0 1 30 158 106 0 157 164 147 0 +0.0015001143 -0.000204825
6200000004 -0.01441 1 -3.957748794796276e-016 0 17 159 0 187 138 178 134 154 157
 0 0 -17 160 0 153 166 154 161 165 163 0 169 -18 161 107 0 160 155 194 162 ?1 29
 162 108 0 161 195 156 0.0015001143 -0.0002048256200000004 0 16 163 109 0 ?165 1
57 167 164 0 0 1 30 164 110 0 163 168 158 0 +0.0015001143 -0.0002048256200000004
 0 0 0 -1 17 165 0 174 175 179 155 160 163 0 178 +17 166 0 153 144 160 140 169 1
67 0 0 -16 167 111 0 ?169 163 176 168 0 0 1 30 168 112 0 167 177 164 0 +0.000635
1143 -0.0002048256200000001 0 1 -3.957748794796276e-016 0 17 169 0 371 182 148 1
61 166 167 0 179 +14 170 113 172 1e-008 183 149 174 38 171 +0 0 183 149 36 50 17
1 114 0 170 184 150 0 +0.0015001143 1.743799999996687e-007 0 1 -2.44929359829470
6e-016 0 0 0 1 81 1 172 115 32 170 0 0 185 151 173 83 3 173 1 1 1 15 174 116 0 1
75 170 0 17 175 0 174 127 165 110 178 176 0 0 +16 176 117 0 ?175 167 180 177 0 0
 1 30 177 118 0 176 181 168 0 +0.0015001143 0.0002051743799999996 -0.01441 2.449
293598294706e-016 1 0 17 178 0 187 159 109 155 175 176 0 0 -17 179 0 174 165 127
 161 182 180 0 0 -16 180 119 0 ?182 176 196 181 0 0 1 30 181 120 0 180 197 177 0
 +0.0015001143 1.767682050736266e-005 0 2.449293598294706e-016 1 0 17 182 0 371
 123 169 119 179 180 0 0 +14 183 121 185 1e-008 188 170 187 38 184 -0 0 188 170
 36 50 184 122 0 183 189 171 0 +0.0012701143 1.743799999997242e-007 -0.01441 0 0
 1 1 -2.449293598294706e-016 0 81 1 185 123 32 183 0 0 190 172 186 83 3 186 1 1
 1 15 187 124 0 109 183 0 14 188 125 190 1e-008 217 183 192 38 189 +0 0 217 183
 36 50 189 126 0 188 218 184 0 +1.14300000000098e-007 0.0002051743800000001 0 2.
449293598294706e-016 1 0 0 0 1 81 1 190 127 32 188 0 0 219 185 191 83 3 191 1 1
 1 15 192 128 0 193 188 0 17 193 0 192 201 213 194 198 196 0 206 +18 194 129 0 1
93 161 199 195 ?1 29 195 130 0 194 200 162 -0.0002298856999999999 0.000205174380
0000001 -0.01441 16 196 131 0 ?193 180 204 197 0 0 1 30 197 132 0 196 205 181 0
 +-0.0002298856999999999 0.0002051743800000001 -0.01441 -1 2.449293598294706e-01
6 0 17 198 0 276 267 227 199 193 196 0 213 -18 199 133 0 198 194 202 200 ?1 29 2
00 134 0 199 203 195 0.0002301143000000001 0.00020517438 -0.01441 17 201 0 192 2
07 193 202 206 204 0 212 -18 202 135 0 201 199 208 203 ?1 29 203 136 0 202 209 2
00 -0.0002298856999999999 0.0002051743800000001 0 16 204 137 0 ?206 196 210 205
 0 0 1 30 205 138 0 204 211 197 0 +-0.0002298856999999999 0.0002051743800000001
 0 0 0 -1 17 206 0 221 222 234 194 201 204 0 227 +17 207 0 192 213 201 208 212 2
10 0 216 -18 208 139 0 207 202 223 209 ?1 29 209 140 0 208 224 203 0.00023011430
00000001 0.00020517438 0 16 210 141 0 ?212 204 214 211 0 0 1 30 211 142 0 210 21
5 205 0 +1.14300000000098e-007 0.0002051743800000001 0 -1 2.449293598294706e-016
 0 17 212 0 372 237 271 202 207 210 0 234 +17 213 0 192 193 207 199 216 214 0 26
4 +16 214 143 0 ?213 210 225 215 0 0 1 30 215 144 0 214 226 211 0 +0.00023011430
00000001 0.00020517438 0 0 0 -1 17 216 0 263 268 264 208 213 214 0 271 -14 217 1
45 219 1e-008 238 188 221 38 218 +0 0 238 188 36 50 218 146 0 217 239 189 0 +-0.
0002298856999999999 1.74380000000085e-007 0 -1 3.295500171941929e-016 0 -3.29550
0171941929e-016 -1 0 81 1 219 147 32 217 0 0 240 190 220 83 3 220 1 1 1 15 221 1
48 0 222 217 0 17 222 0 221 228 206 223 227 225 0 233 +18 223 149 0 222 208 229
 224 ?1 29 224 150 0 223 230 209 -0.0002298857 -0.00020482562 -0.01441 16 225 15
1 0 ?222 214 231 226 0 0 1 30 226 152 0 225 232 215 0 +-0.0002298857 -0.00020482
562 -0.01441 -3.295500171941929e-016 -1 0 17 227 0 276 198 248 194 222 225 0 0 -
17 228 0 221 234 222 229 233 231 0 237 -18 229 153 0 228 223 244 230 ?1 29 230 1
54 0 229 245 224 -0.0002298857 -0.00020482562 0 16 231 155 0 ?233 225 235 232 0
 0 1 30 232 156 0 231 236 226 0 +-0.0002298857 -0.00020482562 0 0 0 -1 17 233 0
 242 243 255 223 228 231 0 248 +17 234 0 221 206 228 202 237 235 0 0 -16 235 157
 0 ?237 231 246 236 0 0 1 30 236 158 0 235 247 232 0 +-0.0002298856999999999 1.7
67682050736308e-005 0 -3.295500171941929e-016 -1 0 17 237 0 372 258 212 229 234
 235 0 255 +14 238 159 240 1e-008 259 217 242 38 239 +0 0 259 217 36 50 239 160
 0 238 260 218 0 +1.142999999999629e-007 -0.0002048256200000001 0 -3.95774879479
6276e-016 -1 0 -1 3.957748794796276e-016 0 81 1 240 161 32 238 0 0 261 219 241 8
3 3 241 1 1 1 15 242 162 0 243 238 0 17 243 0 242 249 233 244 248 246 0 254 +18
 244 163 0 243 229 250 245 ?1 29 245 164 0 244 251 230 0.0002301143 -0.000204825
6200000001 -0.01441 16 246 165 0 ?243 235 252 247 0 0 1 30 247 166 0 246 253 236
 0 +0.0002301143 -0.0002048256200000001 -0.01441 1 -3.957748794796276e-016 0 17
 248 0 276 227 267 223 243 246 0 0 -17 249 0 242 255 243 250 254 252 0 258 -18 2
50 167 0 249 244 283 251 ?1 29 251 168 0 250 284 245 0.0002301143 -0.00020482562
00000001 0 16 252 169 0 ?254 246 256 253 0 0 1 30 253 170 0 252 257 247 0 +0.000
2301143 -0.0002048256200000001 0 0 0 -1 17 254 0 263 264 268 244 249 252 0 267 +
17 255 0 242 233 249 229 258 256 0 0 -16 256 171 0 ?258 252 265 257 0 0 1 30 257
 172 0 256 266 253 0 +1.142999999999621e-007 -0.0002048256200000001 0 1 -3.95774
8794796276e-016 0 17 258 0 372 271 237 250 255 256 0 268 +14 259 173 261 1e-008
 272 238 263 38 260 +0 0 272 238 36 50 260 174 0 259 273 239 0 +0.00023011430000
00001 1.74379999999974e-007 0 1 -3.295500171941929e-016 0 3.295500171941929e-016
 1 0 81 1 261 175 32 259 0 0 274 240 262 83 3 262 1 1 1 15 263 176 0 264 259 0 1
7 264 0 263 216 254 199 267 265 0 0 +16 265 177 0 ?264 256 269 266 0 0 1 30 266
 178 0 265 270 257 0 +0.0002301143000000001 0.00020517438 -0.01441 3.29550017194
1929e-016 1 0 17 267 0 276 248 198 244 264 265 0 0 -17 268 0 263 254 216 250 271
 269 0 0 -16 269 179 0 ?271 265 285 270 0 0 1 30 270 180 0 269 286 266 0 +0.0002
301143000000001 1.767682050736297e-005 0 3.295500171941929e-016 1 0 17 271 0 372
 212 258 208 268 269 0 0 +14 272 181 274 1e-008 277 259 276 38 273 -0 0 277 259
 36 50 273 182 0 272 278 260 0 +1.143000000000424e-007 1.743800000000295e-007 -0
.01441 0 0 1 1 -2.449293598294706e-016 0 81 1 274 183 32 272 0 0 279 261 275 83
 3 275 1 1 1 15 276 184 0 198 272 0 14 277 185 279 1e-008 306 272 281 38 278 +0
 0 306 272 36 50 278 186 0 277 307 273 0 +-0.0022223857 -0.0008323256199999993 0
 -0.9708106192992645 -0.2398473294739358 0 0.2398473294739358 -0.970810619299264
5 0 81 1 279 187 32 277 0 0 308 274 280 83 3 280 0.2117647081613541 0.2117647081
613541 0.2117647081613541 15 281 188 0 282 277 0 17 282 0 281 290 302 283 287 28
5 0 295 +18 283 189 0 282 250 288 284 ?1 29 284 190 0 283 289 251 -0.0023798857
 -0.0001948256199999994 0.004825 16 285 191 0 ?282 269 293 286 0 0 1 30 286 192
 0 285 294 270 0 +-0.002064885700000001 -0.00146982562 0.004825 -0.2398473294739
359 0.9708106192992644 0 17 287 0 365 356 316 288 282 285 0 302 -18 288 193 0 28
7 283 291 289 ?1 29 289 194 0 288 292 284 -0.002064885700000001 -0.00146982562 0
.004825 17 290 0 281 296 282 291 295 293 0 301 -18 291 195 0 323 288 297 292 ?1
 29 292 196 0 291 298 289 -0.0023798857 -0.0001948256199999994 0 16 293 197 0 ?2
95 285 299 294 0 0 1 30 294 198 0 293 300 286 0 +-0.0023798857 -0.00019482561999
99994 0 0 0 1 17 295 0 310 311 323 283 290 293 0 316 +17 296 0 281 302 290 297 3
01 299 0 305 -18 297 199 0 296 291 312 298 ?1 29 298 200 0 297 313 292 -0.002064
885700000001 -0.00146982562 0 16 299 201 0 ?301 293 303 300 0 0 1 30 300 202 0 2
99 304 294 0 +-0.002064885700000001 -0.00146982562 0 -0.2398473294739359 0.97081
06192992644 0 17 301 0 373 326 360 291 296 299 0 0 +17 302 0 281 282 296 288 305
 303 0 353 +16 303 203 0 ?302 299 314 304 0 0 1 30 304 204 0 303 315 300 0 +-0.0
02064885700000001 -0.00146982562 0 0 0 1 17 305 0 352 357 353 297 302 303 0 360
 -14 306 205 308 1e-008 327 277 310 38 307 +0 0 327 277 36 51 307 206 0 306 328
 278 0 +1.143e-007 -0.00019482562 0 0 0 1 0.00238 1 -2.449293598294706e-016 0 81
 1 308 207 32 306 0 0 329 279 309 83 3 309 0.2117647081613541 0.2117647081613541
 0.2117647081613541 15 310 208 0 311 306 0 17 311 0 310 317 295 312 316 314 0 32
2 +18 312 209 0 337 297 318 313 ?1 29 313 210 0 312 319 298 0.0023801143 -0.0001
948256200000006 0.004825 16 314 211 0 ?311 303 320 315 0 0 1 31 315 212 0 314 32
1 304 0 +1.143e-007 -0.00019482562 0.004825 0 -0 -1 1 -2.449293598294706e-016 0
 0.00238 17 316 0 365 287 337 283 311 314 0 0 -17 317 0 310 323 311 318 322 320
 0 0 -18 318 213 0 326 312 333 319 ?1 29 319 214 0 318 334 313 0.0023801143 -0.0
001948256200000006 0 16 320 215 0 ?322 314 324 321 0 0 1 30 321 216 0 320 325 31
5 0 +0.0023801143 -0.0001948256200000006 0 0 0 1 17 322 0 331 332 344 312 317 32
0 0 0 +17 323 0 310 295 317 291 326 324 0 290 +16 324 217 0 ?323 320 335 325 0 0
 1 31 325 218 0 324 336 321 0 +1.143e-007 -0.00019482562 0 -0 0 1 1 -2.449293598
294706e-016 0 0.00238 17 326 0 373 347 301 318 323 324 0 344 -14 327 219 329 1e-
008 348 306 331 38 328 +0 0 348 306 36 50 328 220 0 327 349 307 0 +0.0022226143
 -0.0008323256200000004 0 0.9708106192992643 -0.2398473294739363 0 0.23984732947
39363 0.9708106192992643 0 81 1 329 221 32 327 0 0 350 308 330 83 3 330 0.211764
7081613541 0.2117647081613541 0.2117647081613541 15 331 222 0 332 327 0 17 332 0
 331 338 322 333 337 335 0 343 +18 333 223 0 332 318 339 334 ?1 29 334 224 0 333
 340 319 0.0020651143 -0.001469825620000001 0.004825 16 335 225 0 ?332 324 341 3
36 0 0 1 30 336 226 0 335 342 325 0 +0.0023801143 -0.0001948256200000006 0.00482
5 -0.2398473294739364 -0.9708106192992643 0 17 337 0 365 316 356 312 332 335 0 3
11 -17 338 0 331 344 332 339 343 341 0 347 -18 339 227 0 338 333 0 340 ?1 29 340
 228 0 339 0 334 0.0020651143 -0.001469825620000001 0 16 341 229 0 ?343 335 345
 342 0 0 1 30 342 230 0 341 346 336 0 +0.0020651143 -0.001469825620000001 0 0 0
 1 17 343 0 352 353 357 333 338 341 0 356 +17 344 0 331 322 338 318 347 345 0 31
7 -16 345 231 0 ?347 341 354 346 0 0 1 30 346 232 0 345 355 342 0 +0.0023801143
 -0.0001948256200000006 0 -0.2398473294739364 -0.9708106192992643 0 17 347 0 373
 360 326 339 344 345 0 357 +14 348 233 350 1e-008 361 327 352 38 349 +0 0 361 32
7 36 50 349 234 0 348 362 328 0 +1.142999999996877e-007 -0.00146982562 0 -2.4492
93598294706e-016 -1 0 0 -0 -1 81 1 350 235 32 348 0 0 363 329 351 83 3 351 0.211
7647081613541 0.2117647081613541 0.2117647081613541 15 352 236 0 353 348 0 17 35
3 0 352 305 343 288 356 354 0 0 +16 354 237 0 ?353 345 358 355 0 0 1 30 355 238
 0 354 359 346 0 +0.0020651143 -0.001469825620000001 0.004825 -1 2.4492935982947
06e-016 0 17 356 0 365 337 287 333 353 354 0 0 -17 357 0 352 343 305 339 360 358
 0 0 -16 358 239 0 ?360 354 0 359 0 0 1 30 359 240 0 358 0 355 0 +0.0020651143 -
0.001469825620000001 0 -1 2.449293598294706e-016 0 17 360 0 373 301 347 297 357
 358 0 0 +14 361 241 363 1e-008 366 348 365 38 362 +0 0 366 348 36 50 362 242 0
 361 367 349 0 +1.143000000000563e-007 3.517926101472602e-005 0.004825 0 0 1 1 -
2.449293598294706e-016 0 81 1 363 243 32 361 0 0 368 350 364 83 3 364 0.21176470
81613541 0.2117647081613541 0.2117647081613541 15 365 244 0 287 361 0 14 366 245
 368 1e-008 0 361 370 38 367 -0 0 0 361 36 50 367 246 0 366 0 362 0 +1.143000000
000563e-007 3.517926101472602e-005 0 0 0 1 1 -2.449293598294706e-016 0 81 1 368
 247 32 366 0 0 0 363 369 83 3 369 0.2117647081613541 0.2117647081613541 0.21176
47081613541 15 370 248 0 27 366 371 15 371 249 0 123 366 372 15 372 250 0 212 36
6 373 15 373 251 0 360 366 0 1 0 
