**ABCDEFGHIJKLMNOPQRSTUVWXYZabcdefghijklmnopqrstuvwxyz**************************
**PARASOLID !"#$%&'()*+,-./:;<=>?@[\]^_`{|}~0123456789**************************
**PART1;
MC=AMD64;
MC_MODEL=Intel64 Family 6 Model 69 Stepping 1, GenuineIntel;
MC_ID=unknown;
OS=Windows_NT;
OS_RELEASE=unknown;
FRU=CAD Exchanger 3.6.1 (cadexchanger.com);
APPL=unknown;
SITE=unknown;
USER=unknown;
FORMAT=text;
GUISE=transmit;
KEY=Diode_10.16mm_TH_H_Diodes;
FILE=Diode_10.16mm_TH_H_Diodes.x_t;
DATE=Tue Dec 15 01:37:22 2020;
**PART2;
SCH=SCH_1200000_12006;
USFLD_SIZE=0;
**PART3;
**END_OF_HEADER*****************************************************************
T51 : TRANSMIT FILE created by modeller version 120000017 SCH_1200000_120060 12
 1 332 0 2 0 0 0 0 1000 1e-008 0 0 0 1 0 1 1 38 6 12 10 35 11 9 70 2 0 1 0 0 4 1
 20 0 3 3 1 T74 20 3 1 0 4 0 0 0 0 0 0 0 0 0 0 0 0 0 0 0 0 0 0 0 81 1 4 7 32 5 0
 0 41 0 34 14 5 5 4 1e-008 39 0 7 38 6 +0 0 39 0 36 54 6 6 0 5 40 0 0 +-0.004079
918719999999 8.128000000224355e-008 0.0003600000000000643 -2.449293598294706e-01
6 -1 0 0.0009999999999999998 0.0004320000000000174 0 0 -1 15 7 8 0 8 5 0 17 8 0
 7 16 28 9 13 11 0 21 +18 9 9 0 8 0 14 10 ?1 29 10 10 0 9 15 0 -0.00407991871999
9991 8.128000000224355e-008 0.001792000000000081 16 11 11 0 ?8 0 19 12 0 0 1 31
 12 12 0 11 20 0 0 +-0.004079918719999991 8.128000000224355e-008 0.0013600000000
00064 -1 2.449293598294706e-016 -1.608122649676637e-016 -1.608122649676637e-016
 3.938764511125708e-032 1 0.0004320000000000174 17 13 0 473 200 208 14 8 11 0 19
7 -18 14 13 0 13 9 17 15 ?1 29 15 14 0 14 18 10 -0.004079918719999991 8.12800000
0229646e-008 0.0009280000000000464 17 16 0 7 22 8 17 21 19 0 27 +18 17 15 0 16 1
4 23 18 ?1 29 18 16 0 17 24 15 -0.005511918720000015 8.128000000259429e-008 0.00
03600000000000704 16 19 17 0 ?16 11 25 20 0 0 1 31 20 18 0 19 26 12 0 +-0.004079
918719999999 8.128000000224355e-008 0.0003600000000000643 -2.449293598294706e-01
6 -1 -0 0 0 -1 0.001432000000000017 17 21 0 468 204 217 9 16 19 0 201 -17 22 0 7
 28 16 23 27 25 0 31 -18 23 19 0 22 17 45 24 ?1 29 24 20 0 23 46 18 -0.004647918
719999976 8.128000000243557e-008 0.0003600000000000703 16 25 21 0 ?27 19 29 26 0
 0 1 31 26 22 0 25 30 20 0 +-0.005079918719999995 8.128000000248849e-008 0.00036
00000000000703 -1.224646799147354e-016 2.999519565323716e-032 -1 -1 2.4492935982
94706e-016 1.224646799147354e-016 0.0004320000000000174 17 27 0 459 225 221 17 2
2 25 0 217 +17 28 0 7 8 22 14 31 29 0 0 -16 29 23 0 ?31 25 47 30 0 0 1 31 30 24
 0 29 48 26 0 +-0.004079918719999999 8.128000000229646e-008 0.000360000000000064
3 -2.449293598294706e-016 -1 -0 0 0 -1 0.0005679999999999826 17 31 0 468 217 204
 23 28 29 0 214 +80 1 32 0 33 8001 0 0 0 0 3 5 0 0 FFFFTFTFFFFFFF2 79 15 33 SDL/
TYSA_COLOUR83 3 34 0.8980392217636108 0.9176470637321472 0.929411768913269 19 35
 1 0 1 37 0 36 V13 36 2 0 1 0 0 0 0 35 5 19 37 3 0 1 0 35 38 S13 38 4 0 1 0 5 0
 0 37 0 14 39 25 41 1e-008 68 5 43 38 40 +0 0 68 5 36 54 40 26 0 39 69 6 0 +0.00
4080081280000003 8.128000000024494e-008 0.0003600000000000079 -2.449293598294706
e-016 -1 0 0.0009999999999999989 0.0004320000000000174 0 0 -1 81 1 41 27 32 39 0
 0 70 4 42 83 3 42 0.8980392217636108 0.9176470637321472 0.929411768913269 15 43
 28 0 44 39 0 17 44 0 43 52 64 45 49 47 0 57 +18 45 29 0 44 23 50 46 ?1 29 46 30
 0 45 51 24 0.00551208128000002 8.127999999994708e-008 0.000360000000000001 16 4
7 31 0 ?44 29 55 48 0 0 1 31 48 32 0 47 56 30 0 +0.005080081280000003 8.128e-008
 0.000360000000000001 -0 0 1 1 -2.449293598294706e-016 0 0.0004320000000000174 1
7 49 0 389 317 313 50 44 47 0 64 -18 50 33 0 49 45 53 51 ?1 29 51 34 0 50 54 46
 0.004648081279999985 8.12800000001058e-008 0.000360000000000001 17 52 0 43 58 4
4 53 57 55 0 63 +18 53 35 0 52 50 59 54 ?1 29 54 36 0 53 60 51 0.004080081280000
01 8.128000000024494e-008 0.001792000000000024 16 55 37 0 ?52 47 61 56 0 0 1 31
 56 38 0 55 62 48 0 +0.004080081280000003 8.128000000024494e-008 0.0003600000000
000079 -2.449293598294706e-016 -1 -0 0 0 -1 0.001432000000000016 17 57 0 398 309
 284 45 52 55 0 306 -17 58 0 43 64 52 59 63 61 0 67 -18 59 39 0 58 53 74 60 ?1 2
9 60 40 0 59 75 54 0.00408008128000001 8.128000000029782e-008 0.0009279999999999
894 16 61 41 0 ?63 55 65 62 0 0 1 31 62 42 0 61 66 56 0 +0.00408008128000001 8.1
28000000024494e-008 0.001360000000000007 -1 2.449293598294706e-016 -1.6081226496
76637e-016 -1.608122649676637e-016 3.938764511125708e-032 1 0.000432000000000017
4 17 63 0 403 300 290 53 58 61 0 284 +17 64 0 43 44 58 50 67 65 0 309 -16 65 43
 0 ?67 61 76 66 0 0 1 31 66 44 0 65 77 62 0 +0.004080081280000003 8.128000000029
782e-008 0.0003600000000000079 -2.449293598294706e-016 -1 -0 0 0 -1 0.0005679999
999999817 17 67 0 398 284 309 59 64 65 0 281 +14 68 45 70 1e-008 97 39 72 38 69
 +0 0 97 39 36 54 69 46 0 68 98 40 0 +-0.002554918720000001 8.128000000187003e-0
08 0.001360000000000007 1 -2.449293598294706e-016 0 0.00131 5e-005 0 0 -1 81 1 7
0 47 32 68 0 0 99 41 71 83 3 71 0.09803921729326248 0.09803921729326248 0.098039
21729326248 15 72 48 0 73 68 0 17 73 0 72 81 93 74 78 76 0 86 -18 74 49 0 73 59
 79 75 ?1 29 75 50 0 74 80 60 -0.002604918720000001 8.128000000204577e-008 0.002
670000000000007 16 76 51 0 ?78 65 84 77 0 0 1 31 77 52 0 76 85 66 0 +-0.00260491
8720000001 8.128000000188228e-008 0.001360000000000007 -1 2.449293598294706e-016
 0 0 0 -1 0.00131 17 78 0 427 428 428 79 73 76 0 93 +18 79 53 0 78 74 82 80 ?1 2
9 80 54 0 79 83 75 -0.002604918720000001 8.128000000188228e-008 5.00000000000068
5e-005 17 81 0 72 87 73 82 86 84 0 92 +18 82 55 0 246 79 88 83 ?1 29 83 56 0 82
 89 80 -0.002554918720000001 8.128000000187002e-008 0.002720000000000008 16 84 5
7 0 ?81 76 90 85 0 0 1 31 85 58 0 84 91 77 0 +-0.002554918720000001 8.1280000002
03047e-008 0.002670000000000007 2.449293598294706e-016 1 -1.224646799147354e-016
 2.999519565323716e-032 1.224646799147354e-016 1 5.000000000000014e-005 17 86 0
 493 431 445 74 81 84 0 428 -17 87 0 72 93 81 88 92 90 0 96 -18 88 59 0 239 82 1
03 89 ?1 29 89 60 0 88 104 83 -0.002554918720000001 8.128000000203658e-008 6.938
89390390723e-018 16 90 61 0 ?92 84 94 91 0 0 1 31 91 62 0 90 95 85 0 +-0.0025549
18720000001 8.128000000187003e-008 0.001360000000000007 1 -2.449293598294706e-01
6 0 0 0 -1 0.00136 17 92 0 230 243 239 82 87 90 0 445 +17 93 0 72 73 87 79 96 94
 0 431 -16 94 63 0 ?96 90 105 95 0 0 1 31 95 64 0 94 106 91 0 +-0.00255491872000
0001 8.128000000187003e-008 5.000000000000685e-005 -2.449293598294706e-016 -1 -0
 0 0 -1 5e-005 17 96 0 493 445 431 88 93 94 0 442 +14 97 65 99 1e-008 126 68 101
 38 98 +0 0 126 68 36 54 98 66 0 97 127 69 0 +0.00255508128 8.128000000056052e-0
08 0.001360000000000007 1 -1.199410605120403e-016 0 0.001310000000000001 5e-005
 1.199410605120403e-016 1 0 81 1 99 67 32 97 0 0 128 70 100 83 3 100 0.098039217
29326248 0.09803921729326248 0.09803921729326248 15 101 68 0 102 97 0 17 102 0 1
01 110 122 103 107 105 0 358 -18 103 69 0 331 88 108 104 ?1 29 104 70 0 103 109
 89 0.002555081279999999 -0.00135991872 0.001360000000000007 16 105 71 0 ?107 94
 113 106 0 0 1 31 106 72 0 105 114 95 0 +0.00255508128 8.128000000056052e-008 0.
001360000000000007 -1 1.199410605120403e-016 0 1.199410605120403e-016 1 0 0.0013
6 17 107 0 322 335 331 108 102 105 0 361 +18 108 73 0 122 103 111 109 ?1 29 109
 74 0 108 112 104 0.00255508128 0.001360081280000001 0.001360000000000007 17 110
 0 101 116 102 111 115 113 0 121 +18 111 75 0 110 108 117 112 ?1 29 112 76 0 111
 118 109 0.002605081279999999 -0.00130991872 0.001360000000000007 16 113 77 0 ?1
10 105 119 114 0 0 1 31 114 78 0 113 120 106 0 +0.002555081279999999 -0.00130991
872 0.001360000000000007 1.468854358424093e-032 1.224646799147354e-016 1 -2.4492
93598294706e-016 -1 1.224646799147354e-016 4.999999999999992e-005 17 115 0 488 3
61 370 103 110 113 0 102 -17 116 0 101 122 110 117 121 119 0 367 -18 117 79 0 12
5 111 132 118 ?1 29 118 80 0 117 133 112 0.00260508128 0.001310081280000001 0.00
1360000000000007 16 119 81 0 ?121 113 123 120 0 0 1 31 120 82 0 119 124 114 0 +0
.00260508128 8.128000000055451e-008 0.001360000000000007 1 -1.199410605120403e-0
16 0 1.199410605120403e-016 1 0 0.001310000000000001 17 121 0 366 367 367 111 11
6 119 0 370 +17 122 0 101 102 116 108 125 123 0 338 -16 123 83 0 ?125 119 134 12
4 0 0 1 31 124 84 0 123 135 120 0 +0.00255508128 0.001310081280000001 0.00136000
0000000007 0 0 -1 -1 2.449293598294706e-016 0 5.000000000000014e-005 17 125 0 48
8 370 361 117 122 123 0 116 +14 126 85 128 1e-008 155 97 130 38 127 +0 0 155 97
 36 54 127 86 0 126 156 98 0 +-0.005079918720000016 8.128000000248849e-008 -0.00
254999999999993 -1.224646799147354e-016 2.999519565323716e-032 -1 0.000382000000
0000174 5e-005 -1 2.449293598294706e-016 1.224646799147354e-016 81 1 128 87 32 1
26 0 0 157 99 129 83 3 129 0.8980392217636108 0.9176470637321472 0.9294117689132
69 15 130 88 0 131 126 0 17 131 0 130 139 151 132 136 134 0 144 -18 132 89 0 131
 117 137 133 ?1 29 133 90 0 132 138 118 -0.004647918719999996 8.128000000243557e
-008 -0.002549999999999929 16 134 91 0 ?136 123 142 135 0 0 1 31 135 92 0 134 14
3 124 0 +-0.005079918720000016 8.128000000248849e-008 -0.002549999999999929 1.22
4646799147354e-016 -2.999519565323716e-032 1 -1 2.449293598294706e-016 1.2246467
99147354e-016 0.0004320000000000174 17 136 0 213 222 218 137 131 134 0 151 +18 1
37 93 0 136 132 140 138 ?1 29 138 94 0 137 141 133 -0.005511918720000033 8.12800
0000259429e-008 -0.002549999999999929 17 139 0 130 145 131 140 144 142 0 150 +18
 140 95 0 139 137 146 141 ?1 29 141 96 0 140 147 138 -0.004697918719999999 8.128
000000244476e-008 -0.00259999999999993 16 142 97 0 ?139 134 148 143 0 0 1 31 143
 98 0 142 149 135 0 +-0.004697918719999999 8.12800000024417e-008 -0.002549999999
99993 1.224646799147353e-016 1 1.499759782661857e-032 -1 1.224646799147353e-016
 1.002731953952235e-062 4.999999999999971e-005 17 144 0 483 463 454 132 139 142
 0 218 -17 145 0 130 151 139 146 150 148 0 154 -18 146 99 0 145 140 161 147 ?1 2
9 147 100 0 146 162 141 -0.005461918720000032 8.128000000258203e-008 -0.00259999
999999993 16 148 101 0 ?150 142 152 149 0 0 1 31 149 102 0 148 153 143 0 +-0.005
079918720000016 8.128000000248849e-008 -0.00259999999999993 -1.224646799147354e-
016 2.999519565323716e-032 -1 -1 2.449293598294706e-016 1.224646799147354e-016 0
.0003820000000000178 17 150 0 450 451 451 140 145 148 0 454 +17 151 0 130 131 14
5 137 154 152 0 225 -16 152 103 0 ?154 148 163 153 0 0 1 31 153 104 0 152 164 14
9 0 +-0.005461918720000032 8.128000000258203e-008 -0.00254999999999993 -2.449293
598294706e-016 -1 -0 0 0 -1 5.000000000000014e-005 17 154 0 483 454 463 146 151
 152 0 451 +14 155 105 157 1e-008 184 126 159 38 156 +0 0 184 126 36 54 156 106
 0 155 185 127 0 +0.005080081279999983 8.128e-008 -0.002550000000000001 0 0 1 0.
0003820000000000174 5e-005 1 -2.449293598294706e-016 0 81 1 157 107 32 155 0 0 1
86 128 158 83 3 158 0.8980392217636108 0.9176470637321472 0.929411768913269 15 1
59 108 0 160 155 0 17 160 0 159 168 180 161 165 163 0 173 -18 161 109 0 160 146
 166 162 ?1 29 162 110 0 161 167 147 0.004698081279999965 8.128000000014341e-008
 -0.0026 16 163 111 0 ?165 152 171 164 0 0 1 31 164 112 0 163 172 153 0 +0.00508
0081279999983 8.128e-008 -0.0026 0 -0 -1 1 -2.449293598294706e-016 0 0.000382000
0000000174 17 165 0 380 381 381 166 160 163 0 384 +18 166 113 0 180 161 169 167
 ?1 29 167 114 0 166 170 162 0.00546208128 8.127999999990643e-008 -0.0026 17 168
 0 159 174 160 169 173 171 0 179 +18 169 115 0 168 166 175 170 ?1 29 170 116 0 1
69 176 167 0.004648081279999965 8.12800000001058e-008 -0.00255 16 171 117 0 ?168
 163 177 172 0 0 1 31 172 118 0 171 178 164 0 +0.004698081279999965 8.1280000000
14034e-008 -0.002550000000000001 3.67394039744206e-016 1 -0 -1 3.67394039744206e
-016 0 5.000000000000002e-005 17 173 0 478 384 393 161 168 171 0 381 -17 174 0 1
59 180 168 175 179 177 0 310 -18 175 119 0 183 169 190 176 ?1 29 176 120 0 175 1
91 170 0.005512081279999999 8.127999999994708e-008 -0.00255 16 177 121 0 ?179 17
1 181 178 0 0 1 31 178 122 0 177 182 172 0 +0.005080081279999983 8.128e-008 -0.0
0255 -0 0 1 1 -2.449293598294706e-016 0 0.0004320000000000174 17 179 0 305 314 3
10 169 174 177 0 393 +17 180 0 159 160 174 166 183 181 0 165 -16 181 123 0 ?183
 177 192 182 0 0 1 31 182 124 0 181 193 178 0 +0.00546208128 8.127999999990643e-
008 -0.002550000000000001 -2.449293598294706e-016 -1 -0 0 0 -1 5.000000000000014
e-005 17 183 0 478 393 384 175 180 181 0 174 +14 184 125 186 1e-008 209 155 188
 38 185 +0 0 209 155 36 51 185 126 0 184 210 156 0 +0.00408008128000001 8.128000
000024494e-008 0.001360000000000007 -1 2.449293598294706e-016 7.015425821965029e
-015 0.0004320000000000174 7.015425821965029e-015 -1.718283755505032e-030 1 81 1
 186 127 32 184 0 0 211 157 187 83 3 187 0.8980392217636108 0.9176470637321472 0
.929411768913269 15 188 128 0 189 184 0 17 189 0 188 197 205 190 194 192 0 200 +
18 190 129 0 189 175 195 191 ?1 29 191 130 0 190 196 176 -0.00260491872 8.128000
000193519e-008 0.0009279999999999896 16 192 131 0 ?189 181 198 193 0 0 1 31 193
 132 0 192 199 182 0 +-0.00260491872 8.128000000188228e-008 0.001360000000000007
 -1 2.449293598294706e-016 0 0 0 1 0.0004320000000000174 17 194 0 432 433 433 19
5 189 192 0 205 -18 195 133 0 194 190 232 196 ?1 29 196 134 0 195 233 191 -0.002
60491872 8.128000000188228e-008 0.001792000000000025 17 197 0 188 201 189 14 200
 198 0 204 +16 198 135 0 ?197 192 202 199 0 0 1 30 199 136 0 198 203 193 0 +0.00
4080081280000007 8.128000000029782e-008 0.0009279999999999894 -1 2.4492935982947
06e-016 7.015425821965029e-015 17 200 0 473 436 13 190 197 198 0 433 -17 201 0 1
88 205 197 9 204 202 0 208 -16 202 137 0 ?204 198 206 203 0 0 1 31 203 138 0 202
 207 199 0 +-0.004079918719999991 8.128000000224355e-008 0.001360000000000064 -1
 2.449293598294706e-016 -1.608122649676637e-016 -1.608122649676637e-016 3.938764
511125708e-032 1 0.0004320000000000174 17 204 0 468 31 21 14 201 202 0 28 +17 20
5 0 188 189 201 195 208 206 0 436 -16 206 139 0 ?208 202 215 207 0 0 1 30 207 14
0 0 206 216 203 0 +0.004080081280000013 8.128000000024494e-008 0.001792000000000
024 -1 2.449293598294706e-016 7.015425821965029e-015 17 208 0 473 13 436 9 205 2
06 0 0 +14 209 141 211 1e-008 226 184 213 38 210 +0 0 226 184 36 51 210 142 0 20
9 227 185 0 +-0.005079918719999995 8.128000000248849e-008 0.0003600000000000703
 -7.032662740446516e-015 1.722505582914136e-030 -1 0.0004320000000000174 -1 2.44
9293598294706e-016 7.032662740446516e-015 81 1 211 143 32 209 0 0 228 186 212 83
 3 212 0.8980392217636108 0.9176470637321472 0.929411768913269 15 213 144 0 214
 209 0 17 214 0 213 218 222 23 217 215 0 221 +16 215 145 0 ?214 206 219 216 0 0
 1 31 216 146 0 215 220 207 0 +-0.005079918719999995 8.128000000248849e-008 0.00
03600000000000703 -1.224646799147354e-016 2.999519565323716e-032 -1 -1 2.4492935
98294706e-016 1.224646799147354e-016 0.0004320000000000174 17 217 0 468 21 31 17
 214 215 0 222 -17 218 0 213 136 214 132 221 219 0 460 +16 219 147 0 ?218 215 22
3 220 0 0 1 30 220 148 0 219 224 216 0 +-0.004647918719999976 8.128000000243557e
-008 0.0003600000000000673 -7.032662740446516e-015 1.722505582914136e-030 -1 17
 221 0 459 27 460 23 218 219 0 0 -17 222 0 213 214 136 17 225 223 0 0 -16 223 14
9 0 ?225 219 234 224 0 0 1 30 224 150 0 223 235 220 0 +-0.005511918720000015 8.1
28000000259429e-008 0.0003600000000000734 -7.032662740446516e-015 1.722505582914
136e-030 -1 17 225 0 459 460 27 137 222 223 0 463 +14 226 151 228 1e-008 247 209
 230 38 227 +0 0 247 209 36 51 227 152 0 226 248 210 0 +0.006979685115344266 8.1
27999999953473e-008 0.001360000000000007 -1 2.449293598294706e-016 -0 0.00136 0
 0 1 81 1 228 153 32 226 0 0 249 211 229 83 3 229 0.09803921729326248 0.09803921
729326248 0.09803921729326248 15 230 154 0 231 226 0 17 231 0 230 239 243 232 23
6 234 0 242 +18 232 155 0 231 195 237 233 ?1 29 233 156 0 232 238 196 -0.0016049
18720000002 8.12800000018039e-008 6.93889390390723e-018 16 234 157 0 ?231 223 24
0 235 0 0 1 31 235 158 0 234 241 224 0 +-0.001604918720000002 8.128000000163734e
-008 0.001360000000000007 -1 2.449293598294706e-016 0 0 0 1 0.00136 17 236 0 417
 418 418 237 231 234 0 243 -18 237 159 0 236 232 253 238 ?1 29 238 160 0 237 254
 233 -0.001604918720000002 8.128000000163734e-008 0.002720000000000008 17 239 0
 230 92 231 88 242 240 0 87 +16 240 161 0 ?239 234 244 241 0 0 1 30 241 162 0 24
0 245 235 0 +0.006979685115344266 8.127999999970129e-008 6.93889390390723e-018 -
1 2.449293598294706e-016 -0 17 242 0 441 421 442 232 239 240 0 418 -17 243 0 230
 231 92 237 246 244 0 421 -16 244 163 0 ?246 240 255 245 0 0 1 30 245 164 0 244
 256 241 0 +0.006979685115344266 8.127999999953473e-008 0.002720000000000008 -1
 2.449293598294706e-016 -0 17 246 0 441 442 421 82 243 244 0 81 +14 247 165 249
 1e-008 276 226 251 38 248 +0 0 276 226 36 51 248 166 0 247 277 227 0 +0.0075655
15733866731 8.127999999939125e-008 0.001360000000000007 -1 2.449293598294706e-01
6 -0 0.001359 0 0 1 81 1 249 167 32 247 0 0 278 228 250 83 3 250 1 1 1 15 251 16
8 0 252 247 0 17 252 0 251 260 272 253 257 255 0 265 +18 253 169 0 252 237 258 2
54 ?1 29 254 170 0 253 259 238 -0.0006049187199999997 8.128000000155884e-008 1.0
00000000007072e-006 16 255 171 0 ?252 244 263 256 0 0 1 31 256 172 0 255 264 245
 0 +-0.0006049187199999997 8.128000000139243e-008 0.001360000000000007 -1 2.4492
93598294706e-016 0 0 0 1 0.001359 17 257 0 348 349 349 258 252 255 0 272 -18 258
 173 0 257 253 261 259 ?1 29 259 174 0 258 262 254 -0.0006049187199999997 8.1280
00000139243e-008 0.002719000000000007 17 260 0 251 266 252 261 265 263 0 271 +18
 261 175 0 260 258 267 262 ?1 29 262 176 0 261 268 259 -0.001604918720000002 8.1
28000000180378e-008 1.000000000007072e-006 16 263 177 0 ?260 255 269 264 0 0 1 3
0 264 178 0 263 270 256 0 +0.007565515733866731 8.127999999955766e-008 1.0000000
00007072e-006 -1 2.449293598294706e-016 -0 17 265 0 408 352 409 253 260 263 0 34
9 -17 266 0 251 272 260 267 271 269 0 275 -18 267 179 0 266 261 286 268 ?1 29 26
8 180 0 267 287 262 -0.001604918720000002 8.128000000163734e-008 0.0027190000000
00007 16 269 181 0 ?271 263 273 270 0 0 1 31 270 182 0 269 274 264 0 +-0.0016049
18720000002 8.128000000163734e-008 0.001360000000000007 -1 2.449293598294706e-01
6 0 0 0 1 0.001359 17 271 0 422 412 412 261 266 269 0 409 +17 272 0 251 252 266
 258 275 273 0 352 -16 273 183 0 ?275 269 282 274 0 0 1 30 274 184 0 273 283 270
 0 +0.007565515733866731 8.127999999939125e-008 0.002719000000000007 -1 2.449293
598294706e-016 -0 17 275 0 408 409 352 267 272 273 0 412 +14 276 185 278 1e-008
 301 247 280 38 277 +0 0 301 247 36 51 277 186 0 276 302 248 0 +0.00408008128000
001 8.128000000024494e-008 0.001360000000000007 -1 2.449293598294706e-016 7.0154
25821965029e-015 0.0004320000000000174 7.015425821965029e-015 -1.718283755505032
e-030 1 81 1 278 187 32 276 0 0 303 249 279 83 3 279 0.8980392217636108 0.917647
0637321472 0.929411768913269 15 280 188 0 281 276 0 17 281 0 280 285 297 59 284
 282 0 290 +16 282 189 0 ?281 273 288 283 0 0 1 31 283 190 0 282 289 274 0 +0.00
408008128000001 8.128000000024494e-008 0.001360000000000007 -1 2.449293598294706
e-016 -1.608122649676637e-016 -1.608122649676637e-016 3.938764511125708e-032 1 0
.0004320000000000174 17 284 0 398 57 67 53 281 282 0 297 -17 285 0 280 291 281 2
86 290 288 0 296 +18 286 191 0 285 267 292 287 ?1 29 287 192 0 286 293 268 0.002
60508128 8.12800000006591e-008 0.0009279999999999997 16 288 193 0 ?285 282 294 2
89 0 0 1 30 289 194 0 288 295 283 0 +0.004080081280000007 8.128000000029782e-008
 0.0009279999999999894 -1 2.449293598294706e-016 7.015425821965029e-015 17 290 0
 403 63 375 59 285 288 0 0 -17 291 0 280 297 285 292 296 294 0 300 -18 292 195 0
 291 286 324 293 ?1 29 293 196 0 292 325 287 0.00260508128 8.12800000006062e-008
 0.001792000000000035 16 294 197 0 ?296 288 298 295 0 0 1 31 295 198 0 294 299 2
89 0 +0.00260508128 8.12800000006062e-008 0.001360000000000017 -1 1.199410605120
403e-016 0 1.199410605120403e-016 1 0 0.0004320000000000174 17 296 0 371 372 372
 286 291 294 0 375 +17 297 0 280 281 291 53 300 298 0 0 -16 298 199 0 ?300 294 3
07 299 0 0 1 30 299 200 0 298 308 295 0 +0.004080081280000013 8.128000000024494e
-008 0.001792000000000024 -1 2.449293598294706e-016 7.015425821965029e-015 17 30
0 0 403 375 63 292 297 298 0 372 +14 301 201 303 1e-008 318 276 305 38 302 +0 0
 318 276 36 51 302 202 0 301 319 277 0 +0.005080081280000003 8.128e-008 0.000360
000000000001 -6.982962677686268e-015 1.710332578358784e-030 -1 0.000432000000000
0174 -1 2.449293598294706e-016 6.982962677686268e-015 81 1 303 203 32 301 0 0 32
0 278 304 83 3 304 0.8980392217636108 0.9176470637321472 0.929411768913269 15 30
5 204 0 306 301 0 17 306 0 305 310 314 45 309 307 0 313 -16 307 205 0 ?309 298 3
11 308 0 0 1 31 308 206 0 307 312 299 0 +0.005080081280000003 8.128e-008 0.00036
0000000000001 -0 0 1 1 -2.449293598294706e-016 0 0.0004320000000000174 17 309 0
 398 67 57 50 306 307 0 314 +17 310 0 305 179 306 175 313 311 0 390 +16 311 207
 0 ?310 307 315 312 0 0 1 30 312 208 0 311 316 308 0 +0.00551208128000002 8.1279
99999994708e-008 0.000359999999999998 -6.982962677686268e-015 1.710332578358784e
-030 -1 17 313 0 389 49 390 45 310 311 0 0 -17 314 0 305 306 179 50 317 315 0 0
 -16 315 209 0 ?317 311 326 316 0 0 1 30 316 210 0 315 327 312 0 +0.004648081279
999985 8.12800000001058e-008 0.000360000000000004 -6.982962677686268e-015 1.7103
32578358784e-030 -1 17 317 0 389 390 49 169 314 315 0 0 +14 318 211 320 1e-008 3
39 301 322 38 319 +0 0 339 301 36 51 319 212 0 318 340 302 0 +0.0030185841709730
78 8.128000000050492e-008 0.001360000000000007 1 -1.199410605120403e-016 0 0.001
36 1.199410605120403e-016 1 0 81 1 320 213 32 318 0 0 341 303 321 83 3 321 0.098
03921729326248 0.09803921729326248 0.09803921729326248 15 322 214 0 323 318 0 17
 323 0 322 331 335 324 328 326 0 0 +18 324 215 0 334 292 329 325 ?1 29 325 216 0
 324 330 293 -0.0006049187199999997 -0.001359918719999999 0.001360000000000007 1
6 326 217 0 ?323 315 332 327 0 0 1 31 327 218 0 326 333 316 0 +-0.00060491871999
99997 8.128000000093953e-008 0.001360000000000007 1 -1.199410605120403e-016 0 1.
199410605120403e-016 1 0 0.001360000000000001 17 328 0 343 344 344 329 323 326 0
 0 -18 329 219 0 335 324 0 330 ?1 29 330 220 0 329 0 325 -0.0006049187199999997
 0.001360081280000001 0.001360000000000007 17 331 0 322 107 323 103 334 332 0 11
5 +16 332 221 0 ?331 326 336 333 0 0 1 30 333 222 0 332 337 327 0 +0.00301858417
0973078 -0.00135991872 0.001360000000000007 1 -1.199410605120403e-016 0 17 334 0
 357 347 358 324 331 332 0 344 -17 335 0 322 323 107 329 338 336 0 347 -16 336 2
23 0 ?338 332 345 337 0 0 1 30 337 224 0 336 346 333 0 +0.003018584170973079 0.0
01360081280000001 0.001360000000000007 1 -1.199410605120403e-016 0 17 338 0 357
 358 347 108 335 336 0 107 +14 339 225 341 1e-008 353 318 343 38 340 +0 0 353 31
8 36 50 340 226 0 339 354 319 0 +-0.0006049187199999997 0.0004320812800000188 0.
001360000000000007 -1 1.199410605120403e-016 0 -1.199410605120403e-016 -1 0 81 1
 341 227 32 339 0 0 355 320 342 83 3 342 0.09803921729326248 0.09803921729326248
 0.09803921729326248 15 343 228 0 328 339 348 17 344 0 343 328 328 324 347 345 0
 323 -16 345 229 0 ?347 336 350 346 0 0 1 31 346 230 0 345 351 337 0 +-0.0006049
187199999997 8.128000000093953e-008 0.001360000000000007 1 -1.199410605120403e-0
16 0 1.199410605120403e-016 1 0 0.001360000000000001 17 347 0 357 338 334 329 34
4 345 0 328 +15 348 231 0 257 339 0 17 349 0 348 257 257 253 352 350 0 0 -16 350
 232 0 ?352 345 359 351 0 0 1 31 351 233 0 350 360 346 0 +-0.0006049187199999997
 8.128000000139243e-008 0.001360000000000007 -1 2.449293598294706e-016 0 0 0 1 0
.001359 17 352 0 408 275 265 258 349 350 0 0 +14 353 234 355 1e-008 362 339 357
 38 354 +0 0 362 339 36 51 354 235 0 353 363 340 0 +0.003018584170973078 8.12800
0000050492e-008 0.001360000000000007 1 -1.199410605120403e-016 0 0.00136 1.19941
0605120403e-016 1 0 81 1 355 236 32 353 0 0 364 341 356 83 3 356 0.0980392172932
6248 0.09803921729326248 0.09803921729326248 15 357 237 0 334 353 0 17 358 0 357
 334 338 103 361 359 0 0 +16 359 238 0 ?358 350 368 360 0 0 1 31 360 239 0 359 3
69 351 0 +0.00255508128 8.128000000056052e-008 0.001360000000000007 -1 1.1994106
05120403e-016 0 1.199410605120403e-016 1 0 0.00136 17 361 0 488 125 115 108 358
 359 0 0 -14 362 240 364 1e-008 376 353 366 38 363 +0 0 376 353 36 50 363 241 0
 362 377 354 0 +0.00260508128 0.000432081280000018 0.001360000000000007 1 -1.199
410605120403e-016 0 1.199410605120403e-016 1 0 81 1 364 242 32 362 0 0 378 355 3
65 83 3 365 0.09803921729326248 0.09803921729326248 0.09803921729326248 15 366 2
43 0 121 362 371 17 367 0 366 121 121 117 370 368 0 0 +16 368 244 0 ?367 359 373
 369 0 0 1 31 369 245 0 368 374 360 0 +0.00260508128 8.128000000055451e-008 0.00
1360000000000007 1 -1.199410605120403e-016 0 1.199410605120403e-016 1 0 0.001310
000000000001 17 370 0 488 115 125 111 367 368 0 0 -15 371 246 0 296 362 0 17 372
 0 371 296 296 292 375 373 0 0 +16 373 247 0 ?372 368 382 374 0 0 1 31 374 248 0
 373 383 369 0 +0.00260508128 8.12800000006062e-008 0.001360000000000017 -1 1.19
9410605120403e-016 0 1.199410605120403e-016 1 0 0.0004320000000000174 17 375 0 4
03 290 300 286 372 373 0 0 -14 376 249 378 1e-008 385 362 380 38 377 -0 0 385 36
2 36 50 377 250 0 376 386 363 0 +0.005080081279999983 8.128e-008 -0.0026 0 0 1 1
 -2.449293598294706e-016 0 81 1 378 251 32 376 0 0 387 364 379 83 3 379 0.898039
2217636108 0.9176470637321472 0.929411768913269 15 380 252 0 381 376 0 17 381 0
 380 165 165 161 384 382 0 0 +16 382 253 0 ?381 373 391 383 0 0 1 31 383 254 0 3
82 392 374 0 +0.005080081279999983 8.128e-008 -0.0026 0 -0 -1 1 -2.4492935982947
06e-016 0 0.0003820000000000174 17 384 0 478 183 173 166 381 382 0 0 -14 385 255
 387 1e-008 394 376 389 38 386 +0 0 394 376 36 51 386 256 0 385 395 377 0 +0.005
080081280000003 8.128e-008 0.000360000000000001 -6.982962677686268e-015 1.710332
578358784e-030 -1 0.0004320000000000174 -1 2.449293598294706e-016 6.982962677686
268e-015 81 1 387 257 32 385 0 0 396 378 388 83 3 388 0.8980392217636108 0.91764
70637321472 0.929411768913269 15 389 258 0 313 385 0 17 390 0 389 313 317 175 39
3 391 0 0 +16 391 259 0 ?390 382 410 392 0 0 1 31 392 260 0 391 411 383 0 +0.005
080081279999983 8.128e-008 -0.00255 -0 0 1 1 -2.449293598294706e-016 0 0.0004320
000000000174 17 393 0 478 173 183 169 390 391 0 317 -14 394 261 396 1e-008 399 3
85 398 38 395 +0 0 399 385 36 54 395 262 0 394 400 386 0 +0.004080081280000003 8
.128000000024494e-008 0.0003600000000000079 -2.449293598294706e-016 -1 0 0.00099
99999999999989 0.0004320000000000174 0 0 -1 81 1 396 263 32 394 0 0 401 387 397
 83 3 397 0.8980392217636108 0.9176470637321472 0.929411768913269 15 398 264 0 5
7 394 0 14 399 265 401 1e-008 404 394 403 38 400 +0 0 404 394 36 51 400 266 0 39
9 405 395 0 +0.00408008128000001 8.128000000024494e-008 0.001360000000000007 -1
 2.449293598294706e-016 7.015425821965029e-015 0.0004320000000000174 7.015425821
965029e-015 -1.718283755505032e-030 1 81 1 401 267 32 399 0 0 406 396 402 83 3 4
02 0.8980392217636108 0.9176470637321472 0.929411768913269 15 403 268 0 290 399
 0 14 404 269 406 1e-008 413 399 408 38 405 +0 0 413 399 36 51 405 270 0 404 414
 400 0 +0.007565515733866731 8.127999999939125e-008 0.001360000000000007 -1 2.44
9293598294706e-016 -0 0.001359 0 0 1 81 1 406 271 32 404 0 0 415 401 407 83 3 40
7 1 1 1 15 408 272 0 265 404 0 17 409 0 408 265 275 261 412 410 0 0 -16 410 273
 0 ?412 391 419 411 0 0 1 31 411 274 0 410 420 392 0 +-0.001604918720000002 8.12
8000000163734e-008 0.001360000000000007 -1 2.449293598294706e-016 0 0 0 1 0.0013
59 17 412 0 422 271 271 267 409 410 0 0 +14 413 275 415 1e-008 423 404 417 38 41
4 -0 0 423 404 36 50 414 276 0 413 424 405 0 +-0.001604918720000002 0.0004320812
80000019 0.001360000000000007 -1 2.449293598294706e-016 0 0 0 1 81 1 415 277 32
 413 0 0 425 406 416 83 3 416 0.09803921729326248 0.09803921729326248 0.09803921
729326248 15 417 278 0 236 413 422 17 418 0 417 236 236 232 421 419 0 0 -16 419
 279 0 ?421 410 429 420 0 0 1 31 420 280 0 419 430 411 0 +-0.001604918720000002
 8.128000000163734e-008 0.001360000000000007 -1 2.449293598294706e-016 0 0 0 1 0
.00136 17 421 0 441 246 242 237 418 419 0 0 +15 422 281 0 271 413 0 14 423 282 4
25 1e-008 437 413 427 38 424 -0 0 437 413 36 50 424 283 0 423 438 414 0 +-0.0026
04918720000001 0.0004320812800000193 0.001360000000000007 1 -2.449293598294706e-
016 0 0 0 -1 81 1 425 284 32 423 0 0 439 415 426 83 3 426 0.09803921729326248 0.
09803921729326248 0.09803921729326248 15 427 285 0 428 423 432 17 428 0 427 78 7
8 74 431 429 0 0 +16 429 286 0 ?428 419 434 430 0 0 1 31 430 287 0 429 435 420 0
 +-0.002604918720000001 8.128000000188228e-008 0.001360000000000007 -1 2.4492935
98294706e-016 0 0 0 -1 0.00131 17 431 0 493 96 86 79 428 429 0 0 -15 432 288 0 1
94 423 0 17 433 0 432 194 194 190 436 434 0 0 -16 434 289 0 ?436 429 443 435 0 0
 1 31 435 290 0 434 444 430 0 +-0.00260491872 8.128000000188228e-008 0.001360000
000000007 -1 2.449293598294706e-016 0 0 0 1 0.0004320000000000174 17 436 0 473 2
08 200 195 433 434 0 0 +14 437 291 439 1e-008 446 423 441 38 438 +0 0 446 423 36
 51 438 292 0 437 447 424 0 +0.006979685115344266 8.127999999953473e-008 0.00136
0000000000007 -1 2.449293598294706e-016 -0 0.00136 0 0 1 81 1 439 293 32 437 0 0
 448 425 440 83 3 440 0.09803921729326248 0.09803921729326248 0.0980392172932624
8 15 441 294 0 242 437 0 17 442 0 441 242 246 88 445 443 0 0 +16 443 295 0 ?442
 434 452 444 0 0 1 31 444 296 0 443 453 435 0 +-0.002554918720000001 8.128000000
187003e-008 0.001360000000000007 1 -2.449293598294706e-016 0 0 0 -1 0.00136 17 4
45 0 493 86 96 82 442 443 0 0 -14 446 297 448 1e-008 455 437 450 38 447 +0 0 455
 437 36 50 447 298 0 446 456 438 0 +-0.005079918720000016 8.128000000248849e-008
 -0.00259999999999993 -1.224646799147354e-016 2.999519565323716e-032 -1 -1 2.449
293598294706e-016 1.224646799147354e-016 81 1 448 299 32 446 0 0 457 439 449 83
 3 449 0.8980392217636108 0.9176470637321472 0.929411768913269 15 450 300 0 150
 446 0 17 451 0 450 150 150 146 454 452 0 0 +16 452 301 0 ?451 443 461 453 0 0 1
 31 453 302 0 452 462 444 0 +-0.005079918720000016 8.128000000248849e-008 -0.002
59999999999993 -1.224646799147354e-016 2.999519565323716e-032 -1 -1 2.4492935982
94706e-016 1.224646799147354e-016 0.0003820000000000178 17 454 0 483 144 154 140
 451 452 0 0 -14 455 303 457 1e-008 464 446 459 38 456 +0 0 464 446 36 51 456 30
4 0 455 465 447 0 +-0.005079918719999995 8.128000000248849e-008 0.00036000000000
00703 -7.032662740446516e-015 1.722505582914136e-030 -1 0.0004320000000000174 -1
 2.449293598294706e-016 7.032662740446516e-015 81 1 457 305 32 455 0 0 466 448 4
58 83 3 458 0.8980392217636108 0.9176470637321472 0.929411768913269 15 459 306 0
 221 455 0 17 460 0 459 221 225 132 463 461 0 0 +16 461 307 0 ?460 452 0 462 0 0
 1 31 462 308 0 461 0 453 0 +-0.005079918720000016 8.128000000248849e-008 -0.002
549999999999929 1.224646799147354e-016 -2.999519565323716e-032 1 -1 2.4492935982
94706e-016 1.224646799147354e-016 0.0004320000000000174 17 463 0 483 154 144 137
 460 461 0 0 -14 464 309 466 1e-008 469 455 468 38 465 +0 0 469 455 36 54 465 31
0 0 464 470 456 0 +-0.004079918719999999 8.128000000224355e-008 0.00036000000000
00643 -2.449293598294706e-016 -1 0 0.0009999999999999998 0.0004320000000000174 0
 0 -1 81 1 466 311 32 464 0 0 471 457 467 83 3 467 0.8980392217636108 0.91764706
37321472 0.929411768913269 15 468 312 0 21 464 0 14 469 313 471 1e-008 474 464 4
73 38 470 +0 0 474 464 36 51 470 314 0 469 475 465 0 +0.00408008128000001 8.1280
00000024494e-008 0.001360000000000007 -1 2.449293598294706e-016 7.01542582196502
9e-015 0.0004320000000000174 7.015425821965029e-015 -1.718283755505032e-030 1 81
 1 471 315 32 469 0 0 476 466 472 83 3 472 0.8980392217636108 0.9176470637321472
 0.929411768913269 15 473 316 0 200 469 0 14 474 317 476 1e-008 479 469 478 38 4
75 +0 0 479 469 36 54 475 318 0 474 480 470 0 +0.005080081279999983 8.128e-008 -
0.002550000000000001 0 0 1 0.0003820000000000174 5e-005 1 -2.449293598294706e-01
6 0 81 1 476 319 32 474 0 0 481 471 477 83 3 477 0.8980392217636108 0.9176470637
321472 0.929411768913269 15 478 320 0 173 474 0 14 479 321 481 1e-008 484 474 48
3 38 480 +0 0 484 474 36 54 480 322 0 479 485 475 0 +-0.005079918720000016 8.128
000000248849e-008 -0.00254999999999993 -1.224646799147354e-016 2.999519565323716
e-032 -1 0.0003820000000000174 5e-005 -1 2.449293598294706e-016 1.22464679914735
4e-016 81 1 481 323 32 479 0 0 486 476 482 83 3 482 0.8980392217636108 0.9176470
637321472 0.929411768913269 15 483 324 0 144 479 0 14 484 325 486 1e-008 489 479
 488 38 485 +0 0 489 479 36 54 485 326 0 484 490 480 0 +0.00255508128 8.12800000
0056052e-008 0.001360000000000007 1 -1.199410605120403e-016 0 0.0013100000000000
01 5e-005 1.199410605120403e-016 1 0 81 1 486 327 32 484 0 0 491 481 487 83 3 48
7 0.09803921729326248 0.09803921729326248 0.09803921729326248 15 488 328 0 115 4
84 0 14 489 329 491 1e-008 0 484 493 38 490 +0 0 0 484 36 54 490 330 0 489 0 485
 0 +-0.002554918720000001 8.128000000187003e-008 0.001360000000000007 1 -2.44929
3598294706e-016 0 0.00131 5e-005 0 0 -1 81 1 491 331 32 489 0 0 0 486 492 83 3 4
92 0.09803921729326248 0.09803921729326248 0.09803921729326248 15 493 332 0 86 4
89 0 1 0 
