**ABCDEFGHIJKLMNOPQRSTUVWXYZabcdefghijklmnopqrstuvwxyz**************************
**PARASOLID !"#$%&'()*+,-./:;<=>?@[\]^_`{|}~0123456789**************************
**PART1;
MC=AMD64;
MC_MODEL=Intel64 Family 6 Model 69 Stepping 1, GenuineIntel;
MC_ID=unknown;
OS=Windows_NT;
OS_RELEASE=unknown;
FRU=CAD Exchanger 3.6.1 (cadexchanger.com);
APPL=unknown;
SITE=unknown;
USER=unknown;
FORMAT=text;
GUISE=transmit;
KEY=LED_3mm_Green_TH_LEDs_Single;
FILE=LED_3mm_Green_TH_LEDs_Single.x_t;
DATE=Tue Dec 15 01:37:19 2020;
**PART2;
SCH=SCH_1200000_12006;
USFLD_SIZE=0;
**PART3;
**END_OF_HEADER*****************************************************************
T51 : TRANSMIT FILE created by modeller version 120000017 SCH_1200000_120060 12
 1 251 0 2 0 0 0 0 1000 1e-008 0 0 0 1 0 1 1 38 6 12 10 35 11 9 70 2 0 1 0 0 4 1
 20 0 3 3 1 T74 20 3 1 0 4 0 0 0 0 0 0 0 0 0 0 0 0 0 0 0 0 0 0 0 81 1 4 7 32 5 0
 0 42 0 34 14 5 5 4 1e-008 39 0 7 38 6 +0 0 39 0 36 51 6 6 0 5 40 0 0 +-8.128e-0
08 8.128e-008 0.00057629552 7.498798913309288e-033 6.123233995736766e-017 -1 0.0
015 -1.224646799147353e-016 -1 -6.123233995736766e-017 15 7 8 0 8 5 0 17 8 0 7 1
6 28 9 13 11 0 21 +18 9 9 0 8 0 14 10 ?1 29 10 10 0 9 15 0 -8.127999999978316e-0
08 0.001500081280000089 0.004222123346732001 16 11 11 0 ?8 0 19 12 0 0 1 31 12 1
2 0 11 20 0 0 +-8.128e-008 8.127999999977676e-008 0.004222123346732001 7.4987989
13309288e-033 6.123233995736766e-017 -1 -1.224646799147353e-016 -1 -6.1232339957
36766e-017 0.0015 17 13 0 44 85 79 14 8 11 0 146 -18 14 13 0 13 9 17 15 ?1 29 15
 14 0 14 18 10 -8.127999999996684e-008 -0.001499918720000087 0.00422212334673200
1 17 16 0 7 22 8 17 21 19 0 27 +18 17 15 0 16 14 23 18 ?1 29 18 16 0 17 24 15 -8
.128e-008 0.00150008128 0.0010127401121815 16 19 17 0 ?16 11 25 20 0 0 1 30 20 1
8 0 19 26 12 0 +-8.128e-008 0.00150008128 0.0005762955200000001 7.49879891330928
8e-033 6.123233995736766e-017 -1 17 21 0 145 146 150 9 16 19 0 149 -17 22 0 7 28
 16 23 27 25 0 31 +18 23 19 0 22 17 46 24 ?1 29 24 20 0 23 47 18 -8.128000000018
368e-008 -0.00149991872 0.0010127401121815 16 25 21 0 ?22 19 29 26 0 0 1 31 26 2
2 0 25 30 20 0 +-8.128e-008 8.127999999997328e-008 0.0010127401121815 -7.4987989
13309288e-033 -6.123233995736766e-017 1 -1.224646799147353e-016 -1 -6.1232339957
36766e-017 0.0015 17 27 0 185 153 153 17 22 25 0 150 -17 28 0 7 8 22 14 31 29 0
 90 -16 29 23 0 ?31 25 48 30 0 0 1 30 30 24 0 29 49 26 0 +-8.128000000018368e-00
8 -0.00149991872 0.0005762955199999999 7.498798913309288e-033 6.123233995736766e
-017 -1 17 31 0 145 150 146 23 28 29 0 153 +80 1 32 0 33 8001 0 0 0 0 3 5 0 0 FF
FFTFTFFFFFFF2 79 15 33 SDL/TYSA_COLOUR83 3 34 0 1 0 19 35 1 0 1 37 0 36 V13 36 2
 0 1 0 0 0 0 35 5 19 37 3 0 1 0 35 38 S13 38 4 0 1 0 5 0 0 37 0 14 39 25 42 1e-0
08 91 5 44 38 40 +0 0 91 5 36 54 40 26 0 39 92 6 41 +-8.127999999978316e-008 8.1
28000000215523e-008 0.004222123346732417 7.498798913309288e-033 6.12323399573676
6e-017 -1 0.0006036693269603647 0.0008963306730398125 -1.224646799147353e-016 -1
 -6.123233995736766e-017 141 41 50 41 41 40 81 1 42 27 32 39 0 0 93 4 43 83 3 43
 0 1 0 15 44 28 0 45 39 0 17 45 0 44 79 85 46 58 48 49 171 +18 46 29 0 45 23 59
 47 8.564243237141309e-009 1 29 47 30 0 46 60 24 -8.12799999998213e-008 0.000877
0756477514493 0.00507576384337521 16 48 31 0 8.564243237141309e-009 45 29 80 0 0
 0 1 133 49 32 0 45 50 30 0 +50 -8.127999999989056e-008 -0.0008769130877514447 0
.00507576384337521 -8.127999999967576e-008 0.0008770756477514491 0.0050757638433
7521 0 3.141592653589793 137 50 33 0 1 61 49 51 +40 52 0 0 141 51 49 51 51 50 13
4 52 0 0 0 0 0 0 +53 57 136 53 3 25 2 23 1 FFF1 54 55 56 45 50 54 0 5.0222620249
13061 0.04759988869075443 5.022262024913061 0.1427996660722634 5.022262024913061
 0.2855993321445266 5.022262024913061 0.42839899821679 5.022262024913062 0.57119
86642890532 5.022262024913061 0.7139983303613164 5.022262024913061 0.85679799643
35799 5.022262024913061 0.9995976625058433 5.022262024913062 1.142397328578107 5
.022262024913061 1.28519699465037 5.022262024913061 1.427996660722633 5.02226202
4913061 1.570796326794897 5.022262024913061 1.71359599286716 5.022262024913061 1
.856395658939423 5.022262024913061 1.999195325011686 5.02226202491306 2.14199499
108395 5.022262024913061 2.284794657156213 5.022262024913061 2.427594323228477 5
.022262024913062 2.57039398930074 5.022262024913061 2.713193655373003 5.02226202
4913061 2.855993321445266 5.022262024913061 2.998792987517531 5.022262024913062
 3.093992764899038 5.022262024913061 3.141592653589793 5.022262024913061 127 23
 55 4 1 1 1 1 1 1 1 1 1 1 1 1 1 1 1 1 1 1 1 1 1 4 128 23 56 0 0.1427996660722633
 0.2855993321445267 0.42839899821679 0.5711986642890533 0.7139983303613167 0.856
7979964335799 0.9995976625058433 1.142397328578107 1.28519699465037 1.4279966607
22633 1.570796326794897 1.71359599286716 1.856395658939423 1.999195325011687 2.1
4199499108395 2.284794657156213 2.427594323228477 2.57039398930074 2.71319365537
3003 2.855993321445267 2.99879298751753 3.141592653589793 135 57 1 0 17 58 0 200
 171 171 59 45 48 61 160 -18 59 34 0 58 46 97 60 8.564243237141309e-009 1 29 60
 35 0 59 98 47 -8.127999999989056e-008 -0.0008769130877514451 0.0050757638433752
1 133 61 36 0 58 62 50 0 +62 -8.12799999995665e-008 0.0008770756477518249 0.0050
75763843376382 -8.127999999979307e-008 -0.0008769130877518208 0.0050757638433763
84 3.141592653589793 0 137 62 37 0 1 81 61 63 -64 73 0 0 141 63 61 63 63 62 124
 64 107 0 197 202 182 65 +67 0 141 65 62 66 66 64 141 66 173 65 65 64 126 67 FF3
 3 4 4 1 1 2 2 TFF1 4 68 69 70 71 72 45 64 68 0.0008939362716603357 0.0008478792
619699453 0.004935458122744715 1 0.0008647094198002574 0.0002842731530552272 0.0
04948922482133931 0.9673054413534487 0.0008647094198002574 -0.000279408530139960
8 0.004949415909627458 0.9673054413534487 0.0008939362716603355 -0.0008431657876
1562 0.004936938405225291 1 0.0002992498687756328 0.0008773378381450474 0.004948
916855352133 0.9671139756527397 0.0002894660263909751 0.0002941464176706409 0.00
4968016480656355 0.935494611057862 0.000289466026390975 -0.0002891233830522296 0
.004968527054912006 0.935494611057862 0.0002992498687756325 -0.00087247156402356
54 0.004950448578119081 0.9671139756527397 -0.0002955044509141991 0.000877465087
1842581 0.004949306903036079 0.9671139756527397 -0.000285843063313468 0.00029418
90734468049 0.004968420016312424 0.935494611057862 -0.0002858430633134681 -0.000
2891653322811876 0.00496893066462837 0.935494611057862 -0.0002955044509141993 -0
.0008725981299997206 0.004950838847983931 0.9671139756527397 -0.0008903266874091
59 0.0008482610090875766 0.004936628265796552 1 -0.0008612178493130709 0.0002844
01120383719 0.00495013308910214 0.9673054413534487 -0.0008612178493130709 -0.000
2795343778268352 0.004950626738776573 0.9673054413534487 -0.0008903266874091592
 -0.0008435454855440873 0.004938109214819848 1 127 2 69 4 4 127 2 70 4 4 128 2 7
1 0 1 128 2 72 0 1 134 73 0 0 0 0 0 0 +74 78 136 74 3 25 2 23 1 FFF1 75 76 77 45
 50 75 0.5010844840763821 0.9939740578466437 0.52390294295875 0.9939841505383305
 0.5695423583470338 0.9907772187746464 0.6367988558194359 0.9764748953303952 0.7
016460968509946 0.9528193540929297 0.7628652438364221 0.9201268147970383 0.81923
46190810682 0.8788553735805703 0.8695464190979517 0.8296454669474435 0.912638593
3158058 0.7733388768660554 0.947440264671503 0.7109941701727817 0.97302783071808
76 0.6438848693645053 0.9886848221387228 0.5734765043082729 0.9939559242642295 0
.5013800464165026 0.9886848221387226 0.4292850426782232 0.9730278307180873 0.358
8809043068861 0.947440264671503 0.2917782127341235 0.9126385933158056 0.22944190
17609973 0.8695464190979515 0.1731447604683171 0.8192346190810685 0.123944561221
5911 0.7628652438364221 0.08268230343099987 0.7016460968509946 0.049997712270930
19 0.636798855819436 0.02634829591936654 0.5695423583470338 0.01204981862252091
 0.52390294295875 0.008843785546270288 0.5010844840763821 0.00885386342263237 12
7 23 76 4 1 1 1 1 1 1 1 1 1 1 1 1 1 1 1 1 1 1 1 1 1 4 128 23 77 0 0.142799666072
2633 0.2855993321445267 0.42839899821679 0.5711986642890533 0.7139983303613167 0
.8567979964335799 0.9995976625058433 1.142397328578107 1.28519699465037 1.427996
660722633 1.570796326794897 1.71359599286716 1.856395658939423 1.999195325011687
 2.14199499108395 2.284794657156213 2.427594323228477 2.57039398930074 2.7131936
55373003 2.855993321445267 2.99879298751753 3.141592653589793 135 78 1 0 17 79 0
 44 13 45 9 84 80 0 0 +16 80 38 0 ?79 48 86 81 0 0 1 133 81 39 0 80 82 62 0 +82
 -8.127999999978316e-008 0.0008770756477514494 0.00507576384337521 -8.1279999999
78316e-008 0.001500081280000179 0.004222123346732417 1.880669371323269 3.1415926
53589793 31 82 40 0 1 87 81 83 +-8.127999999978316e-008 0.0006037506069603667 0.
004222123346732417 -1 -2.465190328815662e-032 -7.498798913309289e-033 2.46519032
8815662e-032 -1 -6.123233995736766e-017 0.0008963306730398125 141 83 81 83 83 82
 17 84 0 159 160 149 46 79 80 0 0 -17 85 0 44 45 13 59 90 86 0 0 -16 86 41 0 ?90
 80 99 87 0 0 1 133 87 42 0 86 88 82 0 +88 -8.127999999989056e-008 -0.0008769130
877514453 0.00507576384337521 -8.127999999996686e-008 -0.001499918720000175 0.00
4222123346732417 1.880669371323269 3.141592653589793 31 88 43 0 1 100 87 89 +-8.
127999999985709e-008 -0.0006035880469603625 0.004222123346732417 1 -1.2246467991
47353e-016 0 1.224646799147353e-016 1 6.123233995736766e-017 0.00089633067303981
25 141 89 87 89 89 88 17 90 0 159 149 160 14 85 86 0 0 +14 91 44 93 1e-008 120 3
9 95 38 92 +0 0 120 39 36 51 92 45 0 91 121 40 0 +-8.128e-008 8.128e-008 0.00057
629552 7.498798913309288e-033 6.123233995736766e-017 -1 0.0019 -1.22464679914735
3e-016 -1 -6.123233995736766e-017 81 1 93 46 32 91 0 0 122 42 94 83 3 94 0 1 0 1
5 95 47 0 96 91 0 17 96 0 95 104 116 97 101 99 0 0 +18 97 48 0 130 59 102 98 ?1
 29 98 49 0 97 103 60 -8.128e-008 0.001900081280000001 0.0010127401121815 16 99
 50 0 ?96 86 107 100 0 0 1 31 100 51 0 99 108 88 0 +-8.128e-008 8.12799999999732
8e-008 0.0010127401121815 7.498798913309288e-033 6.123233995736766e-017 -1 -1.22
4646799147353e-016 -1 -6.123233995736766e-017 0.0019 17 101 0 186 187 130 102 96
 99 0 116 -18 102 52 0 192 97 105 103 ?1 29 103 53 0 102 106 98 -0.0015259742173
87034 0.001132181427351095 0.0010127401121815 17 104 0 95 110 96 105 109 107 0 1
15 +18 105 54 0 137 102 111 106 ?1 29 106 55 0 105 112 103 -8.128e-008 0.0019000
81280000001 1.274011218150006e-005 16 107 56 0 ?104 99 113 108 0 0 1 30 108 57 0
 107 114 100 0 +-8.128e-008 0.001900081280000001 0.0005762955200000001 7.4987989
13309288e-033 6.123233995736766e-017 -1 17 109 0 124 125 137 97 104 107 0 96 -17
 110 0 95 116 104 111 115 113 0 119 +18 111 58 0 224 105 126 112 ?1 29 112 59 0
 111 127 106 -0.001525974217387034 0.001132181427351095 1.274011218150006e-005 1
6 113 60 0 ?110 107 117 114 0 0 1 31 114 61 0 113 118 108 0 +-8.128e-008 8.12800
000000345e-008 1.274011218149995e-005 -7.498798913309299e-033 -6.123233995736766
e-017 1 1.653892159485515e-015 -1 -6.123233995736766e-017 0.0019 17 115 0 279 14
0 224 105 110 113 0 0 -17 116 0 95 96 110 102 119 117 0 0 +16 117 62 0 ?116 113
 128 118 0 0 1 30 118 63 0 117 129 114 0 +-0.001525974217387067 0.00113218142735
105 0.0005762955200000001 -7.498798913309288e-033 -6.123233995736766e-017 1 17 1
19 0 220 221 192 111 116 117 0 0 -14 120 64 122 1e-008 141 91 124 38 121 +0 0 14
1 91 36 51 121 65 0 120 142 92 0 +-8.128e-008 8.128e-008 0.00057629552 7.4987989
13309288e-033 6.123233995736766e-017 -1 0.0019 -1.224646799147353e-016 -1 -6.123
233995736766e-017 81 1 122 66 32 120 0 0 143 93 123 83 3 123 0 1 0 15 124 67 0 1
09 120 0 17 125 0 124 131 109 126 130 128 0 193 +18 126 68 0 125 111 132 127 ?1
 29 127 69 0 126 133 112 -8.128000000023268e-008 -0.00189991872 0.00101274011218
15 16 128 70 0 ?125 117 134 129 0 0 1 31 129 71 0 128 135 118 0 +-8.128e-008 8.1
27999999997328e-008 0.0010127401121815 7.498798913309288e-033 6.123233995736766e
-017 -1 -1.224646799147353e-016 -1 -6.123233995736766e-017 0.0019 17 130 0 186 1
01 193 97 125 128 0 109 -17 131 0 124 137 125 132 136 134 0 140 +18 132 72 0 131
 126 188 133 ?1 29 133 73 0 132 189 127 -8.128000000023268e-008 -0.00189991872 1
.274011218149984e-005 16 134 74 0 ?131 128 138 135 0 0 1 30 135 75 0 134 139 129
 0 +-8.128000000023268e-008 -0.00189991872 0.0005762955199999999 7.4987989133092
88e-033 6.123233995736766e-017 -1 17 136 0 205 196 212 126 131 134 0 0 -17 137 0
 124 109 131 105 140 138 0 104 +16 138 76 0 ?137 134 147 139 0 0 1 31 139 77 0 1
38 148 135 0 +-8.128e-008 8.12800000000345e-008 1.274011218149995e-005 -7.498798
913309288e-033 -6.123233995736766e-017 1 -1.224646799147353e-016 -1 -6.123233995
736766e-017 0.0019 17 140 0 279 215 115 132 137 138 0 212 -14 141 78 143 1e-008
 154 120 145 38 142 +0 0 154 120 36 51 142 79 0 141 155 121 0 +-8.128e-008 8.128
e-008 0.00057629552 7.498798913309288e-033 6.123233995736766e-017 -1 0.0015 -1.2
24646799147353e-016 -1 -6.123233995736766e-017 81 1 143 80 32 141 0 0 157 122 14
4 83 3 144 0 1 0 15 145 81 0 21 141 0 17 146 0 145 31 21 14 149 147 0 28 +16 147
 82 0 ?146 138 151 148 0 0 1 31 148 83 0 147 152 139 0 +-8.128e-008 8.1279999999
77676e-008 0.004222123346732001 7.498798913309288e-033 6.123233995736766e-017 -1
 -1.224646799147353e-016 -1 -6.123233995736766e-017 0.0015 17 149 0 159 84 90 9
 146 147 0 79 -17 150 0 145 21 31 17 153 151 0 0 +16 151 84 0 ?150 147 161 152 0
 0 1 31 152 85 0 151 162 148 0 +-8.128e-008 8.127999999997328e-008 0.00101274011
21815 -7.498798913309288e-033 -6.123233995736766e-017 1 -1.224646799147353e-016
 -1 -6.123233995736766e-017 0.0015 17 153 0 185 27 27 23 150 151 0 0 -14 154 86
 157 1e-008 181 141 159 38 155 +0 0 181 141 36 54 155 87 0 154 182 142 156 +-8.1
27999999978316e-008 8.128000000215523e-008 0.004222123346732417 7.49879891330928
8e-033 6.123233995736766e-017 -1 0.0006036693269603647 0.0008963306730398125 -1.
224646799147353e-016 -1 -6.123233995736766e-017 141 156 163 156 156 155 81 1 157
 88 32 154 0 0 183 143 158 83 3 158 0 1 0 15 159 89 0 84 154 0 17 160 0 159 90 8
4 59 171 161 162 85 +16 161 90 0 8.563601522504157e-009 160 151 190 0 0 0 1 133
 162 91 0 160 163 152 0 +163 -8.127999999967576e-008 0.0008770756477514491 0.005
07576384337521 -8.127999999989056e-008 -0.0008769130877514447 0.0050757638433752
1 3.141592653589793 6.283185307179586 137 163 92 0 1 172 162 164 +155 165 0 0 14
1 164 162 164 164 163 134 165 0 0 0 0 0 0 +166 170 136 166 3 25 2 23 1 FFF1 167
 168 169 45 50 167 3.141592653589793 5.022262024913061 3.189192542280547 5.02226
2024913061 3.284392319662055 5.022262024913061 3.427191985734321 5.0222620249130
62 3.569991651806582 5.022262024913061 3.712791317878846 5.022262024913061 3.855
590983951109 5.022262024913062 3.998390650023373 5.022262024913061 4.14119031609
5637 5.022262024913061 4.2839899821679 5.022262024913062 4.426789648240163 5.022
262024913061 4.569589314312426 5.02226202491306 4.71238898038469 5.0222620249130
61 4.855188646456952 5.022262024913061 4.997988312529216 5.022262024913061 5.140
787978601479 5.022262024913061 5.283587644673743 5.02226202491306 5.426387310746
007 5.022262024913063 5.56918697681827 5.022262024913061 5.711986642890533 5.022
262024913061 5.854786308962797 5.022262024913062 5.997585975035058 5.02226202491
306 6.140385641107323 5.022262024913061 6.235585418488832 5.022262024913061 6.28
3185307179586 5.022262024913061 127 23 168 4 1 1 1 1 1 1 1 1 1 1 1 1 1 1 1 1 1 1
 1 1 1 4 128 23 169 3.141592653589793 3.284392319662056 3.42719198573432 3.56999
1651806583 3.712791317878847 3.85559098395111 3.998390650023373 4.14119031609563
7 4.2839899821679 4.426789648240163 4.569589314312426 4.71238898038469 4.8551886
46456953 4.997988312529216 5.140787978601479 5.283587644673743 5.426387310746007
 5.569186976818269 5.711986642890533 5.854786308962797 5.99758597503506 6.140385
641107323 6.283185307179586 135 170 1 0 17 171 0 200 58 58 46 160 161 172 84 -13
3 172 93 0 171 173 163 0 +173 -8.127999999958998e-008 -0.0008769130877518208 0.0
05075763843376384 -8.12799999995665e-008 0.0008770756477518249 0.005075763843376
382 6.283185307179586 3.141592653589793 137 173 94 0 1 191 172 174 -64 175 0 0 1
41 174 172 174 174 173 134 175 0 0 0 0 0 0 +176 180 136 176 3 25 2 23 1 FFF1 177
 178 179 45 50 177 0.5010844840763821 0.008853863422632386 0.4782660135296083 0.
008843785546270012 0.4326273046878502 0.01204981862252047 0.3653738307913819 0.0
2634829591936651 0.3005314043072893 0.04999771227093004 0.2393185042578495 0.082
68230343099974 0.1829563457207342 0.1239445612215906 0.1326521728524792 0.173144
7604683171 0.08956742130951324 0.2294419017609969 0.05477234430023516 0.29177821
27341235 0.02918996871183336 0.3588809043068858 0.01353629632332686 0.4292850426
78223 0.008266336022277054 0.5013800464165021 0.01353629632332713 0.573476504308
2725 0.02918996871183298 0.6438848693645048 0.05477234430023525 0.71099417017278
12 0.08956742130951313 0.7733388768660547 0.1326521728524789 0.8296454669474431
 0.1829563457207344 0.8788553735805704 0.2393185042578492 0.920126814797038 0.30
05314043072893 0.9528193540929296 0.3653738307913815 0.9764748953303951 0.432627
3046878502 0.9907772187746462 0.478266013529608 0.9939841505383305 0.50108448407
6382 0.9939740578466437 127 23 178 4 1 1 1 1 1 1 1 1 1 1 1 1 1 1 1 1 1 1 1 1 1 4
 128 23 179 3.141592653589793 3.284392319662056 3.42719198573432 3.5699916518065
83 3.712791317878847 3.85559098395111 3.998390650023373 4.141190316095637 4.2839
899821679 4.426789648240163 4.569589314312426 4.71238898038469 4.855188646456953
 4.997988312529216 5.140787978601479 5.283587644673743 5.426387310746007 5.56918
6976818269 5.711986642890533 5.854786308962797 5.99758597503506 6.14038564110732
3 6.283185307179586 135 180 1 0 14 181 95 183 1e-008 197 154 185 38 182 -0 0 197
 154 36 50 182 96 0 181 64 155 0 +-8.128e-008 8.127999999997328e-008 0.001012740
1121815 7.498798913309288e-033 6.123233995736766e-017 -1 -1.224646799147353e-016
 -1 -6.123233995736766e-017 81 1 183 97 32 181 0 0 198 157 184 83 3 184 0 1 0 15
 185 98 0 153 181 186 15 186 99 0 187 181 0 17 187 0 186 193 101 188 192 190 0 1
96 -18 188 100 0 187 132 207 189 ?1 29 189 101 0 188 208 133 -0.0015259742173870
34 -0.001132018867351095 0.0010127401121815 16 190 102 0 ?192 161 194 191 0 0 1
 30 191 103 0 190 195 173 0 +-0.001525974217387 8.128000000016014e-008 0.0010127
401121815 1.224646799147353e-016 1 6.123233995736766e-017 17 192 0 220 119 211 1
02 187 190 0 101 +17 193 0 186 130 187 126 196 194 0 136 -16 194 104 0 ?196 190
 209 195 0 0 1 31 195 105 0 194 210 191 0 +-8.128e-008 8.127999999997328e-008 0.
0010127401121815 7.498798913309288e-033 6.123233995736766e-017 -1 -1.22464679914
7353e-016 -1 -6.123233995736766e-017 0.0019 17 196 0 205 206 136 188 193 194 0 2
11 +14 197 106 198 1e-008 201 181 200 38 64 +0 0 201 181 36 81 1 198 108 32 197
 0 0 203 183 199 83 3 199 0 1 0 15 200 109 0 58 197 0 14 201 110 203 1e-008 216
 197 205 38 202 +0 0 216 197 36 51 202 111 0 201 217 64 0 +-8.128e-008 8.128e-00
8 0.00057629552 7.498798913309288e-033 6.123233995736766e-017 -1 0.0019 -1.22464
6799147353e-016 -1 -6.123233995736766e-017 81 1 203 112 32 201 0 0 218 198 204 8
3 3 204 0 1 0 15 205 113 0 136 201 0 17 206 0 205 212 196 207 211 209 0 215 +18
 207 114 0 206 188 231 208 ?1 29 208 115 0 207 232 189 -0.001525974217387034 -0.
001132018867351095 1.274011218149984e-005 16 209 116 0 ?206 194 213 210 0 0 1 30
 210 117 0 209 214 195 0 +-0.001525974217387067 -0.001132018867351049 0.00057629
55199999999 7.498798913309288e-033 6.123233995736766e-017 -1 17 211 0 220 192 22
1 188 206 209 0 0 -17 212 0 205 136 206 132 215 213 0 0 +16 213 118 0 ?212 209 2
22 214 0 0 1 31 214 119 0 213 223 210 0 +-8.128e-008 8.12800000000345e-008 1.274
011218149995e-005 -7.498798913309299e-033 -6.123233995736766e-017 1 1.6538921594
85515e-015 -1 -6.123233995736766e-017 0.0019 17 215 0 279 224 140 207 212 213 0
 221 -14 216 120 218 1e-008 225 201 220 38 217 -0 0 225 201 36 50 217 121 0 216
 226 202 0 +-0.001525974217387 0.002175787147646 1.274011218150006e-005 1 -1.224
646799147353e-016 0 1.224646799147353e-016 1 6.123233995736766e-017 81 1 218 122
 32 216 0 0 227 203 219 83 3 219 0 1 0 15 220 123 0 221 216 0 17 221 0 220 211 1
19 207 224 222 0 0 -16 222 124 0 ?224 213 233 223 0 0 1 30 223 125 0 222 234 214
 0 +-0.001525974217387 0.002175787147646 1.274011218150006e-005 1.22464679914735
3e-016 1 6.123233995736766e-017 17 224 0 279 115 215 111 221 222 0 110 +14 225 1
26 227 1e-008 280 216 229 38 226 +0 0 280 216 36 50 226 127 0 225 281 217 0 +-8.
128e-008 8.12800000000345e-008 1.274011218149995e-005 7.498798913309288e-033 6.1
23233995736766e-017 -1 -1.224646799147353e-016 -1 -6.123233995736766e-017 81 1 2
27 128 32 225 0 0 282 218 228 83 3 228 0 1 0 15 229 129 0 230 225 254 17 230 0 2
29 238 250 231 235 233 0 300 -18 231 130 0 243 207 236 232 ?1 29 232 131 0 231 2
37 208 0.001087505700766 -0.0001999187200000001 1.274011218150006e-005 16 233 13
2 0 ?235 222 241 234 0 0 1 30 234 133 0 233 242 223 0 +0.001087505700766 -0.0001
999187200000001 1.274011218150017e-005 1.224646799147353e-016 1 6.12323399573676
6e-017 17 235 0 326 327 300 236 230 233 0 332 +18 236 134 0 250 231 239 237 ?1 2
9 237 135 0 236 240 232 0.001087505700766 0.0002000812799999999 1.27401121814999
5e-005 17 238 0 229 244 230 239 243 241 0 249 +18 239 136 0 238 236 245 240 ?1 2
9 240 137 0 239 246 237 0.001487505700766 -0.0001999187200000002 1.2740112181499
95e-005 16 241 138 0 ?238 233 247 242 0 0 1 30 242 139 0 241 248 234 0 +-8.12800
0000002448e-008 -0.00019991872 1.274011218149995e-005 1 -1.224646799147353e-016
 -0 17 243 0 284 297 293 231 238 241 0 230 -17 244 0 229 250 238 245 249 247 0 2
53 -18 245 140 0 244 239 256 246 ?1 29 246 141 0 245 257 240 0.001487505700766 0
.0002000812799999999 1.274011218149995e-005 16 247 142 0 ?249 241 251 248 0 0 1
 30 248 143 0 247 252 242 0 +0.001487505700766 -0.0001999187200000002 1.27401121
8149995e-005 -1.224646799147353e-016 -1 -6.123233995736766e-017 17 249 0 356 296
 357 239 244 247 0 293 +17 250 0 229 230 244 236 253 251 0 235 -16 251 144 0 ?25
3 247 258 252 0 0 1 30 252 145 0 251 259 248 0 +-8.12799999999755e-008 0.0002000
8128 1.274011218149995e-005 1 -1.224646799147353e-016 0 17 253 0 404 360 332 245
 250 251 0 357 +15 254 146 0 255 225 279 17 255 0 254 263 275 256 260 258 0 268
 -18 256 147 0 255 245 261 257 ?1 29 257 148 0 256 262 246 -0.001462348989363 -0
.0001999187199999998 1.274011218150006e-005 16 258 149 0 ?260 251 266 259 0 0 1
 30 259 150 0 258 267 252 0 +-0.001462348989363 -0.0001999187199999998 1.2740112
18150017e-005 1.224646799147353e-016 1 6.123233995736766e-017 17 260 0 365 366 3
21 261 255 258 0 275 +18 261 151 0 260 256 264 262 ?1 29 262 152 0 261 265 257 -
0.001462348989363 0.0002000812800000002 1.274011218149995e-005 17 263 0 254 269
 255 264 268 266 0 274 +18 264 153 0 263 261 270 265 ?1 29 265 154 0 264 271 262
 -0.001062348989363 -0.0001999187199999999 1.274011218149995e-005 16 266 155 0 ?
263 258 272 267 0 0 1 30 267 156 0 266 273 259 0 +-8.128000000002448e-008 -0.000
19991872 1.274011218149995e-005 1 -1.224646799147353e-016 -0 17 268 0 305 318 31
4 256 263 266 0 321 -17 269 0 254 275 263 270 274 272 0 278 -18 270 157 0 269 26
4 286 271 ?1 29 271 158 0 270 287 265 -0.001062348989363 0.0002000812800000002 1
.274011218149995e-005 16 272 159 0 ?274 266 276 273 0 0 1 30 273 160 0 272 277 2
67 0 +-0.001062348989363 -0.0001999187199999999 1.274011218149995e-005 -1.224646
799147353e-016 -1 -6.123233995736766e-017 17 274 0 395 317 396 264 269 272 0 314
 +17 275 0 254 255 269 261 278 276 0 371 -16 276 161 0 ?278 272 288 277 0 0 1 30
 277 162 0 276 289 273 0 +-8.12799999999755e-008 0.00020008128 1.274011218149995
e-005 1 -1.224646799147353e-016 0 17 278 0 409 399 371 270 275 276 0 396 +15 279
 163 0 215 225 0 14 280 164 282 1e-008 301 225 284 38 281 -0 0 301 225 36 50 281
 165 0 280 302 226 0 +-8.128000000002448e-008 -0.00019991872 0.00057629552 1.224
646799147353e-016 1 6.123233995736766e-017 -1 1.224646799147353e-016 0 81 1 282
 166 32 280 0 0 303 227 283 83 3 283 1 1 1 15 284 167 0 285 280 0 17 285 0 284 2
93 297 286 290 288 0 296 -18 286 168 0 285 270 291 287 ?1 29 287 169 0 286 292 2
71 0.001487505700766 -0.0001999187199999997 -0.007349539632286 16 288 170 0 ?290
 276 294 289 0 0 1 30 289 171 0 288 295 277 0 +-8.128000000002448e-008 -0.000199
9187199999996 -0.007349539632286 -1 1.224646799147353e-016 0 17 290 0 341 336 34
2 291 285 288 0 333 +18 291 172 0 290 286 307 292 ?1 29 292 173 0 291 308 287 0.
001087505700766 -0.0001999187199999997 -0.007349539632286 17 293 0 284 243 285 2
39 296 294 0 0 -16 294 174 0 ?296 288 298 295 0 0 1 30 295 175 0 294 299 289 0 +
0.001487505700766 -0.0001999187200000002 0.00057629552 7.498798913309288e-033 6.
123233995736766e-017 -1 17 296 0 356 345 249 286 293 294 0 342 +17 297 0 284 285
 243 291 300 298 0 0 -16 298 176 0 ?300 294 309 299 0 0 1 30 299 177 0 298 310 2
95 0 +0.001087505700766 -0.0001999187200000002 0.00057629552 -7.498798913309288e
-033 -6.123233995736766e-017 1 17 300 0 326 235 333 231 297 298 0 0 +14 301 178
 303 1e-008 322 280 305 38 302 -0 0 322 280 36 50 302 179 0 301 323 281 0 +-8.12
8000000002448e-008 -0.00019991872 0.00057629552 1.224646799147353e-016 1 6.12323
3995736766e-017 -1 1.224646799147353e-016 0 81 1 303 180 32 301 0 0 324 282 304
 83 3 304 1 1 1 15 305 181 0 306 301 0 17 306 0 305 314 318 307 311 309 0 0 -18
 307 182 0 317 291 312 308 ?1 29 308 183 0 307 313 292 -0.001062348989363 -0.000
1999187199999994 -0.007354907658759 16 309 184 0 ?311 298 315 310 0 0 1 30 310 1
85 0 309 316 299 0 +-8.128000000002448e-008 -0.0001999187199999996 -0.0073549076
58759 -1 1.224646799147353e-016 0 17 311 0 380 375 381 312 306 309 0 0 +18 312 1
86 0 318 307 328 313 ?1 29 313 187 0 312 329 308 -0.001462348989363 -0.000199918
7199999994 -0.007354907658759 17 314 0 305 268 306 264 317 315 0 0 -16 315 188 0
 ?317 309 319 316 0 0 1 30 316 189 0 315 320 310 0 +-0.001062348989363 -0.000199
9187199999999 0.00057629552 7.498798913309288e-033 6.123233995736766e-017 -1 17
 317 0 395 384 274 307 314 315 0 381 +17 318 0 305 306 268 312 321 319 0 372 -16
 319 190 0 ?321 315 330 320 0 0 1 30 320 191 0 319 331 316 0 +-0.001462348989363
 -0.0001999187199999999 0.00057629552 -7.498798913309288e-033 -6.123233995736766
e-017 1 17 321 0 365 260 372 256 318 319 0 0 +14 322 192 324 1e-008 337 301 326
 38 323 +0 0 337 301 36 50 323 193 0 322 338 302 0 +0.001087505700766 -0.0001999
187199999997 -0.007349539632286 -1 1.224646799147353e-016 0 -1.224646799147353e-
016 -1 -6.123233995736766e-017 81 1 324 194 32 322 0 0 339 303 325 83 3 325 1 1
 1 15 326 195 0 300 322 0 17 327 0 326 333 235 328 332 330 0 336 +18 328 196 0 3
27 312 346 329 ?1 29 329 197 0 328 347 313 0.001087505700766 0.00020008128000000
04 -0.007349539632286 16 330 198 0 ?327 319 334 331 0 0 1 30 331 199 0 330 335 3
20 0 +0.001087505700766 0.0002000812800000004 -0.007349539632286 7.4987989133092
88e-033 6.123233995736766e-017 -1 17 332 0 404 253 351 236 327 330 0 0 -17 333 0
 326 300 327 291 336 334 0 297 +16 334 200 0 ?333 330 343 335 0 0 1 30 335 201 0
 334 344 331 0 +0.001087505700766 -0.0001999187199999997 -0.007349539632286 -1.2
24646799147353e-016 -1 -6.123233995736766e-017 17 336 0 341 348 290 328 333 334
 0 351 -14 337 202 339 1e-008 352 322 341 38 338 +0 0 352 322 36 50 338 203 0 33
7 353 323 0 +0.001487505700766 -0.0001999187199999997 -0.007349539632286 7.49879
8913309288e-033 6.123233995736766e-017 -1 -1.224646799147353e-016 -1 -6.12323399
5736766e-017 81 1 339 204 32 337 0 0 354 324 340 83 3 340 1 1 1 15 341 205 0 342
 337 0 17 342 0 341 290 348 286 345 343 0 0 +16 343 206 0 ?342 334 349 344 0 0 1
 30 344 207 0 343 350 335 0 +0.001487505700766 -0.0001999187199999997 -0.0073495
39632286 -1.224646799147353e-016 -1 -6.123233995736766e-017 17 345 0 356 357 296
 346 342 343 0 348 -18 346 208 0 360 328 367 347 ?1 29 347 209 0 346 368 329 0.0
01487505700766 0.0002000812800000003 -0.007349539632286 17 348 0 341 342 336 346
 351 349 0 0 +16 349 210 0 ?348 343 358 350 0 0 1 30 350 211 0 349 359 344 0 +0.
001487505700766 0.0002000812800000003 -0.007349539632286 1 -1.224646799147353e-0
16 -0 17 351 0 404 332 360 328 348 349 0 0 -14 352 212 354 1e-008 361 337 356 38
 353 +0 0 361 337 36 50 353 213 0 352 362 338 0 +0.001487505700766 -0.0001999187
200000002 0.0004343666245564 1 -1.224646799147353e-016 0 1.224646799147353e-016
 1 6.123233995736766e-017 81 1 354 214 32 352 0 0 363 339 355 83 3 355 1 1 1 15
 356 215 0 357 352 0 17 357 0 356 249 345 245 360 358 0 0 +16 358 216 0 ?357 349
 369 359 0 0 1 30 359 217 0 358 370 350 0 +0.001487505700766 0.00020008127999999
98 0.0004343666245564 -7.498798913309288e-033 -6.123233995736766e-017 1 17 360 0
 404 351 253 346 357 358 0 345 -14 361 218 363 1e-008 376 352 365 38 362 +0 0 37
6 352 36 50 362 219 0 361 377 353 0 +-0.001462348989363 -0.0001999187199999994 -
0.007354907658759 -1 1.224646799147353e-016 0 -1.224646799147353e-016 -1 -6.1232
33995736766e-017 81 1 363 220 32 361 0 0 378 354 364 83 3 364 1 1 1 15 365 221 0
 321 361 0 17 366 0 365 372 260 367 371 369 0 375 +18 367 222 0 366 346 385 368
 ?1 29 368 223 0 367 386 347 -0.001462348989363 0.0002000812800000007 -0.0073549
07658759 16 369 224 0 ?366 358 373 370 0 0 1 30 370 225 0 369 374 359 0 +-0.0014
62348989363 0.0002000812800000007 -0.007354907658759 7.498798913309288e-033 6.12
3233995736766e-017 -1 17 371 0 409 278 390 261 366 369 0 0 -17 372 0 365 321 366
 312 375 373 0 311 +16 373 226 0 ?372 369 382 374 0 0 1 30 374 227 0 373 383 370
 0 +-0.001462348989363 -0.0001999187199999994 -0.007354907658759 -1.224646799147
353e-016 -1 -6.123233995736766e-017 17 375 0 380 387 311 367 372 373 0 390 -14 3
76 228 378 1e-008 391 361 380 38 377 +0 0 391 361 36 50 377 229 0 376 392 362 0
 +-0.001062348989363 -0.0001999187199999994 -0.007354907658759 7.498798913309288
e-033 6.123233995736766e-017 -1 -1.224646799147353e-016 -1 -6.123233995736766e-0
17 81 1 378 230 32 376 0 0 393 363 379 83 3 379 1 1 1 15 380 231 0 381 376 0 17
 381 0 380 311 387 307 384 382 0 306 +16 382 232 0 ?381 373 388 383 0 0 1 30 383
 233 0 382 389 374 0 +-0.001062348989363 -0.0001999187199999994 -0.0073549076587
59 -1.224646799147353e-016 -1 -6.123233995736766e-017 17 384 0 395 396 317 385 3
81 382 0 387 -18 385 234 0 384 367 0 386 ?1 29 386 235 0 385 0 368 -0.0010623489
89363 0.0002000812800000006 -0.007354907658759 17 387 0 380 381 375 385 390 388
 0 399 +16 388 236 0 ?387 382 397 389 0 0 1 30 389 237 0 388 398 383 0 +-0.00106
2348989363 0.0002000812800000006 -0.007354907658759 1 -1.224646799147353e-016 -0
 17 390 0 409 371 399 367 387 388 0 0 -14 391 238 393 1e-008 400 376 395 38 392
 +0 0 400 376 36 50 392 239 0 391 401 377 0 +-0.001062348989363 -0.0001999187199
999999 0.0003565321947495 1 -1.224646799147353e-016 0 1.224646799147353e-016 1 6
.123233995736766e-017 81 1 393 240 32 391 0 0 402 378 394 83 3 394 1 1 1 15 395
 241 0 396 391 0 17 396 0 395 274 384 270 399 397 0 0 +16 397 242 0 ?396 388 0 3
98 0 0 1 30 398 243 0 397 0 389 0 +-0.001062348989363 0.0002000812800000001 0.00
03565321947495 -7.498798913309288e-033 -6.123233995736766e-017 1 17 399 0 409 39
0 278 385 396 397 0 0 -14 400 244 402 1e-008 405 391 404 38 401 +0 0 405 391 36
 50 401 245 0 400 406 392 0 +-8.127999999997551e-008 0.00020008128 0.00057629552
 1.224646799147353e-016 1 6.123233995736766e-017 -1 1.224646799147353e-016 0 81
 1 402 246 32 400 0 0 407 393 403 83 3 403 1 1 1 15 404 247 0 332 400 0 14 405 2
48 407 1e-008 0 400 409 38 406 +0 0 0 400 36 50 406 249 0 405 0 401 0 +-8.127999
999997551e-008 0.00020008128 0.00057629552 1.224646799147353e-016 1 6.1232339957
36766e-017 -1 1.224646799147353e-016 0 81 1 407 250 32 405 0 0 0 402 408 83 3 40
8 1 1 1 15 409 251 0 371 405 0 1 0 
