**ABCDEFGHIJKLMNOPQRSTUVWXYZabcdefghijklmnopqrstuvwxyz**************************
**PARASOLID !"#$%&'()*+,-./:;<=>?@[\]^_`{|}~0123456789**************************
**PART1;
MC=AMD64;
MC_MODEL=Intel64 Family 6 Model 69 Stepping 1, GenuineIntel;
MC_ID=unknown;
OS=Windows_NT;
OS_RELEASE=unknown;
FRU=CAD Exchanger 3.6.1 (cadexchanger.com);
APPL=unknown;
SITE=unknown;
USER=unknown;
FORMAT=text;
GUISE=transmit;
KEY=PIN_Pin;
FILE=PIN_Pin.x_t;
DATE=Tue Dec 15 21:52:59 2020;
**PART2;
SCH=SCH_1200000_12006;
USFLD_SIZE=0;
**PART3;
**END_OF_HEADER*****************************************************************
T51 : TRANSMIT FILE created by modeller version 120000017 SCH_1200000_120060 12
 1 382 0 2 0 0 0 0 1000 1e-008 0 0 0 1 0 1 1 50 6 12 10 47 11 9 70 2 0 1 0 0 4 1
 20 0 3 3 1 T74 20 3 1 0 4 0 0 0 0 0 0 0 0 0 0 0 0 0 0 0 0 0 0 0 81 1 4 7 44 5 0
 0 53 0 46 14 5 5 4 1e-008 51 0 7 50 6 -0 0 51 0 48 50 6 6 0 5 52 0 0 +1.2196240
00510233e-007 -0.002240081335513468 1.26187755134653e-005 4.371139000186237e-008
 1.910685615894917e-015 0.9999999999999991 0.9999999999999982 4.371139000186237e
-008 -4.371139000186241e-008 15 7 8 0 8 5 0 17 8 0 7 16 40 9 13 11 0 21 -18 9 9
 0 8 0 14 10 ?1 29 10 10 0 9 15 0 0.001270121830828764 0.0007699187199999984 1.2
61872e-005 16 11 11 0 ?13 0 19 12 0 0 1 30 12 12 0 11 20 0 0 +0.0012701219068865
83 -0.0009700812800000001 1.261872e-005 -4.371139000186241e-008 0.99999999999999
91 -7.891223935382506e-032 17 13 0 126 139 135 14 8 11 0 40 +18 14 13 0 13 9 17
 15 ?1 29 15 14 0 14 18 10 0.001270121822086487 0.0009699187199999995 1.261872e-
005 17 16 0 7 22 8 17 21 19 0 27 -18 17 15 0 16 14 23 18 ?1 29 18 16 0 17 24 15
 -0.001269878169171231 0.0007699186089730681 1.26188310269306e-005 16 19 17 0 ?2
1 11 25 20 0 0 1 30 20 18 0 19 26 12 0 +0.001270121830828764 0.00076991871999999
84 1.261872e-005 0.9999999999999982 4.371138983112187e-008 -4.371139000186241e-0
08 17 21 0 278 138 214 9 16 19 0 135 +17 22 0 7 28 16 23 27 25 0 33 -18 23 19 0
 22 17 29 24 ?1 29 24 20 0 23 30 18 -0.001269878177913509 0.0009699186089730687
 1.26188310269306e-005 16 25 21 0 ?27 19 31 26 0 0 1 30 26 22 0 25 32 20 0 +-0.0
01269878177913509 0.0009699186089730687 1.26188310269306e-005 4.371139000186241e
-008 -0.9999999999999991 7.891223935382506e-032 17 27 0 208 209 199 17 22 25 0 2
14 +17 28 0 7 34 22 29 33 31 0 39 -18 29 23 0 28 23 35 30 ?1 29 30 24 0 29 36 24
 -0.000969878191026927 0.001269918622086484 1.26188179135136e-005 16 31 25 0 ?33
 25 37 32 0 0 1 30 32 26 0 31 38 26 0 +-0.000969878191026927 0.00126991862208648
4 1.26188179135136e-005 -0.7071067502779269 -0.7071068120951662 3.09086202854068
e-008 17 33 0 193 194 184 23 28 31 0 199 +17 34 0 7 40 28 35 39 37 0 43 -18 35 2
7 0 169 29 57 36 ?1 29 36 28 0 35 58 30 0.0009701218089730699 0.0012699187068865
81 1.2618733113417e-005 16 37 29 0 ?39 31 41 38 0 0 1 30 38 30 0 37 42 32 0 +0.0
009701218089730699 0.001269918706886581 1.2618733113417e-005 -0.9999999999999982
 -4.371139000186237e-008 4.371139000186241e-008 17 39 0 178 179 169 29 34 37 0 1
84 +17 40 0 7 8 34 14 43 41 0 144 -16 41 31 0 ?43 37 59 42 0 0 1 30 42 32 0 41 6
0 38 0 +0.001270121822086487 0.0009699187199999995 1.261872e-005 -0.707106812095
1677 0.7071067502779255 3.090862028540681e-008 17 43 0 163 164 144 35 40 41 0 0
 +80 1 44 0 45 8001 0 0 0 0 3 5 0 0 FFFFTFTFFFFFFF2 79 15 45 SDL/TYSA_COLOUR83 3
 46 0.250980406999588 0.250980406999588 0.250980406999588 19 47 1 0 1 49 0 48 V1
3 48 2 0 1 0 0 0 0 47 5 19 49 3 0 1 0 47 50 S13 50 4 0 1 0 5 0 0 49 0 14 51 33 5
3 1e-008 80 5 55 50 52 -0 0 80 5 48 50 52 34 0 51 81 6 0 +-0.001269877983834938
 -0.0009700813910269259 0.002512618831026929 0.707106750277927 0.707106812095166
2 -3.090862028540681e-008 -0.7071068120951657 0.7071067502779276 3.0908620285406
72e-008 81 1 53 35 44 51 0 0 82 4 54 83 3 54 0.250980406999588 0.250980406999588
 0.250980406999588 15 55 36 0 56 51 0 17 56 0 55 64 76 57 61 59 0 69 +18 57 37 0
 56 35 62 58 ?1 29 58 38 0 57 63 36 -0.0009698780799999971 -0.001270081377913513
 1.26188179135136e-005 16 59 39 0 ?56 41 67 60 0 0 1 30 60 40 0 59 68 42 0 +-0.0
01269878093113413 -0.0009700813910269307 1.26188310269306e-005 0.707106812095165
6 -0.7071067502779276 -3.090862028540671e-008 17 61 0 269 230 90 62 56 59 0 76 -
18 62 41 0 61 57 65 63 ?1 29 63 42 0 62 66 58 -0.001269878093113413 -0.000970081
3910269307 1.26188310269306e-005 17 64 0 55 70 56 65 69 67 0 75 -18 65 43 0 64 6
2 71 66 ?1 29 66 44 0 65 72 63 -0.0009698779707215219 -0.001270081377913509 0.00
2512618817913512 16 67 45 0 ?69 59 73 68 0 0 1 30 68 46 0 67 74 60 0 +-0.0009698
779707215219 -0.001270081377913509 0.002512618817913512 -4.371139000186237e-008
 -1.910685615894917e-015 -0.9999999999999991 17 69 0 84 85 97 57 64 67 0 90 +17
 70 0 55 76 64 71 75 73 0 79 -18 71 47 0 70 65 86 72 ?1 29 72 48 0 71 87 66 -0.0
01269877983834938 -0.0009700813910269259 0.002512618831026929 16 73 49 0 ?75 67
 77 74 0 0 1 30 74 50 0 73 78 68 0 +-0.001269877983834938 -0.0009700813910269259
 0.002512618831026929 0.7071068120951656 -0.7071067502779276 -3.090862028540671e
-008 17 75 0 264 100 234 65 70 73 0 97 +17 76 0 55 56 70 62 79 77 0 227 +16 77 5
1 0 ?76 73 88 78 0 0 1 30 78 52 0 77 89 74 0 +-0.001269877983834938 -0.000970081
3910269259 0.002512618831026929 -4.371139000186237e-008 -1.910685615894917e-015
 -0.9999999999999991 17 79 0 208 231 227 71 76 77 0 234 -14 80 53 82 1e-008 101
 51 84 50 81 -0 0 101 51 48 50 81 54 0 80 102 52 0 +-0.000969877970721522 -0.001
270081377913509 0.002512618817913512 -4.371139000186241e-008 0.9999999999999991
 -7.891223935382506e-032 -0.9999999999999982 -4.371139000186237e-008 4.371139000
186241e-008 81 1 82 55 44 80 0 0 103 53 83 83 3 83 0.250980406999588 0.250980406
999588 0.250980406999588 15 84 56 0 85 80 0 17 85 0 84 91 69 86 90 88 0 96 +18 8
6 57 0 85 71 92 87 ?1 29 87 58 0 86 93 72 0.0009701219200000015 -0.0012700812931
13417 1.2618733113417e-005 16 88 59 0 ?85 77 94 89 0 0 1 30 89 60 0 88 95 78 0 +
-0.0009698780799999971 -0.001270081377913513 1.26188179135136e-005 0.99999999999
99982 4.371139000186237e-008 -4.371139000186241e-008 17 90 0 269 61 111 57 85 88
 0 0 -17 91 0 84 97 85 92 96 94 0 100 -18 92 61 0 91 86 107 93 ?1 29 93 62 0 92
 108 87 0.0009701220292784766 -0.001270081293113412 0.002512618733113415 16 94 6
3 0 ?96 88 98 95 0 0 1 30 95 64 0 94 99 89 0 +0.0009701220292784766 -0.001270081
293113412 0.002512618733113415 -4.371139000186237e-008 -1.910685615894917e-015 -
0.9999999999999991 17 96 0 105 106 118 86 91 94 0 111 +17 97 0 84 69 91 65 100 9
8 0 0 -16 98 65 0 ?100 94 109 99 0 0 1 30 99 66 0 98 110 95 0 +-0.00096987797072
15219 -0.001270081377913509 0.002512618817913512 0.9999999999999982 4.3711390001
86237e-008 -4.371139000186241e-008 17 100 0 264 121 75 92 97 98 0 118 +14 101 67
 103 1e-008 122 80 105 50 102 -0 0 122 80 48 50 102 68 0 101 123 81 0 +0.0009701
220292784766 -0.001270081293113412 0.002512618733113415 -0.7071068120951678 0.70
71067502779255 3.090862028540681e-008 -0.7071067502779249 -0.7071068120951684 3.
090862028540671e-008 81 1 103 69 44 101 0 0 124 82 104 83 3 104 0.25098040699958
8 0.250980406999588 0.250980406999588 15 105 70 0 106 101 0 17 106 0 105 112 96
 107 111 109 0 117 +18 107 71 0 154 92 113 108 ?1 29 108 72 0 107 114 93 0.00127
0121906886583 -0.0009700812800000001 1.261872e-005 16 109 73 0 ?106 98 115 110 0
 0 1 30 110 74 0 109 116 99 0 +0.0009701219200000015 -0.001270081293113417 1.261
8733113417e-005 0.7071067502779249 0.7071068120951684 -3.090862028540671e-008 17
 111 0 269 90 154 86 106 109 0 0 -17 112 0 105 118 106 113 117 115 0 121 -18 113
 75 0 145 107 128 114 ?1 29 114 76 0 113 129 108 0.001270122016165058 -0.0009700
812799999954 0.002512618719999997 16 115 77 0 ?117 109 119 116 0 0 1 30 116 78 0
 115 120 110 0 +0.001270122016165058 -0.0009700812799999954 0.002512618719999997
 -4.371139000186237e-008 -1.910685615894917e-015 -0.9999999999999991 17 117 0 12
6 149 145 107 112 115 0 0 +17 118 0 105 96 112 92 121 119 0 0 -16 119 79 0 ?121
 115 130 120 0 0 1 30 120 80 0 119 131 116 0 +0.0009701220292784766 -0.001270081
293113412 0.002512618733113415 0.7071067502779249 0.7071068120951684 -3.09086202
8540671e-008 17 121 0 264 148 100 113 118 119 0 0 +14 122 81 124 1e-008 159 101
 126 50 123 -0 0 159 101 48 50 123 82 0 122 160 102 0 +0.001270122016165058 -0.0
009700812799999954 0.002512618719999998 -0.9999999999999982 -4.371139000186237e-
008 4.371139000186241e-008 4.371139000186241e-008 -0.9999999999999991 7.89122393
5382506e-032 81 1 124 83 44 122 0 0 161 103 125 83 3 125 0.250980406999588 0.250
980406999588 0.250980406999588 15 126 84 0 127 122 0 17 127 0 126 135 155 128 13
2 130 0 138 -18 128 85 0 282 113 133 129 ?1 29 129 86 0 128 134 114 0.0012701218
50061776 0.0007699187199999993 0.0004526187199999996 16 130 87 0 ?132 119 136 13
1 0 0 1 30 131 88 0 130 137 120 0 +0.001270121917377317 -0.0007700812799999995 0
.0004526187199999996 4.371139000186241e-008 -0.9999999999999991 7.89122393538250
6e-032 17 132 0 321 291 282 133 127 130 0 0 +18 133 89 0 288 128 140 134 ?1 29 1
34 90 0 133 141 129 0.001270121917377317 -0.0007700812799999995 0.00045261871999
99996 17 135 0 126 13 127 9 138 136 0 0 +16 136 91 0 ?135 130 142 137 0 0 1 30 1
37 92 0 136 143 131 0 +0.001270121850061776 0.0007699187199999993 0.000452618719
9999996 -4.371139000186237e-008 -1.910685615894917e-015 -0.9999999999999991 17 1
38 0 278 279 21 128 135 136 0 0 -17 139 0 126 145 13 140 144 142 0 0 -18 140 93
 0 148 133 150 141 ?1 29 141 94 0 140 151 134 0.001270121931364961 0.00096991872
00000043 0.002512618719999997 16 142 95 0 ?144 136 146 143 0 0 1 30 143 96 0 142
 147 137 0 +0.001270121931364961 0.0009699187200000043 0.002512618719999997 -4.3
71139000186237e-008 -1.910685615894917e-015 -0.9999999999999991 17 144 0 163 43
 170 14 139 142 0 0 +17 145 0 126 117 139 113 148 146 0 112 -16 146 97 0 ?148 14
2 152 147 0 0 1 30 147 98 0 146 153 143 0 +0.001270122016165058 -0.0009700812799
999954 0.002512618719999997 -4.371139000186241e-008 0.9999999999999991 -7.891223
935382506e-032 17 148 0 264 173 121 140 145 146 0 170 +17 149 0 126 155 117 150
 154 152 0 158 +18 150 99 0 149 140 165 151 ?1 29 151 100 0 150 166 141 0.001270
121898144305 -0.0007700812800000001 1.261872e-005 16 152 101 0 ?149 146 156 153
 0 0 1 30 153 102 0 152 157 147 0 +0.001270121906886583 -0.0009700812800000001 1
.261872e-005 -4.371139000186241e-008 0.9999999999999991 -7.891223935382506e-032
 17 154 0 269 111 270 107 149 152 0 106 -17 155 0 126 127 149 133 158 156 0 132
 -16 156 103 0 ?158 152 167 157 0 0 1 30 157 104 0 156 168 153 0 +0.001270121917
377317 -0.0007700812799999995 0.0004526187199999996 -4.371139000186237e-008 -1.9
10685615894917e-015 -0.9999999999999991 17 158 0 287 273 288 150 155 156 0 270 +
14 159 105 161 1e-008 174 122 163 50 160 -0 0 174 122 48 50 160 106 0 159 175 12
3 0 +0.001270121931364961 0.0009699187200000043 0.002512618719999998 -0.70710675
0277925 -0.7071068120951682 3.090862028540672e-008 0.7071068120951677 -0.7071067
502779256 -3.090862028540681e-008 81 1 161 107 44 159 0 0 176 124 162 83 3 162 0
.250980406999588 0.250980406999588 0.250980406999588 15 163 108 0 43 159 0 17 16
4 0 163 170 43 165 169 167 0 173 -18 165 109 0 164 150 180 166 ?1 29 166 110 0 1
65 181 151 0.0009701219182515449 0.001269918706886586 0.002512618733113415 16 16
7 111 0 ?169 156 171 168 0 0 1 30 168 112 0 167 172 157 0 +0.0009701219182515449
 0.001269918706886586 0.002512618733113415 -4.371139000186237e-008 -1.9106856158
94917e-015 -0.9999999999999991 17 169 0 178 39 185 35 164 167 0 34 +17 170 0 163
 144 164 140 173 171 0 139 -16 171 113 0 ?173 167 182 172 0 0 1 30 172 114 0 171
 183 168 0 +0.001270121931364961 0.0009699187200000043 0.002512618719999997 -0.7
071068120951677 0.7071067502779255 3.090862028540681e-008 17 173 0 264 188 148 1
65 170 171 0 185 +14 174 115 176 1e-008 189 159 178 50 175 -0 0 189 159 48 50 17
5 116 0 174 190 160 0 +0.0009701219182515449 0.001269918706886586 0.002512618733
113415 4.371139000186241e-008 -0.9999999999999991 7.891223935382506e-032 0.99999
99999999982 4.371139000186237e-008 -4.371139000186241e-008 81 1 176 117 44 174 0
 0 191 161 177 83 3 177 0.250980406999588 0.250980406999588 0.250980406999588 15
 178 118 0 39 174 0 17 179 0 178 185 39 180 184 182 0 188 -18 180 119 0 179 165
 195 181 ?1 29 181 120 0 180 196 166 -0.0009698780817484518 0.001269918622086489
 0.002512618817913512 16 182 121 0 ?184 171 186 183 0 0 1 30 183 122 0 182 187 1
72 0 +-0.0009698780817484518 0.001269918622086489 0.002512618817913512 -4.371139
000186237e-008 -1.910685615894917e-015 -0.9999999999999991 17 184 0 193 33 200 2
9 179 182 0 0 +17 185 0 178 169 179 165 188 186 0 0 -16 186 123 0 ?188 182 197 1
87 0 0 1 30 187 124 0 186 198 183 0 +0.0009701219182515449 0.001269918706886586
 0.002512618733113415 -0.9999999999999982 -4.371139000186237e-008 4.371139000186
241e-008 17 188 0 264 203 173 180 185 186 0 200 +14 189 125 191 1e-008 204 174 1
93 50 190 -0 0 204 174 48 50 190 126 0 189 205 175 0 +-0.0009698780817484518 0.0
01269918622086489 0.002512618817913512 0.7071068120951657 -0.7071067502779275 -3
.090862028540672e-008 0.7071067502779269 0.7071068120951662 -3.09086202854068e-0
08 81 1 191 127 44 189 0 0 206 176 192 83 3 192 0.250980406999588 0.250980406999
588 0.250980406999588 15 193 128 0 33 189 0 17 194 0 193 200 33 195 199 197 0 20
3 -18 195 129 0 194 180 210 196 ?1 29 196 130 0 195 211 181 -0.00126987806863503
4 0.0009699186089730736 0.002512618831026929 16 197 131 0 ?199 186 201 198 0 0 1
 30 198 132 0 197 202 187 0 +-0.001269878068635034 0.0009699186089730736 0.00251
2618831026929 -4.371139000186237e-008 -1.910685615894917e-015 -0.999999999999999
1 17 199 0 208 27 231 23 194 197 0 0 +17 200 0 193 184 194 180 203 201 0 0 -16 2
01 133 0 ?203 197 212 202 0 0 1 30 202 134 0 201 213 198 0 +-0.00096987808174845
18 0.001269918622086489 0.002512618817913512 -0.7071067502779269 -0.707106812095
1662 3.09086202854068e-008 17 203 0 264 234 188 195 200 201 0 231 +14 204 135 20
6 1e-008 235 189 208 50 205 -0 0 235 189 48 50 205 136 0 204 236 190 0 +-0.00126
9878068635034 0.0009699186089730736 0.002512618831026929 0.9999999999999982 4.37
1139000186237e-008 -4.371139000186241e-008 -4.371139000186241e-008 0.99999999999
99991 -7.891223935382506e-032 81 1 206 137 44 204 0 0 237 191 207 83 3 207 0.250
980406999588 0.250980406999588 0.250980406999588 15 208 138 0 27 204 0 17 209 0
 208 215 27 210 214 212 0 220 -18 210 139 0 279 195 216 211 ?1 29 211 140 0 210
 217 196 -0.00126987814993822 0.000769918608973069 0.0004526188310269302 16 212
 141 0 ?214 201 218 213 0 0 1 30 213 142 0 212 219 202 0 +-0.00126987814993822 0
.000769918608973069 0.0004526188310269302 -4.371139000186237e-008 -1.91068561589
4917e-015 -0.9999999999999991 17 214 0 278 21 279 17 209 212 0 0 +17 215 0 208 2
21 209 216 220 218 0 226 -18 216 143 0 291 210 222 217 ?1 29 217 144 0 216 223 2
11 -0.001269878082622679 -0.0007700813910269297 0.0004526188310269302 16 218 145
 0 ?220 212 224 219 0 0 1 30 219 146 0 218 225 213 0 +-0.001269878082622679 -0.0
007700813910269297 0.0004526188310269302 -4.371139000186241e-008 0.9999999999999
991 -7.891223935382506e-032 17 220 0 321 282 291 210 215 218 0 0 +17 221 0 208 2
27 215 222 226 224 0 230 +18 222 147 0 221 216 241 223 ?1 29 223 148 0 222 242 2
17 -0.001269878101855691 -0.0007700813910269306 1.26188310269306e-005 16 224 149
 0 ?221 218 228 225 0 0 1 30 225 150 0 224 229 219 0 +-0.001269878082622679 -0.0
007700813910269297 0.0004526188310269302 -4.371139000186237e-008 -1.910685615894
917e-015 -0.9999999999999991 17 226 0 287 288 273 216 221 224 0 0 -17 227 0 208
 79 221 62 230 228 0 0 +16 228 151 0 ?227 224 232 229 0 0 1 30 229 152 0 228 233
 225 0 +-0.001269878177913509 0.0009699186089730687 1.26188310269306e-005 4.3711
39000186241e-008 -0.9999999999999991 7.891223935382506e-032 17 230 0 269 270 61
 222 227 228 0 273 -17 231 0 208 199 79 195 234 232 0 0 -16 232 153 0 ?234 228 2
43 233 0 0 1 30 233 154 0 232 244 229 0 +-0.001269878068635034 0.000969918608973
0736 0.002512618831026929 4.371139000186241e-008 -0.9999999999999991 7.891223935
382506e-032 17 234 0 264 75 203 71 231 232 0 0 +14 235 155 237 1e-008 265 204 23
9 50 236 +0 0 265 204 48 50 236 156 0 235 266 205 0 +1.22071678525959e-007 -0.00
2240081335513464 0.002512618775513463 4.371139000186237e-008 1.910685615894917e-
015 0.9999999999999991 0.9999999999999982 4.371139000186237e-008 -4.371139000186
241e-008 81 1 237 157 44 235 0 0 267 206 238 83 3 238 0.250980406999588 0.250980
406999588 0.250980406999588 15 239 158 0 240 235 264 17 240 0 239 248 260 241 24
5 243 0 253 -18 241 159 0 428 222 246 242 ?1 29 242 160 0 241 247 223 -0.0002998
780136131896 -0.0002888344136808329 0.00251261878862688 16 243 161 0 ?245 232 25
1 244 0 0 1 30 244 162 0 243 252 233 0 +1.219863868098248e-007 -0.00028883440056
74153 0.002512618775513463 0.9999999999999982 4.371139036326309e-008 -4.37113900
0186241e-008 17 245 0 415 416 428 246 240 243 0 260 +18 246 163 0 245 241 249 24
7 ?1 29 247 164 0 246 250 242 0.0003001219863868097 -0.0002888343874539983 0.002
512618762400046 17 248 0 239 254 240 249 253 251 0 259 -18 249 165 0 443 246 255
 250 ?1 29 250 166 0 249 256 247 -0.0002998780388567852 0.0002886717164270765 0.
00251261878862688 16 251 167 0 ?253 243 257 252 0 0 1 30 252 168 0 251 258 244 0
 +-0.0002998779283214739 -0.00224008134862688 0.00251261878862688 4.371139000186
241e-008 -0.9999999999999991 7.891223935382506e-032 17 253 0 436 431 443 241 248
 251 0 0 +17 254 0 239 260 248 255 259 257 0 263 -18 255 169 0 458 249 298 256 ?
1 29 256 170 0 255 299 250 0.0003001219611432139 0.0002886717426539105 0.0025126
18762400046 16 257 171 0 ?259 251 261 258 0 0 1 30 258 172 0 257 262 252 0 +1.21
9611432139445e-007 0.0002886717295404935 0.002512618775513463 -0.999999999999998
2 -4.371139036326309e-008 4.371139000186241e-008 17 259 0 451 446 458 249 254 25
7 0 0 +17 260 0 239 240 254 246 263 261 0 421 -16 261 173 0 ?263 257 271 262 0 0
 1 30 262 174 0 261 272 258 0 +0.0003001220716785263 -0.002240081322400046 0.002
512618762400046 -4.37113903773397e-008 0.9999999999999991 1.641263401504102e-023
 17 263 0 466 461 421 255 260 261 0 0 +15 264 175 0 75 235 0 14 265 176 267 1e-0
08 274 235 269 50 266 -0 0 274 235 48 50 266 177 0 265 275 236 0 +1.219624000510
233e-007 -0.002240081335513468 1.26187755134653e-005 4.371139000186237e-008 1.91
0685615894917e-015 0.9999999999999991 0.9999999999999982 4.371139000186237e-008
 -4.371139000186241e-008 81 1 267 178 44 265 0 0 276 237 268 83 3 268 0.25098040
6999588 0.250980406999588 0.250980406999588 15 269 179 0 230 265 0 17 270 0 269
 154 230 150 273 271 0 0 -16 271 180 0 ?273 261 280 272 0 0 1 30 272 181 0 271 2
81 262 0 +0.001270121898144305 -0.0007700812800000003 1.261872e-005 -0.999999999
9999982 -4.371138987380699e-008 4.371139000186241e-008 17 273 0 287 226 158 222
 270 271 0 0 +14 274 182 276 1e-008 283 265 278 50 275 -0 0 283 265 48 50 275 18
3 0 274 284 266 0 +0.001270121850061776 0.0007699187199999993 0.0004526187199999
996 -4.371138983112191e-008 0.9999999999999991 -7.463304646216236e-024 -0.999999
9999999982 -4.371138983112187e-008 4.371139000186241e-008 81 1 276 184 44 274 0
 0 285 267 277 83 3 277 0.250980406999588 0.250980406999588 0.250980406999588 15
 278 185 0 21 274 0 17 279 0 278 214 138 210 282 280 0 209 -16 280 186 0 ?282 27
1 289 281 0 0 1 30 281 187 0 280 290 272 0 +0.001270121850061776 0.0007699187199
999993 0.0004526187199999996 0.9999999999999982 4.371138983112187e-008 -4.371139
000186241e-008 17 282 0 321 132 220 128 279 280 0 127 +14 283 188 285 1e-008 292
 274 287 50 284 -0 0 292 274 48 50 284 189 0 283 293 275 0 +0.001270121917377317
 -0.0007700812799999995 0.0004526187199999996 4.371138987380704e-008 -0.99999999
99999991 5.597478504390236e-024 0.9999999999999982 4.371138987380699e-008 -4.371
139000186241e-008 81 1 285 190 44 283 0 0 294 276 286 83 3 286 0.250980406999588
 0.250980406999588 0.250980406999588 15 287 191 0 273 283 0 17 288 0 287 158 226
 133 291 289 0 155 -16 289 192 0 ?291 280 300 290 0 0 1 30 290 193 0 289 301 281
 0 +0.001270121917377317 -0.0007700812799999995 0.0004526187199999996 -0.9999999
999999982 -4.371138987380699e-008 4.371139000186241e-008 17 291 0 321 220 132 21
6 288 289 0 215 +14 292 194 294 1e-008 322 283 296 50 293 -0 0 322 283 48 50 293
 195 0 292 323 284 0 +0.001270121850061776 0.0007699187199999993 0.0004526187199
999996 4.371139000186237e-008 1.910685615894917e-015 0.9999999999999991 0.999999
9999999982 4.371139000186237e-008 -4.371139000186241e-008 81 1 294 196 44 292 0
 0 324 285 295 83 3 295 0.250980406999588 0.250980406999588 0.250980406999588 15
 296 197 0 297 292 321 17 297 0 296 305 317 298 302 300 0 310 +18 298 198 0 297
 255 303 299 ?1 29 299 199 0 298 304 256 -0.0002998781036586531 -0.0002888344136
808366 0.0004526187886268817 16 300 200 0 ?297 289 308 301 0 0 1 30 301 201 0 30
0 309 290 0 +-0.0002998781499382212 0.0007699186513731169 0.0004526187886268819
 4.371139000186241e-008 -0.9999999999999991 7.891223935382506e-032 17 302 0 391
 386 398 303 297 300 0 317 -18 303 202 0 302 298 306 304 ?1 29 304 203 0 303 307
 299 -0.0002998781289022487 0.0002886717164270725 0.0004526187886268817 17 305 0
 296 311 297 306 310 308 0 316 +18 306 204 0 305 303 312 307 ?1 29 307 205 0 306
 313 304 0.0003001218963413463 -0.0002888343874540021 0.0004526187624000478 16 3
08 206 0 ?305 300 314 309 0 0 1 30 309 207 0 308 315 301 0 +0.001270121896341345
 -0.0002888343450539531 0.0004526187199999996 0.9999999999999982 4.3711390363263
09e-008 -4.371139000186241e-008 17 310 0 406 401 361 298 305 308 0 398 -17 311 0
 296 317 305 312 316 314 0 320 +18 312 208 0 311 306 328 313 ?1 29 313 209 0 312
 329 307 0.0003001218710977505 0.0002886717426539065 0.0004526187624000479 16 31
4 210 0 ?311 308 318 315 0 0 1 30 315 211 0 314 319 309 0 +0.0003001218500617778
 0.0007699186775999505 0.0004526187624000479 -4.37113903773397e-008 0.9999999999
999991 1.641263401504102e-023 17 316 0 355 356 368 306 311 314 0 361 -17 317 0 2
96 297 311 303 320 318 0 383 +16 318 212 0 ?317 314 330 319 0 0 1 30 319 213 0 3
18 331 315 0 +0.001270121871097749 0.0002886717850539553 0.0004526187199999996 -
0.9999999999999982 -4.371139036326309e-008 4.371139000186241e-008 17 320 0 376 3
71 383 312 317 318 0 368 -15 321 214 0 132 292 0 14 322 215 324 1e-008 351 292 3
26 50 323 +0 0 351 292 48 50 323 216 0 322 352 293 0 +-0.0002998782514031513 -0.
0002888344136808432 -0.002927381211373115 -4.371139000186237e-008 -1.91068561589
4917e-015 -0.9999999999999991 -0.9999999999999982 -4.371139000186237e-008 4.3711
39000186241e-008 81 1 324 217 44 322 0 0 353 294 325 83 3 325 0.9411764740943909
 0.6666666865348816 0.1176470592617989 15 326 218 0 327 322 0 17 327 0 326 335 3
47 328 332 330 0 340 +18 328 219 0 327 312 333 329 ?1 29 329 220 0 328 334 313 0
.0001501217299099609 0.0001386717360971919 -0.002927381231043241 16 330 221 0 ?3
27 318 338 331 0 0 1 30 331 222 0 330 339 319 0 +-0.0002998782700900387 0.000138
6717164270661 -0.002927381211373115 0.9999999999999982 4.371139036326309e-008 -4
.371139000186241e-008 17 332 0 562 544 563 333 327 330 0 347 -18 333 223 0 332 3
28 336 334 ?1 29 334 224 0 333 337 329 -0.000149878270090039 0.00013867172298377
46 -0.002927381217929824 17 335 0 326 341 327 336 340 338 0 346 +18 336 225 0 33
5 333 342 337 ?1 29 337 226 0 336 343 334 0.0001501217420401397 -0.0001388343940
107173 -0.002927381231043241 16 338 227 0 ?335 330 344 339 0 0 1 30 339 228 0 33
8 345 331 0 +0.0001501217485968482 -0.0002888343940107172 -0.002927381231043241
 4.37113903773397e-008 -0.9999999999999991 -1.641263401504102e-023 17 340 0 571
 566 557 328 335 338 0 563 -17 341 0 326 347 335 342 346 344 0 350 +18 342 229 0
 341 336 357 343 ?1 29 343 230 0 342 358 337 -0.0001498782579598603 -0.000138834
4071241345 -0.002927381217929824 16 344 231 0 ?341 338 348 345 0 0 1 30 345 232
 0 344 349 339 0 +-0.0002998782579598598 -0.000138834413680843 -0.00292738121137
3115 -0.9999999999999982 -4.371139036326309e-008 4.371139000186241e-008 17 346 0
 553 554 548 336 341 344 0 557 -17 347 0 326 327 341 333 350 348 0 541 +16 348 2
33 0 ?347 344 359 349 0 0 1 30 349 234 0 348 360 345 0 +-0.0001498782514031518 -
0.0002888344071241347 -0.002927381217929824 -4.371139000186241e-008 0.9999999999
999991 -7.891223935382506e-032 17 350 0 540 545 541 342 347 348 0 548 -14 351 23
5 353 1e-008 372 322 355 50 352 +0 0 372 322 48 50 352 236 0 351 373 323 0 +0.00
03001217233532523 0.0002886717426539001 -0.002927381237599949 0.9999999999999982
 4.371139037733965e-008 -4.371139000186241e-008 -4.37113903773397e-008 0.9999999
999999991 1.641263401504102e-023 81 1 353 237 44 351 0 0 374 324 354 83 3 354 0.
9411764740943909 0.6666666865348816 0.1176470592617989 15 355 238 0 356 351 0 17
 356 0 355 362 316 357 361 359 0 367 -18 357 239 0 356 342 363 358 ?1 29 358 240
 0 357 364 343 0.0003001217626577548 -0.000288834387454008 -0.002605705199523516
 16 359 241 0 ?361 348 365 360 0 0 1 30 360 242 0 359 366 349 0 +0.0003001217485
96848 -0.0002888343874540087 -0.002927381237599949 4.371139000186237e-008 1.9106
85615894917e-015 0.9999999999999991 17 361 0 406 310 407 306 356 359 0 0 +17 362
 0 355 368 356 363 367 365 0 371 +18 363 243 0 362 357 378 364 ?1 29 364 244 0 3
63 379 358 0.000300121737414159 0.0002886717426539005 -0.002605705199523516 16 3
65 245 0 ?362 359 369 366 0 0 1 30 366 246 0 365 370 360 0 +0.000300121737414159
 0.0002886717426539005 -0.002605705199523516 -4.37113903773397e-008 0.9999999999
999991 1.641263401504102e-023 17 367 0 571 557 566 357 362 365 0 407 -17 368 0 3
55 316 362 312 371 369 0 0 +16 369 247 0 ?368 365 380 370 0 0 1 30 370 248 0 369
 381 366 0 +0.0003001217233532523 0.0002886717426539001 -0.002927381237599949 4.
371139000186237e-008 1.910685615894917e-015 0.9999999999999991 17 371 0 376 377
 320 363 368 369 0 382 -14 372 249 374 1e-008 387 351 376 50 373 +0 0 387 351 48
 50 373 250 0 372 388 352 0 +-0.000299878276646747 0.000288671716427066 -0.00292
7381211373115 -4.371139036326313e-008 0.9999999999999991 1.579732792188122e-023
 -0.9999999999999982 -4.371139036326309e-008 4.371139000186241e-008 81 1 374 251
 44 372 0 0 389 353 375 83 3 375 0.9411764740943909 0.6666666865348816 0.1176470
592617989 15 376 252 0 371 372 0 17 377 0 376 383 371 378 382 380 0 386 +18 378
 253 0 377 363 393 379 ?1 29 379 254 0 378 394 364 -0.0002998782625858401 0.0002
886717164270664 -0.002605705173296682 16 380 255 0 ?377 369 384 381 0 0 1 30 381
 256 0 380 385 370 0 +-0.0002998782625858401 0.0002886717164270664 -0.0026057051
73296682 -0.9999999999999982 -4.371139036326309e-008 4.371139000186241e-008 17 3
82 0 562 563 544 363 377 380 0 566 -17 383 0 376 320 377 303 386 384 0 0 +16 384
 257 0 ?383 380 395 385 0 0 1 30 385 258 0 384 396 381 0 +-0.0002998782766467469
 0.000288671716427066 -0.002927381211373115 4.371139000186237e-008 1.91068561589
4917e-015 0.9999999999999991 17 386 0 391 392 302 378 383 384 0 397 -14 387 259
 389 1e-008 402 372 391 50 388 +0 0 402 372 48 50 388 260 0 387 403 373 0 +-0.00
02998782514031513 -0.0002888344136808432 -0.002927381211373115 -0.99999999999999
82 -4.371139000186237e-008 4.371139000186241e-008 4.371139000186241e-008 -0.9999
999999999991 7.891223935382506e-032 81 1 389 261 44 387 0 0 404 374 390 83 3 390
 0.9411764740943909 0.6666666865348816 0.1176470592617989 15 391 262 0 386 387 0
 17 392 0 391 398 386 393 397 395 0 401 +18 393 263 0 392 378 417 394 ?1 29 394
 264 0 393 418 379 -0.0002998782373422444 -0.0002888344136808425 -0.002605705173
296682 16 395 265 0 ?392 384 399 396 0 0 1 30 396 266 0 395 400 385 0 +-0.000299
8782373422444 -0.0002888344136808425 -0.002605705173296682 4.371139000186241e-00
8 -0.9999999999999991 7.891223935382506e-032 17 397 0 540 541 545 378 392 395 0
 544 -17 398 0 391 302 392 298 401 399 0 0 +16 399 267 0 ?398 395 408 400 0 0 1
 30 400 268 0 399 409 396 0 +-0.0002998782514031513 -0.0002888344136808432 -0.00
2927381211373115 4.371139000186237e-008 1.910685615894917e-015 0.999999999999999
1 17 401 0 406 407 310 393 398 399 0 545 -14 402 269 404 1e-008 411 387 406 50 4
03 +0 0 411 387 48 50 403 270 0 402 412 388 0 +0.0003001217485968481 -0.00028883
43874540087 -0.002927381237599949 4.371139036326313e-008 -0.9999999999999991 -1.
579732792188121e-023 0.9999999999999982 4.371139036326309e-008 -4.37113900018624
1e-008 81 1 404 271 44 402 0 0 413 389 405 83 3 405 0.9411764740943909 0.6666666
865348816 0.1176470592617989 15 406 272 0 401 402 0 17 407 0 406 361 401 357 410
 408 0 554 +16 408 273 0 ?407 399 419 409 0 0 1 30 409 274 0 408 420 400 0 +0.00
03001217626577548 -0.000288834387454008 -0.002605705199523516 0.9999999999999982
 4.371139036326309e-008 -4.371139000186241e-008 17 410 0 553 548 554 393 407 408
 0 0 -14 411 275 413 1e-008 432 402 415 50 412 +0 0 432 402 48 50 412 276 0 411
 433 403 0 +0.0003001217485968481 -0.0002888343874540087 -0.002927381237599949 4
.371139036326313e-008 -0.9999999999999991 -1.579732792188121e-023 0.999999999999
9982 4.371139036326309e-008 -4.371139000186241e-008 81 1 413 277 44 411 0 0 434
 404 414 83 3 414 0.9411764740943909 0.6666666865348816 0.1176470592617989 15 41
5 278 0 416 411 0 17 416 0 415 422 245 417 421 419 0 0 +18 417 279 0 427 393 423
 418 ?1 29 418 280 0 417 424 394 0.0003001221226930846 -0.0002888343874539923 0.
005630942724323613 16 419 281 0 ?416 408 425 420 0 0 1 30 420 282 0 419 426 409
 0 +0.000300121748596848 -0.0002888343874540087 -0.002927381237599949 4.37113900
0186237e-008 1.910685615894917e-015 0.9999999999999991 17 421 0 466 263 467 246
 416 419 0 0 -17 422 0 415 428 416 423 427 425 0 431 +18 423 283 0 422 417 438 4
24 ?1 29 424 284 0 423 439 418 -0.0002998778773069148 -0.0002888344136808268 0.0
05630942750550447 16 425 285 0 ?422 419 429 426 0 0 1 30 426 286 0 425 430 420 0
 +-0.0002998778773069148 -0.0002888344136808268 0.005630942750550447 -0.99999999
99999982 -4.371139036326309e-008 4.371139000186241e-008 17 427 0 526 508 527 417
 422 425 0 467 -17 428 0 415 245 422 241 431 429 0 240 -16 429 287 0 ?431 425 44
0 430 0 0 1 30 430 288 0 429 441 426 0 +-0.0002998782514031513 -0.00028883441368
08432 -0.002927381211373115 4.371139000186237e-008 1.910685615894917e-015 0.9999
999999999991 17 431 0 436 437 253 423 428 429 0 442 +14 432 289 434 1e-008 447 4
11 436 50 433 +0 0 447 411 48 50 433 290 0 432 448 412 0 +-0.0002998782514031513
 -0.0002888344136808432 -0.002927381211373115 -0.9999999999999982 -4.37113900018
6237e-008 4.371139000186241e-008 4.371139000186241e-008 -0.9999999999999991 7.89
1223935382506e-032 81 1 434 291 44 432 0 0 449 413 435 83 3 435 0.94117647409439
09 0.6666666865348816 0.1176470592617989 15 436 292 0 431 432 0 17 437 0 436 443
 431 438 442 440 0 446 +18 438 293 0 437 423 453 439 ?1 29 439 294 0 438 454 424
 -0.0002998779025505105 0.0002886717164270822 0.005630942750550447 16 440 295 0
 ?437 429 444 441 0 0 1 30 441 296 0 440 445 430 0 +-0.0002998779025505105 0.000
2886717164270822 0.005630942750550447 -4.371139000186241e-008 0.9999999999999991
 -7.891223935382506e-032 17 442 0 535 530 521 423 437 440 0 527 -17 443 0 436 25
3 437 249 446 444 0 248 -16 444 297 0 ?446 440 455 445 0 0 1 30 445 298 0 444 45
6 441 0 +-0.0002998782766467469 0.000288671716427066 -0.002927381211373115 4.371
139000186237e-008 1.910685615894917e-015 0.9999999999999991 17 446 0 451 452 259
 438 443 444 0 457 +14 447 299 449 1e-008 462 432 451 50 448 +0 0 462 432 48 50
 448 300 0 447 463 433 0 +-0.000299878276646747 0.000288671716427066 -0.00292738
1211373115 -4.371139036326313e-008 0.9999999999999991 1.579732792188122e-023 -0.
9999999999999982 -4.371139036326309e-008 4.371139000186241e-008 81 1 449 301 44
 447 0 0 464 434 450 83 3 450 0.9411764740943909 0.6666666865348816 0.1176470592
617989 15 451 302 0 446 447 0 17 452 0 451 458 446 453 457 455 0 461 +18 453 303
 0 452 438 477 454 ?1 29 454 304 0 453 478 439 0.0003001220974494887 0.000288671
7426539163 0.005630942724323613 16 455 305 0 ?452 444 459 456 0 0 1 30 456 306 0
 455 460 445 0 +0.0003001220974494887 0.0002886717426539163 0.005630942724323613
 0.9999999999999982 4.371139036326309e-008 -4.371139000186241e-008 17 457 0 517
 518 512 438 452 455 0 521 -17 458 0 451 259 452 255 461 459 0 254 -16 459 307 0
 ?461 455 468 460 0 0 1 30 460 308 0 459 469 456 0 +0.0003001217233532523 0.0002
886717426539001 -0.002927381237599949 4.371139000186237e-008 1.910685615894917e-
015 0.9999999999999991 17 461 0 466 467 263 453 458 459 0 470 +14 462 309 464 1e
-008 471 447 466 50 463 +0 0 471 447 48 50 463 310 0 462 472 448 0 +0.0003001217
233532523 0.0002886717426539001 -0.002927381237599949 0.9999999999999982 4.37113
9037733965e-008 -4.371139000186241e-008 -4.37113903773397e-008 0.999999999999999
1 1.641263401504102e-023 81 1 464 311 44 462 0 0 473 449 465 83 3 465 0.94117647
40943909 0.6666666865348816 0.1176470592617989 15 466 312 0 461 462 0 17 467 0 4
66 421 461 417 470 468 0 505 +16 468 313 0 ?467 459 479 469 0 0 1 30 469 314 0 4
68 480 460 0 +0.0003001221226930846 -0.0002888343874539923 0.005630942724323613
 4.37113903773397e-008 -0.9999999999999991 -1.641263401504102e-023 17 470 0 504
 509 505 453 467 468 0 512 -14 471 315 473 1e-008 500 462 475 50 472 -0 0 500 46
2 48 50 472 316 0 471 501 463 0 +-0.000299877863246008 -0.0002888344136808262 0.
005952618788626877 -4.371139000186237e-008 -1.910685615894917e-015 -0.9999999999
999991 -0.9999999999999982 -4.371139000186237e-008 4.371139000186241e-008 81 1 4
73 317 44 471 0 0 502 464 474 83 3 474 0.9411764740943909 0.6666666865348816 0.1
176470592617989 15 475 318 0 476 471 0 17 476 0 475 484 496 477 481 479 0 489 +1
8 477 319 0 476 453 482 478 ?1 29 478 320 0 477 483 454 -0.0001498778819328956 0
.0001386717229837915 0.005952618782070169 16 479 321 0 ?476 468 487 480 0 0 1 30
 480 322 0 479 488 469 0 +-0.0002998778819328951 0.000138671716427083 0.00595261
8788626877 -0.9999999999999982 -4.371139036326309e-008 4.371139000186241e-008 17
 481 0 517 512 518 482 476 479 0 496 -18 482 323 0 481 477 485 483 ?1 29 483 324
 0 482 486 478 0.0001501221180671042 0.0001386717360972087 0.005952618768956751
 17 484 0 475 490 476 485 489 487 0 495 +18 485 325 0 484 482 491 486 ?1 29 486
 326 0 485 492 483 -0.000149877869802717 -0.0001388344071241177 0.00595261878207
0169 16 487 327 0 ?484 479 493 488 0 0 1 30 488 328 0 487 494 480 0 +-0.00014987
78632460085 -0.0002888344071241177 0.005952618782070169 4.371139000186241e-008 -
0.9999999999999991 7.891223935382506e-032 17 489 0 535 521 530 477 484 487 0 518
 -17 490 0 475 496 484 491 495 493 0 499 +18 491 329 0 490 485 0 492 ?1 29 492 3
30 0 491 0 486 0.000150122130197283 -0.0001388343940107004 0.005952618768956751
 16 493 331 0 ?490 487 497 494 0 0 1 30 494 332 0 493 498 488 0 +0.0003001221301
972829 -0.0001388343874539919 0.005952618762400043 0.9999999999999982 4.37113903
6326309e-008 -4.371139000186241e-008 17 495 0 526 527 508 485 490 493 0 530 -17
 496 0 475 476 490 482 499 497 0 509 +16 497 333 0 ?496 493 506 498 0 0 1 30 498
 334 0 497 507 494 0 +0.0001501221115103957 0.0002886717360972084 0.005952618768
956751 -4.37113903773397e-008 0.9999999999999991 1.641263401504102e-023 17 499 0
 504 505 509 491 496 497 0 508 -14 500 335 502 1e-008 513 471 504 50 501 +0 0 51
3 471 48 50 501 336 0 500 514 472 0 +0.0001501221367539916 -0.000288834394010700
2 0.005952618768956752 0.9063078055098772 3.961597428867234e-008 0.4226182221247
319 0.4226182221247314 1.847322992918787e-008 -0.9063078055098779 81 1 502 337 4
4 500 0 0 515 473 503 83 3 503 0.9411764740943909 0.6666666865348816 0.117647059
2617989 15 504 338 0 505 500 0 17 505 0 504 470 499 417 508 506 0 416 -16 506 33
9 0 ?508 497 510 507 0 0 1 30 507 340 0 506 511 498 0 +8.192905253493965e-005 -7
.06413159176087e-005 0.006098859306231424 -0.3892816011600528 0.3892816036189902
 0.8348171464950233 17 508 0 526 495 427 491 505 506 0 0 +17 509 0 504 499 470 4
82 512 510 0 0 -16 510 341 0 ?512 506 519 511 0 0 1 30 511 342 0 510 520 507 0 +
8.533777099389651e-005 7.38873772875277e-005 0.006091549271523855 0.389281567127
9711 0.3892816376510682 -0.8348171464950235 17 512 0 517 457 481 453 509 510 0 0
 +14 513 343 515 1e-008 522 500 517 50 514 +0 0 522 500 48 50 514 344 0 513 523
 501 0 +-0.0002998778819328954 0.000138671716427083 0.005952618788626877 -2.1142
74180756695e-008 0.9063077870366473 0.4226182617407045 5.808920480174083e-008 -0
.4226182617407028 0.9063077870366465 81 1 515 345 44 513 0 0 524 502 516 83 3 51
6 0.9411764740943909 0.6666666865348816 0.1176470592617989 15 517 346 0 512 513
 0 17 518 0 517 481 457 477 521 519 0 0 -16 519 347 0 ?521 510 528 520 0 0 1 30
 520 348 0 519 529 511 0 +-0.0001726089120819281 0.0001614027490148224 0.0059038
71938299153 -0.389281674142087 0.3892816036189864 -0.8348171124629421 17 521 0 5
35 442 489 438 518 519 0 0 +14 522 349 524 1e-008 531 513 526 50 523 +0 0 531 51
3 48 50 523 350 0 522 532 514 0 +-0.0002998778698027165 -0.0001388344136808262 0
.005952618788626877 5.808920512928115e-008 -0.9063077870366455 0.422618261740705
 -2.114274148002656e-008 -0.4226182617407067 -0.9063077870366463 81 1 524 351 44
 522 0 0 533 515 525 83 3 525 0.9411764740943909 0.6666666865348816 0.1176470592
617989 15 526 352 0 508 522 0 17 527 0 526 427 495 423 530 528 0 0 -16 528 353 0
 ?530 519 542 529 0 0 1 30 529 354 0 528 543 520 0 +-0.0001726088979645399 -0.00
01615654351423574 0.005903871938299153 0.3892816401100055 0.3892816376510719 0.8
348171124629418 17 530 0 535 489 442 485 527 528 0 0 +14 531 355 533 1e-008 536
 522 535 50 532 +0 0 536 522 48 50 532 356 0 531 537 523 0 +-0.00014987786324600
85 -0.0002888344071241177 0.005952618782070169 -0.9063077685634138 -3.9615972333
39307e-008 0.4226183013566782 0.4226183013566778 1.847323339252638e-008 0.906307
7685634147 81 1 533 357 44 531 0 0 538 524 534 83 3 534 0.9411764740943909 0.666
6666865348816 0.1176470592617989 15 535 358 0 521 531 0 14 536 359 538 1e-008 54
9 531 540 50 537 -0 0 549 531 48 50 537 360 0 536 550 532 0 +-0.0002998782373422
444 -0.0002888344136808425 -0.002605705173296682 0.9063078055098802 3.9615973948
37448e-008 0.4226182221247253 0.4226182221247249 1.847322992918759e-008 -0.90630
78055098811 81 1 538 361 44 536 0 0 551 533 539 83 3 539 0.9411764740943909 0.66
66666865348816 0.1176470592617989 15 540 362 0 541 536 0 17 541 0 540 350 397 33
3 544 542 0 0 -16 542 363 0 ?544 528 546 543 0 0 1 30 543 364 0 542 547 529 0 +-
0.0002123628839615586 0.0002011563372499847 -0.002793382521622006 -0.38928160116
00476 0.3892816036189845 0.8348171464950284 17 544 0 562 382 332 378 541 542 0 0
 +17 545 0 540 397 350 393 548 546 0 410 -16 546 365 0 ?548 542 555 547 0 0 1 30
 547 366 0 546 556 543 0 +-0.0002089541417412941 -0.0001979103016078845 -0.00280
0692556329576 0.389281567127966 0.3892816376510635 -0.834817146495028 17 548 0 5
53 346 410 342 545 546 0 0 +14 549 367 551 1e-008 558 536 553 50 550 -0 0 558 53
6 48 50 550 368 0 549 559 537 0 +0.0003001217626577548 -0.000288834387454008 -0.
002605705199523516 -2.114274180756734e-008 0.9063077870366503 0.4226182617406985
 5.808920480174069e-008 -0.4226182617406967 0.9063077870366493 81 1 551 369 44 5
49 0 0 560 538 552 83 3 552 0.9411764740943909 0.6666666865348816 0.117647059261
7989 15 553 370 0 548 549 0 17 554 0 553 410 346 357 557 555 0 0 -16 555 371 0 ?
557 546 564 556 0 0 1 30 556 372 0 555 565 547 0 +0.0003001217626577548 -0.00028
8834387454008 -0.002605705199523516 -0.3892816741420819 0.3892816036189817 -0.83
48171124629467 17 557 0 571 340 367 336 554 555 0 0 +14 558 373 560 1e-008 567 5
49 562 50 559 -0 0 567 549 48 50 559 374 0 558 568 550 0 +-0.0002998782625858401
 0.0002886717164270665 -0.002605705173296682 5.808920512928099e-008 -0.906307787
0366489 0.422618261740698 -2.114274148002701e-008 -0.4226182617406997 -0.9063077
870366497 81 1 560 375 44 558 0 0 569 551 561 83 3 561 0.9411764740943909 0.6666
666865348816 0.1176470592617989 15 562 376 0 544 558 0 17 563 0 562 332 382 328
 566 564 0 0 -16 564 377 0 ?566 555 0 565 0 0 1 30 565 378 0 564 0 556 0 +0.0002
091976247668701 0.0001977476305809427 -0.002800692574607572 0.3892816401100002 0
.3892816376510662 0.8348171124629469 17 566 0 571 367 340 363 563 564 0 0 +14 56
7 379 569 1e-008 0 558 571 50 568 -0 0 0 558 48 50 568 380 0 567 0 559 0 +0.0003
001217374141591 0.0002886717426539005 -0.002605705199523516 -0.906307768563417 -
3.96159726736912e-008 0.4226183013566717 0.4226183013566712 1.847323339252609e-0
08 0.9063077685634177 81 1 569 381 44 567 0 0 0 560 570 83 3 570 0.9411764740943
909 0.6666666865348816 0.1176470592617989 15 571 382 0 557 567 0 1 0 
