<svg width="147.32mm" height="88.9mm" viewBox="0 0 58000000 35000000"  version="1.1" xmlns="http://www.w3.org/2000/svg" xmlns:xlink="http://www.w3.org/1999/xlink">
<desc>
Origin 8650000 16400000 Bound 8650000 16400000 58000000 35000000
</desc>
<g fill-rule="evenodd" fill="rgb(255, 0, 0)" stroke="black" stroke-width="1" transform="translate(0, 35000000) scale(1, -1) translate(-8650000, -16400000)">
<path id="N" d="M 61817678.00 30778741.00 L 61817678.00 30621259.00 A 317686.61 317686.61 0 0 0 61182322.00 30621259.00 L 61182322.00 30778741.00 A 317686.61 317686.61 0 0 0 61817678.00 30778741.00  zM 61500000.44 30699998.65 m -180637.35 0 a 180637.35 180637.35 0 1 1 361274.69 0a 180637.35 180637.35 0 1 1 -361274.69 0"/>
<path id="N" d="M 46824054.00 38478741.00 L 46824054.00 38321259.00 A 317686.61 317686.61 0 0 0 46188698.00 38321259.00 L 46188698.00 38478741.00 A 317686.61 317686.61 0 0 0 46824054.00 38478741.00  zM 46506376.44 38399998.65 m -180637.35 0 a 180637.35 180637.35 0 1 1 361274.69 0a 180637.35 180637.35 0 1 1 -361274.69 0"/>
<path id="N" d="M 44824054.00 38478741.00 L 44824054.00 38321259.00 A 317686.61 317686.61 0 0 0 44188698.00 38321259.00 L 44188698.00 38478741.00 A 317686.61 317686.61 0 0 0 44824054.00 38478741.00  zM 44506376.44 38399998.65 m -180637.35 0 a 180637.35 180637.35 0 1 1 361274.69 0a 180637.35 180637.35 0 1 1 -361274.69 0"/>
<path id="N" d="M 39217678.00 46428741.00 L 39217678.00 46271259.00 A 317686.61 317686.61 0 1 0 38582322.00 46271259.00 L 38582322.00 46428741.00 A 317686.61 317686.61 0 1 0 39217678.00 46428741.00  zM 38900000.44 46349998.65 m -180637.35 0 a 180637.35 180637.35 0 1 1 361274.69 0a 180637.35 180637.35 0 1 1 -361274.69 0"/>
<path id="N" d="M 28217678.00 43528741.00 L 28217678.00 43371259.00 A 317686.61 317686.61 0 0 0 27582322.00 43371259.00 L 27582322.00 43528741.00 A 317686.61 317686.61 0 0 0 28217678.00 43528741.00  zM 27900000.44 43449998.65 m -180637.35 0 a 180637.35 180637.35 0 1 1 361274.69 0a 180637.35 180637.35 0 1 1 -361274.69 0"/>
<path id="N" d="M 46824054.00 32377953.00 L 46824054.00 32220471.00 A 317686.61 317686.61 0 0 0 46188698.00 32220471.00 L 46188698.00 32377953.00 A 317686.61 317686.61 0 0 0 46824054.00 32377953.00  zM 46506376.44 32299210.65 m -180637.35 0 a 180637.35 180637.35 0 1 1 361274.69 0a 180637.35 180637.35 0 1 1 -361274.69 0"/>
<path id="N" d="M 27050002.99 44600005.10 m -317671.90 0 a 317671.90 317671.90 0 1 1 635343.80 0a 317671.90 317671.90 0 1 1 -635343.80 0M 27050000.44 44599998.65 m -180637.35 0 a 180637.35 180637.35 0 1 1 361274.69 0a 180637.35 180637.35 0 1 1 -361274.69 0"/>
<path id="N" d="M 46800002.99 30800005.10 m -317671.90 0 a 317671.90 317671.90 0 1 1 635343.80 0a 317671.90 317671.90 0 1 1 -635343.80 0M 46800000.44 30799998.65 m -180637.35 0 a 180637.35 180637.35 0 1 1 361274.69 0a 180637.35 180637.35 0 1 1 -361274.69 0"/>
<path id="N" d="M 44500002.99 39550005.10 m -317671.90 0 a 317671.90 317671.90 0 1 1 635343.80 0a 317671.90 317671.90 0 1 1 -635343.80 0M 44500000.44 39549998.65 m -180637.35 0 a 180637.35 180637.35 0 1 1 361274.69 0a 180637.35 180637.35 0 1 1 -361274.69 0"/>
<path id="N" d="M 45264960.00 40556299.00 L 44635040.00 40556299.00 L 44635040.00 41343701.00 L 45264960.00 41343701.00 L 45264960.00 40556299.00  zM 44950000.44 40949998.65 m -180637.35 0 a 180637.35 180637.35 0 1 1 361274.69 0a 180637.35 180637.35 0 1 1 -361274.69 0"/>
<path id="N" d="M 38014960.00 42935040.00 L 37385040.00 42935040.00 L 37385040.00 43564960.00 L 38014960.00 43564960.00 L 38014960.00 42935040.00  zM 37700000.44 43249998.65 m -180637.35 0 a 180637.35 180637.35 0 1 1 361274.69 0a 180637.35 180637.35 0 1 1 -361274.69 0"/>
<path id="N" d="M 35658195.00 21894292.00 L 35620211.00 21878558.54 L 35620211.00 20397819.46 L 35658195.00 20382086.00 A 397086.64 397086.64 0 1 0 35261097.00 20382086.00 L 35299081.00 20397819.46 L 35299081.00 21878558.54 L 35261097.00 21894292.00 A 397086.64 397086.64 0 1 0 35658195.00 21894292.00  zM 35459646.44 20038187.65 m -180637.35 0 a 180637.35 180637.35 0 1 1 361274.69 0a 180637.35 180637.35 0 1 1 -361274.69 0M 35459646.44 22238187.65 m -180637.35 0 a 180637.35 180637.35 0 1 1 361274.69 0a 180637.35 180637.35 0 1 1 -361274.69 0"/>
<path id="N" d="M 36739960.00 23585827.00 L 36110040.00 23585827.00 L 36110040.00 24373229.00 L 36739960.00 24373229.00 L 36739960.00 23585827.00  zM 36425000.44 23979526.65 m -180637.35 0 a 180637.35 180637.35 0 1 1 361274.69 0a 180637.35 180637.35 0 1 1 -361274.69 0"/>
<path id="N" d="M 36739960.00 25006299.00 L 36110040.00 25006299.00 L 36110040.00 25793701.00 L 36739960.00 25793701.00 L 36739960.00 25006299.00  zM 36425000.44 25399998.65 m -180637.35 0 a 180637.35 180637.35 0 1 1 361274.69 0a 180637.35 180637.35 0 1 1 -361274.69 0"/>
<path id="N" d="M 50824054.00 32377953.00 L 50824054.00 32220471.00 A 317686.61 317686.61 0 0 0 50188698.00 32220471.00 L 50188698.00 32377953.00 A 317686.61 317686.61 0 0 0 50824054.00 32377953.00  zM 50506376.44 32299210.65 m -180637.35 0 a 180637.35 180637.35 0 1 1 361274.69 0a 180637.35 180637.35 0 1 1 -361274.69 0"/>
<path id="N" d="M 56141885.00 45956299.00 L 55511965.00 45956299.00 L 55511965.00 46743701.00 L 56141885.00 46743701.00 L 56141885.00 45956299.00  zM 55826925.44 46349998.65 m -180637.35 0 a 180637.35 180637.35 0 1 1 361274.69 0a 180637.35 180637.35 0 1 1 -361274.69 0"/>
<path id="N" d="M 13918521.00 46583140.00 L 13761039.00 46583140.00 A 317686.61 317686.61 0 0 0 13487246.41 46740253.00 L 11633257.59 46740253.00 A 313516.66 313516.66 0 0 0 11359465.00 46583140.00 L 11201983.00 46583140.00 A 317686.61 317686.61 0 0 0 11201983.00 47218496.00 L 11359465.00 47218496.00 A 317686.61 317686.61 0 0 0 11633257.59 47061383.00 L 13487246.41 47061383.00 A 313516.66 313516.66 0 0 0 13761039.00 47218496.00 L 13918521.00 47218496.00 A 317671.90 317671.90 0 1 0 13918521.00 46583140.00  zM 11280724.44 46900816.65 m -180637.35 0 a 180637.35 180637.35 0 1 1 361274.69 0a 180637.35 180637.35 0 1 1 -361274.69 0M 13839780.44 46900816.65 m -180637.35 0 a 180637.35 180637.35 0 1 1 361274.69 0a 180637.35 180637.35 0 1 1 -361274.69 0"/>
<path id="N" d="M 14028741.00 26332322.00 L 13871259.00 26332322.00 A 317686.61 317686.61 0 0 0 13871259.00 26967678.00 L 14028741.00 26967678.00 A 317671.90 317671.90 0 1 0 14028741.00 26332322.00  zM 13950000.44 26649998.65 m -180637.35 0 a 180637.35 180637.35 0 1 1 361274.69 0a 180637.35 180637.35 0 1 1 -361274.69 0"/>
<path id="N" d="M 14028741.00 21332322.00 L 13871259.00 21332322.00 A 317686.61 317686.61 0 0 0 13871259.00 21967678.00 L 14028741.00 21967678.00 A 317671.90 317671.90 0 1 0 14028741.00 21332322.00  zM 13950000.44 21649998.65 m -180637.35 0 a 180637.35 180637.35 0 1 1 361274.69 0a 180637.35 180637.35 0 1 1 -361274.69 0"/>
<path id="N" d="M 14028741.00 22332322.00 L 13871259.00 22332322.00 A 317686.61 317686.61 0 0 0 13871259.00 22967678.00 L 14028741.00 22967678.00 A 317671.90 317671.90 0 0 0 14028741.00 22332322.00  zM 13950000.44 22649998.65 m -180637.35 0 a 180637.35 180637.35 0 1 1 361274.69 0a 180637.35 180637.35 0 1 1 -361274.69 0"/>
<path id="N" d="M 14028741.00 25332322.00 L 13871259.00 25332322.00 A 317686.61 317686.61 0 0 0 13871259.00 25967678.00 L 14028741.00 25967678.00 A 317671.90 317671.90 0 1 0 14028741.00 25332322.00  zM 13950000.44 25649998.65 m -180637.35 0 a 180637.35 180637.35 0 1 1 361274.69 0a 180637.35 180637.35 0 1 1 -361274.69 0"/>
<path id="N" d="M 14028741.00 24332322.00 L 13871259.00 24332322.00 A 317686.61 317686.61 0 0 0 13871259.00 24967678.00 L 14028741.00 24967678.00 A 317671.90 317671.90 0 0 0 14028741.00 24332322.00  zM 13950000.44 24649998.65 m -180637.35 0 a 180637.35 180637.35 0 1 1 361274.69 0a 180637.35 180637.35 0 1 1 -361274.69 0"/>
<path id="N" d="M 14028741.00 23332322.00 L 13871259.00 23332322.00 A 317686.61 317686.61 0 0 0 13871259.00 23967678.00 L 14028741.00 23967678.00 A 317671.90 317671.90 0 1 0 14028741.00 23332322.00  zM 13950000.44 23649998.65 m -180637.35 0 a 180637.35 180637.35 0 1 1 361274.69 0a 180637.35 180637.35 0 1 1 -361274.69 0"/>
<path id="N" d="M 14028741.00 27332322.00 L 13871259.00 27332322.00 A 317686.61 317686.61 0 0 0 13871259.00 27967678.00 L 14028741.00 27967678.00 A 317671.90 317671.90 0 0 0 14028741.00 27332322.00  zM 13950000.44 27649998.65 m -180637.35 0 a 180637.35 180637.35 0 1 1 361274.69 0a 180637.35 180637.35 0 1 1 -361274.69 0"/>
<path id="N" d="M 12367678.00 48028741.00 L 12367678.00 47871259.00 A 317686.61 317686.61 0 1 0 11732322.00 47871259.00 L 11732322.00 48028741.00 A 317686.61 317686.61 0 0 0 12367678.00 48028741.00  zM 12050000.44 47949998.65 m -180637.35 0 a 180637.35 180637.35 0 1 1 361274.69 0a 180637.35 180637.35 0 1 1 -361274.69 0"/>
<path id="N" d="M 19874408.82 43925585.93 m -397102.15 0 a 397102.15 397102.15 0 1 1 794204.30 0a 397102.15 397102.15 0 1 1 -794204.30 0M 19874410.44 43925588.65 m -180637.35 0 a 180637.35 180637.35 0 1 1 361274.69 0a 180637.35 180637.35 0 1 1 -361274.69 0"/>
<path id="N" d="M 24677557.82 43925585.93 m -397102.15 0 a 397102.15 397102.15 0 1 1 794204.30 0a 397102.15 397102.15 0 1 1 -794204.30 0M 24677559.44 43925588.65 m -180637.35 0 a 180637.35 180637.35 0 1 1 361274.69 0a 180637.35 180637.35 0 1 1 -361274.69 0"/>
<path id="N" d="M 15700002.99 48650005.10 m -317671.90 0 a 317671.90 317671.90 0 1 1 635343.80 0a 317671.90 317671.90 0 1 1 -635343.80 0M 15700000.44 48649998.65 m -180637.35 0 a 180637.35 180637.35 0 1 1 361274.69 0a 180637.35 180637.35 0 1 1 -361274.69 0"/>
<path id="N" d="M 14343701.00 20335040.00 L 13556299.00 20335040.00 L 13556299.00 20964960.00 L 14343701.00 20964960.00 L 14343701.00 20335040.00  zM 13950000.44 20649998.65 m -180637.35 0 a 180637.35 180637.35 0 1 1 361274.69 0a 180637.35 180637.35 0 1 1 -361274.69 0"/>
<path id="N" d="M 17974803.00 47975197.00 L 17325197.00 47975197.00 L 17325197.00 48624803.00 L 17974803.00 48624803.00 L 17974803.00 47975197.00  zM 17650000.44 48299998.65 m -180637.35 0 a 180637.35 180637.35 0 1 1 361274.69 0a 180637.35 180637.35 0 1 1 -361274.69 0"/>
<path id="N" d="M 27214960.00 43056299.00 L 26585040.00 43056299.00 L 26585040.00 43843701.00 L 27214960.00 43843701.00 L 27214960.00 43056299.00  zM 26900000.44 43449998.65 m -180637.35 0 a 180637.35 180637.35 0 1 1 361274.69 0a 180637.35 180637.35 0 1 1 -361274.69 0"/>
<path id="N" d="M 51824054.00 32377953.00 L 51824054.00 32220471.00 A 317686.61 317686.61 0 1 0 51188698.00 32220471.00 L 51188698.00 32377953.00 A 317686.61 317686.61 0 1 0 51824054.00 32377953.00  zM 51506376.44 32299210.65 m -180637.35 0 a 180637.35 180637.35 0 1 1 361274.69 0a 180637.35 180637.35 0 1 1 -361274.69 0"/>
<path id="N" d="M 55144603.00 46428741.00 L 55144603.00 46271259.00 A 317686.61 317686.61 0 1 0 54509247.00 46271259.00 L 54509247.00 46428741.00 A 317686.61 317686.61 0 1 0 55144603.00 46428741.00  zM 54826925.44 46349998.65 m -180637.35 0 a 180637.35 180637.35 0 1 1 361274.69 0a 180637.35 180637.35 0 1 1 -361274.69 0"/>
<path id="N" d="M 18408269.00 18846494.00 L 18250787.00 18846494.00 A 317686.61 317686.61 0 0 0 17976994.41 19003607.00 L 16123005.59 19003607.00 A 313516.66 313516.66 0 0 0 15849213.00 18846494.00 L 15691731.00 18846494.00 A 317686.61 317686.61 0 0 0 15691731.00 19481850.00 L 15849213.00 19481850.00 A 317686.61 317686.61 0 0 0 16123005.59 19324737.00 L 17976994.41 19324737.00 A 313516.66 313516.66 0 0 0 18250787.00 19481850.00 L 18408269.00 19481850.00 A 317671.90 317671.90 0 0 0 18408269.00 18846494.00  zM 15770472.44 19164170.65 m -180637.35 0 a 180637.35 180637.35 0 1 1 361274.69 0a 180637.35 180637.35 0 1 1 -361274.69 0M 18329528.44 19164170.65 m -180637.35 0 a 180637.35 180637.35 0 1 1 361274.69 0a 180637.35 180637.35 0 1 1 -361274.69 0"/>
<path id="N" d="M 23058269.00 18846494.00 L 22900787.00 18846494.00 A 317686.61 317686.61 0 0 0 22626994.41 19003607.00 L 20773005.59 19003607.00 A 313516.66 313516.66 0 0 0 20499213.00 18846494.00 L 20341731.00 18846494.00 A 317686.61 317686.61 0 0 0 20341731.00 19481850.00 L 20499213.00 19481850.00 A 317686.61 317686.61 0 0 0 20773005.59 19324737.00 L 22626994.41 19324737.00 A 313516.66 313516.66 0 0 0 22900787.00 19481850.00 L 23058269.00 19481850.00 A 317671.90 317671.90 0 1 0 23058269.00 18846494.00  zM 20420472.44 19164170.65 m -180637.35 0 a 180637.35 180637.35 0 1 1 361274.69 0a 180637.35 180637.35 0 1 1 -361274.69 0M 22979528.44 19164170.65 m -180637.35 0 a 180637.35 180637.35 0 1 1 361274.69 0a 180637.35 180637.35 0 1 1 -361274.69 0"/>
<path id="N" d="M 25117678.00 25178741.00 L 25117678.00 25021259.00 A 317686.61 317686.61 0 0 0 24482322.00 25021259.00 L 24482322.00 25178741.00 A 317686.61 317686.61 0 0 0 25117678.00 25178741.00  zM 24800000.44 25099998.65 m -180637.35 0 a 180637.35 180637.35 0 1 1 361274.69 0a 180637.35 180637.35 0 1 1 -361274.69 0"/>
<path id="N" d="M 28100002.99 22250005.10 m -317671.90 0 a 317671.90 317671.90 0 1 1 635343.80 0a 317671.90 317671.90 0 1 1 -635343.80 0M 28100000.44 22249998.65 m -180637.35 0 a 180637.35 180637.35 0 1 1 361274.69 0a 180637.35 180637.35 0 1 1 -361274.69 0"/>
<path id="N" d="M 30316301.99 22250005.10 m -317671.90 0 a 317671.90 317671.90 0 1 1 635343.80 0a 317671.90 317671.90 0 1 1 -635343.80 0M 30316299.44 22249998.65 m -180637.35 0 a 180637.35 180637.35 0 1 1 361274.69 0a 180637.35 180637.35 0 1 1 -361274.69 0"/>
<path id="N" d="M 49824054.00 38478741.00 L 49824054.00 38321259.00 A 317686.61 317686.61 0 0 0 49188698.00 38321259.00 L 49188698.00 38478741.00 A 317686.61 317686.61 0 0 0 49824054.00 38478741.00  zM 49506376.44 38399998.65 m -180637.35 0 a 180637.35 180637.35 0 1 1 361274.69 0a 180637.35 180637.35 0 1 1 -361274.69 0"/>
<path id="N" d="M 58817678.00 30778741.00 L 58817678.00 30621259.00 A 317686.61 317686.61 0 0 0 58182322.00 30621259.00 L 58182322.00 30778741.00 A 317686.61 317686.61 0 0 0 58817678.00 30778741.00  zM 58500000.44 30699998.65 m -180637.35 0 a 180637.35 180637.35 0 1 1 361274.69 0a 180637.35 180637.35 0 1 1 -361274.69 0"/>
<path id="N" d="M 30958269.00 45496494.00 L 30800787.00 45496494.00 A 317686.61 317686.61 0 0 0 30526994.41 45653607.00 L 28673005.59 45653607.00 A 313516.66 313516.66 0 0 0 28399213.00 45496494.00 L 28241731.00 45496494.00 A 317686.61 317686.61 0 0 0 28241731.00 46131850.00 L 28399213.00 46131850.00 A 317686.61 317686.61 0 0 0 28673005.59 45974737.00 L 30526994.41 45974737.00 A 313516.66 313516.66 0 0 0 30800787.00 46131850.00 L 30958269.00 46131850.00 A 317671.90 317671.90 0 0 0 30958269.00 45496494.00  zM 28320472.44 45814170.65 m -180637.35 0 a 180637.35 180637.35 0 1 1 361274.69 0a 180637.35 180637.35 0 1 1 -361274.69 0M 30879528.44 45814170.65 m -180637.35 0 a 180637.35 180637.35 0 1 1 361274.69 0a 180637.35 180637.35 0 1 1 -361274.69 0"/>
<path id="N" d="M 33575189.86 29235537.12 m -989001.57 0 a 989001.57 989001.57 0 1 1 1978003.14 0a 989001.57 989001.57 0 1 1 -1978003.14 0M 33575183.40 29235525.06 m -593408.94 0 a 593408.94 593408.94 0 1 1 1186817.89 0a 593408.94 593408.94 0 1 1 -1186817.89 0"/>
<path id="N" d="M 46525189.86 44385537.12 m -989001.57 0 a 989001.57 989001.57 0 1 1 1978003.14 0a 989001.57 989001.57 0 1 1 -1978003.14 0M 46525183.40 44385525.06 m -593408.94 0 a 593408.94 593408.94 0 1 1 1186817.89 0a 593408.94 593408.94 0 1 1 -1186817.89 0"/>
<path id="N" d="M 10950005.86 49400011.12 m -989001.57 0 a 989001.57 989001.57 0 1 1 1978003.14 0a 989001.57 989001.57 0 1 1 -1978003.14 0M 10949999.40 49399999.06 m -593408.94 0 a 593408.94 593408.94 0 1 1 1186817.89 0a 593408.94 593408.94 0 1 1 -1186817.89 0"/>
<path id="N" d="M 10778741.00 24332322.00 L 10621259.00 24332322.00 A 317686.61 317686.61 0 0 0 10621259.00 24967678.00 L 10778741.00 24967678.00 A 317671.90 317671.90 0 1 0 10778741.00 24332322.00  zM 10700000.44 24649998.65 m -180637.35 0 a 180637.35 180637.35 0 1 1 361274.69 0a 180637.35 180637.35 0 1 1 -361274.69 0"/>
<path id="N" d="M 47824054.00 32377953.00 L 47824054.00 32220471.00 A 317686.61 317686.61 0 0 0 47188698.00 32220471.00 L 47188698.00 32377953.00 A 317686.61 317686.61 0 0 0 47824054.00 32377953.00  zM 47506376.44 32299210.65 m -180637.35 0 a 180637.35 180637.35 0 1 1 361274.69 0a 180637.35 180637.35 0 1 1 -361274.69 0"/>
<path id="N" d="M 10778741.00 22332322.00 L 10621259.00 22332322.00 A 317686.61 317686.61 0 0 0 10621259.00 22967678.00 L 10778741.00 22967678.00 A 317671.90 317671.90 0 1 0 10778741.00 22332322.00  zM 10700000.44 22649998.65 m -180637.35 0 a 180637.35 180637.35 0 1 1 361274.69 0a 180637.35 180637.35 0 1 1 -361274.69 0"/>
<path id="N" d="M 40217678.00 46428741.00 L 40217678.00 46271259.00 A 317686.61 317686.61 0 0 0 39582322.00 46271259.00 L 39582322.00 46428741.00 A 317686.61 317686.61 0 1 0 40217678.00 46428741.00  zM 39900000.44 46349998.65 m -180637.35 0 a 180637.35 180637.35 0 1 1 361274.69 0a 180637.35 180637.35 0 1 1 -361274.69 0"/>
<path id="N" d="M 10778741.00 21332322.00 L 10621259.00 21332322.00 A 317686.61 317686.61 0 0 0 10621259.00 21967678.00 L 10778741.00 21967678.00 A 317671.90 317671.90 0 1 0 10778741.00 21332322.00  zM 10700000.44 21649998.65 m -180637.35 0 a 180637.35 180637.35 0 1 1 361274.69 0a 180637.35 180637.35 0 1 1 -361274.69 0"/>
<path id="N" d="M 45824054.00 38478741.00 L 45824054.00 38321259.00 A 317686.61 317686.61 0 0 0 45188698.00 38321259.00 L 45188698.00 38478741.00 A 317686.61 317686.61 0 0 0 45824054.00 38478741.00  zM 45506376.44 38399998.65 m -180637.35 0 a 180637.35 180637.35 0 1 1 361274.69 0a 180637.35 180637.35 0 1 1 -361274.69 0"/>
<path id="N" d="M 29617678.00 48928741.00 L 29617678.00 48771259.00 A 317686.61 317686.61 0 0 0 28982322.00 48771259.00 L 28982322.00 48928741.00 A 317686.61 317686.61 0 0 0 29617678.00 48928741.00  zM 29300000.44 48849998.65 m -180637.35 0 a 180637.35 180637.35 0 1 1 361274.69 0a 180637.35 180637.35 0 1 1 -361274.69 0"/>
<path id="N" d="M 46267678.00 41028741.00 L 46267678.00 40871259.00 A 317686.61 317686.61 0 1 0 45632322.00 40871259.00 L 45632322.00 41028741.00 A 317686.61 317686.61 0 0 0 46267678.00 41028741.00  zM 45950000.44 40949998.65 m -180637.35 0 a 180637.35 180637.35 0 1 1 361274.69 0a 180637.35 180637.35 0 1 1 -361274.69 0"/>
<path id="N" d="M 10778741.00 27332322.00 L 10621259.00 27332322.00 A 317686.61 317686.61 0 0 0 10621259.00 27967678.00 L 10778741.00 27967678.00 A 317671.90 317671.90 0 0 0 10778741.00 27332322.00  zM 10700000.44 27649998.65 m -180637.35 0 a 180637.35 180637.35 0 1 1 361274.69 0a 180637.35 180637.35 0 1 1 -361274.69 0"/>
<path id="N" d="M 10778741.00 25332322.00 L 10621259.00 25332322.00 A 317686.61 317686.61 0 0 0 10621259.00 25967678.00 L 10778741.00 25967678.00 A 317671.90 317671.90 0 1 0 10778741.00 25332322.00  zM 10700000.44 25649998.65 m -180637.35 0 a 180637.35 180637.35 0 1 1 361274.69 0a 180637.35 180637.35 0 1 1 -361274.69 0"/>
<path id="N" d="M 10778741.00 26332322.00 L 10621259.00 26332322.00 A 317686.61 317686.61 0 0 0 10621259.00 26967678.00 L 10778741.00 26967678.00 A 317671.90 317671.90 0 1 0 10778741.00 26332322.00  zM 10700000.44 26649998.65 m -180637.35 0 a 180637.35 180637.35 0 1 1 361274.69 0a 180637.35 180637.35 0 1 1 -361274.69 0"/>
<path id="N" d="M 10778741.00 23332322.00 L 10621259.00 23332322.00 A 317686.61 317686.61 0 0 0 10621259.00 23967678.00 L 10778741.00 23967678.00 A 317671.90 317671.90 0 1 0 10778741.00 23332322.00  zM 10700000.44 23649998.65 m -180637.35 0 a 180637.35 180637.35 0 1 1 361274.69 0a 180637.35 180637.35 0 1 1 -361274.69 0"/>
<path id="N" d="M 19874408.82 48649995.93 m -397102.15 0 a 397102.15 397102.15 0 1 1 794204.30 0a 397102.15 397102.15 0 1 1 -794204.30 0M 19874410.44 48649998.65 m -180637.35 0 a 180637.35 180637.35 0 1 1 361274.69 0a 180637.35 180637.35 0 1 1 -361274.69 0"/>
<path id="N" d="M 15700002.99 43650005.10 m -317671.90 0 a 317671.90 317671.90 0 1 1 635343.80 0a 317671.90 317671.90 0 1 1 -635343.80 0M 15700000.44 43649998.65 m -180637.35 0 a 180637.35 180637.35 0 1 1 361274.69 0a 180637.35 180637.35 0 1 1 -361274.69 0"/>
<path id="N" d="M 47800002.99 30800005.10 m -317671.90 0 a 317671.90 317671.90 0 1 1 635343.80 0a 317671.90 317671.90 0 1 1 -635343.80 0M 47800000.44 30799998.65 m -180637.35 0 a 180637.35 180637.35 0 1 1 361274.69 0a 180637.35 180637.35 0 1 1 -361274.69 0"/>
<path id="N" d="M 38700002.99 43250005.10 m -317671.90 0 a 317671.90 317671.90 0 1 1 635343.80 0a 317671.90 317671.90 0 1 1 -635343.80 0M 38700000.44 43249998.65 m -180637.35 0 a 180637.35 180637.35 0 1 1 361274.69 0a 180637.35 180637.35 0 1 1 -361274.69 0"/>
<path id="N" d="M 48212092.99 27400005.10 m -317671.90 0 a 317671.90 317671.90 0 1 1 635343.80 0a 317671.90 317671.90 0 1 1 -635343.80 0M 48212090.44 27399998.65 m -180637.35 0 a 180637.35 180637.35 0 1 1 361274.69 0a 180637.35 180637.35 0 1 1 -361274.69 0"/>
<path id="N" d="M 17650001.97 44300005.69 m -327599.99 0 a 327599.99 327599.99 0 1 1 655199.97 0a 327599.99 327599.99 0 1 1 -655199.97 0M 17650000.44 44299998.65 m -180637.35 0 a 180637.35 180637.35 0 1 1 361274.69 0a 180637.35 180637.35 0 1 1 -361274.69 0"/>
<path id="N" d="M 49312092.99 27400005.10 m -317671.90 0 a 317671.90 317671.90 0 1 1 635343.80 0a 317671.90 317671.90 0 1 1 -635343.80 0M 49312090.44 27399998.65 m -180637.35 0 a 180637.35 180637.35 0 1 1 361274.69 0a 180637.35 180637.35 0 1 1 -361274.69 0"/>
<path id="N" d="M 45500002.99 39550005.10 m -317671.90 0 a 317671.90 317671.90 0 1 1 635343.80 0a 317671.90 317671.90 0 1 1 -635343.80 0M 45500000.44 39549998.65 m -180637.35 0 a 180637.35 180637.35 0 1 1 361274.69 0a 180637.35 180637.35 0 1 1 -361274.69 0"/>
<path id="N" d="M 24150002.99 40100005.10 m -317671.90 0 a 317671.90 317671.90 0 1 1 635343.80 0a 317671.90 317671.90 0 1 1 -635343.80 0M 24150000.44 40099998.65 m -180637.35 0 a 180637.35 180637.35 0 1 1 361274.69 0a 180637.35 180637.35 0 1 1 -361274.69 0"/>
<path id="N" d="M 13684572.00 37336177.00 L 13684572.00 36450349.00 A 446726.20 446726.20 0 1 0 12791102.00 36450349.00 L 12791102.00 37336177.00 A 446726.20 446726.20 0 0 0 13684572.00 37336177.00  zM 13415002.00 37483814.00 L 13060672.00 37483814.00 L 13060672.00 36302712.00 L 13415002.00 36302712.00 L 13415002.00 37483814.00  z"/>
<path id="N" d="M 14861854.00 34596134.00 L 13976026.00 34596134.00 A 446733.54 446733.54 0 0 0 13976026.00 35489604.00 L 14861854.00 35489604.00 A 446720.81 446720.81 0 0 0 14861854.00 34596134.00  zM 15009491.00 35220034.00 L 13828389.00 35220034.00 L 13828389.00 34865704.00 L 15009491.00 34865704.00 L 15009491.00 35220034.00  z"/>
<path id="N" d="M 11502635.00 33710137.00 L 10715233.00 33709505.00 L 10714727.00 34339425.00 L 11502129.00 34340057.00 L 11502635.00 33710137.00  zM 11108681.44 34024779.65 m -180637.35 0 a 180637.35 180637.35 0 1 1 361274.69 0a 180637.35 180637.35 0 1 1 -361274.69 0"/>
<path id="N" d="M 20930284.00 31206299.00 L 20142882.00 31206299.00 L 20142882.00 31993701.00 L 20930284.00 31993701.00 L 20930284.00 31206299.00  zM 20536583.44 31599998.65 m -180637.35 0 a 180637.35 180637.35 0 1 1 361274.69 0a 180637.35 180637.35 0 1 1 -361274.69 0"/>
<path id="N" d="M 11093701.00 20335040.00 L 10306299.00 20335040.00 L 10306299.00 20964960.00 L 11093701.00 20964960.00 L 11093701.00 20335040.00  zM 10700000.44 20649998.65 m -180637.35 0 a 180637.35 180637.35 0 1 1 361274.69 0a 180637.35 180637.35 0 1 1 -361274.69 0"/>
<path id="N" d="M 11986597.00 41072007.00 L 10805495.00 41072007.00 L 10805495.00 42253109.00 L 11986597.00 42253109.00 L 11986597.00 41072007.00  zM 11396046.44 41662556.65 m -180637.35 0 a 180637.35 180637.35 0 1 1 361274.69 0a 180637.35 180637.35 0 1 1 -361274.69 0"/>
<path id="N" d="M 44445203.00 21894292.00 L 44407219.00 21878558.54 L 44407219.00 20397819.46 L 44445203.00 20382086.00 A 397086.64 397086.64 0 1 0 44048105.00 20382086.00 L 44086089.00 20397819.46 L 44086089.00 21878558.54 L 44048105.00 21894292.00 A 397086.64 397086.64 0 1 0 44445203.00 21894292.00  zM 44246654.44 20038187.65 m -180637.35 0 a 180637.35 180637.35 0 1 1 361274.69 0a 180637.35 180637.35 0 1 1 -361274.69 0M 44246654.44 22238187.65 m -180637.35 0 a 180637.35 180637.35 0 1 1 361274.69 0a 180637.35 180637.35 0 1 1 -361274.69 0"/>
<path id="N" d="M 44542678.00 24008269.00 L 44542678.00 23850787.00 A 317686.61 317686.61 0 1 0 43907322.00 23850787.00 L 43907322.00 24008269.00 A 317686.61 317686.61 0 1 0 44542678.00 24008269.00  zM 44225000.44 23929526.65 m -180637.35 0 a 180637.35 180637.35 0 1 1 361274.69 0a 180637.35 180637.35 0 1 1 -361274.69 0"/>
<path id="N" d="M 44542678.00 25478741.00 L 44542678.00 25321259.00 A 317686.61 317686.61 0 1 0 43907322.00 25321259.00 L 43907322.00 25478741.00 A 317686.61 317686.61 0 0 0 44542678.00 25478741.00  zM 44225000.44 25399998.65 m -180637.35 0 a 180637.35 180637.35 0 1 1 361274.69 0a 180637.35 180637.35 0 1 1 -361274.69 0"/>
<path id="N" d="M 15700002.99 46650005.10 m -317671.90 0 a 317671.90 317671.90 0 1 1 635343.80 0a 317671.90 317671.90 0 1 1 -635343.80 0M 15700000.44 46649998.65 m -180637.35 0 a 180637.35 180637.35 0 1 1 361274.69 0a 180637.35 180637.35 0 1 1 -361274.69 0"/>
<path id="N" d="M 16014960.00 47335040.00 L 15385040.00 47335040.00 L 15385040.00 47964960.00 L 16014960.00 47964960.00 L 16014960.00 47335040.00  zM 15700000.44 47649998.65 m -180637.35 0 a 180637.35 180637.35 0 1 1 361274.69 0a 180637.35 180637.35 0 1 1 -361274.69 0"/>
<path id="N" d="M 28258269.00 20618148.00 L 28100787.00 20618148.00 A 317686.61 317686.61 0 0 0 27826994.41 20775261.00 L 25973005.59 20775261.00 A 313516.66 313516.66 0 0 0 25699213.00 20618148.00 L 25541731.00 20618148.00 A 317686.61 317686.61 0 0 0 25541731.00 21253504.00 L 25699213.00 21253504.00 A 317686.61 317686.61 0 0 0 25973005.59 21096391.00 L 27826994.41 21096391.00 A 313516.66 313516.66 0 0 0 28100787.00 21253504.00 L 28258269.00 21253504.00 A 317671.90 317671.90 0 0 0 28258269.00 20618148.00  zM 25620472.44 20935824.65 m -180637.35 0 a 180637.35 180637.35 0 1 1 361274.69 0a 180637.35 180637.35 0 1 1 -361274.69 0M 28179528.44 20935824.65 m -180637.35 0 a 180637.35 180637.35 0 1 1 361274.69 0a 180637.35 180637.35 0 1 1 -361274.69 0"/>
<path id="N" d="M 32887797.00 20632322.00 L 32730315.00 20632322.00 A 317686.61 317686.61 0 0 0 32456522.41 20789435.00 L 30602533.59 20789435.00 A 313516.66 313516.66 0 0 0 30328741.00 20632322.00 L 30171259.00 20632322.00 A 317686.61 317686.61 0 1 0 30171259.00 21267678.00 L 30328741.00 21267678.00 A 317686.61 317686.61 0 0 0 30602533.59 21110565.00 L 32456522.41 21110565.00 A 313516.66 313516.66 0 0 0 32730315.00 21267678.00 L 32887797.00 21267678.00 A 317671.90 317671.90 0 0 0 32887797.00 20632322.00  zM 30250000.44 20949998.65 m -180637.35 0 a 180637.35 180637.35 0 1 1 361274.69 0a 180637.35 180637.35 0 1 1 -361274.69 0M 32809056.44 20949998.65 m -180637.35 0 a 180637.35 180637.35 0 1 1 361274.69 0a 180637.35 180637.35 0 1 1 -361274.69 0"/>
<path id="N" d="M 18350002.99 23250005.10 m -317671.90 0 a 317671.90 317671.90 0 1 1 635343.80 0a 317671.90 317671.90 0 1 1 -635343.80 0M 18350000.44 23249998.65 m -180637.35 0 a 180637.35 180637.35 0 1 1 361274.69 0a 180637.35 180637.35 0 1 1 -361274.69 0"/>
<path id="N" d="M 20400002.99 23250005.10 m -317671.90 0 a 317671.90 317671.90 0 1 1 635343.80 0a 317671.90 317671.90 0 1 1 -635343.80 0M 20400000.44 23249998.65 m -180637.35 0 a 180637.35 180637.35 0 1 1 361274.69 0a 180637.35 180637.35 0 1 1 -361274.69 0"/>
<path id="N" d="M 24114960.00 24706299.00 L 23485040.00 24706299.00 L 23485040.00 25493701.00 L 24114960.00 25493701.00 L 24114960.00 24706299.00  zM 23800000.44 25099998.65 m -180637.35 0 a 180637.35 180637.35 0 1 1 361274.69 0a 180637.35 180637.35 0 1 1 -361274.69 0"/>
<path id="N" d="M 22400002.99 36010005.10 m -317671.90 0 a 317671.90 317671.90 0 1 1 635343.80 0a 317671.90 317671.90 0 1 1 -635343.80 0M 22400000.44 36009998.65 m -180637.35 0 a 180637.35 180637.35 0 1 1 361274.69 0a 180637.35 180637.35 0 1 1 -361274.69 0"/>
<path id="N" d="M 25993701.00 37285040.00 L 25206299.00 37285040.00 L 25206299.00 37914960.00 L 25993701.00 37914960.00 L 25993701.00 37285040.00  zM 25600000.44 37599998.65 m -180637.35 0 a 180637.35 180637.35 0 1 1 361274.69 0a 180637.35 180637.35 0 1 1 -361274.69 0"/>
<path id="N" d="M 63550001.79 22950002.99 m -593404.85 0 a 593404.85 593404.85 0 1 1 1186809.70 0a 593404.85 593404.85 0 1 1 -1186809.70 0M 63550000.44 22949998.65 m -180637.35 0 a 180637.35 180637.35 0 1 1 361274.69 0a 180637.35 180637.35 0 1 1 -361274.69 0"/>
<path id="N" d="M 58599998.82 24995270.93 m -397102.15 0 a 397102.15 397102.15 0 1 1 794204.30 0a 397102.15 397102.15 0 1 1 -794204.30 0M 58600000.44 24995273.65 m -180637.35 0 a 180637.35 180637.35 0 1 1 361274.69 0a 180637.35 180637.35 0 1 1 -361274.69 0"/>
<path id="N" d="M 45817678.00 30778741.00 L 45817678.00 30621259.00 A 317686.61 317686.61 0 0 0 45182322.00 30621259.00 L 45182322.00 30778741.00 A 317686.61 317686.61 0 0 0 45817678.00 30778741.00  zM 45500000.44 30699998.65 m -180637.35 0 a 180637.35 180637.35 0 1 1 361274.69 0a 180637.35 180637.35 0 1 1 -361274.69 0"/>
<path id="N" d="M 45824054.00 32377953.00 L 45824054.00 32220471.00 A 317686.61 317686.61 0 0 0 45188698.00 32220471.00 L 45188698.00 32377953.00 A 317686.61 317686.61 0 1 0 45824054.00 32377953.00  zM 45506376.44 32299210.65 m -180637.35 0 a 180637.35 180637.35 0 1 1 361274.69 0a 180637.35 180637.35 0 1 1 -361274.69 0"/>
<path id="N" d="M 23058269.00 20618148.00 L 22900787.00 20618148.00 A 317686.61 317686.61 0 0 0 22626994.41 20775261.00 L 20773005.59 20775261.00 A 313516.66 313516.66 0 0 0 20499213.00 20618148.00 L 20341731.00 20618148.00 A 317686.61 317686.61 0 0 0 20341731.00 21253504.00 L 20499213.00 21253504.00 A 317686.61 317686.61 0 0 0 20773005.59 21096391.00 L 22626994.41 21096391.00 A 313516.66 313516.66 0 0 0 22900787.00 21253504.00 L 23058269.00 21253504.00 A 317671.90 317671.90 0 1 0 23058269.00 20618148.00  zM 20420472.44 20935824.65 m -180637.35 0 a 180637.35 180637.35 0 1 1 361274.69 0a 180637.35 180637.35 0 1 1 -361274.69 0M 22979528.44 20935824.65 m -180637.35 0 a 180637.35 180637.35 0 1 1 361274.69 0a 180637.35 180637.35 0 1 1 -361274.69 0"/>
<path id="N" d="M 20400002.99 22250005.10 m -317671.90 0 a 317671.90 317671.90 0 1 1 635343.80 0a 317671.90 317671.90 0 1 1 -635343.80 0M 20400000.44 22249998.65 m -180637.35 0 a 180637.35 180637.35 0 1 1 361274.69 0a 180637.35 180637.35 0 1 1 -361274.69 0"/>
<path id="N" d="M 20164960.00 24656299.00 L 19535040.00 24656299.00 L 19535040.00 25443701.00 L 20164960.00 25443701.00 L 20164960.00 24656299.00  zM 19850000.44 25049998.65 m -180637.35 0 a 180637.35 180637.35 0 1 1 361274.69 0a 180637.35 180637.35 0 1 1 -361274.69 0"/>
<path id="N" d="M 23536581.82 31599995.93 m -397102.15 0 a 397102.15 397102.15 0 1 1 794204.30 0a 397102.15 397102.15 0 1 1 -794204.30 0M 23536583.44 31599998.65 m -180637.35 0 a 180637.35 180637.35 0 1 1 361274.69 0a 180637.35 180637.35 0 1 1 -361274.69 0"/>
<path id="N" d="M 25855486.00 31294882.00 L 25245250.00 31294882.00 L 25245250.00 31905118.00 L 25855486.00 31905118.00 L 25855486.00 31294882.00  zM 25550368.44 31599998.65 m -180637.35 0 a 180637.35 180637.35 0 1 1 361274.69 0a 180637.35 180637.35 0 1 1 -361274.69 0"/>
<path id="N" d="M 54824054.00 32377953.00 L 54824054.00 32220471.00 A 317686.61 317686.61 0 1 0 54188698.00 32220471.00 L 54188698.00 32377953.00 A 317686.61 317686.61 0 1 0 54824054.00 32377953.00  zM 54506376.44 32299210.65 m -180637.35 0 a 180637.35 180637.35 0 1 1 361274.69 0a 180637.35 180637.35 0 1 1 -361274.69 0"/>
<path id="N" d="M 54814960.00 30306299.00 L 54185040.00 30306299.00 L 54185040.00 31093701.00 L 54814960.00 31093701.00 L 54814960.00 30306299.00  zM 54500000.44 30699998.65 m -180637.35 0 a 180637.35 180637.35 0 1 1 361274.69 0a 180637.35 180637.35 0 1 1 -361274.69 0"/>
<path id="N" d="M 42476699.00 21894292.00 L 42438715.00 21878558.54 L 42438715.00 20397819.46 L 42476699.00 20382086.00 A 397086.64 397086.64 0 1 0 42079601.00 20382086.00 L 42117585.00 20397819.46 L 42117585.00 21878558.54 L 42079601.00 21894292.00 A 397086.64 397086.64 0 1 0 42476699.00 21894292.00  zM 42278150.44 20038187.65 m -180637.35 0 a 180637.35 180637.35 0 1 1 361274.69 0a 180637.35 180637.35 0 1 1 -361274.69 0M 42278150.44 22238187.65 m -180637.35 0 a 180637.35 180637.35 0 1 1 361274.69 0a 180637.35 180637.35 0 1 1 -361274.69 0"/>
<path id="N" d="M 43539960.00 23535827.00 L 42910040.00 23535827.00 L 42910040.00 24323229.00 L 43539960.00 24323229.00 L 43539960.00 23535827.00  zM 43225000.44 23929526.65 m -180637.35 0 a 180637.35 180637.35 0 1 1 361274.69 0a 180637.35 180637.35 0 1 1 -361274.69 0"/>
<path id="N" d="M 43539960.00 25006299.00 L 42910040.00 25006299.00 L 42910040.00 25793701.00 L 43539960.00 25793701.00 L 43539960.00 25006299.00  zM 43225000.44 25399998.65 m -180637.35 0 a 180637.35 180637.35 0 1 1 361274.69 0a 180637.35 180637.35 0 1 1 -361274.69 0"/>
<path id="N" d="M 54728741.00 22832322.00 L 54571259.00 22832322.00 A 317686.61 317686.61 0 0 0 54571259.00 23467678.00 L 54728741.00 23467678.00 A 317671.90 317671.90 0 0 0 54728741.00 22832322.00  zM 54650000.44 23149998.65 m -180637.35 0 a 180637.35 180637.35 0 1 1 361274.69 0a 180637.35 180637.35 0 1 1 -361274.69 0"/>
<path id="N" d="M 56237793.82 24207868.93 m -397102.15 0 a 397102.15 397102.15 0 1 1 794204.30 0a 397102.15 397102.15 0 1 1 -794204.30 0M 56237795.44 24207871.65 m -180637.35 0 a 180637.35 180637.35 0 1 1 361274.69 0a 180637.35 180637.35 0 1 1 -361274.69 0"/>
<path id="N" d="M 49950002.99 23700005.10 m -317671.90 0 a 317671.90 317671.90 0 1 1 635343.80 0a 317671.90 317671.90 0 1 1 -635343.80 0M 49950000.44 23699998.65 m -180637.35 0 a 180637.35 180637.35 0 1 1 361274.69 0a 180637.35 180637.35 0 1 1 -361274.69 0"/>
<path id="N" d="M 52950002.99 21900005.10 m -317671.90 0 a 317671.90 317671.90 0 1 1 635343.80 0a 317671.90 317671.90 0 1 1 -635343.80 0M 52950000.44 21899998.65 m -180637.35 0 a 180637.35 180637.35 0 1 1 361274.69 0a 180637.35 180637.35 0 1 1 -361274.69 0"/>
<path id="N" d="M 55043701.00 20035040.00 L 54256299.00 20035040.00 L 54256299.00 20664960.00 L 55043701.00 20664960.00 L 55043701.00 20035040.00  zM 54650000.44 20349998.65 m -180637.35 0 a 180637.35 180637.35 0 1 1 361274.69 0a 180637.35 180637.35 0 1 1 -361274.69 0"/>
<path id="N" d="M 41817678.00 41028741.00 L 41817678.00 40871259.00 A 317686.61 317686.61 0 1 0 41182322.00 40871259.00 L 41182322.00 41028741.00 A 317686.61 317686.61 0 0 0 41817678.00 41028741.00  zM 41500000.44 40949998.65 m -180637.35 0 a 180637.35 180637.35 0 1 1 361274.69 0a 180637.35 180637.35 0 1 1 -361274.69 0"/>
<path id="N" d="M 41824054.00 38478741.00 L 41824054.00 38321259.00 A 317686.61 317686.61 0 0 0 41188698.00 38321259.00 L 41188698.00 38478741.00 A 317686.61 317686.61 0 0 0 41824054.00 38478741.00  zM 41506376.44 38399998.65 m -180637.35 0 a 180637.35 180637.35 0 1 1 361274.69 0a 180637.35 180637.35 0 1 1 -361274.69 0"/>
<path id="N" d="M 40824054.00 38478741.00 L 40824054.00 38321259.00 A 317686.61 317686.61 0 0 0 40188698.00 38321259.00 L 40188698.00 38478741.00 A 317686.61 317686.61 0 0 0 40824054.00 38478741.00  zM 40506376.44 38399998.65 m -180637.35 0 a 180637.35 180637.35 0 1 1 361274.69 0a 180637.35 180637.35 0 1 1 -361274.69 0"/>
<path id="N" d="M 40817678.00 41028741.00 L 40817678.00 40871259.00 A 317686.61 317686.61 0 0 0 40182322.00 40871259.00 L 40182322.00 41028741.00 A 317686.61 317686.61 0 0 0 40817678.00 41028741.00  zM 40500000.44 40949998.65 m -180637.35 0 a 180637.35 180637.35 0 1 1 361274.69 0a 180637.35 180637.35 0 1 1 -361274.69 0"/>
<path id="N" d="M 41814960.00 41756299.00 L 41185040.00 41756299.00 L 41185040.00 42543701.00 L 41814960.00 42543701.00 L 41814960.00 41756299.00  zM 41500000.44 42149998.65 m -180637.35 0 a 180637.35 180637.35 0 1 1 361274.69 0a 180637.35 180637.35 0 1 1 -361274.69 0"/>
<path id="N" d="M 42217678.00 46428741.00 L 42217678.00 46271259.00 A 317686.61 317686.61 0 1 0 41582322.00 46271259.00 L 41582322.00 46428741.00 A 317686.61 317686.61 0 1 0 42217678.00 46428741.00  zM 41900000.44 46349998.65 m -180637.35 0 a 180637.35 180637.35 0 1 1 361274.69 0a 180637.35 180637.35 0 1 1 -361274.69 0"/>
<path id="N" d="M 37824054.00 38478741.00 L 37824054.00 38321259.00 A 317686.61 317686.61 0 0 0 37188698.00 38321259.00 L 37188698.00 38478741.00 A 317686.61 317686.61 0 0 0 37824054.00 38478741.00  zM 37506376.44 38399998.65 m -180637.35 0 a 180637.35 180637.35 0 1 1 361274.69 0a 180637.35 180637.35 0 1 1 -361274.69 0"/>
<path id="N" d="M 37817678.00 41028741.00 L 37817678.00 40871259.00 A 317686.61 317686.61 0 1 0 37182322.00 40871259.00 L 37182322.00 41028741.00 A 317686.61 317686.61 0 0 0 37817678.00 41028741.00  zM 37500000.44 40949998.65 m -180637.35 0 a 180637.35 180637.35 0 1 1 361274.69 0a 180637.35 180637.35 0 1 1 -361274.69 0"/>
<path id="N" d="M 40817678.00 30778741.00 L 40817678.00 30621259.00 A 317686.61 317686.61 0 0 0 40182322.00 30621259.00 L 40182322.00 30778741.00 A 317686.61 317686.61 0 0 0 40817678.00 30778741.00  zM 40500000.44 30699998.65 m -180637.35 0 a 180637.35 180637.35 0 1 1 361274.69 0a 180637.35 180637.35 0 1 1 -361274.69 0"/>
<path id="N" d="M 40824054.00 32377953.00 L 40824054.00 32220471.00 A 317686.61 317686.61 0 1 0 40188698.00 32220471.00 L 40188698.00 32377953.00 A 317686.61 317686.61 0 1 0 40824054.00 32377953.00  zM 40506376.44 32299210.65 m -180637.35 0 a 180637.35 180637.35 0 1 1 361274.69 0a 180637.35 180637.35 0 1 1 -361274.69 0"/>
<path id="N" d="M 48824054.00 32377953.00 L 48824054.00 32220471.00 A 317686.61 317686.61 0 1 0 48188698.00 32220471.00 L 48188698.00 32377953.00 A 317686.61 317686.61 0 1 0 48824054.00 32377953.00  zM 48506376.44 32299210.65 m -180637.35 0 a 180637.35 180637.35 0 1 1 361274.69 0a 180637.35 180637.35 0 1 1 -361274.69 0"/>
<path id="N" d="M 46762092.99 27400005.10 m -317671.90 0 a 317671.90 317671.90 0 1 1 635343.80 0a 317671.90 317671.90 0 1 1 -635343.80 0M 46762090.44 27399998.65 m -180637.35 0 a 180637.35 180637.35 0 1 1 361274.69 0a 180637.35 180637.35 0 1 1 -361274.69 0"/>
<path id="N" d="M 48012681.00 28863781.00 L 47540241.00 28863781.00 L 47540241.00 29336221.00 L 48012681.00 29336221.00 L 48012681.00 28863781.00  zM 47776463.38 29099995.09 m -140500.91 0 a 140500.91 140500.91 0 1 1 281001.82 0a 140500.91 140500.91 0 1 1 -281001.82 0"/>
<path id="N" d="M 64650005.86 49400011.12 m -989001.57 0 a 989001.57 989001.57 0 1 1 1978003.14 0a 989001.57 989001.57 0 1 1 -1978003.14 0M 64649999.40 49399999.06 m -593408.94 0 a 593408.94 593408.94 0 1 1 1186817.89 0a 593408.94 593408.94 0 1 1 -1186817.89 0"/>
<path id="N" d="M 64650005.86 18650011.12 m -989001.57 0 a 989001.57 989001.57 0 1 1 1978003.14 0a 989001.57 989001.57 0 1 1 -1978003.14 0M 64649999.40 18649999.06 m -593408.94 0 a 593408.94 593408.94 0 1 1 1186817.89 0a 593408.94 593408.94 0 1 1 -1186817.89 0"/>
<path id="N" d="M 10950005.86 18650011.12 m -989001.57 0 a 989001.57 989001.57 0 1 1 1978003.14 0a 989001.57 989001.57 0 1 1 -1978003.14 0M 10949999.40 18649999.06 m -593408.94 0 a 593408.94 593408.94 0 1 1 1186817.89 0a 593408.94 593408.94 0 1 1 -1186817.89 0"/>
<path id="N" d="M 29217678.00 43528741.00 L 29217678.00 43371259.00 A 317686.61 317686.61 0 0 0 28582322.00 43371259.00 L 28582322.00 43528741.00 A 317686.61 317686.61 0 0 0 29217678.00 43528741.00  zM 28900000.44 43449998.65 m -180637.35 0 a 180637.35 180637.35 0 1 1 361274.69 0a 180637.35 180637.35 0 1 1 -361274.69 0"/>
<path id="N" d="M 43817678.00 42228741.00 L 43817678.00 42071259.00 A 317686.61 317686.61 0 1 0 43182322.00 42071259.00 L 43182322.00 42228741.00 A 317686.61 317686.61 0 0 0 43817678.00 42228741.00  zM 43500000.44 42149998.65 m -180637.35 0 a 180637.35 180637.35 0 1 1 361274.69 0a 180637.35 180637.35 0 1 1 -361274.69 0"/>
<path id="N" d="M 24677557.82 48649995.93 m -397102.15 0 a 397102.15 397102.15 0 1 1 794204.30 0a 397102.15 397102.15 0 1 1 -794204.30 0M 24677559.44 48649998.65 m -180637.35 0 a 180637.35 180637.35 0 1 1 361274.69 0a 180637.35 180637.35 0 1 1 -361274.69 0"/>
<path id="N" d="M 60962203.82 19404719.93 m -397102.15 0 a 397102.15 397102.15 0 1 1 794204.30 0a 397102.15 397102.15 0 1 1 -794204.30 0M 60962205.44 19404722.65 m -180637.35 0 a 180637.35 180637.35 0 1 1 361274.69 0a 180637.35 180637.35 0 1 1 -361274.69 0"/>
<path id="N" d="M 52824054.00 32377953.00 L 52824054.00 32220471.00 A 317686.61 317686.61 0 1 0 52188698.00 32220471.00 L 52188698.00 32377953.00 A 317686.61 317686.61 0 1 0 52824054.00 32377953.00  zM 52506376.44 32299210.65 m -180637.35 0 a 180637.35 180637.35 0 1 1 361274.69 0a 180637.35 180637.35 0 1 1 -361274.69 0"/>
<path id="N" d="M 54144603.00 46428741.00 L 54144603.00 46271259.00 A 317686.61 317686.61 0 0 0 53509247.00 46271259.00 L 53509247.00 46428741.00 A 317686.61 317686.61 0 0 0 54144603.00 46428741.00  zM 53826925.44 46349998.65 m -180637.35 0 a 180637.35 180637.35 0 1 1 361274.69 0a 180637.35 180637.35 0 1 1 -361274.69 0"/>
<path id="N" d="M 13918521.00 44811486.00 L 13761039.00 44811486.00 A 317686.61 317686.61 0 0 0 13487246.41 44968599.00 L 11633257.59 44968599.00 A 313516.66 313516.66 0 0 0 11359465.00 44811486.00 L 11201983.00 44811486.00 A 317686.61 317686.61 0 1 0 11201983.00 45446842.00 L 11359465.00 45446842.00 A 317686.61 317686.61 0 0 0 11633257.59 45289729.00 L 13487246.41 45289729.00 A 313516.66 313516.66 0 0 0 13761039.00 45446842.00 L 13918521.00 45446842.00 A 317671.90 317671.90 0 1 0 13918521.00 44811486.00  zM 11280724.44 45129162.65 m -180637.35 0 a 180637.35 180637.35 0 1 1 361274.69 0a 180637.35 180637.35 0 1 1 -361274.69 0M 13839780.44 45129162.65 m -180637.35 0 a 180637.35 180637.35 0 1 1 361274.69 0a 180637.35 180637.35 0 1 1 -361274.69 0"/>
<path id="N" d="M 11396047.79 39662560.99 m -593404.85 0 a 593404.85 593404.85 0 1 1 1186809.70 0a 593404.85 593404.85 0 1 1 -1186809.70 0M 11396046.44 39662556.65 m -180637.35 0 a 180637.35 180637.35 0 1 1 361274.69 0a 180637.35 180637.35 0 1 1 -361274.69 0"/>
<path id="N" d="M 11188467.00 32722914.00 L 11030985.00 32722788.00 A 317689.57 317689.57 0 1 0 11030475.00 33358144.00 L 11187957.00 33358270.00 A 317663.23 317663.23 0 0 0 11188467.00 32722914.00  zM 11109471.44 33040527.65 m -180637.35 0 a 180637.35 180637.35 0 1 1 361274.69 0a 180637.35 180637.35 0 1 1 -361274.69 0"/>
<path id="N" d="M 19087006.82 46287790.93 m -397102.15 0 a 397102.15 397102.15 0 1 1 794204.30 0a 397102.15 397102.15 0 1 1 -794204.30 0M 19087008.44 46287793.65 m -180637.35 0 a 180637.35 180637.35 0 1 1 361274.69 0a 180637.35 180637.35 0 1 1 -361274.69 0"/>
<path id="N" d="M 16096415.00 37385389.00 L 16096415.00 36401137.00 A 496358.81 496358.81 0 1 0 15103669.00 36401137.00 L 15103669.00 37385389.00 A 496358.81 496358.81 0 1 0 16096415.00 37385389.00  zM 15777207.00 37582239.00 L 15422877.00 37582239.00 L 15422877.00 36204287.00 L 15777207.00 36204287.00 L 15777207.00 37582239.00  z"/>
<path id="N" d="M 13364960.00 47556299.00 L 12735040.00 47556299.00 L 12735040.00 48343701.00 L 13364960.00 48343701.00 L 13364960.00 47556299.00  zM 13050000.44 47949998.65 m -180637.35 0 a 180637.35 180637.35 0 1 1 361274.69 0a 180637.35 180637.35 0 1 1 -361274.69 0"/>
<path id="N" d="M 50144603.00 46428741.00 L 50144603.00 46271259.00 A 317686.61 317686.61 0 1 0 49509247.00 46271259.00 L 49509247.00 46428741.00 A 317686.61 317686.61 0 1 0 50144603.00 46428741.00  zM 49826925.44 46349998.65 m -180637.35 0 a 180637.35 180637.35 0 1 1 361274.69 0a 180637.35 180637.35 0 1 1 -361274.69 0"/>
<path id="N" d="M 51824054.00 38478741.00 L 51824054.00 38321259.00 A 317686.61 317686.61 0 0 0 51188698.00 38321259.00 L 51188698.00 38478741.00 A 317686.61 317686.61 0 0 0 51824054.00 38478741.00  zM 51506376.44 38399998.65 m -180637.35 0 a 180637.35 180637.35 0 1 1 361274.69 0a 180637.35 180637.35 0 1 1 -361274.69 0"/>
<path id="N" d="M 53824054.00 32377953.00 L 53824054.00 32220471.00 A 317686.61 317686.61 0 0 0 53188698.00 32220471.00 L 53188698.00 32377953.00 A 317686.61 317686.61 0 0 0 53824054.00 32377953.00  zM 53506376.44 32299210.65 m -180637.35 0 a 180637.35 180637.35 0 1 1 361274.69 0a 180637.35 180637.35 0 1 1 -361274.69 0"/>
<path id="N" d="M 53144603.00 46428741.00 L 53144603.00 46271259.00 A 317686.61 317686.61 0 1 0 52509247.00 46271259.00 L 52509247.00 46428741.00 A 317686.61 317686.61 0 1 0 53144603.00 46428741.00  zM 52826925.44 46349998.65 m -180637.35 0 a 180637.35 180637.35 0 1 1 361274.69 0a 180637.35 180637.35 0 1 1 -361274.69 0"/>
<path id="N" d="M 52950001.99 20900006.10 m -317671.90 0 a 317671.90 317671.90 0 1 1 635343.80 0a 317671.90 317671.90 0 1 1 -635343.80 0M 52949999.44 20899999.65 m -180637.35 0 a 180637.35 180637.35 0 1 1 361274.69 0a 180637.35 180637.35 0 1 1 -361274.69 0"/>
<path id="N" d="M 51450002.99 21400005.10 m -317671.90 0 a 317671.90 317671.90 0 1 1 635343.80 0a 317671.90 317671.90 0 1 1 -635343.80 0M 51450000.44 21399998.65 m -180637.35 0 a 180637.35 180637.35 0 1 1 361274.69 0a 180637.35 180637.35 0 1 1 -361274.69 0"/>
<path id="N" d="M 56817678.00 30778741.00 L 56817678.00 30621259.00 A 317686.61 317686.61 0 0 0 56182322.00 30621259.00 L 56182322.00 30778741.00 A 317686.61 317686.61 0 0 0 56817678.00 30778741.00  zM 56500000.44 30699998.65 m -180637.35 0 a 180637.35 180637.35 0 1 1 361274.69 0a 180637.35 180637.35 0 1 1 -361274.69 0"/>
<path id="N" d="M 55824054.00 38478741.00 L 55824054.00 38321259.00 A 317686.61 317686.61 0 0 0 55188698.00 38321259.00 L 55188698.00 38478741.00 A 317686.61 317686.61 0 0 0 55824054.00 38478741.00  zM 55506376.44 38399998.65 m -180637.35 0 a 180637.35 180637.35 0 1 1 361274.69 0a 180637.35 180637.35 0 1 1 -361274.69 0"/>
<path id="N" d="M 43824054.00 32377953.00 L 43824054.00 32220471.00 A 317686.61 317686.61 0 0 0 43188698.00 32220471.00 L 43188698.00 32377953.00 A 317686.61 317686.61 0 0 0 43824054.00 32377953.00  zM 43506376.44 32299210.65 m -180637.35 0 a 180637.35 180637.35 0 1 1 361274.69 0a 180637.35 180637.35 0 1 1 -361274.69 0"/>
<path id="N" d="M 43817678.00 30778741.00 L 43817678.00 30621259.00 A 317686.61 317686.61 0 0 0 43182322.00 30621259.00 L 43182322.00 30778741.00 A 317686.61 317686.61 0 0 0 43817678.00 30778741.00  zM 43500000.44 30699998.65 m -180637.35 0 a 180637.35 180637.35 0 1 1 361274.69 0a 180637.35 180637.35 0 1 1 -361274.69 0"/>
<path id="N" d="M 39595203.00 21894292.00 L 39557219.00 21878558.54 L 39557219.00 20397819.46 L 39595203.00 20382086.00 A 397086.64 397086.64 0 1 0 39198105.00 20382086.00 L 39236089.00 20397819.46 L 39236089.00 21878558.54 L 39198105.00 21894292.00 A 397086.64 397086.64 0 1 0 39595203.00 21894292.00  zM 39396654.44 20038187.65 m -180637.35 0 a 180637.35 180637.35 0 1 1 361274.69 0a 180637.35 180637.35 0 1 1 -361274.69 0M 39396654.44 22238187.65 m -180637.35 0 a 180637.35 180637.35 0 1 1 361274.69 0a 180637.35 180637.35 0 1 1 -361274.69 0"/>
<path id="N" d="M 38742678.00 24058269.00 L 38742678.00 23900787.00 A 317686.61 317686.61 0 0 0 38107322.00 23900787.00 L 38107322.00 24058269.00 A 317686.61 317686.61 0 1 0 38742678.00 24058269.00  zM 38425000.44 23979526.65 m -180637.35 0 a 180637.35 180637.35 0 1 1 361274.69 0a 180637.35 180637.35 0 1 1 -361274.69 0"/>
<path id="N" d="M 38742678.00 25478741.00 L 38742678.00 25321259.00 A 317686.61 317686.61 0 1 0 38107322.00 25321259.00 L 38107322.00 25478741.00 A 317686.61 317686.61 0 0 0 38742678.00 25478741.00  zM 38425000.44 25399998.65 m -180637.35 0 a 180637.35 180637.35 0 1 1 361274.69 0a 180637.35 180637.35 0 1 1 -361274.69 0"/>
<path id="N" d="M 48824054.00 38478741.00 L 48824054.00 38321259.00 A 317686.61 317686.61 0 0 0 48188698.00 38321259.00 L 48188698.00 38478741.00 A 317686.61 317686.61 0 0 0 48824054.00 38478741.00  zM 48506376.44 38399998.65 m -180637.35 0 a 180637.35 180637.35 0 1 1 361274.69 0a 180637.35 180637.35 0 1 1 -361274.69 0"/>
<path id="N" d="M 59817678.00 30778741.00 L 59817678.00 30621259.00 A 317686.61 317686.61 0 0 0 59182322.00 30621259.00 L 59182322.00 30778741.00 A 317686.61 317686.61 0 0 0 59817678.00 30778741.00  zM 59500000.44 30699998.65 m -180637.35 0 a 180637.35 180637.35 0 1 1 361274.69 0a 180637.35 180637.35 0 1 1 -361274.69 0"/>
<path id="N" d="M 49824054.00 32377953.00 L 49824054.00 32220471.00 A 317686.61 317686.61 0 0 0 49188698.00 32220471.00 L 49188698.00 32377953.00 A 317686.61 317686.61 0 0 0 49824054.00 32377953.00  zM 49506376.44 32299210.65 m -180637.35 0 a 180637.35 180637.35 0 1 1 361274.69 0a 180637.35 180637.35 0 1 1 -361274.69 0"/>
<path id="N" d="M 50762092.99 27400005.10 m -317671.90 0 a 317671.90 317671.90 0 1 1 635343.80 0a 317671.90 317671.90 0 1 1 -635343.80 0M 50762090.44 27399998.65 m -180637.35 0 a 180637.35 180637.35 0 1 1 361274.69 0a 180637.35 180637.35 0 1 1 -361274.69 0"/>
<path id="N" d="M 49697712.06 29099992.06 m -240860.29 0 a 240860.29 240860.29 0 1 1 481720.58 0a 240860.29 240860.29 0 1 1 -481720.58 0M 49697723.38 29099995.09 m -140500.91 0 a 140500.91 140500.91 0 1 1 281001.82 0a 140500.91 140500.91 0 1 1 -281001.82 0"/>
<path id="N" d="M 18408269.00 20618148.00 L 18250787.00 20618148.00 A 317686.61 317686.61 0 0 0 17976994.41 20775261.00 L 16123005.59 20775261.00 A 313516.66 313516.66 0 0 0 15849213.00 20618148.00 L 15691731.00 20618148.00 A 317686.61 317686.61 0 0 0 15691731.00 21253504.00 L 15849213.00 21253504.00 A 317686.61 317686.61 0 0 0 16123005.59 21096391.00 L 17976994.41 21096391.00 A 313516.66 313516.66 0 0 0 18250787.00 21253504.00 L 18408269.00 21253504.00 A 317671.90 317671.90 0 1 0 18408269.00 20618148.00  zM 15770472.44 20935824.65 m -180637.35 0 a 180637.35 180637.35 0 1 1 361274.69 0a 180637.35 180637.35 0 1 1 -361274.69 0M 18329528.44 20935824.65 m -180637.35 0 a 180637.35 180637.35 0 1 1 361274.69 0a 180637.35 180637.35 0 1 1 -361274.69 0"/>
<path id="N" d="M 19167678.00 25128741.00 L 19167678.00 24971259.00 A 317686.61 317686.61 0 0 0 18532322.00 24971259.00 L 18532322.00 25128741.00 A 317686.61 317686.61 0 0 0 19167678.00 25128741.00  zM 18850000.44 25049998.65 m -180637.35 0 a 180637.35 180637.35 0 1 1 361274.69 0a 180637.35 180637.35 0 1 1 -361274.69 0"/>
<path id="N" d="M 18350002.99 22250005.10 m -317671.90 0 a 317671.90 317671.90 0 1 1 635343.80 0a 317671.90 317671.90 0 1 1 -635343.80 0M 18350000.44 22249998.65 m -180637.35 0 a 180637.35 180637.35 0 1 1 361274.69 0a 180637.35 180637.35 0 1 1 -361274.69 0"/>
<path id="N" d="M 53824054.00 38478741.00 L 53824054.00 38321259.00 A 317686.61 317686.61 0 0 0 53188698.00 38321259.00 L 53188698.00 38478741.00 A 317686.61 317686.61 0 0 0 53824054.00 38478741.00  zM 53506376.44 38399998.65 m -180637.35 0 a 180637.35 180637.35 0 1 1 361274.69 0a 180637.35 180637.35 0 1 1 -361274.69 0"/>
<path id="N" d="M 52144603.00 46428741.00 L 52144603.00 46271259.00 A 317686.61 317686.61 0 1 0 51509247.00 46271259.00 L 51509247.00 46428741.00 A 317686.61 317686.61 0 1 0 52144603.00 46428741.00  zM 51826925.44 46349998.65 m -180637.35 0 a 180637.35 180637.35 0 1 1 361274.69 0a 180637.35 180637.35 0 1 1 -361274.69 0"/>
<path id="N" d="M 52824054.00 38478741.00 L 52824054.00 38321259.00 A 317686.61 317686.61 0 0 0 52188698.00 38321259.00 L 52188698.00 38478741.00 A 317686.61 317686.61 0 0 0 52824054.00 38478741.00  zM 52506376.44 38399998.65 m -180637.35 0 a 180637.35 180637.35 0 1 1 361274.69 0a 180637.35 180637.35 0 1 1 -361274.69 0"/>
<path id="N" d="M 51144603.00 46428741.00 L 51144603.00 46271259.00 A 317686.61 317686.61 0 0 0 50509247.00 46271259.00 L 50509247.00 46428741.00 A 317686.61 317686.61 0 0 0 51144603.00 46428741.00  zM 50826925.44 46349998.65 m -180637.35 0 a 180637.35 180637.35 0 1 1 361274.69 0a 180637.35 180637.35 0 1 1 -361274.69 0"/>
<path id="N" d="M 37626699.00 21894292.00 L 37588715.00 21878558.54 L 37588715.00 20397819.46 L 37626699.00 20382086.00 A 397086.64 397086.64 0 1 0 37229601.00 20382086.00 L 37267585.00 20397819.46 L 37267585.00 21878558.54 L 37229601.00 21894292.00 A 397086.64 397086.64 0 1 0 37626699.00 21894292.00  zM 37428150.44 20038187.65 m -180637.35 0 a 180637.35 180637.35 0 1 1 361274.69 0a 180637.35 180637.35 0 1 1 -361274.69 0M 37428150.44 22238187.65 m -180637.35 0 a 180637.35 180637.35 0 1 1 361274.69 0a 180637.35 180637.35 0 1 1 -361274.69 0"/>
<path id="N" d="M 37742678.00 25478741.00 L 37742678.00 25321259.00 A 317686.61 317686.61 0 1 0 37107322.00 25321259.00 L 37107322.00 25478741.00 A 317686.61 317686.61 0 0 0 37742678.00 25478741.00  zM 37425000.44 25399998.65 m -180637.35 0 a 180637.35 180637.35 0 1 1 361274.69 0a 180637.35 180637.35 0 1 1 -361274.69 0"/>
<path id="N" d="M 37742678.00 24058269.00 L 37742678.00 23900787.00 A 317686.61 317686.61 0 0 0 37107322.00 23900787.00 L 37107322.00 24058269.00 A 317686.61 317686.61 0 1 0 37742678.00 24058269.00  zM 37425000.44 23979526.65 m -180637.35 0 a 180637.35 180637.35 0 1 1 361274.69 0a 180637.35 180637.35 0 1 1 -361274.69 0"/>
<path id="N" d="M 54728741.00 19032322.00 L 54571259.00 19032322.00 A 317686.61 317686.61 0 0 0 54571259.00 19667678.00 L 54728741.00 19667678.00 A 317671.90 317671.90 0 1 0 54728741.00 19032322.00  zM 54650000.44 19349998.65 m -180637.35 0 a 180637.35 180637.35 0 1 1 361274.69 0a 180637.35 180637.35 0 1 1 -361274.69 0"/>
<path id="N" d="M 50328741.00 19082322.00 L 50171259.00 19082322.00 A 317686.61 317686.61 0 1 0 50171259.00 19717678.00 L 50328741.00 19717678.00 A 317671.90 317671.90 0 1 0 50328741.00 19082322.00  zM 50250000.44 19399998.65 m -180637.35 0 a 180637.35 180637.35 0 1 1 361274.69 0a 180637.35 180637.35 0 1 1 -361274.69 0"/>
<path id="N" d="M 53264960.00 19585040.00 L 52635040.00 19585040.00 L 52635040.00 20214960.00 L 53264960.00 20214960.00 L 53264960.00 19585040.00  zM 52950000.44 19899998.65 m -180637.35 0 a 180637.35 180637.35 0 1 1 361274.69 0a 180637.35 180637.35 0 1 1 -361274.69 0"/>
<path id="N" d="M 50824054.00 38478741.00 L 50824054.00 38321259.00 A 317686.61 317686.61 0 0 0 50188698.00 38321259.00 L 50188698.00 38478741.00 A 317686.61 317686.61 0 0 0 50824054.00 38478741.00  zM 50506376.44 38399998.65 m -180637.35 0 a 180637.35 180637.35 0 1 1 361274.69 0a 180637.35 180637.35 0 1 1 -361274.69 0"/>
<path id="N" d="M 49144603.00 46428741.00 L 49144603.00 46271259.00 A 317686.61 317686.61 0 1 0 48509247.00 46271259.00 L 48509247.00 46428741.00 A 317686.61 317686.61 0 1 0 49144603.00 46428741.00  zM 48826925.44 46349998.65 m -180637.35 0 a 180637.35 180637.35 0 1 1 361274.69 0a 180637.35 180637.35 0 1 1 -361274.69 0"/>
<path id="N" d="M 46413707.00 21894292.00 L 46375723.00 21878558.54 L 46375723.00 20397819.46 L 46413707.00 20382086.00 A 397086.64 397086.64 0 1 0 46016609.00 20382086.00 L 46054593.00 20397819.46 L 46054593.00 21878558.54 L 46016609.00 21894292.00 A 397086.64 397086.64 0 1 0 46413707.00 21894292.00  zM 46215158.44 20038187.65 m -180637.35 0 a 180637.35 180637.35 0 1 1 361274.69 0a 180637.35 180637.35 0 1 1 -361274.69 0M 46215158.44 22238187.65 m -180637.35 0 a 180637.35 180637.35 0 1 1 361274.69 0a 180637.35 180637.35 0 1 1 -361274.69 0"/>
<path id="N" d="M 45542678.00 24008269.00 L 45542678.00 23850787.00 A 317686.61 317686.61 0 0 0 44907322.00 23850787.00 L 44907322.00 24008269.00 A 317686.61 317686.61 0 1 0 45542678.00 24008269.00  zM 45225000.44 23929526.65 m -180637.35 0 a 180637.35 180637.35 0 1 1 361274.69 0a 180637.35 180637.35 0 1 1 -361274.69 0"/>
<path id="N" d="M 45542678.00 25478741.00 L 45542678.00 25321259.00 A 317686.61 317686.61 0 1 0 44907322.00 25321259.00 L 44907322.00 25478741.00 A 317686.61 317686.61 0 0 0 45542678.00 25478741.00  zM 45225000.44 25399998.65 m -180637.35 0 a 180637.35 180637.35 0 1 1 361274.69 0a 180637.35 180637.35 0 1 1 -361274.69 0"/>
<path id="N" d="M 47824054.00 38478741.00 L 47824054.00 38321259.00 A 317686.61 317686.61 0 0 0 47188698.00 38321259.00 L 47188698.00 38478741.00 A 317686.61 317686.61 0 0 0 47824054.00 38478741.00  zM 47506376.44 38399998.65 m -180637.35 0 a 180637.35 180637.35 0 1 1 361274.69 0a 180637.35 180637.35 0 1 1 -361274.69 0"/>
<path id="N" d="M 60817678.00 30778741.00 L 60817678.00 30621259.00 A 317686.61 317686.61 0 1 0 60182322.00 30621259.00 L 60182322.00 30778741.00 A 317686.61 317686.61 0 1 0 60817678.00 30778741.00  zM 60500000.44 30699998.65 m -180637.35 0 a 180637.35 180637.35 0 1 1 361274.69 0a 180637.35 180637.35 0 1 1 -361274.69 0"/>
<path id="N" d="M 39824054.00 32377953.00 L 39824054.00 32220471.00 A 317686.61 317686.61 0 1 0 39188698.00 32220471.00 L 39188698.00 32377953.00 A 317686.61 317686.61 0 1 0 39824054.00 32377953.00  zM 39506376.44 32299210.65 m -180637.35 0 a 180637.35 180637.35 0 1 1 361274.69 0a 180637.35 180637.35 0 1 1 -361274.69 0"/>
<path id="N" d="M 39817678.00 30778741.00 L 39817678.00 30621259.00 A 317686.61 317686.61 0 0 0 39182322.00 30621259.00 L 39182322.00 30778741.00 A 317686.61 317686.61 0 0 0 39817678.00 30778741.00  zM 39500000.44 30699998.65 m -180637.35 0 a 180637.35 180637.35 0 1 1 361274.69 0a 180637.35 180637.35 0 1 1 -361274.69 0"/>
<path id="N" d="M 55824054.00 32377953.00 L 55824054.00 32220471.00 A 317686.61 317686.61 0 0 0 55188698.00 32220471.00 L 55188698.00 32377953.00 A 317686.61 317686.61 0 0 0 55824054.00 32377953.00  zM 55506376.44 32299210.65 m -180637.35 0 a 180637.35 180637.35 0 1 1 361274.69 0a 180637.35 180637.35 0 1 1 -361274.69 0"/>
<path id="N" d="M 55817678.00 30778741.00 L 55817678.00 30621259.00 A 317686.61 317686.61 0 0 0 55182322.00 30621259.00 L 55182322.00 30778741.00 A 317686.61 317686.61 0 0 0 55817678.00 30778741.00  zM 55500000.44 30699998.65 m -180637.35 0 a 180637.35 180637.35 0 1 1 361274.69 0a 180637.35 180637.35 0 1 1 -361274.69 0"/>
<path id="N" d="M 37824054.00 32377953.00 L 37824054.00 32220471.00 A 317686.61 317686.61 0 1 0 37188698.00 32220471.00 L 37188698.00 32377953.00 A 317686.61 317686.61 0 1 0 37824054.00 32377953.00  zM 37506376.44 32299210.65 m -180637.35 0 a 180637.35 180637.35 0 1 1 361274.69 0a 180637.35 180637.35 0 1 1 -361274.69 0"/>
<path id="N" d="M 37814960.00 30306299.00 L 37185040.00 30306299.00 L 37185040.00 31093701.00 L 37814960.00 31093701.00 L 37814960.00 30306299.00  zM 37500000.44 30699998.65 m -180637.35 0 a 180637.35 180637.35 0 1 1 361274.69 0a 180637.35 180637.35 0 1 1 -361274.69 0"/>
<path id="N" d="M 25678741.00 39282322.00 L 25521259.00 39282322.00 A 317686.61 317686.61 0 0 0 25521259.00 39917678.00 L 25678741.00 39917678.00 A 317671.90 317671.90 0 0 0 25678741.00 39282322.00  zM 25600000.44 39599998.65 m -180637.35 0 a 180637.35 180637.35 0 1 1 361274.69 0a 180637.35 180637.35 0 1 1 -361274.69 0"/>
<path id="N" d="M 22400002.99 41200005.10 m -317671.90 0 a 317671.90 317671.90 0 1 1 635343.80 0a 317671.90 317671.90 0 1 1 -635343.80 0M 22400000.44 41199998.65 m -180637.35 0 a 180637.35 180637.35 0 1 1 361274.69 0a 180637.35 180637.35 0 1 1 -361274.69 0"/>
<path id="N" d="M 32887797.00 18860668.00 L 32730315.00 18860668.00 A 317686.61 317686.61 0 0 0 32456522.41 19017781.00 L 30602533.59 19017781.00 A 313516.66 313516.66 0 0 0 30328741.00 18860668.00 L 30171259.00 18860668.00 A 317686.61 317686.61 0 0 0 30171259.00 19496024.00 L 30328741.00 19496024.00 A 317686.61 317686.61 0 0 0 30602533.59 19338911.00 L 32456522.41 19338911.00 A 313516.66 313516.66 0 0 0 32730315.00 19496024.00 L 32887797.00 19496024.00 A 317671.90 317671.90 0 0 0 32887797.00 18860668.00  zM 30250000.44 19178344.65 m -180637.35 0 a 180637.35 180637.35 0 1 1 361274.69 0a 180637.35 180637.35 0 1 1 -361274.69 0M 32809056.44 19178344.65 m -180637.35 0 a 180637.35 180637.35 0 1 1 361274.69 0a 180637.35 180637.35 0 1 1 -361274.69 0"/>
<path id="N" d="M 30316301.99 23250005.10 m -317671.90 0 a 317671.90 317671.90 0 1 1 635343.80 0a 317671.90 317671.90 0 1 1 -635343.80 0M 30316299.44 23249998.65 m -180637.35 0 a 180637.35 180637.35 0 1 1 361274.69 0a 180637.35 180637.35 0 1 1 -361274.69 0"/>
<path id="N" d="M 29964960.00 24656299.00 L 29335040.00 24656299.00 L 29335040.00 25443701.00 L 29964960.00 25443701.00 L 29964960.00 24656299.00  zM 29650000.44 25049998.65 m -180637.35 0 a 180637.35 180637.35 0 1 1 361274.69 0a 180637.35 180637.35 0 1 1 -361274.69 0"/>
<path id="N" d="M 42824054.00 38478741.00 L 42824054.00 38321259.00 A 317686.61 317686.61 0 0 0 42188698.00 38321259.00 L 42188698.00 38478741.00 A 317686.61 317686.61 0 0 0 42824054.00 38478741.00  zM 42506376.44 38399998.65 m -180637.35 0 a 180637.35 180637.35 0 1 1 361274.69 0a 180637.35 180637.35 0 1 1 -361274.69 0"/>
<path id="N" d="M 42817678.00 41028741.00 L 42817678.00 40871259.00 A 317686.61 317686.61 0 1 0 42182322.00 40871259.00 L 42182322.00 41028741.00 A 317686.61 317686.61 0 1 0 42817678.00 41028741.00  zM 42500000.44 40949998.65 m -180637.35 0 a 180637.35 180637.35 0 1 1 361274.69 0a 180637.35 180637.35 0 1 1 -361274.69 0"/>
<path id="N" d="M 42824054.00 32377953.00 L 42824054.00 32220471.00 A 317686.61 317686.61 0 0 0 42188698.00 32220471.00 L 42188698.00 32377953.00 A 317686.61 317686.61 0 0 0 42824054.00 32377953.00  zM 42506376.44 32299210.65 m -180637.35 0 a 180637.35 180637.35 0 1 1 361274.69 0a 180637.35 180637.35 0 1 1 -361274.69 0"/>
<path id="N" d="M 42817678.00 30778741.00 L 42817678.00 30621259.00 A 317686.61 317686.61 0 0 0 42182322.00 30621259.00 L 42182322.00 30778741.00 A 317686.61 317686.61 0 0 0 42817678.00 30778741.00  zM 42500000.44 30699998.65 m -180637.35 0 a 180637.35 180637.35 0 1 1 361274.69 0a 180637.35 180637.35 0 1 1 -361274.69 0"/>
<path id="N" d="M 49950002.99 24700005.10 m -317671.90 0 a 317671.90 317671.90 0 1 1 635343.80 0a 317671.90 317671.90 0 1 1 -635343.80 0M 49950000.44 24699998.65 m -180637.35 0 a 180637.35 180637.35 0 1 1 361274.69 0a 180637.35 180637.35 0 1 1 -361274.69 0"/>
<path id="N" d="M 52694960.00 24385040.00 L 52065040.00 24385040.00 L 52065040.00 25014960.00 L 52694960.00 25014960.00 L 52694960.00 24385040.00  zM 52380000.44 24699998.65 m -180637.35 0 a 180637.35 180637.35 0 1 1 361274.69 0a 180637.35 180637.35 0 1 1 -361274.69 0"/>
<path id="N" d="M 57817678.00 30778741.00 L 57817678.00 30621259.00 A 317686.61 317686.61 0 0 0 57182322.00 30621259.00 L 57182322.00 30778741.00 A 317686.61 317686.61 0 0 0 57817678.00 30778741.00  zM 57500000.44 30699998.65 m -180637.35 0 a 180637.35 180637.35 0 1 1 361274.69 0a 180637.35 180637.35 0 1 1 -361274.69 0"/>
<path id="N" d="M 54824054.00 38478741.00 L 54824054.00 38321259.00 A 317686.61 317686.61 0 0 0 54188698.00 38321259.00 L 54188698.00 38478741.00 A 317686.61 317686.61 0 0 0 54824054.00 38478741.00  zM 54506376.44 38399998.65 m -180637.35 0 a 180637.35 180637.35 0 1 1 361274.69 0a 180637.35 180637.35 0 1 1 -361274.69 0"/>
<path id="N" d="M 43217678.00 46428741.00 L 43217678.00 46271259.00 A 317686.61 317686.61 0 1 0 42582322.00 46271259.00 L 42582322.00 46428741.00 A 317686.61 317686.61 0 1 0 43217678.00 46428741.00  zM 42900000.44 46349998.65 m -180637.35 0 a 180637.35 180637.35 0 1 1 361274.69 0a 180637.35 180637.35 0 1 1 -361274.69 0"/>
<path id="N" d="M 42817678.00 42228741.00 L 42817678.00 42071259.00 A 317686.61 317686.61 0 1 0 42182322.00 42071259.00 L 42182322.00 42228741.00 A 317686.61 317686.61 0 1 0 42817678.00 42228741.00  zM 42500000.44 42149998.65 m -180637.35 0 a 180637.35 180637.35 0 1 1 361274.69 0a 180637.35 180637.35 0 1 1 -361274.69 0"/>
<path id="N" d="M 41824054.00 32377953.00 L 41824054.00 32220471.00 A 317686.61 317686.61 0 1 0 41188698.00 32220471.00 L 41188698.00 32377953.00 A 317686.61 317686.61 0 1 0 41824054.00 32377953.00  zM 41506376.44 32299210.65 m -180637.35 0 a 180637.35 180637.35 0 1 1 361274.69 0a 180637.35 180637.35 0 1 1 -361274.69 0"/>
<path id="N" d="M 41817678.00 30778741.00 L 41817678.00 30621259.00 A 317686.61 317686.61 0 0 0 41182322.00 30621259.00 L 41182322.00 30778741.00 A 317686.61 317686.61 0 0 0 41817678.00 30778741.00  zM 41500000.44 30699998.65 m -180637.35 0 a 180637.35 180637.35 0 1 1 361274.69 0a 180637.35 180637.35 0 1 1 -361274.69 0"/>
<path id="N" d="M 56237793.82 19404719.93 m -397102.15 0 a 397102.15 397102.15 0 1 1 794204.30 0a 397102.15 397102.15 0 1 1 -794204.30 0M 56237795.44 19404722.65 m -180637.35 0 a 180637.35 180637.35 0 1 1 361274.69 0a 180637.35 180637.35 0 1 1 -361274.69 0"/>
<path id="N" d="M 64140551.00 20359449.00 L 62959449.00 20359449.00 L 62959449.00 21540551.00 L 64140551.00 21540551.00 L 64140551.00 20359449.00  zM 63550000.44 20949998.65 m -180637.35 0 a 180637.35 180637.35 0 1 1 361274.69 0a 180637.35 180637.35 0 1 1 -361274.69 0"/>
<path id="N" d="M 25678741.00 38282322.00 L 25521259.00 38282322.00 A 317686.61 317686.61 0 0 0 25521259.00 38917678.00 L 25678741.00 38917678.00 A 317671.90 317671.90 0 0 0 25678741.00 38282322.00  zM 25600000.44 38599998.65 m -180637.35 0 a 180637.35 180637.35 0 1 1 361274.69 0a 180637.35 180637.35 0 1 1 -361274.69 0"/>
<path id="N" d="M 22400002.99 38600005.10 m -317671.90 0 a 317671.90 317671.90 0 1 1 635343.80 0a 317671.90 317671.90 0 1 1 -635343.80 0M 22400000.44 38599998.65 m -180637.35 0 a 180637.35 180637.35 0 1 1 361274.69 0a 180637.35 180637.35 0 1 1 -361274.69 0"/>
<path id="N" d="M 38817678.00 41028741.00 L 38817678.00 40871259.00 A 317686.61 317686.61 0 0 0 38182322.00 40871259.00 L 38182322.00 41028741.00 A 317686.61 317686.61 0 0 0 38817678.00 41028741.00  zM 38500000.44 40949998.65 m -180637.35 0 a 180637.35 180637.35 0 1 1 361274.69 0a 180637.35 180637.35 0 1 1 -361274.69 0"/>
<path id="N" d="M 38824054.00 38478741.00 L 38824054.00 38321259.00 A 317686.61 317686.61 0 0 0 38188698.00 38321259.00 L 38188698.00 38478741.00 A 317686.61 317686.61 0 0 0 38824054.00 38478741.00  zM 38506376.44 38399998.65 m -180637.35 0 a 180637.35 180637.35 0 1 1 361274.69 0a 180637.35 180637.35 0 1 1 -361274.69 0"/>
<path id="N" d="M 41217678.00 46428741.00 L 41217678.00 46271259.00 A 317686.61 317686.61 0 0 0 40582322.00 46271259.00 L 40582322.00 46428741.00 A 317686.61 317686.61 0 0 0 41217678.00 46428741.00  zM 40900000.44 46349998.65 m -180637.35 0 a 180637.35 180637.35 0 1 1 361274.69 0a 180637.35 180637.35 0 1 1 -361274.69 0"/>
<path id="N" d="M 36817678.00 41028741.00 L 36817678.00 40871259.00 A 317686.61 317686.61 0 1 0 36182322.00 40871259.00 L 36182322.00 41028741.00 A 317686.61 317686.61 0 0 0 36817678.00 41028741.00  zM 36500000.44 40949998.65 m -180637.35 0 a 180637.35 180637.35 0 1 1 361274.69 0a 180637.35 180637.35 0 1 1 -361274.69 0"/>
<path id="N" d="M 36824054.00 38478741.00 L 36824054.00 38321259.00 A 317686.61 317686.61 0 0 0 36188698.00 38321259.00 L 36188698.00 38478741.00 A 317686.61 317686.61 0 0 0 36824054.00 38478741.00  zM 36506376.44 38399998.65 m -180637.35 0 a 180637.35 180637.35 0 1 1 361274.69 0a 180637.35 180637.35 0 1 1 -361274.69 0"/>
<path id="N" d="M 44824054.00 32377953.00 L 44824054.00 32220471.00 A 317686.61 317686.61 0 0 0 44188698.00 32220471.00 L 44188698.00 32377953.00 A 317686.61 317686.61 0 1 0 44824054.00 32377953.00  zM 44506376.44 32299210.65 m -180637.35 0 a 180637.35 180637.35 0 1 1 361274.69 0a 180637.35 180637.35 0 1 1 -361274.69 0"/>
<path id="N" d="M 44817678.00 30778741.00 L 44817678.00 30621259.00 A 317686.61 317686.61 0 0 0 44182322.00 30621259.00 L 44182322.00 30778741.00 A 317686.61 317686.61 0 0 0 44817678.00 30778741.00  zM 44500000.44 30699998.65 m -180637.35 0 a 180637.35 180637.35 0 1 1 361274.69 0a 180637.35 180637.35 0 1 1 -361274.69 0"/>
<path id="N" d="M 43824054.00 38478741.00 L 43824054.00 38321259.00 A 317686.61 317686.61 0 0 0 43188698.00 38321259.00 L 43188698.00 38478741.00 A 317686.61 317686.61 0 0 0 43824054.00 38478741.00  zM 43506376.44 38399998.65 m -180637.35 0 a 180637.35 180637.35 0 1 1 361274.69 0a 180637.35 180637.35 0 1 1 -361274.69 0"/>
<path id="N" d="M 43814960.00 40556299.00 L 43185040.00 40556299.00 L 43185040.00 41343701.00 L 43814960.00 41343701.00 L 43814960.00 40556299.00  zM 43500000.44 40949998.65 m -180637.35 0 a 180637.35 180637.35 0 1 1 361274.69 0a 180637.35 180637.35 0 1 1 -361274.69 0"/>
<path id="N" d="M 52390002.99 23700005.10 m -317671.90 0 a 317671.90 317671.90 0 1 1 635343.80 0a 317671.90 317671.90 0 1 1 -635343.80 0M 52390000.44 23699998.65 m -180637.35 0 a 180637.35 180637.35 0 1 1 361274.69 0a 180637.35 180637.35 0 1 1 -361274.69 0"/>
<path id="N" d="M 60962203.82 24207868.93 m -397102.15 0 a 397102.15 397102.15 0 1 1 794204.30 0a 397102.15 397102.15 0 1 1 -794204.30 0M 60962205.44 24207871.65 m -180637.35 0 a 180637.35 180637.35 0 1 1 361274.69 0a 180637.35 180637.35 0 1 1 -361274.69 0"/>
<path id="N" d="M 50643701.00 21085040.00 L 49856299.00 21085040.00 L 49856299.00 21714960.00 L 50643701.00 21714960.00 L 50643701.00 21085040.00  zM 50250000.44 21399998.65 m -180637.35 0 a 180637.35 180637.35 0 1 1 361274.69 0a 180637.35 180637.35 0 1 1 -361274.69 0"/>
<path id="N" d="M 55043701.00 23835040.00 L 54256299.00 23835040.00 L 54256299.00 24464960.00 L 55043701.00 24464960.00 L 55043701.00 23835040.00  zM 54650000.44 24149998.65 m -180637.35 0 a 180637.35 180637.35 0 1 1 361274.69 0a 180637.35 180637.35 0 1 1 -361274.69 0"/>
<path id="N" d="M 50328741.00 20082322.00 L 50171259.00 20082322.00 A 317686.61 317686.61 0 1 0 50171259.00 20717678.00 L 50328741.00 20717678.00 A 317671.90 317671.90 0 1 0 50328741.00 20082322.00  zM 50250000.44 20399998.65 m -180637.35 0 a 180637.35 180637.35 0 1 1 361274.69 0a 180637.35 180637.35 0 1 1 -361274.69 0"/>
<path id="N" d="M 51450002.99 20400005.10 m -317671.90 0 a 317671.90 317671.90 0 1 1 635343.80 0a 317671.90 317671.90 0 1 1 -635343.80 0M 51450000.44 20399998.65 m -180637.35 0 a 180637.35 180637.35 0 1 1 361274.69 0a 180637.35 180637.35 0 1 1 -361274.69 0"/>
<path id="N" d="M 24150002.99 37100005.10 m -317671.90 0 a 317671.90 317671.90 0 1 1 635343.80 0a 317671.90 317671.90 0 1 1 -635343.80 0M 24150000.44 37099998.65 m -180637.35 0 a 180637.35 180637.35 0 1 1 361274.69 0a 180637.35 180637.35 0 1 1 -361274.69 0"/>
<path id="N" d="M 21714960.00 38275040.00 L 21085040.00 38275040.00 L 21085040.00 38904960.00 L 21714960.00 38904960.00 L 21714960.00 38275040.00  zM 21400000.44 38589998.65 m -180637.35 0 a 180637.35 180637.35 0 1 1 361274.69 0a 180637.35 180637.35 0 1 1 -361274.69 0"/>
<path id="N" d="M 21714960.00 40885040.00 L 21085040.00 40885040.00 L 21085040.00 41514960.00 L 21714960.00 41514960.00 L 21714960.00 40885040.00  zM 21400000.44 41199998.65 m -180637.35 0 a 180637.35 180637.35 0 1 1 361274.69 0a 180637.35 180637.35 0 1 1 -361274.69 0"/>
<path id="N" d="M 21714960.00 35685040.00 L 21085040.00 35685040.00 L 21085040.00 36314960.00 L 21714960.00 36314960.00 L 21714960.00 35685040.00  zM 21400000.44 35999998.65 m -180637.35 0 a 180637.35 180637.35 0 1 1 361274.69 0a 180637.35 180637.35 0 1 1 -361274.69 0"/>
<path id="N" d="M 39817678.00 41028741.00 L 39817678.00 40871259.00 A 317686.61 317686.61 0 1 0 39182322.00 40871259.00 L 39182322.00 41028741.00 A 317686.61 317686.61 0 0 0 39817678.00 41028741.00  zM 39500000.44 40949998.65 m -180637.35 0 a 180637.35 180637.35 0 1 1 361274.69 0a 180637.35 180637.35 0 1 1 -361274.69 0"/>
<path id="N" d="M 39824054.00 38478741.00 L 39824054.00 38321259.00 A 317686.61 317686.61 0 0 0 39188698.00 38321259.00 L 39188698.00 38478741.00 A 317686.61 317686.61 0 0 0 39824054.00 38478741.00  zM 39506376.44 38399998.65 m -180637.35 0 a 180637.35 180637.35 0 1 1 361274.69 0a 180637.35 180637.35 0 1 1 -361274.69 0"/>
<path id="N" d="M 38824054.00 32377953.00 L 38824054.00 32220471.00 A 317686.61 317686.61 0 1 0 38188698.00 32220471.00 L 38188698.00 32377953.00 A 317686.61 317686.61 0 1 0 38824054.00 32377953.00  zM 38506376.44 32299210.65 m -180637.35 0 a 180637.35 180637.35 0 1 1 361274.69 0a 180637.35 180637.35 0 1 1 -361274.69 0"/>
<path id="N" d="M 38817678.00 30778741.00 L 38817678.00 30621259.00 A 317686.61 317686.61 0 0 0 38182322.00 30621259.00 L 38182322.00 30778741.00 A 317686.61 317686.61 0 0 0 38817678.00 30778741.00  zM 38500000.44 30699998.65 m -180637.35 0 a 180637.35 180637.35 0 1 1 361274.69 0a 180637.35 180637.35 0 1 1 -361274.69 0"/>
<path id="N" d="M 30958269.00 47268148.00 L 30800787.00 47268148.00 A 317686.61 317686.61 0 0 0 30526994.41 47425261.00 L 28673005.59 47425261.00 A 313516.66 313516.66 0 0 0 28399213.00 47268148.00 L 28241731.00 47268148.00 A 317686.61 317686.61 0 0 0 28241731.00 47903504.00 L 28399213.00 47903504.00 A 317686.61 317686.61 0 0 0 28673005.59 47746391.00 L 30526994.41 47746391.00 A 313516.66 313516.66 0 0 0 30800787.00 47903504.00 L 30958269.00 47903504.00 A 317671.90 317671.90 0 1 0 30958269.00 47268148.00  zM 30879528.44 47585824.65 m -180637.35 0 a 180637.35 180637.35 0 1 1 361274.69 0a 180637.35 180637.35 0 1 1 -361274.69 0M 28320472.44 47585824.65 m -180637.35 0 a 180637.35 180637.35 0 1 1 361274.69 0a 180637.35 180637.35 0 1 1 -361274.69 0"/>
<path id="N" d="M 30673792.59 49010565.00 L 31099999.00 49010566.00 L 31161445.00 48998343.00 L 31213536.00 48963537.00 L 36637480.78 43539592.22 L 36700000.00 43547823.00 A 297823.01 297823.01 0 1 0 36402177.00 43250000.00 L 36410407.55 43312517.45 L 31033490.00 48689435.00 L 30673792.59 48689435.00 A 313516.66 313516.66 0 0 0 30175368.00 48625368.00 A 317671.90 317671.90 0 1 0 30673792.59 49010565.00  z"/>
<path id="N" d="M 27050002.99 47600005.10 m -317671.90 0 a 317671.90 317671.90 0 1 1 635343.80 0a 317671.90 317671.90 0 1 1 -635343.80 0M 27050000.44 47599998.65 m -180637.35 0 a 180637.35 180637.35 0 1 1 361274.69 0a 180637.35 180637.35 0 1 1 -361274.69 0"/>
<path id="N" d="M 38214960.00 45956299.00 L 37585040.00 45956299.00 L 37585040.00 46743701.00 L 38214960.00 46743701.00 L 38214960.00 45956299.00  zM 37900000.44 46349998.65 m -180637.35 0 a 180637.35 180637.35 0 1 1 361274.69 0a 180637.35 180637.35 0 1 1 -361274.69 0"/>
<path id="N" d="M 36821336.00 31905511.00 L 36191416.00 31905511.00 L 36191416.00 32692913.00 L 36821336.00 32692913.00 L 36821336.00 31905511.00  zM 36506376.44 32299210.65 m -180637.35 0 a 180637.35 180637.35 0 1 1 361274.69 0a 180637.35 180637.35 0 1 1 -361274.69 0"/>
<path id="N" d="M 28614960.00 48456299.00 L 27985040.00 48456299.00 L 27985040.00 49243701.00 L 28614960.00 49243701.00 L 28614960.00 48456299.00  zM 28300000.44 48849998.65 m -180637.35 0 a 180637.35 180637.35 0 1 1 361274.69 0a 180637.35 180637.35 0 1 1 -361274.69 0"/>
<path id="N" d="M 28258269.00 18846494.00 L 28100787.00 18846494.00 A 317686.61 317686.61 0 0 0 27826994.41 19003607.00 L 25973005.59 19003607.00 A 313516.66 313516.66 0 0 0 25699213.00 18846494.00 L 25541731.00 18846494.00 A 317686.61 317686.61 0 0 0 25541731.00 19481850.00 L 25699213.00 19481850.00 A 317686.61 317686.61 0 0 0 25973005.59 19324737.00 L 27826994.41 19324737.00 A 313516.66 313516.66 0 0 0 28100787.00 19481850.00 L 28258269.00 19481850.00 A 317671.90 317671.90 0 0 0 28258269.00 18846494.00  zM 25620472.44 19164170.65 m -180637.35 0 a 180637.35 180637.35 0 1 1 361274.69 0a 180637.35 180637.35 0 1 1 -361274.69 0M 28179528.44 19164170.65 m -180637.35 0 a 180637.35 180637.35 0 1 1 361274.69 0a 180637.35 180637.35 0 1 1 -361274.69 0"/>
<path id="N" d="M 28967678.00 25128741.00 L 28967678.00 24971259.00 A 317686.61 317686.61 0 1 0 28332322.00 24971259.00 L 28332322.00 25128741.00 A 317686.61 317686.61 0 1 0 28967678.00 25128741.00  zM 28650000.44 25049998.65 m -180637.35 0 a 180637.35 180637.35 0 1 1 361274.69 0a 180637.35 180637.35 0 1 1 -361274.69 0"/>
<path id="N" d="M 28100002.99 23250005.10 m -317671.90 0 a 317671.90 317671.90 0 1 1 635343.80 0a 317671.90 317671.90 0 1 1 -635343.80 0M 28100000.44 23249998.65 m -180637.35 0 a 180637.35 180637.35 0 1 1 361274.69 0a 180637.35 180637.35 0 1 1 -361274.69 0"/>
</g>
</svg>
