<svg width="58.42mm" height="48.641mm" viewBox="0 0 23000000 19150000"  version="1.1" xmlns="http://www.w3.org/2000/svg" xmlns:xlink="http://www.w3.org/1999/xlink">
<desc>
Origin 10000000 10150000 Bound 10000000 30850000 23000000 19150000
</desc>
<g fill-rule="evenodd" fill="rgb(255, 0, 0)" stroke="black" stroke-width="1" transform="translate(0, 19150000) scale(1, -1) translate(-10000000, -30850000)">
<path id="N" d="M 14588698.86 32150011.12 m -989001.57 0 a 989001.57 989001.57 0 1 1 1978003.14 0a 989001.57 989001.57 0 1 1 -1978003.14 0M 14588692.40 32149999.06 m -593408.94 0 a 593408.94 593408.94 0 1 1 1186817.89 0a 593408.94 593408.94 0 1 1 -1186817.89 0"/>
<path id="N" d="M 11554708.00 41645197.00 L 11397226.00 41645197.00 A 317686.61 317686.61 0 1 0 11397226.00 42280553.00 L 11554708.00 42280553.00 A 317671.90 317671.90 0 1 0 11554708.00 41645197.00  zM 11475967.44 41962873.65 m -180637.35 0 a 180637.35 180637.35 0 1 1 361274.69 0a 180637.35 180637.35 0 1 1 -361274.69 0"/>
<path id="N" d="M 24650002.99 38450005.10 m -317671.90 0 a 317671.90 317671.90 0 1 1 635343.80 0a 317671.90 317671.90 0 1 1 -635343.80 0M 24650000.44 38449998.65 m -180637.35 0 a 180637.35 180637.35 0 1 1 361274.69 0a 180637.35 180637.35 0 1 1 -361274.69 0"/>
<path id="N" d="M 24650002.99 41250005.10 m -317671.90 0 a 317671.90 317671.90 0 1 1 635343.80 0a 317671.90 317671.90 0 1 1 -635343.80 0M 24650000.44 41249998.65 m -180637.35 0 a 180637.35 180637.35 0 1 1 361274.69 0a 180637.35 180637.35 0 1 1 -361274.69 0"/>
<path id="N" d="M 21650002.99 42600005.10 m -317671.90 0 a 317671.90 317671.90 0 1 1 635343.80 0a 317671.90 317671.90 0 1 1 -635343.80 0M 21650000.44 42599998.65 m -180637.35 0 a 180637.35 180637.35 0 1 1 361274.69 0a 180637.35 180637.35 0 1 1 -361274.69 0"/>
<path id="N" d="M 21650002.99 39800005.10 m -317671.90 0 a 317671.90 317671.90 0 1 1 635343.80 0a 317671.90 317671.90 0 1 1 -635343.80 0M 21650000.44 39799998.65 m -180637.35 0 a 180637.35 180637.35 0 1 1 361274.69 0a 180637.35 180637.35 0 1 1 -361274.69 0"/>
<path id="N" d="M 31706587.86 48650011.12 m -989001.57 0 a 989001.57 989001.57 0 1 1 1978003.14 0a 989001.57 989001.57 0 1 1 -1978003.14 0M 31706581.40 48649999.06 m -593408.94 0 a 593408.94 593408.94 0 1 1 1186817.89 0a 593408.94 593408.94 0 1 1 -1186817.89 0"/>
<path id="N" d="M 14588698.86 48650011.12 m -989001.57 0 a 989001.57 989001.57 0 1 1 1978003.14 0a 989001.57 989001.57 0 1 1 -1978003.14 0M 14588692.40 48649999.06 m -593408.94 0 a 593408.94 593408.94 0 1 1 1186817.89 0a 593408.94 593408.94 0 1 1 -1186817.89 0"/>
<path id="N" d="M 31706587.86 32150011.12 m -989001.57 0 a 989001.57 989001.57 0 1 1 1978003.14 0a 989001.57 989001.57 0 1 1 -1978003.14 0M 31706581.40 32149999.06 m -593408.94 0 a 593408.94 593408.94 0 1 1 1186817.89 0a 593408.94 593408.94 0 1 1 -1186817.89 0"/>
<path id="N" d="M 25316058.88 32534769.00 L 23649097.00 32534769.00 L 23572289.00 32550047.00 L 23507176.00 32593555.00 L 23477379.00 32623352.00 L 22917961.00 32623352.00 L 22888164.00 32593555.00 L 22823050.00 32550047.00 L 22746243.00 32534769.00 L 21079281.12 32534769.00 A 391877.54 391877.54 0 0 0 20839817.00 32351909.00 A 397095.55 397095.55 0 1 0 21079281.12 32936183.00 L 22663108.00 32936183.00 L 22692905.00 32965980.00 L 22758018.00 33009488.00 L 22834826.00 33024766.00 L 23560514.00 33024766.00 L 23637321.00 33009488.00 L 23702435.00 32965980.00 L 23732232.00 32936183.00 L 25316058.88 32936183.00 A 391877.54 391877.54 0 0 0 25555523.00 33119043.00 A 397095.55 397095.55 0 1 0 25316058.88 32534769.00  zM 20737040.44 32735474.65 m -180637.35 0 a 180637.35 180637.35 0 1 1 361274.69 0a 180637.35 180637.35 0 1 1 -361274.69 0M 25658300.44 32735474.65 m -180637.35 0 a 180637.35 180637.35 0 1 1 361274.69 0a 180637.35 180637.35 0 1 1 -361274.69 0"/>
<path id="N" d="M 11554708.00 38645197.00 L 11397226.00 38645197.00 A 317686.61 317686.61 0 0 0 11397226.00 39280553.00 L 11554708.00 39280553.00 A 317671.90 317671.90 0 0 0 11554708.00 38645197.00  zM 11475967.44 38962873.65 m -180637.35 0 a 180637.35 180637.35 0 1 1 361274.69 0a 180637.35 180637.35 0 1 1 -361274.69 0"/>
<path id="N" d="M 21650002.99 38450005.10 m -317671.90 0 a 317671.90 317671.90 0 1 1 635343.80 0a 317671.90 317671.90 0 1 1 -635343.80 0M 21650000.44 38449998.65 m -180637.35 0 a 180637.35 180637.35 0 1 1 361274.69 0a 180637.35 180637.35 0 1 1 -361274.69 0"/>
<path id="N" d="M 27677800.12 41603190.00 L 28947517.00 41603190.00 L 29024324.00 41587912.00 L 29089438.00 41544404.00 L 29119235.00 41514607.00 L 30324986.00 41514607.00 L 30352300.00 41541921.00 L 30417414.00 41585429.00 L 30494221.00 41600707.00 L 31863118.00 41600707.00 L 31863118.00 41796184.00 L 32650520.00 41796184.00 L 32650520.00 41008782.00 L 31863118.00 41008782.00 L 31863118.00 41199293.00 L 30577356.00 41199293.00 L 30550042.00 41171979.00 L 30484928.00 41128471.00 L 30408121.00 41113193.00 L 29036100.00 41113193.00 L 28959292.00 41128471.00 L 28894179.00 41171979.00 L 28864382.00 41201776.00 L 27677800.12 41201776.00 A 391877.54 391877.54 0 0 0 27438336.00 41018916.00 A 397095.55 397095.55 0 1 0 27677800.12 41603190.00  zM 27335559.44 41402481.65 m -180637.35 0 a 180637.35 180637.35 0 1 1 361274.69 0a 180637.35 180637.35 0 1 1 -361274.69 0M 32256819.44 41402481.65 m -180637.35 0 a 180637.35 180637.35 0 1 1 361274.69 0a 180637.35 180637.35 0 1 1 -361274.69 0"/>
<path id="N" d="M 25316058.88 34503273.00 L 23732232.00 34503273.00 L 23702435.00 34473476.00 L 23637321.00 34429968.00 L 23560514.00 34414690.00 L 22834826.00 34414690.00 L 22758018.00 34429968.00 L 22692905.00 34473476.00 L 22663108.00 34503273.00 L 21130741.00 34503273.00 L 21130741.00 34310279.00 L 20343339.00 34310279.00 L 20343339.00 35097681.00 L 21130741.00 35097681.00 L 21130741.00 34904687.00 L 22746243.00 34904687.00 L 22823050.00 34889409.00 L 22888164.00 34845901.00 L 22917961.00 34816104.00 L 23477379.00 34816104.00 L 23507176.00 34845901.00 L 23572289.00 34889409.00 L 23649097.00 34904687.00 L 25316058.88 34904687.00 A 391877.54 391877.54 0 0 0 25555523.00 35087547.00 A 397095.55 397095.55 0 1 0 25316058.88 34503273.00  zM 20737040.44 34703978.65 m -180637.35 0 a 180637.35 180637.35 0 1 1 361274.69 0a 180637.35 180637.35 0 1 1 -361274.69 0M 25658300.44 34703978.65 m -180637.35 0 a 180637.35 180637.35 0 1 1 361274.69 0a 180637.35 180637.35 0 1 1 -361274.69 0"/>
<path id="N" d="M 18617474.88 41201840.00 L 17033648.00 41201840.00 L 17003851.00 41172043.00 L 16938737.00 41128535.00 L 16861930.00 41113257.00 L 16136242.00 41113257.00 L 16059434.00 41128535.00 L 15994321.00 41172043.00 L 15964524.00 41201840.00 L 14432157.00 41201840.00 L 14432157.00 41008846.00 L 13644755.00 41008846.00 L 13644755.00 41796248.00 L 14432157.00 41796248.00 L 14432157.00 41603254.00 L 16047659.00 41603254.00 L 16124466.00 41587976.00 L 16189580.00 41544468.00 L 16219377.00 41514671.00 L 16778795.00 41514671.00 L 16808592.00 41544468.00 L 16873705.00 41587976.00 L 16950513.00 41603254.00 L 18617474.88 41603254.00 A 391877.54 391877.54 0 0 0 18856939.00 41786114.00 A 397095.55 397095.55 0 1 0 18617474.88 41201840.00  zM 14038456.44 41402545.65 m -180637.35 0 a 180637.35 180637.35 0 1 1 361274.69 0a 180637.35 180637.35 0 1 1 -361274.69 0M 18959716.44 41402545.65 m -180637.35 0 a 180637.35 180637.35 0 1 1 361274.69 0a 180637.35 180637.35 0 1 1 -361274.69 0"/>
<path id="N" d="M 25307035.88 47891254.00 L 23723209.00 47891254.00 L 23693412.00 47861457.00 L 23628298.00 47817949.00 L 23551491.00 47802671.00 L 22825803.00 47802671.00 L 22748995.00 47817949.00 L 22683882.00 47861457.00 L 22654085.00 47891254.00 L 21121718.00 47891254.00 L 21121718.00 47698260.00 L 20334316.00 47698260.00 L 20334316.00 48485662.00 L 21121718.00 48485662.00 L 21121718.00 48292668.00 L 22737220.00 48292668.00 L 22814027.00 48277390.00 L 22879141.00 48233882.00 L 22908938.00 48204085.00 L 23468356.00 48204085.00 L 23498153.00 48233882.00 L 23563266.00 48277390.00 L 23640074.00 48292668.00 L 25307035.88 48292668.00 A 391877.54 391877.54 0 0 0 25546500.00 48475528.00 A 397095.55 397095.55 0 1 0 25307035.88 47891254.00  zM 20728017.44 48091959.65 m -180637.35 0 a 180637.35 180637.35 0 1 1 361274.69 0a 180637.35 180637.35 0 1 1 -361274.69 0M 25649277.44 48091959.65 m -180637.35 0 a 180637.35 180637.35 0 1 1 361274.69 0a 180637.35 180637.35 0 1 1 -361274.69 0"/>
<path id="N" d="M 11869668.00 42647915.00 L 11082266.00 42647915.00 L 11082266.00 43277835.00 L 11869668.00 43277835.00 L 11869668.00 42647915.00  zM 11475967.44 42962873.65 m -180637.35 0 a 180637.35 180637.35 0 1 1 361274.69 0a 180637.35 180637.35 0 1 1 -361274.69 0"/>
<path id="N" d="M 25307035.88 45922750.00 L 23640074.00 45922750.00 L 23563266.00 45938028.00 L 23498153.00 45981536.00 L 23468356.00 46011333.00 L 22908938.00 46011333.00 L 22879141.00 45981536.00 L 22814027.00 45938028.00 L 22737220.00 45922750.00 L 21070258.12 45922750.00 A 391877.54 391877.54 0 0 0 20830794.00 45739890.00 A 397095.55 397095.55 0 1 0 21070258.12 46324164.00 L 22654085.00 46324164.00 L 22683882.00 46353961.00 L 22748995.00 46397469.00 L 22825803.00 46412747.00 L 23551491.00 46412747.00 L 23628298.00 46397469.00 L 23693412.00 46353961.00 L 23723209.00 46324164.00 L 25307035.88 46324164.00 A 391877.54 391877.54 0 0 0 25546500.00 46507024.00 A 397095.55 397095.55 0 1 0 25307035.88 45922750.00  zM 20728017.44 46123455.65 m -180637.35 0 a 180637.35 180637.35 0 1 1 361274.69 0a 180637.35 180637.35 0 1 1 -361274.69 0M 25649277.44 46123455.65 m -180637.35 0 a 180637.35 180637.35 0 1 1 361274.69 0a 180637.35 180637.35 0 1 1 -361274.69 0"/>
<path id="N" d="M 11554708.00 40645197.00 L 11397226.00 40645197.00 A 317686.61 317686.61 0 1 0 11397226.00 41280553.00 L 11554708.00 41280553.00 A 317671.90 317671.90 0 1 0 11554708.00 40645197.00  zM 11475967.44 40962873.65 m -180637.35 0 a 180637.35 180637.35 0 1 1 361274.69 0a 180637.35 180637.35 0 1 1 -361274.69 0"/>
<path id="N" d="M 24650002.99 42600005.10 m -317671.90 0 a 317671.90 317671.90 0 1 1 635343.80 0a 317671.90 317671.90 0 1 1 -635343.80 0M 24650000.44 42599998.65 m -180637.35 0 a 180637.35 180637.35 0 1 1 361274.69 0a 180637.35 180637.35 0 1 1 -361274.69 0"/>
<path id="N" d="M 31914577.88 39233272.00 L 30247616.00 39233272.00 L 30170808.00 39248550.00 L 30105695.00 39292058.00 L 30075898.00 39321855.00 L 29516480.00 39321855.00 L 29486683.00 39292058.00 L 29421569.00 39248550.00 L 29344762.00 39233272.00 L 27677800.12 39233272.00 A 391877.54 391877.54 0 0 0 27438336.00 39050412.00 A 397095.55 397095.55 0 1 0 27677800.12 39634686.00 L 29261627.00 39634686.00 L 29291424.00 39664483.00 L 29356537.00 39707991.00 L 29433345.00 39723269.00 L 30159033.00 39723269.00 L 30235840.00 39707991.00 L 30300954.00 39664483.00 L 30330751.00 39634686.00 L 31914577.88 39634686.00 A 391877.54 391877.54 0 0 0 32154042.00 39817546.00 A 397095.55 397095.55 0 1 0 31914577.88 39233272.00  zM 27335559.44 39433977.65 m -180637.35 0 a 180637.35 180637.35 0 1 1 361274.69 0a 180637.35 180637.35 0 1 1 -361274.69 0M 32256819.44 39433977.65 m -180637.35 0 a 180637.35 180637.35 0 1 1 361274.69 0a 180637.35 180637.35 0 1 1 -361274.69 0"/>
<path id="N" d="M 11554708.00 37645197.00 L 11397226.00 37645197.00 A 317686.61 317686.61 0 0 0 11397226.00 38280553.00 L 11554708.00 38280553.00 A 317671.90 317671.90 0 0 0 11554708.00 37645197.00  zM 11475967.44 37962873.65 m -180637.35 0 a 180637.35 180637.35 0 1 1 361274.69 0a 180637.35 180637.35 0 1 1 -361274.69 0"/>
<path id="N" d="M 24650002.99 39800005.10 m -317671.90 0 a 317671.90 317671.90 0 1 1 635343.80 0a 317671.90 317671.90 0 1 1 -635343.80 0M 24650000.44 39799998.65 m -180637.35 0 a 180637.35 180637.35 0 1 1 361274.69 0a 180637.35 180637.35 0 1 1 -361274.69 0"/>
<path id="N" d="M 18617474.88 39233336.00 L 16950513.00 39233336.00 L 16873705.00 39248614.00 L 16808592.00 39292122.00 L 16778795.00 39321919.00 L 16219377.00 39321919.00 L 16189580.00 39292122.00 L 16124466.00 39248614.00 L 16047659.00 39233336.00 L 14380697.12 39233336.00 A 391877.54 391877.54 0 0 0 14141233.00 39050476.00 A 397095.55 397095.55 0 1 0 14380697.12 39634750.00 L 15964524.00 39634750.00 L 15994321.00 39664547.00 L 16059434.00 39708055.00 L 16136242.00 39723333.00 L 16861930.00 39723333.00 L 16938737.00 39708055.00 L 17003851.00 39664547.00 L 17033648.00 39634750.00 L 18617474.88 39634750.00 A 391877.54 391877.54 0 0 0 18856939.00 39817610.00 A 397095.55 397095.55 0 1 0 18617474.88 39233336.00  zM 14038456.44 39434041.65 m -180637.35 0 a 180637.35 180637.35 0 1 1 361274.69 0a 180637.35 180637.35 0 1 1 -361274.69 0M 18959716.44 39434041.65 m -180637.35 0 a 180637.35 180637.35 0 1 1 361274.69 0a 180637.35 180637.35 0 1 1 -361274.69 0"/>
<path id="N" d="M 11554708.00 39645197.00 L 11397226.00 39645197.00 A 317686.61 317686.61 0 0 0 11397226.00 40280553.00 L 11554708.00 40280553.00 A 317671.90 317671.90 0 0 0 11554708.00 39645197.00  zM 11475967.44 39962873.65 m -180637.35 0 a 180637.35 180637.35 0 1 1 361274.69 0a 180637.35 180637.35 0 1 1 -361274.69 0"/>
<path id="N" d="M 21650002.99 41250005.10 m -317671.90 0 a 317671.90 317671.90 0 1 1 635343.80 0a 317671.90 317671.90 0 1 1 -635343.80 0M 21650000.44 41249998.65 m -180637.35 0 a 180637.35 180637.35 0 1 1 361274.69 0a 180637.35 180637.35 0 1 1 -361274.69 0"/>
</g>
</svg>
