<svg width="58.42mm" height="48.641mm" viewBox="0 0 23000000 19150000"  version="1.1" xmlns="http://www.w3.org/2000/svg" xmlns:xlink="http://www.w3.org/1999/xlink">
<desc>
Origin 10000000 10150000 Bound 10000000 30850000 23000000 19150000
</desc>
<g fill-rule="evenodd" fill="rgb(255, 255, 0)" stroke="black" stroke-width="1" transform="translate(0, 19150000) scale(1, -1) translate(-10000000, -30850000)">
<path id="N" d="M 18752632.88 46875996.45 L 18792594.88 46865237.46 L 18827945.89 46849867.46 L 18861759.89 46826812.47 L 18878666.89 46808368.47 L 18895573.90 46782239.48 L 18900184.90 46769943.48 L 18910943.90 46740740.48 L 18920165.92 46682334.48 L 18920166.00 46196642.48 L 18794132.00 46196642.46 L 18794131.99 46268881.46 L 18780298.99 46241215.46 L 18771076.99 46230456.45 L 18758781.00 46219697.45 L 18743411.00 46210475.45 L 18724967.00 46202790.45 L 18715745.00 46201253.44 L 18645043.00 46192031.43 L 18571267.00 46190494.42 L 18503639.00 46196642.41 L 18436011.00 46210475.40 L 18403734.00 46222771.39 L 18377604.99 46238141.39 L 18357623.99 46259659.38 L 18346864.99 46276566.38 L 18325346.98 46327287.38 L 18316124.97 46379545.37 L 18316124.96 46401063.37 L 18319198.96 46445636.38 L 18333031.95 46502505.38 L 18345327.94 46531708.38 L 18363771.94 46559374.38 L 18386826.93 46580892.39 L 18412955.93 46594725.39 L 18434473.93 46602410.40 L 18477509.93 46613169.40 L 18515934.93 46619317.41 L 18560507.93 46622391.42 L 18605080.93 46622391.43 L 18688078.93 46613169.44 L 18743410.93 46596262.45 L 18758780.93 46588577.45 L 18772613.93 46579355.45 L 18783372.93 46568596.46 L 18791057.94 46556300.46 L 18794131.94 46542467.46 L 18794131.92 46671575.46 L 18786446.91 46719222.46 L 18772613.90 46749962.45 L 18760317.90 46760721.45 L 18731114.90 46773017.45 L 18711133.90 46777628.44 L 18657338.90 46783776.43 L 18605080.90 46785313.43 L 18546674.90 46780702.41 L 18506712.90 46771480.41 L 18488268.90 46760721.40 L 18479046.90 46748425.40 L 18469824.91 46726907.40 L 18466750.91 46711537.40 L 18465213.92 46668501.40 L 18336105.92 46668501.38 L 18336105.92 46673112.38 L 18342253.91 46731518.38 L 18348401.90 46759184.38 L 18368382.89 46812979.38 L 18385289.89 46836034.39 L 18396048.89 46845256.39 L 18422177.88 46859089.39 L 18434473.88 46863700.40 L 18485194.88 46879070.40 L 18532841.88 46886755.41 L 18589710.88 46891366.42 L 18638894.88 46891366.43 L 18695763.88 46886755.44 L 18752632.88 46875996.45  zM 18635820.94 46516338.43 L 18577414.94 46516338.42 L 18532841.94 46513264.41 L 18491342.95 46505579.41 L 18479046.95 46500968.40 L 18468287.95 46491746.40 L 18462139.95 46482524.40 L 18449843.95 46456395.40 L 18446769.96 46437951.40 L 18445232.96 46402600.40 L 18451380.97 46359564.40 L 18462139.98 46330361.40 L 18469824.98 46319602.40 L 18483657.98 46311917.40 L 18531304.98 46299621.41 L 18557433.98 46298084.42 L 18626598.98 46296547.43 L 18685004.98 46301158.44 L 18726503.98 46308843.45 L 18743410.98 46314991.45 L 18751095.98 46319602.45 L 18768002.98 46336509.45 L 18775687.97 46348805.45 L 18789520.97 46384156.46 L 18791057.96 46407211.46 L 18787983.96 46439488.46 L 18778761.95 46467154.46 L 18771076.95 46479450.45 L 18760317.95 46491746.45 L 18732651.95 46504042.45 L 18712670.95 46508653.44 L 18654264.94 46514801.43 L 18635820.94 46516338.43  z"/>
<path id="N" d="M 14604269.88 46889828.73 L 14668823.88 46883680.74 L 14704174.88 46877532.74 L 14734914.88 46868310.75 L 14764117.88 46857551.75 L 14797931.89 46826811.76 L 14822523.90 46783775.76 L 14827134.90 46768405.76 L 14833282.91 46734591.77 L 14834819.91 46688481.77 L 14705711.91 46688481.74 L 14705711.91 46722295.74 L 14704174.91 46734591.74 L 14696489.90 46759183.74 L 14691878.90 46766868.74 L 14684193.90 46771479.74 L 14664212.90 46779164.74 L 14633472.90 46783775.73 L 14611954.90 46785312.73 L 14510512.90 46785312.71 L 14476698.90 46783775.70 L 14436736.90 46777627.70 L 14419829.90 46773016.69 L 14405996.90 46766868.69 L 14401385.90 46760720.69 L 14392163.90 46745350.69 L 14387552.91 46722295.69 L 14386015.92 46674648.69 L 14389089.92 46654667.69 A 69255.67 69255.67 0 0 1 14412144.93 46619316.69 L 14427514.93 46611631.69 L 14449032.93 46607020.70 L 14681119.93 46591650.74 L 14707248.93 46585502.74 L 14757969.94 46565521.75 L 14791783.94 46542466.76 L 14808690.94 46527096.76 L 14822523.95 46508652.76 L 14834819.95 46488671.77 L 14844041.95 46464079.77 L 14850189.96 46436413.77 L 14851726.97 46387229.77 L 14842504.98 46334971.77 L 14833282.98 46310379.77 L 14811764.99 46271954.76 L 14790246.99 46247362.76 L 14767191.99 46228918.75 L 14736452.00 46213548.75 L 14690342.00 46201252.74 L 14647306.00 46195104.73 L 14593511.00 46190493.72 L 14533568.00 46190493.71 L 14469014.00 46195104.70 L 14390627.00 46205863.69 L 14353739.00 46213548.68 A 128967.17 128967.17 0 0 0 14275351.99 46276565.67 L 14263055.98 46299620.67 L 14255370.98 46327286.66 L 14252296.97 46359563.66 L 14252296.96 46433339.66 L 14381404.96 46433339.69 L 14381404.97 46362637.69 L 14389089.98 46334971.69 L 14402922.98 46316527.69 L 14413681.98 46310379.69 L 14433662.98 46305768.70 L 14487457.98 46299620.71 L 14539715.98 46296546.71 L 14598121.98 46296546.72 L 14647305.98 46301157.73 L 14684193.98 46310379.74 L 14702637.98 46319601.74 L 14710322.98 46331897.74 L 14719544.97 46354952.75 L 14721081.97 46370322.75 L 14722618.96 46411821.75 L 14713396.96 46447172.74 L 14702637.95 46459468.74 L 14688804.95 46471764.74 L 14668823.95 46480986.74 L 14615028.95 46487134.73 L 14441347.95 46496356.70 L 14395237.95 46507115.69 L 14358349.94 46522485.68 L 14321461.94 46545540.68 L 14304554.94 46560910.67 L 14289184.93 46579354.67 L 14275351.93 46600872.67 L 14266129.93 46623927.67 L 14259981.92 46653130.67 L 14256907.91 46683870.66 L 14258444.91 46714610.67 L 14264592.90 46751498.67 L 14272277.90 46779164.67 L 14283036.89 46806830.67 L 14298406.89 46831422.67 L 14324535.88 46854477.68 L 14347590.88 46863699.68 L 14370645.88 46871384.68 L 14444421.88 46885217.70 L 14495142.88 46889828.71 L 14578140.88 46891365.72 L 14604269.88 46889828.73  z"/>
<path id="N" d="M 19042262.83 45575996.47 L 19094520.83 45562163.48 L 19119112.83 45552941.48 L 19142167.84 45542182.49 L 19162148.84 45529886.49 L 19180592.84 45512979.49 L 19195962.85 45492998.49 L 19223628.86 45437666.50 L 19242072.87 45376186.50 L 19251294.88 45323928.50 L 19254368.89 45262448.51 L 19254368.94 44931993.51 L 19248220.96 44855143.50 L 19234387.97 44789052.50 L 19220554.98 44746016.50 L 19211332.98 44724498.50 L 19200573.98 44704517.50 L 19172907.99 44672240.49 L 19171370.99 44672240.49 L 19169833.99 44669166.49 L 19136019.99 44649185.48 L 19085299.00 44629204.48 L 19009986.00 44610760.46 L 18943895.00 44603075.45 L 18865508.00 44600001.44 L 18782510.00 44600001.42 L 18751770.00 44601538.42 L 18685679.00 44609223.41 L 18636495.00 44618445.40 L 18562718.99 44638426.38 L 18518145.99 44659944.38 L 18498164.99 44672240.37 L 18496627.99 44675314.37 L 18492016.99 44678388.37 L 18473572.98 44701443.37 L 18458202.98 44726035.37 L 18442832.97 44761386.36 L 18428999.97 44805959.36 L 18419777.96 44861291.36 L 18416703.94 44930456.36 L 18416703.89 45260911.36 L 18419777.88 45316243.36 L 18433610.86 45391556.36 L 18445906.86 45433055.36 L 18462813.85 45471480.37 L 18473572.85 45489924.37 L 18485868.84 45506831.37 L 18493553.84 45514516.37 L 18508923.84 45526812.37 L 18548885.84 45551404.38 L 18611902.83 45574459.39 L 18639568.83 45580607.40 L 18702585.83 45591366.41 L 18779435.83 45594440.42 L 18876266.83 45594440.44 L 18960801.83 45588292.45 L 19042262.83 45575996.47  zM 18883951.85 45474554.44 L 18756380.85 45474554.42 L 18733325.85 45473017.41 L 18673382.85 45468406.40 L 18618050.85 45456110.39 L 18598069.85 45446888.39 L 18590384.86 45436129.39 L 18578088.86 45414611.39 L 18561181.87 45360816.38 L 18555033.88 45323928.38 L 18550422.88 45277818.38 L 18550422.95 44915086.38 L 18561181.96 44830551.38 L 18573477.97 44787515.39 L 18585773.97 44764460.39 L 18593458.97 44756775.39 L 18614976.98 44744479.39 L 18645716.98 44735257.40 L 18711807.98 44722961.41 L 18756380.98 44719887.42 L 18891636.98 44719887.44 L 18951579.98 44724498.45 L 19020744.98 44735257.46 L 19051484.98 44744479.47 L 19073002.97 44756775.47 L 19080687.97 44764460.47 L 19097594.97 44792126.48 L 19109890.96 44830551.48 L 19116038.96 44865902.48 L 19120649.95 44908938.48 L 19120649.88 45267059.48 L 19114501.87 45330076.48 L 19108353.87 45360816.48 L 19099131.86 45390019.48 L 19086835.86 45416148.48 L 19079150.86 45426907.47 L 19069928.86 45434592.47 L 19036114.85 45451499.47 L 18996152.85 45462258.46 L 18957727.85 45468406.45 L 18911617.85 45473017.45 L 18883951.85 45474554.44  z"/>
<path id="N" d="M 17256268.83 45575996.16 L 17308526.83 45562163.16 L 17333118.83 45552941.17 L 17356173.84 45542182.17 L 17376154.84 45529886.18 L 17394598.84 45512979.18 L 17409968.85 45492998.18 L 17437634.86 45437666.19 L 17456078.87 45376186.19 L 17465300.88 45323928.19 L 17468374.89 45262448.19 L 17468374.94 44931993.19 L 17462226.96 44855143.19 L 17448393.97 44789052.19 L 17434560.98 44746016.19 L 17425338.98 44724498.19 L 17414579.98 44704517.18 L 17386913.99 44672240.18 L 17385376.99 44672240.18 L 17383839.99 44669166.18 L 17350025.99 44649185.17 L 17299305.00 44629204.16 L 17223992.00 44610760.15 L 17157901.00 44603075.14 L 17079514.00 44600001.12 L 16996516.00 44600001.11 L 16965776.00 44601538.11 L 16899685.00 44609223.09 L 16850501.00 44618445.08 L 16776724.99 44638426.07 L 16732151.99 44659944.06 L 16712170.99 44672240.06 L 16710633.99 44675314.06 L 16706022.99 44678388.06 L 16687578.98 44701443.06 L 16672208.98 44726035.05 L 16656838.97 44761386.05 L 16643005.97 44805959.05 L 16633783.96 44861291.05 L 16630709.94 44930456.05 L 16630709.89 45260911.05 L 16633783.88 45316243.05 L 16647616.86 45391556.05 L 16659912.86 45433055.05 L 16676819.85 45471480.05 L 16687578.85 45489924.06 L 16699874.84 45506831.06 L 16707559.84 45514516.06 L 16722929.84 45526812.06 L 16762891.84 45551404.07 L 16825908.83 45574459.08 L 16853574.83 45580607.09 L 16916591.83 45591366.10 L 16993441.83 45594440.11 L 17090272.83 45594440.13 L 17174807.83 45588292.14 L 17256268.83 45575996.16  zM 17097957.85 45474554.13 L 16970386.85 45474554.11 L 16947331.85 45473017.10 L 16887388.85 45468406.09 L 16832056.85 45456110.08 L 16812075.85 45446888.08 L 16804390.86 45436129.08 L 16792094.86 45414611.07 L 16775187.87 45360816.07 L 16769039.88 45323928.07 L 16764428.88 45277818.07 L 16764428.95 44915086.07 L 16775187.96 44830551.07 L 16787483.97 44787515.07 L 16799779.97 44764460.08 L 16807464.97 44756775.08 L 16828982.98 44744479.08 L 16859722.98 44735257.09 L 16925813.98 44722961.10 L 16970386.98 44719887.11 L 17105642.98 44719887.13 L 17165585.98 44724498.14 L 17234750.98 44735257.15 L 17265490.98 44744479.16 L 17287008.97 44756775.16 L 17294693.97 44764460.16 L 17311600.97 44792126.17 L 17323896.96 44830551.17 L 17330044.96 44865902.17 L 17334655.95 44908938.17 L 17334655.88 45267059.17 L 17328507.87 45330076.17 L 17322359.87 45360816.17 L 17313137.86 45390019.17 L 17300841.86 45416148.16 L 17293156.86 45426907.16 L 17283934.86 45434592.16 L 17250120.85 45451499.15 L 17210158.85 45462258.15 L 17171733.85 45468406.14 L 17125623.85 45473017.13 L 17097957.85 45474554.13  z"/>
<path id="N" d="M 15090635.83 45592902.78 L 15138282.83 45585217.79 L 15175170.83 45575995.79 L 15228965.83 45554477.80 L 15261242.84 45532959.81 L 15290445.84 45502219.81 L 15301204.85 45485312.81 L 15318111.85 45445350.82 L 15328870.86 45409999.82 L 15338092.87 45342371.82 L 15338092.89 45262447.82 L 15204373.89 45262447.80 L 15204373.88 45303946.80 L 15202836.87 45339297.80 L 15195151.86 45403851.80 L 15185929.86 45431517.79 L 15181318.86 45437665.79 L 15173633.85 45443813.79 L 15147504.85 45456109.79 L 15106005.85 45468405.78 L 15078339.85 45473016.78 L 15046062.85 45474553.77 L 14941546.85 45474553.75 L 14875455.85 45469942.74 L 14835493.85 45463794.73 L 14781698.85 45451498.72 L 14752495.85 45439202.72 L 14741736.86 45431517.72 L 14726366.86 45413073.71 L 14709459.87 45379259.71 L 14701774.87 45356204.71 L 14695626.87 45327001.71 L 14694089.88 45291650.71 L 14694089.93 44998083.71 L 14695626.94 44938140.71 L 14703311.96 44862827.71 L 14714070.97 44805958.71 L 14720218.97 44789051.71 L 14732514.97 44762922.71 L 14747884.98 44749089.72 L 14781698.98 44733719.72 L 14806290.98 44726034.73 L 14855474.98 44719886.74 L 15024544.98 44719886.77 L 15047599.98 44721423.77 L 15101394.98 44726034.78 L 15155189.98 44738330.79 L 15173633.98 44747552.79 L 15185929.97 44761385.79 L 15201299.97 44789051.80 L 15207447.96 44810569.80 L 15213595.96 44852068.80 L 15213595.94 44951973.80 L 15347314.94 44951973.82 L 15347314.96 44852068.82 L 15345777.96 44819791.82 L 15338092.97 44778292.82 L 15328870.98 44746015.82 L 15307352.98 44698368.82 L 15285834.99 44670702.81 L 15270464.99 44658406.81 L 15268927.99 44655332.81 L 15248946.99 44644573.80 L 15195152.00 44623055.80 L 15130598.00 44609222.78 L 15042989.00 44600000.77 L 14841642.00 44600000.73 L 14777088.00 44609222.72 L 14743274.00 44618444.72 L 14707923.00 44632277.71 L 14655664.99 44663017.70 L 14632609.99 44684535.70 L 14608017.98 44721423.69 L 14584962.97 44769070.69 L 14572666.96 44810569.69 L 14563444.96 44861290.69 L 14560370.95 44918159.68 L 14560370.88 45277817.68 L 14561907.88 45314705.68 L 14566518.87 45345445.69 L 14578814.86 45399240.69 L 14591110.86 45437665.69 L 14609554.85 45474553.69 L 14635683.84 45509904.70 L 14658738.84 45528348.70 L 14686404.84 45543718.71 L 14723292.83 45559088.71 L 14774013.83 45574458.72 L 14804753.83 45580606.73 L 14875455.83 45591365.74 L 14963064.83 45594439.75 L 15067580.83 45594439.77 L 15090635.83 45592902.78  z"/>
<path id="N" d="M 16306402.83 45579069.99 L 16347901.83 45568311.00 L 16381715.83 45552941.00 L 16397085.84 45542182.01 L 16423214.84 45519127.01 L 16457028.85 45479165.02 L 16473935.85 45449962.02 L 16489305.86 45413074.02 L 16500064.87 45368501.02 L 16504675.88 45317780.02 L 16504675.89 45263985.02 L 16498527.90 45188672.02 L 16481620.91 45122581.02 L 16475472.91 45107211.02 L 16467787.92 45093378.02 L 16458565.92 45081082.02 L 16449343.92 45071860.01 L 16449343.92 45070323.01 L 16446269.92 45068786.01 L 16437047.92 45058027.01 L 16403233.93 45027287.01 L 16377104.93 45010380.00 L 16346364.93 44995010.00 L 16309476.93 44982713.99 L 16289495.94 44978102.99 L 16045112.94 44951973.94 L 16015909.94 44941214.94 L 15992854.94 44930455.93 L 15969799.95 44912011.93 L 15948281.95 44887419.93 L 15934448.96 44853605.92 L 15929837.96 44833624.92 L 15928300.96 44810569.92 L 15928300.98 44729108.92 L 16500064.98 44729109.02 L 16501602.00 44609223.02 L 15794582.00 44609222.90 L 15794581.96 44844383.90 L 15802266.95 44885882.90 L 15808414.95 44904326.90 L 15828395.94 44945825.91 L 15842228.94 44967343.91 L 15860672.93 44988861.91 L 15882190.93 45008842.92 L 15908319.93 45027286.92 L 15939059.92 45044193.93 L 15975947.92 45058026.93 L 16040501.92 45073396.94 L 16215719.92 45090303.97 L 16272588.91 45101062.98 L 16318698.91 45117969.99 L 16338679.91 45128729.00 L 16354049.91 45142562.00 L 16363271.90 45167154.00 L 16370956.89 45222486.00 L 16370956.88 45300873.00 L 16369419.87 45337761.00 L 16361734.86 45385408.00 L 16344827.86 45433055.00 L 16329457.85 45453035.99 L 16301791.85 45463794.99 L 16257218.85 45471479.98 L 16208034.85 45474553.97 L 16101981.85 45474553.95 L 16009761.85 45465331.94 L 15974410.85 45456109.93 L 15959040.85 45446887.93 L 15952892.85 45439202.93 L 15946744.86 45426906.93 L 15940596.86 45408462.93 L 15931374.87 45368500.92 L 15928300.87 45333149.92 L 15928300.89 45233244.92 L 15794581.89 45233244.90 L 15794581.88 45308557.90 L 15796118.87 45351593.90 L 15803803.86 45403851.90 L 15813025.85 45442276.90 L 15825321.85 45480701.91 L 15843765.84 45514515.91 L 15856061.84 45528348.91 L 15869894.84 45539107.91 L 15871431.84 45542181.91 L 15883727.84 45548329.92 L 15903708.83 45556014.92 L 15932911.83 45566773.92 L 15995928.83 45582143.94 L 16052797.83 45589828.95 L 16121962.83 45594439.96 L 16180368.83 45594439.97 L 16244922.83 45589828.98 L 16306402.83 45579069.99  z"/>
<path id="N" d="M 18092396.83 45579070.30 L 18133895.83 45568311.31 L 18167709.83 45552941.32 L 18183079.84 45542182.32 L 18209208.84 45519127.32 L 18243022.85 45479165.33 L 18259929.85 45449962.33 L 18275299.86 45413074.33 L 18286058.87 45368501.34 L 18290669.88 45317780.34 L 18290669.89 45263985.34 L 18284521.90 45188672.34 L 18267614.91 45122581.33 L 18261466.91 45107211.33 L 18253781.92 45093378.33 L 18244559.92 45081082.33 L 18235337.92 45071860.33 L 18235337.92 45070323.33 L 18232263.92 45068786.33 L 18223041.92 45058027.32 L 18189227.93 45027287.32 L 18163098.93 45010380.31 L 18132358.93 44995010.31 L 18095470.93 44982714.30 L 18075489.94 44978103.30 L 17831106.94 44951974.26 L 17801903.94 44941215.25 L 17778848.94 44930456.25 L 17755793.95 44912012.24 L 17734275.95 44887420.24 L 17720442.96 44853606.24 L 17715831.96 44833625.24 L 17714294.96 44810570.24 L 17714294.98 44729109.24 L 18286058.98 44729109.34 L 18287596.00 44609223.34 L 17580576.00 44609223.21 L 17580575.96 44844384.21 L 17588260.95 44885883.21 L 17594408.95 44904327.21 L 17614389.94 44945826.22 L 17628222.94 44967344.22 L 17646666.93 44988862.22 L 17668184.93 45008843.23 L 17694313.93 45027287.23 L 17725053.92 45044194.24 L 17761941.92 45058027.24 L 17826495.92 45073397.26 L 18001713.92 45090304.29 L 18058582.91 45101063.30 L 18104692.91 45117970.30 L 18124673.91 45128729.31 L 18140043.91 45142562.31 L 18149265.90 45167154.31 L 18156950.89 45222486.31 L 18156950.88 45300873.31 L 18155413.87 45337761.31 L 18147728.86 45385408.31 L 18130821.86 45433055.31 L 18115451.85 45453036.31 L 18087785.85 45463795.30 L 18043212.85 45471480.29 L 17994028.85 45474554.28 L 17887975.85 45474554.27 L 17795755.85 45465332.25 L 17760404.85 45456110.24 L 17745034.85 45446888.24 L 17738886.85 45439203.24 L 17732738.86 45426907.24 L 17726590.86 45408463.24 L 17717368.87 45368501.24 L 17714294.87 45333150.24 L 17714294.89 45233245.24 L 17580575.89 45233245.21 L 17580575.88 45308558.21 L 17582112.87 45351594.21 L 17589797.86 45403852.21 L 17599019.85 45442277.22 L 17611315.85 45480702.22 L 17629759.84 45514516.22 L 17642055.84 45528349.22 L 17655888.84 45539108.23 L 17657425.84 45542182.23 L 17669721.84 45548330.23 L 17689702.83 45556015.23 L 17718905.83 45566774.24 L 17781922.83 45582144.25 L 17838791.83 45589829.26 L 17907956.83 45594440.27 L 17966362.83 45594440.28 L 18030916.83 45589829.29 L 18092396.83 45579070.30  z"/>
<path id="N" d="M 16662312.88 46886755.09 L 16719181.88 46875996.10 L 16776050.88 46857552.11 L 16792957.89 46848330.11 L 16808327.89 46837571.11 L 16823697.89 46823738.11 L 16835993.89 46806831.12 L 16852900.90 46774554.12 L 16863659.90 46742277.12 L 16874418.91 46702315.12 L 16883640.93 46623928.12 L 16883640.95 46507116.12 L 16408707.95 46507116.04 L 16408707.96 46448710.04 L 16414855.97 46385693.04 L 16427151.97 46344194.04 L 16436373.98 46328824.05 L 16450206.98 46318065.05 L 16462502.98 46313454.05 L 16502464.98 46301158.06 L 16547037.98 46296547.07 L 16608517.98 46296547.08 L 16650016.98 46299621.08 L 16696126.98 46304232.09 L 16714570.98 46308843.09 L 16729940.98 46316528.10 L 16742236.98 46334972.10 L 16746847.97 46348805.10 L 16752995.97 46391841.10 L 16754532.96 46422581.10 L 16883640.96 46421044.12 L 16883640.97 46390304.12 L 16880566.97 46351879.12 L 16866733.98 46301158.12 L 16854437.99 46275029.12 L 16837530.99 46250437.12 L 16826771.99 46239678.11 L 16814475.99 46230456.11 L 16776051.00 46213549.11 L 16733015.00 46202790.10 L 16674609.00 46193568.09 L 16625425.00 46190494.08 L 16551649.00 46192031.07 L 16494780.00 46198179.06 L 16411782.00 46218160.04 L 16391800.99 46225845.04 L 16357986.99 46244289.03 L 16344153.99 46256585.03 L 16344153.99 46258122.03 L 16341079.99 46259659.03 L 16333394.99 46270418.03 L 16311876.98 46314991.02 L 16299580.97 46351879.02 L 16285747.96 46427192.02 L 16282673.95 46459469.02 L 16279599.94 46533245.02 L 16284210.93 46623928.02 L 16294969.91 46694630.02 L 16304191.90 46740740.02 L 16319561.90 46783776.03 L 16328783.89 46800683.03 L 16339542.89 46816053.03 L 16347227.89 46823738.03 L 16368745.89 46840645.03 L 16393337.88 46854478.04 L 16408707.88 46860626.04 L 16447132.88 46874459.05 L 16494779.88 46885218.06 L 16522445.88 46888292.06 L 16586999.88 46891366.07 L 16662312.88 46886755.09  zM 16613128.90 46785313.08 L 16574703.90 46785313.07 L 16531667.90 46782239.06 L 16480946.90 46773017.05 L 16460965.90 46765332.05 L 16442521.90 46754573.05 L 16427151.91 46728444.04 L 16414855.91 46683871.04 L 16408707.93 46613169.04 L 16754447.91 46601298.20 L 16749921.92 46654668.10 L 16742236.91 46706926.10 L 16733014.91 46737666.10 L 16723792.90 46751499.10 L 16702274.90 46765332.09 L 16685367.90 46773017.09 L 16662312.90 46779165.09 L 16631572.90 46783776.08 L 16613128.90 46785313.08  z"/>
<path id="N" d="M 12918180.88 46888291.43 L 13001178.88 46874458.45 L 13021159.88 46868310.45 L 13059584.89 46852940.46 L 13076491.89 46843718.46 L 13088787.89 46831422.46 L 13099546.89 46817589.46 L 13102620.89 46816052.46 L 13130286.90 46754572.47 L 13141045.91 46716147.47 L 13150267.92 46666963.47 L 13159489.93 46574743.47 L 13159489.94 46534781.47 L 13154878.96 46444098.47 L 13144119.97 46373396.47 L 13127212.98 46305768.47 L 13108768.99 46268880.46 L 13091861.99 46248899.46 L 13058047.99 46228918.46 L 13010401.00 46210474.45 L 12968902.00 46201252.44 L 12915107.00 46193567.43 L 12852090.00 46190493.42 L 12802906.00 46192030.41 L 12741426.00 46199715.40 L 12698390.00 46208937.39 L 12656891.00 46221233.39 L 12636909.99 46230455.38 L 12621539.99 46239677.38 L 12607706.99 46251973.38 L 12596947.99 46264269.37 L 12584651.98 46290398.37 L 12570818.98 46330360.37 L 12552374.96 46416432.37 L 12546226.95 46473301.37 L 12544689.94 46550151.37 L 12550837.92 46653130.37 L 12561596.91 46719221.37 L 12580040.90 46776090.37 L 12601558.89 46805293.38 L 12606169.89 46808367.38 L 12610780.89 46814515.38 L 12627687.89 46829885.38 L 12653816.89 46846792.38 L 12669186.88 46854477.39 L 12707611.88 46869847.39 L 12756795.88 46883680.40 L 12785998.88 46886754.41 L 12852089.88 46891365.42 L 12918180.88 46888291.43  zM 12902810.90 46785312.43 L 12816738.90 46785312.41 L 12770628.90 46779164.40 L 12746036.90 46773016.40 L 12721444.90 46763794.40 L 12703000.90 46751498.39 L 12696852.90 46743813.39 L 12692241.91 46734591.39 L 12686093.91 46709999.39 L 12676871.92 46628538.39 L 12673797.94 46537855.39 L 12676871.96 46448709.39 L 12684556.97 46378007.39 L 12690704.97 46348804.39 L 12699926.98 46325749.39 L 12713759.98 46316527.40 L 12758332.98 46302694.40 L 12829034.98 46296546.42 L 12872070.98 46296546.42 L 12918180.98 46299620.43 L 12967364.98 46307305.44 L 12995030.98 46316527.44 L 13001178.98 46321138.45 L 13002715.98 46324212.45 L 13016548.97 46368785.45 L 13024233.96 46416432.45 L 13030381.94 46511726.45 L 13030381.94 46567058.45 L 13027307.92 46627001.45 L 13019622.91 46696166.45 L 13013474.91 46725369.45 L 13008863.91 46736128.45 L 12999641.90 46751498.45 L 12991956.90 46757646.44 L 12964290.90 46773016.44 L 12944309.90 46779164.44 L 12918180.90 46783775.43 L 12902810.90 46785312.43  z"/>
<path id="N" d="M 19654852.00 46196642.61 L 19528818.00 46196642.59 L 19528817.98 46285788.59 L 19522669.99 46270418.59 L 19507299.99 46244289.58 A 101763.50 101763.50 0 0 0 19459653.00 46208938.57 L 19404321.00 46196642.56 L 19381266.00 46193568.56 L 19307490.00 46190494.55 L 19239862.00 46199716.54 L 19204511.00 46208938.53 L 19153789.99 46231993.52 L 19123049.99 46255048.52 L 19110753.99 46270418.51 L 19107679.99 46271955.51 L 19096920.98 46291936.51 L 19076939.97 46347268.51 L 19058495.96 46439488.50 L 19053884.95 46502505.50 L 19053884.94 46537856.50 L 19056958.93 46613169.50 L 19070791.91 46710000.51 L 19083087.90 46757647.51 L 19101531.89 46797609.51 L 19112290.89 46814516.51 L 19124586.89 46828349.52 L 19126123.89 46828349.52 L 19127660.89 46831423.52 L 19146104.89 46843719.52 L 19178381.88 46860626.53 L 19207584.88 46871385.53 L 19244472.88 46882144.54 L 19312100.88 46891366.55 L 19355136.88 46891366.56 L 19379728.88 46888292.56 L 19428912.88 46880607.57 L 19462726.88 46869848.58 L 19493466.88 46854478.58 L 19507299.89 46843719.58 L 19516521.89 46831423.58 L 19524206.89 46817590.59 L 19528817.89 46802220.59 L 19528817.83 47172637.59 L 19654851.83 47172637.61 L 19654852.00 46196642.61  zM 19315174.90 46783776.55 L 19270601.90 46776091.54 L 19249083.90 46768406.54 L 19229102.90 46759184.53 L 19219880.90 46753036.53 L 19213732.90 46745351.53 L 19206047.91 46731518.53 L 19195288.91 46691556.53 L 19187603.92 46640835.53 L 19184529.93 46593188.53 L 19182992.94 46536319.53 L 19186066.95 46459469.53 L 19193751.97 46396452.53 L 19202973.97 46358027.53 L 19207584.97 46348805.53 L 19224491.98 46331898.53 L 19238324.98 46322676.54 L 19258305.98 46313454.54 L 19284434.98 46304232.54 L 19316711.98 46298084.55 A 311726.25 311726.25 0 0 1 19462726.98 46316528.58 L 19482707.98 46328824.58 L 19496540.97 46344194.58 L 19501151.97 46353416.58 L 19513447.97 46382619.58 L 19524206.96 46433340.59 L 19528817.95 46504042.59 L 19528817.93 46579355.59 L 19525743.92 46633150.59 L 19518058.91 46694630.58 L 19511910.91 46720759.58 L 19502688.91 46739203.58 L 19493466.90 46746888.58 L 19481170.90 46754573.58 L 19441208.90 46771480.57 L 19384339.90 46783776.56 L 19348988.90 46785313.56 L 19315174.90 46783776.55  z"/>
<path id="N" d="M 17976447.88 46886755.32 L 18045612.88 46868311.33 L 18062519.88 46860626.33 L 18097870.89 46839108.34 L 18113240.89 46826812.34 L 18142443.90 46791461.34 L 18162424.90 46756110.35 L 18177794.91 46710000.35 L 18190090.92 46642372.35 L 18194701.93 46583966.35 L 18194701.94 46550152.35 L 18191627.95 46479450.35 L 18180868.97 46387230.35 L 18170109.97 46341120.35 L 18154739.98 46298084.35 L 18145517.99 46279640.34 L 18134758.99 46262733.34 L 18116314.99 46247363.34 L 18085574.99 46227382.33 L 18056372.00 46213549.33 L 18039465.00 46207401.33 L 17997966.00 46196642.32 L 17974911.00 46193568.31 L 17904209.00 46190494.30 L 17878080.00 46193568.30 L 17827359.00 46201253.29 L 17792008.00 46212012.28 L 17775101.00 46219697.28 L 17745897.99 46238141.27 L 17733601.99 46250437.27 L 17724379.99 46264270.27 L 17719768.99 46279640.27 L 17719769.05 45909223.27 L 17593735.05 45909223.25 L 17593734.88 46885218.25 L 17719768.88 46885218.27 L 17719768.90 46794535.27 L 17732064.89 46816053.27 L 17756656.89 46842182.28 L 17782785.88 46860626.28 L 17799692.88 46868311.28 L 17841191.88 46882144.29 L 17893449.88 46889829.30 L 17939559.88 46891366.31 L 17976447.88 46886755.32  zM 17918041.90 46785313.30 L 17881153.90 46785313.30 L 17819673.90 46777628.29 L 17796618.90 46771480.28 L 17775100.90 46762258.28 L 17758193.90 46751499.28 L 17745897.91 46736129.27 L 17732064.91 46703852.27 L 17725916.92 46679260.27 L 17719768.92 46630076.27 L 17719768.95 46505579.27 L 17724379.96 46445636.27 L 17735138.97 46387230.27 L 17744360.97 46361101.27 L 17756656.97 46341120.28 L 17773563.98 46327287.28 L 17807377.98 46310380.29 L 17861172.98 46298084.30 L 17914967.98 46296547.30 L 17979521.98 46307306.32 L 18001039.98 46314991.32 L 18021020.98 46325750.32 L 18028705.98 46331898.32 L 18034853.98 46339583.33 L 18042538.97 46354953.33 L 18053297.97 46396452.33 L 18060982.96 46445636.33 L 18065593.94 46516338.33 L 18065593.93 46580892.33 L 18056371.91 46690019.33 L 18050223.91 46717685.33 L 18042538.91 46737666.33 L 18025631.90 46753036.32 L 18010261.90 46762258.32 L 17991817.90 46769943.32 L 17965688.90 46777628.31 L 17934948.90 46783776.31 L 17918041.90 46785313.30  z"/>
<path id="N" d="M 13453730.83 45579069.49 L 13505988.83 45565236.50 L 13535191.83 45552940.51 L 13565931.84 45537570.51 L 13595134.84 45517589.52 L 13624337.85 45491460.52 L 13652003.85 45460720.53 L 13676595.86 45423832.53 L 13698113.87 45379259.53 L 13713483.87 45328538.54 L 13724242.88 45268595.54 L 13727316.90 45200967.54 L 13727316.93 44981176.54 L 13725779.94 44947362.54 L 13718094.95 44895104.54 L 13701187.96 44830550.53 L 13687354.97 44795199.53 L 13670447.97 44759848.53 L 13648929.98 44727571.53 L 13622800.98 44695294.52 L 13592060.99 44667628.52 L 13555172.99 44643036.51 L 13512137.00 44624592.50 L 13462953.00 44613833.49 L 13406084.00 44609222.48 L 12909633.00 44609222.40 L 12909632.83 45585217.40 L 13416842.83 45585217.48 L 13453730.83 45579069.49  zM 13404546.85 45465331.48 L 13043351.85 45465331.42 L 13043351.98 44729108.42 L 13407620.98 44729108.48 L 13449119.98 44733719.49 L 13499840.98 44744478.50 L 13522895.98 44752163.50 L 13541339.97 44764459.51 L 13562857.97 44807495.51 L 13581301.95 44870512.51 L 13588986.95 44912011.51 L 13593597.94 44961195.52 L 13593597.89 45259373.52 L 13587449.88 45305483.51 L 13581301.87 45331612.51 L 13572079.87 45357741.51 L 13558246.86 45386944.51 L 13541339.86 45414610.51 L 13507525.85 45440739.50 L 13487544.85 45449961.50 L 13464489.85 45457646.49 L 13436823.85 45463794.49 L 13404546.85 45465331.48  z"/>
<path id="N" d="M 30580326.00 40724635.00 L 30680294.00 40624667.00 L 30696145.00 40586398.00 L 30696146.00 40486431.00 L 30680294.00 40448162.00 L 30618595.00 40386463.00 L 30680294.00 40324764.00 L 30696145.00 40286495.00 L 30696146.00 40186528.00 L 30680294.00 40148259.00 L 30580326.00 40048291.00 L 30542057.00 40032440.00 L 30342122.00 40032439.00 L 30303853.00 40048291.00 L 30203885.00 40148259.00 A 54121.84 54121.84 0 0 0 30280423.00 40224797.00 L 30364540.00 40140680.00 L 30519639.00 40140680.00 L 30587905.00 40208946.00 L 30587905.00 40264077.00 L 30519639.00 40332343.00 L 30442089.00 40332343.00 A 54118.70 54118.70 0 0 0 30442089.00 40440583.00 L 30519639.00 40440583.00 L 30587905.00 40508849.00 L 30587905.00 40563980.00 L 30519639.00 40632246.00 L 30364540.00 40632246.00 L 30280423.00 40548129.00 A 54119.43 54119.43 0 1 0 30203885.00 40624667.00 L 30303853.00 40724635.00 L 30342122.00 40740486.00 L 30542057.00 40740487.00 L 30580326.00 40724635.00  z"/>
<path id="N" d="M 13238053.00 42340360.00 L 13238053.00 41750000.00 L 13235920.66 41744851.90 L 13237002.00 41739386.00 L 13228233.87 41726293.72 L 13222202.00 41711731.00 L 13217052.51 41709598.08 L 13213953.00 41704970.00 L 13198496.05 41701912.01 L 13183933.00 41695880.00 L 13178784.85 41698012.36 L 13173319.00 41696931.00 L 13160225.73 41705699.54 L 13145664.00 41711731.00 L 13143531.42 41716879.69 L 13138902.00 41719980.00 L 12844480.00 42161613.37 L 12844480.00 41750000.00 A 54118.70 54118.70 0 0 0 12736240.00 41750000.00 L 12736240.00 42340360.00 L 12738371.68 42345506.51 L 12737290.00 42350974.00 L 12746060.54 42364069.70 L 12752091.00 42378629.00 L 12757239.50 42380761.51 L 12760340.00 42385391.00 L 12775801.57 42388449.90 L 12790360.00 42394480.00 L 12795506.51 42392348.32 L 12800974.00 42393430.00 L 12814069.70 42384659.46 L 12828629.00 42378629.00 L 12830761.51 42373480.50 L 12835391.00 42370380.00 L 13129813.00 41928746.25 L 13129813.00 42340360.00 A 54118.70 54118.70 0 0 0 13238053.00 42340360.00  z"/>
<path id="N" d="M 23538140.00 40138172.00 L 23638108.00 40038204.00 L 23653959.00 39999935.00 L 23653960.00 39899968.00 L 23638108.00 39861699.00 L 23576409.00 39800000.00 L 23638108.00 39738301.00 L 23653959.00 39700032.00 L 23653960.00 39600065.00 L 23638108.00 39561796.00 L 23538140.00 39461828.00 L 23499871.00 39445977.00 L 23299936.00 39445976.00 L 23261667.00 39461828.00 L 23161699.00 39561796.00 A 54121.84 54121.84 0 1 0 23238237.00 39638334.00 L 23322354.00 39554217.00 L 23477453.00 39554217.00 L 23545719.00 39622483.00 L 23545719.00 39677614.00 L 23477453.00 39745880.00 L 23399903.00 39745880.00 A 54118.70 54118.70 0 1 0 23399903.00 39854120.00 L 23477453.00 39854120.00 L 23545719.00 39922386.00 L 23545719.00 39977517.00 L 23477453.00 40045783.00 L 23322354.00 40045783.00 L 23238237.00 39961666.00 A 54119.43 54119.43 0 1 0 23161699.00 40038204.00 L 23261667.00 40138172.00 L 23299936.00 40154023.00 L 23499871.00 40154024.00 L 23538140.00 40138172.00  z"/>
<path id="N" d="M 22500229.41 34154023.00 L 22700162.00 34154023.00 L 22738431.00 34138172.00 L 22838399.00 34038204.00 A 54119.43 54119.43 0 1 0 22761861.00 33961666.00 L 22677744.00 34045783.00 L 22522645.00 34045783.00 L 22454379.00 33977517.00 L 22454379.00 33922386.00 L 22522645.00 33854120.00 L 22700162.00 33854121.00 L 22738431.00 33838269.00 L 22838399.00 33738301.00 L 22854250.00 33700032.00 L 22854251.00 33600065.00 L 22838399.00 33561796.00 L 22738431.00 33461828.00 L 22700162.00 33445977.00 L 22500227.00 33445976.00 L 22461958.00 33461828.00 L 22361990.00 33561796.00 A 54121.84 54121.84 0 1 0 22438528.00 33638334.00 L 22522645.00 33554217.00 L 22677744.00 33554217.00 L 22746010.00 33622483.00 L 22746010.00 33677614.00 L 22677744.00 33745880.00 L 22500227.00 33745880.00 L 22461958.00 33761731.00 L 22361990.00 33861699.00 L 22346139.00 33899970.41 L 22346139.00 33999935.00 L 22361990.00 34038204.00 L 22461958.00 34138172.00 L 22500229.41 34154023.00  z"/>
<path id="N" d="M 29142512.41 40740486.00 L 29342445.00 40740486.00 L 29380714.00 40724635.00 L 29480682.00 40624667.00 A 54119.43 54119.43 0 1 0 29404144.00 40548129.00 L 29320027.00 40632246.00 L 29164928.00 40632246.00 L 29096662.00 40563980.00 L 29096662.00 40508849.00 L 29164928.00 40440583.00 L 29342445.00 40440584.00 L 29380714.00 40424732.00 L 29480682.00 40324764.00 L 29496533.00 40286495.00 L 29496534.00 40186528.00 L 29480682.00 40148259.00 L 29380714.00 40048291.00 L 29342445.00 40032440.00 L 29142510.00 40032439.00 L 29104241.00 40048291.00 L 29004273.00 40148259.00 A 54121.84 54121.84 0 0 0 29080811.00 40224797.00 L 29164928.00 40140680.00 L 29320027.00 40140680.00 L 29388293.00 40208946.00 L 29388293.00 40264077.00 L 29320027.00 40332343.00 L 29142510.00 40332343.00 L 29104241.00 40348194.00 L 29004273.00 40448162.00 L 28988422.00 40486433.41 L 28988422.00 40586398.00 L 29004273.00 40624667.00 L 29104241.00 40724635.00 L 29142512.41 40740486.00  z"/>
<path id="N" d="M 15850229.41 40904086.00 L 16050162.00 40904086.00 L 16088431.00 40888235.00 L 16188399.00 40788267.00 A 54119.43 54119.43 0 0 0 16111861.00 40711729.00 L 16027744.00 40795846.00 L 15872645.00 40795846.00 L 15804379.00 40727580.00 L 15804379.00 40672449.00 L 15872645.00 40604183.00 L 16050162.00 40604184.00 L 16088431.00 40588332.00 L 16188399.00 40488364.00 L 16204250.00 40450095.00 L 16204251.00 40350128.00 L 16188399.00 40311859.00 L 16088431.00 40211891.00 L 16050162.00 40196040.00 L 15850227.00 40196039.00 L 15811958.00 40211891.00 L 15711990.00 40311859.00 A 54121.84 54121.84 0 0 0 15788528.00 40388397.00 L 15872645.00 40304280.00 L 16027744.00 40304280.00 L 16096010.00 40372546.00 L 16096010.00 40427677.00 L 16027744.00 40495943.00 L 15850227.00 40495943.00 L 15811958.00 40511794.00 L 15711990.00 40611762.00 L 15696139.00 40650033.41 L 15696139.00 40749998.00 L 15711990.00 40788267.00 L 15811958.00 40888235.00 L 15850229.41 40904086.00  z"/>
<path id="N" d="M 22628214.41 47395984.00 L 22828147.00 47395984.00 L 22866416.00 47380133.00 L 22966384.00 47280165.00 A 54119.43 54119.43 0 1 0 22889846.00 47203627.00 L 22805729.00 47287744.00 L 22650630.00 47287744.00 L 22582364.00 47219478.00 L 22582364.00 47164347.00 L 22650630.00 47096081.00 L 22828147.00 47096082.00 L 22866416.00 47080230.00 L 22966384.00 46980262.00 L 22982235.00 46941993.00 L 22982236.00 46842026.00 L 22966384.00 46803757.00 L 22866416.00 46703789.00 L 22828147.00 46687938.00 L 22628212.00 46687937.00 L 22589943.00 46703789.00 L 22489975.00 46803757.00 A 54121.84 54121.84 0 1 0 22566513.00 46880295.00 L 22650630.00 46796178.00 L 22805729.00 46796178.00 L 22873995.00 46864444.00 L 22873995.00 46919575.00 L 22805729.00 46987841.00 L 22628212.00 46987841.00 L 22589943.00 47003692.00 L 22489975.00 47103660.00 L 22474124.00 47141931.41 L 22474124.00 47241896.00 L 22489975.00 47280165.00 L 22589943.00 47380133.00 L 22628214.41 47395984.00  z"/>
<path id="N" d="M 12337194.88 46880606.33 L 12372545.88 46866773.34 L 12409433.89 46843718.34 L 12440173.89 46808367.35 L 12452469.90 46785312.35 L 12463228.90 46759183.35 L 12469376.91 46729980.35 L 12470913.92 46631612.35 L 12349490.92 46631612.33 L 12349490.91 46696166.33 L 12343342.91 46731517.33 L 12332583.90 46759183.33 L 12324898.90 46771479.33 L 12309528.90 46779164.32 L 12286473.90 46783775.32 L 12271103.90 46785312.32 L 12238826.90 46785312.31 L 12208086.90 46780701.31 L 12171198.90 46769942.30 L 12154291.90 46760720.30 L 12138921.90 46748424.29 L 12128162.91 46733054.29 L 12122014.91 46719221.29 L 12109718.92 46679259.29 L 12105107.93 46619316.29 L 12105108.00 46196641.29 L 11979074.00 46196641.27 L 11979073.88 46885217.27 L 12105107.88 46885217.29 L 12105107.89 46819126.29 L 12108181.89 46828348.29 L 12120477.89 46848329.29 L 12132773.88 46859088.29 L 12148143.88 46868310.30 L 12181957.88 46880606.30 L 12221919.88 46888291.31 L 12274177.88 46891365.32 L 12304917.88 46888291.32 L 12337194.88 46880606.33  z"/>
<path id="N" d="M 11763893.88 46880606.23 L 11799244.88 46866773.24 L 11836132.89 46843718.24 L 11866872.89 46808367.25 L 11879168.90 46785312.25 L 11889927.90 46759183.25 L 11896075.91 46729980.25 L 11897612.92 46631612.25 L 11776189.92 46631612.23 L 11776189.91 46696166.23 L 11770041.91 46731517.23 L 11759282.90 46759183.23 L 11751597.90 46771479.23 L 11736227.90 46779164.22 L 11713172.90 46783775.22 L 11697802.90 46785312.22 L 11665525.90 46785312.21 L 11634785.90 46780701.21 L 11597897.90 46769942.20 L 11580990.90 46760720.20 L 11565620.90 46748424.19 L 11554861.91 46733054.19 L 11548713.91 46719221.19 L 11536417.92 46679259.19 L 11531806.93 46619316.19 L 11531807.00 46196641.19 L 11405773.00 46196641.17 L 11405772.88 46885217.17 L 11531806.88 46885217.19 L 11531806.89 46819126.19 L 11534880.89 46828348.19 L 11547176.89 46848329.19 L 11559472.88 46859088.19 L 11574842.88 46868310.20 L 11608656.88 46880606.20 L 11648618.88 46888291.21 L 11700876.88 46891365.22 L 11731616.88 46888291.22 L 11763893.88 46880606.23  z"/>
<path id="N" d="M 12533449.71 42378627.29 L 12631842.00 42280236.00 A 54119.43 54119.43 0 1 0 12555304.00 42203698.00 L 12472762.84 42286240.00 L 12320810.84 42286240.00 L 12254120.00 42219549.84 L 12254120.00 41870810.84 L 12320810.16 41804120.00 L 12472762.16 41804120.00 L 12539453.00 41870810.16 L 12539453.00 41991060.00 L 12396787.00 41991060.00 A 54118.70 54118.70 0 0 0 12396787.00 42099300.00 L 12593573.00 42099300.00 L 12631842.00 42083449.00 L 12647693.00 42045180.00 L 12647694.00 41848393.00 L 12631840.29 41810123.29 L 12533449.00 41711731.00 L 12495177.59 41695880.00 L 12298393.00 41695879.00 L 12260123.29 41711732.71 L 12161731.00 41810124.00 L 12145880.00 41848395.41 L 12145879.00 42241967.00 L 12161732.71 42280236.71 L 12260124.00 42378629.00 L 12298395.41 42394480.00 L 12495180.00 42394481.00 L 12533449.71 42378627.29  z"/>
<path id="N" d="M 33054120.00 50000000.00 L 33054121.00 30900000.00 L 33038267.29 30861730.29 L 32988269.00 30811731.00 L 32949997.59 30795880.00 L 10000000.00 30795880.00 L 9961731.00 30811731.00 L 9945880.00 30850000.00 L 9945880.00 50000000.00 L 9961731.00 50038269.00 L 10000000.00 50054120.00 L 33000000.00 50054120.00 L 33038269.00 50038269.00 L 33054120.00 50000000.00  zM 32945880.00 49945880.00 L 10054120.00 49945880.00 L 10054120.00 30904120.00 L 32927582.32 30904120.00 L 32945880.00 30922417.32 L 32945880.00 41434522.92 L 32941227.00 41411130.00 A 80279.37 80279.37 0 1 0 32941227.00 41472576.00 L 32945880.00 41449183.08 L 32945880.00 49945880.00  z"/>
<path id="N" d="M 24004120.00 40300000.00 L 24004120.00 39854120.00 L 24350000.00 39854120.00 A 54118.70 54118.70 0 0 0 24350000.00 39745880.00 L 24004120.00 39745880.00 L 24004120.00 39300000.00 L 23988269.00 39261731.00 L 23950000.00 39245880.00 L 22100000.00 39245880.00 L 22061731.00 39261731.00 L 22045880.00 39300000.00 L 22045880.00 39745880.00 L 21900000.00 39745880.00 A 54118.70 54118.70 0 1 0 21900000.00 39854120.00 L 22045880.00 39854120.00 L 22045880.00 40300000.00 L 22061731.00 40338269.00 L 22100000.00 40354120.00 L 23950000.00 40354120.00 L 23988269.00 40338269.00 L 24004120.00 40300000.00  zM 23895880.00 40245880.00 L 22154120.00 40245880.00 L 22154120.00 39354120.00 L 23895880.00 39354120.00 L 23895880.00 40245880.00  z"/>
<path id="N" d="M 24254120.00 41750000.00 L 24254120.00 41304120.00 L 24400000.00 41304120.00 A 54118.70 54118.70 0 0 0 24400000.00 41195880.00 L 24254120.00 41195880.00 L 24254120.00 40750000.00 L 24238269.00 40711731.00 L 24200000.00 40695880.00 L 22350000.00 40695880.00 L 22311731.00 40711731.00 L 22295880.00 40750000.00 L 22295880.00 41195880.00 L 21950000.00 41195880.00 A 54118.70 54118.70 0 0 0 21950000.00 41304120.00 L 22295880.00 41304120.00 L 22295880.00 41750000.00 L 22311731.00 41788269.00 L 22350000.00 41804120.00 L 24200000.00 41804120.00 L 24238269.00 41788269.00 L 24254120.00 41750000.00  zM 24145880.00 41695880.00 L 22404120.00 41695880.00 L 22404120.00 40804120.00 L 24145880.00 40804120.00 L 24145880.00 41695880.00  z"/>
<path id="N" d="M 24004120.00 43100000.00 L 24004120.00 42654120.00 L 24350000.00 42654120.00 A 54118.70 54118.70 0 0 0 24350000.00 42545880.00 L 24004120.00 42545880.00 L 24004120.00 42100000.00 L 23988269.00 42061731.00 L 23950000.00 42045880.00 L 22100000.00 42045880.00 L 22061731.00 42061731.00 L 22045880.00 42100000.00 L 22045880.00 42545880.00 L 21900000.00 42545880.00 A 54118.70 54118.70 0 0 0 21900000.00 42654120.00 L 22045880.00 42654120.00 L 22045880.00 43100000.00 L 22061731.00 43138269.00 L 22100000.00 43154120.00 L 23950000.00 43154120.00 L 23988269.00 43138269.00 L 24004120.00 43100000.00  zM 23895880.00 43045880.00 L 22154120.00 43045880.00 L 22154120.00 42154120.00 L 23895880.00 42154120.00 L 23895880.00 43045880.00  z"/>
<path id="N" d="M 24254120.00 38950000.00 L 24254120.00 38504120.00 L 24400000.00 38504120.00 A 54118.70 54118.70 0 0 0 24400000.00 38395880.00 L 24254120.00 38395880.00 L 24254120.00 37950000.00 L 24238269.00 37911731.00 L 24200000.00 37895880.00 L 22350000.00 37895880.00 L 22311731.00 37911731.00 L 22295880.00 37950000.00 L 22295880.00 38395880.00 L 21950000.00 38395880.00 A 54118.70 54118.70 0 1 0 21950000.00 38504120.00 L 22295880.00 38504120.00 L 22295880.00 38950000.00 L 22311731.00 38988269.00 L 22350000.00 39004120.00 L 24200000.00 39004120.00 L 24238269.00 38988269.00 L 24254120.00 38950000.00  zM 24145880.00 38895880.00 L 22404120.00 38895880.00 L 22404120.00 38004120.00 L 24145880.00 38004120.00 L 24145880.00 38895880.00  z"/>
<path id="N" d="M 12533449.00 38378629.00 L 12631842.00 38280236.00 L 12647693.00 38241964.59 L 12647694.00 38045180.00 L 12631842.00 38006911.00 L 12533449.00 37908518.00 L 12517994.84 37902116.74 L 12631842.00 37788269.00 A 54120.63 54120.63 0 1 0 12555304.00 37711732.00 L 12374369.00 37892667.00 L 12254120.00 37892667.00 L 12254120.00 37750000.00 A 54118.70 54118.70 0 0 0 12145880.00 37750000.00 L 12145880.00 38340360.00 L 12161731.00 38378629.00 L 12200000.00 38394480.00 L 12495180.00 38394481.00 L 12533449.00 38378629.00  zM 12472762.16 38286240.00 L 12254120.00 38286240.00 L 12254120.00 38000907.00 L 12472762.84 38000907.00 L 12539453.00 38067597.84 L 12539453.00 38219549.84 L 12472762.16 38286240.00  z"/>
<path id="N" d="M 30017520.00 37809753.00 L 30115913.00 37711360.00 L 30131764.00 37673088.59 L 30131765.00 37476304.00 L 30115913.00 37438035.00 L 30017520.00 37339642.00 L 30002065.84 37333240.74 L 30115913.00 37219393.00 A 54120.63 54120.63 0 1 0 30039375.00 37142856.00 L 29858440.00 37323791.00 L 29738191.00 37323791.00 L 29738191.00 37181124.00 A 54118.70 54118.70 0 0 0 29629951.00 37181124.00 L 29629951.00 37771484.00 L 29645802.00 37809753.00 L 29684071.00 37825604.00 L 29979251.00 37825605.00 L 30017520.00 37809753.00  zM 29956833.16 37717364.00 L 29738191.00 37717364.00 L 29738191.00 37432031.00 L 29956833.84 37432031.00 L 30023524.00 37498721.84 L 30023524.00 37650673.84 L 29956833.16 37717364.00  z"/>
<path id="N" d="M 23138334.00 41588172.00 L 23238302.00 41488204.00 L 23254153.00 41449935.00 L 23254154.00 41250000.00 L 23238302.00 41211731.00 L 23138334.00 41111763.00 L 23121766.32 41104900.68 L 23238301.00 40988366.00 A 54118.22 54118.22 0 0 0 23161764.00 40911829.00 L 22977679.16 41095912.00 L 22854282.00 41095912.00 L 22854282.00 40950097.00 A 54118.70 54118.70 0 0 0 22746042.00 40950097.00 L 22746042.00 41549903.00 L 22761893.00 41588172.00 L 22800162.00 41604023.00 L 23100065.00 41604024.00 L 23138334.00 41588172.00  zM 23077647.00 41495783.00 L 22854282.00 41495783.00 L 22854282.00 41204152.00 L 23077647.00 41204152.00 L 23145913.00 41272418.00 L 23145913.00 41427517.00 L 23077647.00 41495783.00  z"/>
<path id="N" d="M 22938302.00 42938172.00 L 23038270.00 42838204.00 L 23054121.00 42799935.00 L 23054122.00 42600000.00 L 23038270.00 42561731.00 L 22938302.00 42461763.00 L 22921734.32 42454900.68 L 23038269.00 42338366.00 A 54118.22 54118.22 0 1 0 22961732.00 42261829.00 L 22777647.16 42445912.00 L 22654250.00 42445912.00 L 22654250.00 42300097.00 A 54118.70 54118.70 0 1 0 22546010.00 42300097.00 L 22546010.00 42899903.00 L 22561861.00 42938172.00 L 22600130.00 42954023.00 L 22900033.00 42954024.00 L 22938302.00 42938172.00  zM 22877615.00 42845783.00 L 22654250.00 42845783.00 L 22654250.00 42554152.00 L 22877615.00 42554152.00 L 22945881.00 42622418.00 L 22945881.00 42777517.00 L 22877615.00 42845783.00  z"/>
<path id="N" d="M 22938334.00 40138172.00 L 23038302.00 40038204.00 L 23054153.00 39999935.00 L 23054154.00 39800000.00 L 23038302.00 39761731.00 L 22938334.00 39661763.00 L 22921766.32 39654900.68 L 23038301.00 39538366.00 A 54118.22 54118.22 0 0 0 22961764.00 39461829.00 L 22777679.16 39645912.00 L 22654282.00 39645912.00 L 22654282.00 39500097.00 A 54118.70 54118.70 0 0 0 22546042.00 39500097.00 L 22546042.00 40099903.00 L 22561893.00 40138172.00 L 22600162.00 40154023.00 L 22900065.00 40154024.00 L 22938334.00 40138172.00  zM 22877647.00 40045783.00 L 22654282.00 40045783.00 L 22654282.00 39754152.00 L 22877647.00 39754152.00 L 22945913.00 39822418.00 L 22945913.00 39977517.00 L 22877647.00 40045783.00  z"/>
<path id="N" d="M 23138302.00 38788172.00 L 23238270.00 38688204.00 L 23254121.00 38649935.00 L 23254122.00 38450000.00 L 23238270.00 38411731.00 L 23138302.00 38311763.00 L 23121734.32 38304900.68 L 23238269.00 38188366.00 A 54118.22 54118.22 0 0 0 23161732.00 38111829.00 L 22977647.16 38295912.00 L 22854250.00 38295912.00 L 22854250.00 38150097.00 A 54118.70 54118.70 0 0 0 22746010.00 38150097.00 L 22746010.00 38749903.00 L 22761861.00 38788172.00 L 22800130.00 38804023.00 L 23100033.00 38804024.00 L 23138302.00 38788172.00  zM 23077615.00 38695783.00 L 22854250.00 38695783.00 L 22854250.00 38404152.00 L 23077615.00 38404152.00 L 23145881.00 38472418.00 L 23145881.00 38627517.00 L 23077615.00 38695783.00  z"/>
<path id="N" d="M 13123809.71 43278627.29 L 13222202.00 43180236.00 A 54119.43 54119.43 0 1 0 13145664.00 43103698.00 L 13063122.84 43186240.00 L 12911170.84 43186240.00 L 12844480.00 43119549.84 L 12844480.00 42770810.84 L 12911170.16 42704120.00 L 13063122.16 42704120.00 L 13145665.00 42786662.00 A 54118.22 54118.22 0 1 0 13222202.00 42710125.00 L 13123809.00 42611731.00 L 13085537.59 42595880.00 L 12888753.00 42595879.00 L 12850483.29 42611732.71 L 12752091.00 42710124.00 L 12736240.00 42748395.41 L 12736239.00 43141967.00 L 12752092.71 43180236.71 L 12850484.00 43278629.00 L 12888755.41 43294480.00 L 13085540.00 43294481.00 L 13123809.71 43278627.29  z"/>
<path id="N" d="M 13714169.71 43278627.29 L 13812562.00 43180236.00 A 54119.43 54119.43 0 1 0 13736024.00 43103698.00 L 13653482.84 43186240.00 L 13501530.84 43186240.00 L 13434840.00 43119549.84 L 13434840.00 42770810.84 L 13501530.16 42704120.00 L 13653482.16 42704120.00 L 13736025.00 42786662.00 A 54118.22 54118.22 0 1 0 13812562.00 42710125.00 L 13714169.00 42611731.00 L 13675897.59 42595880.00 L 13479113.00 42595879.00 L 13440843.29 42611732.71 L 13342451.00 42710124.00 L 13326600.00 42748395.41 L 13326599.00 43141967.00 L 13342452.71 43180236.71 L 13440844.00 43278629.00 L 13479115.41 43294480.00 L 13675900.00 43294481.00 L 13714169.71 43278627.29  z"/>
<path id="N" d="M 17318612.02 46087515.20 L 17303242.03 46046016.20 L 17278650.04 45995295.19 L 17244836.04 45950722.19 L 17235614.04 45943037.19 L 17223318.05 45935352.18 L 17186430.05 45915371.18 L 17161838.05 45907686.17 L 17134172.05 45901538.17 L 17101895.05 45900001.16 L 17080377.05 45901538.16 L 17043489.05 45909223.15 L 17043489.03 46010665.15 L 17084988.03 46006054.16 L 17103432.03 46007591.16 L 17115728.03 46012202.16 L 17132635.03 46021424.17 L 17149542.03 46036794.17 L 17158764.03 46047553.17 L 17175671.02 46075219.18 L 17191041.02 46110570.18 L 17215633.00 46196642.18 L 17183356.00 46196642.18 L 16940509.88 46885218.13 L 17065006.88 46885218.16 L 17259650.59 46309811.89 L 17403146.88 46885218.21 L 17530717.88 46885218.24 L 17318612.02 46087515.20  z"/>
<path id="N" d="M 17049841.41 40904086.00 L 17249774.00 40904086.00 L 17288043.00 40888235.00 L 17388011.00 40788267.00 L 17403862.00 40749995.59 L 17403863.00 40650031.00 L 17388011.00 40611762.00 L 17080529.00 40304280.00 L 17349742.00 40304280.00 A 54118.70 54118.70 0 0 0 17349742.00 40196040.00 L 16949871.00 40196039.00 A 54122.11 54122.11 0 0 0 16911602.00 40288429.00 L 17295622.00 40672449.00 L 17295622.00 40727580.00 L 17227356.00 40795846.00 L 17072257.00 40795846.00 L 16988140.00 40711729.00 A 54121.84 54121.84 0 0 0 16911602.00 40788267.00 L 17011570.00 40888235.00 L 17049841.41 40904086.00  z"/>
<path id="N" d="M 23499938.41 41604023.00 L 23699871.00 41604023.00 L 23738140.00 41588172.00 L 23838108.00 41488204.00 L 23853959.00 41449932.59 L 23853960.00 41349968.00 L 23838108.00 41311699.00 L 23530626.00 41004217.00 L 23799839.00 41004217.00 A 54118.70 54118.70 0 1 0 23799839.00 40895977.00 L 23399968.00 40895976.00 A 54122.11 54122.11 0 0 0 23361699.00 40988366.00 L 23745719.00 41372386.00 L 23745719.00 41427517.00 L 23677453.00 41495783.00 L 23522354.00 41495783.00 L 23438237.00 41411666.00 A 54121.84 54121.84 0 1 0 23361699.00 41488204.00 L 23461667.00 41588172.00 L 23499938.41 41604023.00  z"/>
<path id="N" d="M 23753959.00 38749900.59 L 23753959.00 38504120.00 L 23799807.00 38504120.00 A 54118.70 54118.70 0 1 0 23799807.00 38395880.00 L 23753959.00 38395880.00 L 23753959.00 38150097.00 A 54118.70 54118.70 0 0 0 23645719.00 38150097.00 L 23645719.00 38395880.00 L 23399936.00 38395879.00 A 54122.11 54122.11 0 0 0 23361667.00 38488269.00 L 23661570.00 38788172.00 A 54119.43 54119.43 0 0 0 23753959.00 38749900.59  zM 23645719.00 38619245.00 L 23530594.00 38504120.00 L 23645719.00 38504120.00 L 23645719.00 38619245.00  z"/>
<path id="N" d="M 23953894.00 34099900.59 L 23953894.00 33854120.00 L 23999742.00 33854120.00 A 54118.70 54118.70 0 1 0 23999742.00 33745880.00 L 23953894.00 33745880.00 L 23953894.00 33500097.00 A 54118.70 54118.70 0 1 0 23845654.00 33500097.00 L 23845654.00 33745880.00 L 23599871.00 33745879.00 A 54122.11 54122.11 0 0 0 23561602.00 33838269.00 L 23861505.00 34138172.00 A 54119.43 54119.43 0 0 0 23953894.00 34099900.59  zM 23845654.00 33969245.00 L 23730529.00 33854120.00 L 23845654.00 33854120.00 L 23845654.00 33969245.00  z"/>
<path id="N" d="M 16804056.00 40849966.00 L 16804056.00 40250160.00 A 54118.70 54118.70 0 0 0 16711666.29 40211892.71 L 16549999.79 40373557.60 L 16388334.00 40211891.00 A 54119.43 54119.43 0 0 0 16295945.00 40250162.41 L 16295945.00 40849966.00 A 54118.70 54118.70 0 0 0 16404185.00 40849966.00 L 16404185.00 40380817.54 L 16511731.00 40488364.00 L 16550000.00 40504216.00 L 16588269.00 40488364.00 L 16695816.00 40380817.00 L 16695816.00 40849966.00 A 54118.70 54118.70 0 0 0 16804056.00 40849966.00  z"/>
<path id="N" d="M 23454056.00 34099903.00 L 23454056.00 33500097.00 A 54118.70 54118.70 0 0 0 23361666.29 33461829.71 L 23199999.79 33623494.60 L 23038334.00 33461828.00 A 54119.43 54119.43 0 0 0 22945945.00 33500099.41 L 22945945.00 34099903.00 A 54118.70 54118.70 0 0 0 23054185.00 34099903.00 L 23054185.00 33630754.54 L 23161731.00 33738301.00 L 23200000.00 33754153.00 L 23238269.00 33738301.00 L 23345816.00 33630754.00 L 23345816.00 34099903.00 A 54118.70 54118.70 0 0 0 23454056.00 34099903.00  z"/>
<path id="N" d="M 23582041.00 47341864.00 L 23582041.00 46742058.00 A 54118.70 54118.70 0 0 0 23489651.29 46703790.71 L 23327984.79 46865455.60 L 23166319.00 46703789.00 A 54119.43 54119.43 0 0 0 23073930.00 46742060.41 L 23073930.00 47341864.00 A 54118.70 54118.70 0 0 0 23182170.00 47341864.00 L 23182170.00 46872715.54 L 23289716.00 46980262.00 L 23327985.00 46996114.00 L 23366254.00 46980262.00 L 23473801.00 46872715.00 L 23473801.00 47341864.00 A 54118.70 54118.70 0 1 0 23582041.00 47341864.00  z"/>
<path id="N" d="M 30096339.00 40686366.00 L 30096339.00 40086560.00 A 54118.70 54118.70 0 0 0 30003949.29 40048292.71 L 29842282.79 40209957.60 L 29680617.00 40048291.00 A 54119.43 54119.43 0 0 0 29588228.00 40086562.41 L 29588228.00 40686366.00 A 54118.70 54118.70 0 0 0 29696468.00 40686366.00 L 29696468.00 40217217.54 L 29804014.00 40324764.00 L 29842283.00 40340616.00 L 29880552.00 40324764.00 L 29988099.00 40217217.00 L 29988099.00 40686366.00 A 54118.70 54118.70 0 0 0 30096339.00 40686366.00  z"/>
<path id="N" d="M 23354024.00 42899900.59 L 23354024.00 42354217.00 L 23399871.00 42354217.00 A 54118.70 54118.70 0 0 0 23399871.00 42245977.00 L 23199936.00 42245977.00 A 54118.70 54118.70 0 0 0 23199936.00 42354217.00 L 23245784.00 42354217.00 L 23245784.00 42769245.00 L 23238205.00 42761666.00 A 54121.84 54121.84 0 1 0 23161667.00 42838204.00 L 23261635.00 42938172.00 A 54119.43 54119.43 0 0 0 23354024.00 42899900.59  z"/>
<path id="N" d="M 23881944.00 47341861.59 L 23881944.00 46796178.00 L 23927791.00 46796178.00 A 54118.70 54118.70 0 0 0 23927791.00 46687938.00 L 23727856.00 46687938.00 A 54118.70 54118.70 0 0 0 23727856.00 46796178.00 L 23773704.00 46796178.00 L 23773704.00 47211206.00 L 23766125.00 47203627.00 A 54121.84 54121.84 0 1 0 23689587.00 47280165.00 L 23789555.00 47380133.00 A 54119.43 54119.43 0 0 0 23881944.00 47341861.59  z"/>
<path id="N" d="M 23477005.00 44545400.00 L 23477006.00 44053433.00 L 23461152.29 44015163.29 L 23362761.00 43916771.00 L 23324489.59 43900920.00 L 23127705.00 43900919.00 L 23089435.29 43916772.71 L 22991043.00 44015164.00 L 22975192.00 44053435.41 L 22975192.00 44545400.00 A 54118.70 54118.70 0 0 0 23083432.00 44545400.00 L 23083432.00 44075850.84 L 23150122.16 44009160.00 L 23302074.16 44009160.00 L 23368765.00 44075850.16 L 23368765.00 44545400.00 A 54118.70 54118.70 0 0 0 23477005.00 44545400.00  z"/>
<path id="N" d="M 12647693.00 41340360.00 L 12647694.00 40848393.00 L 12631840.29 40810123.29 L 12533449.00 40711731.00 L 12495177.59 40695880.00 L 12298393.00 40695879.00 L 12260123.29 40711732.71 L 12161731.00 40810124.00 L 12145880.00 40848395.41 L 12145880.00 41340360.00 A 54118.70 54118.70 0 0 0 12254120.00 41340360.00 L 12254120.00 40870810.84 L 12320810.16 40804120.00 L 12472762.16 40804120.00 L 12539453.00 40870810.16 L 12539453.00 41340360.00 A 54118.70 54118.70 0 0 0 12647693.00 41340360.00  z"/>
<path id="N" d="M 23133449.71 37078627.29 L 23231842.00 36980236.00 L 23247693.00 36941964.59 L 23247694.00 36548393.00 L 23231840.29 36510123.29 L 23133449.00 36411731.00 L 23095177.59 36395880.00 L 22800000.00 36395880.00 L 22761731.00 36411731.00 L 22745880.00 36450000.00 L 22745880.00 37040360.00 L 22761731.00 37078629.00 L 22800000.00 37094480.00 L 23095180.00 37094481.00 L 23133449.71 37078627.29  zM 23072762.84 36986240.00 L 22854120.00 36986240.00 L 22854120.00 36504120.00 L 23072762.16 36504120.00 L 23139453.00 36570810.16 L 23139453.00 36919549.16 L 23072762.84 36986240.00  z"/>
<path id="N" d="M 12533449.71 39428627.29 L 12631842.00 39330236.00 L 12647693.00 39291964.59 L 12647694.00 38898393.00 L 12631840.29 38860123.29 L 12533449.00 38761731.00 L 12495177.59 38745880.00 L 12200000.00 38745880.00 L 12161731.00 38761731.00 L 12145880.00 38800000.00 L 12145880.00 39390360.00 L 12161731.00 39428629.00 L 12200000.00 39444480.00 L 12495180.00 39444481.00 L 12533449.71 39428627.29  zM 12472762.84 39336240.00 L 12254120.00 39336240.00 L 12254120.00 38854120.00 L 12472762.16 38854120.00 L 12539453.00 38920810.16 L 12539453.00 39269549.16 L 12472762.84 39336240.00  z"/>
<path id="N" d="M 12647693.00 43240360.00 L 12647693.00 42846787.00 L 12631842.00 42808518.00 L 12435056.00 42611731.00 L 12396787.00 42595879.00 L 12358518.00 42611731.00 L 12161731.00 42808518.00 L 12145880.00 42846789.41 L 12145880.00 43240360.00 A 54118.70 54118.70 0 0 0 12254120.00 43240360.00 L 12254120.00 42869205.00 L 12396787.00 42726538.00 L 12539453.00 42869204.00 L 12539453.00 43240360.00 A 54118.70 54118.70 0 0 0 12647693.00 43240360.00  z"/>
<path id="N" d="M 13714169.71 42378627.29 L 13812562.00 42280236.00 L 13828413.00 42241964.59 L 13828414.00 41848393.00 L 13812560.29 41810123.29 L 13714169.00 41711731.00 L 13675897.59 41695880.00 L 13380720.00 41695880.00 L 13342451.00 41711731.00 L 13326600.00 41750000.00 L 13326600.00 42340360.00 L 13342451.00 42378629.00 L 13380720.00 42394480.00 L 13675900.00 42394481.00 L 13714169.71 42378627.29  zM 13653482.84 42286240.00 L 13434840.00 42286240.00 L 13434840.00 41804120.00 L 13653482.16 41804120.00 L 13720173.00 41870810.16 L 13720173.00 42219549.16 L 13653482.84 42286240.00  z"/>
<path id="N" d="M 18880425.00 42799634.00 L 18888351.00 42780500.00 L 18888351.00 41993098.00 L 18880425.00 41973964.00 L 18861291.00 41966038.00 L 18842157.00 41973964.00 L 18834231.00 41993098.00 L 18834231.00 42753440.00 L 14163941.00 42753440.00 L 14163941.00 41993098.00 L 14156015.00 41973964.00 L 14136881.00 41966038.00 L 14117747.00 41973964.00 L 14109821.00 41993098.00 L 14109821.00 42780500.00 L 14117747.00 42799634.00 L 14136881.00 42807560.00 L 18861291.00 42807560.00 L 18880425.00 42799634.00  z"/>
<path id="N" d="M 32177528.00 42799570.00 L 32185454.00 42780436.00 L 32185454.00 41993034.00 L 32177528.00 41973900.00 L 32158394.00 41965974.00 L 32139260.00 41973900.00 L 32131334.00 41993034.00 L 32131334.00 42753376.00 L 27461044.00 42753376.00 L 27461044.00 41993034.00 L 27453118.00 41973900.00 L 27433984.00 41965974.00 L 27414850.00 41973900.00 L 27406924.00 41993034.00 L 27406924.00 42780436.00 L 27414850.00 42799570.00 L 27433984.00 42807496.00 L 32158394.00 42807496.00 L 32177528.00 42799570.00  z"/>
<path id="N" d="M 25569986.00 45552040.00 L 25577912.00 45532906.00 L 25577912.00 44745504.00 L 25569986.00 44726370.00 L 25550852.00 44718444.00 L 20826442.00 44718444.00 L 20807308.00 44726370.00 L 20799382.00 44745504.00 L 20799382.00 45532906.00 L 20807308.00 45552040.00 L 20826442.00 45559966.00 L 20845576.00 45552040.00 L 20853502.00 45532906.00 L 20853502.00 44772564.00 L 25523792.00 44772564.00 L 25523792.00 45532906.00 L 25531718.00 45552040.00 L 25550852.00 45559966.00 L 25569986.00 45552040.00  z"/>
<path id="N" d="M 25569986.00 49489048.00 L 25577912.00 49469914.00 L 25577912.00 48682512.00 L 25569986.00 48663378.00 L 25550852.00 48655452.00 L 25531718.00 48663378.00 L 25523792.00 48682512.00 L 25523792.00 49442854.00 L 20853502.00 49442854.00 L 20853502.00 48682512.00 L 20845576.00 48663378.00 L 20826442.00 48655452.00 L 20807308.00 48663378.00 L 20799382.00 48682512.00 L 20799382.00 49469914.00 L 20807308.00 49489048.00 L 20826442.00 49496974.00 L 25550852.00 49496974.00 L 25569986.00 49489048.00  z"/>
<path id="N" d="M 25579009.00 36101067.00 L 25586935.00 36081933.00 L 25586935.00 35294531.00 L 25579009.00 35275397.00 L 25559875.00 35267471.00 L 25540741.00 35275397.00 L 25532815.00 35294531.00 L 25532815.00 36054873.00 L 20862525.00 36054873.00 L 20862525.00 35294531.00 L 20854599.00 35275397.00 L 20835465.00 35267471.00 L 20816331.00 35275397.00 L 20808405.00 35294531.00 L 20808405.00 36081933.00 L 20816331.00 36101067.00 L 20835465.00 36108993.00 L 25559875.00 36108993.00 L 25579009.00 36101067.00  z"/>
<path id="N" d="M 18880425.00 38862626.00 L 18888351.00 38843492.00 L 18888351.00 38056090.00 L 18880425.00 38036956.00 L 18861291.00 38029030.00 L 14136881.00 38029030.00 L 14117747.00 38036956.00 L 14109821.00 38056090.00 L 14109821.00 38843492.00 L 14117747.00 38862626.00 L 14136881.00 38870552.00 L 14156015.00 38862626.00 L 14163941.00 38843492.00 L 14163941.00 38083150.00 L 18834231.00 38083150.00 L 18834231.00 38843492.00 L 18842157.00 38862626.00 L 18861291.00 38870552.00 L 18880425.00 38862626.00  z"/>
<path id="N" d="M 32177528.00 38862562.00 L 32185454.00 38843428.00 L 32185454.00 38056026.00 L 32177528.00 38036892.00 L 32158394.00 38028966.00 L 27433984.00 38028966.00 L 27414850.00 38036892.00 L 27406924.00 38056026.00 L 27406924.00 38843428.00 L 27414850.00 38862562.00 L 27433984.00 38870488.00 L 27453118.00 38862562.00 L 27461044.00 38843428.00 L 27461044.00 38083086.00 L 32131334.00 38083086.00 L 32131334.00 38843428.00 L 32139260.00 38862562.00 L 32158394.00 38870488.00 L 32177528.00 38862562.00  z"/>
<path id="N" d="M 25579009.00 32164059.00 L 25586935.00 32144925.00 L 25586935.00 31357523.00 L 25579009.00 31338389.00 L 25559875.00 31330463.00 L 20835465.00 31330463.00 L 20816331.00 31338389.00 L 20808405.00 31357523.00 L 20808405.00 32144925.00 L 20816331.00 32164059.00 L 20835465.00 32171985.00 L 20854599.00 32164059.00 L 20862525.00 32144925.00 L 20862525.00 31384583.00 L 25532815.00 31384583.00 L 25532815.00 32144925.00 L 25540741.00 32164059.00 L 25559875.00 32171985.00 L 25579009.00 32164059.00  z"/>
<path id="N" d="M 20126806.92 34743352.92 m -80279.37 0 a 80279.37 80279.37 0 1 1 160558.73 0a 80279.37 80279.37 0 1 1 -160558.73 0"/>
<path id="N" d="M 20117783.92 48131333.92 m -80279.37 0 a 80279.37 80279.37 0 1 1 160558.73 0a 80279.37 80279.37 0 1 1 -160558.73 0"/>
<path id="N" d="M 13428222.92 41441919.92 m -80279.37 0 a 80279.37 80279.37 0 1 1 160558.73 0a 80279.37 80279.37 0 1 1 -160558.73 0"/>
<path id="N" d="M 12030087.00 43462875.00 L 12030087.00 37462875.00 L 12014236.00 37424606.00 L 11975967.00 37408755.00 L 10975967.00 37408755.00 L 10937698.00 37424606.00 L 10921847.00 37462875.00 L 10921847.00 43462875.00 L 10937698.00 43501144.00 L 10975967.00 43516995.00 L 11975967.00 43516995.00 L 12014236.00 43501144.00 L 12030087.00 43462875.00  zM 11921847.00 43408755.00 L 11030087.00 43408755.00 L 11030087.00 37516995.00 L 11921847.00 37516995.00 L 11921847.00 43408755.00  z"/>
<path id="N" d="M 12254120.00 40340360.00 L 12254120.00 39804120.00 L 12593573.00 39804120.00 A 54118.70 54118.70 0 1 0 12593573.00 39695880.00 L 12200000.00 39695880.00 L 12161731.00 39711731.00 L 12145880.00 39750000.00 L 12145880.00 40340360.00 A 54118.70 54118.70 0 0 0 12254120.00 40340360.00  z"/>
<path id="N" d="M 16416259.00 37822160.00 L 16416259.00 37285920.00 L 16755712.00 37285920.00 A 54118.70 54118.70 0 0 0 16755712.00 37177680.00 L 16362139.00 37177680.00 L 16323870.00 37193531.00 L 16308019.00 37231800.00 L 16308019.00 37822160.00 A 54118.70 54118.70 0 0 0 16416259.00 37822160.00  z"/>
<path id="N" d="M 14010988.00 46196641.62 L 13843455.00 46196641.59 L 13709129.41 46752520.47 L 13579091.00 46196641.55 L 13410021.00 46196641.52 L 13220969.88 46885217.48 L 13345466.88 46885217.51 L 13494766.63 46325343.83 L 13628274.88 46885217.55 L 13794270.88 46885217.58 L 13931300.44 46322675.61 L 14075541.88 46885217.63 L 14203112.88 46885217.66 L 14010988.00 46196641.62  z"/>
<path id="N" d="M 15747797.91 46700777.93 L 16236564.00 46196642.01 L 16070568.00 46196641.98 L 15634059.92 46637760.91 L 15560283.92 46637760.89 L 15560284.00 46196641.89 L 15426565.00 46196641.87 L 15426564.83 47172636.87 L 15560283.83 47172636.89 L 15560283.90 46757646.89 L 15634059.90 46757646.91 L 16022920.83 47172636.97 L 16184305.83 47172637.00 L 15747797.91 46700777.93  z"/>
<path id="N" d="M 14469687.85 45465331.67 L 13964014.85 45465331.58 L 13964014.90 45174838.58 L 14448169.90 45174838.66 L 14448169.92 45054952.66 L 13964014.92 45054952.58 L 13964014.98 44729108.58 L 14469687.98 44729108.67 L 14469688.00 44609222.67 L 13830296.00 44609222.56 L 13830295.83 45585217.56 L 14469687.83 45585217.67 L 14469687.85 45465331.67  z"/>
<path id="N" d="M 11327386.00 46196641.15 L 11193667.00 46196641.13 L 11131919.66 46399525.12 L 10641883.96 46399525.03 L 10588089.00 46196641.02 L 10454370.00 46196641.00 L 10804805.83 47172636.06 L 10975412.83 47172636.09 L 11327386.00 46196641.15  zM 10892344.99 47032210.17 L 10702894.30 46519411.04 L 11078946.97 46519411.11 L 10892344.99 47032210.17  z"/>
<path id="N" d="M 11157453.00 44609222.09 L 10985309.00 44609222.06 L 10645631.83 45585217.00 L 10783961.83 45585217.02 L 11069891.76 44734873.82 L 11358799.83 45585217.12 L 11498666.83 45585217.15 L 11157453.00 44609222.09  z"/>
<path id="N" d="M 12076579.00 44609222.25 L 11942860.00 44609222.23 L 11942859.85 45477627.23 L 11715383.89 45213263.19 L 11635459.88 45290113.17 L 11899823.83 45585217.22 L 12076578.83 45585217.25 L 12076579.00 44609222.25  z"/>
<path id="N" d="M 15717731.95 44905863.89 L 15364221.95 44905863.83 L 15364221.93 45025749.83 L 15717731.93 45025749.89 L 15717731.95 44905863.89  z"/>
</g>
</svg>
