  0
SECTION
  2
HEADER
  9
$ACADVER
  1
AC1015
  9
$ACADMAINTVER
 70
     6
  9
$DWGCODEPAGE
  3
ANSI_1252
  9
$INSBASE
 10
0.0
 20
0.0
 30
0.0
  9
$EXTMIN
 10
-109.5
 20
-62.25
 30
0.0
  9
$EXTMAX
 10
109.5
 20
62.25
 30
0.0
  9
$LIMMIN
 10
0.0
 20
0.0
  9
$LIMMAX
 10
420.0
 20
297.0
  9
$ORTHOMODE
 70
     0
  9
$REGENMODE
 70
     1
  9
$FILLMODE
 70
     1
  9
$QTEXTMODE
 70
     0
  9
$MIRRTEXT
 70
     1
  9
$LTSCALE
 40
1.0
  9
$ATTMODE
 70
     1
  9
$TEXTSIZE
 40
3.5
  9
$TRACEWID
 40
1.0
  9
$TEXTSTYLE
  7
Standard
  9
$CLAYER
  8
0
  9
$CELTYPE
  6
ByLayer
  9
$CECOLOR
 62
   256
  9
$CELTSCALE
 40
1.0
  9
$DISPSILH
 70
     0
  9
$DIMSCALE
 40
1.0
  9
$DIMASZ
 40
3.302
  9
$DIMEXO
 40
1.0
  9
$DIMDLI
 40
3.75
  9
$DIMRND
 40
0.0
  9
$DIMDLE
 40
0.0
  9
$DIMEXE
 40
1.0
  9
$DIMTP
 40
0.0
  9
$DIMTM
 40
0.0
  9
$DIMTXT
 40
3.5
  9
$DIMCEN
 40
2.5
  9
$DIMTSZ
 40
0.0
  9
$DIMTOL
 70
     0
  9
$DIMLIM
 70
     0
  9
$DIMTIH
 70
     1
  9
$DIMTOH
 70
     1
  9
$DIMSE1
 70
     0
  9
$DIMSE2
 70
     0
  9
$DIMTAD
 70
     1
  9
$DIMZIN
 70
     1
  9
$DIMBLK
  1

  9
$DIMASO
 70
     1
  9
$DIMSHO
 70
     1
  9
$DIMPOST
  1

  9
$DIMAPOST
  1

  9
$DIMALT
 70
     0
  9
$DIMALTD
 70
     3
  9
$DIMALTF
 40
0.0393700787
  9
$DIMLFAC
 40
1.0
  9
$DIMTOFL
 70
     1
  9
$DIMTVP
 40
0.0
  9
$DIMTIX
 70
     0
  9
$DIMSOXD
 70
     0
  9
$DIMSAH
 70
     0
  9
$DIMBLK1
  1

  9
$DIMBLK2
  1

  9
$DIMSTYLE
  2
ISO-25
  9
$DIMCLRD
 70
     0
  9
$DIMCLRE
 70
     0
  9
$DIMCLRT
 70
     0
  9
$DIMTFAC
 40
1.0
  9
$DIMGAP
 40
1.524
  9
$DIMJUST
 70
     0
  9
$DIMSD1
 70
     0
  9
$DIMSD2
 70
     0
  9
$DIMTOLJ
 70
     0
  9
$DIMTZIN
 70
     1
  9
$DIMALTZ
 70
     0
  9
$DIMALTTZ
 70
     0
  9
$DIMUPT
 70
     0
  9
$DIMDEC
 70
     2
  9
$DIMTDEC
 70
     2
  9
$DIMALTU
 70
     2
  9
$DIMALTTD
 70
     3
  9
$DIMTXSTY
  7
Standard
  9
$DIMAUNIT
 70
     0
  9
$DIMADEC
 70
     2
  9
$DIMALTRND
 40
0.0
  9
$DIMAZIN
 70
     0
  9
$DIMDSEP
 70
    44
  9
$DIMATFIT
 70
     3
  9
$DIMFRAC
 70
     0
  9
$DIMLDRBLK
  1

  9
$DIMLUNIT
 70
     2
  9
$DIMLWD
 70
    -2
  9
$DIMLWE
 70
    -2
  9
$DIMTMOVE
 70
     0
  9
$LUNITS
 70
     2
  9
$LUPREC
 70
     2
  9
$SKETCHINC
 40
1.0
  9
$FILLETRAD
 40
10.0
  9
$AUNITS
 70
     0
  9
$AUPREC
 70
     2
  9
$MENU
  1
.
  9
$ELEVATION
 40
0.0
  9
$PELEVATION
 40
0.0
  9
$THICKNESS
 40
0.0
  9
$LIMCHECK
 70
     0
  9
$CHAMFERA
 40
0.0
  9
$CHAMFERB
 40
0.0
  9
$CHAMFERC
 40
0.0
  9
$CHAMFERD
 40
0.0
  9
$SKPOLY
 70
     0
  9
$TDCREATE
 40
2459206.917233518
  9
$TDUCREATE
 40
2459206.833900185
  9
$TDUPDATE
 40
2459206.917266435
  9
$TDUUPDATE
 40
2459206.833933102
  9
$TDINDWG
 40
0.0000000116
  9
$TDUSRTIMER
 40
0.0000000116
  9
$USRTIMER
 70
     1
  9
$ANGBASE
 50
0.0
  9
$ANGDIR
 70
     0
  9
$PDMODE
 70
     0
  9
$PDSIZE
 40
-1.0
  9
$PLINEWID
 40
0.0
  9
$SPLFRAME
 70
     0
  9
$SPLINETYPE
 70
     6
  9
$SPLINESEGS
 70
     8
  9
$HANDSEED
  5
1D1
  9
$SURFTAB1
 70
     6
  9
$SURFTAB2
 70
     6
  9
$SURFTYPE
 70
     6
  9
$SURFU
 70
     6
  9
$SURFV
 70
     6
  9
$UCSBASE
  2

  9
$UCSNAME
  2

  9
$UCSORG
 10
0.0
 20
0.0
 30
0.0
  9
$UCSXDIR
 10
1.0
 20
0.0
 30
0.0
  9
$UCSYDIR
 10
0.0
 20
1.0
 30
0.0
  9
$UCSORTHOREF
  2

  9
$UCSORTHOVIEW
 70
     0
  9
$UCSORGTOP
 10
0.0
 20
0.0
 30
0.0
  9
$UCSORGBOTTOM
 10
0.0
 20
0.0
 30
0.0
  9
$UCSORGLEFT
 10
0.0
 20
0.0
 30
0.0
  9
$UCSORGRIGHT
 10
0.0
 20
0.0
 30
0.0
  9
$UCSORGFRONT
 10
0.0
 20
0.0
 30
0.0
  9
$UCSORGBACK
 10
0.0
 20
0.0
 30
0.0
  9
$PUCSBASE
  2

  9
$PUCSNAME
  2

  9
$PUCSORG
 10
0.0
 20
0.0
 30
0.0
  9
$PUCSXDIR
 10
1.0
 20
0.0
 30
0.0
  9
$PUCSYDIR
 10
0.0
 20
1.0
 30
0.0
  9
$PUCSORTHOREF
  2

  9
$PUCSORTHOVIEW
 70
     0
  9
$PUCSORGTOP
 10
0.0
 20
0.0
 30
0.0
  9
$PUCSORGBOTTOM
 10
0.0
 20
0.0
 30
0.0
  9
$PUCSORGLEFT
 10
0.0
 20
0.0
 30
0.0
  9
$PUCSORGRIGHT
 10
0.0
 20
0.0
 30
0.0
  9
$PUCSORGFRONT
 10
0.0
 20
0.0
 30
0.0
  9
$PUCSORGBACK
 10
0.0
 20
0.0
 30
0.0
  9
$USERI1
 70
     0
  9
$USERI2
 70
     0
  9
$USERI3
 70
     0
  9
$USERI4
 70
     0
  9
$USERI5
 70
     0
  9
$USERR1
 40
0.0
  9
$USERR2
 40
0.0
  9
$USERR3
 40
0.0
  9
$USERR4
 40
0.0
  9
$USERR5
 40
0.0
  9
$WORLDVIEW
 70
     1
  9
$SHADEDGE
 70
     3
  9
$SHADEDIF
 70
    70
  9
$TILEMODE
 70
     1
  9
$MAXACTVP
 70
    64
  9
$PINSBASE
 10
0.0
 20
0.0
 30
0.0
  9
$PLIMCHECK
 70
     0
  9
$PEXTMIN
 10
1.0000000000E+20
 20
1.0000000000E+20
 30
1.0000000000E+20
  9
$PEXTMAX
 10
-1.0000000000E+20
 20
-1.0000000000E+20
 30
-1.0000000000E+20
  9
$PLIMMIN
 10
0.0
 20
0.0
  9
$PLIMMAX
 10
420.0
 20
297.0
  9
$UNITMODE
 70
     0
  9
$VISRETAIN
 70
     1
  9
$PLINEGEN
 70
     0
  9
$PSLTSCALE
 70
     1
  9
$TREEDEPTH
 70
  3020
  9
$CMLSTYLE
  2
Standard
  9
$CMLJUST
 70
     0
  9
$CMLSCALE
 40
20.0
  9
$PROXYGRAPHICS
 70
     1
  9
$MEASUREMENT
 70
     1
  9
$CELWEIGHT
370
    -1
  9
$ENDCAPS
280
     0
  9
$JOINSTYLE
280
     0
  9
$LWDISPLAY
290
     1
  9
$INSUNITS
 70
     4
  9
$HYPERLINKBASE
  1

  9
$STYLESHEET
  1

  9
$XEDIT
290
     1
  9
$CEPSNTYPE
380
     0
  9
$PSTYLEMODE
290
     1
  9
$FINGERPRINTGUID
  2
{CE458FE3-C287-4410-A2D0-0E144D76CD81}
  9
$VERSIONGUID
  2
{FAEB1C32-E019-11D5-929B-00C0DF256EC4}
  9
$EXTNAMES
290
     1
  9
$PSVPSCALE
 40
0.0
  9
$OLESTARTUP
290
     0
  0
ENDSEC
  0
SECTION
  2
CLASSES
  0
CLASS
  1
ACDBDICTIONARYWDFLT
  2
AcDbDictionaryWithDefault
  3
ObjectDBX Classes
 90
        0
280
     0
281
     0
  0
CLASS
  1
VISUALSTYLE
  2
AcDbVisualStyle
  3
ObjectDBX Classes
 90
     4095
280
     0
281
     0
  0
CLASS
  1
MATERIAL
  2
AcDbMaterial
  3
ObjectDBX Classes
 90
     1153
280
     0
281
     0
  0
CLASS
  1
SCALE
  2
AcDbScale
  3
ObjectDBX Classes
 90
     1153
280
     0
281
     0
  0
CLASS
  1
TABLESTYLE
  2
AcDbTableStyle
  3
ObjectDBX Classes
 90
     4095
280
     0
281
     0
  0
CLASS
  1
MLEADERSTYLE
  2
AcDbMLeaderStyle
  3
ACDB_MLEADERSTYLE_CLASS
 90
     4095
280
     0
281
     0
  0
CLASS
  1
SUN
  2
AcDbSun
  3
SCENEOE
 90
     1153
280
     0
281
     0
  0
CLASS
  1
ACDBPLACEHOLDER
  2
AcDbPlaceHolder
  3
ObjectDBX Classes
 90
        0
280
     0
281
     0
  0
CLASS
  1
LAYOUT
  2
AcDbLayout
  3
ObjectDBX Classes
 90
        0
280
     0
281
     0
  0
ENDSEC
  0
SECTION
  2
TABLES
  0
TABLE
  2
VPORT
  5
8
330
0
100
AcDbSymbolTable
 70
     1
  0
VPORT
  5
29
330
8
100
AcDbSymbolTableRecord
100
AcDbViewportTableRecord
  2
*Active
 70
     0
 10
0.0
 20
0.0
 11
1.0
 21
1.0
 12
0.0
 22
0.0
 13
0.0
 23
0.0
 14
10.0
 24
10.0
 15
10.0
 25
10.0
 16
0.0
 26
0.0
 36
1.0
 17
0.0
 27
0.0
 37
0.0
 40
126.99
 41
1.7590361446
 42
50.0
 43
0.0
 44
0.0
 50
0.0
 51
0.0
 71
     0
 72
   100
 73
     1
 74
     3
 75
     0
 76
     0
 77
     0
 78
     0
281
     0
 65
     1
110
0.0
120
0.0
130
0.0
111
1.0
121
0.0
131
0.0
112
0.0
122
1.0
132
0.0
 79
     0
146
0.0
  0
ENDTAB
  0
TABLE
  2
LTYPE
  5
5
330
0
100
AcDbSymbolTable
 70
     6
  0
LTYPE
  5
14
330
5
100
AcDbSymbolTableRecord
100
AcDbLinetypeTableRecord
  2
ByBlock
 70
     0
  3

 72
    65
 73
     0
 40
0.0
  0
LTYPE
  5
15
330
5
100
AcDbSymbolTableRecord
100
AcDbLinetypeTableRecord
  2
ByLayer
 70
     0
  3

 72
    65
 73
     0
 40
0.0
  0
LTYPE
  5
16
330
5
100
AcDbSymbolTableRecord
100
AcDbLinetypeTableRecord
  2
Continuous
 70
     0
  3
Solid line
 72
    65
 73
     0
 40
0.0
  0
LTYPE
  5
6E
330
5
100
AcDbSymbolTableRecord
100
AcDbLinetypeTableRecord
  2
HIDDEN
 70
     0
  3
Hidden __ __ __ __ __ __ __ __ __ __ __ __ __ __
 72
    65
 73
     2
 40
1.905
 49
1.27
 74
     0
 49
-0.635
 74
     0
  0
LTYPE
  5
6F
330
5
100
AcDbSymbolTableRecord
100
AcDbLinetypeTableRecord
  2
PHANTOM
 70
     0
  3
Phantom ______  __  __  ______  __  __  ______
 72
    65
 73
     6
 40
12.7
 49
6.35
 74
     0
 49
-1.27
 74
     0
 49
1.27
 74
     0
 49
-1.27
 74
     0
 49
1.27
 74
     0
 49
-1.27
 74
     0
  0
LTYPE
  5
70
330
5
100
AcDbSymbolTableRecord
100
AcDbLinetypeTableRecord
  2
CENTER
 70
     0
  3
Center ____ _ ____ _ ____ _ ____ _ ____ _ ____
 72
    65
 73
     4
 40
10.16
 49
6.35
 74
     0
 49
-1.27
 74
     0
 49
1.27
 74
     0
 49
-1.27
 74
     0
  0
LTYPE
  5
71
330
5
100
AcDbSymbolTableRecord
100
AcDbLinetypeTableRecord
  2
CENTERX2
 70
     0
  3
Center (2x) ________  __  ________  __  _____
 72
    65
 73
     4
 40
20.32
 49
12.7
 74
     0
 49
-2.54
 74
     0
 49
2.54
 74
     0
 49
-2.54
 74
     0
  0
LTYPE
  5
72
330
5
100
AcDbSymbolTableRecord
100
AcDbLinetypeTableRecord
  2
DOT2
 70
     0
  3
Dot (.5x) ........................................
 72
    65
 73
     2
 40
0.635
 49
0.0
 74
     0
 49
-0.635
 74
     0
  0
ENDTAB
  0
TABLE
  2
LAYER
  5
2
330
0
100
AcDbSymbolTable
 70
     1
  0
LAYER
  5
10
330
2
100
AcDbSymbolTableRecord
100
AcDbLayerTableRecord
  2
0
 70
     0
 62
     7
  6
Continuous
370
    -3
390
F
  0
ENDTAB
  0
TABLE
  2
STYLE
  5
3
330
0
100
AcDbSymbolTable
 70
     1
  0
STYLE
  5
11
330
3
100
AcDbSymbolTableRecord
100
AcDbTextStyleTableRecord
  2
Standard
 70
     0
 40
0.0
 41
1.0
 50
0.0
 71
     0
 42
3.5
  3
txt
  4

  0
ENDTAB
  0
TABLE
  2
VIEW
  5
6
330
0
100
AcDbSymbolTable
 70
     0
  0
ENDTAB
  0
TABLE
  2
UCS
  5
7
330
0
100
AcDbSymbolTable
 70
     0
  0
ENDTAB
  0
TABLE
  2
APPID
  5
9
330
0
100
AcDbSymbolTable
 70
     1
  0
APPID
  5
12
330
9
100
AcDbSymbolTableRecord
100
AcDbRegAppTableRecord
  2
ACAD
 70
     0
  0
ENDTAB
  0
TABLE
  2
DIMSTYLE
  5
A
330
0
100
AcDbSymbolTable
 70
     1
100
AcDbDimStyleTable
  0
DIMSTYLE
105
27
330
A
100
AcDbSymbolTableRecord
100
AcDbDimStyleTableRecord
  2
ISO-25
 70
     0
 41
2.5
 42
0.625
 43
3.75
 44
1.25
 73
     0
 74
     0
 77
     1
 78
     8
140
2.5
141
2.5
143
0.0393700787
147
0.625
171
     3
172
     1
178
     0
271
     2
272
     2
274
     3
278
    44
283
     0
284
     8
340
11
  0
ENDTAB
  0
TABLE
  2
BLOCK_RECORD
  5
1
330
0
100
AcDbSymbolTable
 70
     1
  0
BLOCK_RECORD
  5
1F
330
1
100
AcDbSymbolTableRecord
100
AcDbBlockTableRecord
  2
*Model_Space
340
22
  0
BLOCK_RECORD
  5
1B
330
1
100
AcDbSymbolTableRecord
100
AcDbBlockTableRecord
  2
*Paper_Space
340
1E
  0
BLOCK_RECORD
  5
23
330
1
100
AcDbSymbolTableRecord
100
AcDbBlockTableRecord
  2
*Paper_Space0
340
26
  0
ENDTAB
  0
ENDSEC
  0
SECTION
  2
BLOCKS
  0
BLOCK
  5
20
330
1F
100
AcDbEntity
  8
0
100
AcDbBlockBegin
  2
*Model_Space
 70
     0
 10
0.0
 20
0.0
 30
0.0
  3
*Model_Space
  1

  0
ENDBLK
  5
21
330
1F
100
AcDbEntity
  8
0
100
AcDbBlockEnd
  0
BLOCK
  5
1C
330
1B
100
AcDbEntity
 67
     1
  8
0
100
AcDbBlockBegin
  2
*Paper_Space
 70
     0
 10
0.0
 20
0.0
 30
0.0
  3
*Paper_Space
  1

  0
ENDBLK
  5
1D
330
1B
100
AcDbEntity
 67
     1
  8
0
100
AcDbBlockEnd
  0
BLOCK
  5
24
330
23
100
AcDbEntity
  8
0
100
AcDbBlockBegin
  2
*Paper_Space0
 70
     0
 10
0.0
 20
0.0
 30
0.0
  3
*Paper_Space0
  1

  0
ENDBLK
  5
25
330
23
100
AcDbEntity
  8
0
100
AcDbBlockEnd
  0
ENDSEC
  0
SECTION
  2
ENTITIES
  0
SPLINE
  5
7B
330
1F
100
AcDbEntity
  8
0
  6
Continuous
 62
     7
370
    25
100
AcDbSpline
210
0.0
220
0.0
230
1.0
 70
     8
 71
     3
 72
    15
 73
    11
 74
     0
 42
0.000000001
 43
0.00000001
 40
0.0
 40
0.0
 40
0.0
 40
0.0
 40
0.1298621417207371
 40
0.254653530897288
 40
0.3760145541937132
 40
0.4952552518176066
 40
0.6147977192994564
 40
0.7381055541683323
 40
0.8651963000723563
 40
1.0
 40
1.0
 40
1.0
 40
1.0
 10
-49.88046570206491
 20
48.59589743589726
 30
0.0
 10
-49.73132324759936
 20
48.59178957434908
 30
0.0
 10
-49.43886193336957
 20
48.58373425172913
 30
0.0
 10
-49.01106762117865
 20
48.5166978879606
 30
0.0
 10
-48.60636911288278
 20
48.40344512466105
 30
0.0
 10
-48.22164239279686
 20
48.24939513030818
 30
0.0
 10
-47.85826900395447
 20
48.04468447578843
 30
0.0
 10
-47.51968904876606
 20
47.78645601572088
 30
0.0
 10
-47.20235909645804
 20
47.47633833866337
 30
0.0
 10
-47.01841540600311
 20
47.23813706875129
 30
0.0
 10
-46.92373493283414
 20
47.11552884615367
 30
0.0
  0
SPLINE
  5
7C
330
1F
100
AcDbEntity
  8
0
  6
Continuous
 62
     7
370
    25
100
AcDbSpline
210
0.0
220
0.0
230
1.0
 70
     8
 71
     3
 72
    23
 73
    19
 74
     0
 42
0.000000001
 43
0.00000001
 40
0.0
 40
0.0
 40
0.0
 40
0.0
 40
0.0637745323056318
 40
0.1260788099895064
 40
0.186904092747208
 40
0.2475739349176201
 40
0.3080033561644474
 40
0.3691318984609783
 40
0.4320332277442044
 40
0.4967907944370913
 40
0.5616108232295651
 40
0.6249138657484626
 40
0.6867263492419244
 40
0.748078833257771
 40
0.809582291139896
 40
0.8716307425688273
 40
0.9348858208285542
 40
0.9999999999999999
 40
0.9999999999999999
 40
0.9999999999999999
 40
0.9999999999999999
 10
-53.71860672770593
 20
44.83387820512802
 30
0.0
 10
-53.71502680946341
 20
44.96091735818354
 30
0.0
 10
-53.7079495042201
 20
45.21206691052449
 30
0.0
 10
-53.65522601896217
 20
45.58143461905551
 30
0.0
 10
-53.56656599422169
 20
45.93720107829337
 30
0.0
 10
-53.44214357231911
 20
46.27822091607551
 30
0.0
 10
-53.28259512956735
 20
46.60490677364292
 30
0.0
 10
-53.08851488093634
 20
46.91748970225701
 30
0.0
 10
-52.85988881036825
 20
47.21683083786285
 30
0.0
 10
-52.59631050460714
 20
47.49589148591649
 30
0.0
 10
-52.31078258985674
 20
47.75366466954328
 30
0.0
 10
-52.0053290729557
 20
47.97769051366462
 30
0.0
 10
-51.68754826918187
 20
48.17116722456753
 30
0.0
 10
-51.3525110962608
 20
48.32446287115712
 30
0.0
 10
-51.00517651107795
 20
48.44848888414127
 30
0.0
 10
-50.64245238037157
 20
48.53429736442846
 30
0.0
 10
-50.26584786986992
 20
48.5848611393999
 30
0.0
 10
-50.01016074968533
 20
48.59218332268873
 30
0.0
 10
-49.88046570206491
 20
48.59589743589726
 30
0.0
  0
SPLINE
  5
7D
330
1F
100
AcDbEntity
  8
0
  6
Continuous
 62
     7
370
    25
100
AcDbSpline
210
0.0
220
0.0
230
1.0
 70
     8
 71
     3
 72
    23
 73
    19
 74
     0
 42
0.000000001
 43
0.00000001
 40
0.0
 40
0.0
 40
0.0
 40
0.0
 40
0.0646199913407683
 40
0.1274334841444689
 40
0.1890041265579399
 40
0.2499300706860471
 40
0.3106684537406719
 40
0.3723289611368246
 40
0.4349391099970089
 40
0.499575544194034
 40
0.5641912077719233
 40
0.626735216929479
 40
0.688109333561402
 40
0.7492936065367515
 40
0.8103305278109447
 40
0.8719011702244159
 40
0.9350459146845318
 40
0.9999999999999999
 40
0.9999999999999999
 40
0.9999999999999999
 40
0.9999999999999999
 10
-49.90851057385978
 20
41.03179487179469
 30
0.0
 10
-50.03756187052416
 20
41.0352987925637
 30
0.0
 10
-50.29205674163273
 20
41.04220867946551
 30
0.0
 10
-50.66642553345821
 20
41.09581526123203
 30
0.0
 10
-51.02668910332293
 20
41.18190275163794
 30
0.0
 10
-51.37318788235665
 20
41.30161957875729
 30
0.0
 10
-51.70367972645406
 20
41.46042192629496
 30
0.0
 10
-52.02099428837495
 20
41.65053977784186
 30
0.0
 10
-52.32348769414386
 20
41.87694214950086
 30
0.0
 10
-52.60654923404058
 20
42.13576508765197
 30
0.0
 10
-52.86721209225743
 20
42.41689362246228
 30
0.0
 10
-53.0959585854637
 20
42.71673804210553
 30
0.0
 10
-53.28668167076295
 20
43.03400176751313
 30
0.0
 10
-53.44616761564089
 20
43.36466792148091
 30
0.0
 10
-53.56901431404297
 20
43.71128197729239
 30
0.0
 10
-53.65465326906557
 20
44.07264531426321
 30
0.0
 10
-53.70819740249606
 20
44.44833066723421
 30
0.0
 10
-53.7151044330245
 20
44.7041578760788
 30
0.0
 10
-53.71860672770593
 20
44.83387820512802
 30
0.0
  0
SPLINE
  5
7E
330
1F
100
AcDbEntity
  8
0
  6
Continuous
 62
     7
370
    25
100
AcDbSpline
210
0.0
220
0.0
230
1.0
 70
     8
 71
     3
 72
    15
 73
    11
 74
     0
 42
0.000000001
 43
0.00000001
 40
0.0
 40
0.0
 40
0.0
 40
0.0
 40
0.1342983790141684
 40
0.2620849753823001
 40
0.3862699121344996
 40
0.5071645966227992
 40
0.6273002357255056
 40
0.7481449416029945
 40
0.8723701771613517
 40
1.0
 40
1.0
 40
1.0
 40
1.0
 10
-46.92373493283414
 20
42.42402243589726
 30
0.0
 10
-47.02493147748031
 20
42.30962359601772
 30
0.0
 10
-47.22241780685417
 20
42.08637282148362
 30
0.0
 10
-47.55224957248691
 20
41.79470947151004
 30
0.0
 10
-47.90187293792263
 20
41.55362855282419
 30
0.0
 10
-48.26959099829602
 20
41.35891450796591
 30
0.0
 10
-48.65507169356638
 20
41.21265148985918
 30
0.0
 10
-49.0574605143557
 20
41.10869103521405
 30
0.0
 10
-49.47692160254289
 20
41.04185150615046
 30
0.0
 10
-49.76335690194293
 20
41.03517715795324
 30
0.0
 10
-49.90851057385978
 20
41.03179487179469
 30
0.0
  0
SPLINE
  5
8C
330
1F
100
AcDbEntity
  8
0
  6
Continuous
 62
     7
370
    25
100
AcDbSpline
210
0.0
220
0.0
230
1.0
 70
     8
 71
     3
 72
    15
 73
    11
 74
     0
 42
0.000000001
 43
0.00000001
 40
0.0
 40
0.0
 40
0.0
 40
0.0
 40
0.1185218400132608
 40
0.2362547631617456
 40
0.356174433990931
 40
0.4772496548985568
 40
0.6015398708217017
 40
0.7296183821680415
 40
0.8621582661414386
 40
1.0
 40
1.0
 40
1.0
 40
1.0
 10
4.588684938960738
 20
47.15759615384597
 30
0.0
 10
4.651904762710708
 20
47.071300207028
 30
0.0
 10
4.777923600129241
 20
46.89928272505998
 30
0.0
 10
4.935772457372478
 20
46.6187937047723
 30
0.0
 10
5.072793585897267
 20
46.32533486377189
 30
0.0
 10
5.182316331653748
 20
46.01416258638046
 30
0.0
 10
5.271000620786743
 20
45.68896378588635
 30
0.0
 10
5.335162960044415
 20
45.34741365813118
 30
0.0
 10
5.372790441706807
 20
44.98961391138588
 30
0.0
 10
5.380186719845194
 20
44.74582375288101
 30
0.0
 10
5.383957374858174
 20
44.62153846153828
 30
0.0
  0
SPLINE
  5
8D
330
1F
100
AcDbEntity
  8
0
  6
Continuous
 62
     7
370
    25
100
AcDbSpline
210
0.0
220
0.0
230
1.0
 70
     8
 71
     3
 72
    15
 73
    11
 74
     0
 42
0.000000001
 43
0.00000001
 40
0.0
 40
0.0
 40
0.0
 40
0.0
 40
0.1320402344259816
 40
0.25903284077937
 40
0.3818798239250164
 40
0.5022584437149855
 40
0.6227521895274791
 40
0.7447426318590011
 40
0.8701089273418183
 40
1.0
 40
1.0
 40
1.0
 40
1.0
 10
1.645976605627405
 20
48.59589743589726
 30
0.0
 10
1.795826906495078
 20
48.59202872477582
 30
0.0
 10
2.089799037748419
 20
48.58443919544564
 30
0.0
 10
2.518462240710659
 20
48.51407824284831
 30
0.0
 10
2.924064287969525
 20
48.40249951552433
 30
0.0
 10
3.306442871708986
 20
48.24491725695137
 30
0.0
 10
3.665636759574222
 20
48.04160425183602
 30
0.0
 10
3.999311186930485
 20
47.78977041903332
 30
0.0
 10
4.313172651355498
 20
47.49714731267596
 30
0.0
 10
4.495768590933216
 20
47.27210957145515
 30
0.0
 10
4.588684938960738
 20
47.15759615384597
 30
0.0
  0
SPLINE
  5
8E
330
1F
100
AcDbEntity
  8
0
  6
Continuous
 62
     7
370
    25
100
AcDbSpline
210
0.0
220
0.0
230
1.0
 70
     8
 71
     3
 72
    15
 73
    11
 74
     0
 42
0.000000001
 43
0.00000001
 40
0.0
 40
0.0
 40
0.0
 40
0.0
 40
0.1288352544875541
 40
0.2535893349864755
 40
0.3746432573141691
 40
0.4953400422377914
 40
0.6163247746357898
 40
0.7397593354405142
 40
0.866842320380546
 40
1.0
 40
1.0
 40
1.0
 40
1.0
 10
-1.210593907193108
 20
47.23371794871777
 30
0.0
 10
-1.120000527833586
 20
47.34191472039792
 30
0.0
 10
-0.9416835375242443
 20
47.55488086454211
 30
0.0
 10
-0.6400939507989365
 20
47.83470465248965
 30
0.0
 10
-0.3135219612492709
 20
48.06911543870979
 30
0.0
 10
0.0339398276083279
 20
48.26342154196188
 30
0.0
 10
0.4063297534957354
 20
48.41106053336981
 30
0.0
 10
0.79864201360312
 20
48.52108219689058
 30
0.0
 10
1.215343688536312
 20
48.58273365698566
 30
0.0
 10
1.500215748074013
 20
48.59144175304849
 30
0.0
 10
1.645976605627405
 20
48.59589743589726
 30
0.0
  0
SPLINE
  5
8F
330
1F
100
AcDbEntity
  8
0
  6
Continuous
 62
     7
370
    25
100
AcDbSpline
210
0.0
220
0.0
230
1.0
 70
     8
 71
     3
 72
    15
 73
    11
 74
     0
 42
0.000000001
 43
0.00000001
 40
0.0
 40
0.0
 40
0.0
 40
0.0
 40
0.1280448079611211
 40
0.2537679000244897
 40
0.3774284265813002
 40
0.5005508414825312
 40
0.6232958832424766
 40
0.7465783319335075
 40
0.8723475406047166
 40
0.9999999999999999
 40
0.9999999999999999
 40
0.9999999999999999
 40
0.9999999999999999
 10
-2.051940061039262
 20
44.79381410256392
 30
0.0
 10
-2.048913942951846
 20
44.90608504661415
 30
0.0
 10
-2.042916576526001
 20
45.12859123143376
 30
0.0
 10
-2.005114326829754
 20
45.45792135866316
 30
0.0
 10
-1.938119203778276
 20
45.77800265160187
 30
0.0
 10
-1.846186849637895
 20
46.0891010743701
 30
0.0
 10
-1.727469003400073
 20
46.39069574289605
 30
0.0
 10
-1.582234091353729
 20
46.68297021039079
 30
0.0
 10
-1.410255869100061
 20
46.96561346713496
 30
0.0
 10
-1.277476801224444
 20
47.14390813487158
 30
0.0
 10
-1.210593907193108
 20
47.23371794871777
 30
0.0
  0
SPLINE
  5
90
330
1F
100
AcDbEntity
  8
0
  6
Continuous
 62
     7
370
    25
100
AcDbSpline
210
0.0
220
0.0
230
1.0
 70
     8
 71
     3
 72
    23
 73
    19
 74
     0
 42
0.000000001
 43
0.00000001
 40
0.0
 40
0.0
 40
0.0
 40
0.0
 40
0.0715786576891419
 40
0.1396292246928479
 40
0.2047966973966658
 40
0.2681349633966816
 40
0.3298137469867301
 40
0.3913013977745596
 40
0.4534335150970538
 40
0.5165516903197666
 40
0.5796312707049232
 40
0.6411189214927527
 40
0.7012940466987742
 40
0.7608103356761335
 40
0.8199317217781438
 40
0.8789195754993829
 40
0.938982822250447
 40
0.9999999999999999
 40
0.9999999999999999
 40
0.9999999999999999
 40
0.9999999999999999
 10
1.623941349217149
 20
41.03179487179469
 30
0.0
 10
1.483535699115885
 20
41.03507251559347
 30
0.0
 10
1.209644951523555
 20
41.04146624910592
 30
0.0
 10
0.8109599597725359
 20
41.09658757606155
 30
0.0
 10
0.435590192922467
 20
41.1865086009006
 30
0.0
 10
0.0835567547693149
 20
41.31212443373283
 30
0.0
 10
-0.2442782525951085
 20
41.4762025025622
 30
0.0
 10
-0.5485664092006107
 20
41.67608673628714
 30
0.0
 10
-0.8309079116833823
 20
41.91075032111156
 30
0.0
 10
-1.082405652212391
 20
42.18222587393144
 30
0.0
 10
-1.30881674567079
 20
42.47274575191832
 30
0.0
 10
-1.508604802744177
 20
42.77547685044969
 30
0.0
 10
-1.675626034314005
 20
43.08965749180375
 30
0.0
 10
-1.811490634873236
 20
43.41328756049959
 30
0.0
 10
-1.921218820501237
 20
43.74432725633709
 30
0.0
 10
-1.997695116984458
 20
44.08578859224916
 30
0.0
 10
-2.0417801112189
 20
44.43674740436393
 30
0.0
 10
-2.048535669897066
 20
44.67416836355753
 30
0.0
 10
-2.051940061039262
 20
44.79381410256392
 30
0.0
  0
SPLINE
  5
91
330
1F
100
AcDbEntity
  8
0
  6
Continuous
 62
     7
370
    25
100
AcDbSpline
210
0.0
220
0.0
230
1.0
 70
     8
 71
     3
 72
    19
 73
    15
 74
     0
 42
0.000000001
 43
0.00000001
 40
0.0
 40
0.0
 40
0.0
 40
0.0
 40
0.0933698567361941
 40
0.1816607660710046
 40
0.2658742270426184
 40
0.3463547840343077
 40
0.4245998617178937
 40
0.5019031838373763
 40
0.5799920909873473
 40
0.6584434305294313
 40
0.7386722364878342
 40
0.821894148436244
 40
0.9088007920466151
 40
1.0
 40
1.0
 40
1.0
 40
1.0
 10
4.99934199024279
 20
43.04902243589726
 30
0.0
 10
4.935808860985718
 20
42.93632720368206
 30
0.0
 10
4.812198551029508
 20
42.71706690991716
 30
0.0
 10
4.599624985627317
 20
42.41583302285412
 30
0.0
 10
4.376790492546762
 20
42.14483954902907
 30
0.0
 10
4.133636298250845
 20
41.91132625107511
 30
0.0
 10
3.877437215525085
 20
41.70775086543452
 30
0.0
 10
3.606772487565999
 20
41.52964279480897
 30
0.0
 10
3.320233008322153
 20
41.37787559382092
 30
0.0
 10
3.017805223241418
 20
41.25001122847015
 30
0.0
 10
2.696949362837139
 20
41.1516983881618
 30
0.0
 10
2.356887887379872
 20
41.08225775695892
 30
0.0
 10
1.996969329154765
 20
41.03933413224339
 30
0.0
 10
1.750265958104032
 20
41.03434801573751
 30
0.0
 10
1.623941349217149
 20
41.03179487179469
 30
0.0
  0
SPLINE
  5
93
330
1F
100
AcDbEntity
  8
0
  6
Continuous
 62
     7
370
    25
100
AcDbSpline
210
0.0
220
0.0
230
1.0
 70
     8
 71
     3
 72
    19
 73
    15
 74
     0
 42
0.000000001
 43
0.00000001
 40
0.0
 40
0.0
 40
0.0
 40
0.0
 40
0.0825922633314364
 40
0.1638788940984966
 40
0.245658739629503
 40
0.3277256953541222
 40
0.4086099609103193
 40
0.4857490859539305
 40
0.5591690561972779
 40
0.6302684758575461
 40
0.7053060284320694
 40
0.792064966096608
 40
0.8897964374100891
 40
1.0
 40
1.0
 40
1.0
 40
1.0
 10
1.511761862037661
 20
41.92923076923059
 30
0.0
 10
1.601336569477712
 20
41.93096807397317
 30
0.0
 10
1.779069972127845
 20
41.93441521984906
 30
0.0
 10
2.043758135965242
 20
41.96793496530908
 30
0.0
 10
2.304156785678161
 20
42.02213575279789
 30
0.0
 10
2.559188166441654
 20
42.09610715303692
 30
0.0
 10
2.803676297632224
 20
42.18632673048474
 30
0.0
 10
3.030092154950026
 20
42.29519203805353
 30
0.0
 10
3.238321342453243
 20
42.41561988589046
 30
0.0
 10
3.432941246985521
 20
42.55336181460025
 30
0.0
 10
3.621715513705624
 20
42.72195663460884
 30
0.0
 10
3.808979760604872
 20
42.93234440886192
 30
0.0
 10
4.00977019878566
 20
43.18116591681509
 30
0.0
 10
4.135454749482121
 20
43.36843924818055
 30
0.0
 10
4.202066349217149
 20
43.46769230769214
 30
0.0
  0
SPLINE
  5
94
330
1F
100
AcDbEntity
  8
0
  6
Continuous
 62
     7
370
    25
100
AcDbSpline
210
0.0
220
0.0
230
1.0
 70
     8
 71
     3
 72
    23
 73
    19
 74
     0
 42
0.000000001
 43
0.00000001
 40
0.0
 40
0.0
 40
0.0
 40
0.0
 40
0.0683846151037675
 40
0.1344755875434511
 40
0.1983910577839567
 40
0.2607534774484863
 40
0.3218292228076491
 40
0.383037238479525
 40
0.4446531231064262
 40
0.5073980112040043
 40
0.5698252379730248
 40
0.6307776406313133
 40
0.690928686523717
 40
0.7509451326917358
 40
0.8110494767293275
 40
0.8723308525469933
 40
0.9350040935894053
 40
1.0
 40
1.0
 40
1.0
 40
1.0
 10
-1.154504163603365
 20
44.62153846153828
 30
0.0
 10
-1.150105288091501
 20
44.52525142083226
 30
0.0
 10
-1.141455076810926
 20
44.33590683869024
 30
0.0
 10
-1.101126096335394
 20
44.05884745845459
 30
0.0
 10
-1.037558171266163
 20
43.79492362370139
 30
0.0
 10
-0.9482179922990223
 20
43.54611493234861
 30
0.0
 10
-0.8400270058564773
 20
43.30917171087634
 30
0.0
 10
-0.7074963864680878
 20
43.08585160525172
 30
0.0
 10
-0.5493833751752337
 20
42.87717180510913
 30
0.0
 10
-0.3730242340770341
 20
42.6812656977002
 30
0.0
 10
-0.1767182474038652
 20
42.50680638007819
 30
0.0
 10
0.0298038875138263
 20
42.35065844798027
 30
0.0
 10
0.2494997874829351
 20
42.21978531446781
 30
0.0
 10
0.4806371688942387
 20
42.11355705802938
 30
0.0
 10
0.7228422693061654
 20
42.03039615500338
 30
0.0
 10
0.9761913982082809
 20
41.97363095305216
 30
0.0
 10
1.240186016364704
 20
41.93561064769542
 30
0.0
 10
1.420145256458353
 20
41.93138303283675
 30
0.0
 10
1.511761862037661
 20
41.92923076923059
 30
0.0
  0
SPLINE
  5
96
330
1F
100
AcDbEntity
  8
0
  6
Continuous
 62
     7
370
    25
100
AcDbSpline
210
0.0
220
0.0
230
1.0
 70
     8
 71
     3
 72
    15
 73
    11
 74
     0
 42
0.000000001
 43
0.00000001
 40
0.0
 40
0.0
 40
0.0
 40
0.0
 40
0.0769954547170568
 40
0.1676150771831743
 40
0.2710523936342353
 40
0.3894595025720756
 40
0.520842802465577
 40
0.6663987586080758
 40
0.8260936125153153
 40
1.0
 40
1.0
 40
1.0
 40
1.0
 10
35.26576827229409
 20
45.76336538461521
 30
0.0
 10
35.2545121335064
 20
45.71406480446122
 30
0.0
 10
35.23000810818937
 20
45.60674002044571
 30
0.0
 10
35.20354188002121
 20
45.43061310791833
 30
0.0
 10
35.17952023601642
 20
45.22687032222645
 30
0.0
 10
35.15941463996335
 20
44.99574941635264
 30
0.0
 10
35.14711345004741
 20
44.73644120173109
 30
0.0
 10
35.13370088783697
 20
44.45005309371967
 30
0.0
 10
35.12881785621874
 20
44.13544312698802
 30
0.0
 10
35.12798255902575
 20
43.91640971920297
 30
0.0
 10
35.12754711844794
 20
43.80222756410239
 30
0.0
  0
SPLINE
  5
97
330
1F
100
AcDbEntity
  8
0
  6
Continuous
 62
     7
370
    25
100
AcDbSpline
210
0.0
220
0.0
230
1.0
 70
     8
 71
     3
 72
    23
 73
    19
 74
     0
 42
0.000000001
 43
0.00000001
 40
0.0
 40
0.0
 40
0.0
 40
0.0
 40
0.0639861098164658
 40
0.1266268580894758
 40
0.1889843719814868
 40
0.2502301939603973
 40
0.3123511629623216
 40
0.3745736184579377
 40
0.4381475308782035
 40
0.5029204126073705
 40
0.5679740951402716
 40
0.63077133374919
 40
0.6929346089254581
 40
0.7543975343123283
 40
0.815218352017296
 40
0.8761169254810904
 40
0.938014604793953
 40
1.0
 40
1.0
 40
1.0
 40
1.0
 10
37.75174583639665
 20
47.69846153846136
 30
0.0
 10
37.67955245466845
 20
47.69710152513696
 30
0.0
 10
37.53668361752057
 20
47.69441009390723
 30
0.0
 10
37.32482655493155
 20
47.66740638527012
 30
0.0
 10
37.11932891728027
 20
47.62323936927482
 30
0.0
 10
36.91812832015231
 20
47.56361469070582
 30
0.0
 10
36.72524890948077
 20
47.48172249292671
 30
0.0
 10
36.5344937918231
 20
47.38878143514126
 30
0.0
 10
36.35304589430931
 20
47.27292940089747
 30
0.0
 10
36.17703618822794
 20
47.14381333964099
 30
0.0
 10
36.01328530921888
 20
47.00072989050502
 30
0.0
 10
35.86091862804557
 20
46.84974557578249
 30
0.0
 10
35.72509571304244
 20
46.68895813636511
 30
0.0
 10
35.60204235508903
 20
46.52095828628206
 30
0.0
 10
35.49581874543882
 20
46.34343874914747
 30
0.0
 10
35.40309563668935
 20
46.15811215920805
 30
0.0
 10
35.32442222299868
 20
45.96473459113985
 30
0.0
 10
35.28532881594198
 20
45.83052013048054
 30
0.0
 10
35.26576827229409
 20
45.76336538461521
 30
0.0
  0
SPLINE
  5
98
330
1F
100
AcDbEntity
  8
0
  6
Continuous
 62
     7
370
    25
100
AcDbSpline
210
0.0
220
0.0
230
1.0
 70
     8
 71
     3
 72
    15
 73
    11
 74
     0
 42
0.000000001
 43
0.00000001
 40
0.0
 40
0.0
 40
0.0
 40
0.0
 40
0.1355195283706064
 40
0.2608331631936801
 40
0.378476029124503
 40
0.4931776464746757
 40
0.6092809649289395
 40
0.7299810378566443
 40
0.859261308930066
 40
1.0
 40
1.0
 40
1.0
 40
1.0
 10
39.63676186203768
 20
46.26016025641007
 30
0.0
 10
39.60640320059104
 20
46.37362078483194
 30
0.0
 10
39.5479721700919
 20
46.59199719804499
 30
0.0
 10
39.40358936116291
 20
46.88820963410627
 30
0.0
 10
39.22126313034185
 20
47.14020445647568
 30
0.0
 10
38.99869784644137
 20
47.34642366111682
 30
0.0
 10
38.73804334461175
 20
47.50691176598828
 30
0.0
 10
38.44002293670365
 20
47.6182659223513
 30
0.0
 10
38.10751253478273
 20
47.68791240577674
 30
0.0
 10
37.87364287000135
 20
47.69484706867768
 30
0.0
 10
37.75174583639665
 20
47.69846153846136
 30
0.0
  0
SPLINE
  5
99
330
1F
100
AcDbEntity
  8
0
  6
Continuous
 62
     7
370
    25
100
AcDbSpline
210
0.0
220
0.0
230
1.0
 70
     8
 71
     3
 72
    15
 73
    11
 74
     0
 42
0.000000001
 43
0.00000001
 40
0.0
 40
0.0
 40
0.0
 40
0.0
 40
0.178850019411159
 40
0.3421096489422994
 40
0.4898256633683903
 40
0.6232544282245632
 40
0.7400796760857928
 40
0.8414826730699855
 40
0.9289076721840663
 40
1.0
 40
1.0
 40
1.0
 40
1.0
 10
39.74293173383255
 20
44.59749999999983
 30
0.0
 10
39.74237971092127
 20
44.69699269979627
 30
0.0
 10
39.74132378503987
 20
44.8873053020076
 30
0.0
 10
39.73799336594121
 20
45.1597882254086
 30
0.0
 10
39.72996534707557
 20
45.4068927351308
 30
0.0
 10
39.71868445302976
 20
45.62802807057489
 30
0.0
 10
39.70217293723189
 20
45.82298188932729
 30
0.0
 10
39.68496541908902
 20
45.99215125143732
 30
0.0
 10
39.66392262824063
 20
46.13532137267393
 30
0.0
 10
39.64517144784873
 20
46.22150732234001
 30
0.0
 10
39.63676186203768
 20
46.26016025641007
 30
0.0
  0
SPLINE
  5
9D
330
1F
100
AcDbEntity
  8
0
  6
Continuous
 62
     7
370
    25
100
AcDbSpline
210
0.0
220
0.0
230
1.0
 70
     8
 71
     3
 72
    23
 73
    19
 74
     0
 42
0.000000001
 43
0.00000001
 40
0.0
 40
0.0
 40
0.0
 40
0.0
 40
0.077240423616479
 40
0.1511781404663828
 40
0.2234879838003991
 40
0.2955426441988693
 40
0.3669762546197884
 40
0.4371305254863868
 40
0.5070436156432687
 40
0.5785597335236777
 40
0.6166135446965525
 40
0.6587562369775278
 40
0.7044912261144038
 40
0.7548031149051493
 40
0.8093316253185653
 40
0.86827445547282
 40
0.9320728834092934
 40
1.0
 40
1.0
 40
1.0
 40
1.0
 10
37.90799583639666
 20
48.59589743589726
 30
0.0
 10
38.0432262195868
 20
48.59091116320813
 30
0.0
 10
38.30790469891198
 20
48.58115182479819
 30
0.0
 10
38.69327058857498
 20
48.50396127876662
 30
0.0
 10
39.05319457053722
 20
48.37211769269619
 30
0.0
 10
39.3863933013603
 20
48.1915117772589
 30
0.0
 10
39.68675676811073
 20
47.96692185324805
 30
0.0
 10
39.95054205804261
 20
47.70527104822189
 30
0.0
 10
40.16872276483575
 20
47.40431081040587
 30
0.0
 10
40.3150009448349
 20
47.12510179258699
 30
0.0
 10
40.41135993823774
 20
46.87741952323616
 30
0.0
 10
40.47202375970577
 20
46.66528595152515
 30
0.0
 10
40.52354084958971
 20
46.42894837675637
 30
0.0
 10
40.56820298678314
 20
46.16912097945811
 30
0.0
 10
40.59842330640439
 20
45.88398329302279
 30
0.0
 10
40.62225842506517
 20
45.57470417287157
 30
0.0
 10
40.63934040874603
 20
45.24138380002707
 30
0.0
 10
40.6400181429939
 20
45.01085057885597
 30
0.0
 10
40.64036763126845
 20
44.89197115384597
 30
0.0
  0
SPLINE
  5
9E
330
1F
100
AcDbEntity
  8
0
  6
Continuous
 62
     7
370
    25
100
AcDbSpline
210
0.0
220
0.0
230
1.0
 70
     8
 71
     3
 72
    15
 73
    11
 74
     0
 42
0.000000001
 43
0.00000001
 40
0.0
 40
0.0
 40
0.0
 40
0.0
 40
0.1409759662687712
 40
0.2735687809631694
 40
0.3989883138042535
 40
0.5199297813924317
 40
0.6381100215247453
 40
0.7565889007405945
 40
0.876859754410608
 40
1.0
 40
1.0
 40
1.0
 40
1.0
 10
35.12754711844794
 20
47.14958333333315
 30
0.0
 10
35.22336893311111
 20
47.26913397001208
 30
0.0
 10
35.40931450752988
 20
47.50112615141181
 30
0.0
 10
35.71898403117391
 20
47.80604207872634
 30
0.0
 10
36.04625231780994
 20
48.05731415028283
 30
0.0
 10
36.38911518491612
 20
48.25761070440948
 30
0.0
 10
36.74803807091593
 20
48.40860106483424
 30
0.0
 10
37.12083312795331
 20
48.51764658222183
 30
0.0
 10
37.5097322882042
 20
48.58303180662079
 30
0.0
 10
37.77420210784288
 20
48.59157532176228
 30
0.0
 10
37.90799583639666
 20
48.59589743589726
 30
0.0
  0
SPLINE
  5
B0
330
1F
100
AcDbEntity
  8
0
  6
Continuous
 62
     7
370
    25
100
AcDbSpline
210
0.0
220
0.0
230
1.0
 70
     8
 71
     3
 72
    15
 73
    11
 74
     0
 42
0.000000001
 43
0.00000001
 40
0.0
 40
0.0
 40
0.0
 40
0.0
 40
0.0708548685015323
 40
0.1569381495573527
 40
0.2586003949600844
 40
0.3758909295892032
 40
0.5081661676989035
 40
0.6562378085782244
 40
0.8201767703979104
 40
1.0
 40
1.0
 40
1.0
 40
1.0
 10
48.10831634921718
 20
46.12394230769213
 30
0.0
 10
48.09479522531696
 20
46.06600752603835
 30
0.0
 10
48.06484696333136
 20
45.93768638706739
 30
0.0
 10
48.03572828377818
 20
45.72240488786239
 30
0.0
 10
48.00695823241659
 20
45.46805157710805
 30
0.0
 10
47.98668217998593
 20
45.17391845458365
 30
0.0
 10
47.96788777390797
 20
44.84074004336031
 30
0.0
 10
47.95728753897328
 20
44.46800877015001
 30
0.0
 10
47.94842142309683
 20
44.05534205260128
 30
0.0
 10
47.94818408917998
 20
43.76684390050923
 30
0.0
 10
47.94805993896077
 20
43.61592948717931
 30
0.0
  0
SPLINE
  5
B1
330
1F
100
AcDbEntity
  8
0
  6
Continuous
 62
     7
370
    25
100
AcDbSpline
210
0.0
220
0.0
230
1.0
 70
     8
 71
     3
 72
    19
 73
    15
 74
     0
 42
0.000000001
 43
0.00000001
 40
0.0
 40
0.0
 40
0.0
 40
0.0
 40
0.0938065293523304
 40
0.1913381281363373
 40
0.2951906166251704
 40
0.4103123367232982
 40
0.4719302510512781
 40
0.5364251593464343
 40
0.6031187283036311
 40
0.6741176724905981
 40
0.7493320232258871
 40
0.8282833841715614
 40
0.9120398092627608
 40
1.0
 40
1.0
 40
1.0
 40
1.0
 10
49.5606400671659
 20
47.69846153846137
 30
0.0
 10
49.48862368570584
 20
47.69366143169403
 30
0.0
 10
49.34173114294943
 20
47.68387060529785
 30
0.0
 10
49.12606114463588
 20
47.60690258310645
 30
0.0
 10
48.91678341463206
 20
47.48254475421172
 30
0.0
 10
48.7505786651006
 20
47.3446272917807
 30
0.0
 10
48.62188651402965
 20
47.21163358473956
 30
0.0
 10
48.53005729822748
 20
47.09549529169105
 30
0.0
 10
48.44582087835982
 20
46.96527063018121
 30
0.0
 10
48.36533453435841
 20
46.82318581931455
 30
0.0
 10
48.29200226518941
 20
46.66681483065098
 30
0.0
 10
48.22356035317875
 20
46.49771993515984
 30
0.0
 10
48.16167788768627
 20
46.31570528153191
 30
0.0
 10
48.12639147561698
 20
46.18889808090255
 30
0.0
 10
48.10831634921718
 20
46.12394230769213
 30
0.0
  0
SPLINE
  5
B2
330
1F
100
AcDbEntity
  8
0
  6
Continuous
 62
     7
370
    25
100
AcDbSpline
210
0.0
220
0.0
230
1.0
 70
     8
 71
     3
 72
    11
 73
     7
 74
     0
 42
0.000000001
 43
0.00000001
 40
0.0
 40
0.0
 40
0.0
 40
0.0
 40
0.2951388013693724
 40
0.5602299448882315
 40
0.7949833567408925
 40
1.0
 40
1.0
 40
1.0
 40
1.0
 10
50.01937404152487
 20
47.56825320512803
 30
0.0
 10
49.97620540968526
 20
47.58751110831415
 30
0.0
 10
49.8942630824677
 20
47.62406629519764
 30
0.0
 10
49.7743928931284
 20
47.66732918128917
 30
0.0
 10
49.66387478818304
 20
47.69280322656952
 30
0.0
 10
49.59346462143198
 20
47.69666241928984
 30
0.0
 10
49.56064006716589
 20
47.69846153846136
 30
0.0
  0
SPLINE
  5
B4
330
1F
100
AcDbEntity
  8
0
  6
Continuous
 62
     7
370
    25
100
AcDbSpline
210
0.0
220
0.0
230
1.0
 70
     8
 71
     3
 72
    11
 73
     7
 74
     0
 42
0.000000001
 43
0.00000001
 40
0.0
 40
0.0
 40
0.0
 40
0.0
 40
0.2252775478670111
 40
0.4635231951764815
 40
0.720323555326919
 40
1.0
 40
1.0
 40
1.0
 40
1.0
 10
49.73091250306334
 20
48.59589743589726
 30
0.0
 10
49.79327343588245
 20
48.59249593134035
 30
0.0
 10
49.92158510789854
 20
48.58549711465599
 30
0.0
 10
50.11582107876782
 20
48.53632332996497
 30
0.0
 10
50.31594522708096
 20
48.45781469409926
 30
0.0
 10
50.44492347636824
 20
48.38398548648499
 30
0.0
 10
50.51216250306334
 20
48.34549679487161
 30
0.0
  0
SPLINE
  5
B5
330
1F
100
AcDbEntity
  8
0
  6
Continuous
 62
     7
370
    25
100
AcDbSpline
210
0.0
220
0.0
230
1.0
 70
     8
 71
     3
 72
    15
 73
    11
 74
     0
 42
0.000000001
 43
0.00000001
 40
0.0
 40
0.0
 40
0.0
 40
0.0
 40
0.1600594124854956
 40
0.3061123827401262
 40
0.4383665141302064
 40
0.5605414552552196
 40
0.6753172249527044
 40
0.7861136344281793
 40
0.8928417881050884
 40
1.0
 40
1.0
 40
1.0
 40
1.0
 10
47.94805993896077
 20
47.39197115384597
 30
0.0
 10
48.01431353539306
 20
47.49213066334853
 30
0.0
 10
48.14102302378898
 20
47.68368494704731
 30
0.0
 10
48.35163139337116
 20
47.93702580702401
 30
0.0
 10
48.56735519702373
 20
48.14678308305661
 30
0.0
 10
48.78922716074527
 20
48.31393599382774
 30
0.0
 10
49.01887887477427
 20
48.43911633332441
 30
0.0
 10
49.25127016539713
 20
48.53081071912881
 30
0.0
 10
49.49005722213271
 20
48.58503161980688
 30
0.0
 10
49.65051986278382
 20
48.59227064539915
 30
0.0
 10
49.73091250306333
 20
48.59589743589726
 30
0.0
  0
SPLINE
  5
BA
330
1F
100
AcDbEntity
  8
0
  6
Continuous
 62
     7
370
    25
100
AcDbSpline
210
0.0
220
0.0
230
1.0
 70
     8
 71
     3
 72
    23
 73
    19
 74
     0
 42
0.000000001
 43
0.00000001
 40
0.0
 40
0.0
 40
0.0
 40
0.0
 40
0.0687422616054885
 40
0.1346351922242759
 40
0.198324187067147
 40
0.2608250125604207
 40
0.3227135881590243
 40
0.3845545346076188
 40
0.4469128577247559
 40
0.5109576325148286
 40
0.5749307010013355
 40
0.6366845377960925
 40
0.6974831152940613
 40
0.7571338075238542
 40
0.8169656636752642
 40
0.8768183516571969
 40
0.9376625803840035
 40
1.0
 40
1.0
 40
1.0
 40
1.0
 10
54.93924583639666
 20
41.03179487179469
 30
0.0
 10
54.80286092351395
 20
41.03528400384524
 30
0.0
 10
54.53574418144581
 20
41.04211764523774
 30
0.0
 10
54.14509851880792
 20
41.09490988160794
 30
0.0
 10
53.77369960756545
 20
41.18278983180643
 30
0.0
 10
53.42161789751002
 20
41.30812552532071
 30
0.0
 10
53.08691833478113
 20
41.46610993603337
 30
0.0
 10
52.7732426292115
 20
41.66214333482814
 30
0.0
 10
52.47838572773758
 20
41.89231520693795
 30
0.0
 10
52.20675148654933
 20
42.15556074136613
 30
0.0
 10
51.96104118561765
 20
42.441303473731
 30
0.0
 10
51.74426116175702
 20
42.74173215514108
 30
0.0
 10
51.56171737275691
 20
43.05433242210457
 30
0.0
 10
51.41212250452229
 20
43.37971152193528
 30
0.0
 10
51.29546018189913
 20
43.71645075561784
 30
0.0
 10
51.21394277427535
 20
44.06557879121736
 30
0.0
 10
51.16153244694416
 20
44.42563412989357
 30
0.0
 10
51.15599196535765
 20
44.67009965259885
 30
0.0
 10
51.15318814408898
 20
44.79381410256393
 30
0.0
  0
SPLINE
  5
BB
330
1F
100
AcDbEntity
  8
0
  6
Continuous
 62
     7
370
    25
100
AcDbSpline
210
0.0
220
0.0
230
1.0
 70
     8
 71
     3
 72
    23
 73
    19
 74
     0
 42
0.000000001
 43
0.00000001
 40
0.0
 40
0.0
 40
0.0
 40
0.0
 40
0.0624160261588174
 40
0.1233369785373291
 40
0.183265139853092
 40
0.2431724430697092
 40
0.3028983539197456
 40
0.3637735975039108
 40
0.425605304952382
 40
0.4896590425101842
 40
0.5537845767921158
 40
0.6162215328110723
 40
0.6778544713083413
 40
0.7395168974879379
 40
0.8020965355763711
 40
0.8658658412779704
 40
0.9315077951965107
 40
1.0
 40
1.0
 40
1.0
 40
1.0
 10
58.71729070819153
 20
44.79381410256392
 30
0.0
 10
58.71448688728324
 20
44.6700996520562
 30
0.0
 10
58.70894640640886
 20
44.42563412827864
 30
0.0
 10
58.65653607386295
 20
44.06557879745442
 30
0.0
 10
58.5750186856422
 20
43.71645073263904
 30
0.0
 10
58.45835629084495
 20
43.37971160763168
 30
0.0
 10
58.30876169294911
 20
43.05433210074203
 30
0.0
 10
58.1262168714246
 20
42.74173338848799
 30
0.0
 10
57.90944082241972
 20
42.44129872199338
 30
0.0
 10
57.66371511739569
 20
42.15557918412935
 30
0.0
 10
57.39213832839173
 20
41.89224714186233
 30
0.0
 10
57.09752076176583
 20
41.66273780028143
 30
0.0
 10
56.78565209390607
 20
41.46610487351451
 30
0.0
 10
56.4523853702641
 20
41.30771511461521
 30
0.0
 10
56.10076397931626
 20
41.18283025658224
 30
0.0
 10
55.73002949901608
 20
41.09511592392397
 30
0.0
 10
55.3407578695497
 20
41.04208254170577
 30
0.0
 10
55.07496580850345
 20
41.03527233238887
 30
0.0
 10
54.93924583639666
 20
41.03179487179469
 30
0.0
  0
SPLINE
  5
BC
330
1F
100
AcDbEntity
  8
0
  6
Continuous
 62
     7
370
    25
100
AcDbSpline
210
0.0
220
0.0
230
1.0
 70
     8
 71
     3
 72
    15
 73
    11
 74
     0
 42
0.000000001
 43
0.00000001
 40
0.0
 40
0.0
 40
0.0
 40
0.0
 40
0.1281572795931866
 40
0.2538343627967346
 40
0.3765056225222094
 40
0.4985336856679092
 40
0.6213677287324632
 40
0.744564744904358
 40
0.8706337982552842
 40
0.9999999999999999
 40
0.9999999999999999
 40
0.9999999999999999
 40
0.9999999999999999
 10
57.71568814408897
 20
47.39197115384597
 30
0.0
 10
57.79563658427454
 20
47.29993119444759
 30
0.0
 10
57.95398624209746
 20
47.11763250240383
 30
0.0
 10
58.15703115292421
 20
46.822045036797
 30
0.0
 10
58.33194989623117
 20
46.51593046367798
 30
0.0
 10
58.47212978476458
 20
46.19522381604579
 30
0.0
 10
58.58265842386519
 20
45.862724755607
 30
0.0
 10
58.6611318417375
 20
45.51729043801051
 30
0.0
 10
58.70780879871011
 20
45.15968373182887
 30
0.0
 10
58.71410298997192
 20
44.91681562303734
 30
0.0
 10
58.71729070819153
 20
44.79381410256392
 30
0.0
  0
SPLINE
  5
BD
330
1F
100
AcDbEntity
  8
0
  6
Continuous
 62
     7
370
    25
100
AcDbSpline
210
0.0
220
0.0
230
1.0
 70
     8
 71
     3
 72
    15
 73
    11
 74
     0
 42
0.000000001
 43
0.00000001
 40
0.0
 40
0.0
 40
0.0
 40
0.0
 40
0.1317514273024062
 40
0.2583323505141595
 40
0.382133976092546
 40
0.503804391600085
 40
0.624692986540933
 40
0.7468705897275765
 40
0.8715135042348159
 40
0.9999999999999999
 40
0.9999999999999999
 40
0.9999999999999999
 40
0.9999999999999999
 10
54.93924583639666
 20
48.59589743589726
 30
0.0
 10
55.07636375880596
 20
48.59297774692914
 30
0.0
 10
55.34521849471945
 20
48.58725295039868
 30
0.0
 10
55.73895531151758
 20
48.52606733424836
 30
0.0
 10
56.11479855704989
 20
48.43250343600373
 30
0.0
 10
56.47418767751708
 20
48.30315611579099
 30
0.0
 10
56.81251995023923
 20
48.12977911422911
 30
0.0
 10
57.13472350483342
 20
47.92289542529933
 30
0.0
 10
57.43991495879031
 20
47.67780230082982
 30
0.0
 10
57.62283789952517
 20
47.48820781975916
 30
0.0
 10
57.71568814408897
 20
47.39197115384597
 30
0.0
  0
SPLINE
  5
BE
330
1F
100
AcDbEntity
  8
0
  6
Continuous
 62
     7
370
    25
100
AcDbSpline
210
0.0
220
0.0
230
1.0
 70
     8
 71
     3
 72
    15
 73
    11
 74
     0
 42
0.000000001
 43
0.00000001
 40
0.0
 40
0.0
 40
0.0
 40
0.0
 40
0.1284975211375116
 40
0.2527129855154527
 40
0.3748191325670452
 40
0.4964364263727303
 40
0.617910556745852
 40
0.7412876173092893
 40
0.8687004007446077
 40
1.0
 40
1.0
 40
1.0
 40
1.0
 10
52.15479070819153
 20
47.38596153846137
 30
0.0
 10
52.2475009682659
 20
47.48303279347143
 30
0.0
 10
52.42983200783694
 20
47.67394049693655
 30
0.0
 10
52.73654265848895
 20
47.918319137185
 30
0.0
 10
53.05795357594742
 20
48.12950791964447
 30
0.0
 10
53.40002479348318
 20
48.29943996379503
 30
0.0
 10
53.75911867335683
 20
48.43326430015617
 30
0.0
 10
54.13688793772218
 20
48.52630862905577
 30
0.0
 10
54.53196083903505
 20
48.58703250039576
 30
0.0
 10
54.80213118502243
 20
48.59291300841129
 30
0.0
 10
54.93924583639666
 20
48.59589743589726
 30
0.0
  0
SPLINE
  5
BF
330
1F
100
AcDbEntity
  8
0
  6
Continuous
 62
     7
370
    25
100
AcDbSpline
210
0.0
220
0.0
230
1.0
 70
     8
 71
     3
 72
    15
 73
    11
 74
     0
 42
0.000000001
 43
0.00000001
 40
0.0
 40
0.0
 40
0.0
 40
0.0
 40
0.1289191318119619
 40
0.255237724924906
 40
0.3786785959785502
 40
0.5010878871851316
 40
0.6227136794297774
 40
0.7462407949383818
 40
0.8715890472316702
 40
1.0
 40
1.0
 40
1.0
 40
1.0
 10
51.15318814408897
 20
44.79381410256392
 30
0.0
 10
51.15639760224222
 20
44.9161470908294
 30
0.0
 10
51.16275177780766
 20
45.15834538342794
 30
0.0
 10
51.2093818037343
 20
45.51527984243122
 30
0.0
 10
51.28754910797563
 20
45.86012952547286
 30
0.0
 10
51.39821024070297
 20
46.19134517114055
 30
0.0
 10
51.53968221467836
 20
46.5106464169682
 30
0.0
 10
51.71214303737604
 20
46.81751736264341
 30
0.0
 10
51.9172591303489
 20
47.11176822115418
 30
0.0
 10
52.07497899186984
 20
47.29383130694865
 30
0.0
 10
52.15479070819153
 20
47.38596153846137
 30
0.0
  0
CIRCLE
  5
C0
330
1F
100
AcDbEntity
  8
0
  6
Continuous
 62
     7
370
    25
100
AcDbCircle
 10
-21.7395
 20
-5.84
 30
0.0
 40
1.500000000000004
  0
CIRCLE
  5
C1
330
1F
100
AcDbEntity
  8
0
  6
Continuous
 62
     7
370
    25
100
AcDbCircle
 10
21.7395
 20
-47.75
 30
0.0
 40
1.499999999999993
  0
CIRCLE
  5
C2
330
1F
100
AcDbEntity
  8
0
  6
Continuous
 62
     7
370
    25
100
AcDbCircle
 10
-21.7395
 20
-47.75
 30
0.0
 40
1.5
  0
CIRCLE
  5
C3
330
1F
100
AcDbEntity
  8
0
  6
Continuous
 62
     7
370
    25
100
AcDbCircle
 10
21.7395
 20
-5.84
 30
0.0
 40
1.500000000000004
  0
CIRCLE
  5
C4
330
1F
100
AcDbEntity
  8
0
  6
Continuous
 62
     7
370
    25
100
AcDbCircle
 10
-37.37
 20
4.16
 30
0.0
 40
1.500000000000004
  0
CIRCLE
  5
C5
330
1F
100
AcDbEntity
  8
0
  6
Continuous
 62
     7
370
    25
100
AcDbCircle
 10
-37.37
 20
35.16
 30
0.0
 40
1.499999999999993
  0
CIRCLE
  5
C6
330
1F
100
AcDbEntity
  8
0
  6
Continuous
 62
     7
370
    25
100
AcDbCircle
 10
37.37
 20
35.16
 30
0.0
 40
1.499999999999993
  0
CIRCLE
  5
C7
330
1F
100
AcDbEntity
  8
0
  6
Continuous
 62
     7
370
    25
100
AcDbCircle
 10
37.37
 20
4.16
 30
0.0
 40
1.500000000000004
  0
CIRCLE
  5
F4
330
1F
100
AcDbEntity
  8
0
  6
Continuous
 62
     7
370
    25
100
AcDbCircle
 10
17.01398224
 20
-26.7486096
 30
0.0
 40
5.750000000000011
  0
CIRCLE
  5
F5
330
1F
100
AcDbEntity
  8
0
  6
Continuous
 62
     7
370
    25
100
AcDbCircle
 10
-0.00021776
 20
-9.7344096
 30
0.0
 40
5.75
  0
CIRCLE
  5
F6
330
1F
100
AcDbEntity
  8
0
  6
Continuous
 62
     7
370
    25
100
AcDbCircle
 10
-17.01441776
 20
-26.7486096
 30
0.0
 40
5.750000000000004
  0
CIRCLE
  5
F7
330
1F
100
AcDbEntity
  8
0
  6
Continuous
 62
     7
370
    25
100
AcDbCircle
 10
-0.00021776
 20
-43.7628096
 30
0.0
 40
5.750000000000014
  0
SPLINE
  5
FC
330
1F
100
AcDbEntity
  8
0
  6
Continuous
 62
     7
370
    25
100
AcDbSpline
210
0.0
220
0.0
230
1.0
 70
     8
 71
     3
 72
    23
 73
    19
 74
     0
 42
0.000000001
 43
0.00000001
 40
0.0
 40
0.0
 40
0.0
 40
0.0
 40
0.0687422616054891
 40
0.1346351922242763
 40
0.1983241870671469
 40
0.2608250125604211
 40
0.3227135881590246
 40
0.3845545346076191
 40
0.4469128577247561
 40
0.5109576325148292
 40
0.5749307010013356
 40
0.6366845377960928
 40
0.6974831152940616
 40
0.757133807523854
 40
0.8169656636752641
 40
0.8768183516571967
 40
0.9376625803840033
 40
0.9999999999999999
 40
0.9999999999999999
 40
0.9999999999999999
 40
0.9999999999999999
 10
28.65719455434537
 20
41.03179487179469
 30
0.0
 10
28.52080964146266
 20
41.03528400384525
 30
0.0
 10
28.25369289939452
 20
41.04211764523775
 30
0.0
 10
27.86304723675663
 20
41.09490988160793
 30
0.0
 10
27.49164832551416
 20
41.18278983180643
 30
0.0
 10
27.13956661545872
 20
41.30812552532072
 30
0.0
 10
26.80486705272984
 20
41.46610993603337
 30
0.0
 10
26.4911913471602
 20
41.66214333482814
 30
0.0
 10
26.19633444568629
 20
41.89231520693796
 30
0.0
 10
25.92470020449802
 20
42.1555607413661
 30
0.0
 10
25.67898990356636
 20
42.441303473731
 30
0.0
 10
25.46220987970572
 20
42.74173215514107
 30
0.0
 10
25.27966609070561
 20
43.05433242210457
 30
0.0
 10
25.13007122247099
 20
43.3797115219353
 30
0.0
 10
25.01340889984783
 20
43.71645075561783
 30
0.0
 10
24.93189149222404
 20
44.06557879121736
 30
0.0
 10
24.87948116489286
 20
44.42563412989357
 30
0.0
 10
24.87394068330635
 20
44.67009965259884
 30
0.0
 10
24.87113686203768
 20
44.79381410256393
 30
0.0
  0
SPLINE
  5
FD
330
1F
100
AcDbEntity
  8
0
  6
Continuous
 62
     7
370
    25
100
AcDbSpline
210
0.0
220
0.0
230
1.0
 70
     8
 71
     3
 72
    23
 73
    19
 74
     0
 42
0.000000001
 43
0.00000001
 40
0.0
 40
0.0
 40
0.0
 40
0.0
 40
0.0624160261588175
 40
0.1233369785373292
 40
0.1832651398530921
 40
0.2431724430697098
 40
0.3028983539197457
 40
0.3637735975039109
 40
0.4256053049523822
 40
0.4896590425101844
 40
0.5537845767921166
 40
0.6162215328110731
 40
0.6778544713083422
 40
0.7395168974879385
 40
0.8020965355763716
 40
0.865865841277971
 40
0.9315077951965113
 40
1.0
 40
1.0
 40
1.0
 40
1.0
 10
32.43523942614024
 20
44.79381410256392
 30
0.0
 10
32.43243560523195
 20
44.6700996520562
 30
0.0
 10
32.42689512435756
 20
44.42563412827864
 30
0.0
 10
32.37448479181167
 20
44.06557879745444
 30
0.0
 10
32.29296740359092
 20
43.71645073263904
 30
0.0
 10
32.17630500879365
 20
43.37971160763168
 30
0.0
 10
32.0267104108978
 20
43.05433210074202
 30
0.0
 10
31.84416558937331
 20
42.74173338848799
 30
0.0
 10
31.62738954036841
 20
42.44129872199338
 30
0.0
 10
31.38166383534441
 20
42.15557918412936
 30
0.0
 10
31.11008704634044
 20
41.89224714186233
 30
0.0
 10
30.81546947971453
 20
41.66273780028142
 30
0.0
 10
30.50360081185477
 20
41.4661048735145
 30
0.0
 10
30.17033408821283
 20
41.30771511461522
 30
0.0
 10
29.81871269726496
 20
41.18283025658221
 30
0.0
 10
29.44797821696479
 20
41.09511592392398
 30
0.0
 10
29.0587065874984
 20
41.04208254170576
 30
0.0
 10
28.79291452645216
 20
41.03527233238888
 30
0.0
 10
28.65719455434537
 20
41.03179487179469
 30
0.0
  0
SPLINE
  5
FE
330
1F
100
AcDbEntity
  8
0
  6
Continuous
 62
     7
370
    25
100
AcDbSpline
210
0.0
220
0.0
230
1.0
 70
     8
 71
     3
 72
    15
 73
    11
 74
     0
 42
0.000000001
 43
0.00000001
 40
0.0
 40
0.0
 40
0.0
 40
0.0
 40
0.128157279593185
 40
0.2538343627967345
 40
0.3765056225222094
 40
0.4985336856679092
 40
0.6213677287324632
 40
0.7445647449043576
 40
0.8706337982552842
 40
0.9999999999999999
 40
0.9999999999999999
 40
0.9999999999999999
 40
0.9999999999999999
 10
31.43363686203768
 20
47.39197115384597
 30
0.0
 10
31.51358530222324
 20
47.29993119444759
 30
0.0
 10
31.67193496004616
 20
47.11763250240382
 30
0.0
 10
31.87497987087292
 20
46.82204503679701
 30
0.0
 10
32.04989861417988
 20
46.51593046367798
 30
0.0
 10
32.19007850271331
 20
46.1952238160458
 30
0.0
 10
32.30060714181391
 20
45.862724755607
 30
0.0
 10
32.37908055968619
 20
45.5172904380105
 30
0.0
 10
32.42575751665881
 20
45.15968373182887
 30
0.0
 10
32.43205170792064
 20
44.91681562303734
 30
0.0
 10
32.43523942614024
 20
44.79381410256392
 30
0.0
  0
SPLINE
  5
FF
330
1F
100
AcDbEntity
  8
0
  6
Continuous
 62
     7
370
    25
100
AcDbSpline
210
0.0
220
0.0
230
1.0
 70
     8
 71
     3
 72
    15
 73
    11
 74
     0
 42
0.000000001
 43
0.00000001
 40
0.0
 40
0.0
 40
0.0
 40
0.0
 40
0.1317514273024053
 40
0.2583323505141587
 40
0.3821339760925454
 40
0.5038043916000856
 40
0.6246929865409326
 40
0.7468705897275764
 40
0.8715135042348158
 40
1.0
 40
1.0
 40
1.0
 40
1.0
 10
28.65719455434537
 20
48.59589743589726
 30
0.0
 10
28.79431247675468
 20
48.59297774692914
 30
0.0
 10
29.06316721266817
 20
48.58725295039867
 30
0.0
 10
29.45690402946628
 20
48.52606733424836
 30
0.0
 10
29.8327472749986
 20
48.43250343600372
 30
0.0
 10
30.19213639546581
 20
48.30315611579101
 30
0.0
 10
30.53046866818795
 20
48.12977911422911
 30
0.0
 10
30.85267222278213
 20
47.92289542529932
 30
0.0
 10
31.15786367673903
 20
47.67780230082983
 30
0.0
 10
31.34078661747388
 20
47.48820781975916
 30
0.0
 10
31.43363686203768
 20
47.39197115384597
 30
0.0
  0
SPLINE
  5
100
330
1F
100
AcDbEntity
  8
0
  6
Continuous
 62
     7
370
    25
100
AcDbSpline
210
0.0
220
0.0
230
1.0
 70
     8
 71
     3
 72
    15
 73
    11
 74
     0
 42
0.000000001
 43
0.00000001
 40
0.0
 40
0.0
 40
0.0
 40
0.0
 40
0.1284975211375115
 40
0.2527129855154525
 40
0.3748191325670448
 40
0.4964364263727298
 40
0.6179105567458514
 40
0.7412876173092896
 40
0.8687004007446079
 40
1.0
 40
1.0
 40
1.0
 40
1.0
 10
25.87273942614024
 20
47.38596153846137
 30
0.0
 10
25.9654496862146
 20
47.48303279347143
 30
0.0
 10
26.14778072578564
 20
47.67394049693655
 30
0.0
 10
26.45449137643763
 20
47.91831913718499
 30
0.0
 10
26.77590229389615
 20
48.12950791964452
 30
0.0
 10
27.11797351143187
 20
48.299439963795
 30
0.0
 10
27.47706739130552
 20
48.43326430015617
 30
0.0
 10
27.85483665567089
 20
48.52630862905577
 30
0.0
 10
28.24990955698376
 20
48.58703250039574
 30
0.0
 10
28.52007990297114
 20
48.59291300841129
 30
0.0
 10
28.65719455434537
 20
48.59589743589726
 30
0.0
  0
SPLINE
  5
101
330
1F
100
AcDbEntity
  8
0
  6
Continuous
 62
     7
370
    25
100
AcDbSpline
210
0.0
220
0.0
230
1.0
 70
     8
 71
     3
 72
    15
 73
    11
 74
     0
 42
0.000000001
 43
0.00000001
 40
0.0
 40
0.0
 40
0.0
 40
0.0
 40
0.128919131811962
 40
0.2552377249249062
 40
0.3786785959785499
 40
0.5010878871851312
 40
0.6227136794297775
 40
0.7462407949383812
 40
0.871589047231671
 40
1.0
 40
1.0
 40
1.0
 40
1.0
 10
24.87113686203768
 20
44.79381410256392
 30
0.0
 10
24.87434632019093
 20
44.91614709082941
 30
0.0
 10
24.88070049575639
 20
45.15834538342794
 30
0.0
 10
24.927330521683
 20
45.51527984243122
 30
0.0
 10
25.00549782592433
 20
45.86012952547285
 30
0.0
 10
25.11615895865168
 20
46.19134517114057
 30
0.0
 10
25.25763093262706
 20
46.51064641696819
 30
0.0
 10
25.43009175532475
 20
46.81751736264341
 30
0.0
 10
25.6352078482976
 20
47.11176822115419
 30
0.0
 10
25.79292770981855
 20
47.29383130694865
 30
0.0
 10
25.87273942614024
 20
47.38596153846137
 30
0.0
  0
SPLINE
  5
102
330
1F
100
AcDbEntity
  8
0
  6
Continuous
 62
     7
370
    25
100
AcDbSpline
210
0.0
220
0.0
230
1.0
 70
     8
 71
     3
 72
    15
 73
    11
 74
     0
 42
0.000000001
 43
0.00000001
 40
0.0
 40
0.0
 40
0.0
 40
0.0
 40
0.1243285095938493
 40
0.2471560163611869
 40
0.3687797492913386
 40
0.4907338624016477
 40
0.6136137718478437
 40
0.7389575757222157
 40
0.867310575191261
 40
1.0
 40
1.0
 40
1.0
 40
1.0
 10
14.85711442614024
 20
42.65238782051265
 30
0.0
 10
14.75586973042653
 20
42.77679121741873
 30
0.0
 10
14.55460265377576
 20
43.02409610429904
 30
0.0
 10
14.29710070077248
 20
43.42491319360887
 30
0.0
 10
14.07667911446025
 20
43.84339379039695
 30
0.0
 10
13.89846219795121
 20
44.28173644404928
 30
0.0
 10
13.7591401032237
 20
44.73895755045065
 30
0.0
 10
13.66262240299585
 20
45.21528759162402
 30
0.0
 10
13.59990353305926
 20
45.71028171220173
 30
0.0
 10
13.59273127939876
 20
46.04695825122997
 30
0.0
 10
13.58908557998639
 20
46.21809294871777
 30
0.0
  0
SPLINE
  5
103
330
1F
100
AcDbEntity
  8
0
  6
Continuous
 62
     7
370
    25
100
AcDbSpline
210
0.0
220
0.0
230
1.0
 70
     8
 71
     3
 72
    23
 73
    19
 74
     0
 42
0.000000001
 43
0.00000001
 40
0.0
 40
0.0
 40
0.0
 40
0.0
 40
0.0696628008990774
 40
0.1377495622582725
 40
0.2039167435177825
 40
0.2687798623293366
 40
0.332413706477224
 40
0.3947535404471388
 40
0.4561800316591685
 40
0.5169956491967197
 40
0.5773959379659518
 40
0.6371983435092756
 40
0.6969991842614544
 40
0.7567561942255592
 40
0.8165539052726075
 40
0.87694799659787
 40
0.9381317879205947
 40
1.0
 40
1.0
 40
1.0
 40
1.0
 10
18.9817137851146
 20
40.90358974358957
 30
0.0
 10
18.87416045066402
 20
40.90433829374897
 30
0.0
 10
18.66148705038761
 20
40.90581845899433
 30
0.0
 10
18.34749061721012
 20
40.92979608016852
 30
0.0
 10
18.04180610063397
 20
40.96250961419702
 30
0.0
 10
17.74530716958625
 20
41.01176713152266
 30
0.0
 10
17.45637581231066
 20
41.06989381739092
 30
0.0
 10
17.177631285194
 20
41.14781169346298
 30
0.0
 10
16.90633068416982
 20
41.23509502659481
 30
0.0
 10
16.64356399646661
 20
41.33768070300832
 30
0.0
 10
16.38910771133349
 20
41.4534412245437
 30
0.0
 10
16.14378253599657
 20
41.58427424997545
 30
0.0
 10
15.9077013005709
 20
41.72907957757913
 30
0.0
 10
15.67854295527017
 20
41.88466532164669
 30
0.0
 10
15.45969271619868
 20
42.05602904127652
 30
0.0
 10
15.24925407234894
 20
42.24079085414405
 30
0.0
 10
15.04604699739864
 20
42.43832802771936
 30
0.0
 10
14.92032504027933
 20
42.5807704658404
 30
0.0
 10
14.85711442614024
 20
42.65238782051264
 30
0.0
  0
SPLINE
  5
104
330
1F
100
AcDbEntity
  8
0
  6
Continuous
 62
     7
370
    25
100
AcDbSpline
210
0.0
220
0.0
230
1.0
 70
     8
 71
     3
 72
    23
 73
    19
 74
     0
 42
0.000000001
 43
0.00000001
 40
0.0
 40
0.0
 40
0.0
 40
0.0
 40
0.0616742388774257
 40
0.1230530616348052
 40
0.183475000731702
 40
0.2437265005106116
 40
0.3042789165122536
 40
0.3648629209606827
 40
0.4259462039686193
 40
0.4873912299654078
 40
0.5492203840754765
 40
0.6111435886926028
 40
0.6735285303101519
 40
0.7369614566573036
 40
0.8007852828728401
 40
0.8660125956416145
 40
0.9321007477905788
 40
1.0
 40
1.0
 40
1.0
 40
1.0
 10
23.33267532357614
 20
43.00094551282034
 30
0.0
 10
23.2694807239158
 20
42.91940707875374
 30
0.0
 10
23.14339422315743
 20
42.75672077511332
 30
0.0
 10
22.93922846033921
 20
42.52737303304458
 30
0.0
 10
22.72415046778006
 20
42.31164721733277
 30
0.0
 10
22.49656272490325
 20
42.11128258525425
 30
0.0
 10
22.25908332036128
 20
41.92226982638328
 30
0.0
 10
22.00744814223368
 20
41.74997887988127
 30
0.0
 10
21.74496519221865
 20
41.59200492478881
 30
0.0
 10
21.47252382391687
 20
41.44735656903995
 30
0.0
 10
21.19041350163222
 20
41.31902157754146
 30
0.0
 10
20.89897225894079
 20
41.20915366956424
 30
0.0
 10
20.59945632892938
 20
41.11451112804275
 30
0.0
 10
20.29185201918059
 20
41.03664845168879
 30
0.0
 10
19.97552128538941
 20
40.97587392633606
 30
0.0
 10
19.65160564512311
 20
40.93524628392246
 30
0.0
 10
19.31940600164016
 20
40.90741224268007
 30
0.0
 10
19.09528765556664
 20
40.90487534034087
 30
0.0
 10
18.9817137851146
 20
40.90358974358956
 30
0.0
  0
SPLINE
  5
106
330
1F
100
AcDbEntity
  8
0
  6
Continuous
 62
     7
370
    25
100
AcDbSpline
210
0.0
220
0.0
230
1.0
 70
     8
 71
     3
 72
    15
 73
    11
 74
     0
 42
0.000000001
 43
0.00000001
 40
0.0
 40
0.0
 40
0.0
 40
0.0
 40
0.1285151895116612
 40
0.2529486363526581
 40
0.3747547340060049
 40
0.4959397538670496
 40
0.6171806414298927
 40
0.7409094692781373
 40
0.8678111481862032
 40
1.0
 40
1.0
 40
1.0
 40
1.0
 10
18.97570416972998
 20
41.92923076923059
 30
0.0
 10
19.15028328114023
 20
41.93405585423317
 30
0.0
 10
19.49389673519714
 20
41.94355277577475
 30
0.0
 10
19.99780538188656
 20
42.02400777326861
 30
0.0
 10
20.4801932836831
 20
42.154458967083
 30
0.0
 10
20.94108638808714
 20
42.3370244594235
 30
0.0
 10
21.37918537724383
 20
42.57435385343133
 30
0.0
 10
21.79517583526957
 20
42.86206207459534
 30
0.0
 10
22.1894088938523
 20
43.20288588248284
 30
0.0
 10
22.42646970024198
 20
43.46312339178908
 30
0.0
 10
22.54741891331972
 20
43.59589743589726
 30
0.0
  0
SPLINE
  5
107
330
1F
100
AcDbEntity
  8
0
  6
Continuous
 62
     7
370
    25
100
AcDbSpline
210
0.0
220
0.0
230
1.0
 70
     8
 71
     3
 72
    23
 73
    19
 74
     0
 42
0.000000001
 43
0.00000001
 40
0.0
 40
0.0
 40
0.0
 40
0.0
 40
0.0643232165798421
 40
0.126290103703556
 40
0.1867264692161331
 40
0.2461464323353441
 40
0.3055756426461387
 40
0.3654293856180519
 40
0.4263263089482597
 40
0.4888399064006411
 40
0.5517249718140474
 40
0.6139185964661592
 40
0.6754837657683961
 40
0.7373338970992857
 40
0.8002290443945265
 40
0.8645022981233229
 40
0.931040739155697
 40
1.0
 40
1.0
 40
1.0
 40
1.0
 10
14.48652147742229
 20
46.1499839743588
 30
0.0
 10
14.49012667463345
 20
46.00218020315103
 30
0.0
 10
14.49720500115189
 20
45.71198710358121
 30
0.0
 10
14.56020024138176
 20
45.28692821632055
 30
0.0
 10
14.65592907363502
 20
44.87972629123403
 30
0.0
 10
14.79940215059417
 20
44.49292674177427
 30
0.0
 10
14.97631372362412
 20
44.12176000446567
 30
0.0
 10
15.19985832792503
 20
43.77250613759017
 30
0.0
 10
15.45876272039419
 20
43.43988738184293
 30
0.0
 10
15.75668963314023
 20
43.13176467399023
 30
0.0
 10
16.08356339310948
 20
42.85029688742424
 30
0.0
 10
16.43427171194924
 20
42.60243808310617
 30
0.0
 10
16.80794110561811
 20
42.39582413320226
 30
0.0
 10
17.2004457632941
 20
42.22389285744134
 30
0.0
 10
17.61480608877584
 20
42.09173077842549
 30
0.0
 10
18.05027695281547
 20
41.99869042555904
 30
0.0
 10
18.50591122495858
 20
41.93799848115441
 30
0.0
 10
18.81725236750148
 20
41.93218794381401
 30
0.0
 10
18.97570416972998
 20
41.92923076923059
 30
0.0
  0
SPLINE
  5
108
330
1F
100
AcDbEntity
  8
0
  6
Continuous
 62
     7
370
    25
100
AcDbSpline
210
0.0
220
0.0
230
1.0
 70
     8
 71
     3
 72
    31
 73
    27
 74
     0
 42
0.000000001
 43
0.00000001
 40
0.0
 40
0.0
 40
0.0
 40
0.0
 40
0.0439549089061942
 40
0.0875018747976044
 40
0.1304626267314901
 40
0.1727520205665171
 40
0.2154030673796034
 40
0.2576498297432391
 40
0.3001527489572936
 40
0.343121489502086
 40
0.3859251632064333
 40
0.4276857274028014
 40
0.4688179504865896
 40
0.5094918001549953
 40
0.5498830310733486
 40
0.5899800229668858
 40
0.6304052300068396
 40
0.6708686260826381
 40
0.7113839438381754
 40
0.7516272580635837
 40
0.7917755768651915
 40
0.8324589188037418
 40
0.8733190450172876
 40
0.9145429556263494
 40
0.9569235582098845
 40
1.0
 40
1.0
 40
1.0
 40
1.0
 10
18.91360481075562
 20
50.39076923076905
 30
0.0
 10
18.81336681264016
 20
50.38961505216951
 30
0.0
 10
18.61382111958049
 20
50.3873174068365
 30
0.0
 10
18.3176826238648
 20
50.3570056205367
 30
0.0
 10
18.02707390634661
 20
50.31440216326652
 30
0.0
 10
17.74218400286481
 20
50.25118695405666
 30
0.0
 10
17.46337554989549
 20
50.17126518526379
 30
0.0
 10
17.18882582970798
 20
50.07576400262467
 30
0.0
 10
16.92250983028768
 20
49.95760731731055
 30
0.0
 10
16.66074343538988
 20
49.82701228886225
 30
0.0
 10
16.40994568968899
 20
49.67950530388135
 30
0.0
 10
16.17264555318233
 20
49.51861001279127
 30
0.0
 10
15.94970850197898
 20
49.3461268801062
 30
0.0
 10
15.74095818159842
 20
49.16140943331248
 30
0.0
 10
15.54618118635423
 20
48.96528954623953
 30
0.0
 10
15.3667888697679
 20
48.75567714169929
 30
0.0
 10
15.2034019832954
 20
48.53324236022142
 30
0.0
 10
15.05278191168566
 20
48.30091833862615
 30
0.0
 10
14.91788838781498
 20
48.05938179109789
 30
0.0
 10
14.80494587526955
 20
47.80773873270218
 30
0.0
 10
14.70493124039635
 20
47.55029843832769
 30
0.0
 10
14.62579054712195
 20
47.28415226453139
 30
0.0
 10
14.56314907046094
 20
47.0111729335507
 30
0.0
 10
14.5199271753939
 20
46.73062782512222
 30
0.0
 10
14.48996011483872
 20
46.44310302627292
 30
0.0
 10
14.48767389512236
 20
46.24821927594599
 30
0.0
 10
14.48652147742229
 20
46.1499839743588
 30
0.0
  0
SPLINE
  5
109
330
1F
100
AcDbEntity
  8
0
  6
Continuous
 62
     7
370
    25
100
AcDbSpline
210
0.0
220
0.0
230
1.0
 70
     8
 71
     3
 72
    19
 73
    15
 74
     0
 42
0.000000001
 43
0.00000001
 40
0.0
 40
0.0
 40
0.0
 40
0.0
 40
0.0631632593634699
 40
0.1254749410306394
 40
0.187121219816032
 40
0.2482943461142978
 40
0.3092948562551199
 40
0.3698500660670924
 40
0.4309733755473805
 40
0.4924559896728159
 40
0.6161479662918543
 40
0.7408436984673622
 40
0.8681826486700429
 40
1.0
 40
1.0
 40
1.0
 40
1.0
 10
22.54741891331972
 20
48.72410256410239
 30
0.0
 10
22.49140208944486
 20
48.79086247790562
 30
0.0
 10
22.38012366994506
 20
48.92348223711512
 30
0.0
 10
22.20109737701963
 20
49.10970950704336
 30
0.0
 10
22.0145212544592
 20
49.28418168253683
 30
0.0
 10
21.82046662241349
 20
49.44772991004801
 30
0.0
 10
21.6154405667365
 20
49.59463495500446
 30
0.0
 10
21.40440971340532
 20
49.73255239198425
 30
0.0
 10
21.18384386995792
 20
49.85617450039144
 30
0.0
 10
20.87883891382813
 20
50.00606874643702
 30
0.0
 10
20.4798450615985
 20
50.16248633218619
 30
0.0
 10
19.97757409281815
 20
50.29363842161536
 30
0.0
 10
19.45325666857613
 20
50.37712749499909
 30
0.0
 10
19.09554924107044
 20
50.38616989916812
 30
0.0
 10
18.91360481075562
 20
50.39076923076905
 30
0.0
  0
SPLINE
  5
10B
330
1F
100
AcDbEntity
  8
0
  6
Continuous
 62
     7
370
    25
100
AcDbSpline
210
0.0
220
0.0
230
1.0
 70
     8
 71
     3
 72
    23
 73
    19
 74
     0
 42
0.000000001
 43
0.00000001
 40
0.0
 40
0.0
 40
0.0
 40
0.0
 40
0.0685475367089034
 40
0.1356829456230485
 40
0.2012149895263287
 40
0.2656822347546969
 40
0.3292668348172596
 40
0.3923954278443291
 40
0.4550697616521445
 40
0.5171268500645064
 40
0.5787900352866528
 40
0.6397398633435418
 40
0.7001915036663086
 40
0.7598062425966704
 40
0.8196283192750088
 40
0.8793547910462775
 40
0.9395116077646622
 40
1.0
 40
1.0
 40
1.0
 40
1.0
 10
18.96969455434537
 20
51.41641025641007
 30
0.0
 10
19.08459304562082
 20
51.41503271872189
 30
0.0
 10
19.31202303789175
 20
51.4123060215973
 30
0.0
 10
19.64845918764136
 20
51.38571704412693
 30
0.0
 10
19.97600869319342
 20
51.34139245490658
 30
0.0
 10
20.29489721329157
 20
51.28106082686914
 30
0.0
 10
20.60667611672843
 20
51.20618276552746
 30
0.0
 10
20.90896251923865
 20
51.10863905605152
 30
0.0
 10
21.20353019599463
 20
50.99710610943551
 30
0.0
 10
21.488521362213
 20
50.86865334961296
 30
0.0
 10
21.76256864832823
 20
50.72446265987911
 30
0.0
 10
22.02558670121754
 20
50.56613230688966
 30
0.0
 10
22.27548629752513
 20
50.39385857687699
 30
0.0
 10
22.51402586448675
 20
50.20910664713519
 30
0.0
 10
22.73721503898975
 20
50.00796790629114
 30
0.0
 10
22.95139069194748
 20
49.79597477493783
 30
0.0
 10
23.14927948669492
 20
49.56702099163112
 30
0.0
 10
23.27143147239239
 20
49.4058640376056
 30
0.0
 10
23.33267532357614
 20
49.32506410256392
 30
0.0
  0
SPLINE
  5
10C
330
1F
100
AcDbEntity
  8
0
  6
Continuous
 62
     7
370
    25
100
AcDbSpline
210
0.0
220
0.0
230
1.0
 70
     8
 71
     3
 72
    23
 73
    19
 74
     0
 42
0.000000001
 43
0.00000001
 40
0.0
 40
0.0
 40
0.0
 40
0.0
 40
0.0645578459297186
 40
0.1270135315497586
 40
0.1879548102020906
 40
0.2480139127896342
 40
0.3077476818488372
 40
0.3682345146974851
 40
0.4294698439426695
 40
0.4927434367465848
 40
0.5562577687060831
 40
0.6182167855431435
 40
0.6796554755875551
 40
0.7412455456206294
 40
0.8034152647056967
 40
0.866815461543992
 40
0.9323283119492655
 40
1.0
 40
1.0
 40
1.0
 40
1.0
 10
13.58908557998639
 20
46.21809294871777
 30
0.0
 10
13.59352899014945
 20
46.39796567312143
 30
0.0
 10
13.6022711222452
 20
46.75185402901324
 30
0.0
 10
13.67654482359304
 20
47.27120818126784
 30
0.0
 10
13.79602709842586
 20
47.76878360656289
 30
0.0
 10
13.96573249441156
 20
48.2436514482425
 30
0.0
 10
14.18089064099837
 20
48.6983093917627
 30
0.0
 10
14.44668096625413
 20
49.12928426275345
 30
0.0
 10
14.76001565831531
 20
49.53933226177207
 30
0.0
 10
15.1184372802685
 20
49.92223155119362
 30
0.0
 10
15.51148680969637
 20
50.27234398725722
 30
0.0
 10
15.93239770652212
 20
50.58036171225245
 30
0.0
 10
16.38034612644392
 20
50.83669747224982
 30
0.0
 10
16.8503971312313
 20
51.05097222203873
 30
0.0
 10
17.34607050713595
 20
51.21567068814115
 30
0.0
 10
17.86630870463719
 20
51.33096550724956
 30
0.0
 10
18.41013417544078
 20
51.40272869664927
 30
0.0
 10
18.78116967729601
 20
51.41180071922876
 30
0.0
 10
18.96969455434537
 20
51.41641025641007
 30
0.0
  0
SPLINE
  5
112
330
1F
100
AcDbEntity
  8
0
  6
Continuous
 62
     7
370
    25
100
AcDbSpline
210
0.0
220
0.0
230
1.0
 70
     8
 71
     3
 72
    15
 73
    11
 74
     0
 42
0.000000001
 43
0.00000001
 40
0.0
 40
0.0
 40
0.0
 40
0.0
 40
0.1185218400132606
 40
0.2362547631617455
 40
0.356174433990931
 40
0.4772496548985568
 40
0.6015398708217017
 40
0.7296183821680414
 40
0.8621582661414386
 40
1.0
 40
1.0
 40
1.0
 40
1.0
 10
-11.9497765995008
 20
47.15759615384597
 30
0.0
 10
-11.88655677575083
 20
47.071300207028
 30
0.0
 10
-11.7605379383323
 20
46.89928272505998
 30
0.0
 10
-11.60268908108907
 20
46.61879370477232
 30
0.0
 10
-11.46566795256428
 20
46.32533486377189
 30
0.0
 10
-11.3561452068078
 20
46.01416258638045
 30
0.0
 10
-11.2674609176748
 20
45.68896378588638
 30
0.0
 10
-11.20329857841713
 20
45.34741365813118
 30
0.0
 10
-11.16567109675474
 20
44.98961391138587
 30
0.0
 10
-11.15827481861635
 20
44.74582375288102
 30
0.0
 10
-11.15450416360337
 20
44.62153846153828
 30
0.0
  0
SPLINE
  5
113
330
1F
100
AcDbEntity
  8
0
  6
Continuous
 62
     7
370
    25
100
AcDbSpline
210
0.0
220
0.0
230
1.0
 70
     8
 71
     3
 72
    15
 73
    11
 74
     0
 42
0.000000001
 43
0.00000001
 40
0.0
 40
0.0
 40
0.0
 40
0.0
 40
0.1320402344259816
 40
0.2590328407793702
 40
0.3818798239250167
 40
0.5022584437149855
 40
0.6227521895274793
 40
0.7447426318590011
 40
0.8701089273418183
 40
1.0
 40
1.0
 40
1.0
 40
1.0
 10
-14.89248493283414
 20
48.59589743589726
 30
0.0
 10
-14.74263463196646
 20
48.59202872477582
 30
0.0
 10
-14.44866250071313
 20
48.58443919544565
 30
0.0
 10
-14.01999929775089
 20
48.51407824284833
 30
0.0
 10
-13.61439725049202
 20
48.40249951552433
 30
0.0
 10
-13.23201866675256
 20
48.24491725695137
 30
0.0
 10
-12.87282477888732
 20
48.04160425183603
 30
0.0
 10
-12.53915035153106
 20
47.7897704190333
 30
0.0
 10
-12.22528888710604
 20
47.49714731267596
 30
0.0
 10
-12.04269294752833
 20
47.27210957145515
 30
0.0
 10
-11.9497765995008
 20
47.15759615384597
 30
0.0
  0
SPLINE
  5
114
330
1F
100
AcDbEntity
  8
0
  6
Continuous
 62
     7
370
    25
100
AcDbSpline
210
0.0
220
0.0
230
1.0
 70
     8
 71
     3
 72
    15
 73
    11
 74
     0
 42
0.000000001
 43
0.00000001
 40
0.0
 40
0.0
 40
0.0
 40
0.0
 40
0.1288352544875543
 40
0.2535893349864755
 40
0.3746432573141691
 40
0.4953400422377913
 40
0.61632477463579
 40
0.7397593354405139
 40
0.8668423203805458
 40
1.0
 40
1.0
 40
1.0
 40
1.0
 10
-17.74905544565465
 20
47.23371794871777
 30
0.0
 10
-17.65846206629513
 20
47.34191472039792
 30
0.0
 10
-17.48014507598579
 20
47.55488086454211
 30
0.0
 10
-17.17855548926049
 20
47.83470465248963
 30
0.0
 10
-16.85198349971082
 20
48.06911543870981
 30
0.0
 10
-16.50452171085321
 20
48.26342154196185
 30
0.0
 10
-16.13213178496581
 20
48.41106053336979
 30
0.0
 10
-15.73981952485842
 20
48.52108219689058
 30
0.0
 10
-15.32311784992524
 20
48.58273365698567
 30
0.0
 10
-15.03824579038753
 20
48.59144175304849
 30
0.0
 10
-14.89248493283414
 20
48.59589743589726
 30
0.0
  0
SPLINE
  5
115
330
1F
100
AcDbEntity
  8
0
  6
Continuous
 62
     7
370
    25
100
AcDbSpline
210
0.0
220
0.0
230
1.0
 70
     8
 71
     3
 72
    15
 73
    11
 74
     0
 42
0.000000001
 43
0.00000001
 40
0.0
 40
0.0
 40
0.0
 40
0.0
 40
0.1280448079611211
 40
0.2537679000244897
 40
0.3774284265813003
 40
0.5005508414825309
 40
0.6232958832424765
 40
0.7465783319335074
 40
0.8723475406047166
 40
0.9999999999999999
 40
0.9999999999999999
 40
0.9999999999999999
 40
0.9999999999999999
 10
-18.5904015995008
 20
44.79381410256392
 30
0.0
 10
-18.58737548141339
 20
44.90608504661414
 30
0.0
 10
-18.58137811498755
 20
45.12859123143377
 30
0.0
 10
-18.5435758652913
 20
45.45792135866316
 30
0.0
 10
-18.47658074223982
 20
45.77800265160189
 30
0.0
 10
-18.38464838809944
 20
46.08910107437008
 30
0.0
 10
-18.26593054186162
 20
46.39069574289606
 30
0.0
 10
-18.12069562981527
 20
46.68297021039079
 30
0.0
 10
-17.9487174075616
 20
46.96561346713496
 30
0.0
 10
-17.81593833968599
 20
47.14390813487157
 30
0.0
 10
-17.74905544565465
 20
47.23371794871777
 30
0.0
  0
SPLINE
  5
116
330
1F
100
AcDbEntity
  8
0
  6
Continuous
 62
     7
370
    25
100
AcDbSpline
210
0.0
220
0.0
230
1.0
 70
     8
 71
     3
 72
    23
 73
    19
 74
     0
 42
0.000000001
 43
0.00000001
 40
0.0
 40
0.0
 40
0.0
 40
0.0
 40
0.0715786576891419
 40
0.1396292246928482
 40
0.2047966973966661
 40
0.2681349633966816
 40
0.32981374698673
 40
0.3913013977745594
 40
0.453433515097054
 40
0.5165516903197664
 40
0.5796312707049233
 40
0.6411189214927527
 40
0.7012940466987742
 40
0.7608103356761335
 40
0.8199317217781439
 40
0.878919575499383
 40
0.9389828222504472
 40
1.0
 40
1.0
 40
1.0
 40
1.0
 10
-14.9145201892444
 20
41.03179487179469
 30
0.0
 10
-15.05492583934566
 20
41.03507251559348
 30
0.0
 10
-15.32881658693799
 20
41.04146624910592
 30
0.0
 10
-15.727501578689
 20
41.09658757606152
 30
0.0
 10
-16.10287134553909
 20
41.18650860090063
 30
0.0
 10
-16.45490478369222
 20
41.31212443373281
 30
0.0
 10
-16.78273979105665
 20
41.47620250256221
 30
0.0
 10
-17.08702794766215
 20
41.67608673628713
 30
0.0
 10
-17.36936945014493
 20
41.91075032111156
 30
0.0
 10
-17.62086719067393
 20
42.18222587393144
 30
0.0
 10
-17.84727828413233
 20
42.47274575191831
 30
0.0
 10
-18.04706634120572
 20
42.77547685044969
 30
0.0
 10
-18.21408757277555
 20
43.08965749180374
 30
0.0
 10
-18.34995217333478
 20
43.41328756049959
 30
0.0
 10
-18.45968035896278
 20
43.74432725633711
 30
0.0
 10
-18.536156655446
 20
44.08578859224915
 30
0.0
 10
-18.58024164968044
 20
44.43674740436394
 30
0.0
 10
-18.58699720835861
 20
44.67416836355754
 30
0.0
 10
-18.5904015995008
 20
44.79381410256392
 30
0.0
  0
SPLINE
  5
117
330
1F
100
AcDbEntity
  8
0
  6
Continuous
 62
     7
370
    25
100
AcDbSpline
210
0.0
220
0.0
230
1.0
 70
     8
 71
     3
 72
    19
 73
    15
 74
     0
 42
0.000000001
 43
0.00000001
 40
0.0
 40
0.0
 40
0.0
 40
0.0
 40
0.0933698567361941
 40
0.1816607660710047
 40
0.2658742270426183
 40
0.3463547840343077
 40
0.4245998617178937
 40
0.5019031838373763
 40
0.5799920909873475
 40
0.6584434305294312
 40
0.7386722364878344
 40
0.821894148436244
 40
0.908800792046615
 40
1.0
 40
1.0
 40
1.0
 40
1.0
 10
-11.53911954821876
 20
43.04902243589726
 30
0.0
 10
-11.60265267747583
 20
42.93632720368206
 30
0.0
 10
-11.72626298743204
 20
42.71706690991717
 30
0.0
 10
-11.93883655283423
 20
42.4158330228541
 30
0.0
 10
-12.16167104591478
 20
42.14483954902907
 30
0.0
 10
-12.4048252402107
 20
41.9113262510751
 30
0.0
 10
-12.66102432293646
 20
41.70775086543454
 30
0.0
 10
-12.93168905089555
 20
41.52964279480896
 30
0.0
 10
-13.21822853013939
 20
41.37787559382092
 30
0.0
 10
-13.52065631522013
 20
41.25001122847016
 30
0.0
 10
-13.8415121756244
 20
41.15169838816178
 30
0.0
 10
-14.18157365108167
 20
41.08225775695892
 30
0.0
 10
-14.54149220930678
 20
41.03933413224338
 30
0.0
 10
-14.78819558035751
 20
41.03434801573751
 30
0.0
 10
-14.9145201892444
 20
41.0317948717947
 30
0.0
  0
SPLINE
  5
119
330
1F
100
AcDbEntity
  8
0
  6
Continuous
 62
     7
370
    25
100
AcDbSpline
210
0.0
220
0.0
230
1.0
 70
     8
 71
     3
 72
    19
 73
    15
 74
     0
 42
0.000000001
 43
0.00000001
 40
0.0
 40
0.0
 40
0.0
 40
0.0
 40
0.0825922633314367
 40
0.1638788940984971
 40
0.2456587396295033
 40
0.3277256953541224
 40
0.4086099609103193
 40
0.4857490859539304
 40
0.5591690561972777
 40
0.6302684758575463
 40
0.7053060284320695
 40
0.7920649660966084
 40
0.8897964374100891
 40
1.0
 40
1.0
 40
1.0
 40
1.0
 10
-15.02669967642388
 20
41.9292307692306
 30
0.0
 10
-14.93712496898384
 20
41.93096807397318
 30
0.0
 10
-14.7593915663337
 20
41.93441521984906
 30
0.0
 10
-14.4947034024963
 20
41.96793496530908
 30
0.0
 10
-14.23430475278338
 20
42.02213575279788
 30
0.0
 10
-13.97927337201989
 20
42.09610715303692
 30
0.0
 10
-13.73478524082932
 20
42.18632673048473
 30
0.0
 10
-13.50836938351152
 20
42.29519203805353
 30
0.0
 10
-13.3001401960083
 20
42.41561988589045
 30
0.0
 10
-13.10552029147602
 20
42.55336181460026
 30
0.0
 10
-12.91674602475592
 20
42.72195663460882
 30
0.0
 10
-12.72948177785667
 20
42.93234440886192
 30
0.0
 10
-12.52869133967588
 20
43.18116591681505
 30
0.0
 10
-12.40300678897942
 20
43.36843924818054
 30
0.0
 10
-12.3363951892444
 20
43.46769230769214
 30
0.0
  0
SPLINE
  5
11A
330
1F
100
AcDbEntity
  8
0
  6
Continuous
 62
     7
370
    25
100
AcDbSpline
210
0.0
220
0.0
230
1.0
 70
     8
 71
     3
 72
    23
 73
    19
 74
     0
 42
0.000000001
 43
0.00000001
 40
0.0
 40
0.0
 40
0.0
 40
0.0
 40
0.0683846151037675
 40
0.1344755875434511
 40
0.1983910577839568
 40
0.2607534774484863
 40
0.3218292228076493
 40
0.3830372384795248
 40
0.4446531231064261
 40
0.5073980112040045
 40
0.569825237973025
 40
0.6307776406313135
 40
0.6909286865237174
 40
0.750945132691736
 40
0.8110494767293276
 40
0.8723308525469934
 40
0.9350040935894057
 40
1.0
 40
1.0
 40
1.0
 40
1.0
 10
-17.69296570206491
 20
44.62153846153828
 30
0.0
 10
-17.68856682655305
 20
44.52525142083224
 30
0.0
 10
-17.67991661527247
 20
44.33590683869023
 30
0.0
 10
-17.63958763479695
 20
44.05884745845461
 30
0.0
 10
-17.5760197097277
 20
43.79492362370137
 30
0.0
 10
-17.48667953076057
 20
43.54611493234861
 30
0.0
 10
-17.37848854431802
 20
43.30917171087635
 30
0.0
 10
-17.24595792492963
 20
43.08585160525171
 30
0.0
 10
-17.08784491363678
 20
42.87717180510912
 30
0.0
 10
-16.91148577253858
 20
42.68126569770021
 30
0.0
 10
-16.71517978586541
 20
42.50680638007819
 30
0.0
 10
-16.50865765094771
 20
42.35065844798027
 30
0.0
 10
-16.28896175097861
 20
42.2197853144678
 30
0.0
 10
-16.05782436956731
 20
42.1135570580294
 30
0.0
 10
-15.81561926915538
 20
42.03039615500336
 30
0.0
 10
-15.56227014025326
 20
41.97363095305217
 30
0.0
 10
-15.29827552209684
 20
41.93561064769541
 30
0.0
 10
-15.11831628200319
 20
41.93138303283674
 30
0.0
 10
-15.02669967642388
 20
41.92923076923059
 30
0.0
  0
SPLINE
  5
12D
330
1F
100
AcDbEntity
  8
0
  6
Continuous
 62
     7
370
    25
100
AcDbSpline
210
0.0
220
0.0
230
1.0
 70
     8
 71
     3
 72
    15
 73
    11
 74
     0
 42
0.000000001
 43
0.00000001
 40
0.0
 40
0.0
 40
0.0
 40
0.0
 40
0.0769954547170568
 40
0.1676150771831743
 40
0.2710523936342353
 40
0.3894595025720756
 40
0.520842802465577
 40
0.6663987586080758
 40
0.8260936125153153
 40
1.0
 40
1.0
 40
1.0
 40
1.0
 10
-42.93935993283413
 20
45.76336538461521
 30
0.0
 10
-42.95061607162182
 20
45.71406480446122
 30
0.0
 10
-42.97512009693885
 20
45.60674002044571
 30
0.0
 10
-43.00158632510701
 20
45.43061310791833
 30
0.0
 10
-43.0256079691118
 20
45.22687032222645
 30
0.0
 10
-43.04571356516487
 20
44.99574941635264
 30
0.0
 10
-43.05801475508081
 20
44.73644120173109
 30
0.0
 10
-43.07142731729125
 20
44.45005309371967
 30
0.0
 10
-43.07631034890949
 20
44.13544312698802
 30
0.0
 10
-43.07714564610248
 20
43.91640971920297
 30
0.0
 10
-43.07758108668028
 20
43.80222756410239
 30
0.0
  0
SPLINE
  5
12E
330
1F
100
AcDbEntity
  8
0
  6
Continuous
 62
     7
370
    25
100
AcDbSpline
210
0.0
220
0.0
230
1.0
 70
     8
 71
     3
 72
    23
 73
    19
 74
     0
 42
0.000000001
 43
0.00000001
 40
0.0
 40
0.0
 40
0.0
 40
0.0
 40
0.0639861098164658
 40
0.1266268580894758
 40
0.1889843719814868
 40
0.2502301939603973
 40
0.3123511629623216
 40
0.3745736184579377
 40
0.4381475308782035
 40
0.5029204126073705
 40
0.5679740951402716
 40
0.63077133374919
 40
0.6929346089254581
 40
0.7543975343123283
 40
0.815218352017296
 40
0.8761169254810904
 40
0.938014604793953
 40
1.0
 40
1.0
 40
1.0
 40
1.0
 10
-40.45338236873157
 20
47.69846153846136
 30
0.0
 10
-40.52557575045976
 20
47.69710152513696
 30
0.0
 10
-40.66844458760766
 20
47.69441009390723
 30
0.0
 10
-40.88030165019664
 20
47.66740638527012
 30
0.0
 10
-41.08579928784798
 20
47.62323936927482
 30
0.0
 10
-41.28699988497591
 20
47.56361469070582
 30
0.0
 10
-41.47987929564745
 20
47.48172249292671
 30
0.0
 10
-41.67063441330511
 20
47.38878143514126
 30
0.0
 10
-41.85208231081891
 20
47.27292940089747
 30
0.0
 10
-42.02809201690028
 20
47.14381333964099
 30
0.0
 10
-42.19184289590934
 20
47.00072989050502
 30
0.0
 10
-42.34420957708262
 20
46.84974557578249
 30
0.0
 10
-42.4800324920858
 20
46.68895813636511
 30
0.0
 10
-42.60308585003921
 20
46.52095828628206
 30
0.0
 10
-42.70930945968942
 20
46.34343874914747
 30
0.0
 10
-42.80203256843888
 20
46.15811215920805
 30
0.0
 10
-42.88070598212955
 20
45.96473459113985
 30
0.0
 10
-42.91979938918625
 20
45.83052013048054
 30
0.0
 10
-42.93935993283413
 20
45.76336538461521
 30
0.0
  0
SPLINE
  5
12F
330
1F
100
AcDbEntity
  8
0
  6
Continuous
 62
     7
370
    25
100
AcDbSpline
210
0.0
220
0.0
230
1.0
 70
     8
 71
     3
 72
    15
 73
    11
 74
     0
 42
0.000000001
 43
0.00000001
 40
0.0
 40
0.0
 40
0.0
 40
0.0
 40
0.1355195283706064
 40
0.2608331631936801
 40
0.378476029124503
 40
0.4931776464746757
 40
0.6092809649289395
 40
0.7299810378566443
 40
0.859261308930066
 40
1.0
 40
1.0
 40
1.0
 40
1.0
 10
-38.56836634309054
 20
46.26016025641007
 30
0.0
 10
-38.59872500453719
 20
46.37362078483194
 30
0.0
 10
-38.65715603503632
 20
46.59199719804499
 30
0.0
 10
-38.80153884396531
 20
46.88820963410627
 30
0.0
 10
-38.98386507478635
 20
47.14020445647568
 30
0.0
 10
-39.20643035868684
 20
47.34642366111682
 30
0.0
 10
-39.46708486051648
 20
47.50691176598828
 30
0.0
 10
-39.76510526842456
 20
47.6182659223513
 30
0.0
 10
-40.09761567034548
 20
47.68791240577674
 30
0.0
 10
-40.33148533512687
 20
47.69484706867768
 30
0.0
 10
-40.45338236873157
 20
47.69846153846136
 30
0.0
  0
SPLINE
  5
130
330
1F
100
AcDbEntity
  8
0
  6
Continuous
 62
     7
370
    25
100
AcDbSpline
210
0.0
220
0.0
230
1.0
 70
     8
 71
     3
 72
    15
 73
    11
 74
     0
 42
0.000000001
 43
0.00000001
 40
0.0
 40
0.0
 40
0.0
 40
0.0
 40
0.178850019411159
 40
0.3421096489422994
 40
0.4898256633683903
 40
0.6232544282245632
 40
0.7400796760857928
 40
0.8414826730699855
 40
0.9289076721840663
 40
1.0
 40
1.0
 40
1.0
 40
1.0
 10
-38.46219647129567
 20
44.59749999999983
 30
0.0
 10
-38.46274849420694
 20
44.69699269979627
 30
0.0
 10
-38.46380442008834
 20
44.8873053020076
 30
0.0
 10
-38.46713483918703
 20
45.1597882254086
 30
0.0
 10
-38.47516285805263
 20
45.4068927351308
 30
0.0
 10
-38.48644375209847
 20
45.62802807057489
 30
0.0
 10
-38.50295526789632
 20
45.82298188932729
 30
0.0
 10
-38.52016278603919
 20
45.99215125143732
 30
0.0
 10
-38.54120557688761
 20
46.13532137267393
 30
0.0
 10
-38.55995675727949
 20
46.22150732234001
 30
0.0
 10
-38.56836634309054
 20
46.26016025641007
 30
0.0
  0
SPLINE
  5
134
330
1F
100
AcDbEntity
  8
0
  6
Continuous
 62
     7
370
    25
100
AcDbSpline
210
0.0
220
0.0
230
1.0
 70
     8
 71
     3
 72
    23
 73
    19
 74
     0
 42
0.000000001
 43
0.00000001
 40
0.0
 40
0.0
 40
0.0
 40
0.0
 40
0.077240423616479
 40
0.1511781404663828
 40
0.2234879838003991
 40
0.2955426441988693
 40
0.3669762546197884
 40
0.4371305254863868
 40
0.5070436156432687
 40
0.5785597335236777
 40
0.6166135446965525
 40
0.6587562369775278
 40
0.7044912261144038
 40
0.7548031149051493
 40
0.8093316253185653
 40
0.86827445547282
 40
0.9320728834092934
 40
1.0
 40
1.0
 40
1.0
 40
1.0
 10
-40.29713236873157
 20
48.59589743589726
 30
0.0
 10
-40.16190198554143
 20
48.59091116320813
 30
0.0
 10
-39.89722350621626
 20
48.58115182479819
 30
0.0
 10
-39.51185761655321
 20
48.50396127876662
 30
0.0
 10
-39.15193363459102
 20
48.37211769269619
 30
0.0
 10
-38.8187349037679
 20
48.1915117772589
 30
0.0
 10
-38.51837143701749
 20
47.96692185324805
 30
0.0
 10
-38.25458614708558
 20
47.70527104822189
 30
0.0
 10
-38.03640544029249
 20
47.40431081040587
 30
0.0
 10
-37.89012726029333
 20
47.12510179258699
 30
0.0
 10
-37.79376826689049
 20
46.87741952323616
 30
0.0
 10
-37.73310444542243
 20
46.66528595152515
 30
0.0
 10
-37.6815873555385
 20
46.42894837675637
 30
0.0
 10
-37.63692521834509
 20
46.16912097945811
 30
0.0
 10
-37.60670489872383
 20
45.88398329302279
 30
0.0
 10
-37.58286978006305
 20
45.57470417287157
 30
0.0
 10
-37.56578779638218
 20
45.24138380002707
 30
0.0
 10
-37.56511006213432
 20
45.01085057885597
 30
0.0
 10
-37.56476057385977
 20
44.89197115384597
 30
0.0
  0
SPLINE
  5
135
330
1F
100
AcDbEntity
  8
0
  6
Continuous
 62
     7
370
    25
100
AcDbSpline
210
0.0
220
0.0
230
1.0
 70
     8
 71
     3
 72
    15
 73
    11
 74
     0
 42
0.000000001
 43
0.00000001
 40
0.0
 40
0.0
 40
0.0
 40
0.0
 40
0.1409759662687712
 40
0.2735687809631694
 40
0.3989883138042535
 40
0.5199297813924317
 40
0.6381100215247453
 40
0.7565889007405945
 40
0.876859754410608
 40
1.0
 40
1.0
 40
1.0
 40
1.0
 10
-43.07758108668028
 20
47.14958333333315
 30
0.0
 10
-42.98175927201709
 20
47.26913397001208
 30
0.0
 10
-42.79581369759835
 20
47.50112615141181
 30
0.0
 10
-42.48614417395432
 20
47.80604207872634
 30
0.0
 10
-42.15887588731827
 20
48.05731415028283
 30
0.0
 10
-41.8160130202121
 20
48.25761070440948
 30
0.0
 10
-41.45709013421232
 20
48.40860106483424
 30
0.0
 10
-41.08429507717487
 20
48.51764658222183
 30
0.0
 10
-40.69539591692403
 20
48.58303180662079
 30
0.0
 10
-40.43092609728535
 20
48.59157532176228
 30
0.0
 10
-40.29713236873157
 20
48.59589743589726
 30
0.0
  0
SPLINE
  5
13A
330
1F
100
AcDbEntity
  8
0
  6
Continuous
 62
     7
370
    25
100
AcDbSpline
210
0.0
220
0.0
230
1.0
 70
     8
 71
     3
 72
    19
 73
    15
 74
     0
 42
0.000000001
 43
0.00000001
 40
0.0
 40
0.0
 40
0.0
 40
0.0
 40
0.0847327446980154
 40
0.168178653646314
 40
0.25148819761228
 40
0.3358406713894907
 40
0.4198344941507969
 40
0.5023448759880107
 40
0.5836490197324398
 40
0.6659310052762729
 40
0.7487165252643908
 40
0.831047336137363
 40
0.9144098067945606
 40
1.0
 40
1.0
 40
1.0
 40
1.0
 10
52.05062404152486
 20
44.78780448717931
 30
0.0
 10
52.05521496619778
 20
44.65994155243681
 30
0.0
 10
52.06432709319466
 20
44.4061575366717
 30
0.0
 10
52.1384277687234
 20
44.03241147199583
 30
0.0
 10
52.2623885683873
 20
43.67360618022801
 30
0.0
 10
52.4297807961279
 20
43.3318450772496
 30
0.0
 10
52.63951284950095
 20
43.01563856856759
 30
0.0
 10
52.88661875429045
 20
42.73372004184245
 30
0.0
 10
53.16844646961309
 20
42.49033200913545
 30
0.0
 10
53.48163647016841
 20
42.28838673610924
 30
0.0
 10
53.81979166420194
 20
42.12793029126617
 30
0.0
 10
54.17766686736933
 20
42.01421893207566
 30
0.0
 10
54.55092599321421
 20
41.94029981094064
 30
0.0
 10
54.8060137964979
 20
41.93295274135534
 30
0.0
 10
54.93523942614025
 20
41.92923076923059
 30
0.0
  0
SPLINE
  5
13B
330
1F
100
AcDbEntity
  8
0
  6
Continuous
 62
     7
370
    25
100
AcDbSpline
210
0.0
220
0.0
230
1.0
 70
     8
 71
     3
 72
    23
 73
    19
 74
     0
 42
0.000000001
 43
0.00000001
 40
0.0
 40
0.0
 40
0.0
 40
0.0
 40
0.0638458997347868
 40
0.1260436278408435
 40
0.1871653577195685
 40
0.2473992895212634
 40
0.3083800306041635
 40
0.3697796166640493
 40
0.4325839246869357
 40
0.4976407859952571
 40
0.5624011369620614
 40
0.6255571033330407
 40
0.6873320046201731
 40
0.7483127457030745
 40
0.8097910391226144
 40
0.8717675719729282
 40
0.9348361909503156
 40
1.0
 40
1.0
 40
1.0
 40
1.0
 10
54.93523942614025
 20
47.69846153846136
 30
0.0
 10
54.83827482236384
 20
47.69570556224917
 30
0.0
 10
54.6468487404557
 20
47.69026475490724
 30
0.0
 10
54.36507849843279
 20
47.64888217002078
 30
0.0
 10
54.093820915769
 20
47.58331787268231
 30
0.0
 10
53.83256136110766
 20
47.49016342622556
 30
0.0
 10
53.58218086848935
 20
47.36988085790767
 30
0.0
 10
53.34243971876616
 20
47.22214268590389
 30
0.0
 10
53.11263274760049
 20
47.04890566739243
 30
0.0
 10
52.8972554237118
 20
46.85044089136377
 30
0.0
 10
52.69959167467659
 20
46.63364376410792
 30
0.0
 10
52.52679745583077
 20
46.40264845300796
 30
0.0
 10
52.37986858048515
 20
46.16120174936083
 30
0.0
 10
52.25746812637677
 20
45.90905257467521
 30
0.0
 10
52.16630473181801
 20
45.64364567781039
 30
0.0
 10
52.10009609614671
 20
45.36798673144753
 30
0.0
 10
52.05875255196698
 20
45.08151411292734
 30
0.0
 10
52.05336289885898
 20
44.88676834634015
 30
0.0
 10
52.05062404152486
 20
44.78780448717931
 30
0.0
  0
SPLINE
  5
13C
330
1F
100
AcDbEntity
  8
0
  6
Continuous
 62
     7
370
    25
100
AcDbSpline
210
0.0
220
0.0
230
1.0
 70
     8
 71
     3
 72
    19
 73
    15
 74
     0
 42
0.000000001
 43
0.00000001
 40
0.0
 40
0.0
 40
0.0
 40
0.0
 40
0.085605694973526
 40
0.1689832639222348
 40
0.2509075823297908
 40
0.3337080961143222
 40
0.4160049842563384
 40
0.497659567574379
 40
0.5798932856419644
 40
0.6639023210428562
 40
0.7484662538082588
 40
0.8317908864798549
 40
0.9152519088316873
 40
1.0
 40
1.0
 40
1.0
 40
1.0
 10
54.93523942614025
 20
41.92923076923059
 30
0.0
 10
55.06445762309234
 20
41.93297442713675
 30
0.0
 10
55.31953075445194
 20
41.94036430385214
 30
0.0
 10
55.69227125969172
 20
42.01384664593043
 30
0.0
 10
56.04916832217348
 20
42.12842853365731
 30
0.0
 10
56.38697228650737
 20
42.28820627616162
 30
0.0
 10
56.70001972488982
 20
42.49109888978941
 30
0.0
 10
56.98387435724128
 20
42.73234568142799
 30
0.0
 10
57.22887038905282
 20
43.01638525672069
 30
0.0
 10
57.43839497450466
 20
43.33226391049361
 30
0.0
 10
57.60852852510465
 20
43.67307634504521
 30
0.0
 10
57.73190910165163
 20
44.03247769449479
 30
0.0
 10
57.80618791845687
 20
44.40614067139651
 30
0.0
 10
57.81527600053374
 20
44.65993590207439
 30
0.0
 10
57.81985481075564
 20
44.78780448717931
 30
0.0
  0
SPLINE
  5
13D
330
1F
100
AcDbEntity
  8
0
  6
Continuous
 62
     7
370
    25
100
AcDbSpline
210
0.0
220
0.0
230
1.0
 70
     8
 71
     3
 72
    23
 73
    19
 74
     0
 42
0.000000001
 43
0.00000001
 40
0.0
 40
0.0
 40
0.0
 40
0.0
 40
0.0651847959860713
 40
0.128273727113927
 40
0.1902702203927575
 40
0.2517683137756819
 40
0.3127686945781248
 40
0.3747932794097872
 40
0.4379695860627117
 40
0.503047399863371
 40
0.5681252136640302
 40
0.6309497487122616
 40
0.6923691093867028
 40
0.7529731677502617
 40
0.8136410669177468
 40
0.8743552086918153
 40
0.9365729684654834
 40
1.0
 40
1.0
 40
1.0
 40
1.0
 10
57.81985481075564
 20
44.78780448717931
 30
0.0
 10
57.81711689639573
 20
44.8867689377831
 30
0.0
 10
57.81172909891704
 20
45.08151586823978
 30
0.0
 10
57.77037205783125
 20
45.3679800213639
 30
0.0
 10
57.70421337307862
 20
45.64367029744832
 30
0.0
 10
57.61286589520992
 20
45.90896173539892
 30
0.0
 10
57.4909972842141
 20
46.16185460488984
 30
0.0
 10
57.34123501827786
 20
46.40193953933871
 30
0.0
 10
57.16914637425793
 20
46.63444395663115
 30
0.0
 10
56.96909745740628
 20
46.84974007316747
 30
0.0
 10
56.75394494917216
 20
47.04898303480518
 30
0.0
 10
56.52404484007997
 20
47.22220986166084
 30
0.0
 10
56.2846591869853
 20
47.36923156307645
 30
0.0
 10
56.03500609366797
 20
47.49119225042632
 30
0.0
 10
55.77371304324678
 20
47.58247036564322
 30
0.0
 10
55.50283553130151
 20
47.64926074136658
 30
0.0
 10
55.22226750290245
 20
47.69008987460323
 30
0.0
 10
55.03152737958762
 20
47.69565313592129
 30
0.0
 10
54.93523942614025
 20
47.69846153846136
 30
0.0
  0
SPLINE
  5
13E
330
1F
100
AcDbEntity
  8
0
  6
Continuous
 62
     7
370
    25
100
AcDbSpline
210
0.0
220
0.0
230
1.0
 70
     8
 71
     3
 72
    19
 73
    15
 74
     0
 42
0.000000001
 43
0.00000001
 40
0.0
 40
0.0
 40
0.0
 40
0.0
 40
0.0847327446980153
 40
0.168178653646314
 40
0.25148819761228
 40
0.3358406713894907
 40
0.4198344941507969
 40
0.5023448759880101
 40
0.5836490197324399
 40
0.665931005276273
 40
0.7487165252643917
 40
0.8310473361373633
 40
0.9144098067945614
 40
1.0
 40
1.0
 40
1.0
 40
1.0
 10
25.76857275947357
 20
44.78780448717931
 30
0.0
 10
25.7731636841465
 20
44.6599415524368
 30
0.0
 10
25.78227581114338
 20
44.40615753667171
 30
0.0
 10
25.85637648667209
 20
44.03241147199583
 30
0.0
 10
25.98033728633602
 20
43.67360618022802
 30
0.0
 10
26.14772951407659
 20
43.33184507724958
 30
0.0
 10
26.35746156744966
 20
43.0156385685676
 30
0.0
 10
26.60456747223916
 20
42.73372004184246
 30
0.0
 10
26.88639518756178
 20
42.49033200913544
 30
0.0
 10
27.19958518811712
 20
42.28838673610923
 30
0.0
 10
27.53774038215063
 20
42.12793029126616
 30
0.0
 10
27.89561558531803
 20
42.01421893207564
 30
0.0
 10
28.26887471116292
 20
41.94029981094067
 30
0.0
 10
28.52396251444661
 20
41.93295274135535
 30
0.0
 10
28.65318814408896
 20
41.92923076923059
 30
0.0
  0
SPLINE
  5
13F
330
1F
100
AcDbEntity
  8
0
  6
Continuous
 62
     7
370
    25
100
AcDbSpline
210
0.0
220
0.0
230
1.0
 70
     8
 71
     3
 72
    23
 73
    19
 74
     0
 42
0.000000001
 43
0.00000001
 40
0.0
 40
0.0
 40
0.0
 40
0.0
 40
0.0638458997347868
 40
0.1260436278408443
 40
0.1871653577195679
 40
0.2473992895212634
 40
0.3083800306041635
 40
0.3697796166640501
 40
0.4325839246869352
 40
0.4976407859952572
 40
0.5624011369620615
 40
0.6255571033330408
 40
0.6873320046201727
 40
0.7483127457030743
 40
0.8097910391226146
 40
0.8717675719729283
 40
0.9348361909503158
 40
1.0
 40
1.0
 40
1.0
 40
1.0
 10
28.65318814408896
 20
47.69846153846136
 30
0.0
 10
28.55622354031255
 20
47.69570556224916
 30
0.0
 10
28.36479745840441
 20
47.69026475490725
 30
0.0
 10
28.08302721638149
 20
47.64888217002078
 30
0.0
 10
27.81176963371769
 20
47.58331787268229
 30
0.0
 10
27.55051007905635
 20
47.49016342622554
 30
0.0
 10
27.30012958643806
 20
47.36988085790769
 30
0.0
 10
27.06038843671487
 20
47.22214268590389
 30
0.0
 10
26.83058146554921
 20
47.04890566739245
 30
0.0
 10
26.61520414166049
 20
46.85044089136375
 30
0.0
 10
26.41754039262529
 20
46.63364376410793
 30
0.0
 10
26.24474617377949
 20
46.40264845300797
 30
0.0
 10
26.09781729843386
 20
46.16120174936083
 30
0.0
 10
25.97541684432548
 20
45.9090525746752
 30
0.0
 10
25.88425344976673
 20
45.6436456778104
 30
0.0
 10
25.81804481409538
 20
45.36798673144751
 30
0.0
 10
25.77670126991567
 20
45.08151411292734
 30
0.0
 10
25.77131161680769
 20
44.88676834634015
 30
0.0
 10
25.76857275947357
 20
44.78780448717931
 30
0.0
  0
SPLINE
  5
140
330
1F
100
AcDbEntity
  8
0
  6
Continuous
 62
     7
370
    25
100
AcDbSpline
210
0.0
220
0.0
230
1.0
 70
     8
 71
     3
 72
    19
 73
    15
 74
     0
 42
0.000000001
 43
0.00000001
 40
0.0
 40
0.0
 40
0.0
 40
0.0
 40
0.0856056949735268
 40
0.1689832639222348
 40
0.2509075823297908
 40
0.3337080961143222
 40
0.4160049842563384
 40
0.497659567574379
 40
0.5798932856419644
 40
0.6639023210428562
 40
0.7484662538082588
 40
0.8317908864798549
 40
0.9152519088316873
 40
1.0
 40
1.0
 40
1.0
 40
1.0
 10
28.65318814408896
 20
41.92923076923059
 30
0.0
 10
28.78240634104105
 20
41.93297442713675
 30
0.0
 10
29.03747947240064
 20
41.94036430385214
 30
0.0
 10
29.41021997764041
 20
42.01384664593043
 30
0.0
 10
29.76711704012219
 20
42.12842853365731
 30
0.0
 10
30.10492100445606
 20
42.28820627616162
 30
0.0
 10
30.41796844283854
 20
42.49109888978941
 30
0.0
 10
30.70182307518997
 20
42.73234568142799
 30
0.0
 10
30.94681910700153
 20
43.01638525672069
 30
0.0
 10
31.15634369245337
 20
43.33226391049361
 30
0.0
 10
31.32647724305334
 20
43.67307634504521
 30
0.0
 10
31.44985781960034
 20
44.03247769449479
 30
0.0
 10
31.52413663640556
 20
44.40614067139651
 30
0.0
 10
31.53322471848246
 20
44.65993590207439
 30
0.0
 10
31.53780352870434
 20
44.78780448717931
 30
0.0
  0
SPLINE
  5
141
330
1F
100
AcDbEntity
  8
0
  6
Continuous
 62
     7
370
    25
100
AcDbSpline
210
0.0
220
0.0
230
1.0
 70
     8
 71
     3
 72
    23
 73
    19
 74
     0
 42
0.000000001
 43
0.00000001
 40
0.0
 40
0.0
 40
0.0
 40
0.0
 40
0.0651847959860713
 40
0.128273727113927
 40
0.1902702203927576
 40
0.2517683137756825
 40
0.3127686945781244
 40
0.3747932794097872
 40
0.4379695860627115
 40
0.5030473998633709
 40
0.5681252136640301
 40
0.6309497487122622
 40
0.6923691093867027
 40
0.7529731677502617
 40
0.8136410669177467
 40
0.8743552086918144
 40
0.9365729684654833
 40
1.0
 40
1.0
 40
1.0
 40
1.0
 10
31.53780352870434
 20
44.78780448717931
 30
0.0
 10
31.53506561434444
 20
44.88676893778311
 30
0.0
 10
31.52967781686574
 20
45.08151586823977
 30
0.0
 10
31.48832077577993
 20
45.36798002136391
 30
0.0
 10
31.42216209102731
 20
45.64367029744832
 30
0.0
 10
31.3308146131586
 20
45.90896173539891
 30
0.0
 10
31.20894600216282
 20
46.16185460488985
 30
0.0
 10
31.05918373622657
 20
46.4019395393387
 30
0.0
 10
30.88709509220666
 20
46.63444395663117
 30
0.0
 10
30.68704617535498
 20
46.84974007316746
 30
0.0
 10
30.47189366712088
 20
47.04898303480518
 30
0.0
 10
30.24199355802867
 20
47.22220986166084
 30
0.0
 10
30.00260790493402
 20
47.36923156307647
 30
0.0
 10
29.7529548116167
 20
47.49119225042633
 30
0.0
 10
29.49166176119548
 20
47.58247036564322
 30
0.0
 10
29.22078424925023
 20
47.64926074136658
 30
0.0
 10
28.94021622085117
 20
47.69008987460323
 30
0.0
 10
28.74947609753633
 20
47.6956531359213
 30
0.0
 10
28.65318814408896
 20
47.69846153846136
 30
0.0
  0
SPLINE
  5
142
330
1F
100
AcDbEntity
  8
0
  6
Continuous
 62
     7
370
    25
100
AcDbSpline
210
0.0
220
0.0
230
1.0
 70
     8
 71
     3
 72
    15
 73
    11
 74
     0
 42
0.000000001
 43
0.00000001
 40
0.0
 40
0.0
 40
0.0
 40
0.0
 40
0.1310919762569282
 40
0.2591412763281423
 40
0.3841617634834043
 40
0.5059919524977758
 40
0.6290980893898578
 40
0.7506691234237096
 40
0.8740389376151275
 40
1.0
 40
1.0
 40
1.0
 40
1.0
 10
1.692050323576123
 20
47.69846153846136
 30
0.0
 10
1.602480499243079
 20
47.6967139054754
 30
0.0
 10
1.425419787665578
 20
47.69325920248392
 30
0.0
 10
1.164559592827902
 20
47.66048740439047
 30
0.0
 10
0.914046167347419
 20
47.60631641904226
 30
0.0
 10
0.6720310598864574
 20
47.53213082875043
 30
0.0
 10
0.4416857216803104
 20
47.43324910731394
 30
0.0
 10
0.2182720981982879
 20
47.31729703128688
 30
0.0
 10
0.0074709660702607
 20
47.17574964899407
 30
0.0
 10
-0.1243613067212789
 20
47.06786720661641
 30
0.0
 10
-0.1909624969366978
 20
47.01336538461521
 30
0.0
  0
SPLINE
  5
143
330
1F
100
AcDbEntity
  8
0
  6
Continuous
 62
     7
370
    25
100
AcDbSpline
210
0.0
220
0.0
230
1.0
 70
     8
 71
     3
 72
    15
 73
    11
 74
     0
 42
0.000000001
 43
0.00000001
 40
0.0
 40
0.0
 40
0.0
 40
0.0
 40
0.109983845111873
 40
0.2225804973638904
 40
0.338499870962445
 40
0.4587085654776351
 40
0.5855353464579959
 40
0.7175177429458911
 40
0.8546668197510223
 40
1.0
 40
1.0
 40
1.0
 40
1.0
 10
-0.1909624969366978
 20
47.01336538461521
 30
0.0
 10
-0.2386575882634641
 20
46.97023876854533
 30
0.0
 10
-0.3351808289133023
 20
46.88296100839165
 30
0.0
 10
-0.4641537474541408
 20
46.73259184681729
 30
0.0
 10
-0.5876408122718365
 20
46.57044452635434
 30
0.0
 10
-0.700022677279399
 20
46.39031559893108
 30
0.0
 10
-0.803101495735811
 20
46.19425623034081
 30
0.0
 10
-0.8995585733956817
 20
45.98392012966992
 30
0.0
 10
-0.9863768936288729
 20
45.75771118606534
 30
0.0
 10
-1.035222922295952
 20
45.60007564541309
 30
0.0
 10
-1.060353522577723
 20
45.51897435897418
 30
0.0
  0
SPLINE
  5
145
330
1F
100
AcDbEntity
  8
0
  6
Continuous
 62
     7
370
    25
100
AcDbSpline
210
0.0
220
0.0
230
1.0
 70
     8
 71
     3
 72
    19
 73
    15
 74
     0
 42
0.000000001
 43
0.00000001
 40
0.0
 40
0.0
 40
0.0
 40
0.0
 40
0.0962401251801511
 40
0.1852312611287004
 40
0.2675005230774398
 40
0.3444003817777773
 40
0.4195948685557308
 40
0.4968906265927779
 40
0.5766379188385163
 40
0.6602678524196388
 40
0.745386615087629
 40
0.830040327386453
 40
0.9144742116388024
 40
0.9999999999999999
 40
0.9999999999999999
 40
0.9999999999999999
 40
0.9999999999999999
 10
4.486521477422277
 20
45.51897435897419
 30
0.0
 10
4.453673978697873
 20
45.63801114104422
 30
0.0
 10
4.39045311731334
 20
45.86711862840735
 30
0.0
 10
4.258349218894986
 20
46.18437831539012
 30
0.0
 10
4.109573388334506
 20
46.46634374684619
 30
0.0
 10
3.933511298692192
 20
46.71085698414929
 30
0.0
 10
3.734029225473217
 20
46.92800987838395
 30
0.0
 10
3.50361441790772
 20
47.11777726457758
 30
0.0
 10
3.245226150784517
 20
47.28754141048454
 30
0.0
 10
2.960200034562197
 20
47.43083426610412
 30
0.0
 10
2.658366362916716
 20
47.55280529102519
 30
0.0
 10
2.342348671569539
 20
47.63459133602411
 30
0.0
 10
2.01989784908152
 20
47.69061859973739
 30
0.0
 10
1.801799888088088
 20
47.695836052397
 30
0.0
 10
1.692050323576123
 20
47.69846153846136
 30
0.0
  0
SPLINE
  5
146
330
1F
100
AcDbEntity
  8
0
  6
Continuous
 62
     7
370
    25
100
AcDbSpline
210
0.0
220
0.0
230
1.0
 70
     8
 71
     3
 72
    15
 73
    11
 74
     0
 42
0.000000001
 43
0.00000001
 40
0.0
 40
0.0
 40
0.0
 40
0.0
 40
0.1310919762569278
 40
0.2591412763281424
 40
0.384161763483405
 40
0.5059919524977755
 40
0.6290980893898578
 40
0.7506691234237093
 40
0.8740389376151283
 40
1.0
 40
1.0
 40
1.0
 40
1.0
 10
-14.84641121488542
 20
47.69846153846136
 30
0.0
 10
-14.93598103921846
 20
47.69671390547539
 30
0.0
 10
-15.11304175079596
 20
47.6932592024839
 30
0.0
 10
-15.37390194563365
 20
47.66048740439051
 30
0.0
 10
-15.62441537111412
 20
47.60631641904223
 30
0.0
 10
-15.86643047857509
 20
47.53213082875043
 30
0.0
 10
-16.09677581678122
 20
47.43324910731396
 30
0.0
 10
-16.32018944026325
 20
47.31729703128686
 30
0.0
 10
-16.53099057239129
 20
47.1757496489941
 30
0.0
 10
-16.66282284518282
 20
47.06786720661643
 30
0.0
 10
-16.72942403539824
 20
47.01336538461521
 30
0.0
  0
SPLINE
  5
147
330
1F
100
AcDbEntity
  8
0
  6
Continuous
 62
     7
370
    25
100
AcDbSpline
210
0.0
220
0.0
230
1.0
 70
     8
 71
     3
 72
    15
 73
    11
 74
     0
 42
0.000000001
 43
0.00000001
 40
0.0
 40
0.0
 40
0.0
 40
0.0
 40
0.1099838451118741
 40
0.2225804973638912
 40
0.338499870962445
 40
0.4587085654776352
 40
0.5855353464579965
 40
0.7175177429458909
 40
0.854666819751022
 40
0.9999999999999999
 40
0.9999999999999999
 40
0.9999999999999999
 40
0.9999999999999999
 10
-16.72942403539824
 20
47.01336538461521
 30
0.0
 10
-16.77711912672501
 20
46.97023876854534
 30
0.0
 10
-16.87364236737485
 20
46.88296100839165
 30
0.0
 10
-17.00261528591568
 20
46.73259184681727
 30
0.0
 10
-17.12610235073338
 20
46.57044452635435
 30
0.0
 10
-17.23848421574094
 20
46.39031559893107
 30
0.0
 10
-17.34156303419735
 20
46.1942562303408
 30
0.0
 10
-17.43802011185722
 20
45.98392012966992
 30
0.0
 10
-17.52483843209041
 20
45.75771118606533
 30
0.0
 10
-17.57368446075749
 20
45.60007564541309
 30
0.0
 10
-17.59881506103927
 20
45.51897435897418
 30
0.0
  0
SPLINE
  5
149
330
1F
100
AcDbEntity
  8
0
  6
Continuous
 62
     7
370
    25
100
AcDbSpline
210
0.0
220
0.0
230
1.0
 70
     8
 71
     3
 72
    19
 73
    15
 74
     0
 42
0.000000001
 43
0.00000001
 40
0.0
 40
0.0
 40
0.0
 40
0.0
 40
0.0962401251801511
 40
0.1852312611287005
 40
0.2675005230774398
 40
0.3444003817777774
 40
0.419594868555731
 40
0.4968906265927778
 40
0.5766379188385163
 40
0.6602678524196388
 40
0.7453866150876292
 40
0.8300403273864531
 40
0.9144742116388027
 40
1.0
 40
1.0
 40
1.0
 40
1.0
 10
-12.05194006103927
 20
45.51897435897418
 30
0.0
 10
-12.08478755976367
 20
45.63801114104422
 30
0.0
 10
-12.14800842114821
 20
45.86711862840734
 30
0.0
 10
-12.28011231956656
 20
46.18437831539013
 30
0.0
 10
-12.42888815012704
 20
46.46634374684619
 30
0.0
 10
-12.60495023976936
 20
46.71085698414928
 30
0.0
 10
-12.80443231298833
 20
46.92800987838393
 30
0.0
 10
-13.03484712055382
 20
47.11777726457758
 30
0.0
 10
-13.29323538767703
 20
47.28754141048454
 30
0.0
 10
-13.57826150389934
 20
47.43083426610411
 30
0.0
 10
-13.88009517554483
 20
47.55280529102519
 30
0.0
 10
-14.196112866892
 20
47.63459133602409
 30
0.0
 10
-14.51856368938003
 20
47.69061859973741
 30
0.0
 10
-14.73666165037346
 20
47.695836052397
 30
0.0
 10
-14.84641121488542
 20
47.69846153846136
 30
0.0
  0
SPLINE
  5
14A
330
1F
100
AcDbEntity
  8
0
  6
Continuous
 62
     7
370
    25
100
AcDbSpline
210
0.0
220
0.0
230
1.0
 70
     8
 71
     3
 72
    19
 73
    15
 74
     0
 42
0.000000001
 43
0.00000001
 40
0.0
 40
0.0
 40
0.0
 40
0.0
 40
0.0815893489321836
 40
0.1628588951679355
 40
0.2454836892755787
 40
0.330807139158011
 40
0.4164933737762844
 40
0.4998932031606316
 40
0.5830481559950209
 40
0.6671578520621575
 40
0.7513119292929138
 40
0.8337847893576154
 40
0.9162564885439799
 40
1.0
 40
1.0
 40
1.0
 40
1.0
 10
-52.82117083027004
 20
44.823862179487
 30
0.0
 10
-52.81584256367069
 20
44.69931901610415
 30
0.0
 10
-52.8052069154778
 20
44.45072085648271
 30
0.0
 10
-52.728776360055
 20
44.0822049228588
 30
0.0
 10
-52.60054815024484
 20
43.72319337411218
 30
0.0
 10
-52.42557082816474
 20
43.37673339262735
 30
0.0
 10
-52.20646618608274
 20
43.05506453444538
 30
0.0
 10
-51.95249860736207
 20
42.76437846998377
 30
0.0
 10
-51.6612120893253
 20
42.51440821777575
 30
0.0
 10
-51.33856206911364
 20
42.30515800747435
 30
0.0
 10
-50.99396786796978
 20
42.13612223348736
 30
0.0
 10
-50.63158520661879
 20
42.01850612061033
 30
0.0
 10
-50.25822624045735
 20
41.94256960455267
 30
0.0
 10
-50.00436242945184
 20
41.93369967073252
 30
0.0
 10
-49.8764592918085
 20
41.92923076923059
 30
0.0
  0
SPLINE
  5
14B
330
1F
100
AcDbEntity
  8
0
  6
Continuous
 62
     7
370
    25
100
AcDbSpline
210
0.0
220
0.0
230
1.0
 70
     8
 71
     3
 72
    19
 73
    15
 74
     0
 42
0.000000001
 43
0.00000001
 40
0.0
 40
0.0
 40
0.0
 40
0.0
 40
0.0859205174117674
 40
0.1695934351247427
 40
0.2524755148685387
 40
0.3362444769570501
 40
0.4195045210415719
 40
0.5020359066440891
 40
0.5847746476768717
 40
0.6698464747058007
 40
0.7541848663887868
 40
0.8366582383293264
 40
0.9180097257088052
 40
1.0
 40
1.0
 40
1.0
 40
1.0
 10
-49.86844647129568
 20
47.69846153846136
 30
0.0
 10
-49.99963029378727
 20
47.69379400208835
 30
0.0
 10
-50.25856629370126
 20
47.68458102769163
 30
0.0
 10
-50.63869201387966
 20
47.61265675573576
 30
0.0
 10
-51.00244462555972
 20
47.492986486125
 30
0.0
 10
-51.34800483775566
 20
47.32932391135826
 30
0.0
 10
-51.6699140281059
 20
47.1235275210238
 30
0.0
 10
-51.95761023047542
 20
46.87460928304714
 30
0.0
 10
-52.21344652006383
 20
46.58936067117673
 30
0.0
 10
-52.42861298930027
 20
46.26906892720476
 30
0.0
 10
-52.60401440907082
 20
45.925702952723
 30
0.0
 10
-52.7273487860329
 20
45.56677598671991
 30
0.0
 10
-52.80868949291622
 20
45.1987617651294
 30
0.0
 10
-52.81699955166329
 20
44.94915409147869
 30
0.0
 10
-52.82117083027004
 20
44.823862179487
 30
0.0
  0
SPLINE
  5
14C
330
1F
100
AcDbEntity
  8
0
  6
Continuous
 62
     7
370
    25
100
AcDbSpline
210
0.0
220
0.0
230
1.0
 70
     8
 71
     3
 72
    19
 73
    15
 74
     0
 42
0.000000001
 43
0.00000001
 40
0.0
 40
0.0
 40
0.0
 40
0.0
 40
0.0848023883688269
 40
0.1686635395998414
 40
0.2525519243727813
 40
0.3382396894642447
 40
0.4231026613931557
 40
0.5055560510576225
 40
0.5861756559890511
 40
0.6671357203303607
 40
0.7484991803055339
 40
0.8304523987582781
 40
0.9134557062010128
 40
1.0
 40
1.0
 40
1.0
 40
1.0
 10
-49.8764592918085
 20
41.92923076923059
 30
0.0
 10
-49.74661214105944
 20
41.93397352330432
 30
0.0
 10
-49.48835903671245
 20
41.94340639076139
 30
0.0
 10
-49.10710558562671
 20
42.01563857731349
 30
0.0
 10
-48.73711997763279
 20
42.13497800117078
 30
0.0
 10
-48.38344218226605
 20
42.30040407755361
 30
0.0
 10
-48.05396752184365
 20
42.5054250944024
 30
0.0
 10
-47.75825930008238
 20
42.74544535449063
 30
0.0
 10
-47.50821367615819
 20
43.02459730912494
 30
0.0
 10
-47.29623479164896
 20
43.3313871749678
 30
0.0
 10
-47.1300193153672
 20
43.66770716485602
 30
0.0
 10
-47.00894486051843
 20
44.02580485270146
 30
0.0
 10
-46.93736227258612
 20
44.40569270454443
 30
0.0
 10
-46.92834018789311
 20
44.66530392442621
 30
0.0
 10
-46.92373493283414
 20
44.79782051282034
 30
0.0
  0
SPLINE
  5
14D
330
1F
100
AcDbEntity
  8
0
  6
Continuous
 62
     7
370
    25
100
AcDbSpline
210
0.0
220
0.0
230
1.0
 70
     8
 71
     3
 72
    23
 73
    19
 74
     0
 42
0.000000001
 43
0.00000001
 40
0.0
 40
0.0
 40
0.0
 40
0.0
 40
0.06563379967569
 40
0.1291880880571287
 40
0.191218683112188
 40
0.2519128178811569
 40
0.3125074743865502
 40
0.373494433775198
 40
0.4351515996540494
 40
0.498741474406649
 40
0.5620952169966305
 40
0.624186566811655
 40
0.6854757184651951
 40
0.7460968148060528
 40
0.8076116364477846
 40
0.8699665806571891
 40
0.9339510189149066
 40
0.9999999999999999
 40
0.9999999999999999
 40
0.9999999999999999
 40
0.9999999999999999
 10
-46.92373493283414
 20
44.79782051282034
 30
0.0
 10
-46.92647680818153
 20
44.89878574284249
 30
0.0
 10
-46.9318736865517
 20
45.09751726671072
 30
0.0
 10
-46.9731038852107
 20
45.38931017405938
 30
0.0
 10
-47.03868938924475
 20
45.66854939126029
 30
0.0
 10
-47.13110701786326
 20
45.9355285028563
 30
0.0
 10
-47.25251068762198
 20
46.18877140399698
 30
0.0
 10
-47.39893287586884
 20
46.43009643316933
 30
0.0
 10
-47.57294844653623
 20
46.65824846571125
 30
0.0
 10
-47.77175614967902
 20
46.87008581136405
 30
0.0
 10
-47.98937101409462
 20
47.0633042749618
 30
0.0
 10
-48.2196411301863
 20
47.23577353413828
 30
0.0
 10
-48.46529469292181
 20
47.37745574196644
 30
0.0
 10
-48.7222005126868
 20
47.49471651767398
 30
0.0
 10
-48.99080432543553
 20
47.58802837452429
 30
0.0
 10
-49.27329181063138
 20
47.65027892814733
 30
0.0
 10
-49.56666034470869
 20
47.69302270253419
 30
0.0
 10
-49.7667919315553
 20
47.69662950473221
 30
0.0
 10
-49.86844647129568
 20
47.69846153846136
 30
0.0
  0
LINE
  5
14E
330
1F
100
AcDbEntity
  8
0
  6
Continuous
 62
     7
370
    25
100
AcDbLine
 10
-56.9237349328
 20
41.16
 30
0.0
 11
-57.8211708303
 21
41.16
 31
0.0
  0
LINE
  5
14F
330
1F
100
AcDbEntity
  8
0
  6
Continuous
 62
     7
370
    25
100
AcDbLine
 10
-56.9237349328
 20
50.1343589744
 30
0.0
 11
-56.9237349328
 21
41.16
 31
0.0
  0
LINE
  5
150
330
1F
100
AcDbEntity
  8
0
  6
Continuous
 62
     7
370
    25
100
AcDbLine
 10
-54.7442477533
 20
50.1343589744
 30
0.0
 11
-56.9237349328
 21
50.1343589744
 31
0.0
  0
LINE
  5
151
330
1F
100
AcDbEntity
  8
0
  6
Continuous
 62
     7
370
    25
100
AcDbLine
 10
-54.7442477533
 20
51.16
 30
0.0
 11
-54.7442477533
 21
50.1343589744
 31
0.0
  0
LINE
  5
152
330
1F
100
AcDbEntity
  8
0
  6
Continuous
 62
     7
370
    25
100
AcDbLine
 10
-60.0006580098
 20
51.16
 30
0.0
 11
-54.7442477533
 21
51.16
 31
0.0
  0
LINE
  5
153
330
1F
100
AcDbEntity
  8
0
  6
Continuous
 62
     7
370
    25
100
AcDbLine
 10
-60.0006580098
 20
50.1343589744
 30
0.0
 11
-60.0006580098
 21
51.16
 31
0.0
  0
LINE
  5
154
330
1F
100
AcDbEntity
  8
0
  6
Continuous
 62
     7
370
    25
100
AcDbLine
 10
-57.8211708303
 20
50.1343589744
 30
0.0
 11
-60.0006580098
 21
50.1343589744
 31
0.0
  0
LINE
  5
155
330
1F
100
AcDbEntity
  8
0
  6
Continuous
 62
     7
370
    25
100
AcDbLine
 10
-57.8211708303
 20
41.16
 30
0.0
 11
-57.8211708303
 21
50.1343589744
 31
0.0
  0
LINE
  5
156
330
1F
100
AcDbEntity
  8
0
  6
Continuous
 62
     7
370
    25
100
AcDbLine
 10
-46.9237349328
 20
41.16
 30
0.0
 11
-46.9237349328
 21
42.4240224359
 31
0.0
  0
LINE
  5
157
330
1F
100
AcDbEntity
  8
0
  6
Continuous
 62
     7
370
    25
100
AcDbLine
 10
-46.0262990354
 20
41.16
 30
0.0
 11
-46.9237349328
 21
41.16
 31
0.0
  0
LINE
  5
158
330
1F
100
AcDbEntity
  8
0
  6
Continuous
 62
     7
370
    25
100
AcDbLine
 10
-46.0262990354
 20
48.4676923077
 30
0.0
 11
-46.0262990354
 21
41.16
 31
0.0
  0
LINE
  5
159
330
1F
100
AcDbEntity
  8
0
  6
Continuous
 62
     7
370
    25
100
AcDbLine
 10
-46.9237349328
 20
48.4676923077
 30
0.0
 11
-46.0262990354
 21
48.4676923077
 31
0.0
  0
LINE
  5
15A
330
1F
100
AcDbEntity
  8
0
  6
Continuous
 62
     7
370
    25
100
AcDbLine
 10
-46.9237349328
 20
47.1155288462
 30
0.0
 11
-46.9237349328
 21
48.4676923077
 31
0.0
  0
LINE
  5
15B
330
1F
100
AcDbEntity
  8
0
  6
Continuous
 62
     7
370
    25
100
AcDbLine
 10
-3.3339913431
 20
48.4676923077
 30
0.0
 11
-6.6673246764
 21
41.16
 31
0.0
  0
LINE
  5
15C
330
1F
100
AcDbEntity
  8
0
  6
Continuous
 62
     7
370
    25
100
AcDbLine
 10
-4.3055458303
 20
48.4676923077
 30
0.0
 11
-3.3339913431
 21
48.4676923077
 31
0.0
  0
LINE
  5
15D
330
1F
100
AcDbEntity
  8
0
  6
Continuous
 62
     7
370
    25
100
AcDbLine
 10
-6.7314272405
 20
43.1471794872
 30
0.0
 11
-4.3055458303
 21
48.4676923077
 31
0.0
  0
LINE
  5
15E
330
1F
100
AcDbEntity
  8
0
  6
Continuous
 62
     7
370
    25
100
AcDbLine
 10
-9.1573086508
 20
48.4676923077
 30
0.0
 11
-6.7314272405
 21
43.1471794872
 31
0.0
  0
LINE
  5
15F
330
1F
100
AcDbEntity
  8
0
  6
Continuous
 62
     7
370
    25
100
AcDbLine
 10
-10.128863138
 20
48.4676923077
 30
0.0
 11
-9.1573086508
 21
48.4676923077
 31
0.0
  0
LINE
  5
160
330
1F
100
AcDbEntity
  8
0
  6
Continuous
 62
     7
370
    25
100
AcDbLine
 10
-6.7955298046
 20
41.16
 30
0.0
 11
-10.128863138
 21
48.4676923077
 31
0.0
  0
LINE
  5
161
330
1F
100
AcDbEntity
  8
0
  6
Continuous
 62
     7
370
    25
100
AcDbLine
 10
-6.6673246764
 20
41.16
 30
0.0
 11
-6.7955298046
 21
41.16
 31
0.0
  0
LINE
  5
162
330
1F
100
AcDbEntity
  8
0
  6
Continuous
 62
     7
370
    25
100
AcDbLine
 10
5.3839573749
 20
44.6215384615
 30
0.0
 11
-1.1545041636
 21
44.6215384615
 31
0.0
  0
LINE
  5
163
330
1F
100
AcDbEntity
  8
0
  6
Continuous
 62
     7
370
    25
100
AcDbLine
 10
4.2020663492
 20
43.4676923077
 30
0.0
 11
4.9993419902
 21
43.0490224359
 31
0.0
  0
LINE
  5
164
330
1F
100
AcDbEntity
  8
0
  6
Continuous
 62
     7
370
    25
100
AcDbLine
 10
35.1275471184
 20
43.8022275641
 30
0.0
 11
35.1275471184
 21
41.16
 31
0.0
  0
LINE
  5
165
330
1F
100
AcDbEntity
  8
0
  6
Continuous
 62
     7
370
    25
100
AcDbLine
 10
39.7429317338
 20
41.16
 30
0.0
 11
39.7429317338
 21
44.5975
 31
0.0
  0
LINE
  5
166
330
1F
100
AcDbEntity
  8
0
  6
Continuous
 62
     7
370
    25
100
AcDbLine
 10
40.6403676313
 20
41.16
 30
0.0
 11
39.7429317338
 21
41.16
 31
0.0
  0
LINE
  5
167
330
1F
100
AcDbEntity
  8
0
  6
Continuous
 62
     7
370
    25
100
AcDbLine
 10
40.6403676313
 20
44.8919711538
 30
0.0
 11
40.6403676313
 21
41.16
 31
0.0
  0
LINE
  5
168
330
1F
100
AcDbEntity
  8
0
  6
Continuous
 62
     7
370
    25
100
AcDbLine
 10
35.1275471184
 20
48.4676923077
 30
0.0
 11
35.1275471184
 21
47.1495833333
 31
0.0
  0
LINE
  5
169
330
1F
100
AcDbEntity
  8
0
  6
Continuous
 62
     7
370
    25
100
AcDbLine
 10
34.230111221
 20
48.4676923077
 30
0.0
 11
35.1275471184
 21
48.4676923077
 31
0.0
  0
LINE
  5
16A
330
1F
100
AcDbEntity
  8
0
  6
Continuous
 62
     7
370
    25
100
AcDbLine
 10
34.230111221
 20
41.16
 30
0.0
 11
34.230111221
 21
48.4676923077
 31
0.0
  0
LINE
  5
16B
330
1F
100
AcDbEntity
  8
0
  6
Continuous
 62
     7
370
    25
100
AcDbLine
 10
35.1275471184
 20
41.16
 30
0.0
 11
34.230111221
 21
41.16
 31
0.0
  0
LINE
  5
16C
330
1F
100
AcDbEntity
  8
0
  6
Continuous
 62
     7
370
    25
100
AcDbLine
 10
42.3070342979
 20
47.5702564103
 30
0.0
 11
42.3070342979
 21
48.4676923077
 31
0.0
  0
LINE
  5
16D
330
1F
100
AcDbEntity
  8
0
  6
Continuous
 62
     7
370
    25
100
AcDbLine
 10
43.58908558
 20
47.5702564103
 30
0.0
 11
42.3070342979
 21
47.5702564103
 31
0.0
  0
LINE
  5
16E
330
1F
100
AcDbEntity
  8
0
  6
Continuous
 62
     7
370
    25
100
AcDbLine
 10
43.58908558
 20
41.16
 30
0.0
 11
43.58908558
 21
47.5702564103
 31
0.0
  0
LINE
  5
16F
330
1F
100
AcDbEntity
  8
0
  6
Continuous
 62
     7
370
    25
100
AcDbLine
 10
44.4865214774
 20
41.16
 30
0.0
 11
43.58908558
 21
41.16
 31
0.0
  0
LINE
  5
170
330
1F
100
AcDbEntity
  8
0
  6
Continuous
 62
     7
370
    25
100
AcDbLine
 10
44.4865214774
 20
47.5702564103
 30
0.0
 11
44.4865214774
 21
41.16
 31
0.0
  0
LINE
  5
171
330
1F
100
AcDbEntity
  8
0
  6
Continuous
 62
     7
370
    25
100
AcDbLine
 10
45.7685727595
 20
47.5702564103
 30
0.0
 11
44.4865214774
 21
47.5702564103
 31
0.0
  0
LINE
  5
172
330
1F
100
AcDbEntity
  8
0
  6
Continuous
 62
     7
370
    25
100
AcDbLine
 10
45.7685727595
 20
48.4676923077
 30
0.0
 11
45.7685727595
 21
47.5702564103
 31
0.0
  0
LINE
  5
173
330
1F
100
AcDbEntity
  8
0
  6
Continuous
 62
     7
370
    25
100
AcDbLine
 10
44.4865214774
 20
48.4676923077
 30
0.0
 11
45.7685727595
 21
48.4676923077
 31
0.0
  0
LINE
  5
174
330
1F
100
AcDbEntity
  8
0
  6
Continuous
 62
     7
370
    25
100
AcDbLine
 10
44.4865214774
 20
51.4164102564
 30
0.0
 11
44.4865214774
 21
48.4676923077
 31
0.0
  0
LINE
  5
175
330
1F
100
AcDbEntity
  8
0
  6
Continuous
 62
     7
370
    25
100
AcDbLine
 10
43.58908558
 20
51.4164102564
 30
0.0
 11
44.4865214774
 21
51.4164102564
 31
0.0
  0
LINE
  5
176
330
1F
100
AcDbEntity
  8
0
  6
Continuous
 62
     7
370
    25
100
AcDbLine
 10
43.58908558
 20
48.4676923077
 30
0.0
 11
43.58908558
 21
51.4164102564
 31
0.0
  0
LINE
  5
177
330
1F
100
AcDbEntity
  8
0
  6
Continuous
 62
     7
370
    25
100
AcDbLine
 10
42.3070342979
 20
48.4676923077
 30
0.0
 11
43.58908558
 21
48.4676923077
 31
0.0
  0
LINE
  5
178
330
1F
100
AcDbEntity
  8
0
  6
Continuous
 62
     7
370
    25
100
AcDbLine
 10
47.948059939
 20
43.6159294872
 30
0.0
 11
47.948059939
 21
41.16
 31
0.0
  0
LINE
  5
179
330
1F
100
AcDbEntity
  8
0
  6
Continuous
 62
     7
370
    25
100
AcDbLine
 10
50.5121625031
 20
48.3454967949
 30
0.0
 11
50.0193740415
 21
47.5682532051
 31
0.0
  0
LINE
  5
17A
330
1F
100
AcDbEntity
  8
0
  6
Continuous
 62
     7
370
    25
100
AcDbLine
 10
47.948059939
 20
48.4676923077
 30
0.0
 11
47.948059939
 21
47.3919711538
 31
0.0
  0
LINE
  5
17B
330
1F
100
AcDbEntity
  8
0
  6
Continuous
 62
     7
370
    25
100
AcDbLine
 10
47.0506240415
 20
48.4676923077
 30
0.0
 11
47.948059939
 21
48.4676923077
 31
0.0
  0
LINE
  5
17C
330
1F
100
AcDbEntity
  8
0
  6
Continuous
 62
     7
370
    25
100
AcDbLine
 10
47.0506240415
 20
41.16
 30
0.0
 11
47.0506240415
 21
48.4676923077
 31
0.0
  0
LINE
  5
17D
330
1F
100
AcDbEntity
  8
0
  6
Continuous
 62
     7
370
    25
100
AcDbLine
 10
47.948059939
 20
41.16
 30
0.0
 11
47.0506240415
 21
41.16
 31
0.0
  0
LINE
  5
17E
330
1F
100
AcDbEntity
  8
0
  6
Continuous
 62
     7
370
    25
100
AcDbLine
 10
35.6
 20
31.16
 30
0.0
 11
-35.6
 21
31.16
 31
0.0
  0
LINE
  5
17F
330
1F
100
AcDbEntity
  8
0
  6
Continuous
 62
     7
370
    25
100
AcDbLine
 10
-35.6
 20
31.16
 30
0.0
 11
-35.6
 21
7.16
 31
0.0
  0
LINE
  5
180
330
1F
100
AcDbEntity
  8
0
  6
Continuous
 62
     7
370
    25
100
AcDbLine
 10
-35.6
 20
7.16
 30
0.0
 11
35.6
 21
7.16
 31
0.0
  0
LINE
  5
181
330
1F
100
AcDbEntity
  8
0
  6
Continuous
 62
     7
370
    25
100
AcDbLine
 10
35.6
 20
7.16
 30
0.0
 11
35.6
 21
31.16
 31
0.0
  0
LINE
  5
182
330
1F
100
AcDbEntity
  8
0
  6
Continuous
 62
     7
370
    25
100
AcDbLine
 10
-109.5
 20
-60.25
 30
0.0
 11
-109.5
 21
60.25
 31
0.0
  0
LINE
  5
183
330
1F
100
AcDbEntity
  8
0
  6
Continuous
 62
     7
370
    25
100
AcDbLine
 10
-107.5
 20
62.25
 30
0.0
 11
107.5
 21
62.25
 31
0.0
  0
LINE
  5
184
330
1F
100
AcDbEntity
  8
0
  6
Continuous
 62
     7
370
    25
100
AcDbLine
 10
109.5
 20
-60.25
 30
0.0
 11
109.5
 21
60.25
 31
0.0
  0
LINE
  5
185
330
1F
100
AcDbEntity
  8
0
  6
Continuous
 62
     7
370
    25
100
AcDbLine
 10
-107.5
 20
-62.25
 30
0.0
 11
107.5
 21
-62.25
 31
0.0
  0
LINE
  5
186
330
1F
100
AcDbEntity
  8
0
  6
Continuous
 62
     7
370
    25
100
AcDbLine
 10
-107.5
 20
-15.0
 30
0.0
 11
-107.5
 21
15.0
 31
0.0
  0
LINE
  5
187
330
1F
100
AcDbEntity
  8
0
  6
Continuous
 62
     7
370
    25
100
AcDbLine
 10
-105.0
 20
-15.0
 30
0.0
 11
-107.5
 21
-15.0
 31
0.0
  0
LINE
  5
188
330
1F
100
AcDbEntity
  8
0
  6
Continuous
 62
     7
370
    25
100
AcDbLine
 10
-105.0
 20
15.0
 30
0.0
 11
-105.0
 21
-15.0
 31
0.0
  0
LINE
  5
189
330
1F
100
AcDbEntity
  8
0
  6
Continuous
 62
     7
370
    25
100
AcDbLine
 10
-105.0
 20
15.0
 30
0.0
 11
-107.5
 21
15.0
 31
0.0
  0
LINE
  5
18A
330
1F
100
AcDbEntity
  8
0
  6
Continuous
 62
     7
370
    25
100
AcDbLine
 10
-45.0
 20
-60.25
 30
0.0
 11
-75.0
 21
-60.25
 31
0.0
  0
LINE
  5
18B
330
1F
100
AcDbEntity
  8
0
  6
Continuous
 62
     7
370
    25
100
AcDbLine
 10
-45.0
 20
-60.25
 30
0.0
 11
-45.0
 21
-55.25
 31
0.0
  0
LINE
  5
18C
330
1F
100
AcDbEntity
  8
0
  6
Continuous
 62
     7
370
    25
100
AcDbLine
 10
-75.0
 20
-55.25
 30
0.0
 11
-45.0
 21
-55.25
 31
0.0
  0
LINE
  5
18D
330
1F
100
AcDbEntity
  8
0
  6
Continuous
 62
     7
370
    25
100
AcDbLine
 10
-75.0
 20
-55.25
 30
0.0
 11
-75.0
 21
-60.25
 31
0.0
  0
LINE
  5
18E
330
1F
100
AcDbEntity
  8
0
  6
Continuous
 62
     7
370
    25
100
AcDbLine
 10
-15.0
 20
-60.25
 30
0.0
 11
15.0
 21
-60.25
 31
0.0
  0
LINE
  5
18F
330
1F
100
AcDbEntity
  8
0
  6
Continuous
 62
     7
370
    25
100
AcDbLine
 10
15.0
 20
-60.25
 30
0.0
 11
15.0
 21
-55.25
 31
0.0
  0
LINE
  5
190
330
1F
100
AcDbEntity
  8
0
  6
Continuous
 62
     7
370
    25
100
AcDbLine
 10
-15.0
 20
-55.25
 30
0.0
 11
15.0
 21
-55.25
 31
0.0
  0
LINE
  5
191
330
1F
100
AcDbEntity
  8
0
  6
Continuous
 62
     7
370
    25
100
AcDbLine
 10
-15.0
 20
-55.25
 30
0.0
 11
-15.0
 21
-60.25
 31
0.0
  0
LINE
  5
192
330
1F
100
AcDbEntity
  8
0
  6
Continuous
 62
     7
370
    25
100
AcDbLine
 10
45.0
 20
-60.25
 30
0.0
 11
75.0
 21
-60.25
 31
0.0
  0
LINE
  5
193
330
1F
100
AcDbEntity
  8
0
  6
Continuous
 62
     7
370
    25
100
AcDbLine
 10
75.0
 20
-60.25
 30
0.0
 11
75.0
 21
-55.25
 31
0.0
  0
LINE
  5
194
330
1F
100
AcDbEntity
  8
0
  6
Continuous
 62
     7
370
    25
100
AcDbLine
 10
45.0
 20
-55.25
 30
0.0
 11
75.0
 21
-55.25
 31
0.0
  0
LINE
  5
195
330
1F
100
AcDbEntity
  8
0
  6
Continuous
 62
     7
370
    25
100
AcDbLine
 10
45.0
 20
-55.25
 30
0.0
 11
45.0
 21
-60.25
 31
0.0
  0
LINE
  5
196
330
1F
100
AcDbEntity
  8
0
  6
Continuous
 62
     7
370
    25
100
AcDbLine
 10
105.0
 20
-15.0
 30
0.0
 11
107.5
 21
-15.0
 31
0.0
  0
LINE
  5
197
330
1F
100
AcDbEntity
  8
0
  6
Continuous
 62
     7
370
    25
100
AcDbLine
 10
107.5
 20
-15.0
 30
0.0
 11
107.5
 21
15.0
 31
0.0
  0
LINE
  5
198
330
1F
100
AcDbEntity
  8
0
  6
Continuous
 62
     7
370
    25
100
AcDbLine
 10
105.0
 20
15.0
 30
0.0
 11
107.5
 21
15.0
 31
0.0
  0
LINE
  5
199
330
1F
100
AcDbEntity
  8
0
  6
Continuous
 62
     7
370
    25
100
AcDbLine
 10
105.0
 20
15.0
 30
0.0
 11
105.0
 21
-15.0
 31
0.0
  0
LINE
  5
19A
330
1F
100
AcDbEntity
  8
0
  6
Continuous
 62
     7
370
    25
100
AcDbLine
 10
-45.0
 20
57.75
 30
0.0
 11
-45.0
 21
60.25
 31
0.0
  0
LINE
  5
19B
330
1F
100
AcDbEntity
  8
0
  6
Continuous
 62
     7
370
    25
100
AcDbLine
 10
-45.0
 20
60.25
 30
0.0
 11
-75.0
 21
60.25
 31
0.0
  0
LINE
  5
19C
330
1F
100
AcDbEntity
  8
0
  6
Continuous
 62
     7
370
    25
100
AcDbLine
 10
-75.0
 20
57.75
 30
0.0
 11
-75.0
 21
60.25
 31
0.0
  0
LINE
  5
19D
330
1F
100
AcDbEntity
  8
0
  6
Continuous
 62
     7
370
    25
100
AcDbLine
 10
-75.0
 20
57.75
 30
0.0
 11
-45.0
 21
57.75
 31
0.0
  0
LINE
  5
19E
330
1F
100
AcDbEntity
  8
0
  6
Continuous
 62
     7
370
    25
100
AcDbLine
 10
15.0
 20
57.75
 30
0.0
 11
15.0
 21
60.25
 31
0.0
  0
LINE
  5
19F
330
1F
100
AcDbEntity
  8
0
  6
Continuous
 62
     7
370
    25
100
AcDbLine
 10
-15.0
 20
60.25
 30
0.0
 11
15.0
 21
60.25
 31
0.0
  0
LINE
  5
1A0
330
1F
100
AcDbEntity
  8
0
  6
Continuous
 62
     7
370
    25
100
AcDbLine
 10
-15.0
 20
57.75
 30
0.0
 11
-15.0
 21
60.25
 31
0.0
  0
LINE
  5
1A1
330
1F
100
AcDbEntity
  8
0
  6
Continuous
 62
     7
370
    25
100
AcDbLine
 10
-15.0
 20
57.75
 30
0.0
 11
15.0
 21
57.75
 31
0.0
  0
LINE
  5
1A2
330
1F
100
AcDbEntity
  8
0
  6
Continuous
 62
     7
370
    25
100
AcDbLine
 10
75.0
 20
57.75
 30
0.0
 11
75.0
 21
60.25
 31
0.0
  0
LINE
  5
1A3
330
1F
100
AcDbEntity
  8
0
  6
Continuous
 62
     7
370
    25
100
AcDbLine
 10
45.0
 20
60.25
 30
0.0
 11
75.0
 21
60.25
 31
0.0
  0
LINE
  5
1A4
330
1F
100
AcDbEntity
  8
0
  6
Continuous
 62
     7
370
    25
100
AcDbLine
 10
45.0
 20
57.75
 30
0.0
 11
45.0
 21
60.25
 31
0.0
  0
LINE
  5
1A5
330
1F
100
AcDbEntity
  8
0
  6
Continuous
 62
     7
370
    25
100
AcDbLine
 10
45.0
 20
57.75
 30
0.0
 11
75.0
 21
57.75
 31
0.0
  0
LINE
  5
1A6
330
1F
100
AcDbEntity
  8
0
  6
Continuous
 62
     7
370
    25
100
AcDbLine
 10
61.2813932723
 20
51.4164102564
 30
0.0
 11
61.2813932723
 21
41.16
 31
0.0
  0
LINE
  5
1A7
330
1F
100
AcDbEntity
  8
0
  6
Continuous
 62
     7
370
    25
100
AcDbLine
 10
60.3839573749
 20
51.4164102564
 30
0.0
 11
61.2813932723
 21
51.4164102564
 31
0.0
  0
LINE
  5
1A8
330
1F
100
AcDbEntity
  8
0
  6
Continuous
 62
     7
370
    25
100
AcDbLine
 10
60.3839573749
 20
41.16
 30
0.0
 11
60.3839573749
 21
51.4164102564
 31
0.0
  0
LINE
  5
1A9
330
1F
100
AcDbEntity
  8
0
  6
Continuous
 62
     7
370
    25
100
AcDbLine
 10
61.2813932723
 20
41.16
 30
0.0
 11
60.3839573749
 21
41.16
 31
0.0
  0
LINE
  5
1AA
330
1F
100
AcDbEntity
  8
0
  6
Continuous
 62
     7
370
    25
100
AcDbLine
 10
22.5474189133
 20
43.5958974359
 30
0.0
 11
23.3326753236
 21
43.0009455128
 31
0.0
  0
LINE
  5
1AB
330
1F
100
AcDbEntity
  8
0
  6
Continuous
 62
     7
370
    25
100
AcDbLine
 10
23.3326753236
 20
49.3250641026
 30
0.0
 11
22.5474189133
 21
48.7241025641
 31
0.0
  0
LINE
  5
1AC
330
1F
100
AcDbEntity
  8
0
  6
Continuous
 62
     7
370
    25
100
AcDbLine
 10
7.948059939
 20
51.4164102564
 30
0.0
 11
7.948059939
 21
41.16
 31
0.0
  0
LINE
  5
1AD
330
1F
100
AcDbEntity
  8
0
  6
Continuous
 62
     7
370
    25
100
AcDbLine
 10
7.0506240415
 20
51.4164102564
 30
0.0
 11
7.948059939
 21
51.4164102564
 31
0.0
  0
LINE
  5
1AE
330
1F
100
AcDbEntity
  8
0
  6
Continuous
 62
     7
370
    25
100
AcDbLine
 10
7.0506240415
 20
41.16
 30
0.0
 11
7.0506240415
 21
51.4164102564
 31
0.0
  0
LINE
  5
1AF
330
1F
100
AcDbEntity
  8
0
  6
Continuous
 62
     7
370
    25
100
AcDbLine
 10
7.948059939
 20
41.16
 30
0.0
 11
7.0506240415
 21
41.16
 31
0.0
  0
LINE
  5
1B0
330
1F
100
AcDbEntity
  8
0
  6
Continuous
 62
     7
370
    25
100
AcDbLine
 10
-11.1545041636
 20
44.6215384615
 30
0.0
 11
-17.6929657021
 21
44.6215384615
 31
0.0
  0
LINE
  5
1B1
330
1F
100
AcDbEntity
  8
0
  6
Continuous
 62
     7
370
    25
100
AcDbLine
 10
-12.3363951892
 20
43.4676923077
 30
0.0
 11
-11.5391195482
 21
43.0490224359
 31
0.0
  0
LINE
  5
1B2
330
1F
100
AcDbEntity
  8
0
  6
Continuous
 62
     7
370
    25
100
AcDbLine
 10
-19.7442477533
 20
42.1856410256
 30
0.0
 11
-19.7442477533
 21
41.16
 31
0.0
  0
LINE
  5
1B3
330
1F
100
AcDbEntity
  8
0
  6
Continuous
 62
     7
370
    25
100
AcDbLine
 10
-23.5904015995
 20
42.1856410256
 30
0.0
 11
-19.7442477533
 21
42.1856410256
 31
0.0
  0
LINE
  5
1B4
330
1F
100
AcDbEntity
  8
0
  6
Continuous
 62
     7
370
    25
100
AcDbLine
 10
-23.5904015995
 20
51.16
 30
0.0
 11
-23.5904015995
 21
42.1856410256
 31
0.0
  0
LINE
  5
1B5
330
1F
100
AcDbEntity
  8
0
  6
Continuous
 62
     7
370
    25
100
AcDbLine
 10
-24.4878374969
 20
51.16
 30
0.0
 11
-23.5904015995
 21
51.16
 31
0.0
  0
LINE
  5
1B6
330
1F
100
AcDbEntity
  8
0
  6
Continuous
 62
     7
370
    25
100
AcDbLine
 10
-24.4878374969
 20
41.16
 30
0.0
 11
-24.4878374969
 21
51.16
 31
0.0
  0
LINE
  5
1B7
330
1F
100
AcDbEntity
  8
0
  6
Continuous
 62
     7
370
    25
100
AcDbLine
 10
-19.7442477533
 20
41.16
 30
0.0
 11
-24.4878374969
 21
41.16
 31
0.0
  0
LINE
  5
1B8
330
1F
100
AcDbEntity
  8
0
  6
Continuous
 62
     7
370
    25
100
AcDbLine
 10
-34.6160426251
 20
44.5273878205
 30
0.0
 11
-34.6160426251
 21
41.16
 31
0.0
  0
LINE
  5
1B9
330
1F
100
AcDbEntity
  8
0
  6
Continuous
 62
     7
370
    25
100
AcDbLine
 10
-30.9041035226
 20
41.16
 30
0.0
 11
-34.6160426251
 21
44.5273878205
 31
0.0
  0
LINE
  5
1BA
330
1F
100
AcDbEntity
  8
0
  6
Continuous
 62
     7
370
    25
100
AcDbLine
 10
-29.6160426251
 20
41.16
 30
0.0
 11
-30.9041035226
 21
41.16
 31
0.0
  0
LINE
  5
1BB
330
1F
100
AcDbEntity
  8
0
  6
Continuous
 62
     7
370
    25
100
AcDbLine
 10
-33.8588310867
 20
45.0061538462
 30
0.0
 11
-29.6160426251
 21
41.16
 31
0.0
  0
LINE
  5
1BC
330
1F
100
AcDbEntity
  8
0
  6
Continuous
 62
     7
370
    25
100
AcDbLine
 10
-30.0006580098
 20
48.4676923077
 30
0.0
 11
-33.8588310867
 21
45.0061538462
 31
0.0
  0
LINE
  5
1BD
330
1F
100
AcDbEntity
  8
0
  6
Continuous
 62
     7
370
    25
100
AcDbLine
 10
-31.2907221123
 20
48.4676923077
 30
0.0
 11
-30.0006580098
 21
48.4676923077
 31
0.0
  0
LINE
  5
1BE
330
1F
100
AcDbEntity
  8
0
  6
Continuous
 62
     7
370
    25
100
AcDbLine
 10
-34.6160426251
 20
45.4869230769
 30
0.0
 11
-31.2907221123
 21
48.4676923077
 31
0.0
  0
LINE
  5
1BF
330
1F
100
AcDbEntity
  8
0
  6
Continuous
 62
     7
370
    25
100
AcDbLine
 10
-34.6160426251
 20
51.4164102564
 30
0.0
 11
-34.6160426251
 21
45.4869230769
 31
0.0
  0
LINE
  5
1C0
330
1F
100
AcDbEntity
  8
0
  6
Continuous
 62
     7
370
    25
100
AcDbLine
 10
-35.5134785226
 20
51.4164102564
 30
0.0
 11
-34.6160426251
 21
51.4164102564
 31
0.0
  0
LINE
  5
1C1
330
1F
100
AcDbEntity
  8
0
  6
Continuous
 62
     7
370
    25
100
AcDbLine
 10
-35.5134785226
 20
41.16
 30
0.0
 11
-35.5134785226
 21
51.4164102564
 31
0.0
  0
LINE
  5
1C2
330
1F
100
AcDbEntity
  8
0
  6
Continuous
 62
     7
370
    25
100
AcDbLine
 10
-34.6160426251
 20
41.16
 30
0.0
 11
-35.5134785226
 21
41.16
 31
0.0
  0
LINE
  5
1C3
330
1F
100
AcDbEntity
  8
0
  6
Continuous
 62
     7
370
    25
100
AcDbLine
 10
-43.0775810867
 20
43.8022275641
 30
0.0
 11
-43.0775810867
 21
41.16
 31
0.0
  0
LINE
  5
1C4
330
1F
100
AcDbEntity
  8
0
  6
Continuous
 62
     7
370
    25
100
AcDbLine
 10
-38.4621964713
 20
41.16
 30
0.0
 11
-38.4621964713
 21
44.5975
 31
0.0
  0
LINE
  5
1C5
330
1F
100
AcDbEntity
  8
0
  6
Continuous
 62
     7
370
    25
100
AcDbLine
 10
-37.5647605739
 20
41.16
 30
0.0
 11
-38.4621964713
 21
41.16
 31
0.0
  0
LINE
  5
1C6
330
1F
100
AcDbEntity
  8
0
  6
Continuous
 62
     7
370
    25
100
AcDbLine
 10
-37.5647605739
 20
44.8919711538
 30
0.0
 11
-37.5647605739
 21
41.16
 31
0.0
  0
LINE
  5
1C7
330
1F
100
AcDbEntity
  8
0
  6
Continuous
 62
     7
370
    25
100
AcDbLine
 10
-43.0775810867
 20
48.4676923077
 30
0.0
 11
-43.0775810867
 21
47.1495833333
 31
0.0
  0
LINE
  5
1C8
330
1F
100
AcDbEntity
  8
0
  6
Continuous
 62
     7
370
    25
100
AcDbLine
 10
-43.9750169841
 20
48.4676923077
 30
0.0
 11
-43.0775810867
 21
48.4676923077
 31
0.0
  0
LINE
  5
1C9
330
1F
100
AcDbEntity
  8
0
  6
Continuous
 62
     7
370
    25
100
AcDbLine
 10
-43.9750169841
 20
41.16
 30
0.0
 11
-43.9750169841
 21
48.4676923077
 31
0.0
  0
LINE
  5
1CA
330
1F
100
AcDbEntity
  8
0
  6
Continuous
 62
     7
370
    25
100
AcDbLine
 10
-43.0775810867
 20
41.16
 30
0.0
 11
-43.9750169841
 21
41.16
 31
0.0
  0
LINE
  5
1CB
330
1F
100
AcDbEntity
  8
0
  6
Continuous
 62
     7
370
    25
100
AcDbLine
 10
-1.0603535226
 20
45.518974359
 30
0.0
 11
4.4865214774
 21
45.518974359
 31
0.0
  0
LINE
  5
1CC
330
1F
100
AcDbEntity
  8
0
  6
Continuous
 62
     7
370
    25
100
AcDbLine
 10
-17.598815061
 20
45.518974359
 30
0.0
 11
-12.051940061
 21
45.518974359
 31
0.0
  0
ARC
  5
1CD
330
1F
100
AcDbEntity
  8
0
  6
Continuous
 62
     7
370
    25
100
AcDbCircle
 10
-107.5
 20
-60.25
 30
0.0
 40
2.000000000000028
100
AcDbArc
 50
180.0
 51
270.0
  0
ARC
  5
1CE
330
1F
100
AcDbEntity
  8
0
  6
Continuous
 62
     7
370
    25
100
AcDbCircle
 10
-107.5
 20
60.25
 30
0.0
 40
2.000000000000014
100
AcDbArc
 50
90.0
 51
180.0
  0
ARC
  5
1CF
330
1F
100
AcDbEntity
  8
0
  6
Continuous
 62
     7
370
    25
100
AcDbCircle
 10
107.5
 20
60.25
 30
0.0
 40
2.000000000000014
100
AcDbArc
 50
0.0
 51
90.0
  0
ARC
  5
1D0
330
1F
100
AcDbEntity
  8
0
  6
Continuous
 62
     7
370
    25
100
AcDbCircle
 10
107.5
 20
-60.25
 30
0.0
 40
2.000000000000014
100
AcDbArc
 50
270.0
 51
0.0
  0
ENDSEC
  0
SECTION
  2
OBJECTS
  0
DICTIONARY
  5
C
330
0
100
AcDbDictionary
281
     1
  3
ACAD_GROUP
350
D
  3
ACAD_LAYOUT
350
1A
  3
ACAD_MLINESTYLE
350
17
  3
ACAD_PLOTSETTINGS
350
19
  3
ACAD_PLOTSTYLENAME
350
E
  3
ACAD_SCALELIST
350
47
  0
DICTIONARY
  5
D
102
{ACAD_REACTORS
330
C
102
}
330
C
100
AcDbDictionary
281
     1
  0
DICTIONARY
  5
1A
102
{ACAD_REACTORS
330
C
102
}
330
C
100
AcDbDictionary
281
     1
  3
Layout1
350
1E
  3
Layout2
350
26
  3
Model
350
22
  0
DICTIONARY
  5
17
102
{ACAD_REACTORS
330
C
102
}
330
C
100
AcDbDictionary
281
     1
  3
Standard
350
18
  0
DICTIONARY
  5
19
102
{ACAD_REACTORS
330
C
102
}
330
C
100
AcDbDictionary
281
     1
  0
ACDBDICTIONARYWDFLT
  5
E
102
{ACAD_REACTORS
330
C
102
}
330
C
100
AcDbDictionary
281
     1
  3
Normal
350
F
100
AcDbDictionaryWithDefault
340
F
  0
DICTIONARY
  5
47
102
{ACAD_REACTORS
330
C
102
}
330
C
100
AcDbDictionary
281
     1
  3
A0
350
48
  3
A1
350
49
  3
A2
350
4A
  3
A3
350
4B
  3
A4
350
4C
  3
A5
350
4D
  3
A6
350
4E
  3
A7
350
4F
  3
A8
350
50
  3
A9
350
51
  3
B0
350
52
  3
B1
350
53
  3
B2
350
54
  3
B3
350
55
  3
B4
350
56
  3
B5
350
57
  3
B6
350
58
  3
B7
350
59
  3
B8
350
5A
  3
B9
350
5B
  3
C0
350
5C
  3
C1
350
5D
  3
C2
350
5E
  3
C3
350
5F
  3
C4
350
60
  3
C5
350
61
  3
C6
350
62
  3
C7
350
63
  3
C8
350
64
  3
C9
350
65
  3
D0
350
66
  3
D1
350
67
  3
D2
350
68
  0
LAYOUT
  5
1E
102
{ACAD_REACTORS
330
1A
102
}
330
1A
100
AcDbPlotSettings
  1

  2
none_device
  4

  6

 40
0.0
 41
0.0
 42
0.0
 43
0.0
 44
0.0
 45
0.0
 46
0.0
 47
0.0
 48
0.0
 49
0.0
140
0.0
141
0.0
142
1.0
143
1.0
 70
   688
 72
     1
 73
     0
 74
     5
  7

 75
    16
147
1.0
148
0.0
149
0.0
100
AcDbLayout
  1
Layout1
 70
     1
 71
     1
 10
0.0
 20
0.0
 11
420.0
 21
297.0
 12
0.0
 22
0.0
 32
0.0
 14
1.0000000000E+20
 24
1.0000000000E+20
 34
1.0000000000E+20
 15
-1.0000000000E+20
 25
-1.0000000000E+20
 35
-1.0000000000E+20
146
0.0
 13
0.0
 23
0.0
 33
0.0
 16
1.0
 26
0.0
 36
0.0
 17
0.0
 27
1.0
 37
0.0
 76
     0
330
1B
  0
LAYOUT
  5
26
102
{ACAD_REACTORS
330
1A
102
}
330
1A
100
AcDbPlotSettings
  1

  2
none_device
  4

  6

 40
0.0
 41
0.0
 42
0.0
 43
0.0
 44
0.0
 45
0.0
 46
0.0
 47
0.0
 48
0.0
 49
0.0
140
0.0
141
0.0
142
1.0
143
1.0
 70
   688
 72
     1
 73
     0
 74
     5
  7

 75
    16
147
1.0
148
0.0
149
0.0
100
AcDbLayout
  1
Layout2
 70
     1
 71
     2
 10
0.0
 20
0.0
 11
0.0
 21
0.0
 12
0.0
 22
0.0
 32
0.0
 14
0.0
 24
0.0
 34
0.0
 15
0.0
 25
0.0
 35
0.0
146
0.0
 13
0.0
 23
0.0
 33
0.0
 16
1.0
 26
0.0
 36
0.0
 17
0.0
 27
1.0
 37
0.0
 76
     0
330
23
  0
LAYOUT
  5
22
102
{ACAD_REACTORS
330
1A
102
}
330
1A
100
AcDbPlotSettings
  1

  2
none_device
  4
ANSI_A_(11.00_x_8.50_Inches)
  6

 40
6.35
 41
19.05
 42
6.35000508
 43
19.05000254
 44
279.4
 45
215.9
 46
133.34999746
 47
88.89999873
 48
0.0
 49
0.0
140
0.0
141
0.0
142
0.0497260274
143
1.0
 70
  1696
 72
     0
 73
     0
 74
     0
  7

 75
     0
147
0.0179189148
148
-1300.4909072572
149
0.0
100
AcDbLayout
  1
Model
 70
     1
 71
     0
 10
0.0
 20
0.0
 11
420.0
 21
297.0
 12
0.0
 22
0.0
 32
0.0
 14
-109.5
 24
-62.25
 34
0.0
 15
109.5
 25
62.25
 35
0.0
146
0.0
 13
0.0
 23
0.0
 33
0.0
 16
1.0
 26
0.0
 36
0.0
 17
0.0
 27
1.0
 37
0.0
 76
     0
330
1F
331
29
  0
MLINESTYLE
  5
18
102
{ACAD_REACTORS
330
17
102
}
330
17
100
AcDbMlineStyle
  2
Standard
 70
     0
  3

 62
   256
 51
90.0
 52
90.0
 71
     2
 49
0.5
 62
   256
  6
BYLAYER
 49
-0.5
 62
   256
  6
BYLAYER
  0
ACDBPLACEHOLDER
  5
F
102
{ACAD_REACTORS
330
E
102
}
330
E
  0
SCALE
  5
48
102
{ACAD_REACTORS
330
47
102
}
330
47
100
AcDbScale
 70
     0
300
1:1
140
1.0
141
1.0
290
     1
  0
SCALE
  5
49
102
{ACAD_REACTORS
330
47
102
}
330
47
100
AcDbScale
 70
     0
300
1:2
140
1.0
141
2.0
290
     0
  0
SCALE
  5
4A
102
{ACAD_REACTORS
330
47
102
}
330
47
100
AcDbScale
 70
     0
300
1:4
140
1.0
141
4.0
290
     0
  0
SCALE
  5
4B
102
{ACAD_REACTORS
330
47
102
}
330
47
100
AcDbScale
 70
     0
300
1:5
140
1.0
141
5.0
290
     0
  0
SCALE
  5
4C
102
{ACAD_REACTORS
330
47
102
}
330
47
100
AcDbScale
 70
     0
300
1:8
140
1.0
141
8.0
290
     0
  0
SCALE
  5
4D
102
{ACAD_REACTORS
330
47
102
}
330
47
100
AcDbScale
 70
     0
300
1:10
140
1.0
141
10.0
290
     0
  0
SCALE
  5
4E
102
{ACAD_REACTORS
330
47
102
}
330
47
100
AcDbScale
 70
     0
300
1:16
140
1.0
141
16.0
290
     0
  0
SCALE
  5
4F
102
{ACAD_REACTORS
330
47
102
}
330
47
100
AcDbScale
 70
     0
300
1:20
140
1.0
141
20.0
290
     0
  0
SCALE
  5
50
102
{ACAD_REACTORS
330
47
102
}
330
47
100
AcDbScale
 70
     0
300
1:30
140
1.0
141
30.0
290
     0
  0
SCALE
  5
51
102
{ACAD_REACTORS
330
47
102
}
330
47
100
AcDbScale
 70
     0
300
1:40
140
1.0
141
40.0
290
     0
  0
SCALE
  5
52
102
{ACAD_REACTORS
330
47
102
}
330
47
100
AcDbScale
 70
     0
300
1:50
140
1.0
141
50.0
290
     0
  0
SCALE
  5
53
102
{ACAD_REACTORS
330
47
102
}
330
47
100
AcDbScale
 70
     0
300
1:100
140
1.0
141
100.0
290
     0
  0
SCALE
  5
54
102
{ACAD_REACTORS
330
47
102
}
330
47
100
AcDbScale
 70
     0
300
2:1
140
2.0
141
1.0
290
     0
  0
SCALE
  5
55
102
{ACAD_REACTORS
330
47
102
}
330
47
100
AcDbScale
 70
     0
300
4:1
140
4.0
141
1.0
290
     0
  0
SCALE
  5
56
102
{ACAD_REACTORS
330
47
102
}
330
47
100
AcDbScale
 70
     0
300
8:1
140
8.0
141
1.0
290
     0
  0
SCALE
  5
57
102
{ACAD_REACTORS
330
47
102
}
330
47
100
AcDbScale
 70
     0
300
10:1
140
10.0
141
1.0
290
     0
  0
SCALE
  5
58
102
{ACAD_REACTORS
330
47
102
}
330
47
100
AcDbScale
 70
     0
300
100:1
140
100.0
141
1.0
290
     0
  0
SCALE
  5
59
102
{ACAD_REACTORS
330
47
102
}
330
47
100
AcDbScale
 70
     0
300
1/128" = 1'-0"
140
0.0078125
141
12.0
290
     0
  0
SCALE
  5
5A
102
{ACAD_REACTORS
330
47
102
}
330
47
100
AcDbScale
 70
     0
300
1/64" = 1'-0"
140
0.015625
141
12.0
290
     0
  0
SCALE
  5
5B
102
{ACAD_REACTORS
330
47
102
}
330
47
100
AcDbScale
 70
     0
300
1/32" = 1'-0"
140
0.03125
141
12.0
290
     0
  0
SCALE
  5
5C
102
{ACAD_REACTORS
330
47
102
}
330
47
100
AcDbScale
 70
     0
300
1/16" = 1'-0"
140
0.0625
141
12.0
290
     0
  0
SCALE
  5
5D
102
{ACAD_REACTORS
330
47
102
}
330
47
100
AcDbScale
 70
     0
300
3/32" = 1'-0"
140
0.09375
141
12.0
290
     0
  0
SCALE
  5
5E
102
{ACAD_REACTORS
330
47
102
}
330
47
100
AcDbScale
 70
     0
300
1/8" = 1'-0"
140
0.125
141
12.0
290
     0
  0
SCALE
  5
5F
102
{ACAD_REACTORS
330
47
102
}
330
47
100
AcDbScale
 70
     0
300
3/16" = 1'-0"
140
0.1875
141
12.0
290
     0
  0
SCALE
  5
60
102
{ACAD_REACTORS
330
47
102
}
330
47
100
AcDbScale
 70
     0
300
1/4" = 1'-0"
140
0.25
141
12.0
290
     0
  0
SCALE
  5
61
102
{ACAD_REACTORS
330
47
102
}
330
47
100
AcDbScale
 70
     0
300
3/8" = 1'-0"
140
0.375
141
12.0
290
     0
  0
SCALE
  5
62
102
{ACAD_REACTORS
330
47
102
}
330
47
100
AcDbScale
 70
     0
300
1/2" = 1'-0"
140
0.5
141
12.0
290
     0
  0
SCALE
  5
63
102
{ACAD_REACTORS
330
47
102
}
330
47
100
AcDbScale
 70
     0
300
3/4" = 1'-0"
140
0.75
141
12.0
290
     0
  0
SCALE
  5
64
102
{ACAD_REACTORS
330
47
102
}
330
47
100
AcDbScale
 70
     0
300
1" = 1'-0"
140
1.0
141
12.0
290
     0
  0
SCALE
  5
65
102
{ACAD_REACTORS
330
47
102
}
330
47
100
AcDbScale
 70
     0
300
1-1/2" = 1'-0"
140
1.5
141
12.0
290
     0
  0
SCALE
  5
66
102
{ACAD_REACTORS
330
47
102
}
330
47
100
AcDbScale
 70
     0
300
3" = 1'-0"
140
3.0
141
12.0
290
     0
  0
SCALE
  5
67
102
{ACAD_REACTORS
330
47
102
}
330
47
100
AcDbScale
 70
     0
300
6" = 1'-0"
140
6.0
141
12.0
290
     0
  0
SCALE
  5
68
102
{ACAD_REACTORS
330
47
102
}
330
47
100
AcDbScale
 70
     0
300
1'-0" = 1'-0"
140
12.0
141
12.0
290
     0
  0
ENDSEC
  0
EOF
